<svg width="16" height="16" viewBox="0 0 16 16" fill="none" xmlns="http://www.w3.org/2000/svg">
<circle cx="7.99884" cy="7.99982" r="7.85696" fill="url(#paint0_linear_3514_40156)" stroke="#D5DADD" stroke-width="0.285708"/>
<g clip-path="url(#clip0_3514_40156)">
<path d="M7.4519 11.6421L6.72925 10.8022C6.62508 10.6851 6.49487 10.6265 6.33862 10.6265C6.18237 10.6265 6.05868 10.6851 5.96753 10.8022C5.85034 10.9194 5.79175 11.0496 5.79175 11.1929C5.79175 11.3491 5.85034 11.4728 5.96753 11.564L7.60815 13.2241C7.72534 13.3413 7.85555 13.3999 7.99878 13.3999C8.14201 13.3999 8.27222 13.3413 8.3894 13.2241L10.0496 11.564C10.1537 11.4598 10.2058 11.3361 10.2058 11.1929C10.2058 11.0627 10.1537 10.9325 10.0496 10.8022C9.93237 10.6851 9.80216 10.6265 9.65894 10.6265C9.51571 10.6265 9.3855 10.6851 9.26831 10.8022L8.58472 11.6421L8.58472 10.8413C8.58472 10.5679 8.64982 10.3075 8.78003 10.0601C8.89722 9.81266 9.073 9.61084 9.30737 9.45459L10.616 8.57569C10.9936 8.31527 11.293 7.97673 11.5144 7.56006C11.7227 7.15641 11.8269 6.72022 11.8269 6.25147V5.21631C11.8269 4.85173 11.6446 4.66943 11.28 4.66943C10.9154 4.66943 10.7332 4.85173 10.7332 5.21631V6.25147C10.7332 6.85042 10.4923 7.31266 10.0105 7.63818L8.60425 8.59522C8.47404 8.69938 8.35685 8.79704 8.25269 8.88819C8.1355 8.99235 8.04435 9.10954 7.97925 9.23975C7.80998 8.96631 7.58862 8.74496 7.31519 8.57569L5.98706 7.69678C5.76571 7.54053 5.58993 7.33871 5.45972 7.09131C5.32951 6.85693 5.2644 6.59652 5.2644 6.31006V5.2749C5.2644 5.10563 5.21883 4.96891 5.12769 4.86475C5.02352 4.76058 4.8868 4.7085 4.71753 4.7085C4.54826 4.7085 4.41805 4.76058 4.3269 4.86475C4.22274 4.96891 4.17065 5.10563 4.17065 5.2749L4.17065 6.31006C4.17065 6.77881 4.27482 7.21501 4.48315 7.61865C4.69149 8.03532 4.99097 8.37386 5.38159 8.63428L6.70972 9.51319C6.93107 9.66944 7.10685 9.86475 7.23706 10.0991C7.35425 10.3465 7.42586 10.6134 7.4519 10.8999V11.6421Z" fill="url(#paint1_linear_3514_40156)"/>
<path d="M9.05024 3.95916C9.05024 4.10381 9.09724 4.23313 9.19144 4.34079L9.19713 4.34686C9.29679 4.44653 9.42444 4.49375 9.56908 4.49375C9.71372 4.49375 9.84137 4.44653 9.94104 4.34686C10.0477 4.24015 10.1037 4.10888 10.1037 3.95916C10.1037 3.81182 10.0493 3.68453 9.94119 3.58705C9.8437 3.47898 9.71642 3.42456 9.56908 3.42456C9.42033 3.42456 9.29202 3.48003 9.19418 3.59017C9.09653 3.6894 9.05024 3.81595 9.05024 3.95916Z" fill="url(#paint2_linear_3514_40156)"/>
<path d="M6.035 4.52403C5.9408 4.41637 5.8938 4.28705 5.8938 4.1424C5.8938 3.99775 5.94102 3.87011 6.04069 3.77044C6.14035 3.67077 6.268 3.62355 6.41264 3.62355C6.55585 3.62355 6.6824 3.66984 6.78163 3.7675C6.89177 3.86534 6.94724 3.99365 6.94724 4.1424C6.94724 4.29212 6.89131 4.42339 6.78459 4.5301C6.68493 4.62977 6.55728 4.67699 6.41264 4.67699C6.268 4.67699 6.14035 4.62977 6.04069 4.5301L6.035 4.52403Z" fill="url(#paint3_linear_3514_40156)"/>
<path d="M7.61652 7.92383C7.51917 7.82648 7.48145 7.69061 7.48145 7.54006V7.00158C7.48145 6.85837 7.52774 6.73182 7.6254 6.63259C7.72324 6.52245 7.85155 6.46699 8.00029 6.46699C8.15576 6.46699 8.29074 6.51991 8.39093 6.63258C8.48859 6.73181 8.53489 6.85837 8.53489 7.00158V7.54006C8.53489 7.69189 8.49515 7.82841 8.39413 7.92555C8.29402 8.02181 8.15489 8.05891 8.00029 8.05891C7.84975 8.05891 7.71387 8.02118 7.61652 7.92383Z" fill="url(#paint4_linear_3514_40156)"/>
<path d="M9.05034 6.44029C9.05034 6.59609 9.08937 6.7359 9.18935 6.83587C9.28932 6.93585 9.42913 6.97488 9.58493 6.97488C9.73676 6.97488 9.87328 6.93515 9.97042 6.83412C10.0667 6.73401 10.1038 6.59489 10.1038 6.44029V5.24301C10.1038 5.08841 10.0667 4.94929 9.97042 4.84918C9.87328 4.74815 9.73676 4.70842 9.58493 4.70842C9.42913 4.70842 9.28933 4.74745 9.18935 4.84743C9.08937 4.9474 9.05034 5.08721 9.05034 5.24301V6.44029Z" fill="url(#paint5_linear_3514_40156)"/>
<path d="M6.02717 6.76414C5.9309 6.66403 5.89381 6.52491 5.89381 6.37031V5.56687C5.89381 5.41632 5.93153 5.28045 6.02888 5.1831C6.12623 5.08575 6.2621 5.04803 6.41265 5.04803C6.55586 5.04803 6.68241 5.09432 6.78164 5.19197C6.89178 5.28982 6.94725 5.41813 6.94725 5.56687V6.37031C6.94725 6.52578 6.89432 6.66076 6.78165 6.76095C6.68242 6.85861 6.55587 6.9049 6.41265 6.9049C6.26083 6.9049 6.12431 6.86517 6.02717 6.76414Z" fill="url(#paint6_linear_3514_40156)"/>
<path d="M8.3724 5.0226C8.27491 4.91453 8.14763 4.86011 8.00029 4.86011C7.85155 4.86011 7.72324 4.91558 7.6254 5.02572C7.52774 5.12495 7.48145 5.2515 7.48145 5.39471C7.48145 5.53935 7.52867 5.667 7.62834 5.76666C7.72801 5.86633 7.85565 5.91355 8.00029 5.91355C8.1435 5.91355 8.27005 5.86726 8.36928 5.76961C8.47942 5.67177 8.53489 5.54346 8.53489 5.39471C8.53489 5.24737 8.48047 5.12009 8.3724 5.0226Z" fill="url(#paint7_linear_3514_40156)"/>
</g>
<defs>
<linearGradient id="paint0_linear_3514_40156" x1="1.44995" y1="2.2709" x2="13.6869" y2="14.7478" gradientUnits="userSpaceOnUse">
<stop stop-color="white"/>
<stop offset="1" stop-color="#EAECEE"/>
</linearGradient>
<linearGradient id="paint1_linear_3514_40156" x1="5.31836" y1="5.97502" x2="11.3794" y2="11.2921" gradientUnits="userSpaceOnUse">
<stop stop-color="#0195FF"/>
<stop offset="0.991028" stop-color="#1147E9"/>
</linearGradient>
<linearGradient id="paint2_linear_3514_40156" x1="6.51622" y1="4.10637" x2="9.74596" y2="7.05302" gradientUnits="userSpaceOnUse">
<stop stop-color="#1348FF"/>
<stop offset="1" stop-color="#06238D"/>
</linearGradient>
<linearGradient id="paint3_linear_3514_40156" x1="6.51622" y1="4.10637" x2="9.74596" y2="7.05302" gradientUnits="userSpaceOnUse">
<stop stop-color="#1348FF"/>
<stop offset="1" stop-color="#06238D"/>
</linearGradient>
<linearGradient id="paint4_linear_3514_40156" x1="6.51622" y1="4.10637" x2="9.74596" y2="7.05302" gradientUnits="userSpaceOnUse">
<stop stop-color="#1348FF"/>
<stop offset="1" stop-color="#06238D"/>
</linearGradient>
<linearGradient id="paint5_linear_3514_40156" x1="6.51622" y1="4.10637" x2="9.74596" y2="7.05302" gradientUnits="userSpaceOnUse">
<stop stop-color="#1348FF"/>
<stop offset="1" stop-color="#06238D"/>
</linearGradient>
<linearGradient id="paint6_linear_3514_40156" x1="6.51622" y1="4.10637" x2="9.74596" y2="7.05302" gradientUnits="userSpaceOnUse">
<stop stop-color="#1348FF"/>
<stop offset="1" stop-color="#06238D"/>
</linearGradient>
<linearGradient id="paint7_linear_3514_40156" x1="6.51622" y1="4.10637" x2="9.74596" y2="7.05302" gradientUnits="userSpaceOnUse">
<stop stop-color="#1348FF"/>
<stop offset="1" stop-color="#06238D"/>
</linearGradient>
<clipPath id="clip0_3514_40156">
<rect width="10" height="10" fill="white" transform="matrix(-1 0 0 1 12.9988 3.3999)"/>
</clipPath>
</defs>
</svg>
