<svg width="16" height="16" viewBox="0 0 16 16" fill="none" xmlns="http://www.w3.org/2000/svg">
<circle cx="7.99762" cy="7.99982" r="7.85696" fill="url(#paint0_linear_3514_40161)" stroke="#D5DADD" stroke-width="0.285708"/>
<g clip-path="url(#clip0_3514_40161)">
<path d="M6.56344 4.6317C6.56765 4.32201 6.71875 4.07489 6.91222 3.89713C7.09976 3.72482 7.34328 3.6001 7.59984 3.50839C8.11509 3.32422 8.79176 3.23511 9.50965 3.23511C10.2275 3.23511 10.9091 3.32423 11.4281 3.50792C11.6863 3.59931 11.932 3.72373 12.1209 3.89603C12.3159 4.07385 12.4697 4.32365 12.4697 4.63808L12.4697 7.06197C12.4697 7.31334 12.2659 7.51711 12.0145 7.51711C11.7635 7.51711 11.56 7.31372 11.5599 7.06266C11.5598 6.95176 11.5598 6.86153 11.5597 6.84833C11.4956 6.86823 11.0797 6.90565 10.7566 6.93012C10.6901 6.93516 10.6275 6.92217 10.5731 6.89538C10.5653 6.89092 10.5573 6.88661 10.5494 6.88247C10.4459 6.82093 10.3775 6.70686 10.3775 6.57368C10.3775 6.3638 10.5475 6.18721 10.7562 6.16519C11.0777 6.13126 11.4762 6.07427 11.561 6.0352V5.21948C11.5172 5.23739 11.4728 5.25422 11.4281 5.27007C10.9091 5.45376 10.2275 5.54288 9.50965 5.54288C8.79769 5.54288 8.12278 5.45523 7.60764 5.27451C7.56278 5.25877 7.5183 5.24204 7.47443 5.22424C7.47513 5.45491 7.28832 5.64228 7.05765 5.64228H7.01888C6.76734 5.64228 6.56344 5.43837 6.56344 5.18684V4.6317Z" fill="url(#paint1_linear_3514_40161)"/>
<path d="M9.32138 7.02258C9.25779 6.88327 9.16279 6.76442 9.05529 6.66727C8.86641 6.49656 8.62063 6.37329 8.36244 6.28275C7.84343 6.10075 7.16191 6.01245 6.44401 6.01245C5.72612 6.01245 5.04946 6.10074 4.5342 6.28321C4.27764 6.37407 4.03412 6.49764 3.84658 6.66836C3.65312 6.84447 3.50202 7.08931 3.4978 7.39613L3.50729 10.6463L3.50729 10.6469C3.5076 11.3359 4.07638 11.7081 4.58172 11.8926C5.11646 12.0878 5.79594 12.1644 6.44372 12.1648C6.61132 12.1649 6.96393 12.1236 7.28331 12.083C7.56883 12.0466 7.75536 11.7604 7.67382 11.4844C7.61131 11.2727 7.40883 11.1385 7.19012 11.1678C6.91061 11.2052 6.57276 11.2503 6.44428 11.2502C5.84894 11.2499 5.28723 11.1773 4.89156 11.0329C4.46663 10.8777 4.41595 10.7199 4.41595 10.6463L4.41544 10.0851C4.57869 10.1348 4.75 10.1756 4.9231 10.209C5.29585 10.2809 6.11444 10.3243 6.70395 10.34C6.93216 10.3461 7.11747 10.1616 7.118 9.93334C7.11853 9.70497 6.93398 9.51912 6.7057 9.51291C6.1586 9.49802 5.40947 9.45935 5.09424 9.39851C4.80794 9.34325 4.57806 9.2737 4.41006 9.19945L4.40879 8.47676C4.45266 8.49439 4.49714 8.51096 4.542 8.52656C5.05714 8.70561 5.73205 8.79246 6.44401 8.79246C6.79091 8.79246 7.1293 8.77184 7.44498 8.73L7.43102 8.67416V8.60491C7.43102 8.43575 7.47903 8.24054 7.62229 8.07771L7.8092 7.83328L7.81675 7.82423C7.95973 7.65265 8.17145 7.53171 8.42912 7.53171C8.59658 7.53171 8.75617 7.5835 8.8914 7.6816L8.91522 7.69817C8.9641 7.67077 9.01381 7.6451 9.06434 7.62116L9.07147 7.51777L9.07592 7.49103C9.10368 7.3245 9.17882 7.16487 9.30813 7.03555C9.31248 7.0312 9.3169 7.02687 9.32138 7.02258Z" fill="url(#paint2_linear_3514_40161)"/>
<path fill-rule="evenodd" clip-rule="evenodd" d="M12.3045 9.91166C12.4146 9.96173 12.4697 10.0468 12.4697 10.167V10.1971L12.3946 10.5125C12.3646 10.6427 12.2844 10.7078 12.1543 10.7078H12.1242L11.6436 10.6327C11.5534 10.8229 11.4082 10.9982 11.208 11.1584L11.3882 11.6691C11.3982 11.6891 11.4032 11.7141 11.4032 11.7442C11.4032 11.8643 11.3582 11.9445 11.268 11.9845L10.9827 12.1347C10.9426 12.1547 10.9126 12.1648 10.8925 12.1648C10.8024 12.1648 10.7323 12.1197 10.6822 12.0296L10.3968 11.5339C10.3468 11.5439 10.2917 11.5539 10.2316 11.5639H10.0664H9.91618C9.87613 11.5539 9.83107 11.5439 9.781 11.5339L9.48058 12.0446C9.43052 12.1247 9.36543 12.1648 9.28532 12.1648C9.23525 12.1648 9.2002 12.1547 9.18017 12.1347L8.89478 11.9995C8.80466 11.9595 8.75959 11.8894 8.75959 11.7892C8.75959 11.7492 8.7646 11.7191 8.77461 11.6991L8.95486 11.1884C8.77461 11.0582 8.62941 10.888 8.51926 10.6777L8.00856 10.7528H7.97852C7.84834 10.7528 7.76823 10.6877 7.73819 10.5576L7.66309 10.2421V10.2121C7.66309 10.0919 7.71816 10.0068 7.82831 9.95672L8.26391 9.82154V9.76146C8.26391 9.51111 8.30897 9.2808 8.3991 9.07051L8.06864 8.77009C8.0386 8.74005 8.01357 8.68498 7.99354 8.60487C7.99354 8.53477 8.01357 8.4797 8.05362 8.43964L8.24889 8.18429C8.29896 8.12421 8.35904 8.09417 8.42914 8.09417C8.47921 8.09417 8.52427 8.10919 8.56433 8.13923L8.9098 8.37956C9.12009 8.20932 9.35041 8.08916 9.60075 8.01906L9.63079 7.58346C9.64081 7.52338 9.66584 7.47331 9.70589 7.43326C9.75596 7.38319 9.81104 7.35815 9.87112 7.35815H10.1866C10.2567 7.35815 10.3117 7.38319 10.3518 7.43326C10.4019 7.47331 10.4269 7.52338 10.4269 7.58346L10.4569 8.00404C10.7073 8.06412 10.9476 8.17428 11.1779 8.3345L11.5234 8.09417C11.5735 8.06412 11.6185 8.0491 11.6586 8.0491C11.7387 8.0491 11.7988 8.07914 11.8388 8.13923L12.0341 8.39458C12.0742 8.43463 12.0942 8.48971 12.0942 8.55981C12.0942 8.61989 12.0691 8.67496 12.0191 8.72503L11.7187 9.02545C11.7687 9.1356 11.8038 9.25075 11.8238 9.37092C11.8538 9.49108 11.8689 9.62126 11.8689 9.76146V9.77648L12.3045 9.91166ZM9.33038 10.4975C9.1301 10.2972 9.02997 10.0519 9.02997 9.76146C9.02997 9.47106 9.1301 9.22572 9.33038 9.02545C9.53065 8.82517 9.77599 8.72503 10.0664 8.72503C10.3568 8.72503 10.6021 8.82517 10.8024 9.02545C11.0027 9.22572 11.1028 9.47106 11.1028 9.76146C11.1028 10.0519 11.0027 10.2972 10.8024 10.4975C10.6021 10.6977 10.3568 10.7979 10.0664 10.7979C9.77599 10.7979 9.53065 10.6977 9.33038 10.4975Z" fill="url(#paint3_linear_3514_40161)"/>
</g>
<defs>
<linearGradient id="paint0_linear_3514_40161" x1="1.44873" y1="2.2709" x2="13.6856" y2="14.7478" gradientUnits="userSpaceOnUse">
<stop stop-color="white"/>
<stop offset="1" stop-color="#EAECEE"/>
</linearGradient>
<linearGradient id="paint1_linear_3514_40161" x1="4.84273" y1="4.57048" x2="11.0952" y2="10.8547" gradientUnits="userSpaceOnUse">
<stop stop-color="#0195FF"/>
<stop offset="0.991028" stop-color="#1147E9"/>
</linearGradient>
<linearGradient id="paint2_linear_3514_40161" x1="4.84273" y1="4.57048" x2="11.0952" y2="10.8547" gradientUnits="userSpaceOnUse">
<stop stop-color="#0195FF"/>
<stop offset="0.991028" stop-color="#1147E9"/>
</linearGradient>
<linearGradient id="paint3_linear_3514_40161" x1="8.37371" y1="8.06531" x2="11.7376" y2="11.4437" gradientUnits="userSpaceOnUse">
<stop stop-color="#1348FF"/>
<stop offset="1" stop-color="#06238D"/>
</linearGradient>
<clipPath id="clip0_3514_40161">
<rect width="9" height="9" fill="white" transform="translate(3.4978 3.19995)"/>
</clipPath>
</defs>
</svg>
