<svg width="16" height="16" viewBox="0 0 16 16" fill="none" xmlns="http://www.w3.org/2000/svg">
<circle cx="7.99982" cy="7.99982" r="7.85696" fill="url(#paint0_linear_3514_40153)" stroke="#D5DADD" stroke-width="0.285708"/>
<g clip-path="url(#clip0_3514_40153)">
<path d="M7.17905 12.7534C7.05696 12.7149 6.94104 12.6518 6.83129 12.564C6.649 12.4207 6.53832 12.2319 6.49926 11.9976L6.36254 11.353L5.5227 10.8452L4.93676 11.0991C4.80656 11.1382 4.68286 11.1577 4.56567 11.1577C4.38338 11.1577 4.2076 11.1121 4.03833 11.021C3.88208 10.9298 3.75838 10.7931 3.66724 10.6108L3.29614 9.88818C3.23104 9.73193 3.19849 9.5887 3.19849 9.4585C3.19849 9.11995 3.3352 8.84652 3.60864 8.63818L4.05786 8.30615V7.29053L3.58911 6.93896C3.32869 6.74365 3.19849 6.47672 3.19849 6.13818C3.19849 6.00797 3.23104 5.86475 3.29614 5.7085L3.66724 4.98584C3.75838 4.80355 3.88208 4.66683 4.03833 4.57568C4.2076 4.48454 4.38338 4.43896 4.56567 4.43896C4.7089 4.43896 4.8326 4.46501 4.93676 4.51709L5.5227 4.75146L6.36254 4.24365L6.49926 3.59912C6.55134 3.36475 6.66853 3.17594 6.85082 3.03271C7.03311 2.87646 7.24145 2.79834 7.47582 2.79834H8.15941C8.39379 2.79834 8.60212 2.87646 8.78441 3.03271C8.9667 3.17594 9.08389 3.36475 9.13597 3.59912L9.25316 4.24365L10.1125 4.75146L10.6985 4.51709C10.8026 4.46501 10.9263 4.43896 11.0696 4.43896C11.2519 4.43896 11.4211 4.48454 11.5774 4.57568C11.7466 4.66683 11.8769 4.80355 11.968 4.98584L12.3196 5.7085C12.3977 5.8387 12.4367 5.98844 12.4367 6.15771C12.4367 6.48324 12.3 6.74365 12.0266 6.93896L11.7677 7.13313H9.70285C9.69063 7.1006 9.67746 7.06843 9.66332 7.03662C9.55915 6.78922 9.41592 6.57438 9.23363 6.39209C9.05134 6.2098 8.8365 6.06657 8.5891 5.9624C8.34171 5.85824 8.08129 5.80615 7.80785 5.80615C7.53442 5.80615 7.274 5.85824 7.0266 5.9624C6.79223 6.06657 6.5839 6.2098 6.4016 6.39209C6.21931 6.57438 6.07608 6.78922 5.97192 7.03662C5.86775 7.271 5.81567 7.5249 5.81567 7.79834C5.81567 8.07178 5.86775 8.33219 5.97192 8.57959C6.07608 8.81396 6.21931 9.0223 6.4016 9.20459C6.5839 9.38688 6.79223 9.53011 7.0266 9.63428C7.07688 9.65545 7.1277 9.67446 7.17905 9.69133L7.17905 12.7534Z" fill="url(#paint1_linear_3514_40153)"/>
<path fill-rule="evenodd" clip-rule="evenodd" d="M8.80395 8.13306C8.45878 8.13306 8.17896 8.41288 8.17896 8.75806V12.1602C8.17896 12.5054 8.45878 12.7852 8.80395 12.7852H12.564C12.9092 12.7852 13.189 12.5054 13.189 12.1602V8.75806C13.189 8.41288 12.9092 8.13306 12.564 8.13306H8.80395ZM10.6844 9.0729C10.6844 9.23113 10.5561 9.3594 10.3979 9.3594C10.2397 9.3594 10.1114 9.23113 10.1114 9.0729C10.1114 8.91467 10.2397 8.7864 10.3979 8.7864C10.5561 8.7864 10.6844 8.91467 10.6844 9.0729ZM11.5433 9.0729C11.5433 9.23113 11.415 9.3594 11.2568 9.3594C11.0985 9.3594 10.9703 9.23113 10.9703 9.0729C10.9703 8.91467 11.0985 8.7864 11.2568 8.7864C11.415 8.7864 11.5433 8.91467 11.5433 9.0729ZM12.1156 9.3594C12.2738 9.3594 12.4021 9.23113 12.4021 9.0729C12.4021 8.91467 12.2738 8.7864 12.1156 8.7864C11.9574 8.7864 11.8291 8.91467 11.8291 9.0729C11.8291 9.23113 11.9574 9.3594 12.1156 9.3594ZM8.89468 10.4203C8.89468 10.3412 8.95877 10.2771 9.03782 10.2771H12.3301C12.4092 10.2771 12.4733 10.3412 12.4733 10.4203V11.853C12.4733 11.932 12.4092 11.9961 12.3301 11.9961H9.03782C8.95877 11.9961 8.89468 11.932 8.89468 11.853V10.4203Z" fill="url(#paint2_linear_3514_40153)"/>
</g>
<defs>
<linearGradient id="paint0_linear_3514_40153" x1="1.45092" y1="2.2709" x2="13.6878" y2="14.7478" gradientUnits="userSpaceOnUse">
<stop stop-color="white"/>
<stop offset="1" stop-color="#EAECEE"/>
</linearGradient>
<linearGradient id="paint1_linear_3514_40153" x1="4.58334" y1="4.28705" x2="11.5346" y2="10.74" gradientUnits="userSpaceOnUse">
<stop stop-color="#0195FF"/>
<stop offset="0.991028" stop-color="#1147E9"/>
</linearGradient>
<linearGradient id="paint2_linear_3514_40153" x1="8.92875" y1="8.83103" x2="12.1774" y2="12.3272" gradientUnits="userSpaceOnUse">
<stop stop-color="#00BBFF"/>
<stop offset="1" stop-color="#008BFF"/>
</linearGradient>
<clipPath id="clip0_3514_40153">
<rect width="10" height="10" fill="white" transform="translate(3.19995 2.80005)"/>
</clipPath>
</defs>
</svg>
