<svg width="16" height="16" viewBox="0 0 16 16" fill="none" xmlns="http://www.w3.org/2000/svg">
<circle cx="7.99933" cy="7.99982" r="7.85696" fill="url(#paint0_linear_3514_40154)" stroke="#D5DADD" stroke-width="0.285708"/>
<g clip-path="url(#clip0_3514_40154)">
<path fill-rule="evenodd" clip-rule="evenodd" d="M4.52149 5.22067C4.64386 4.33832 5.37831 3.49316 6.41204 3.49316C7.23442 3.49316 7.85012 3.95651 8.18181 4.6454C9.00925 4.72391 9.69656 5.46619 9.69656 6.4321C9.69656 7.57379 8.79035 8.26915 7.82985 8.21543H4.73019C4.26722 8.21543 3.87404 8.07083 3.59709 7.78538C3.322 7.50185 3.19946 7.11836 3.19946 6.71264C3.19946 6.27607 3.3588 5.8621 3.66731 5.57689C3.89535 5.36606 4.18897 5.24055 4.52149 5.22067Z" fill="url(#paint1_linear_3514_40154)"/>
<path fill-rule="evenodd" clip-rule="evenodd" d="M5.23048 11.6639C5.22939 11.9259 5.01625 12.139 4.75422 12.1401C4.49219 12.1412 4.28083 11.9299 4.28193 11.6678L4.29037 9.65606C4.29147 9.39403 4.5046 9.1809 4.76664 9.1798L6.77841 9.17136C7.04044 9.17026 7.2518 9.38161 7.2507 9.64364C7.2496 9.90568 7.03647 10.1188 6.77443 10.1199L5.94716 10.1234L6.47328 10.6495C7.76393 11.9401 9.98292 11.8818 11.2847 10.5801C12.5862 9.27855 12.5697 7.15255 11.2791 5.8619C10.9237 5.54599 10.4536 5.18867 10.4536 5.18867C10.0625 4.89092 10.3436 4.50314 10.3436 4.50314C10.3436 4.50314 10.5491 4.22051 10.9237 4.39012C10.9237 4.39012 11.2791 4.5253 11.9528 5.18866C13.5038 6.71572 13.6263 9.57469 11.9528 11.2482C10.2793 12.9217 7.45956 12.9828 5.80005 11.3232L5.23429 10.7575L5.23048 11.6639Z" fill="url(#paint2_linear_3514_40154)"/>
</g>
<defs>
<linearGradient id="paint0_linear_3514_40154" x1="1.45043" y1="2.2709" x2="13.6874" y2="14.7478" gradientUnits="userSpaceOnUse">
<stop stop-color="white"/>
<stop offset="1" stop-color="#EAECEE"/>
</linearGradient>
<linearGradient id="paint1_linear_3514_40154" x1="4.17341" y1="4.19978" x2="7.32065" y2="8.52875" gradientUnits="userSpaceOnUse">
<stop stop-color="#0195FF"/>
<stop offset="0.991028" stop-color="#1147E9"/>
</linearGradient>
<linearGradient id="paint2_linear_3514_40154" x1="4.86719" y1="10.2978" x2="12.5175" y2="11.8748" gradientUnits="userSpaceOnUse">
<stop stop-color="#00BBFF"/>
<stop offset="1" stop-color="#008BFF"/>
</linearGradient>
<clipPath id="clip0_3514_40154">
<rect width="10" height="10" fill="white" transform="translate(3.19946 2.99976)"/>
</clipPath>
</defs>
</svg>
