<svg width="16" height="16" viewBox="0 0 16 16" fill="none" xmlns="http://www.w3.org/2000/svg">
<circle cx="7.99835" cy="7.99982" r="7.85696" fill="url(#paint0_linear_3890_21406)" stroke="#D5DADD" stroke-width="0.285708"/>
<g clip-path="url(#clip0_3890_21406)">
<path d="M9.09473 8.94605L5.28675 8.94604C5.00181 8.94604 4.75909 9.04477 4.55858 9.24222C4.35807 9.43967 4.25781 9.68769 4.25781 9.98629L4.25782 11.8164C4.25782 11.9199 4.34177 12.0039 4.44532 12.0039L8.72797 12.0039C8.70073 11.9162 8.68709 11.8248 8.68709 11.7326V11.1006C8.68709 10.8738 8.76976 10.6519 8.93319 10.4799C8.89713 10.4427 8.86314 10.4011 8.83218 10.3547L8.79399 10.2974L8.76686 10.2341C8.71765 10.1193 8.68707 9.98934 8.68707 9.84929C8.68707 9.72929 8.71076 9.62459 8.73832 9.5419L8.75234 9.49984L8.77122 9.45972C8.85925 9.27265 8.96722 9.10084 9.09473 8.94605Z" fill="url(#paint1_linear_3890_21406)"/>
<path d="M11.5138 10.2135C11.4448 10.1444 11.4142 10.0564 11.4142 9.96598C11.4142 9.87554 11.4448 9.78753 11.5138 9.71848C11.5269 9.70538 11.5408 9.69336 11.5554 9.68249C11.5072 9.64822 11.4564 9.61776 11.403 9.59103C11.2497 9.51438 11.0911 9.47675 10.925 9.47675C10.6989 9.47675 10.5 9.53366 10.323 9.64561C10.1473 9.7568 10.0144 9.90801 9.92281 10.1036C9.89511 10.1725 9.84706 10.2306 9.77951 10.2692L9.77046 10.2744C9.7176 10.3008 9.66091 10.3131 9.60349 10.3131C9.57958 10.3131 9.55322 10.3117 9.52685 10.3069C9.50755 10.3034 9.48076 10.2967 9.45278 10.2826C9.39441 10.258 9.34 10.2184 9.30064 10.1594L9.29109 10.145L9.28431 10.1292C9.26243 10.0782 9.25 10.0233 9.25 9.96598C9.25 9.92002 9.25911 9.87628 9.27239 9.83646L9.27707 9.82241L9.28061 9.81591C9.43121 9.4959 9.65224 9.24065 9.94267 9.05488C10.2377 8.86461 10.5668 8.76978 10.925 8.76978C11.2106 8.76978 11.481 8.83669 11.7334 8.96991C11.8554 9.03322 11.9688 9.10801 12.0734 9.19411C12.089 9.15695 12.1114 9.12207 12.1415 9.09094C12.2079 9.01759 12.2967 8.98045 12.3934 8.98045C12.4879 8.98045 12.575 9.01598 12.641 9.0863C12.7113 9.1523 12.7469 9.23944 12.7469 9.33394V9.96598C12.7469 10.0626 12.7097 10.1515 12.6364 10.2179C12.568 10.2839 12.4818 10.3131 12.3934 10.3131H11.7677C11.6772 10.3131 11.5925 10.2828 11.523 10.222L11.5214 10.2206L11.5138 10.2135Z" fill="url(#paint2_linear_3890_21406)"/>
<path d="M10.483 10.9698C10.5521 11.0388 10.5827 11.1269 10.5827 11.2173C10.5827 11.3077 10.5521 11.3957 10.483 11.4648C10.4699 11.4779 10.4561 11.4899 10.4415 11.5008C10.4897 11.535 10.5405 11.5655 10.5939 11.5922C10.7472 11.6689 10.9058 11.7065 11.0719 11.7065C11.2979 11.7065 11.4969 11.6496 11.6739 11.5377C11.8496 11.4265 11.9825 11.2753 12.0741 11.0797C12.1018 11.0108 12.1498 10.9526 12.2174 10.914L12.2264 10.9089C12.2793 10.8824 12.336 10.8702 12.3934 10.8702C12.4173 10.8702 12.4437 10.8716 12.47 10.8764C12.4893 10.8799 12.5161 10.8865 12.5441 10.9007C12.6025 10.9253 12.6569 10.9649 12.6962 11.0239L12.7058 11.0382L12.7126 11.0541C12.7345 11.1051 12.7469 11.1599 12.7469 11.2173C12.7469 11.2633 12.7378 11.307 12.7245 11.3468L12.7198 11.3609L12.7163 11.3674C12.5657 11.6874 12.3446 11.9426 12.0542 12.1284C11.7592 12.3187 11.4301 12.4135 11.0719 12.4135C10.7863 12.4135 10.5159 12.3466 10.2635 12.2134C10.1415 12.15 10.0281 12.0753 9.92346 11.9892C9.90792 12.0263 9.88546 12.0612 9.85543 12.0923C9.78899 12.1657 9.70014 12.2028 9.60351 12.2028C9.50901 12.2028 9.42187 12.1673 9.35587 12.097C9.28555 12.031 9.25002 11.9438 9.25002 11.8493L9.25002 11.2173C9.25002 11.1207 9.28716 11.0318 9.36051 10.9654C9.42892 10.8994 9.51509 10.8702 9.60351 10.8702H10.2292C10.3197 10.8702 10.4044 10.9004 10.4739 10.9613L10.4755 10.9626L10.483 10.9698Z" fill="url(#paint3_linear_3890_21406)"/>
<path d="M7.24245 4.06933V3.23182C7.24245 2.97192 7.03176 2.76123 6.77186 2.76123C6.51196 2.76123 6.30127 2.97192 6.30127 3.23182V4.06933H7.24245Z" fill="url(#paint4_linear_3890_21406)"/>
<path d="M9.6957 3.23182C9.6957 2.97192 9.48501 2.76123 9.22512 2.76123C8.96522 2.76123 8.75453 2.97192 8.75453 3.23182V4.06933H9.6957V3.23182Z" fill="url(#paint5_linear_3890_21406)"/>
<path d="M9.61722 6.38242C9.52903 6.47025 9.42437 6.51416 9.30324 6.51416C9.18993 6.51416 9.09014 6.47116 9.00389 6.38516C8.91764 6.29916 8.87451 6.1973 8.87451 6.07959C8.87451 5.96187 8.91683 5.85904 9.00147 5.77109C9.0861 5.68314 9.18727 5.63916 9.30498 5.63916C9.42563 5.63916 9.52989 5.68326 9.61774 5.77145C9.70559 5.85965 9.74951 5.96157 9.74951 6.07721C9.74951 6.19285 9.70541 6.29459 9.61722 6.38242Z" fill="url(#paint6_linear_3890_21406)"/>
<path d="M6.86575 6.38242C6.77756 6.47025 6.6729 6.51416 6.55178 6.51416C6.43846 6.51416 6.33868 6.47116 6.25242 6.38516C6.16617 6.29916 6.12305 6.1973 6.12305 6.07959C6.12305 5.96187 6.16537 5.85904 6.25001 5.77109C6.33464 5.68314 6.43581 5.63916 6.55352 5.63916C6.67417 5.63916 6.77842 5.68326 6.86628 5.77145C6.95412 5.85965 6.99805 5.96157 6.99805 6.07721C6.99805 6.19285 6.95395 6.29459 6.86575 6.38242Z" fill="url(#paint7_linear_3890_21406)"/>
<path fill-rule="evenodd" clip-rule="evenodd" d="M10.3587 5.21337L10.3587 5.21336C10.0894 4.95235 9.79394 4.83276 9.41977 4.83276H6.56727C6.20667 4.83276 5.91369 4.94963 5.6396 5.21552C5.36812 5.47889 5.25781 5.75125 5.25781 6.08142C5.25781 6.41132 5.36781 6.68078 5.63703 6.94008C5.91062 7.20361 6.2044 7.32058 6.56727 7.32058H9.41977C9.79525 7.32058 10.0912 7.20095 10.3602 6.94129C10.6274 6.68345 10.7383 6.41332 10.7383 6.07943C10.7383 5.74539 10.6273 5.47357 10.3587 5.21337ZM4.9433 7.66032C5.4003 8.1005 5.94162 8.32058 6.56727 8.32058H9.41977C10.0539 8.32058 10.5989 8.10068 11.0546 7.66088C11.5104 7.22108 11.7383 6.69393 11.7383 6.07943C11.7383 5.46492 11.5104 4.93685 11.0546 4.49522C10.5989 4.05358 10.0539 3.83276 9.41977 3.83276H6.56727C5.94162 3.83276 5.4003 4.05443 4.9433 4.49777C4.48631 4.9411 4.25781 5.46899 4.25781 6.08142C4.25781 6.69385 4.48631 7.22015 4.9433 7.66032Z" fill="url(#paint8_linear_3890_21406)"/>
</g>
<defs>
<linearGradient id="paint0_linear_3890_21406" x1="1.44946" y1="2.2709" x2="13.6864" y2="14.7478" gradientUnits="userSpaceOnUse">
<stop stop-color="white"/>
<stop offset="1" stop-color="#EAECEE"/>
</linearGradient>
<linearGradient id="paint1_linear_3890_21406" x1="4.98289" y1="9.40332" x2="6.91671" y2="12.4634" gradientUnits="userSpaceOnUse">
<stop stop-color="#0195FF"/>
<stop offset="0.991028" stop-color="#1147E9"/>
</linearGradient>
<linearGradient id="paint2_linear_3890_21406" x1="9.77334" y1="9.31645" x2="12.3224" y2="11.7611" gradientUnits="userSpaceOnUse">
<stop stop-color="#00BBFF"/>
<stop offset="1" stop-color="#008BFF"/>
</linearGradient>
<linearGradient id="paint3_linear_3890_21406" x1="9.77334" y1="9.31645" x2="12.3224" y2="11.7611" gradientUnits="userSpaceOnUse">
<stop stop-color="#00BBFF"/>
<stop offset="1" stop-color="#008BFF"/>
</linearGradient>
<linearGradient id="paint4_linear_3890_21406" x1="6.80311" y1="2.95368" x2="7.41551" y2="4.54965" gradientUnits="userSpaceOnUse">
<stop stop-color="#1348FF"/>
<stop offset="1" stop-color="#06238D"/>
</linearGradient>
<linearGradient id="paint5_linear_3890_21406" x1="6.80311" y1="2.95368" x2="7.41551" y2="4.54965" gradientUnits="userSpaceOnUse">
<stop stop-color="#1348FF"/>
<stop offset="1" stop-color="#06238D"/>
</linearGradient>
<linearGradient id="paint6_linear_3890_21406" x1="9.00387" y1="5.76789" x2="9.61624" y2="6.38289" gradientUnits="userSpaceOnUse">
<stop stop-color="#1348FF"/>
<stop offset="1" stop-color="#06238D"/>
</linearGradient>
<linearGradient id="paint7_linear_3890_21406" x1="6.25241" y1="5.76789" x2="6.86477" y2="6.38289" gradientUnits="userSpaceOnUse">
<stop stop-color="#1348FF"/>
<stop offset="1" stop-color="#06238D"/>
</linearGradient>
<linearGradient id="paint8_linear_3890_21406" x1="5.37732" y1="4.50608" x2="8.15076" y2="9.12573" gradientUnits="userSpaceOnUse">
<stop stop-color="#00BBFF"/>
<stop offset="1" stop-color="#008BFF"/>
</linearGradient>
<clipPath id="clip0_3890_21406">
<rect width="10" height="10" fill="white" transform="translate(2.99854 2.3999)"/>
</clipPath>
</defs>
</svg>
