<svg width="16" height="16" viewBox="0 0 16 16" fill="none" xmlns="http://www.w3.org/2000/svg">
<circle cx="7.99738" cy="7.99982" r="7.85696" fill="url(#paint0_linear_3514_40162)" stroke="#D5DADD" stroke-width="0.285708"/>
<g clip-path="url(#clip0_3514_40162)">
<path fill-rule="evenodd" clip-rule="evenodd" d="M12.2104 4.19119C11.9521 3.93287 11.6292 3.80371 11.2417 3.80371H4.95407C4.56659 3.80371 4.24369 3.93287 3.98538 4.19119C3.72706 4.4495 3.5979 4.76653 3.5979 5.14227V12.3458C3.5979 12.5337 3.68596 12.6687 3.86209 12.7509C4.04996 12.8331 4.21434 12.8037 4.35524 12.6628L6.02843 10.9896H11.2417C11.6292 10.9896 11.9521 10.8605 12.2104 10.6022C12.4688 10.3438 12.5979 10.0268 12.5979 9.65108V5.14227C12.5979 4.76653 12.4688 4.4495 12.2104 4.19119ZM7.61038 7.10429C7.59687 7.06159 7.56195 7.02956 7.51916 7.02244L6.87946 6.92516L6.59114 6.3154C6.55285 6.23473 6.42784 6.23473 6.38955 6.3154L6.10011 6.92397L5.46041 7.02244C5.41761 7.02956 5.3827 7.0604 5.36919 7.10429C5.35567 7.147 5.36806 7.19445 5.39847 7.22648L5.86135 7.6927L5.7476 8.36533C5.73971 8.41041 5.75773 8.4543 5.79152 8.48159C5.82643 8.50888 5.87148 8.51243 5.90978 8.49108L6.48866 8.17552L7.06754 8.49108C7.08443 8.49938 7.10133 8.50413 7.11934 8.50413C7.143 8.50413 7.16665 8.49583 7.18579 8.48159C7.22071 8.4543 7.2376 8.40923 7.22971 8.36533L7.11597 7.6927L7.57885 7.22648C7.61038 7.19564 7.62164 7.14819 7.60813 7.10429H7.61038ZM10.8112 7.10429C10.7977 7.06159 10.7628 7.02956 10.72 7.02244L10.0803 6.92516L9.79194 6.3154C9.75365 6.23473 9.62864 6.23473 9.59035 6.3154L9.30091 6.92397L8.66121 7.02244C8.61841 7.02956 8.5835 7.0604 8.56999 7.10429C8.55647 7.147 8.56886 7.19445 8.59927 7.22648L9.06215 7.6927L8.9484 8.36533C8.94052 8.41041 8.95854 8.4543 8.99232 8.48159C9.02724 8.50888 9.07228 8.51243 9.11058 8.49108L9.68946 8.17552L10.2683 8.49108C10.2852 8.49938 10.3021 8.50413 10.3201 8.50413C10.3438 8.50413 10.3674 8.49583 10.3866 8.48159C10.4215 8.4543 10.4384 8.40923 10.4305 8.36533L10.3168 7.6927L10.7796 7.22648C10.8112 7.19564 10.8224 7.14819 10.8089 7.10429H10.8112Z" fill="url(#paint1_linear_3514_40162)"/>
</g>
<defs>
<linearGradient id="paint0_linear_3514_40162" x1="1.44848" y1="2.2709" x2="13.6854" y2="14.7478" gradientUnits="userSpaceOnUse">
<stop stop-color="white"/>
<stop offset="1" stop-color="#EAECEE"/>
</linearGradient>
<linearGradient id="paint1_linear_3514_40162" x1="4.94704" y1="5.1485" x2="11.2436" y2="11.4525" gradientUnits="userSpaceOnUse">
<stop stop-color="#0195FF"/>
<stop offset="0.991028" stop-color="#1147E9"/>
</linearGradient>
<clipPath id="clip0_3514_40162">
<rect width="9" height="9.00001" fill="white" transform="translate(3.59766 3.80005)"/>
</clipPath>
</defs>
</svg>
