<svg width="16" height="16" viewBox="0 0 16 16" fill="none" xmlns="http://www.w3.org/2000/svg">
<circle cx="7.99591" cy="7.99982" r="7.85696" fill="url(#paint0_linear_3514_40166)" stroke="#D5DADD" stroke-width="0.285708"/>
<g clip-path="url(#clip0_3514_40166)">
<path d="M6.88185 2.60693C6.37953 2.60693 5.96371 2.97731 5.89259 3.45988C5.88656 3.50079 5.88277 3.54251 5.88185 3.58488H5.38184C4.58793 3.58488 3.94434 4.22847 3.94434 5.02238V11.1474C3.94434 11.9413 4.58793 12.5849 5.38184 12.5849H9.43941C9.68103 12.5849 9.87691 12.389 9.87691 12.1474C9.87691 11.9058 9.68103 11.7099 9.43941 11.7099H5.38184C5.07118 11.7099 4.81934 11.458 4.81934 11.1474V5.02238C4.81934 4.92359 4.8448 4.83074 4.88953 4.75005C4.9278 4.68103 4.98016 4.6209 5.04273 4.57355C5.13701 4.5022 5.25448 4.45988 5.38184 4.45988H5.88185V4.57355L5.88191 4.58488C5.88799 5.13194 6.33335 5.57355 6.88185 5.57355H9.00685C9.55535 5.57355 10.0007 5.13194 10.0068 4.58488L10.0069 4.57355V4.45988H10.5068C10.6342 4.45988 10.7517 4.5022 10.8459 4.57355C10.9085 4.62091 10.9609 4.68106 10.9992 4.7501C11.0439 4.83078 11.0693 4.92361 11.0693 5.02238V6.0413C11.0693 6.28292 11.2652 6.4788 11.5068 6.4788C11.7485 6.4788 11.9443 6.28292 11.9443 6.0413V5.02238C11.9443 4.22847 11.3007 3.58488 10.5068 3.58488H10.0066C10.0057 3.54251 10.0021 3.50079 9.99611 3.45988C9.92499 2.97731 9.50918 2.60693 9.00685 2.60693H6.88185Z" fill="url(#paint1_linear_3514_40166)"/>
<path fill-rule="evenodd" clip-rule="evenodd" d="M7.18144 6.83838C7.18144 6.51286 7.01217 6.3501 6.67363 6.3501H5.95703C5.61849 6.3501 5.44922 6.51286 5.44922 6.83838C5.44922 7.17692 5.61849 7.34619 5.95703 7.34619H6.67363C7.01217 7.34619 7.18144 7.17692 7.18144 6.83838ZM6.58346 8.71338C6.67461 8.60921 6.72018 8.48552 6.72018 8.34229C6.72018 8.01677 6.55742 7.854 6.2319 7.854H5.95703C5.61849 7.854 5.44922 8.01677 5.44922 8.34229C5.44922 8.48552 5.49479 8.60921 5.58594 8.71338C5.67708 8.80453 5.80078 8.8501 5.95703 8.8501H6.2319C6.37513 8.8501 6.49232 8.80453 6.58346 8.71338ZM6.79 10.2136C6.88114 10.1094 6.92671 9.98572 6.92671 9.84249C6.92671 9.51697 6.76395 9.35421 6.43843 9.35421H5.95703C5.61849 9.35421 5.44922 9.51697 5.44922 9.84249C5.44922 9.98572 5.49479 10.1094 5.58594 10.2136C5.67708 10.3047 5.80078 10.3503 5.95703 10.3503H6.43843C6.58166 10.3503 6.69885 10.3047 6.79 10.2136Z" fill="url(#paint2_linear_3514_40166)"/>
<path fill-rule="evenodd" clip-rule="evenodd" d="M10.9736 8.51639C10.9736 9.29172 10.3369 9.93269 9.53613 9.93269C8.73531 9.93269 8.09863 9.29172 8.09863 8.51639C8.09863 7.74107 8.73531 7.1001 9.53613 7.1001C10.3369 7.1001 10.9736 7.74107 10.9736 8.51639ZM10.6227 10.397C10.3026 10.5788 9.93162 10.6827 9.53613 10.6827C8.32801 10.6827 7.34863 9.71281 7.34863 8.51639C7.34863 7.31998 8.32801 6.3501 9.53613 6.3501C10.7442 6.3501 11.7236 7.31998 11.7236 8.51639C11.7236 8.96054 11.5887 9.37347 11.3571 9.71714L12.8497 11.2097C13.045 11.405 13.045 11.7216 12.8497 11.9168C12.6544 12.1121 12.3379 12.1121 12.1426 11.9168L10.6227 10.397Z" fill="url(#paint3_linear_3514_40166)"/>
</g>
<defs>
<linearGradient id="paint0_linear_3514_40166" x1="1.44702" y1="2.2709" x2="13.6839" y2="14.7478" gradientUnits="userSpaceOnUse">
<stop stop-color="white"/>
<stop offset="1" stop-color="#EAECEE"/>
</linearGradient>
<linearGradient id="paint1_linear_3514_40166" x1="5.14357" y1="4.09907" x2="11.9635" y2="9.56897" gradientUnits="userSpaceOnUse">
<stop stop-color="#0195FF"/>
<stop offset="0.991028" stop-color="#1147E9"/>
</linearGradient>
<linearGradient id="paint2_linear_3514_40166" x1="5.70889" y1="6.9483" x2="7.75211" y2="7.83339" gradientUnits="userSpaceOnUse">
<stop stop-color="#0195FF"/>
<stop offset="0.991028" stop-color="#1147E9"/>
</linearGradient>
<linearGradient id="paint3_linear_3514_40166" x1="8.18358" y1="7.19063" x2="12.1819" y2="11.16" gradientUnits="userSpaceOnUse">
<stop stop-color="#1348FF"/>
<stop offset="1" stop-color="#06238D"/>
</linearGradient>
<clipPath id="clip0_3514_40166">
<rect width="10" height="10" fill="white" transform="translate(2.99609 2.6001)"/>
</clipPath>
</defs>
</svg>
