<svg width="16" height="16" viewBox="0 0 16 16" fill="none" xmlns="http://www.w3.org/2000/svg">
<circle cx="7.99542" cy="7.99982" r="7.85696" fill="url(#paint0_linear_3514_40167)" stroke="#D5DADD" stroke-width="0.285708"/>
<g clip-path="url(#clip0_3514_40167)">
<path d="M4.98285 6.53759H3.73287C3.64999 6.53759 3.57051 6.50466 3.51191 6.44606C3.4533 6.38745 3.42038 6.30797 3.42038 6.22509C3.42038 6.14221 3.4533 6.06273 3.51191 6.00413C3.57051 5.94552 3.64999 5.9126 3.73287 5.9126H4.98285C5.06573 5.9126 5.14521 5.94552 5.20381 6.00413C5.26242 6.06273 5.29534 6.14221 5.29534 6.22509C5.29534 6.30797 5.26242 6.38745 5.20381 6.44606C5.14521 6.50466 5.06573 6.53759 4.98285 6.53759Z" fill="url(#paint1_linear_3514_40167)"/>
<path d="M4.35788 8.41255H3.1079C3.02503 8.41255 2.94554 8.37963 2.88694 8.32102C2.82833 8.26242 2.79541 8.18293 2.79541 8.10006C2.79541 8.01718 2.82833 7.93769 2.88694 7.87909C2.94554 7.82049 3.02503 7.78756 3.1079 7.78756H4.35788C4.44076 7.78756 4.52024 7.82049 4.57885 7.87909C4.63745 7.93769 4.67037 8.01718 4.67037 8.10006C4.67037 8.18293 4.63745 8.26242 4.57885 8.32102C4.52024 8.37963 4.44076 8.41255 4.35788 8.41255Z" fill="url(#paint2_linear_3514_40167)"/>
<path d="M4.34724 10.2875H4.98285C5.06573 10.2875 5.14521 10.2546 5.20382 10.196C5.26242 10.1374 5.29534 10.0579 5.29534 9.97502C5.29534 9.89214 5.26242 9.81266 5.20382 9.75405C5.14521 9.69545 5.06573 9.66253 4.98285 9.66253H4.34724C4.26436 9.66253 4.18487 9.69545 4.12627 9.75405C4.06767 9.81266 4.03474 9.89214 4.03474 9.97502C4.03474 10.0579 4.06767 10.1374 4.12627 10.196C4.18487 10.2546 4.26436 10.2875 4.34724 10.2875Z" fill="url(#paint3_linear_3514_40167)"/>
<path fill-rule="evenodd" clip-rule="evenodd" d="M5.76464 7.16265H6.17463L6.35088 6.74016L6.05776 6.44704C5.97222 6.35582 5.92501 6.23522 5.92589 6.11017C5.92461 6.05025 5.93565 5.99071 5.95834 5.93523C5.98102 5.87976 6.01486 5.82953 6.05776 5.78768L6.729 5.11207C6.77085 5.06917 6.82108 5.03533 6.87655 5.01264C6.93203 4.98996 6.99157 4.97891 7.05149 4.98019C7.11367 4.97805 7.17562 4.98864 7.23355 5.01132C7.29149 5.03399 7.34417 5.06828 7.38836 5.11207L7.68085 5.40519L8.10585 5.22894V4.81895C8.10338 4.75673 8.11382 4.69468 8.13651 4.63669C8.15919 4.57871 8.19363 4.52605 8.23766 4.48202C8.28169 4.43799 8.33435 4.40355 8.39233 4.38087C8.45032 4.35818 8.51237 4.34774 8.57459 4.35021H9.51207C9.57428 4.34774 9.63634 4.35818 9.69432 4.38087C9.75231 4.40355 9.80497 4.43799 9.849 4.48202C9.89302 4.52605 9.92746 4.57871 9.95015 4.63669C9.97283 4.69468 9.98327 4.75673 9.98081 4.81895V5.22894L10.4058 5.40519L10.6989 5.11207C10.743 5.06816 10.7957 5.03379 10.8536 5.01111C10.9116 4.98842 10.9736 4.9779 11.0358 4.98019C11.0956 4.979 11.155 4.99009 11.2104 5.01277C11.2658 5.03545 11.3159 5.06925 11.3577 5.11207L12.037 5.7858C12.0799 5.82766 12.1138 5.87788 12.1364 5.93336C12.1591 5.98883 12.1702 6.04838 12.1689 6.1083C12.1698 6.23335 12.1226 6.35395 12.037 6.44517L11.7445 6.73829L11.9201 7.16265H12.3264C12.3886 7.16019 12.4507 7.17063 12.5086 7.19331C12.5666 7.216 12.6193 7.25044 12.6633 7.29447C12.7073 7.33849 12.7418 7.39116 12.7645 7.44914C12.7872 7.50713 12.7976 7.56918 12.7951 7.63139V8.56888C12.7965 8.6296 12.7859 8.69 12.7639 8.74662C12.7419 8.80324 12.709 8.85497 12.667 8.89887C12.6238 8.94449 12.5715 8.98044 12.5134 9.00435C12.4554 9.02827 12.3929 9.03961 12.3301 9.03762H11.9201L11.7414 9.46011L12.0339 9.75323C12.1185 9.84212 12.1657 9.96017 12.1657 10.0829C12.1657 10.2057 12.1185 10.3237 12.0339 10.4126L11.3602 11.0913C11.3184 11.1341 11.2683 11.1679 11.2129 11.1906C11.1575 11.2133 11.0981 11.2244 11.0383 11.2232C10.9761 11.2255 10.9141 11.215 10.8561 11.1923C10.7982 11.1696 10.7455 11.1352 10.7014 11.0913L10.4083 10.7838L9.98331 10.9713V11.3819C9.98409 11.4428 9.97284 11.5033 9.95021 11.5598C9.92758 11.6163 9.89402 11.6678 9.85144 11.7113C9.80828 11.7569 9.75594 11.7929 9.69788 11.8168C9.63981 11.8407 9.57733 11.8521 9.51457 11.8501H8.57709C8.51434 11.8516 8.45198 11.8398 8.39412 11.8155C8.33627 11.7911 8.28424 11.7548 8.24147 11.7088C8.19889 11.6653 8.16532 11.6138 8.14269 11.5573C8.12006 11.5008 8.10882 11.4403 8.1096 11.3794V10.9688L7.6846 10.7813L7.39211 11.0888C7.34792 11.1326 7.29524 11.1669 7.2373 11.1896C7.17937 11.2123 7.11742 11.2228 7.05524 11.2207C6.99532 11.222 6.93578 11.2109 6.8803 11.1883C6.82483 11.1656 6.7746 11.1317 6.73275 11.0888L6.05714 10.4151C5.9725 10.3262 5.92529 10.2082 5.92529 10.0854C5.92529 9.96267 5.9725 9.84462 6.05714 9.75573L6.35026 9.46261L6.17401 9.03762H5.76402C5.70125 9.03965 5.63876 9.02833 5.58069 9.00441C5.52262 8.98049 5.47028 8.94452 5.42715 8.89887C5.3845 8.85528 5.35088 8.80368 5.32825 8.74704C5.30562 8.69041 5.29441 8.62986 5.29528 8.56888V7.63139C5.29281 7.56912 5.30326 7.50702 5.32599 7.44899C5.34871 7.39096 5.3832 7.33826 5.4273 7.29423C5.4714 7.25019 5.52414 7.21576 5.58219 7.19312C5.64025 7.17047 5.70237 7.1601 5.76464 7.16265ZM8.14022 9.29827C8.17775 9.33208 8.22659 9.35059 8.27709 9.35015C8.31346 9.34968 8.34921 9.34069 8.38147 9.3239L10.4777 8.30829C10.5091 8.29096 10.5352 8.26552 10.5535 8.23463C10.5717 8.20375 10.5813 8.16854 10.5813 8.13267C10.5813 8.09681 10.5717 8.0616 10.5535 8.03071C10.5352 7.99982 10.5091 7.97439 10.4777 7.95705L8.38147 6.87645C8.34921 6.85965 8.31346 6.85066 8.27709 6.8502C8.25148 6.85012 8.22611 6.85529 8.20257 6.8654C8.17903 6.8755 8.15781 6.89032 8.14022 6.90895C8.1208 6.92855 8.10557 6.9519 8.09547 6.97758C8.08537 7.00326 8.08061 7.03073 8.08147 7.05832V9.15515C8.08023 9.18185 8.08484 9.2085 8.09499 9.23322C8.10514 9.25795 8.12058 9.28015 8.14022 9.29827Z" fill="url(#paint4_linear_3514_40167)"/>
</g>
<defs>
<linearGradient id="paint0_linear_3514_40167" x1="1.44653" y1="2.2709" x2="13.6835" y2="14.7478" gradientUnits="userSpaceOnUse">
<stop stop-color="white"/>
<stop offset="1" stop-color="#EAECEE"/>
</linearGradient>
<linearGradient id="paint1_linear_3514_40167" x1="3.16501" y1="6.55624" x2="5.80859" y2="8.07336" gradientUnits="userSpaceOnUse">
<stop stop-color="#1348FF"/>
<stop offset="1" stop-color="#06238D"/>
</linearGradient>
<linearGradient id="paint2_linear_3514_40167" x1="3.16501" y1="6.55624" x2="5.80859" y2="8.07336" gradientUnits="userSpaceOnUse">
<stop stop-color="#1348FF"/>
<stop offset="1" stop-color="#06238D"/>
</linearGradient>
<linearGradient id="paint3_linear_3514_40167" x1="3.16501" y1="6.55624" x2="5.80859" y2="8.07336" gradientUnits="userSpaceOnUse">
<stop stop-color="#1348FF"/>
<stop offset="1" stop-color="#06238D"/>
</linearGradient>
<linearGradient id="paint4_linear_3514_40167" x1="6.41929" y1="5.4715" x2="11.6711" y2="10.7252" gradientUnits="userSpaceOnUse">
<stop stop-color="#0195FF"/>
<stop offset="0.991028" stop-color="#1147E9"/>
</linearGradient>
<clipPath id="clip0_3514_40167">
<rect width="9.99985" height="9.99985" fill="white" transform="translate(2.79541 3.1001)"/>
</clipPath>
</defs>
</svg>
