<svg width="16" height="16" viewBox="0 0 16 16" fill="none" xmlns="http://www.w3.org/2000/svg">
<circle cx="7.99591" cy="7.99982" r="7.85696" fill="url(#paint0_linear_3514_40165)" stroke="#D5DADD" stroke-width="0.285708"/>
<g clip-path="url(#clip0_3514_40165)">
<path d="M6.35989 3.84843C6.97116 3.59279 7.62912 3.47618 8.28655 3.50402C8.29498 3.50438 8.29891 3.50617 8.30125 3.50745C8.3043 3.50913 8.30953 3.51287 8.31533 3.52072C8.32768 3.53738 8.33789 3.5666 8.33177 3.60282L7.6878 7.41524C7.599 7.94092 7.89137 8.45674 8.388 8.65059L11.9898 10.0565C12.024 10.0699 12.0438 10.0936 12.0518 10.1128C12.0555 10.1218 12.056 10.1282 12.0559 10.1317C12.0558 10.1343 12.0553 10.1386 12.0513 10.146C11.7375 10.7244 11.2994 11.229 10.7661 11.6222C10.0812 12.127 9.26732 12.4273 8.41871 12.4883C7.57011 12.5493 6.72161 12.3684 5.97161 11.9668C5.2216 11.5651 4.60084 10.959 4.18131 10.2189C3.76178 9.4787 3.56068 8.63477 3.60132 7.78495C3.64197 6.93513 3.9227 6.11424 4.41095 5.41749C4.8992 4.72075 5.57497 4.17669 6.35989 3.84843Z" stroke="url(#paint1_linear_3514_40165)" stroke-width="0.999984"/>
<path d="M12.3135 8.51151C12.6801 8.65282 13.087 8.42337 13.0948 8.03049C13.0978 7.88109 13.0939 7.73133 13.083 7.58168C13.0298 6.85082 12.8117 6.14086 12.4447 5.50355C12.0776 4.86624 11.5708 4.31763 10.9612 3.89771C10.8353 3.81092 10.7055 3.73008 10.5725 3.65537C10.2297 3.46281 9.82425 3.6954 9.75841 4.08308L9.29501 6.8113C9.24521 7.10451 9.40892 7.3922 9.68643 7.49914L12.3135 8.51151Z" fill="url(#paint2_linear_3514_40165)"/>
</g>
<defs>
<linearGradient id="paint0_linear_3514_40165" x1="1.44702" y1="2.2709" x2="13.6839" y2="14.7478" gradientUnits="userSpaceOnUse">
<stop stop-color="white"/>
<stop offset="1" stop-color="#EAECEE"/>
</linearGradient>
<linearGradient id="paint1_linear_3514_40165" x1="4.51424" y1="4.49541" x2="11.5054" y2="11.1113" gradientUnits="userSpaceOnUse">
<stop stop-color="#0195FF"/>
<stop offset="0.991028" stop-color="#1147E9"/>
</linearGradient>
<linearGradient id="paint2_linear_3514_40165" x1="9.85628" y1="4.33164" x2="13.2147" y2="6.90571" gradientUnits="userSpaceOnUse">
<stop stop-color="#00BBFF"/>
<stop offset="1" stop-color="#008BFF"/>
</linearGradient>
<clipPath id="clip0_3514_40165">
<rect width="9.99982" height="9.99984" fill="white" transform="translate(3.09619 3)"/>
</clipPath>
</defs>
</svg>
