<svg width="16" height="16" viewBox="0 0 16 16" fill="none" xmlns="http://www.w3.org/2000/svg">
<circle cx="7.99982" cy="7.99982" r="7.85696" fill="url(#paint0_linear_3514_40169)" stroke="#D5DADD" stroke-width="0.285708"/>
<g clip-path="url(#clip0_3514_40169)">
<path fill-rule="evenodd" clip-rule="evenodd" d="M10.479 6.7456C10.4335 5.99268 10.0388 5.24241 9.17717 4.97724C8.9028 4.91262 8.73278 4.63781 8.7974 4.36345C8.86203 4.08908 9.13684 3.91905 9.4112 3.98368C10.2297 4.03383 11.4904 5.16304 11.9007 6.56714C11.9609 6.5873 12.0207 6.61113 12.0796 6.63872C12.9093 7.02715 13.267 8.01461 12.8785 8.84427C12.4901 9.67393 11.5026 10.0316 10.673 9.64319C9.84332 9.25476 9.48563 8.2673 9.87406 7.43764C10.0117 7.14361 10.2246 6.90887 10.479 6.7456ZM11.1058 8.71874C11.4249 8.86814 11.8047 8.73056 11.9541 8.41146C12.1035 8.09236 11.9659 7.71257 11.6468 7.56317C11.3277 7.41378 10.9479 7.55135 10.7985 7.87045C10.6491 8.18955 10.7867 8.56934 11.1058 8.71874Z" fill="url(#paint1_linear_3514_40169)"/>
<path fill-rule="evenodd" clip-rule="evenodd" d="M7.90139 10.683C8.57258 11.0272 9.41929 11.0694 10.0862 10.4628C10.2815 10.2596 10.6046 10.2532 10.8078 10.4485C11.0111 10.6438 11.0175 10.9669 10.8222 11.1701C10.3623 11.8491 8.74854 12.3592 7.33116 11.9975C7.28313 12.0391 7.23222 12.0783 7.17847 12.115C6.42174 12.6313 5.38974 12.4364 4.87342 11.6797C4.35711 10.923 4.552 9.89096 5.30873 9.37464C6.06546 8.85833 7.09746 9.05322 7.61378 9.80995C7.79676 10.0781 7.89042 10.3809 7.90139 10.683ZM5.88404 10.2178C5.59299 10.4164 5.51803 10.8133 5.71661 11.1044C5.91519 11.3954 6.31212 11.4704 6.60317 11.2718C6.89422 11.0732 6.96918 10.6763 6.77059 10.3853C6.57201 10.0942 6.17509 10.0192 5.88404 10.2178Z" fill="url(#paint2_linear_3514_40169)"/>
<path fill-rule="evenodd" clip-rule="evenodd" d="M5.74022 6.338C5.12496 6.77437 4.69643 7.50587 4.92641 8.37753C5.01646 8.64463 4.87294 8.93417 4.60584 9.02422C4.33874 9.11428 4.0492 8.97075 3.95915 8.70365C3.56938 7.98218 3.86225 6.31526 4.83771 5.22518C4.823 5.16336 4.81168 5.10004 4.80397 5.03542C4.69553 4.12577 5.34504 3.30044 6.25468 3.192C7.16433 3.08356 7.98965 3.73306 8.0981 4.64271C8.20654 5.55236 7.55703 6.37768 6.64739 6.48613C6.32502 6.52456 6.01325 6.4678 5.74022 6.338ZM7.08452 4.76354C7.04281 4.41368 6.72538 4.16387 6.37551 4.20558C6.02565 4.24729 5.77584 4.56472 5.81755 4.91458C5.85926 5.26445 6.17669 5.51426 6.52655 5.47255C6.87642 5.43084 7.12623 5.11341 7.08452 4.76354Z" fill="url(#paint3_linear_3514_40169)"/>
</g>
<defs>
<linearGradient id="paint0_linear_3514_40169" x1="1.45092" y1="2.2709" x2="13.6878" y2="14.7478" gradientUnits="userSpaceOnUse">
<stop stop-color="white"/>
<stop offset="1" stop-color="#EAECEE"/>
</linearGradient>
<linearGradient id="paint1_linear_3514_40169" x1="9.42" y1="4.84467" x2="13.3061" y2="7.67668" gradientUnits="userSpaceOnUse">
<stop stop-color="#00BBFF"/>
<stop offset="1" stop-color="#008BFF"/>
</linearGradient>
<linearGradient id="paint2_linear_3514_40169" x1="5.54108" y1="9.58209" x2="7.44256" y2="13.2398" gradientUnits="userSpaceOnUse">
<stop stop-color="#0195FF"/>
<stop offset="0.991028" stop-color="#1147E9"/>
</linearGradient>
<linearGradient id="paint3_linear_3514_40169" x1="4.43058" y1="4.04392" x2="8.35771" y2="6.94451" gradientUnits="userSpaceOnUse">
<stop stop-color="#1348FF"/>
<stop offset="1" stop-color="#06238D"/>
</linearGradient>
<clipPath id="clip0_3514_40169">
<rect width="10" height="10" fill="white" transform="matrix(-1 0 0 1 13.3999 2.80005)"/>
</clipPath>
</defs>
</svg>
