<svg width="16" height="16" viewBox="0 0 16 16" fill="none" xmlns="http://www.w3.org/2000/svg">
<circle cx="7.99933" cy="7.99982" r="7.85696" fill="url(#paint0_linear_3514_40170)" stroke="#D5DADD" stroke-width="0.285708"/>
<g clip-path="url(#clip0_3514_40170)">
<path d="M9.51222 7.96538C9.39392 8.0016 9.27006 8.03109 9.14525 8.05511C8.7963 8.12226 8.3997 8.15396 8.00751 8.15313C7.61522 8.15231 7.218 8.11892 6.86757 8.05157C6.7385 8.02677 6.61077 7.99644 6.48913 7.95945L6.48991 8.46466C6.61414 8.51904 6.7836 8.56995 6.99433 8.61045C7.29633 8.66849 7.65078 8.69919 8.00893 8.69994C8.36718 8.70069 8.71979 8.67147 9.01833 8.61402C9.22706 8.57385 9.39236 8.52302 9.51175 8.46903L9.51222 7.96538Z" fill="url(#paint1_linear_3514_40170)"/>
<path d="M6.48659 6.97513L6.48753 7.50821C6.61197 7.56298 6.78225 7.61429 6.99433 7.65505C7.29633 7.71309 7.65078 7.74378 8.00893 7.74454C8.36718 7.74529 8.71979 7.71607 9.01833 7.65862C9.22819 7.61823 9.39415 7.56707 9.51369 7.51275V6.97165C9.48125 6.98474 9.44837 6.99704 9.41521 7.00862C9.03076 7.14287 8.52593 7.208 7.99416 7.208C7.46678 7.208 6.96685 7.14395 6.58526 7.01187C6.55203 7.00037 6.51908 6.98814 6.48659 6.97513Z" fill="url(#paint2_linear_3514_40170)"/>
<path d="M7.99416 6.5334C8.48183 6.5334 8.90503 6.4724 9.19376 6.37158C9.56152 6.24316 9.5566 6.1205 9.19376 5.99379C8.90503 5.89297 8.48183 5.83197 7.99416 5.83197C7.50648 5.83197 7.08779 5.89298 6.80289 5.99345C6.44979 6.11797 6.43602 6.24651 6.80498 6.37422C7.09161 6.47343 7.51063 6.5334 7.99416 6.5334Z" fill="url(#paint3_linear_3514_40170)"/>
<path d="M6.4919 9.34979L6.49152 8.93582C6.61245 8.97247 6.73934 9.00257 6.86757 9.02721C7.218 9.09456 7.61522 9.12794 8.00751 9.12877C8.3997 9.12959 8.7963 9.0979 9.14525 9.03075C9.27024 9.0067 9.39427 8.97716 9.51273 8.94086C9.51284 8.96543 9.51296 9.03371 9.51309 9.1081C9.51327 9.20907 9.51347 9.32131 9.51368 9.35077C9.51321 9.40278 9.47457 9.51961 9.15572 9.6346C8.85862 9.74174 8.43788 9.79554 7.99437 9.79526C7.55337 9.79499 7.13729 9.74147 6.8442 9.63492C6.52944 9.52049 6.4919 9.40408 6.4919 9.34979Z" fill="url(#paint4_linear_3514_40170)"/>
<path fill-rule="evenodd" clip-rule="evenodd" d="M8.13474 3.21934L11.5886 4.21555H11.5877C11.8321 4.28111 11.9544 4.4436 11.9544 4.70397V8.19949C11.9544 8.74653 11.8645 9.24787 11.6844 9.70351C11.5038 10.1591 11.2789 10.5695 11.0089 10.9338C10.7389 11.2985 10.4461 11.6175 10.131 11.8907C9.81583 12.1645 9.51665 12.3921 9.23388 12.5744C8.95111 12.7568 8.71304 12.8967 8.52012 12.9945C8.3272 13.0924 8.21774 13.1478 8.1922 13.1607C8.11512 13.187 8.05082 13.2 7.99928 13.2C7.94774 13.2 7.88344 13.1866 7.80636 13.1607C7.78036 13.1478 7.67136 13.0956 7.47844 13.0047C7.28552 12.9133 7.04745 12.7734 6.76468 12.5846C6.48192 12.3958 6.18273 12.1645 5.86758 11.8912C5.55243 11.6179 5.25963 11.2989 4.98963 10.9342C4.71918 10.57 4.49434 10.1601 4.31419 9.70397C4.13404 9.24833 4.04419 8.74699 4.04419 8.19995V4.70397C4.04419 4.4436 4.16642 4.28065 4.41087 4.21555L7.86474 3.21934C7.94181 3.19349 8.03166 3.19349 8.13474 3.21934ZM6.07014 5.64119C5.92683 5.7711 5.8149 5.9517 5.81178 6.17802L5.81881 9.34979C5.81904 9.85802 6.24036 10.133 6.61469 10.2691C7.0108 10.4131 7.51412 10.4696 7.99395 10.4699C8.47702 10.4702 8.98432 10.4134 9.38361 10.2694C9.75912 10.1339 10.1868 9.85984 10.1868 9.34979L10.1868 6.18269C10.1868 5.95289 10.0728 5.77034 9.92843 5.64039C9.78852 5.51446 9.60647 5.42353 9.41521 5.35675C9.03076 5.2225 8.52593 5.15737 7.99416 5.15737C7.46239 5.15737 6.96115 5.22249 6.57948 5.35709C6.38944 5.42411 6.20905 5.51526 6.07014 5.64119Z" fill="url(#paint5_linear_3514_40170)"/>
</g>
<defs>
<linearGradient id="paint0_linear_3514_40170" x1="1.45043" y1="2.2709" x2="13.6874" y2="14.7478" gradientUnits="userSpaceOnUse">
<stop stop-color="white"/>
<stop offset="1" stop-color="#EAECEE"/>
</linearGradient>
<linearGradient id="paint1_linear_3514_40170" x1="5.22996" y1="4.69539" x2="12.0444" y2="10.0876" gradientUnits="userSpaceOnUse">
<stop stop-color="#0195FF"/>
<stop offset="0.991028" stop-color="#1147E9"/>
</linearGradient>
<linearGradient id="paint2_linear_3514_40170" x1="5.22996" y1="4.69539" x2="12.0444" y2="10.0876" gradientUnits="userSpaceOnUse">
<stop stop-color="#0195FF"/>
<stop offset="0.991028" stop-color="#1147E9"/>
</linearGradient>
<linearGradient id="paint3_linear_3514_40170" x1="5.22996" y1="4.69539" x2="12.0444" y2="10.0876" gradientUnits="userSpaceOnUse">
<stop stop-color="#0195FF"/>
<stop offset="0.991028" stop-color="#1147E9"/>
</linearGradient>
<linearGradient id="paint4_linear_3514_40170" x1="5.22996" y1="4.69539" x2="12.0444" y2="10.0876" gradientUnits="userSpaceOnUse">
<stop stop-color="#0195FF"/>
<stop offset="0.991028" stop-color="#1147E9"/>
</linearGradient>
<linearGradient id="paint5_linear_3514_40170" x1="5.22996" y1="4.69539" x2="12.0444" y2="10.0876" gradientUnits="userSpaceOnUse">
<stop stop-color="#0195FF"/>
<stop offset="0.991028" stop-color="#1147E9"/>
</linearGradient>
<clipPath id="clip0_3514_40170">
<rect width="10" height="10" fill="white" transform="translate(2.99927 3.19995)"/>
</clipPath>
</defs>
</svg>
