<svg width="16" height="16" viewBox="0 0 16 16" fill="none" xmlns="http://www.w3.org/2000/svg">
<circle cx="7.99908" cy="7.99982" r="7.85696" fill="url(#paint0_linear_3514_40171)" stroke="#D5DADD" stroke-width="0.285708"/>
<g clip-path="url(#clip0_3514_40171)">
<path d="M5.11185 8.64735L5.08036 8.66684C4.98555 8.71084 4.89342 8.75974 4.80441 8.81332C4.71723 8.86531 4.63557 8.9173 4.55942 8.96929L4.42385 8.75483C4.13335 8.27757 3.87901 7.78178 3.66273 7.27112C3.48449 6.83797 3.35011 6.39009 3.26135 5.93338C3.18841 5.53013 3.17969 5.18519 3.2352 4.89858C3.29071 4.61197 3.41934 4.41335 3.6211 4.3027C3.85701 4.17906 4.14719 4.18556 4.49164 4.3222C4.83608 4.45884 5.19512 4.70329 5.56874 5.05555C5.3948 4.95149 5.20251 4.87718 5.00083 4.8361C4.84992 4.8036 4.69145 4.82631 4.55782 4.89958C4.38382 4.99057 4.26907 5.1532 4.21356 5.38749C4.16481 5.67393 4.16661 5.96592 4.21889 6.25182C4.28309 6.63274 4.38604 7.00704 4.52633 7.3696C4.69236 7.80843 4.89086 8.23588 5.12039 8.64885L5.11185 8.64735Z" fill="url(#paint1_linear_3514_40171)"/>
<path d="M4.98642 9.56467C5.04937 9.48638 5.12093 9.4145 5.19992 9.35021C5.28247 9.28346 5.37186 9.22452 5.46679 9.17425C5.59169 9.36988 5.71623 9.557 5.84041 9.73564C5.96531 9.9151 6.09394 10.0856 6.22631 10.2485L6.04911 10.2775H6.06993C6 10.2905 5.92742 10.302 5.85056 10.312C5.7737 10.322 5.6947 10.33 5.6109 10.336C5.50665 10.2257 5.40239 10.1054 5.29813 9.97509C5.19387 9.84478 5.08961 9.71147 4.98535 9.57517L4.98642 9.56467Z" fill="url(#paint2_linear_3514_40171)"/>
<path d="M7.78058 11.7127C7.56197 11.6951 7.3484 11.6415 7.14969 11.5543C6.95797 11.4703 6.78062 11.3601 6.62342 11.2273L7.00878 11.0904V11.1004C7.12728 11.211 7.25075 11.3183 7.3792 11.4223C7.50964 11.528 7.64709 11.6258 7.79072 11.7152L7.78058 11.7127Z" fill="url(#paint3_linear_3514_40171)"/>
<path d="M8.7915 6.29381C8.64143 6.20772 8.47992 6.14049 8.31112 6.09385C8.13516 6.04474 7.95244 6.02014 7.76884 6.02086C7.40861 6.01681 7.05449 6.10813 6.74725 6.28431C6.44649 6.45528 6.19577 6.69353 6.01762 6.97768C6.16253 6.7436 6.35448 6.53802 6.58286 6.37229C6.80695 6.19901 7.05922 6.06045 7.3301 5.96188C7.59595 5.86521 7.87863 5.81554 8.16381 5.8154C8.44181 5.81383 8.71529 5.88127 8.95642 6.01087C9.59891 6.34773 10.2155 6.72624 10.8016 7.14364C11.3086 7.51457 11.7065 7.86117 11.995 8.18344C12.2836 8.50571 12.4695 8.80015 12.5528 9.06677C12.6361 9.33338 12.6183 9.56134 12.4994 9.75063C12.4094 9.90027 12.1801 10.0092 11.8114 10.0776C11.4523 10.1441 10.8521 9.95277 10.0108 9.5035C10.2735 9.63834 10.5662 9.71468 10.8662 9.72614C11.1821 9.7358 11.4341 9.58767 11.622 9.28173C11.712 9.12576 11.7084 8.93046 11.6113 8.69584C11.5074 8.46855 11.3268 8.2196 11.0695 7.94899C10.7746 7.64509 10.4521 7.36576 10.1056 7.11415C9.68695 6.80715 9.2445 6.52977 8.78189 6.28431L8.7915 6.29381Z" fill="url(#paint4_linear_3514_40171)"/>
<path d="M7.79081 9.83815H7.78067C7.25052 9.83605 6.74272 9.63786 6.36785 9.28676C5.99297 8.93565 5.78137 8.46005 5.77912 7.96352V7.94402C5.77682 7.45058 5.81518 6.95772 5.89388 6.46981C5.95815 6.0626 6.05922 5.66124 6.19598 5.27005C6.32088 4.92511 6.46321 4.655 6.62298 4.4597C6.78274 4.26441 6.94607 4.16676 7.11295 4.16676C7.45348 4.16676 7.70879 4.2969 7.87888 4.55719C8.04285 4.8067 8.13111 5.09314 8.1345 5.38573C8.13185 4.45325 8.00839 3.85646 7.76412 3.59537C7.51718 3.33143 7.30012 3.19962 7.11295 3.19995C6.88344 3.19995 6.66443 3.2976 6.45591 3.49289C6.25416 3.69485 6.07624 3.9948 5.92217 4.39272C5.74786 4.87529 5.62276 5.37225 5.54855 5.87693C5.45131 6.56956 5.40264 7.26742 5.40283 7.96602C5.40303 8.22128 5.47878 8.4715 5.62167 8.68888C5.7618 8.91821 5.9475 9.12031 6.16876 9.28426C6.39918 9.45591 6.65811 9.59101 6.93522 9.68418C7.19987 9.78575 7.48292 9.8387 7.76893 9.84015L7.79081 9.83815Z" fill="url(#paint5_linear_3514_40171)"/>
<path d="M7.23838 12.0842C6.995 12.1622 6.79004 12.1555 6.62351 12.0642C6.50598 11.9716 6.41144 11.8561 6.3465 11.7258C6.27647 11.5937 6.23993 11.4483 6.23975 11.3009C6.23953 11.2764 6.24132 11.252 6.24508 11.2279C6.24782 11.2087 6.24951 11.1894 6.25014 11.1701C6.13756 11.6445 6.10207 12.0573 6.14367 12.4086C6.1853 12.7602 6.32443 12.9945 6.56106 13.1115C6.76246 13.2225 7.00905 13.229 7.30083 13.131C7.59973 13.0397 7.91767 12.8641 8.25464 12.6041C8.63392 12.3028 8.98139 11.968 9.29224 11.6043C9.65643 11.1714 9.98729 10.7149 10.2823 10.2381L10.3971 10.0721C10.2791 10.0221 10.1697 9.97062 10.0688 9.92213C9.97474 9.8769 9.88203 9.82688 9.79114 9.77289C9.52208 10.1545 9.22651 10.5192 8.90634 10.8644C8.63867 11.155 8.34395 11.4226 8.02566 11.6643C7.7442 11.8723 7.48177 12.0122 7.23838 12.0842Z" fill="url(#paint6_linear_3514_40171)"/>
<path d="M10.9581 8.95482C11.0205 8.81485 11.0792 8.67338 11.1353 8.52991H11.1374C11.075 8.44542 11.0104 8.36694 10.9447 8.29195C10.8791 8.21697 10.8113 8.14398 10.7419 8.072C10.6373 8.29995 10.5343 8.50791 10.4339 8.69687C10.3429 8.86825 10.244 9.03388 10.1384 9.19449C10.2297 9.24714 10.3272 9.28952 10.4291 9.32075C10.5327 9.35333 10.6403 9.37299 10.7494 9.37924H10.76C10.8294 9.23627 10.8956 9.0948 10.9581 8.95482Z" fill="url(#paint7_linear_3514_40171)"/>
<path d="M11.3333 6.0209V6.0304C11.3213 6.20547 11.2996 6.37985 11.2682 6.5528C11.239 6.70595 11.2027 6.8574 11.1594 7.00717C11.2149 7.04672 11.2681 7.08895 11.3189 7.13368C11.3681 7.17759 11.4217 7.21693 11.479 7.25116C11.4936 7.18833 11.5041 7.12472 11.5105 7.06069C11.5174 6.99071 11.5206 6.91872 11.5206 6.84074C11.5207 6.69815 11.5051 6.55594 11.4742 6.41632C11.444 6.27979 11.3967 6.14707 11.3333 6.0209Z" fill="url(#paint8_linear_3514_40171)"/>
<path fill-rule="evenodd" clip-rule="evenodd" d="M6.25042 11.1689L6.25014 11.1701C6.25031 11.1648 6.25041 11.1596 6.25042 11.1544V11.1689ZM9.79114 9.77289L9.79236 9.77116L9.77154 9.76117L9.79114 9.77289ZM10.1372 9.19378L10.1384 9.19449C10.1276 9.21097 10.1166 9.22739 10.1057 9.24377L10.1372 9.19378ZM11.1588 7.00671L11.1594 7.00717L11.1481 7.0457L11.1588 7.00671Z" fill="url(#paint9_linear_3514_40171)"/>
<path d="M8.80233 9.56469H8.81248C9.11717 9.40338 9.37077 9.16931 9.54744 8.88633C9.7307 8.5994 9.82634 8.27085 9.82392 7.93651C9.82444 7.76488 9.79983 7.59399 9.7508 7.42861L9.74399 7.40592C9.78241 7.51496 9.81254 7.62661 9.83407 7.74005C9.88264 8.00993 9.88264 8.28552 9.83407 8.55539C9.7882 8.81796 9.69296 9.07083 9.55278 9.30225C9.41729 9.52664 9.21912 9.71224 8.97954 9.83914C8.33976 10.1945 7.67435 10.5077 6.98813 10.7765C6.39745 10.9981 5.87972 11.1462 5.43493 11.2209C4.99014 11.2955 4.62524 11.2972 4.34022 11.2259C4.05555 11.1609 3.85415 11.0339 3.73602 10.8449C3.64528 10.6953 3.66094 10.4545 3.78299 10.1226C3.90354 9.79472 4.39105 9.40052 5.24552 8.93998C4.97655 9.08756 4.74827 9.29245 4.57934 9.5382C4.41209 9.78548 4.42241 10.0621 4.61029 10.368C4.70743 10.5243 4.8882 10.6187 5.15258 10.651C5.42372 10.6843 5.74682 10.6631 6.12186 10.5875C6.54895 10.498 6.96741 10.3756 7.37296 10.2216C7.85745 10.0336 8.3277 9.815 8.78045 9.56719L8.80233 9.56469Z" fill="url(#paint10_linear_3514_40171)"/>
<path d="M8.66463 4.79063C9.26114 4.78824 9.85701 4.82734 10.4473 4.90761C10.9358 4.97748 11.4158 5.092 11.8804 5.24954C12.2872 5.39251 12.6087 5.55915 12.8449 5.74944C13.0808 5.9444 13.199 6.14936 13.1993 6.36432C13.1993 6.61161 13.0465 6.84106 12.7408 7.05269C12.4352 7.26431 12.026 7.43844 11.5132 7.57508C11.6967 7.48286 11.8624 7.36236 12.0032 7.21865C12.1123 7.1118 12.1754 6.97099 12.1804 6.82323C12.1804 6.64793 12.0867 6.4788 11.8991 6.31583C11.6636 6.13055 11.3953 5.98507 11.1065 5.88591C10.7212 5.74877 10.3236 5.64421 9.9184 5.57348C9.43354 5.48547 8.94205 5.43332 8.44846 5.41751V4.79063H8.66463Z" fill="url(#paint11_linear_3514_40171)"/>
<path d="M7.77007 5.31753C7.77006 5.23222 7.75967 5.14719 7.73911 5.06408C7.71943 4.98422 7.69295 4.90597 7.65991 4.83008C7.46713 4.84467 7.28323 4.86284 7.10822 4.88461C6.93138 4.90661 6.75933 4.93427 6.59209 4.96759L6.65454 4.9581C6.61985 5.02308 6.58302 5.10007 6.54512 5.18755C6.50723 5.27504 6.47413 5.36152 6.44638 5.446L6.42556 5.48499C6.64831 5.46466 6.87071 5.448 7.09275 5.435C7.31478 5.42201 7.53718 5.41551 7.75993 5.41551C7.76666 5.4017 7.77012 5.38669 7.77007 5.37152V5.31753Z" fill="url(#paint12_linear_3514_40171)"/>
<path fill-rule="evenodd" clip-rule="evenodd" d="M9.74399 7.40592C9.69769 7.25572 9.62997 7.11202 9.54264 6.9787C9.62448 7.11491 9.69186 7.25801 9.74399 7.40592ZM7.66599 4.82962L7.65531 4.81962L7.65991 4.83008L7.66599 4.82962Z" fill="url(#paint13_linear_3514_40171)"/>
<path d="M4.24681 6.03039L4.25695 6.02089C4.38385 5.85648 4.53896 5.71289 4.71597 5.59597C4.89862 5.47441 5.09859 5.37748 5.31003 5.30803C5.29616 5.36652 5.28228 5.42851 5.2684 5.49349C5.25401 5.56097 5.24704 5.62964 5.24759 5.69845L5.21609 5.70845C5.04489 5.74662 4.87613 5.79386 4.71064 5.84992C4.55164 5.90359 4.39668 5.96723 4.24681 6.04039V6.03039Z" fill="url(#paint14_linear_3514_40171)"/>
</g>
<defs>
<linearGradient id="paint0_linear_3514_40171" x1="1.45019" y1="2.2709" x2="13.6871" y2="14.7478" gradientUnits="userSpaceOnUse">
<stop stop-color="white"/>
<stop offset="1" stop-color="#EAECEE"/>
</linearGradient>
<linearGradient id="paint1_linear_3514_40171" x1="4.60907" y1="5.33627" x2="9.72898" y2="11.7583" gradientUnits="userSpaceOnUse">
<stop stop-color="#0195FF"/>
<stop offset="0.991028" stop-color="#1147E9"/>
</linearGradient>
<linearGradient id="paint2_linear_3514_40171" x1="4.60907" y1="5.33627" x2="9.72898" y2="11.7583" gradientUnits="userSpaceOnUse">
<stop stop-color="#0195FF"/>
<stop offset="0.991028" stop-color="#1147E9"/>
</linearGradient>
<linearGradient id="paint3_linear_3514_40171" x1="4.60907" y1="5.33627" x2="9.72898" y2="11.7583" gradientUnits="userSpaceOnUse">
<stop stop-color="#0195FF"/>
<stop offset="0.991028" stop-color="#1147E9"/>
</linearGradient>
<linearGradient id="paint4_linear_3514_40171" x1="4.60907" y1="5.33627" x2="9.72898" y2="11.7583" gradientUnits="userSpaceOnUse">
<stop stop-color="#0195FF"/>
<stop offset="0.991028" stop-color="#1147E9"/>
</linearGradient>
<linearGradient id="paint5_linear_3514_40171" x1="6.31841" y1="4.70027" x2="12.5505" y2="8.51027" gradientUnits="userSpaceOnUse">
<stop stop-color="#00BBFF"/>
<stop offset="1" stop-color="#008BFF"/>
</linearGradient>
<linearGradient id="paint6_linear_3514_40171" x1="6.31841" y1="4.70027" x2="12.5505" y2="8.51027" gradientUnits="userSpaceOnUse">
<stop stop-color="#00BBFF"/>
<stop offset="1" stop-color="#008BFF"/>
</linearGradient>
<linearGradient id="paint7_linear_3514_40171" x1="6.31841" y1="4.70027" x2="12.5505" y2="8.51027" gradientUnits="userSpaceOnUse">
<stop stop-color="#00BBFF"/>
<stop offset="1" stop-color="#008BFF"/>
</linearGradient>
<linearGradient id="paint8_linear_3514_40171" x1="6.31841" y1="4.70027" x2="12.5505" y2="8.51027" gradientUnits="userSpaceOnUse">
<stop stop-color="#00BBFF"/>
<stop offset="1" stop-color="#008BFF"/>
</linearGradient>
<linearGradient id="paint9_linear_3514_40171" x1="6.31841" y1="4.70027" x2="12.5505" y2="8.51027" gradientUnits="userSpaceOnUse">
<stop stop-color="#00BBFF"/>
<stop offset="1" stop-color="#008BFF"/>
</linearGradient>
<linearGradient id="paint10_linear_3514_40171" x1="5.08565" y1="5.74499" x2="9.30453" y2="11.9634" gradientUnits="userSpaceOnUse">
<stop stop-color="#1348FF"/>
<stop offset="1" stop-color="#06238D"/>
</linearGradient>
<linearGradient id="paint11_linear_3514_40171" x1="5.08565" y1="5.74499" x2="9.30453" y2="11.9634" gradientUnits="userSpaceOnUse">
<stop stop-color="#1348FF"/>
<stop offset="1" stop-color="#06238D"/>
</linearGradient>
<linearGradient id="paint12_linear_3514_40171" x1="5.08565" y1="5.74499" x2="9.30453" y2="11.9634" gradientUnits="userSpaceOnUse">
<stop stop-color="#1348FF"/>
<stop offset="1" stop-color="#06238D"/>
</linearGradient>
<linearGradient id="paint13_linear_3514_40171" x1="5.08565" y1="5.74499" x2="9.30453" y2="11.9634" gradientUnits="userSpaceOnUse">
<stop stop-color="#1348FF"/>
<stop offset="1" stop-color="#06238D"/>
</linearGradient>
<linearGradient id="paint14_linear_3514_40171" x1="5.08565" y1="5.74499" x2="9.30453" y2="11.9634" gradientUnits="userSpaceOnUse">
<stop stop-color="#1348FF"/>
<stop offset="1" stop-color="#06238D"/>
</linearGradient>
<clipPath id="clip0_3514_40171">
<rect width="9.99995" height="9.99997" fill="white" transform="translate(3.19922 3.19995)"/>
</clipPath>
</defs>
</svg>
