<svg width="16" height="16" viewBox="0 0 16 16" fill="none" xmlns="http://www.w3.org/2000/svg">
<circle cx="7.99884" cy="7.99982" r="7.85696" fill="url(#paint0_linear_3514_40172)" stroke="#D5DADD" stroke-width="0.285708"/>
<g clip-path="url(#clip0_3514_40172)">
<path fill-rule="evenodd" clip-rule="evenodd" d="M10.751 2.99976H7.00098C5.75834 2.99976 4.75098 4.00712 4.75098 5.24976C4.75098 6.4924 5.75834 7.49976 7.00098 7.49976H10.751C11.9936 7.49976 13.001 6.4924 13.001 5.24976C13.001 4.00712 11.9936 2.99976 10.751 2.99976ZM10.751 6.49977C11.4413 6.49977 12.001 5.94012 12.001 5.24977C12.001 4.55941 11.4413 3.99977 10.751 3.99977C10.0606 3.99977 9.50099 4.55941 9.50099 5.24977C9.50099 5.94012 10.0606 6.49977 10.751 6.49977Z" fill="url(#paint1_linear_3514_40172)"/>
<path fill-rule="evenodd" clip-rule="evenodd" d="M5.24902 12.9998L8.99906 12.9998C10.2417 12.9998 11.2491 11.9924 11.2491 10.7498C11.2491 9.50714 10.2417 8.49978 8.99906 8.49978H5.25927L5.24902 8.49976C4.00632 8.49976 2.99902 9.50714 2.99902 10.7498C2.99902 11.9924 4.00631 12.9998 5.24902 12.9998ZM7.49902 10.7498C7.49902 11.2123 7.35945 11.6422 7.12012 11.9998H8.99906C9.68941 11.9998 10.2491 11.4401 10.2491 10.7498C10.2491 10.0594 9.68941 9.49978 8.99906 9.49978H7.12017C7.35948 9.8573 7.49902 10.2872 7.49902 10.7498ZM5.25668 9.49978C5.50675 9.50128 5.73941 9.57621 5.93419 9.7041C5.83247 9.63732 5.72042 9.58498 5.60096 9.55C6.11996 9.70199 6.49901 10.1816 6.49901 10.7498C6.49901 11.4401 5.93936 11.9998 5.24901 11.9998C4.55861 11.9998 3.99901 11.4401 3.99901 10.7498C3.99901 10.3156 4.22037 9.93308 4.55641 9.70901C4.57028 9.69976 4.58434 9.69079 4.5986 9.68208C4.78808 9.56641 5.01076 9.49976 5.24902 9.49976C5.25091 9.49976 5.25282 9.49977 5.25471 9.49978H5.25668Z" fill="url(#paint2_linear_3514_40172)"/>
</g>
<defs>
<linearGradient id="paint0_linear_3514_40172" x1="1.44995" y1="2.2709" x2="13.6869" y2="14.7478" gradientUnits="userSpaceOnUse">
<stop stop-color="white"/>
<stop offset="1" stop-color="#EAECEE"/>
</linearGradient>
<linearGradient id="paint1_linear_3514_40172" x1="5.98769" y1="3.6727" x2="8.63633" y2="8.53025" gradientUnits="userSpaceOnUse">
<stop stop-color="#0195FF"/>
<stop offset="0.991028" stop-color="#1147E9"/>
</linearGradient>
<linearGradient id="paint2_linear_3514_40172" x1="4.23371" y1="9.1749" x2="6.88387" y2="14.0301" gradientUnits="userSpaceOnUse">
<stop stop-color="#00BBFF"/>
<stop offset="1" stop-color="#008BFF"/>
</linearGradient>
<clipPath id="clip0_3514_40172">
<rect width="10" height="10" fill="white" transform="translate(2.99878 2.99976)"/>
</clipPath>
</defs>
</svg>
