<svg width="16" height="16" viewBox="0 0 16 16" fill="none" xmlns="http://www.w3.org/2000/svg">
<circle cx="7.9964" cy="7.99982" r="7.85696" fill="url(#paint0_linear_3514_40178)" stroke="#D5DADD" stroke-width="0.285708"/>
<g clip-path="url(#clip0_3514_40178)">
<path d="M10.2036 4.45984C10.0259 4.52573 9.88107 4.66081 9.8011 4.83538L8.23052 8.22808C8.19093 8.31452 8.16845 8.40805 8.16436 8.50333C8.16028 8.59861 8.17466 8.69378 8.2067 8.7834C8.23874 8.87302 8.2878 8.95534 8.35108 9.02565C8.41436 9.09597 8.49062 9.15291 8.57552 9.19321C8.66041 9.23353 8.75228 9.25643 8.84587 9.2606C8.93946 9.26477 9.03294 9.25013 9.12097 9.21751C9.209 9.18489 9.28986 9.13493 9.35892 9.07049C9.42799 9.00605 9.48391 8.92839 9.5235 8.84194L11.0941 5.44915C11.174 5.27458 11.1826 5.07484 11.1179 4.89385C11.0532 4.71286 10.9205 4.56544 10.7491 4.48402C10.5776 4.40265 10.3814 4.39395 10.2036 4.45984Z" fill="url(#paint1_linear_3514_40178)"/>
<path d="M6.69864 10.3837L7.87174 7.86484C7.95168 7.69029 7.96026 7.49056 7.8956 7.30958C7.83093 7.12859 7.69832 6.98116 7.52692 6.89971C7.35546 6.8183 7.15926 6.80957 6.98148 6.87545C6.8037 6.94132 6.6589 7.0764 6.57894 7.25098L5.40592 9.7698C5.36634 9.85623 5.34386 9.94975 5.33977 10.045C5.33569 10.1403 5.35007 10.2355 5.38211 10.3251C5.41415 10.4147 5.46321 10.497 5.52649 10.5673C5.58977 10.6376 5.66603 10.6945 5.75092 10.7348C5.92234 10.8162 6.11848 10.8249 6.29621 10.7591C6.47394 10.6932 6.6187 10.5582 6.69864 10.3837Z" fill="url(#paint2_linear_3514_40178)"/>
<path d="M4.6182 10.0777C4.6182 10.4775 4.29995 10.8015 3.90737 10.8015C3.51479 10.8015 3.19653 10.4775 3.19653 10.0777C3.19653 9.67801 3.51479 9.35397 3.90737 9.35397C4.29995 9.35397 4.6182 9.67801 4.6182 10.0777Z" fill="url(#paint3_linear_3514_40178)"/>
<path d="M8.19364 10.8015C8.58622 10.8015 8.90447 10.4775 8.90447 10.0777C8.90447 9.67801 8.58622 9.35397 8.19364 9.35397C7.80105 9.35397 7.4828 9.67801 7.4828 10.0777C7.4828 10.4775 7.80105 10.8015 8.19364 10.8015Z" fill="url(#paint4_linear_3514_40178)"/>
<path d="M12.4857 10.8015C12.8783 10.8015 13.1965 10.4775 13.1965 10.0777C13.1965 9.67801 12.8783 9.35397 12.4857 9.35397C12.0931 9.35397 11.7749 9.67801 11.7749 10.0777C11.7749 10.4775 12.0931 10.8015 12.4857 10.8015Z" fill="url(#paint5_linear_3514_40178)"/>
<path d="M10.9902 10.3834L12.08 7.99238C12.1599 7.81792 12.1685 7.6183 12.1039 7.43739C12.0393 7.25648 11.9068 7.10909 11.7356 7.0276C11.6507 6.9873 11.5588 6.96441 11.4652 6.96025C11.3717 6.95609 11.2782 6.97074 11.1902 7.00336C11.1022 7.03598 11.0213 7.08593 10.9523 7.15036C10.8832 7.21479 10.8273 7.29244 10.7877 7.37887L9.6979 9.76978C9.61801 9.94424 9.60941 10.1439 9.674 10.3248C9.7386 10.5057 9.8711 10.6531 10.0424 10.7346C10.2138 10.8159 10.41 10.8247 10.5877 10.7588C10.7655 10.6929 10.9102 10.5579 10.9902 10.3834Z" fill="url(#paint6_linear_3514_40178)"/>
<path d="M5.03128 5.77819C4.92417 5.76689 4.81993 5.73094 4.72687 5.67177C4.5664 5.56974 4.45229 5.407 4.40964 5.21933C4.38856 5.1264 4.38567 5.03016 4.40113 4.93609C4.41659 4.84202 4.45009 4.75197 4.49973 4.67109C4.54936 4.59021 4.61416 4.52007 4.69042 4.46469C4.76668 4.4093 4.85291 4.36975 4.94418 4.3483L6.11083 4.09725C6.29517 4.0539 6.48887 4.08687 6.64934 4.1889C6.80981 4.29092 6.92392 4.45367 6.96657 4.64134C6.98765 4.73427 6.99054 4.83051 6.97508 4.92458C6.9622 5.00298 6.93678 5.07858 6.89994 5.14841L5.33736 8.52296C5.25743 8.69743 5.11272 8.83244 4.93505 8.89831C4.75739 8.96418 4.5613 8.95552 4.3899 8.87423C4.21845 8.79283 4.08578 8.64542 4.02107 8.46443C3.95635 8.28343 3.96489 8.08368 4.04481 7.9091L5.03128 5.77819Z" fill="url(#paint7_linear_3514_40178)"/>
</g>
<defs>
<linearGradient id="paint0_linear_3514_40178" x1="1.4475" y1="2.2709" x2="13.6844" y2="14.7478" gradientUnits="userSpaceOnUse">
<stop stop-color="white"/>
<stop offset="1" stop-color="#EAECEE"/>
</linearGradient>
<linearGradient id="paint1_linear_3514_40178" x1="4.69558" y1="5.37113" x2="8.75236" y2="11.7251" gradientUnits="userSpaceOnUse">
<stop stop-color="#0195FF"/>
<stop offset="0.991028" stop-color="#1147E9"/>
</linearGradient>
<linearGradient id="paint2_linear_3514_40178" x1="4.69558" y1="5.37113" x2="8.75236" y2="11.7251" gradientUnits="userSpaceOnUse">
<stop stop-color="#0195FF"/>
<stop offset="0.991028" stop-color="#1147E9"/>
</linearGradient>
<linearGradient id="paint3_linear_3514_40178" x1="4.69558" y1="5.37113" x2="8.75236" y2="11.7251" gradientUnits="userSpaceOnUse">
<stop stop-color="#0195FF"/>
<stop offset="0.991028" stop-color="#1147E9"/>
</linearGradient>
<linearGradient id="paint4_linear_3514_40178" x1="4.69558" y1="5.37113" x2="8.75236" y2="11.7251" gradientUnits="userSpaceOnUse">
<stop stop-color="#0195FF"/>
<stop offset="0.991028" stop-color="#1147E9"/>
</linearGradient>
<linearGradient id="paint5_linear_3514_40178" x1="4.69558" y1="5.37113" x2="8.75236" y2="11.7251" gradientUnits="userSpaceOnUse">
<stop stop-color="#0195FF"/>
<stop offset="0.991028" stop-color="#1147E9"/>
</linearGradient>
<linearGradient id="paint6_linear_3514_40178" x1="4.69558" y1="5.37113" x2="8.75236" y2="11.7251" gradientUnits="userSpaceOnUse">
<stop stop-color="#0195FF"/>
<stop offset="0.991028" stop-color="#1147E9"/>
</linearGradient>
<linearGradient id="paint7_linear_3514_40178" x1="4.42802" y1="4.8083" x2="7.47343" y2="6.68978" gradientUnits="userSpaceOnUse">
<stop stop-color="#00BBFF"/>
<stop offset="1" stop-color="#008BFF"/>
</linearGradient>
<clipPath id="clip0_3514_40178">
<rect width="10" height="10" fill="white" transform="translate(3.19653 2.6001)"/>
</clipPath>
</defs>
</svg>
