<svg width="16" height="16" viewBox="0 0 16 16" fill="none" xmlns="http://www.w3.org/2000/svg">
<circle cx="7.99738" cy="7.99982" r="7.85696" fill="url(#paint0_linear_3514_40176)" stroke="#D5DADD" stroke-width="0.285708"/>
<g clip-path="url(#clip0_3514_40176)">
<path d="M7.37284 3.64683L10.3916 4.51754H10.3908C10.6045 4.57484 10.7113 4.71686 10.7113 4.94443V5.53746C10.656 5.55647 10.6011 5.5772 10.5464 5.59961C10.197 5.738 9.88595 5.94813 9.61397 6.22012C9.21014 6.62395 8.94445 7.10468 8.83876 7.65428C8.76243 8.0512 8.77129 8.44474 8.86335 8.8292L6.53665 11.1559C6.35313 11.3394 6.23124 11.581 6.22148 11.8629C6.20627 11.8528 6.1909 11.8426 6.17538 11.8323C5.92824 11.6672 5.66674 11.4651 5.39129 11.2262C5.11585 10.9874 4.85993 10.7086 4.62395 10.3898C4.38757 10.0715 4.19105 9.71318 4.03359 9.31454C3.87614 8.91631 3.79761 8.47812 3.79761 8V4.94443C3.79761 4.71686 3.90444 4.57443 4.1181 4.51754L7.13685 3.64683C7.20422 3.62423 7.28275 3.62423 7.37284 3.64683Z" fill="url(#paint1_linear_3514_40176)"/>
<path d="M7.59408 12.8167C7.52972 12.8811 7.45731 12.9294 7.37686 12.9615C7.29641 12.9776 7.21595 12.9615 7.1355 12.9133C6.95046 12.8569 6.85794 12.7242 6.85794 12.515L6.84587 11.8996C6.84587 11.7869 6.89012 11.6864 6.97862 11.5979L9.57322 9.00325C9.41232 8.60099 9.37209 8.19068 9.45254 7.77233C9.533 7.35397 9.73413 6.98389 10.0559 6.66208C10.2732 6.44485 10.5145 6.28395 10.78 6.17936C11.0536 6.06672 11.3271 6.01041 11.6006 6.01041C11.8742 6.01041 12.1477 6.06672 12.4213 6.17936C12.6867 6.28395 12.9281 6.44485 13.1453 6.66208C13.3626 6.8793 13.5235 7.12066 13.628 7.38615C13.7326 7.65165 13.7849 7.92116 13.7849 8.1947C13.7849 8.46824 13.7286 8.74178 13.616 9.01532C13.5114 9.28082 13.3505 9.52218 13.1333 9.7394C12.7471 10.1256 12.3046 10.3428 11.8058 10.3911C11.307 10.4232 10.8363 10.2985 10.3938 10.017L9.74217 10.6686L10.0559 10.9824C10.2571 11.1835 10.2571 11.3847 10.0559 11.5858C9.96744 11.6743 9.86285 11.7226 9.74217 11.7306C9.62954 11.7306 9.52897 11.6864 9.44047 11.5979L9.12671 11.2841L8.51124 11.8996L8.82501 12.2133C9.02614 12.4145 9.02614 12.6156 8.82501 12.8167C8.61583 13.0259 8.41068 13.0299 8.20955 12.8288L7.89578 12.515L7.59408 12.8167ZM10.6714 7.27754C10.414 7.53499 10.2852 7.84071 10.2852 8.1947C10.2852 8.5487 10.418 8.85844 10.6835 9.12393C10.9409 9.38138 11.2466 9.51011 11.6006 9.51011C11.9546 9.51011 12.2603 9.38138 12.5178 9.12393C12.7833 8.85844 12.916 8.5487 12.916 8.1947C12.916 7.84071 12.7873 7.53499 12.5299 7.27754C12.2644 7.01205 11.9546 6.8793 11.6006 6.8793C11.2466 6.8793 10.9369 7.01205 10.6714 7.27754Z" fill="url(#paint2_linear_3514_40176)"/>
</g>
<defs>
<linearGradient id="paint0_linear_3514_40176" x1="1.44848" y1="2.2709" x2="13.6854" y2="14.7478" gradientUnits="userSpaceOnUse">
<stop stop-color="white"/>
<stop offset="1" stop-color="#EAECEE"/>
</linearGradient>
<linearGradient id="paint1_linear_3514_40176" x1="4.834" y1="4.86107" x2="10.5122" y2="9.63105" gradientUnits="userSpaceOnUse">
<stop stop-color="#0195FF"/>
<stop offset="0.991028" stop-color="#1147E9"/>
</linearGradient>
<linearGradient id="paint2_linear_3514_40176" x1="6.79788" y1="10.8256" x2="11.9688" y2="12.5638" gradientUnits="userSpaceOnUse">
<stop stop-color="#1348FF"/>
<stop offset="1" stop-color="#06238D"/>
</linearGradient>
<clipPath id="clip0_3514_40176">
<rect width="9.99999" height="10" fill="white" transform="translate(3.79761 3)"/>
</clipPath>
</defs>
</svg>
