<svg width="16" height="16" viewBox="0 0 16 16" fill="none" xmlns="http://www.w3.org/2000/svg">
<circle cx="7.99591" cy="7.99982" r="7.85696" fill="url(#paint0_linear_3514_40180)" stroke="#D5DADD" stroke-width="0.285708"/>
<g clip-path="url(#clip0_3514_40180)">
<path d="M6.00834 7.7203C5.761 7.61724 5.54098 7.45823 5.3483 7.24584C5.2533 7.14989 5.19959 7.03428 5.19959 6.90254C5.19959 6.76355 5.25159 6.64157 5.35055 6.54261C5.44694 6.44622 5.56333 6.39166 5.6961 6.39166C5.8351 6.39166 5.95707 6.44366 6.05603 6.54261L6.0598 6.54639C6.15289 6.64794 6.26211 6.72363 6.38865 6.77425C6.51905 6.82641 6.6474 6.85174 6.7744 6.85174C6.91199 6.85174 7.0451 6.82602 7.17453 6.77425C7.3021 6.72322 7.41765 6.64649 7.52153 6.54261L8.61605 5.44809C8.82214 5.25058 8.92333 5.01414 8.92333 4.73156C8.92333 4.44865 8.82177 4.20068 8.61246 3.98264C8.41495 3.77655 8.17841 3.67531 7.89583 3.67531C7.6133 3.67531 7.36563 3.77659 7.1478 3.98533L6.60237 4.53077C6.50341 4.62973 6.38144 4.68173 6.24244 4.68173C6.10344 4.68173 5.98146 4.62973 5.88251 4.53077C5.78355 4.43182 5.73155 4.30984 5.73155 4.17084C5.73155 4.03184 5.78355 3.90987 5.88251 3.81091L6.42885 3.26457C6.63139 3.06202 6.86052 2.90887 7.1159 2.80654C7.37856 2.69557 7.64359 2.63916 7.91021 2.63916C8.17662 2.63916 8.43717 2.69549 8.69097 2.80686C8.94565 2.90906 9.16984 3.062 9.36285 3.26454C9.56539 3.45755 9.71834 3.68174 9.82053 3.93644C9.93191 4.19023 9.98823 4.45078 9.98823 4.71718C9.98823 4.98387 9.93179 5.24469 9.82018 5.49874C9.71764 5.74438 9.56454 5.96807 9.36282 6.16979L8.28452 7.2481C8.0727 7.45992 7.83854 7.61833 7.58197 7.72096C7.32781 7.82262 7.06314 7.87351 6.78878 7.87351C6.5234 7.87351 6.26355 7.82239 6.00996 7.72096L6.00834 7.7203Z" fill="url(#paint1_linear_3514_40180)"/>
<path d="M3.77185 8.87362C3.96935 9.07971 4.20581 9.18087 4.48839 9.18087C4.77113 9.18087 5.01338 9.07951 5.22114 8.87175L5.76748 8.32541C5.86868 8.22422 5.99642 8.17445 6.14179 8.17445C6.2187 8.17445 6.29179 8.19231 6.35673 8.23199C6.41645 8.26849 6.46348 8.31989 6.49955 8.38112C6.59057 8.47776 6.6383 8.59531 6.6383 8.72847C6.6383 8.86747 6.5863 8.98945 6.48734 9.0884L6.48619 9.08956L5.94041 9.62096C5.73759 9.82362 5.50375 9.9764 5.23964 10.0784C4.98608 10.1896 4.72578 10.2458 4.45964 10.2458C4.19295 10.2458 3.93213 10.1893 3.67808 10.0777C3.43244 9.97519 3.20875 9.82209 3.00703 9.62037C2.80418 9.41752 2.65088 9.18802 2.54855 8.93219C2.44711 8.6786 2.396 8.41875 2.396 8.15338C2.396 7.888 2.44711 7.62815 2.54855 7.37456C2.65088 7.11874 2.80418 6.88923 3.00703 6.68639L3.0076 6.68581L4.09971 5.60808C4.30218 5.40568 4.5315 5.25233 4.78675 5.15005C5.04941 5.03908 5.31445 4.98267 5.58107 4.98267C5.84748 4.98267 6.10804 5.039 6.36183 5.15038C6.61701 5.25277 6.84158 5.40611 7.03484 5.60924C7.13304 5.70799 7.18464 5.82956 7.18464 5.96801C7.18464 6.10701 7.13264 6.22899 7.03368 6.32794C6.93473 6.4269 6.81275 6.4789 6.67375 6.4789C6.53475 6.4789 6.41278 6.4269 6.31382 6.32794L6.31021 6.32433C6.11221 6.10912 5.87631 6.00445 5.59545 6.00445C5.31439 6.00445 5.07265 6.10928 4.86445 6.32616L4.86215 6.32855L3.76638 7.40984C3.55117 7.60783 3.44652 7.84376 3.44652 8.12462C3.44652 8.4059 3.55159 8.65332 3.77002 8.87175L3.77185 8.87362Z" fill="url(#paint2_linear_3514_40180)"/>
<path fill-rule="evenodd" clip-rule="evenodd" d="M9.57119 8.47837C9.57119 8.17062 9.82067 7.92114 10.1284 7.92114C10.4362 7.92114 10.6856 8.17062 10.6856 8.47837V9.20378H9.57119V8.47837ZM11.6856 9.21766V8.47837C11.6856 7.61834 10.9884 6.92114 10.1284 6.92114C9.26838 6.92114 8.57119 7.61834 8.57119 8.47837V9.21766C8.40155 9.2478 8.25538 9.32701 8.13267 9.45529C7.97228 9.61568 7.89209 9.81252 7.89209 10.0458V11.719C7.89209 11.9595 7.97228 12.16 8.13267 12.3204C8.29306 12.4808 8.49355 12.561 8.73413 12.561H11.5227C11.7633 12.561 11.9638 12.4808 12.1242 12.3204C12.2845 12.16 12.3647 11.9595 12.3647 11.719V10.0458C12.3647 9.81252 12.2845 9.61568 12.1242 9.45529C12.0015 9.32701 11.8553 9.2478 11.6856 9.21766ZM10.1229 10.3301C10.2833 10.3301 10.4146 10.3848 10.5166 10.4942C10.626 10.5962 10.6807 10.7275 10.6807 10.8879C10.6807 11.041 10.626 11.1722 10.5166 11.2815C10.4146 11.3909 10.2833 11.4456 10.1229 11.4456C9.96985 11.4456 9.83862 11.3909 9.72927 11.2815C9.61991 11.1722 9.56523 11.041 9.56523 10.8879C9.56523 10.7275 9.61991 10.5962 9.72927 10.4942C9.83862 10.3848 9.96985 10.3301 10.1229 10.3301Z" fill="url(#paint3_linear_3514_40180)"/>
</g>
<defs>
<linearGradient id="paint0_linear_3514_40180" x1="1.44702" y1="2.2709" x2="13.6839" y2="14.7478" gradientUnits="userSpaceOnUse">
<stop stop-color="white"/>
<stop offset="1" stop-color="#EAECEE"/>
</linearGradient>
<linearGradient id="paint1_linear_3514_40180" x1="3.51846" y1="3.75826" x2="8.84194" y2="9.09457" gradientUnits="userSpaceOnUse">
<stop stop-color="#1348FF"/>
<stop offset="1" stop-color="#06238D"/>
</linearGradient>
<linearGradient id="paint2_linear_3514_40180" x1="3.51846" y1="3.75826" x2="8.84194" y2="9.09457" gradientUnits="userSpaceOnUse">
<stop stop-color="#1348FF"/>
<stop offset="1" stop-color="#06238D"/>
</linearGradient>
<linearGradient id="paint3_linear_3514_40180" x1="8.56256" y1="7.76455" x2="12.408" y2="10.8152" gradientUnits="userSpaceOnUse">
<stop stop-color="#0195FF"/>
<stop offset="0.991028" stop-color="#1147E9"/>
</linearGradient>
<clipPath id="clip0_3514_40180">
<rect width="9.99999" height="10" fill="white" transform="translate(2.396 2.6001)"/>
</clipPath>
</defs>
</svg>
