<svg width="16" height="16" viewBox="0 0 16 16" fill="none" xmlns="http://www.w3.org/2000/svg">
<circle cx="7.99542" cy="7.99982" r="7.85696" fill="url(#paint0_linear_3514_40181)" stroke="#D5DADD" stroke-width="0.285708"/>
<g clip-path="url(#clip0_3514_40181)">
<path d="M7.55171 6.98493C7.39565 6.98493 7.31763 7.0532 7.31763 7.18974C7.31763 7.32629 7.39565 7.39456 7.55171 7.39456H8.01986C8.35797 7.39456 8.63756 7.49697 8.85863 7.70179C9.09271 7.89523 9.20975 8.13987 9.20975 8.43572C9.20975 8.7088 9.12522 8.94207 8.95617 9.13551C8.78711 9.31757 8.55954 9.43135 8.27344 9.47687V9.8865C8.27344 10.171 8.11089 10.3132 7.78578 10.3132C7.64274 10.3132 7.5257 10.2734 7.43467 10.1937C7.35664 10.1141 7.31763 10.0117 7.31763 9.8865V9.47687H6.84948C6.70643 9.47687 6.58939 9.44273 6.49836 9.37446C6.40733 9.29481 6.36182 9.1924 6.36182 9.06723C6.36182 8.78277 6.52437 8.64053 6.84948 8.64053H8.01986C8.18891 8.64053 8.27344 8.57226 8.27344 8.43572C8.27344 8.29917 8.18891 8.2309 8.01986 8.2309H7.55171C7.21359 8.2309 6.9275 8.13418 6.69342 7.94074C6.47235 7.73592 6.36182 7.48559 6.36182 7.18974C6.36182 6.92803 6.44634 6.70046 6.6154 6.50702C6.79746 6.31358 7.03154 6.19411 7.31763 6.14859V5.73896C7.31763 5.61379 7.35664 5.51707 7.43467 5.4488C7.5257 5.36915 7.64274 5.32932 7.78578 5.32932C7.92883 5.32932 8.04587 5.36915 8.1369 5.4488C8.22793 5.51707 8.27344 5.61379 8.27344 5.73896V6.14859H8.74159C9.0537 6.14859 9.20975 6.29082 9.20975 6.57529C9.20975 6.70046 9.16423 6.80287 9.0732 6.88252C8.99518 6.95079 8.88464 6.98493 8.74159 6.98493H7.55171Z" fill="url(#paint1_linear_3514_40181)"/>
<path d="M10.8812 7.16482C10.9984 7.25597 11.1156 7.30154 11.2327 7.30154C11.3499 7.30154 11.4671 7.25597 11.5843 7.16482L12.639 6.0906C12.7432 5.98643 12.7952 5.86925 12.7952 5.73904C12.7952 5.59581 12.7432 5.47211 12.639 5.36794C12.5478 5.2768 12.4307 5.23123 12.2874 5.23123C12.1572 5.23123 12.04 5.28331 11.9359 5.38748L11.7406 5.60232L11.7406 4.90723C11.7406 4.41244 11.5713 3.99577 11.2327 3.65723C10.8812 3.31869 10.4645 3.14942 9.98275 3.14942L8.77725 3.14941C8.63403 3.14941 8.51684 3.19499 8.42569 3.28613C8.33455 3.3903 8.28897 3.514 8.28897 3.65723C8.28897 3.80046 8.33455 3.91764 8.42569 4.00879C8.51684 4.09993 8.63403 4.14551 8.77725 4.14551L9.98275 4.14551C10.1911 4.14551 10.3669 4.21713 10.5101 4.36036C10.6533 4.50359 10.7249 4.68588 10.7249 4.90723L10.7249 5.60232L10.5296 5.38748C10.4255 5.28331 10.3083 5.23123 10.1781 5.23123C10.0348 5.23123 9.91113 5.28331 9.80696 5.38748C9.71582 5.50466 9.67025 5.61534 9.67025 5.71951C9.67025 5.87576 9.72233 5.99946 9.8265 6.0906L10.8812 7.16482Z" fill="url(#paint2_linear_3514_40181)"/>
<path d="M11.2329 8.30685C11.3761 8.30685 11.4933 8.35893 11.5844 8.46309C11.6886 8.55424 11.7407 8.67143 11.7407 8.81466L11.7407 11.3058C11.7407 11.6183 11.63 11.8852 11.4087 12.1066C11.1873 12.3279 10.9204 12.4386 10.6079 12.4386L8.80586 12.4386C8.66263 12.4386 8.53893 12.393 8.43477 12.3019C8.34362 12.1977 8.29805 12.074 8.29805 11.9308C8.29805 11.7876 8.34362 11.6704 8.43477 11.5792C8.53893 11.4881 8.66263 11.4425 8.80586 11.4425L10.6079 11.4425C10.699 11.4425 10.7446 11.397 10.7446 11.3058L10.7446 8.81466C10.7446 8.67143 10.7902 8.55424 10.8813 8.46309C10.9725 8.35893 11.0897 8.30685 11.2329 8.30685Z" fill="url(#paint3_linear_3514_40181)"/>
<path d="M4.38867 8.29836C4.50586 8.29836 4.62305 8.34393 4.74023 8.43508L5.79492 9.50929C5.89909 9.60044 5.95117 9.72414 5.95117 9.88039C5.95117 9.98455 5.9056 10.0952 5.81445 10.2124C5.71028 10.3166 5.58659 10.3687 5.44336 10.3687C5.31315 10.3687 5.19596 10.3166 5.0918 10.2124L4.89648 9.99758L4.89648 10.6927C4.89648 10.914 4.96809 11.0963 5.11132 11.2395C5.25455 11.3828 5.43033 11.4544 5.63867 11.4544L6.80727 11.4544C6.9505 11.4544 7.06769 11.5 7.15883 11.5911C7.24998 11.6823 7.29555 11.7994 7.29555 11.9427C7.29555 12.0859 7.24998 12.2096 7.15883 12.3138C7.06769 12.4049 6.9505 12.4505 6.80727 12.4505L5.63867 12.4505C5.1569 12.4505 4.74023 12.2812 4.38867 11.9427C4.05013 11.6041 3.88086 11.1875 3.88086 10.6927L3.88086 9.99758L3.68555 10.2124C3.58138 10.3166 3.46419 10.3687 3.33398 10.3687C3.19075 10.3687 3.07357 10.3231 2.98242 10.2319C2.87826 10.1278 2.82617 10.0041 2.82617 9.86086C2.82617 9.73065 2.87826 9.61346 2.98242 9.50929L4.03711 8.43508C4.1543 8.34393 4.27148 8.29836 4.38867 8.29836Z" fill="url(#paint4_linear_3514_40181)"/>
<path d="M6.54743 4.1501C6.48383 4.1501 6.43197 4.18089 6.39305 4.21694C6.32497 4.28 6.30896 4.37732 6.30896 4.47012V4.96133C6.30896 5.17353 6.23318 5.35541 6.08161 5.50697C5.93004 5.65854 5.74311 5.73432 5.52082 5.73432H5.14375C5.06961 5.73432 4.99879 5.76506 4.94815 5.81921C4.90177 5.86882 4.87596 5.9342 4.87596 6.00211V6.78935C4.87596 7.06509 4.65244 7.28861 4.3767 7.28861C4.10097 7.28861 3.87744 7.06509 3.87744 6.78935V5.52996C3.87744 5.41881 3.91281 5.32787 3.98354 5.25714L5.80879 3.27067C5.88963 3.18983 5.98057 3.14941 6.08161 3.14941H6.78525C7.06158 3.14941 7.28559 3.37343 7.28559 3.64976C7.28559 3.92609 7.06156 4.1501 6.78523 4.1501H6.54743Z" fill="url(#paint5_linear_3514_40181)"/>
</g>
<defs>
<linearGradient id="paint0_linear_3514_40181" x1="1.44653" y1="2.2709" x2="13.6835" y2="14.7478" gradientUnits="userSpaceOnUse">
<stop stop-color="white"/>
<stop offset="1" stop-color="#EAECEE"/>
</linearGradient>
<linearGradient id="paint1_linear_3514_40181" x1="6.78286" y1="6.06258" x2="9.79444" y2="7.7909" gradientUnits="userSpaceOnUse">
<stop stop-color="#1348FF"/>
<stop offset="1" stop-color="#06238D"/>
</linearGradient>
<linearGradient id="paint2_linear_3514_40181" x1="4.32058" y1="4.54033" x2="10.8174" y2="11.5061" gradientUnits="userSpaceOnUse">
<stop stop-color="#0195FF"/>
<stop offset="0.991028" stop-color="#1147E9"/>
</linearGradient>
<linearGradient id="paint3_linear_3514_40181" x1="4.32058" y1="4.54033" x2="10.8174" y2="11.5061" gradientUnits="userSpaceOnUse">
<stop stop-color="#0195FF"/>
<stop offset="0.991028" stop-color="#1147E9"/>
</linearGradient>
<linearGradient id="paint4_linear_3514_40181" x1="4.32058" y1="4.54033" x2="10.8174" y2="11.5061" gradientUnits="userSpaceOnUse">
<stop stop-color="#0195FF"/>
<stop offset="0.991028" stop-color="#1147E9"/>
</linearGradient>
<linearGradient id="paint5_linear_3514_40181" x1="4.32058" y1="4.54033" x2="10.8174" y2="11.5061" gradientUnits="userSpaceOnUse">
<stop stop-color="#0195FF"/>
<stop offset="0.991028" stop-color="#1147E9"/>
</linearGradient>
<clipPath id="clip0_3514_40181">
<rect width="9.99999" height="10" fill="white" transform="translate(2.79541 2.80005)"/>
</clipPath>
</defs>
</svg>
