<svg width="16" height="16" viewBox="0 0 16 16" fill="none" xmlns="http://www.w3.org/2000/svg">
<circle cx="7.99445" cy="7.99982" r="7.85696" fill="url(#paint0_linear_3514_40184)" stroke="#D5DADD" stroke-width="0.285708"/>
<path d="M6.86109 10.0978H6.40881L6.19092 9.44226H5.14539L4.92749 10.0978H4.46973L5.40356 7.51782H5.94006L6.86109 10.0978ZM5.26624 9.08154H6.0719L5.79724 8.25574C5.73254 8.06531 5.68982 7.93286 5.66907 7.8584C5.66174 7.88892 5.61902 8.02258 5.54089 8.2594L5.26624 9.08154Z" fill="url(#paint1_linear_3514_40184)"/>
<path d="M7.21079 10.0978V7.51782H8.22336C8.51511 7.51782 8.73789 7.57092 8.8917 7.67712C9.04551 7.78333 9.12241 7.94385 9.12241 8.15869C9.12241 8.30884 9.08274 8.43579 9.00339 8.53955C8.92527 8.64331 8.81113 8.71289 8.66099 8.74829C8.83677 8.77148 8.97165 8.8374 9.06565 8.94604C9.16086 9.05469 9.20847 9.19507 9.20847 9.36719C9.20847 9.5332 9.16636 9.67114 9.08213 9.78101C8.99912 9.88965 8.88682 9.9696 8.74521 10.0209C8.60361 10.0721 8.44431 10.0978 8.26731 10.0978H7.21079ZM8.18125 8.57617C8.34971 8.57617 8.473 8.54626 8.55112 8.48645C8.62925 8.42542 8.66831 8.3363 8.66831 8.21912C8.66831 8.10437 8.62986 8.02136 8.55295 7.97009C8.47727 7.91882 8.36191 7.89319 8.20688 7.89319H7.66306V8.57617H8.18125ZM8.23069 9.72241C8.39548 9.72241 8.52366 9.69312 8.61521 9.63452C8.70798 9.57471 8.75437 9.47278 8.75437 9.32874C8.75437 9.1969 8.70737 9.10107 8.61338 9.04126C8.5206 8.98022 8.39426 8.94971 8.23435 8.94971H7.66306V9.72241H8.23069Z" fill="url(#paint2_linear_3514_40184)"/>
<path d="M11.7861 10.0978H11.3338L11.1159 9.44226H10.0704L9.85248 10.0978H9.39472L10.3286 7.51782H10.8651L11.7861 10.0978ZM10.1912 9.08154H10.9969L10.7222 8.25574C10.6575 8.06531 10.6148 7.93286 10.5941 7.8584C10.5867 7.88892 10.544 8.02258 10.4659 8.2594L10.1912 9.08154Z" fill="url(#paint3_linear_3514_40184)"/>
<path d="M12.132 10.0978V7.51782H13.1977C13.4003 7.51782 13.5706 7.55139 13.7085 7.61853C13.8465 7.68567 13.9496 7.78027 14.018 7.90234C14.0863 8.02441 14.1205 8.16724 14.1205 8.33081C14.1205 8.48706 14.087 8.62866 14.0198 8.75562C13.9527 8.88257 13.8514 8.98389 13.7159 9.05957C13.5804 9.13403 13.415 9.17126 13.2196 9.17126H12.5861V10.0978H12.132ZM13.1592 8.78491C13.3277 8.78491 13.4534 8.74585 13.5364 8.66772C13.6206 8.58838 13.6628 8.47729 13.6628 8.33447C13.6628 8.19531 13.6194 8.09033 13.5328 8.01953C13.4461 7.94751 13.3167 7.9115 13.1446 7.9115H12.5861V8.78491H13.1592Z" fill="url(#paint4_linear_3514_40184)"/>
<path d="M3.97629 7.27618C3.39262 7.2911 2.93077 7.77718 2.94569 8.36086C2.96082 8.95234 3.4843 9.42209 4.06471 9.38992L4.29694 9.37704L4.01756 10.0977L3.90906 10.092C3.00067 10.0441 2.2669 9.30349 2.24326 8.37882C2.21888 7.42516 2.95896 6.62829 3.90511 6.5759C3.98163 6.27542 4.12626 5.99492 4.33105 5.75713C4.92979 5.0619 5.90009 4.87639 6.71071 5.2276C7.21683 4.64947 7.87518 4.33796 8.66792 4.40823C9.79834 4.50842 10.8287 5.34282 10.9385 6.6607C10.9564 6.87536 10.7902 7.04529 10.5917 7.0632C10.3578 7.0843 10.1765 6.90106 10.1488 6.69362C10.0365 5.85275 9.34997 5.25597 8.59868 5.18938C8.03784 5.13967 7.59989 5.36854 7.236 5.82258L7.05794 6.0268C6.94761 6.15491 6.76511 6.15963 6.64196 6.07331C6.09808 5.69207 5.35512 5.77183 4.9263 6.26976C4.75403 6.46979 4.65019 6.71898 4.6277 6.98249C4.6148 7.13368 4.49203 7.27289 4.32018 7.27294C4.20543 7.27689 4.09097 7.27325 3.97629 7.27618Z" fill="url(#paint5_linear_3514_40184)"/>
<defs>
<linearGradient id="paint0_linear_3514_40184" x1="1.44555" y1="2.2709" x2="13.6825" y2="14.7478" gradientUnits="userSpaceOnUse">
<stop stop-color="white"/>
<stop offset="1" stop-color="#EAECEE"/>
</linearGradient>
<linearGradient id="paint1_linear_3514_40184" x1="5.89653" y1="7.89739" x2="6.79417" y2="11.2696" gradientUnits="userSpaceOnUse">
<stop stop-color="#1348FF"/>
<stop offset="1" stop-color="#06238D"/>
</linearGradient>
<linearGradient id="paint2_linear_3514_40184" x1="5.89653" y1="7.89739" x2="6.79417" y2="11.2696" gradientUnits="userSpaceOnUse">
<stop stop-color="#1348FF"/>
<stop offset="1" stop-color="#06238D"/>
</linearGradient>
<linearGradient id="paint3_linear_3514_40184" x1="5.89653" y1="7.89739" x2="6.79417" y2="11.2696" gradientUnits="userSpaceOnUse">
<stop stop-color="#1348FF"/>
<stop offset="1" stop-color="#06238D"/>
</linearGradient>
<linearGradient id="paint4_linear_3514_40184" x1="5.89653" y1="7.89739" x2="6.79417" y2="11.2696" gradientUnits="userSpaceOnUse">
<stop stop-color="#1348FF"/>
<stop offset="1" stop-color="#06238D"/>
</linearGradient>
<linearGradient id="paint5_linear_3514_40184" x1="3.54641" y1="5.25073" x2="7.20483" y2="10.8354" gradientUnits="userSpaceOnUse">
<stop stop-color="#0195FF"/>
<stop offset="0.991028" stop-color="#1147E9"/>
</linearGradient>
</defs>
</svg>
