<svg width="16" height="16" viewBox="0 0 16 16" fill="none" xmlns="http://www.w3.org/2000/svg">
<circle cx="7.99445" cy="7.99982" r="7.85696" fill="url(#paint0_linear_3890_21431)" stroke="#D5DADD" stroke-width="0.285708"/>
<g clip-path="url(#clip0_3890_21431)">
<path d="M10.8377 5.43181C11.0373 5.27389 11.3355 5.18256 11.7562 5.25268C11.783 5.25714 11.8089 5.26556 11.8331 5.27769C11.9754 5.34883 12.2417 5.51591 12.4589 5.65552C12.5705 5.72727 12.6741 5.79497 12.7496 5.84468L12.8398 5.90419C12.9279 5.96277 12.9945 6.0407 12.9945 6.15312C12.9944 6.18785 12.9921 6.22184 12.9829 6.27654C12.9721 6.34175 12.9498 6.43284 12.9026 6.52723C12.8549 6.62269 12.7791 6.72641 12.6602 6.80567C12.5396 6.88606 12.391 6.93033 12.2171 6.93033C12.2026 6.93033 12.1882 6.92918 12.174 6.92691C12.2086 7.1543 12.2526 7.44896 12.2967 7.75735C12.39 8.41021 12.489 9.16155 12.489 9.43879C12.489 9.86908 12.3483 10.3507 12.1803 10.7204C12.0957 10.9065 11.9986 11.0767 11.8986 11.2053C11.8489 11.2691 11.7923 11.3309 11.7293 11.3791C11.6712 11.4236 11.5773 11.4801 11.4588 11.4801C11.3418 11.4801 11.2489 11.4248 11.1937 11.3846C11.1328 11.3404 11.0772 11.2844 11.029 11.2292C10.9318 11.1182 10.836 10.9776 10.7542 10.8467C10.6668 10.7068 10.5894 10.5683 10.5359 10.469H8.33741C8.28392 10.5683 8.20653 10.7068 8.11908 10.8467C8.03731 10.9776 7.94144 11.1182 7.84431 11.2292C7.79607 11.2844 7.7405 11.3404 7.67964 11.3846C7.62441 11.4248 7.53149 11.4801 7.41453 11.4801C7.31737 11.4801 7.23372 11.4449 7.17215 11.4089C7.10835 11.3716 7.04963 11.3226 6.99711 11.2701C6.89195 11.1649 6.79072 11.0244 6.70286 10.8663C6.52774 10.5511 6.38428 10.1267 6.38428 9.69155C6.38428 9.24634 6.53446 8.93449 6.69664 8.73177C6.77634 8.63213 6.85691 8.56128 6.9196 8.51427C7.05321 8.41406 7.18875 8.3237 7.34797 8.26785C7.48777 8.21882 7.64747 8.18399 7.8143 8.15881C8.14793 8.10845 8.5387 8.09257 8.91532 8.09257C9.29364 8.09257 9.66646 8.10866 9.96644 8.12455C10.0737 8.13024 10.1694 8.13573 10.2521 8.14048L10.3291 8.14488L10.5251 6.1847C10.5351 6.08411 10.5485 5.95049 10.586 5.82352C10.6251 5.69105 10.6964 5.5437 10.8377 5.43181Z" fill="url(#paint1_linear_3890_21431)"/>
<path d="M11.2309 5.2531C11.3794 5.2225 11.5537 5.21879 11.7565 5.25259C11.7833 5.25704 11.8092 5.26547 11.8334 5.2776C11.8678 5.29477 11.9094 5.31754 11.9557 5.34417C11.9788 5.27147 11.9913 5.19404 11.9913 5.1137C11.9913 4.69373 11.6508 4.35327 11.2309 4.35327V5.2531Z" fill="url(#paint2_linear_3890_21431)"/>
<path d="M11.119 11.3224C11.1429 11.3446 11.1679 11.3656 11.1939 11.3845C11.2491 11.4247 11.3421 11.48 11.459 11.48C11.5776 11.48 11.6715 11.4235 11.7296 11.379C11.7406 11.3706 11.7513 11.3618 11.7619 11.3526V11.8539C11.7619 11.8952 11.7783 11.9348 11.8075 11.964L12.2276 12.3841C12.293 12.4495 12.2467 12.5613 12.1542 12.5613H11.2747C11.1887 12.5613 11.119 12.4916 11.119 12.4056V11.3224Z" fill="url(#paint3_linear_3890_21431)"/>
<path d="M7.12672 11.3796C7.14164 11.3899 7.15688 11.3997 7.17241 11.4088C7.23398 11.4448 7.31763 11.48 7.41479 11.48C7.53175 11.48 7.62467 11.4247 7.6799 11.3845C7.71132 11.3617 7.74133 11.3357 7.76965 11.3083V11.8539C7.76965 11.8952 7.78606 11.9348 7.81526 11.964L8.23536 12.3841C8.30076 12.4495 8.25444 12.5613 8.16196 12.5613H7.28244C7.19644 12.5613 7.12672 12.4916 7.12672 12.4056V11.3796Z" fill="url(#paint4_linear_3890_21431)"/>
<path d="M6.98539 8.46882C6.96693 8.48051 6.94472 8.49553 6.91986 8.51417C6.85717 8.56119 6.7766 8.63204 6.6969 8.73168C6.64718 8.79382 6.59859 8.86622 6.55511 8.94957L5.88349 9.51313C5.61354 9.19141 5.6555 8.71177 5.97722 8.44182C6.27516 8.19182 6.70855 8.20933 6.98539 8.46882Z" fill="url(#paint5_linear_3890_21431)"/>
<path d="M10.2169 5.1137C10.2169 5.53367 10.5574 5.87412 10.9774 5.87412V4.35327C10.5574 4.35327 10.2169 4.69373 10.2169 5.1137Z" fill="url(#paint6_linear_3890_21431)"/>
<path d="M6.51054 4.68591C5.80982 4.68591 5.27018 5.36982 5.31963 6.02364C5.33049 6.16724 5.27416 6.30764 5.16724 6.40418C5.06037 6.50068 4.91489 6.54261 4.77297 6.51805C4.48089 6.4675 4.28361 6.54612 4.15802 6.66116C4.0252 6.78281 3.93046 6.98472 3.93046 7.24526C3.93046 7.5073 4.00833 7.6846 4.11591 7.79447C4.22105 7.90184 4.40499 7.99638 4.72254 7.99638H4.92844C5.18629 7.99638 5.39635 8.20455 5.39635 8.46263C5.39635 8.7207 5.18629 8.92888 4.92844 8.92888H4.72254C4.2096 8.92888 3.76343 8.76975 3.44611 8.4457C3.13123 8.12415 2.99463 7.69266 2.99463 7.24526C2.99463 6.7612 3.17308 6.29672 3.52469 5.97465C3.76586 5.75375 4.07092 5.61641 4.41374 5.57991C4.58165 4.64028 5.38359 3.75342 6.51054 3.75342C7.3975 3.75342 8.06946 4.23439 8.44496 4.94954C9.10287 4.98348 9.71012 5.3845 9.91958 6.13141C9.98929 6.38 9.84313 6.63698 9.59455 6.70602C9.3462 6.77499 9.08792 6.63072 9.01827 6.38237C8.96401 6.18888 8.85674 6.05423 8.72157 5.97351C8.58535 5.89218 8.41201 5.86049 8.21897 5.89005C8.00007 5.92357 7.78705 5.79951 7.70945 5.59205C7.49038 5.00642 7.06819 4.68591 6.51054 4.68591Z" fill="url(#paint7_linear_3890_21431)"/>
</g>
<defs>
<linearGradient id="paint0_linear_3890_21431" x1="1.44555" y1="2.2709" x2="13.6825" y2="14.7478" gradientUnits="userSpaceOnUse">
<stop stop-color="white"/>
<stop offset="1" stop-color="#EAECEE"/>
</linearGradient>
<linearGradient id="paint1_linear_3890_21431" x1="7.37518" y1="6.16361" x2="11.7454" y2="10.7864" gradientUnits="userSpaceOnUse">
<stop stop-color="#0195FF"/>
<stop offset="0.991028" stop-color="#1147E9"/>
</linearGradient>
<linearGradient id="paint2_linear_3890_21431" x1="6.67434" y1="5.56085" x2="12.2813" y2="10.0563" gradientUnits="userSpaceOnUse">
<stop stop-color="#1348FF"/>
<stop offset="1" stop-color="#06238D"/>
</linearGradient>
<linearGradient id="paint3_linear_3890_21431" x1="6.67434" y1="5.56085" x2="12.2813" y2="10.0563" gradientUnits="userSpaceOnUse">
<stop stop-color="#1348FF"/>
<stop offset="1" stop-color="#06238D"/>
</linearGradient>
<linearGradient id="paint4_linear_3890_21431" x1="6.67434" y1="5.56085" x2="12.2813" y2="10.0563" gradientUnits="userSpaceOnUse">
<stop stop-color="#1348FF"/>
<stop offset="1" stop-color="#06238D"/>
</linearGradient>
<linearGradient id="paint5_linear_3890_21431" x1="6.67434" y1="5.56085" x2="12.2813" y2="10.0563" gradientUnits="userSpaceOnUse">
<stop stop-color="#1348FF"/>
<stop offset="1" stop-color="#06238D"/>
</linearGradient>
<linearGradient id="paint6_linear_3890_21431" x1="6.67434" y1="5.56085" x2="12.2813" y2="10.0563" gradientUnits="userSpaceOnUse">
<stop stop-color="#1348FF"/>
<stop offset="1" stop-color="#06238D"/>
</linearGradient>
<linearGradient id="paint7_linear_3890_21431" x1="4.03361" y1="4.5299" x2="7.50725" y2="9.18619" gradientUnits="userSpaceOnUse">
<stop stop-color="#00BBFF"/>
<stop offset="1" stop-color="#008BFF"/>
</linearGradient>
<clipPath id="clip0_3890_21431">
<rect width="9.99992" height="9.99992" fill="white" transform="translate(2.99463 2.99976)"/>
</clipPath>
</defs>
</svg>
