<svg width="16" height="16" viewBox="0 0 16 16" fill="none" xmlns="http://www.w3.org/2000/svg">
<circle cx="7.99933" cy="7.99957" r="7.85696" fill="url(#paint0_linear_3514_40186)" stroke="#D5DADD" stroke-width="0.285708"/>
<mask id="mask0_3514_40186" style="mask-type:luminance" maskUnits="userSpaceOnUse" x="3" y="2" width="10" height="11">
<path d="M7.98887 2.7998C7.98887 2.7998 7.98767 3.216 9.07567 3.877C11.1881 5.1598 11.1809 6.3368 11.1809 6.5838C11.1809 7.6326 10.0893 8.3106 9.58287 7.7618C9.58287 7.7618 10.0799 7.393 10.0799 6.8258C10.0799 6.8258 9.71547 7.0658 9.52487 7.1074C9.52487 7.1074 9.77327 6.6684 9.65747 5.8982C9.65747 5.8982 9.45867 6.2874 8.82087 6.6022C8.82087 6.6022 9.06927 6.0472 8.83747 5.5172C8.83747 5.5172 8.88707 6.1798 7.37947 6.8838C5.87188 7.5878 6.33588 8.292 6.33588 8.292C6.33588 8.292 6.63587 7.972 7.14667 8.197C7.83687 8.5002 7.55787 9.717 6.44787 9.717C5.36788 9.717 4.65808 8.5418 4.65808 7.624C4.65808 7.244 4.69928 6.5466 5.38468 5.7788C5.92988 5.1682 6.60227 4.846 6.74647 4.1708C5.99988 4.863 4.65208 5.315 3.85108 6.4998C3.13108 7.564 3.36508 8.9718 3.49448 9.4048C4.08208 11.3686 5.90268 12.7998 8.05747 12.7998C10.6877 12.7998 12.8471 10.6952 12.8471 8.065C12.8471 4.0834 9.06187 3.661 7.98887 2.7998ZM7.35167 7.674C7.27167 7.6926 7.19467 7.659 7.06667 7.6202C6.94667 7.5838 6.90447 7.5906 6.90447 7.5906C6.98535 7.53619 7.07004 7.48767 7.15787 7.4454C7.28507 7.3868 7.39387 7.3838 7.44427 7.5002C7.47747 7.5768 7.41727 7.6586 7.35167 7.674Z" fill="white"/>
</mask>
<g mask="url(#mask0_3514_40186)">
<path d="M7.98887 2.7998C7.98887 2.7998 7.98767 3.216 9.07567 3.877C11.1881 5.1598 11.1809 6.3368 11.1809 6.5838C11.1809 7.6326 10.0893 8.3106 9.58287 7.7618C9.58287 7.7618 10.0799 7.393 10.0799 6.8258C10.0799 6.8258 9.71547 7.0658 9.52487 7.1074C9.52487 7.1074 9.77327 6.6684 9.65747 5.8982C9.65747 5.8982 9.45867 6.2874 8.82087 6.6022C8.82087 6.6022 9.06927 6.0472 8.83747 5.5172C8.83747 5.5172 8.88707 6.1798 7.37947 6.8838C5.87188 7.5878 6.33588 8.292 6.33588 8.292C6.33588 8.292 6.63587 7.972 7.14667 8.197C7.83687 8.5002 7.55787 9.717 6.44787 9.717C5.36788 9.717 4.65808 8.5418 4.65808 7.624C4.65808 7.244 4.69928 6.5466 5.38468 5.7788C5.92988 5.1682 6.60227 4.846 6.74647 4.1708C5.99988 4.863 4.65208 5.315 3.85108 6.4998C3.13108 7.564 3.36508 8.9718 3.49448 9.4048C4.08208 11.3686 5.90268 12.7998 8.05747 12.7998C10.6877 12.7998 12.8471 10.6952 12.8471 8.065C12.8471 4.0834 9.06187 3.661 7.98887 2.7998Z" fill="url(#paint1_linear_3514_40186)"/>
<path opacity="0.6" d="M7.71533 7.77349C8.55393 7.34129 8.82273 6.60069 8.82273 6.60069C8.82273 6.60069 9.07113 6.04549 8.83913 5.51489C8.83913 5.51489 8.88873 6.17809 7.37913 6.88269C5.86953 7.58729 6.33473 8.29189 6.33473 8.29189C6.41373 8.22149 6.48893 8.17389 6.63793 8.13389C6.88713 8.06709 7.27773 7.99969 7.71533 7.77349Z" fill="url(#paint2_linear_3514_40186)"/>
<path opacity="0.4" d="M7.75841 8.07984C8.40641 8.07984 9.15621 7.77864 9.52721 7.10584C9.58521 7.00084 9.63681 6.83024 9.66261 6.66964C9.70261 6.41364 9.70761 6.22324 9.66041 5.87744C9.66041 5.87744 9.53761 6.22164 8.82261 6.60004C8.56261 6.73744 8.23041 6.87484 7.79041 7.00844C6.08561 7.52584 6.33561 8.29124 6.33561 8.29124C6.60421 8.11424 6.60581 8.07984 7.75841 8.07984Z" fill="url(#paint3_linear_3514_40186)"/>
<path opacity="0.2" d="M7.75874 8.07987C8.35454 8.07987 9.16454 8.11347 9.58534 7.75987C9.84334 7.54367 10.0789 7.25787 10.0833 6.82227C10.0833 6.82227 9.73034 7.05527 9.52754 7.10527C9.24754 7.17447 8.74174 7.28087 8.27974 7.25467C6.71154 7.16567 6.33594 8.29047 6.33594 8.29047C6.55214 8.09207 6.81534 8.07987 7.75874 8.07987Z" fill="url(#paint4_linear_3514_40186)"/>
<path opacity="0.4" d="M7.71521 7.77363C8.55381 7.34143 8.82261 6.60083 8.82261 6.60083C8.56261 6.73823 8.23041 6.87563 7.79041 7.00923C6.08561 7.52663 6.33561 8.29203 6.33561 8.29203C6.41461 8.22163 6.48981 8.17403 6.63881 8.13403C6.88701 8.06723 7.27761 7.99983 7.71521 7.77363Z" fill="url(#paint5_linear_3514_40186)"/>
<path d="M6.63969 8.13408C6.88789 8.06728 7.27849 7.99928 7.71609 7.77408C7.96955 7.64337 8.19819 7.46935 8.39169 7.25988C8.35409 7.25988 8.31669 7.25848 8.27949 7.25648C6.71129 7.16748 6.33569 8.29228 6.33569 8.29228C6.40381 8.22771 6.48596 8.17979 6.57569 8.15228C6.59589 8.14648 6.61629 8.13988 6.63969 8.13408Z" fill="url(#paint6_linear_3514_40186)"/>
<path opacity="0.4" d="M12.8471 8.06493C12.8471 7.27093 12.6963 6.61873 12.4471 6.07593C12.4709 6.14773 12.9531 7.65593 11.7459 8.86253C11.0567 9.55173 9.88412 9.79033 8.94132 9.03673C8.94132 9.03673 9.06132 10.9283 6.82012 11.2073C5.35672 11.3895 4.20512 10.4571 3.70552 9.26953C3.35792 8.44353 3.32552 7.49413 3.72352 6.70953C3.16132 7.74213 3.37352 8.99973 3.49452 9.40473C4.08212 11.3685 5.90272 12.7997 8.05752 12.7997C10.6877 12.7997 12.8471 10.6951 12.8471 8.06493Z" fill="url(#paint7_linear_3514_40186)"/>
<path opacity="0.6" d="M12.3636 10.1419C12.1152 10.2091 10.1684 10.6723 8.94101 9.03687C8.94101 9.03687 9.51261 11.2539 7.08301 12.6999C7.40358 12.7666 7.73017 12.8001 8.05761 12.7999C9.94101 12.7999 11.583 11.7199 12.3636 10.1419Z" fill="url(#paint8_linear_3514_40186)"/>
<path opacity="0.7" d="M11.3065 11.5435C9.78432 10.7599 8.94092 9.03687 8.94092 9.03687C9.61932 10.6915 9.32532 11.9827 9.02092 12.7037C9.87379 12.531 10.6638 12.13 11.3065 11.5435Z" fill="url(#paint9_linear_3514_40186)"/>
</g>
<defs>
<linearGradient id="paint0_linear_3514_40186" x1="1.45043" y1="2.27065" x2="13.6874" y2="14.7475" gradientUnits="userSpaceOnUse">
<stop stop-color="white"/>
<stop offset="1" stop-color="#EAECEE"/>
</linearGradient>
<linearGradient id="paint1_linear_3514_40186" x1="4.77581" y1="4.29524" x2="11.7685" y2="10.9368" gradientUnits="userSpaceOnUse">
<stop stop-color="#0195FF"/>
<stop offset="0.991028" stop-color="#1147E9"/>
</linearGradient>
<linearGradient id="paint2_linear_3514_40186" x1="6.66684" y1="5.93153" x2="8.60976" y2="7.79903" gradientUnits="userSpaceOnUse">
<stop stop-color="#00BBFF"/>
<stop offset="1" stop-color="#008BFF"/>
</linearGradient>
<linearGradient id="paint3_linear_3514_40186" x1="6.82732" y1="6.23959" x2="8.42766" y2="8.47329" gradientUnits="userSpaceOnUse">
<stop stop-color="#00BBFF"/>
<stop offset="1" stop-color="#008BFF"/>
</linearGradient>
<linearGradient id="paint4_linear_3514_40186" x1="6.89677" y1="7.04254" x2="7.59547" y2="8.82466" gradientUnits="userSpaceOnUse">
<stop stop-color="#00BBFF"/>
<stop offset="1" stop-color="#008BFF"/>
</linearGradient>
<linearGradient id="paint5_linear_3514_40186" x1="6.69688" y1="6.85456" x2="7.79633" y2="8.47859" gradientUnits="userSpaceOnUse">
<stop stop-color="#00BBFF"/>
<stop offset="1" stop-color="#008BFF"/>
</linearGradient>
<linearGradient id="paint6_linear_3514_40186" x1="6.64339" y1="7.40762" x2="7.23097" y2="8.56751" gradientUnits="userSpaceOnUse">
<stop stop-color="#00BBFF"/>
<stop offset="1" stop-color="#008BFF"/>
</linearGradient>
<linearGradient id="paint7_linear_3514_40186" x1="4.75646" y1="7.06514" x2="9.18888" y2="13.3509" gradientUnits="userSpaceOnUse">
<stop stop-color="#1348FF"/>
<stop offset="1" stop-color="#06238D"/>
</linearGradient>
<linearGradient id="paint8_linear_3514_40186" x1="7.87459" y1="9.5996" x2="10.3648" y2="13.0953" gradientUnits="userSpaceOnUse">
<stop stop-color="#0195FF"/>
<stop offset="0.991028" stop-color="#1147E9"/>
</linearGradient>
<linearGradient id="paint9_linear_3514_40186" x1="9.29495" y1="9.587" x2="11.6335" y2="11.0946" gradientUnits="userSpaceOnUse">
<stop stop-color="#00BBFF"/>
<stop offset="1" stop-color="#008BFF"/>
</linearGradient>
</defs>
</svg>
