<svg width="16" height="16" viewBox="0 0 16 16" fill="none" xmlns="http://www.w3.org/2000/svg">
<circle cx="7.99835" cy="7.99957" r="7.85696" fill="url(#paint0_linear_3514_40189)" stroke="#D5DADD" stroke-width="0.285708"/>
<g clip-path="url(#clip0_3514_40189)">
<path fill-rule="evenodd" clip-rule="evenodd" d="M6.25586 10.5094C6.6672 11.9472 7.99128 12.9995 9.56115 12.9995C11.4596 12.9995 12.9986 11.4605 12.9986 9.56202C12.9986 7.87121 11.7779 6.46552 10.1697 6.17822L10.9383 7.50942C11.2955 8.12823 11.2955 8.89062 10.9383 9.50942C10.581 10.1282 9.92075 10.5094 9.20622 10.5094H6.25586Z" fill="url(#paint1_linear_3514_40189)"/>
<path fill-rule="evenodd" clip-rule="evenodd" d="M7.46859 3.49951C7.28995 3.19011 6.95983 2.99951 6.60256 2.99951C6.2453 2.99951 5.91517 3.19011 5.73654 3.49951L3.13275 8.0094C2.95412 8.3188 2.95412 8.7 3.13275 9.0094C3.31139 9.3188 3.64151 9.5094 3.99878 9.5094H9.20635C9.56361 9.5094 9.89374 9.3188 10.0724 9.0094C10.251 8.7 10.251 8.3188 10.0724 8.0094L7.46859 3.49951Z" fill="url(#paint2_linear_3514_40189)"/>
</g>
<defs>
<linearGradient id="paint0_linear_3514_40189" x1="1.44946" y1="2.27065" x2="13.6864" y2="14.7475" gradientUnits="userSpaceOnUse">
<stop stop-color="white"/>
<stop offset="1" stop-color="#EAECEE"/>
</linearGradient>
<linearGradient id="paint1_linear_3514_40189" x1="7.26497" y1="7.20164" x2="12.0409" y2="11.9193" gradientUnits="userSpaceOnUse">
<stop stop-color="#00BBFF"/>
<stop offset="1" stop-color="#008BFF"/>
</linearGradient>
<linearGradient id="paint2_linear_3514_40189" x1="4.07922" y1="3.97302" x2="8.61373" y2="8.99526" gradientUnits="userSpaceOnUse">
<stop stop-color="#0195FF"/>
<stop offset="0.991028" stop-color="#1147E9"/>
</linearGradient>
<clipPath id="clip0_3514_40189">
<rect width="10" height="10" fill="white" transform="translate(2.99854 2.99951)"/>
</clipPath>
</defs>
</svg>
