<svg width="16" height="16" viewBox="0 0 16 16" fill="none" xmlns="http://www.w3.org/2000/svg">
<circle cx="7.99908" cy="7.99957" r="7.85696" fill="url(#paint0_linear_3514_40187)" stroke="#D5DADD" stroke-width="0.285708"/>
<g clip-path="url(#clip0_3514_40187)">
<path fill-rule="evenodd" clip-rule="evenodd" d="M9.22125 5.03987L8.57646 5.68466C8.32968 5.93144 8.22276 6.24559 8.22276 6.55792C8.22276 6.87025 8.32968 7.18439 8.57646 7.43117C8.82324 7.67795 9.13738 7.78487 9.44971 7.78487C9.76135 7.78487 10.0748 7.67842 10.3213 7.4328L10.9663 6.79393C11.0202 6.8956 11.0903 6.99186 11.178 7.07961L11.1966 7.09815L11.2163 7.11541C11.4199 7.29361 11.6622 7.39659 11.9194 7.42511V10.3407C11.9194 10.785 11.7674 11.1592 11.4634 11.4632C11.1594 11.7672 10.7911 11.9192 10.3585 11.9192H7.43666C7.41175 11.6485 7.30291 11.3834 7.08858 11.1691L7.07004 11.1505L7.05031 11.1333C6.97074 11.0636 6.88529 11.0055 6.79535 10.9588L7.44014 10.314C7.68692 10.0672 7.79384 9.75309 7.79384 9.44076C7.79384 9.12843 7.68692 8.81428 7.44014 8.5675C7.19337 8.32072 6.87922 8.2138 6.56689 8.2138C6.25525 8.2138 5.94181 8.32025 5.69528 8.56587L5.05026 9.20475C4.99639 9.10308 4.92633 9.00681 4.83858 8.91907L4.82004 8.90053L4.80031 8.88326C4.5828 8.69294 4.32126 8.58841 4.04443 8.56877V5.6227C4.04443 5.17838 4.19644 4.80421 4.50045 4.5002C4.81615 4.19619 5.19031 4.04419 5.62294 4.04419H8.57717C8.5956 4.32699 8.70438 4.60596 8.92802 4.82961L8.94656 4.84815L8.96629 4.86541C9.04586 4.93503 9.13131 4.99317 9.22125 5.03987Z" fill="url(#paint1_linear_3514_40187)"/>
<path d="M12.3765 3.64014C12.2944 3.54639 12.189 3.49951 12.0601 3.49951H9.81006C9.68115 3.49951 9.56982 3.54639 9.47607 3.64014C9.39404 3.72217 9.35303 3.82764 9.35303 3.95654C9.35303 4.08545 9.39404 4.19092 9.47607 4.27295C9.56982 4.35498 9.68115 4.396 9.81006 4.396H10.9702L9.12451 6.2417C9.04248 6.32373 9.00146 6.4292 9.00146 6.55811C9.00146 6.68701 9.04248 6.79248 9.12451 6.87451C9.20654 6.95654 9.31201 6.99756 9.44092 6.99756C9.56982 6.99756 9.67529 6.95654 9.75732 6.87451L11.603 5.04639V6.20654C11.603 6.33545 11.644 6.44092 11.7261 6.52295C11.8198 6.60498 11.9312 6.646 12.0601 6.646C12.189 6.646 12.2944 6.60498 12.3765 6.52295C12.4585 6.44092 12.4995 6.33545 12.4995 6.20654V3.95654C12.4995 3.82764 12.4585 3.72217 12.3765 3.64014Z" fill="url(#paint2_linear_3514_40187)"/>
<path d="M3.62256 12.3589C3.70459 12.4526 3.81006 12.4995 3.93896 12.4995L6.18896 12.4995C6.31787 12.4995 6.4292 12.4526 6.52295 12.3589C6.60498 12.2769 6.646 12.1714 6.646 12.0425C6.646 11.9136 6.60498 11.8081 6.52295 11.7261C6.4292 11.644 6.31787 11.603 6.18896 11.603L5.02881 11.603L6.87451 9.75732C6.95654 9.67529 6.99756 9.56982 6.99756 9.44092C6.99756 9.31201 6.95654 9.20654 6.87451 9.12451C6.79248 9.04248 6.68701 9.00146 6.55811 9.00146C6.4292 9.00146 6.32373 9.04248 6.2417 9.12451L4.396 10.9526L4.396 9.79248C4.396 9.66357 4.35498 9.55811 4.27295 9.47607C4.1792 9.39404 4.06787 9.35303 3.93897 9.35303C3.81006 9.35303 3.70459 9.39404 3.62256 9.47607C3.54053 9.55811 3.49951 9.66357 3.49951 9.79248L3.49951 12.0425C3.49951 12.1714 3.54053 12.2769 3.62256 12.3589Z" fill="url(#paint3_linear_3514_40187)"/>
</g>
<defs>
<linearGradient id="paint0_linear_3514_40187" x1="1.45019" y1="2.27065" x2="13.6871" y2="14.7475" gradientUnits="userSpaceOnUse">
<stop stop-color="white"/>
<stop offset="1" stop-color="#EAECEE"/>
</linearGradient>
<linearGradient id="paint1_linear_3514_40187" x1="5.22493" y1="5.22185" x2="10.739" y2="10.7378" gradientUnits="userSpaceOnUse">
<stop stop-color="#0195FF"/>
<stop offset="0.991028" stop-color="#1147E9"/>
</linearGradient>
<linearGradient id="paint2_linear_3514_40187" x1="9.51863" y1="4.01415" x2="11.9667" y2="6.47279" gradientUnits="userSpaceOnUse">
<stop stop-color="#1348FF"/>
<stop offset="1" stop-color="#06238D"/>
</linearGradient>
<linearGradient id="paint3_linear_3514_40187" x1="6.47405" y1="11.9747" x2="4.02473" y2="9.52708" gradientUnits="userSpaceOnUse">
<stop stop-color="#00BBFF"/>
<stop offset="1" stop-color="#008BFF"/>
</linearGradient>
<clipPath id="clip0_3514_40187">
<rect width="9" height="9" fill="white" transform="translate(3.49902 3.49951)"/>
</clipPath>
</defs>
</svg>
