<svg width="16" height="16" viewBox="0 0 16 16" fill="none" xmlns="http://www.w3.org/2000/svg">
<circle cx="7.99786" cy="7.99957" r="7.85696" fill="url(#paint0_linear_3514_40190)" stroke="#D5DADD" stroke-width="0.285708"/>
<g clip-path="url(#clip0_3514_40190)">
<path d="M3.59944 6.38759C3.54587 5.79738 4.008 5.27555 4.61069 5.27555H6.23675H7.52778C7.82938 5.27555 8.08789 5.16784 8.30332 4.95241C8.51875 4.73699 8.62646 4.47847 8.62646 4.17688V3.45296C8.62646 3.35543 8.66521 3.26189 8.73417 3.19292C8.80314 3.12395 8.89668 3.08521 8.99422 3.08521H10.5817C10.8924 3.08521 11.1442 3.33704 11.1442 3.6477V6.65041H9.92281C9.47514 6.65041 9.04548 6.83073 8.7268 7.15235L8.43121 7.45067C7.58092 7.45067 6.71775 7.45739 5.869 7.45739L5.87453 6.18428H4.61069C4.53853 6.18428 4.4899 6.24168 4.49576 6.30623L5.00741 10.9575H6.01664C5.88411 10.7934 5.869 10.6545 5.869 10.4271V9.37863L5.9244 9.2573C5.92715 9.25153 5.93024 9.24604 5.93354 9.24104C5.93618 9.23754 5.9392 9.23425 5.94269 9.23106C5.9507 9.22374 5.96299 9.21543 5.98083 9.20858C5.99308 9.20388 6.00502 9.19865 6.01664 9.19291L6.02293 9.19274H8.9552C9.06712 9.19274 9.17453 9.14766 9.2542 9.06726L9.92281 8.39248H11.1442V9.46408L10.7667 10.5802C10.6768 10.846 10.4337 11.0219 10.1632 11.0219H9.68646C9.67288 11.1962 9.60865 11.3704 9.49847 11.5115C9.32791 11.7298 9.06627 11.8575 8.78917 11.8575H5.00741C4.54844 11.8575 4.16299 11.5121 4.1128 11.0559L3.60115 6.40464L3.59944 6.38759Z" fill="url(#paint1_linear_3514_40190)"/>
<path d="M8.15089 4.17568V3.42358L6.427 4.92075H7.40582C7.61035 4.92075 7.78566 4.84771 7.93175 4.70161C8.07785 4.55552 8.15089 4.38021 8.15089 4.17568Z" fill="url(#paint2_linear_3514_40190)"/>
<path d="M5.09785 8.79059C5.10835 8.77504 5.11934 8.75983 5.13079 8.74496C5.17031 8.69369 5.2122 8.64996 5.25373 8.61285C5.3454 8.53097 5.44956 8.46865 5.5593 8.42519C5.66188 8.37859 5.77236 8.35165 5.88501 8.34582C5.90289 8.3449 5.9206 8.34445 5.93813 8.34445H8.85289L9.42816 7.7769C9.59658 7.61074 9.82366 7.51758 10.0602 7.51758H11.5142C11.5495 7.51758 11.5847 7.51965 11.6197 7.52379C12.1097 7.54017 12.5416 7.90832 12.5938 8.43329C12.6067 8.56285 12.5913 8.69366 12.5487 8.81669L11.8028 10.9721C11.5862 11.5985 11.0035 12.0209 10.3463 12.0341C10.312 12.0381 10.2776 12.0401 10.243 12.0401H5.13938C4.66031 12.0401 4.2666 11.7069 4.15784 11.2709C4.14595 11.2233 4.13743 11.1743 4.13253 11.1248C4.11665 10.964 4.14436 10.8018 4.21274 10.6554L5.01855 8.93028L5.02538 8.91599C5.04547 8.87487 5.06944 8.83265 5.09785 8.79059Z" fill="url(#paint3_linear_3514_40190)"/>
</g>
<defs>
<linearGradient id="paint0_linear_3514_40190" x1="1.44897" y1="2.27065" x2="13.6859" y2="14.7475" gradientUnits="userSpaceOnUse">
<stop stop-color="white"/>
<stop offset="1" stop-color="#EAECEE"/>
</linearGradient>
<linearGradient id="paint1_linear_3514_40190" x1="4.72685" y1="4.39705" x2="10.8009" y2="9.62588" gradientUnits="userSpaceOnUse">
<stop stop-color="#0195FF"/>
<stop offset="0.991028" stop-color="#1147E9"/>
</linearGradient>
<linearGradient id="paint2_linear_3514_40190" x1="6.68187" y1="3.64385" x2="7.7187" y2="4.84283" gradientUnits="userSpaceOnUse">
<stop stop-color="#1348FF"/>
<stop offset="1" stop-color="#06238D"/>
</linearGradient>
<linearGradient id="paint3_linear_3514_40190" x1="5.39786" y1="8.19389" x2="8.02876" y2="13.1229" gradientUnits="userSpaceOnUse">
<stop stop-color="#0195FF"/>
<stop offset="0.991028" stop-color="#1147E9"/>
</linearGradient>
<clipPath id="clip0_3514_40190">
<rect width="9" height="9" fill="white" transform="translate(3.59814 3.09985)"/>
</clipPath>
</defs>
</svg>
