<svg width="16" height="16" viewBox="0 0 16 16" fill="none" xmlns="http://www.w3.org/2000/svg">
<circle cx="7.99738" cy="7.99957" r="7.85696" fill="url(#paint0_linear_3514_40192)" stroke="#D5DADD" stroke-width="0.285708"/>
<g clip-path="url(#clip0_3514_40192)">
<path fill-rule="evenodd" clip-rule="evenodd" d="M9.45456 3.39333C9.20267 3.13095 8.88781 2.99976 8.50998 2.99976H4.9363C4.55847 2.99976 4.23836 3.13095 3.97598 3.39333C3.72409 3.64522 3.59814 3.96008 3.59814 4.33792V9.7063C3.59814 10.0841 3.72409 10.399 3.97598 10.6509C4.23836 10.9133 4.55847 11.0445 4.9363 11.0445H7.2014C7.11438 10.7206 7.06797 10.3801 7.06797 10.0288C7.06797 9.92019 7.0724 9.81264 7.0811 9.7063H5.37711C5.08324 9.7063 4.9363 9.55936 4.9363 9.26549C4.9363 9.12905 4.97304 9.01885 5.04651 8.93489C5.13047 8.85092 5.24067 8.80894 5.37711 8.80894H7.26233C7.31203 8.65772 7.37072 8.51057 7.43777 8.36814H5.37711C5.08324 8.36814 4.9363 8.2212 4.9363 7.92733C4.9363 7.79089 4.97304 7.68069 5.04651 7.59673C5.13047 7.51276 5.24067 7.47078 5.37711 7.47078H8.02272C8.50105 6.91979 9.13123 6.50417 9.84814 6.28905V4.33792C9.84814 3.96008 9.71694 3.64522 9.45456 3.39333ZM8.50998 4.79446C8.50998 4.65802 8.46799 4.54782 8.38403 4.46386C8.31056 4.3799 8.20561 4.33792 8.06917 4.33792C7.93273 4.33792 7.82253 4.3799 7.73857 4.46386C7.6546 4.54782 7.61262 4.65802 7.61262 4.79446C7.61262 4.9309 7.6546 5.0411 7.73857 5.12507C7.82253 5.19854 7.93273 5.23527 8.06917 5.23527C8.36304 5.23527 8.50998 5.08833 8.50998 4.79446Z" fill="url(#paint1_linear_3514_40192)"/>
<path fill-rule="evenodd" clip-rule="evenodd" d="M8.07018 10.2457C8.13246 10.308 8.21694 10.343 8.30502 10.343C8.3931 10.343 8.47757 10.308 8.53986 10.2457C8.60214 10.1835 8.63713 10.099 8.63713 10.0109C8.63632 9.70554 8.69615 9.40306 8.81316 9.12099C8.93017 8.83893 9.10203 8.58292 9.31877 8.36779C9.76126 7.94474 10.3499 7.70864 10.9621 7.70864C11.5742 7.70864 12.1628 7.94474 12.6053 8.36779C12.6677 8.43019 12.7524 8.46525 12.8406 8.46525C12.9289 8.46525 13.0135 8.43019 13.0759 8.36779C13.1383 8.30539 13.1734 8.22076 13.1734 8.13252C13.1734 8.04427 13.1383 7.95964 13.0759 7.89724C12.506 7.35434 11.7491 7.05151 10.9621 7.05151C10.175 7.05151 9.41807 7.35434 8.8482 7.89724C8.56995 8.17429 8.34934 8.50373 8.19911 8.86651C8.04887 9.2293 7.97199 9.61825 7.97291 10.0109C7.97291 10.099 8.0079 10.1835 8.07018 10.2457ZM9.81601 12.7737C10.1788 12.9239 10.5678 13.0008 10.9604 12.9999C11.4848 12.9992 11.9998 12.861 12.4541 12.5991C12.9083 12.3371 13.2859 11.9606 13.5491 11.507C13.5722 11.4693 13.5875 11.4273 13.5941 11.3836C13.6008 11.3398 13.5986 11.2952 13.5877 11.2523C13.5769 11.2094 13.5576 11.1691 13.5309 11.1338C13.5043 11.0985 13.4709 11.0688 13.4326 11.0466C13.3944 11.0244 13.3521 11.01 13.3082 11.0044C13.2643 10.9987 13.2197 11.0019 13.1771 11.0137C13.1344 11.0255 13.0946 11.0457 13.0599 11.0732C13.0252 11.1006 12.9963 11.1347 12.9749 11.1734C12.873 11.3493 12.7482 11.5109 12.6039 11.654C12.1614 12.0771 11.5728 12.3132 10.9606 12.3132C10.3484 12.3132 9.75977 12.0771 9.31728 11.654C9.25488 11.5916 9.17025 11.5566 9.082 11.5566C8.99375 11.5566 8.90912 11.5916 8.84672 11.654C8.78432 11.7164 8.74926 11.8011 8.74926 11.8893C8.74926 11.9776 8.78432 12.0622 8.84672 12.1246C9.12378 12.4028 9.45322 12.6234 9.81601 12.7737ZM10.9604 10.8015C10.8567 10.8014 10.754 10.7808 10.6582 10.7411C10.5625 10.7013 10.4755 10.643 10.4022 10.5696C10.329 10.4962 10.2709 10.4091 10.2314 10.3132C10.1918 10.2174 10.1715 10.1146 10.1716 10.0109C10.1716 9.98187 10.1773 9.95308 10.1884 9.92622C10.1996 9.89936 10.2159 9.87495 10.2364 9.85439C10.257 9.83383 10.2814 9.81752 10.3083 9.80639C10.3351 9.79527 10.3639 9.78954 10.393 9.78954C10.4221 9.78954 10.4509 9.79527 10.4777 9.80639C10.5046 9.81752 10.529 9.83383 10.5495 9.85439C10.5701 9.87495 10.5864 9.89936 10.5975 9.92622C10.6087 9.95308 10.6144 9.98187 10.6144 10.0109C10.6142 10.0565 10.6231 10.1017 10.6404 10.1438C10.6577 10.186 10.6832 10.2243 10.7154 10.2566C10.7817 10.3194 10.8697 10.3544 10.9611 10.3544C11.0525 10.3544 11.1405 10.3194 11.2069 10.2566C11.2558 10.2081 11.2892 10.1461 11.3029 10.0786C11.3165 10.0111 11.3098 9.94101 11.2835 9.87732C11.2573 9.81363 11.2127 9.75918 11.1554 9.7209C11.0981 9.68261 11.0307 9.66222 10.9619 9.66231C10.9031 9.66231 10.8468 9.63898 10.8053 9.59746C10.7638 9.55594 10.7404 9.49962 10.7404 9.4409C10.7404 9.38218 10.7638 9.32587 10.8053 9.28435C10.8468 9.24282 10.9031 9.2195 10.9619 9.2195C11.1716 9.21973 11.3727 9.30322 11.5209 9.45162C11.6692 9.60002 11.7524 9.80119 11.7524 10.0109C11.7523 10.1149 11.7318 10.2178 11.6919 10.3137C11.6521 10.4097 11.5937 10.4969 11.5202 10.5703C11.4466 10.6437 11.3593 10.7019 11.2633 10.7416C11.1672 10.7813 11.0643 10.8016 10.9604 10.8015ZM9.93254 11.5489C10.2368 11.7522 10.5945 11.8608 10.9604 11.8608C11.0485 11.8608 11.133 11.8259 11.1953 11.7636C11.2575 11.7013 11.2925 11.6168 11.2925 11.5287C11.2925 11.4407 11.2575 11.3562 11.1953 11.2939C11.133 11.2316 11.0485 11.1966 10.9604 11.1966C10.7263 11.1958 10.4976 11.1258 10.3032 10.9953C10.1088 10.8648 9.95736 10.6797 9.86794 10.4633C9.77853 10.2469 9.75513 10.0089 9.80072 9.77924C9.8463 9.54958 9.95881 9.33854 10.1241 9.1727C10.35 8.95709 10.6502 8.83678 10.9625 8.83678C11.2748 8.83678 11.575 8.95709 11.8009 9.1727C11.9114 9.28241 11.999 9.41301 12.0585 9.5569C12.1181 9.70078 12.1484 9.85507 12.1478 10.0108C12.1478 10.0989 12.1827 10.1833 12.245 10.2456C12.3073 10.3079 12.3918 10.3429 12.4799 10.3429C12.5679 10.3429 12.6524 10.3079 12.7147 10.2456C12.777 10.1833 12.812 10.0989 12.812 10.0108C12.8126 9.76759 12.7649 9.52669 12.6717 9.30206C12.5785 9.07742 12.4417 8.87351 12.2691 8.70214C11.9165 8.36613 11.4481 8.1787 10.961 8.1787C10.4739 8.1787 10.0055 8.36613 9.65294 8.70214C9.39409 8.96081 9.21776 9.29043 9.14626 9.64932C9.07476 10.0082 9.1113 10.3802 9.25126 10.7184C9.39121 11.0565 9.6283 11.3455 9.93254 11.5489Z" fill="url(#paint2_linear_3514_40192)"/>
</g>
<defs>
<linearGradient id="paint0_linear_3514_40192" x1="1.44848" y1="2.27065" x2="13.6854" y2="14.7475" gradientUnits="userSpaceOnUse">
<stop stop-color="white"/>
<stop offset="1" stop-color="#EAECEE"/>
</linearGradient>
<linearGradient id="paint1_linear_3514_40192" x1="4.53504" y1="4.20279" x2="9.99355" y2="8.44503" gradientUnits="userSpaceOnUse">
<stop stop-color="#0195FF"/>
<stop offset="0.991028" stop-color="#1147E9"/>
</linearGradient>
<linearGradient id="paint2_linear_3514_40192" x1="8.80452" y1="7.92665" x2="12.962" y2="11.875" gradientUnits="userSpaceOnUse">
<stop stop-color="#1348FF"/>
<stop offset="1" stop-color="#06238D"/>
</linearGradient>
<clipPath id="clip0_3514_40192">
<rect width="9.99999" height="9.99999" fill="white" transform="translate(3.59766 2.99976)"/>
</clipPath>
</defs>
</svg>
