<svg width="16" height="16" viewBox="0 0 16 16" fill="none" xmlns="http://www.w3.org/2000/svg">
<circle cx="7.99884" cy="7.99957" r="7.85696" fill="url(#paint0_linear_3514_40188)" stroke="#D5DADD" stroke-width="0.285708"/>
<g clip-path="url(#clip0_3514_40188)">
<path d="M7.36749 3.50537C6.14659 3.50537 5.27916 4.49919 5.13463 5.53675C4.74191 5.56012 4.39513 5.70772 4.12579 5.95562C3.76143 6.291 3.57324 6.7778 3.57324 7.29116C3.57324 7.76824 3.71796 8.21919 4.04286 8.5526C4.36996 8.88825 4.83433 9.05829 5.38112 9.05829H6.3159C6.31814 9.05565 6.32041 9.05302 6.3227 9.05041L6.49998 8.81857L6.50836 8.80851C6.65929 8.6274 6.88499 8.4978 7.16016 8.4978C7.32869 8.4978 7.49008 8.54717 7.62887 8.64078C7.64568 8.63186 7.6626 8.62314 7.67961 8.61462L7.68314 8.56337L7.68809 8.53367C7.71734 8.35817 7.79685 8.18874 7.93417 8.05142C8.07655 7.90905 8.28115 7.79684 8.53347 7.79684H8.83388C9.04966 7.79684 9.26857 7.87602 9.43352 8.05033C9.57678 8.18524 9.67233 8.36969 9.68606 8.58303C9.70662 8.59229 9.72708 8.60182 9.74744 8.61162L9.76744 8.5977L9.7855 8.58686C9.82233 8.56477 9.86584 8.54161 9.91531 8.52097L9.91187 8.50254L9.91515 8.43596C9.92014 8.33476 9.94957 8.22367 10.0219 8.12308C10.0941 8.02267 10.1897 7.95964 10.2832 7.92261L10.307 7.91314L10.3385 7.90506C10.3407 7.89523 10.343 7.88542 10.3454 7.87565L10.3233 7.85346L10.3167 7.84626C10.2211 7.74069 10.1902 7.61258 10.1771 7.54641L10.1673 7.49708L10.1698 7.44686C10.1755 7.33139 10.2149 7.19746 10.3199 7.0886L10.4431 6.94296L10.4489 6.93666C10.5532 6.82328 10.7047 6.74593 10.8843 6.75478C10.9944 6.7602 11.0981 6.79762 11.1857 6.86318C11.197 6.8579 11.2083 6.85275 11.2197 6.84774L11.2236 6.8144L11.2278 6.79516C11.2307 6.78201 11.234 6.76893 11.2377 6.75594C11.1468 5.72161 10.3752 4.94696 9.45768 4.86029C9.06594 4.05022 8.33876 3.50537 7.36749 3.50537Z" fill="url(#paint1_linear_3514_40188)"/>
<path fill-rule="evenodd" clip-rule="evenodd" d="M13.2178 8.41128C13.2848 8.44578 13.3164 8.50039 13.3127 8.5751L13.3118 8.59377L13.2555 8.78758C13.2328 8.86759 13.181 8.90561 13.1001 8.90162L13.0814 8.9007L12.7849 8.8393C12.723 8.95482 12.6274 9.05933 12.4979 9.15281L12.5944 9.47583C12.6 9.48859 12.6023 9.50431 12.6014 9.52299C12.5977 9.59769 12.5673 9.64612 12.51 9.66826L12.328 9.75291C12.3025 9.76414 12.2835 9.76944 12.271 9.76883C12.215 9.76607 12.1728 9.73591 12.1444 9.67834L11.9822 9.36144C11.9507 9.36613 11.9162 9.37067 11.8785 9.37505L11.7758 9.37L11.6824 9.3654C11.6578 9.35795 11.6301 9.35034 11.5993 9.34258L11.3969 9.65089C11.3633 9.69917 11.3216 9.72207 11.2718 9.71962C11.2407 9.71809 11.2192 9.71079 11.2074 9.69773L11.0341 9.60494C10.9793 9.57728 10.9534 9.53232 10.9565 9.47006C10.9577 9.44516 10.9617 9.42664 10.9685 9.41449L11.0962 9.1025C10.9882 9.01605 10.9031 8.90577 10.8411 8.77166L10.5213 8.80272L10.5026 8.8018C10.4216 8.79781 10.3738 8.75489 10.3591 8.67304L10.3221 8.47463L10.323 8.45595C10.3267 8.38125 10.3636 8.33001 10.4336 8.30226L10.7085 8.23155L10.7104 8.19419C10.718 8.03855 10.7531 7.89674 10.8156 7.76876L10.6193 7.57187C10.6016 7.55228 10.5877 7.51727 10.5777 7.46685C10.5798 7.42327 10.594 7.38964 10.6201 7.36597L10.7493 7.21319C10.7823 7.17737 10.8206 7.16053 10.8641 7.16268C10.8953 7.16421 10.9228 7.17493 10.9468 7.19483L11.1542 7.35483C11.2902 7.25543 11.437 7.18777 11.5948 7.15186L11.6268 6.88196C11.6349 6.84491 11.652 6.81455 11.6781 6.79087C11.7108 6.76128 11.7458 6.7474 11.7832 6.74924L11.9793 6.7589C12.0228 6.76104 12.0563 6.77829 12.0797 6.81065C12.1096 6.83708 12.1236 6.86898 12.1218 6.90633L12.1276 7.16873C12.2814 7.21375 12.4274 7.28959 12.5657 7.39625L12.7879 7.25741C12.8199 7.24027 12.8484 7.23231 12.8733 7.23354C12.9231 7.23599 12.9595 7.2565 12.9826 7.29508L13.0962 7.45982C13.1198 7.48595 13.1306 7.5208 13.1285 7.56438C13.1266 7.60173 13.1094 7.63521 13.0767 7.6648L12.8807 7.84238C12.9085 7.91239 12.9268 7.98506 12.9355 8.06038C12.9505 8.13601 12.9559 8.2174 12.9516 8.30456L12.9511 8.3139L13.2178 8.41128ZM11.3509 8.68443C11.2325 8.55379 11.1777 8.39819 11.1866 8.21765C11.1955 8.0371 11.2653 7.88764 11.3959 7.76926C11.5266 7.65088 11.6822 7.59613 11.8627 7.60502C12.0433 7.61391 12.1927 7.68368 12.3111 7.81432C12.4295 7.94497 12.4842 8.10056 12.4753 8.28111C12.4664 8.46165 12.3967 8.61112 12.266 8.7295C12.1354 8.84788 11.9798 8.90262 11.7993 8.89373C11.6187 8.88484 11.4692 8.81507 11.3509 8.68443Z" fill="url(#paint2_linear_3514_40188)"/>
<path fill-rule="evenodd" clip-rule="evenodd" d="M10.851 10.8535C10.9559 10.9012 11.0084 10.9823 11.0084 11.0967V11.1253L10.9368 11.4257C10.9082 11.5497 10.8319 11.6117 10.708 11.6117H10.6793L10.2216 11.5402C10.1357 11.7214 9.99746 11.8883 9.80672 12.0409L9.97838 12.5273C9.98792 12.5463 9.99269 12.5702 9.99269 12.5988C9.99269 12.7132 9.94977 12.7895 9.86394 12.8277L9.59214 12.9707C9.55399 12.9898 9.52538 12.9993 9.50631 12.9993C9.42048 12.9993 9.35372 12.9564 9.30603 12.8706L9.03423 12.3985C8.98655 12.408 8.9341 12.4176 8.87687 12.4271H8.71952H8.57646C8.53832 12.4176 8.4954 12.408 8.44771 12.3985L8.16161 12.8849C8.11392 12.9612 8.05193 12.9993 7.97564 12.9993C7.92795 12.9993 7.89458 12.9898 7.8755 12.9707L7.6037 12.842C7.51787 12.8038 7.47495 12.7371 7.47495 12.6417C7.47495 12.6035 7.47972 12.5749 7.48926 12.5559L7.66092 12.0695C7.48926 11.9455 7.35097 11.7834 7.24607 11.5831L6.75969 11.6546H6.73108C6.6071 11.6546 6.5308 11.5926 6.50219 11.4687L6.43066 11.1682V11.1396C6.43066 11.0252 6.48312 10.9441 6.58802 10.8964L7.00288 10.7677V10.7105C7.00288 10.4721 7.04579 10.2527 7.13162 10.0524L6.81691 9.76633C6.7883 9.73772 6.76445 9.68527 6.74538 9.60897C6.74538 9.54221 6.76445 9.48976 6.8026 9.45161L6.98857 9.20842C7.03626 9.1512 7.09348 9.12259 7.16024 9.12259C7.20792 9.12259 7.25084 9.1369 7.28898 9.16551L7.61801 9.39439C7.81828 9.23226 8.03763 9.11782 8.27605 9.05106L8.30466 8.63621C8.3142 8.57899 8.33804 8.5313 8.37619 8.49316C8.42387 8.44547 8.47633 8.42163 8.53355 8.42163H8.83396C8.90072 8.42163 8.95317 8.44547 8.99132 8.49316C9.039 8.5313 9.06284 8.57899 9.06284 8.63621L9.09145 9.03676C9.32988 9.09398 9.55876 9.19889 9.77811 9.35148L10.1071 9.12259C10.1548 9.09398 10.1977 9.07968 10.2359 9.07968C10.3122 9.07968 10.3694 9.10829 10.4075 9.16551L10.5935 9.4087C10.6317 9.44684 10.6507 9.4993 10.6507 9.56606C10.6507 9.62328 10.6269 9.67573 10.5792 9.72341L10.2931 10.0095C10.3408 10.1144 10.3742 10.2241 10.3932 10.3385C10.4218 10.453 10.4362 10.577 10.4362 10.7105V10.7248L10.851 10.8535ZM8.01855 11.4114C7.82782 11.2207 7.73245 10.987 7.73245 10.7105C7.73245 10.4339 7.82782 10.2003 8.01855 10.0095C8.20929 9.81878 8.44295 9.72341 8.71952 9.72341C8.99609 9.72341 9.22974 9.81878 9.42048 10.0095C9.61121 10.2003 9.70658 10.4339 9.70658 10.7105C9.70658 10.987 9.61121 11.2207 9.42048 11.4114C9.22974 11.6022 8.99609 11.6975 8.71952 11.6975C8.44295 11.6975 8.20929 11.6022 8.01855 11.4114Z" fill="url(#paint3_linear_3514_40188)"/>
</g>
<defs>
<linearGradient id="paint0_linear_3514_40188" x1="1.44995" y1="2.27065" x2="13.6869" y2="14.7475" gradientUnits="userSpaceOnUse">
<stop stop-color="white"/>
<stop offset="1" stop-color="#EAECEE"/>
</linearGradient>
<linearGradient id="paint1_linear_3514_40188" x1="4.72218" y1="4.33578" x2="8.41638" y2="9.43652" gradientUnits="userSpaceOnUse">
<stop stop-color="#0195FF"/>
<stop offset="0.991028" stop-color="#1147E9"/>
</linearGradient>
<linearGradient id="paint2_linear_3514_40188" x1="10.8306" y1="7.14304" x2="12.8185" y2="9.3464" gradientUnits="userSpaceOnUse">
<stop stop-color="#1348FF"/>
<stop offset="1" stop-color="#06238D"/>
</linearGradient>
<linearGradient id="paint3_linear_3514_40188" x1="7.10745" y1="9.09511" x2="10.3111" y2="12.3126" gradientUnits="userSpaceOnUse">
<stop stop-color="#1348FF"/>
<stop offset="1" stop-color="#06238D"/>
</linearGradient>
<clipPath id="clip0_3514_40188">
<rect width="9.99996" height="9.99996" fill="white" transform="translate(3.39893 2.99951)"/>
</clipPath>
</defs>
</svg>
