<svg width="16" height="16" viewBox="0 0 16 16" fill="none" xmlns="http://www.w3.org/2000/svg">
<circle cx="7.99689" cy="7.99957" r="7.85696" fill="url(#paint0_linear_3514_40193)" stroke="#D5DADD" stroke-width="0.285708"/>
<g clip-path="url(#clip0_3514_40193)">
<path d="M5.68364 8.09518C5.739 8.15055 5.81409 8.18165 5.89238 8.18165C5.97068 8.18165 6.04577 8.15055 6.10113 8.09518C6.15649 8.03982 6.18759 7.96474 6.18759 7.88644C6.18687 7.615 6.24006 7.34612 6.34407 7.0954C6.44808 6.84468 6.60084 6.61711 6.79349 6.42589C7.18681 6.04984 7.71002 5.83997 8.25418 5.83997C8.79835 5.83997 9.32155 6.04984 9.71488 6.42589C9.77034 6.48136 9.84557 6.51252 9.92402 6.51252C10.0025 6.51252 10.0777 6.48136 10.1332 6.42589C10.1886 6.37042 10.2198 6.29519 10.2198 6.21675C10.2198 6.13831 10.1886 6.06308 10.1332 6.00762C9.62661 5.52504 8.95381 5.25586 8.25418 5.25586C7.55456 5.25586 6.88176 5.52504 6.37521 6.00762C6.12788 6.25389 5.93178 6.54672 5.79824 6.8692C5.6647 7.19167 5.59636 7.53741 5.59718 7.88644C5.59718 7.96474 5.62828 8.03982 5.68364 8.09518Z" fill="url(#paint1_linear_3514_40193)"/>
<path d="M7.23548 10.3423C7.55796 10.4758 7.9037 10.5442 8.25273 10.5433C8.71884 10.5428 9.17665 10.4199 9.58043 10.1871C9.98421 9.95421 10.3198 9.6195 10.5538 9.21635C10.5743 9.1828 10.5879 9.14549 10.5938 9.10661C10.5997 9.06772 10.5978 9.02805 10.5881 8.98993C10.5785 8.9518 10.5613 8.91599 10.5376 8.88459C10.514 8.85319 10.4842 8.82684 10.4502 8.80708C10.4162 8.78732 10.3786 8.77456 10.3396 8.76954C10.3006 8.76452 10.261 8.76735 10.2231 8.77785C10.1852 8.78835 10.1498 8.80633 10.1189 8.83071C10.0881 8.85509 10.0624 8.88539 10.0434 8.91983C9.95281 9.07618 9.8419 9.21983 9.71356 9.34703C9.32023 9.72308 8.79703 9.93295 8.25286 9.93295C7.7087 9.93295 7.18549 9.72308 6.79217 9.34703C6.7367 9.29156 6.66148 9.2604 6.58303 9.2604C6.50459 9.2604 6.42936 9.29156 6.37389 9.34703C6.31843 9.4025 6.28727 9.47772 6.28727 9.55617C6.28727 9.63461 6.31843 9.70984 6.37389 9.7653C6.62017 10.0126 6.913 10.2087 7.23548 10.3423Z" fill="url(#paint2_linear_3514_40193)"/>
<path d="M8.2527 8.58912C8.16052 8.58902 8.06926 8.57076 7.98414 8.53539C7.89901 8.50002 7.82169 8.44823 7.75658 8.38297C7.69147 8.31772 7.63986 8.24028 7.60468 8.15508C7.5695 8.06987 7.55144 7.97858 7.55155 7.8864C7.55155 7.86055 7.55664 7.83496 7.56653 7.81108C7.57642 7.78721 7.59091 7.76551 7.60919 7.74723C7.62746 7.72896 7.64916 7.71446 7.67304 7.70457C7.69691 7.69468 7.72251 7.68959 7.74835 7.68959C7.7742 7.68959 7.79979 7.69468 7.82367 7.70457C7.84754 7.71446 7.86924 7.72896 7.88751 7.74723C7.90579 7.76551 7.92029 7.78721 7.93018 7.81108C7.94007 7.83496 7.94516 7.86055 7.94516 7.8864C7.94502 7.9269 7.95287 7.96704 7.96827 8.0045C7.98367 8.04197 8.00631 8.07602 8.0349 8.10472C8.09392 8.16058 8.17209 8.19171 8.25336 8.19171C8.33462 8.19171 8.41279 8.16058 8.47181 8.10472C8.51531 8.06161 8.54501 8.00655 8.55714 7.94653C8.56927 7.8865 8.56328 7.82423 8.53994 7.76762C8.51659 7.711 8.47695 7.66261 8.42604 7.62858C8.37513 7.59455 8.31525 7.57642 8.25401 7.5765C8.20181 7.5765 8.15176 7.55576 8.11485 7.51885C8.07794 7.48194 8.05721 7.43189 8.05721 7.37969C8.05721 7.32749 8.07794 7.27744 8.11485 7.24053C8.15176 7.20362 8.20181 7.18289 8.25401 7.18289C8.44046 7.18309 8.6192 7.25731 8.75096 7.38922C8.88273 7.52113 8.95674 7.69995 8.95674 7.8864C8.95667 7.97877 8.9384 8.07023 8.90298 8.15554C8.86756 8.24085 8.81568 8.31835 8.7503 8.38361C8.68492 8.44886 8.60732 8.5006 8.52194 8.53586C8.43656 8.57113 8.34507 8.58922 8.2527 8.58912Z" fill="url(#paint3_linear_3514_40193)"/>
<path d="M7.33906 9.25353C7.60949 9.4343 7.92745 9.53081 8.25273 9.53085C8.33103 9.53085 8.40612 9.49975 8.46148 9.44439C8.51684 9.38903 8.54794 9.31394 8.54794 9.23564C8.54794 9.15735 8.51684 9.08226 8.46148 9.0269C8.40612 8.97154 8.33103 8.94044 8.25273 8.94044C8.04461 8.93973 7.84135 8.87746 7.66855 8.76146C7.49574 8.64546 7.36113 8.48093 7.28164 8.28858C7.20216 8.09624 7.18137 7.88467 7.22189 7.68053C7.2624 7.47639 7.36242 7.2888 7.50933 7.14138C7.71011 6.94972 7.977 6.84279 8.25457 6.84279C8.53214 6.84279 8.79903 6.94972 8.99981 7.14138C9.09804 7.2389 9.17589 7.35499 9.22882 7.48289C9.28176 7.61079 9.30872 7.74794 9.30814 7.88635C9.30814 7.96465 9.33924 8.03973 9.3946 8.09509C9.44996 8.15046 9.52505 8.18156 9.60335 8.18156C9.68164 8.18156 9.75673 8.15046 9.81209 8.09509C9.86745 8.03973 9.89855 7.96465 9.89855 7.88635C9.89908 7.67017 9.8567 7.45604 9.77386 7.25636C9.69103 7.05668 9.56938 6.87543 9.41599 6.72311C9.10256 6.42443 8.68621 6.25782 8.25326 6.25782C7.82031 6.25782 7.40396 6.42443 7.09053 6.72311C6.86044 6.95303 6.7037 7.24603 6.64015 7.56504C6.57659 7.88406 6.60907 8.21475 6.73348 8.5153C6.85789 8.81585 7.06863 9.07276 7.33906 9.25353Z" fill="url(#paint4_linear_3514_40193)"/>
<path fill-rule="evenodd" clip-rule="evenodd" d="M7.30214 3.13792C7.79193 2.84563 8.4026 2.84563 8.89239 3.13792L11.733 4.83312C12.2021 5.11309 12.4895 5.61916 12.4895 6.16549V9.61591C12.4895 10.1622 12.2021 10.6683 11.733 10.9483L8.89239 12.6435C8.4026 12.9358 7.79193 12.9358 7.30214 12.6435L4.46154 10.9483C3.9924 10.6683 3.70508 10.1622 3.70508 9.61591L3.70508 6.16549C3.70508 5.61916 3.9924 5.11309 4.46154 4.83312L7.30214 3.13792ZM8.36231 4.02617C8.19905 3.92874 7.99549 3.92874 7.83223 4.02617L4.99163 5.72137C4.83525 5.81469 4.73947 5.98338 4.73947 6.16549L4.73947 9.61591C4.73947 9.79802 4.83525 9.96671 4.99163 10.06L7.83223 11.7552C7.99549 11.8527 8.19905 11.8527 8.36231 11.7552L11.2029 10.06C11.3593 9.96671 11.4551 9.79802 11.4551 9.61591V6.16549C11.4551 5.98338 11.3593 5.81469 11.2029 5.72137L8.36231 4.02617Z" fill="url(#paint5_linear_3514_40193)"/>
</g>
<defs>
<linearGradient id="paint0_linear_3514_40193" x1="1.44799" y1="2.27065" x2="13.6849" y2="14.7475" gradientUnits="userSpaceOnUse">
<stop stop-color="white"/>
<stop offset="1" stop-color="#EAECEE"/>
</linearGradient>
<linearGradient id="paint1_linear_3514_40193" x1="6.33638" y1="6.03376" x2="10.0319" y2="9.54341" gradientUnits="userSpaceOnUse">
<stop stop-color="#1348FF"/>
<stop offset="1" stop-color="#06238D"/>
</linearGradient>
<linearGradient id="paint2_linear_3514_40193" x1="6.33638" y1="6.03376" x2="10.0319" y2="9.54341" gradientUnits="userSpaceOnUse">
<stop stop-color="#1348FF"/>
<stop offset="1" stop-color="#06238D"/>
</linearGradient>
<linearGradient id="paint3_linear_3514_40193" x1="6.33638" y1="6.03376" x2="10.0319" y2="9.54341" gradientUnits="userSpaceOnUse">
<stop stop-color="#1348FF"/>
<stop offset="1" stop-color="#06238D"/>
</linearGradient>
<linearGradient id="paint4_linear_3514_40193" x1="6.33638" y1="6.03376" x2="10.0319" y2="9.54341" gradientUnits="userSpaceOnUse">
<stop stop-color="#1348FF"/>
<stop offset="1" stop-color="#06238D"/>
</linearGradient>
<linearGradient id="paint5_linear_3514_40193" x1="5.02189" y1="4.40576" x2="11.9317" y2="10.512" gradientUnits="userSpaceOnUse">
<stop stop-color="#0195FF"/>
<stop offset="0.991028" stop-color="#1147E9"/>
</linearGradient>
<clipPath id="clip0_3514_40193">
<rect width="9.99999" height="9.99999" fill="white" transform="translate(3.09717 2.89966)"/>
</clipPath>
</defs>
</svg>
