<svg width="16" height="16" viewBox="0 0 16 16" fill="none" xmlns="http://www.w3.org/2000/svg">
<circle cx="7.9964" cy="7.99957" r="7.85696" fill="url(#paint0_linear_3514_40194)" stroke="#D5DADD" stroke-width="0.285708"/>
<g clip-path="url(#clip0_3514_40194)">
<path d="M6.26033 3.84796C6.87161 3.59231 7.52958 3.47569 8.18703 3.50354C8.19545 3.5039 8.19939 3.50569 8.20172 3.50697C8.20477 3.50865 8.21 3.51239 8.21581 3.52024C8.22815 3.5369 8.23836 3.56612 8.23225 3.60234L7.58826 7.41482C7.49946 7.9405 7.79184 8.45633 8.28848 8.65019L11.8903 10.0561C11.9245 10.0695 11.9443 10.0932 11.9523 10.1124C11.956 10.1214 11.9566 10.1278 11.9564 10.1313C11.9563 10.134 11.9559 10.1382 11.9518 10.1457C11.638 10.724 11.2 11.2287 10.6666 11.6218C9.98174 12.1266 9.16781 12.4269 8.31919 12.4879C7.47058 12.5489 6.62206 12.3681 5.87204 11.9664C5.12203 11.5647 4.50125 10.9587 4.08172 10.2185C3.66218 9.4783 3.46108 8.63436 3.50172 7.78453C3.54237 6.9347 3.8231 6.1138 4.31136 5.41704C4.79962 4.72029 5.4754 4.17622 6.26033 3.84796Z" stroke="url(#paint1_linear_3514_40194)" stroke-width="0.999999"/>
<path fill-rule="evenodd" clip-rule="evenodd" d="M12.2141 8.5111C12.5808 8.6524 12.9877 8.42295 12.9955 8.03006C12.9985 7.88066 12.9946 7.73091 12.9837 7.58125C12.9305 6.85038 12.7124 6.14041 12.3454 5.50309C11.9783 4.86577 11.4715 4.31715 10.8619 3.89723C10.7359 3.81044 10.6062 3.7296 10.4732 3.65489C10.1303 3.46232 9.7249 3.69492 9.65905 4.08259L9.19564 6.81086C9.14584 7.10407 9.30956 7.39176 9.58708 7.49871L12.2141 8.5111Z" fill="url(#paint2_linear_3514_40194)"/>
</g>
<defs>
<linearGradient id="paint0_linear_3514_40194" x1="1.4475" y1="2.27065" x2="13.6844" y2="14.7475" gradientUnits="userSpaceOnUse">
<stop stop-color="white"/>
<stop offset="1" stop-color="#EAECEE"/>
</linearGradient>
<linearGradient id="paint1_linear_3514_40194" x1="4.41466" y1="4.49495" x2="11.406" y2="11.1109" gradientUnits="userSpaceOnUse">
<stop stop-color="#0195FF"/>
<stop offset="0.991028" stop-color="#1147E9"/>
</linearGradient>
<linearGradient id="paint2_linear_3514_40194" x1="9.75001" y1="4.31671" x2="13.1111" y2="6.90577" gradientUnits="userSpaceOnUse">
<stop stop-color="#1348FF"/>
<stop offset="1" stop-color="#06238D"/>
</linearGradient>
<clipPath id="clip0_3514_40194">
<rect width="9.99999" height="9.99999" fill="white" transform="translate(2.99658 2.99951)"/>
</clipPath>
</defs>
</svg>
