<svg width="16" height="16" viewBox="0 0 16 16" fill="none" xmlns="http://www.w3.org/2000/svg">
<circle cx="7.99615" cy="7.99957" r="7.85696" fill="url(#paint0_linear_3514_40195)" stroke="#D5DADD" stroke-width="0.285708"/>
<g clip-path="url(#clip0_3514_40195)">
<path fill-rule="evenodd" clip-rule="evenodd" d="M4.23927 4.14046C3.99361 4.36617 3.80174 4.67997 3.79639 5.07321C3.79639 5.07321 3.80862 10.1382 3.80862 10.1369L3.80862 10.1376C3.80902 11.0207 4.53126 11.4978 5.17295 11.7342C5.37107 11.8072 5.58484 11.8673 5.80869 11.9157C6.15475 11.9906 6.46471 11.7122 6.46471 11.3581C6.46471 11.0623 6.24495 10.8171 5.95723 10.7485C5.81658 10.7149 5.68555 10.6762 5.56639 10.6323C5.02681 10.4335 4.96245 10.2312 4.96246 10.1369L4.96181 9.4176C5.1691 9.48129 5.38663 9.53358 5.60644 9.5764C5.78067 9.61034 5.95545 9.63756 6.13096 9.65942C6.34845 9.68652 6.53577 9.51155 6.53577 9.29238C6.53577 9.09983 6.38977 8.93859 6.19892 8.91308C6.07348 8.89631 5.94846 8.87657 5.82374 8.85227C5.4625 8.7819 5.17201 8.69344 4.95905 8.59896L4.9577 7.72115C5.16623 7.78541 5.38518 7.83811 5.60644 7.88121C6.20716 7.99823 6.8881 8.05623 7.56058 8.05767C8.23289 8.0591 8.91276 8.00403 9.51095 7.88736C9.7249 7.84563 9.93723 7.79439 10.14 7.73145C10.14 7.75603 10.1399 7.78062 10.1399 7.8052C10.1394 8.12474 10.3987 8.38398 10.7182 8.38398C11.0375 8.38398 11.2963 8.12515 11.2963 7.80587L11.2962 5.08132C11.2962 4.68205 11.1009 4.36486 10.8533 4.13906C10.6135 3.92026 10.3014 3.76227 9.97355 3.64623C9.31451 3.41297 8.44911 3.2998 7.53751 3.2998C6.62593 3.2998 5.76669 3.41296 5.11242 3.64683C4.78663 3.76328 4.47741 3.92165 4.23927 4.14046ZM4.95335 6.01087L4.95496 6.93711C5.16828 7.03227 5.46018 7.12142 5.82374 7.19224C6.34144 7.29309 6.94905 7.34642 7.56301 7.34773C8.17714 7.34904 8.7816 7.29826 9.29338 7.19844C9.65313 7.12827 9.93761 7.03938 10.1425 6.94499V6.00482C10.0869 6.02756 10.0306 6.04894 9.97372 6.06906C9.31469 6.30232 8.44928 6.41549 7.53769 6.41549C6.63364 6.41549 5.77663 6.30419 5.1225 6.0747C5.06553 6.05471 5.00905 6.03347 4.95335 6.01087Z" fill="url(#paint1_linear_3514_40195)"/>
<path fill-rule="evenodd" clip-rule="evenodd" d="M8.29115 9.146C7.69942 9.146 7.21973 9.62569 7.21973 10.2174V11.8657C7.21973 12.4575 7.69942 12.9372 8.29115 12.9372H12.0999C12.6916 12.9372 13.1713 12.4575 13.1713 11.8657V10.2174C13.1713 9.62569 12.6916 9.146 12.0999 9.146H8.29115ZM11.3546 12.113C11.287 12.113 11.2193 12.0868 11.1668 12.0357C11.0632 11.9321 11.0632 11.7636 11.1668 11.6599L11.7843 11.0425L11.1668 10.4236C11.0632 10.32 11.0632 10.1515 11.1668 10.0479C11.2704 9.94428 11.4389 9.94428 11.5425 10.0479L12.3478 10.8532C12.3976 10.903 12.4252 10.9706 12.4252 11.0411C12.4252 11.1115 12.3976 11.1792 12.3478 11.229L11.5425 12.0343C11.49 12.0868 11.4223 12.113 11.3546 12.113ZM9.03671 12.113C8.96902 12.113 8.90134 12.0868 8.84885 12.0357L8.04351 11.2303C7.93991 11.1267 7.93991 10.9582 8.04351 10.8546L8.84885 10.0493C8.95245 9.94566 9.12097 9.94566 9.22458 10.0493C9.32818 10.1529 9.32818 10.3214 9.22458 10.425L8.60572 11.0425L9.2232 11.6599C9.3268 11.7636 9.3268 11.9321 9.2232 12.0357C9.17209 12.0868 9.1044 12.113 9.03671 12.113ZM9.74259 12.0661C9.77851 12.0813 9.81442 12.0882 9.85034 12.0882C9.95256 12.0882 10.0493 12.0288 10.0921 11.9307L10.7828 10.3697C10.8422 10.2358 10.7814 10.0797 10.6474 10.0203C10.5134 9.96086 10.3573 10.0216 10.2979 10.1556L9.60722 11.7166C9.54782 11.8506 9.6086 12.0067 9.74259 12.0661Z" fill="url(#paint2_linear_3514_40195)"/>
</g>
<defs>
<linearGradient id="paint0_linear_3514_40195" x1="1.44726" y1="2.27065" x2="13.6842" y2="14.7475" gradientUnits="userSpaceOnUse">
<stop stop-color="white"/>
<stop offset="1" stop-color="#EAECEE"/>
</linearGradient>
<linearGradient id="paint1_linear_3514_40195" x1="4.92065" y1="4.5901" x2="10.9035" y2="9.79241" gradientUnits="userSpaceOnUse">
<stop stop-color="#0195FF"/>
<stop offset="0.991028" stop-color="#1147E9"/>
</linearGradient>
<linearGradient id="paint2_linear_3514_40195" x1="8.09963" y1="9.70376" x2="10.4998" y2="13.4879" gradientUnits="userSpaceOnUse">
<stop stop-color="#1348FF"/>
<stop offset="1" stop-color="#06238D"/>
</linearGradient>
<clipPath id="clip0_3514_40195">
<rect width="10" height="10" fill="white" transform="translate(3.79639 3.2998)"/>
</clipPath>
</defs>
</svg>
