<svg width="16" height="16" viewBox="0 0 16 16" fill="none" xmlns="http://www.w3.org/2000/svg">
<circle cx="7.99542" cy="7.99957" r="7.85696" fill="url(#paint0_linear_3514_40197)" stroke="#D5DADD" stroke-width="0.285708"/>
<g clip-path="url(#clip0_3514_40197)">
<path fill-rule="evenodd" clip-rule="evenodd" d="M7.40948 3.25268C7.89384 2.96363 8.49775 2.96362 8.98211 3.25268L11.8227 4.94788C12.2867 5.22474 12.5708 5.72521 12.5708 6.26548V9.7159C12.5708 10.2562 12.2867 10.7566 11.8227 11.0335L8.98211 12.7287C8.49775 13.0178 7.89385 13.0178 7.40948 12.7287L4.56888 11.0335C4.10494 10.7566 3.8208 10.2562 3.8208 9.7159L3.8208 6.26548C3.8208 5.72521 4.10494 5.22475 4.56888 4.94788L7.40948 3.25268ZM8.46965 4.11139C8.30096 4.01072 8.09063 4.01072 7.92194 4.11139L5.08134 5.80659C4.91976 5.90302 4.8208 6.07732 4.8208 6.26548L4.8208 9.7159C4.8208 9.90407 4.91976 10.0784 5.08134 10.1748L7.92194 11.87C8.09063 11.9707 8.30096 11.9707 8.46965 11.87L11.3103 10.1748C11.4718 10.0784 11.5708 9.90407 11.5708 9.7159V6.26548C11.5708 6.07732 11.4718 5.90302 11.3103 5.80659L8.46965 4.11139Z" fill="url(#paint1_linear_3514_40197)"/>
<path d="M6.51778 5.89565C6.44883 5.89225 6.39255 5.94858 6.39255 6.01762V6.69951C6.75446 6.80453 7.09039 6.98413 7.37873 7.22675C7.6466 7.09708 7.88962 6.92137 8.09671 6.70763C7.69229 6.32061 7.28674 5.93359 6.51778 5.89565Z" fill="url(#paint2_linear_3514_40197)"/>
<path d="M6.10435 8.65509C5.96241 8.65489 5.82243 8.68821 5.6958 8.75233V7.00945C5.6958 6.93828 5.75544 6.88119 5.82633 6.8875C6.6821 6.96368 7.19265 7.40564 7.68356 7.87235C7.7856 7.97022 7.89158 8.06892 8.00049 8.16575C7.57406 8.4957 7.0469 8.66852 6.5079 8.65509H6.10435Z" fill="url(#paint3_linear_3514_40197)"/>
<path d="M6.10433 8.95809H6.50372C7.64528 8.95809 8.22165 8.41144 8.7788 7.88302L8.78244 7.87957C9.26699 7.42011 9.72659 6.98431 10.5624 6.90383C10.6334 6.89699 10.6936 6.95413 10.6936 7.02555L10.6957 9.74942C10.6958 9.81849 10.6398 9.87452 10.5707 9.87452H5.82599C5.75695 9.87452 5.70099 9.81855 5.70099 9.74952V9.36165C5.70276 9.2552 5.74581 9.15361 5.82107 9.07832C5.89632 9.00302 5.99789 8.95992 6.10433 8.95809Z" fill="url(#paint4_linear_3514_40197)"/>
<path d="M8.21476 7.9928C8.09503 7.89035 7.97967 7.78249 7.8691 7.67588C7.78226 7.59238 7.69273 7.50887 7.60215 7.42746C7.89236 7.26075 8.15703 7.05309 8.38801 6.81089C8.75656 6.45597 9.11034 6.12076 9.73294 6.04515C9.80417 6.0365 9.86477 6.09373 9.86502 6.16549L9.86706 6.75737C9.3765 6.96511 8.9354 7.27422 8.57271 7.66442C8.45401 7.77728 8.33636 7.88869 8.21476 7.9928Z" fill="url(#paint5_linear_3514_40197)"/>
</g>
<defs>
<linearGradient id="paint0_linear_3514_40197" x1="1.44653" y1="2.27065" x2="13.6835" y2="14.7475" gradientUnits="userSpaceOnUse">
<stop stop-color="white"/>
<stop offset="1" stop-color="#EAECEE"/>
</linearGradient>
<linearGradient id="paint1_linear_3514_40197" x1="5.13246" y1="4.51781" x2="12.018" y2="10.5998" gradientUnits="userSpaceOnUse">
<stop stop-color="#0195FF"/>
<stop offset="0.991028" stop-color="#1147E9"/>
</linearGradient>
<linearGradient id="paint2_linear_3514_40197" x1="6.435" y1="6.48091" x2="9.14599" y2="9.90214" gradientUnits="userSpaceOnUse">
<stop stop-color="#1348FF"/>
<stop offset="1" stop-color="#06238D"/>
</linearGradient>
<linearGradient id="paint3_linear_3514_40197" x1="6.435" y1="6.48091" x2="9.14599" y2="9.90214" gradientUnits="userSpaceOnUse">
<stop stop-color="#1348FF"/>
<stop offset="1" stop-color="#06238D"/>
</linearGradient>
<linearGradient id="paint4_linear_3514_40197" x1="6.435" y1="6.48091" x2="9.14599" y2="9.90214" gradientUnits="userSpaceOnUse">
<stop stop-color="#1348FF"/>
<stop offset="1" stop-color="#06238D"/>
</linearGradient>
<linearGradient id="paint5_linear_3514_40197" x1="6.435" y1="6.48091" x2="9.14599" y2="9.90214" gradientUnits="userSpaceOnUse">
<stop stop-color="#1348FF"/>
<stop offset="1" stop-color="#06238D"/>
</linearGradient>
<clipPath id="clip0_3514_40197">
<rect width="9.99999" height="9.99999" fill="white" transform="translate(3.1958 2.99951)"/>
</clipPath>
</defs>
</svg>
