<svg width="16" height="16" viewBox="0 0 16 16" fill="none" xmlns="http://www.w3.org/2000/svg">
<circle cx="7.99591" cy="7.99957" r="7.85696" fill="url(#paint0_linear_3514_40196)" stroke="#D5DADD" stroke-width="0.285708"/>
<g clip-path="url(#clip0_3514_40196)">
<path fill-rule="evenodd" clip-rule="evenodd" d="M4.23878 4.14045C3.99312 4.36617 3.80125 4.67996 3.7959 5.0732C3.7959 5.0732 3.80813 10.1382 3.80813 10.1368L3.80813 10.1376C3.80845 10.839 4.41066 11.2114 5.06001 11.4479C5.43847 11.5857 5.82324 11.2832 5.82324 10.8804C5.82324 10.6234 5.66342 10.3914 5.4166 10.3196C5.12613 10.235 4.96196 10.2042 4.96196 10.1368L4.96132 9.41756C5.16861 9.48125 5.38614 9.53353 5.60594 9.57635C6.0959 9.6718 6.63761 9.72268 7.18558 9.73898C7.39108 9.74509 7.5582 9.5783 7.55887 9.37271C7.55954 9.1668 7.39297 9.00007 7.18717 8.99339C6.70354 8.97769 6.23563 8.93257 5.82324 8.85223C5.46201 8.78186 5.17152 8.6934 4.95856 8.59893L4.95721 7.72112C5.16574 7.78538 5.38469 7.83808 5.60594 7.88118C6.20666 7.9982 6.8876 8.0562 7.56008 8.05764C8.23238 8.05907 8.91225 8.004 9.51043 7.88732C9.72439 7.84559 9.93671 7.79435 10.1395 7.73142C10.1392 7.87041 10.1391 8.00939 10.139 8.14838C10.1388 8.46796 10.3979 8.72717 10.7175 8.72717C11.0369 8.72717 11.2958 8.46825 11.2958 8.14886L11.2957 5.0813C11.2957 4.68204 11.1003 4.36485 10.8528 4.13905C10.613 3.92026 10.3009 3.76227 9.97303 3.64623C9.314 3.41297 8.4486 3.2998 7.53701 3.2998C6.62543 3.2998 5.76619 3.41296 5.11192 3.64683C4.78614 3.76327 4.47692 3.92165 4.23878 4.14045ZM4.95286 6.01085L4.95446 6.93709C5.16779 7.03225 5.45969 7.12139 5.82324 7.19221C6.34094 7.29306 6.94855 7.34639 7.5625 7.3477C8.17664 7.34901 8.78109 7.29823 9.29287 7.19841C9.65262 7.12825 9.9371 7.03935 10.142 6.94496V6.00481C10.0864 6.02754 10.0301 6.04892 9.97321 6.06904C9.31418 6.3023 8.44878 6.41547 7.53719 6.41547C6.63314 6.41547 5.77613 6.30417 5.12201 6.07468C5.06504 6.05469 5.00856 6.03345 4.95286 6.01085Z" fill="url(#paint1_linear_3514_40196)"/>
<path fill-rule="evenodd" clip-rule="evenodd" d="M11.8823 11.6889C11.96 11.7664 12.061 11.8052 12.162 11.8052C12.263 11.8052 12.364 11.7664 12.4397 11.6909L13.6809 10.4529C13.8344 10.2999 13.8344 10.05 13.6809 9.89691L12.4397 8.65897C12.2863 8.50593 12.0357 8.50593 11.8823 8.65897C11.7289 8.81202 11.7289 9.06193 11.8823 9.21498L12.3892 9.72062L9.66705 9.72062C9.44951 9.72062 9.27275 9.89691 9.27275 10.1139C9.27275 10.3309 9.44951 10.5072 9.66705 10.5072L12.5097 10.5072L11.8823 11.1329C11.7289 11.286 11.7289 11.5359 11.8823 11.6889ZM8.47131 13.1834C8.39362 13.2609 8.29261 13.2997 8.19161 13.2997C8.09061 13.2997 7.98961 13.2609 7.91386 13.1854L6.6727 11.9474C6.51926 11.7944 6.51926 11.5445 6.6727 11.3914L7.91386 10.1535C8.0673 10.0004 8.31786 10.0004 8.47131 10.1535C8.62475 10.3065 8.62475 10.5564 8.47131 10.7095L7.96436 11.2151L10.6866 11.2151C10.9041 11.2151 11.0809 11.3914 11.0809 11.6084C11.0809 11.8254 10.9041 12.0017 10.6866 12.0017L7.84393 12.0017L8.47131 12.6274C8.62475 12.7805 8.62475 13.0304 8.47131 13.1834Z" fill="url(#paint2_linear_3514_40196)"/>
</g>
<defs>
<linearGradient id="paint0_linear_3514_40196" x1="1.44702" y1="2.27065" x2="13.6839" y2="14.7475" gradientUnits="userSpaceOnUse">
<stop stop-color="white"/>
<stop offset="1" stop-color="#EAECEE"/>
</linearGradient>
<linearGradient id="paint1_linear_3514_40196" x1="4.92016" y1="4.52335" x2="10.6276" y2="9.75689" gradientUnits="userSpaceOnUse">
<stop stop-color="#0195FF"/>
<stop offset="0.991028" stop-color="#1147E9"/>
</linearGradient>
<linearGradient id="paint2_linear_3514_40196" x1="7.62776" y1="9.24382" x2="10.6771" y2="13.9053" gradientUnits="userSpaceOnUse">
<stop stop-color="#1348FF"/>
<stop offset="1" stop-color="#06238D"/>
</linearGradient>
<clipPath id="clip0_3514_40196">
<rect width="9.99996" height="9.99996" fill="white" transform="translate(3.7959 3.2998)"/>
</clipPath>
</defs>
</svg>
