<svg width="16" height="16" viewBox="0 0 16 16" fill="none" xmlns="http://www.w3.org/2000/svg">
<circle cx="7.99933" cy="7.99908" r="7.85696" fill="url(#paint0_linear_3514_40202)" stroke="#D5DADD" stroke-width="0.285708"/>
<g clip-path="url(#clip0_3514_40202)">
<path fill-rule="evenodd" clip-rule="evenodd" d="M8.58292 4.11474C8.58292 3.8386 8.80678 3.61475 9.08292 3.61475H10.6264C11.5929 3.61475 12.3764 4.39825 12.3764 5.36474V6.69395C12.3764 6.9701 12.1525 7.19395 11.8764 7.19395C11.6002 7.19395 11.3764 6.9701 11.3764 6.69395V5.36474C11.3764 4.95053 11.0406 4.61474 10.6264 4.61474H9.08292C8.80678 4.61474 8.58292 4.39089 8.58292 4.11474ZM4.12158 8.53324C4.39772 8.53324 4.62158 8.7571 4.62158 9.03324V10.6281C4.62158 11.0423 4.95736 11.3781 5.37158 11.3781H7.06925C7.34539 11.3781 7.56925 11.6019 7.56925 11.8781C7.56925 12.1542 7.34539 12.3781 7.06925 12.3781H5.37158C4.40508 12.3781 3.62158 11.5946 3.62158 10.6281V9.03324C3.62158 8.7571 3.84544 8.53324 4.12158 8.53324Z" fill="url(#paint1_linear_3514_40202)"/>
<path fill-rule="evenodd" clip-rule="evenodd" d="M12.8432 11.9328C12.9474 12.037 12.9995 12.1477 12.9995 12.2649C12.9995 12.3951 12.9474 12.5123 12.8432 12.6164C12.7391 12.7206 12.6219 12.7727 12.4917 12.7727C12.3745 12.7727 12.2638 12.7206 12.1596 12.6164L10.7729 11.2297C10.3693 11.5813 9.91356 11.7506 9.40575 11.7375C8.89794 11.7115 8.45524 11.5097 8.07763 11.1321L7.62842 10.6828C7.52425 10.5787 7.47217 10.468 7.47217 10.3508C7.47217 10.2206 7.52425 10.1034 7.62842 9.99926L10.1675 7.4602C10.2716 7.35604 10.3888 7.30396 10.519 7.30396C10.6492 7.30396 10.7664 7.35604 10.8706 7.4602L11.3198 7.90942C11.6974 8.28702 11.8927 8.72322 11.9057 9.21801C11.9318 9.69978 11.782 10.136 11.4565 10.5266L12.8432 11.9328Z" fill="url(#paint2_linear_3514_40202)"/>
<path d="M7.71518 8.70406C7.61101 8.80823 7.49382 8.86031 7.36361 8.86031C7.24642 8.86031 7.13575 8.80823 7.03158 8.70406L6.13314 7.80563L5.74252 8.19625C5.63835 8.30042 5.52116 8.3525 5.39095 8.3525C5.24773 8.3525 5.13054 8.30042 5.03939 8.19625L4.59017 7.76657C4.21257 7.38896 4.01075 6.95928 3.9847 6.47751C3.95866 5.98272 4.09538 5.5335 4.39486 5.12986L3.15576 3.85839C3.0516 3.75423 2.99951 3.63704 2.99951 3.50683C2.99951 3.37663 3.0516 3.25944 3.15576 3.15527C3.25993 3.05111 3.37061 2.99902 3.48779 2.99902C3.618 2.99902 3.73519 3.05111 3.83936 3.15527L5.07845 4.42674C5.4821 4.10122 5.93783 3.95148 6.44564 3.97752C6.95346 4.00356 7.39616 4.20538 7.77377 4.58299L8.22299 5.0322C8.31413 5.12335 8.35971 5.24053 8.35971 5.38376C8.35971 5.51397 8.31413 5.62465 8.22299 5.71579L7.81283 6.12595L8.71127 7.00485C8.81544 7.10902 8.86752 7.2262 8.86752 7.35641C8.86752 7.48662 8.81544 7.60381 8.71127 7.70797C8.6071 7.81214 8.48992 7.86422 8.35971 7.86422C8.2295 7.86422 8.11231 7.81214 8.00814 7.70797L7.12924 6.80954L6.81674 7.12204L7.26596 7.56149L7.71518 8.00094C7.81934 8.10511 7.87143 8.22229 7.87143 8.3525C7.87143 8.48271 7.81934 8.5999 7.71518 8.70406Z" fill="url(#paint3_linear_3514_40202)"/>
</g>
<defs>
<linearGradient id="paint0_linear_3514_40202" x1="1.45043" y1="2.27016" x2="13.6874" y2="14.747" gradientUnits="userSpaceOnUse">
<stop stop-color="white"/>
<stop offset="1" stop-color="#EAECEE"/>
</linearGradient>
<linearGradient id="paint1_linear_3514_40202" x1="4.93396" y1="4.92525" x2="11.07" y2="11.0574" gradientUnits="userSpaceOnUse">
<stop stop-color="#0195FF"/>
<stop offset="0.991028" stop-color="#1147E9"/>
</linearGradient>
<linearGradient id="paint2_linear_3514_40202" x1="8.29938" y1="8.12444" x2="12.1284" y2="11.9918" gradientUnits="userSpaceOnUse">
<stop stop-color="#00BBFF"/>
<stop offset="1" stop-color="#008BFF"/>
</linearGradient>
<linearGradient id="paint3_linear_3514_40202" x1="3.86706" y1="3.86134" x2="7.96902" y2="7.98571" gradientUnits="userSpaceOnUse">
<stop stop-color="#1348FF"/>
<stop offset="1" stop-color="#06238D"/>
</linearGradient>
<clipPath id="clip0_3514_40202">
<rect width="9.99996" height="9.99996" fill="white" transform="translate(2.99927 2.99902)"/>
</clipPath>
</defs>
</svg>
