<svg width="16" height="16" viewBox="0 0 16 16" fill="none" xmlns="http://www.w3.org/2000/svg">
<circle cx="7.99982" cy="7.99908" r="7.85696" fill="url(#paint0_linear_3514_40201)" stroke="#D5DADD" stroke-width="0.285708"/>
<g clip-path="url(#clip0_3514_40201)">
<path d="M13.0486 7.53626C13.1355 7.75591 13.1801 7.99002 13.1801 8.22625V9.01341C13.1801 9.35195 13.076 9.65794 12.8676 9.93138C12.6723 10.2048 12.4054 10.3806 12.0669 10.4587C12.132 10.628 12.1645 10.8103 12.1645 11.0056C12.1645 11.4353 12.0213 11.7934 11.7348 12.0798C11.4484 12.3663 11.0968 12.5095 10.6802 12.5095C10.2505 12.5095 9.8924 12.3663 9.60594 12.0798C9.31948 11.7934 9.17625 11.4353 9.17625 11.0056C9.17625 10.8363 9.2088 10.6671 9.27391 10.4978H7.12548C7.15152 10.5759 7.17105 10.654 7.18407 10.7322C7.21011 10.8103 7.22313 10.9014 7.22313 11.0056C7.22313 11.4353 7.0734 11.7934 6.77392 12.0798C6.48746 12.3663 6.1359 12.5095 5.71923 12.5095C5.28955 12.5095 4.93148 12.3663 4.64502 12.0798C4.35856 11.7934 4.21533 11.4353 4.21533 11.0056C4.21533 10.9014 4.22184 10.8038 4.23486 10.7126C4.26091 10.6215 4.28695 10.5368 4.31299 10.4587C3.98747 10.3806 3.72054 10.2048 3.51221 9.93138C3.3169 9.65794 3.21924 9.35195 3.21924 9.01341L3.21924 8.30737C3.21924 8.03231 3.44222 7.80932 3.71729 7.80932L-nan -nanL-nan -nanL3.71729 7.80932C3.99235 7.80932 4.21533 8.03231 4.21533 8.30737V9.01341C4.21533 9.33893 4.3846 9.50169 4.72314 9.50169H11.7153C12.0538 9.50169 12.2231 9.33893 12.2231 9.01341V8.5056H9.72313C9.5799 8.5056 9.4562 8.46003 9.35203 8.36888C9.26089 8.27774 9.21532 8.15404 9.21532 7.99779V5.4978C9.21532 5.08764 9.5421 5.00953 10.1137 5.00952H11.7153C11.8195 5.00952 11.9106 5.03556 11.9887 5.08765C12.0799 5.12671 12.1385 5.19832 12.1645 5.30249L13.0486 7.53626ZM6.22704 11.0056C6.22704 10.8624 6.17496 10.7452 6.0708 10.654C5.97965 10.5499 5.86246 10.4978 5.71923 10.4978C5.57601 10.4978 5.45231 10.5499 5.34814 10.654C5.257 10.7452 5.21142 10.8624 5.21142 11.0056C5.21142 11.1488 5.257 11.2725 5.34814 11.3767C5.45231 11.4678 5.57601 11.5134 5.71923 11.5134C5.86246 11.5134 5.97965 11.4678 6.0708 11.3767C6.17496 11.2725 6.22704 11.1488 6.22704 11.0056ZM10.7192 11.5134C10.8755 11.5134 10.9992 11.4678 11.0903 11.3767C11.1815 11.2725 11.227 11.1488 11.227 11.0056C11.227 10.8624 11.1815 10.7452 11.0903 10.654C10.9992 10.5499 10.8755 10.4978 10.7192 10.4978C10.576 10.4978 10.4588 10.5499 10.3677 10.654C10.2765 10.7452 10.2309 10.8624 10.2309 11.0056C10.2309 11.1488 10.2765 11.2725 10.3677 11.3767C10.4588 11.4678 10.576 11.5134 10.7192 11.5134Z" fill="url(#paint1_linear_3514_40201)"/>
<path fill-rule="evenodd" clip-rule="evenodd" d="M4.2171 4.52285C4.31127 3.84679 4.87649 3.19922 5.67201 3.19922C6.30489 3.19922 6.77872 3.55424 7.03397 4.08207C7.67075 4.14223 8.19969 4.71097 8.19969 5.45106C8.19969 6.32584 7.50229 6.85863 6.76312 6.81747H4.37771C4.02143 6.81747 3.71884 6.70667 3.50571 6.48796C3.294 6.27072 3.19971 5.97688 3.19971 5.66602C3.19971 5.33151 3.32233 5.01432 3.55975 4.79579C3.73524 4.63425 3.9612 4.53808 4.2171 4.52285Z" fill="url(#paint2_linear_3514_40201)"/>
</g>
<defs>
<linearGradient id="paint0_linear_3514_40201" x1="1.45092" y1="2.27016" x2="13.6878" y2="14.747" gradientUnits="userSpaceOnUse">
<stop stop-color="white"/>
<stop offset="1" stop-color="#EAECEE"/>
</linearGradient>
<linearGradient id="paint1_linear_3514_40201" x1="4.71242" y1="6.1311" x2="9.75881" y2="12.8357" gradientUnits="userSpaceOnUse">
<stop stop-color="#0195FF"/>
<stop offset="0.991028" stop-color="#1147E9"/>
</linearGradient>
<linearGradient id="paint2_linear_3514_40201" x1="3.948" y1="3.74241" x2="6.35696" y2="7.06694" gradientUnits="userSpaceOnUse">
<stop stop-color="#00BBFF"/>
<stop offset="1" stop-color="#008BFF"/>
</linearGradient>
<clipPath id="clip0_3514_40201">
<rect width="9.99996" height="9.99996" fill="white" transform="translate(3.19971 3.19922)"/>
</clipPath>
</defs>
</svg>
