<svg width="16" height="16" viewBox="0 0 16 16" fill="none" xmlns="http://www.w3.org/2000/svg">
<circle cx="7.99445" cy="7.99957" r="7.85696" fill="url(#paint0_linear_3514_40200)" stroke="#D5DADD" stroke-width="0.285708"/>
<g clip-path="url(#clip0_3514_40200)">
<path fill-rule="evenodd" clip-rule="evenodd" d="M9.00899 12.3057C8.99321 12.2798 8.97788 12.2536 8.963 12.2272C8.82225 11.9776 8.70913 11.6904 8.62799 11.3779C8.38995 11.3452 8.14526 11.3036 7.89058 11.2528C8.13782 11.7145 8.53125 12.0861 9.00899 12.3057ZM7.61354 10.298C7.92134 10.3692 8.21114 10.4272 8.48931 10.4725C8.48416 10.38 8.48155 10.2866 8.48155 10.1923C8.48155 10.0563 8.487 9.92192 8.49765 9.7898C8.22597 9.76144 7.94435 9.7239 7.64748 9.6762C7.62085 9.81954 7.60693 9.96735 7.60693 10.1184C7.60693 10.1788 7.60916 10.2387 7.61354 10.298ZM9.57102 11.4632C9.61687 11.5853 9.66872 11.6973 9.7252 11.7975C9.82018 11.9659 9.91838 12.0865 10.0132 12.1697C10.1079 12.0865 10.2061 11.9659 10.3011 11.7975C10.3586 11.6956 10.4112 11.5815 10.4576 11.4569C10.1608 11.473 9.86775 11.4753 9.57102 11.4632ZM10.6529 10.5668C10.2202 10.6017 9.80356 10.6056 9.37429 10.5763C9.36268 10.4522 9.35655 10.324 9.35655 10.1923C9.35655 10.0759 9.36135 9.96205 9.3705 9.85146C9.8015 9.86689 10.221 9.85929 10.6543 9.83321C10.6644 9.94952 10.6698 10.0694 10.6698 10.1923C10.6698 10.3206 10.6639 10.4457 10.6529 10.5668ZM11.4022 11.363C11.3208 11.6813 11.2063 11.9736 11.0633 12.2272C11.0484 12.2536 11.0331 12.2798 11.0173 12.3058C11.4995 12.084 11.8959 11.7075 12.1427 11.2398C11.8869 11.2882 11.6411 11.3294 11.4022 11.363ZM12.4132 10.2931C12.105 10.3582 11.8152 10.4133 11.5378 10.4579C11.5424 10.3702 11.5448 10.2816 11.5448 10.1923C11.5448 10.0461 11.5384 9.90163 11.5262 9.7599C11.7972 9.73159 12.0788 9.69793 12.3758 9.65985C12.4044 9.8083 12.4194 9.9616 12.4194 10.1184C12.4194 10.1772 12.4173 10.2354 12.4132 10.2931ZM9.54931 8.98139C9.85639 8.98839 10.1601 8.98303 10.4719 8.96703C10.4221 8.82707 10.3645 8.69969 10.3011 8.58719C10.2061 8.41873 10.1079 8.2982 10.0132 8.21501C9.91838 8.2982 9.82018 8.41873 9.7252 8.58719C9.65961 8.70353 9.60027 8.83577 9.54931 8.98139ZM11.3681 8.89658C11.5833 8.87469 11.8061 8.84911 12.0396 8.82028C11.7649 8.39238 11.3584 8.05717 10.8774 7.87201C10.9456 7.96272 11.0076 8.05866 11.0633 8.15745C11.1873 8.37744 11.2899 8.62662 11.3681 8.89658ZM7.97342 8.84132C8.20767 8.87621 8.43199 8.90423 8.64986 8.92591C8.72899 8.64465 8.83448 8.38539 8.963 8.15745C9.01869 8.05867 9.08073 7.96274 9.14889 7.87204C8.66007 8.06024 8.24819 8.40339 7.97342 8.84132ZM10.0132 13.3997C11.8254 13.3997 13.2944 11.9306 13.2944 10.1184C13.2944 8.30622 11.8254 6.83716 10.0132 6.83716C8.201 6.83716 6.73193 8.30622 6.73193 10.1184C6.73193 11.9306 8.201 13.3997 10.0132 13.3997Z" fill="url(#paint1_linear_3514_40200)"/>
<path fill-rule="evenodd" clip-rule="evenodd" d="M3.32617 4.87305C3.33566 4.05144 4.0044 3.39038 4.82606 3.39038H11.0107C11.8392 3.39038 12.5107 4.06195 12.5107 4.89038V5.3034C12.5107 5.57955 12.2869 5.8034 12.0107 5.8034C11.7346 5.8034 11.5107 5.57955 11.5107 5.3034V4.89038C11.5107 4.61424 11.2869 4.39038 11.0107 4.39038H4.82606C4.55218 4.39038 4.32926 4.61073 4.3261 4.8846L4.31665 5.70264H7.19559C7.47173 5.70264 7.69558 5.9265 7.69558 6.20264C7.69558 6.47878 7.47173 6.70264 7.19559 6.70264H4.30509L4.26957 9.77675C4.26635 10.0551 4.49113 10.2825 4.76953 10.2825H5.43443C5.71057 10.2825 5.93443 10.5064 5.93443 10.7825C5.93443 11.0587 5.71057 11.2825 5.43443 11.2825H4.76953C3.93433 11.2825 3.25998 10.6003 3.26963 9.76519L3.31033 6.24324C3.30926 6.22985 3.30871 6.21631 3.30871 6.20264C3.30871 6.185 3.30962 6.16757 3.31141 6.15039L3.32617 4.87305Z" fill="url(#paint2_linear_3514_40200)"/>
</g>
<defs>
<linearGradient id="paint0_linear_3514_40200" x1="1.44555" y1="2.27065" x2="13.6825" y2="14.7475" gradientUnits="userSpaceOnUse">
<stop stop-color="white"/>
<stop offset="1" stop-color="#EAECEE"/>
</linearGradient>
<linearGradient id="paint1_linear_3514_40200" x1="7.70216" y1="7.80264" x2="12.2949" y2="12.4152" gradientUnits="userSpaceOnUse">
<stop stop-color="#1348FF"/>
<stop offset="1" stop-color="#06238D"/>
</linearGradient>
<linearGradient id="paint2_linear_3514_40200" x1="4.65483" y1="4.5706" x2="10.1125" y2="10.9634" gradientUnits="userSpaceOnUse">
<stop stop-color="#0195FF"/>
<stop offset="0.991028" stop-color="#1147E9"/>
</linearGradient>
<clipPath id="clip0_3514_40200">
<rect width="10" height="10" fill="white" transform="translate(3.29443 3.39966)"/>
</clipPath>
</defs>
</svg>
