<svg width="16" height="16" viewBox="0 0 16 16" fill="none" xmlns="http://www.w3.org/2000/svg">
<circle cx="7.99493" cy="7.99933" r="7.85696" fill="url(#paint0_linear_3890_21445)" stroke="#D5DADD" stroke-width="0.285708"/>
<g clip-path="url(#clip0_3890_21445)">
<path d="M8.82951 8.25646H7.28347L8.04113 6.20455H8.07065L8.82951 8.25646Z" fill="url(#paint1_linear_3890_21445)"/>
<path fill-rule="evenodd" clip-rule="evenodd" d="M7.65381 12.9993H8.3374C8.57177 12.9993 8.78011 12.9211 8.9624 12.7649C9.14469 12.6217 9.26188 12.4329 9.31396 12.1985L9.43115 11.554L10.2905 11.0461L10.8765 11.3C10.9936 11.3391 11.1173 11.3586 11.2476 11.3586C11.4298 11.3586 11.5991 11.3131 11.7554 11.2219C11.9246 11.1308 12.0548 10.9941 12.146 10.8118L12.4976 10.0891C12.5757 9.94588 12.6147 9.79614 12.6147 9.63989C12.6147 9.31437 12.478 9.04744 12.2046 8.83911L11.7358 8.50708V7.49145L12.2046 7.13989C12.478 6.94458 12.6147 6.68416 12.6147 6.35864C12.6147 6.18937 12.5757 6.03963 12.4976 5.90942L12.146 5.18677C12.0548 5.00448 11.9246 4.86776 11.7554 4.77661C11.5991 4.68546 11.4298 4.63989 11.2476 4.63989C11.1043 4.63989 10.9806 4.66593 10.8765 4.71802L10.2905 4.95239L9.43115 4.44458L9.31396 3.80005C9.26188 3.56567 9.14469 3.37687 8.9624 3.23364C8.78011 3.07739 8.57177 2.99927 8.3374 2.99927H7.65381C7.41943 2.99927 7.2111 3.07739 7.02881 3.23364C6.84652 3.37687 6.72933 3.56567 6.67724 3.80005L6.54053 4.44458L5.70068 4.95239L5.11475 4.71802C5.01058 4.66593 4.88688 4.63989 4.74365 4.63989C4.56136 4.63989 4.38558 4.68546 4.21631 4.77661C4.06006 4.86776 3.93636 5.00448 3.84521 5.18677L3.47412 5.90942C3.40902 6.06567 3.37646 6.2089 3.37646 6.33911C3.37646 6.67765 3.50667 6.94458 3.76709 7.13989L4.23584 7.49145V8.50708L3.78662 8.83911C3.51318 9.04744 3.37646 9.32088 3.37646 9.65942C3.37646 9.78963 3.40902 9.93286 3.47412 10.0891L3.84521 10.8118C3.93636 10.9941 4.06006 11.1308 4.21631 11.2219C4.38558 11.3131 4.56136 11.3586 4.74365 11.3586C4.86084 11.3586 4.98454 11.3391 5.11475 11.3L5.70068 11.0461L6.54053 11.554L6.67724 12.1985C6.71631 12.4329 6.82698 12.6217 7.00928 12.7649C7.20459 12.9211 7.41943 12.9993 7.65381 12.9993ZM6.14248 9.80208C6.20272 9.89647 6.29676 9.94366 6.42459 9.94366C6.488 9.94366 6.55015 9.92285 6.61102 9.88123C6.6719 9.83961 6.71343 9.79038 6.73561 9.73353L7.08437 8.81007H9.02694L9.36435 9.72461C9.38379 9.78617 9.42278 9.83806 9.48132 9.8803C9.53986 9.92254 9.60556 9.94366 9.67844 9.94366C9.81724 9.94366 9.91857 9.89498 9.98244 9.79763C10.0463 9.70028 10.052 9.58715 9.99941 9.45827L8.59301 5.88266C8.55359 5.786 8.48347 5.70281 8.38266 5.63311C8.28184 5.56341 8.17996 5.52856 8.07699 5.52856C7.97248 5.52856 7.87034 5.56309 7.77056 5.63214C7.6708 5.7012 7.60175 5.7847 7.56342 5.88266L6.12661 9.47609C6.07695 9.59904 6.08224 9.7077 6.14248 9.80208Z" fill="url(#paint2_linear_3890_21445)"/>
</g>
<defs>
<linearGradient id="paint0_linear_3890_21445" x1="1.44604" y1="2.27041" x2="13.683" y2="14.7473" gradientUnits="userSpaceOnUse">
<stop stop-color="white"/>
<stop offset="1" stop-color="#EAECEE"/>
</linearGradient>
<linearGradient id="paint1_linear_3890_21445" x1="4.76132" y1="4.4947" x2="11.7415" y2="10.9455" gradientUnits="userSpaceOnUse">
<stop stop-color="#0195FF"/>
<stop offset="0.991028" stop-color="#1147E9"/>
</linearGradient>
<linearGradient id="paint2_linear_3890_21445" x1="4.76132" y1="4.4947" x2="11.7415" y2="10.9455" gradientUnits="userSpaceOnUse">
<stop stop-color="#0195FF"/>
<stop offset="0.991028" stop-color="#1147E9"/>
</linearGradient>
<clipPath id="clip0_3890_21445">
<rect width="10" height="10" fill="white" transform="translate(2.99512 2.99927)"/>
</clipPath>
</defs>
</svg>
