<svg width="16" height="16" viewBox="0 0 16 16" fill="none" xmlns="http://www.w3.org/2000/svg">
<circle cx="7.99445" cy="7.99933" r="7.85696" fill="url(#paint0_linear_3890_21447)" stroke="#D5DADD" stroke-width="0.285708"/>
<g clip-path="url(#clip0_3890_21447)">
<path d="M13.0432 7.5365C13.1301 7.75616 13.1748 7.99026 13.1748 8.22649V9.01366C13.1748 9.3522 13.0706 9.65819 12.8623 9.93162C12.667 10.2051 12.4 10.3808 12.0615 10.459C12.1266 10.6282 12.1592 10.8105 12.1592 11.0058C12.1592 11.4355 12.0159 11.7936 11.7295 12.0801C11.443 12.3665 11.0914 12.5097 10.6748 12.5097C10.2451 12.5097 9.88702 12.3665 9.60057 12.0801C9.31411 11.7936 9.17088 11.4355 9.17088 11.0058C9.17088 10.8366 9.20343 10.6673 9.26854 10.498H7.12011C7.14615 10.5762 7.16568 10.6543 7.1787 10.7324C7.20474 10.8105 7.21776 10.9017 7.21776 11.0058C7.21776 11.4355 7.06802 11.7936 6.76855 12.0801C6.48209 12.3665 6.13053 12.5097 5.71386 12.5097C5.28418 12.5097 4.92611 12.3665 4.63965 12.0801C4.35319 11.7936 4.20996 11.4355 4.20996 11.0058C4.20996 10.9017 4.21647 10.804 4.22949 10.7129C4.25553 10.6217 4.28158 10.5371 4.30762 10.459C3.9821 10.3808 3.71517 10.2051 3.50684 9.93162C3.31153 9.65819 3.21387 9.3522 3.21387 9.01366L3.21387 8.30762C3.21387 8.03255 3.43685 7.80957 3.71191 7.80957C3.98698 7.80957 4.20996 8.03255 4.20996 8.30761V9.01366C4.20996 9.33918 4.37923 9.50194 4.71777 9.50194H11.7099C12.0485 9.50194 12.2177 9.33918 12.2177 9.01366V8.50585H9.71775C9.57453 8.50585 9.45083 8.46027 9.34666 8.36913C9.25552 8.27798 9.20994 8.15428 9.20994 7.99804V5.49804C9.20994 5.08788 9.53673 5.00977 10.1084 5.00977H11.7099C11.8141 5.00977 11.9052 5.03581 11.9834 5.08789C12.0745 5.12695 12.1331 5.19857 12.1592 5.30273L13.0432 7.5365ZM6.22167 11.0058C6.22167 10.8626 6.16959 10.7454 6.06542 10.6543C5.97428 10.5501 5.85709 10.498 5.71386 10.498C5.57063 10.498 5.44694 10.5501 5.34277 10.6543C5.25163 10.7454 5.20605 10.8626 5.20605 11.0058C5.20605 11.1491 5.25163 11.2728 5.34277 11.3769C5.44694 11.4681 5.57063 11.5136 5.71386 11.5136C5.85709 11.5136 5.97428 11.4681 6.06542 11.3769C6.16959 11.2728 6.22167 11.1491 6.22167 11.0058ZM10.7138 11.5136C10.8701 11.5136 10.9938 11.4681 11.0849 11.3769C11.1761 11.2728 11.2217 11.1491 11.2217 11.0058C11.2217 10.8626 11.1761 10.7454 11.0849 10.6543C10.9938 10.5501 10.8701 10.498 10.7138 10.498C10.5706 10.498 10.4534 10.5501 10.3623 10.6543C10.2711 10.7454 10.2256 10.8626 10.2256 11.0058C10.2256 11.1491 10.2711 11.2728 10.3623 11.3769C10.4534 11.4681 10.5706 11.5136 10.7138 11.5136Z" fill="url(#paint1_linear_3890_21447)"/>
<path fill-rule="evenodd" clip-rule="evenodd" d="M4.21173 4.5231C4.3059 3.84703 4.87112 3.19946 5.66664 3.19946C6.29952 3.19946 6.77335 3.55448 7.0286 4.08232C7.66538 4.14247 8.19432 4.71122 8.19432 5.4513C8.19432 6.32608 7.49692 6.85887 6.75775 6.81771H4.37234C4.01605 6.81771 3.71347 6.70692 3.50034 6.48821C3.28863 6.27096 3.19434 5.97712 3.19434 5.66626C3.19434 5.33176 3.31696 5.01456 3.55438 4.79603C3.72987 4.6345 3.95583 4.53833 4.21173 4.5231Z" fill="url(#paint2_linear_3890_21447)"/>
</g>
<defs>
<linearGradient id="paint0_linear_3890_21447" x1="1.44555" y1="2.27041" x2="13.6825" y2="14.7473" gradientUnits="userSpaceOnUse">
<stop stop-color="white"/>
<stop offset="1" stop-color="#EAECEE"/>
</linearGradient>
<linearGradient id="paint1_linear_3890_21447" x1="4.70705" y1="6.13134" x2="9.75344" y2="12.8359" gradientUnits="userSpaceOnUse">
<stop stop-color="#0195FF"/>
<stop offset="0.991028" stop-color="#1147E9"/>
</linearGradient>
<linearGradient id="paint2_linear_3890_21447" x1="3.94262" y1="3.74265" x2="6.35159" y2="7.06718" gradientUnits="userSpaceOnUse">
<stop stop-color="#00BBFF"/>
<stop offset="1" stop-color="#008BFF"/>
</linearGradient>
<clipPath id="clip0_3890_21447">
<rect width="9.99996" height="9.99996" fill="white" transform="translate(3.19434 3.19946)"/>
</clipPath>
</defs>
</svg>
