<svg width="16" height="16" viewBox="0 0 16 16" fill="none" xmlns="http://www.w3.org/2000/svg">
<circle cx="7.99786" cy="7.99908" r="7.85696" fill="url(#paint0_linear_3514_40206)" stroke="#D5DADD" stroke-width="0.285708"/>
<g clip-path="url(#clip0_3514_40206)">
<path d="M5.25028 6.19339C5.14225 4.75814 6.29241 3.19946 7.93557 3.19946C9.20842 3.19946 10.1424 3.97108 10.5882 5.16861C11.8246 5.08224 12.9975 6.13394 12.9975 7.64406C12.9975 8.60454 12.5411 9.334 11.8815 9.74254V8.46475C11.8815 8.41938 11.8772 8.38338 11.876 8.37302C11.8741 8.35699 11.8721 8.34343 11.8706 8.33436C11.8676 8.31593 11.8643 8.29896 11.8617 8.28581C11.8562 8.25899 11.8493 8.22912 11.8418 8.20007C11.8357 8.17669 11.8232 8.13019 11.8048 8.08115L11.8042 8.07969C11.8009 8.07102 11.7919 8.04703 11.7766 8.01509C11.5642 7.46017 11.0632 7.09777 10.5676 6.88184C10.0219 6.6441 9.34819 6.51998 8.62925 6.51998C7.91094 6.51998 7.23741 6.64316 6.69129 6.88041C6.18232 7.10154 5.66935 7.4761 5.46467 8.05403C5.41983 8.15733 5.37705 8.2977 5.37705 8.46771V10.107H5.03886C3.69297 10.107 2.99756 9.28054 2.99756 8.12514C2.99756 6.91259 3.88319 5.95564 5.25028 6.19339Z" fill="url(#paint1_linear_3514_40206)"/>
<path fill-rule="evenodd" clip-rule="evenodd" d="M8.62941 7.26978C9.90719 7.26978 10.9004 7.71448 11.0931 8.33114C11.1027 8.3215 11.1316 8.4482 11.1316 8.46455V11.9184C11.1316 12.6477 10.0554 13.1992 8.62941 13.1992C7.20338 13.1992 6.1272 12.6477 6.1272 11.9184V8.46751C6.1272 8.41711 6.14202 8.37264 6.16277 8.33114C6.35844 7.71152 7.35162 7.26978 8.62941 7.26978ZM10.5387 8.55053C10.5387 8.27777 9.77674 7.86272 8.62941 7.86272C7.48207 7.86272 6.72014 8.27777 6.72014 8.55053C6.72014 8.82328 7.48207 9.23834 8.62941 9.23834C9.77674 9.23834 10.5387 8.82328 10.5387 8.55053ZM10.6107 10.0742C10.6107 9.86708 10.4428 9.69919 10.2357 9.69919C10.0286 9.69919 9.86074 9.86708 9.86074 10.0742V11.8073C9.86074 12.0144 10.0286 12.1823 10.2357 12.1823C10.4428 12.1823 10.6107 12.0144 10.6107 11.8073L10.6107 10.0742Z" fill="url(#paint2_linear_3514_40206)"/>
</g>
<defs>
<linearGradient id="paint0_linear_3514_40206" x1="1.44897" y1="2.27016" x2="13.6859" y2="14.747" gradientUnits="userSpaceOnUse">
<stop stop-color="white"/>
<stop offset="1" stop-color="#EAECEE"/>
</linearGradient>
<linearGradient id="paint1_linear_3514_40206" x1="4.49659" y1="4.23245" x2="9.01955" y2="10.7825" gradientUnits="userSpaceOnUse">
<stop stop-color="#0195FF"/>
<stop offset="0.991028" stop-color="#1147E9"/>
</linearGradient>
<linearGradient id="paint2_linear_3514_40206" x1="6.86707" y1="8.14212" x2="10.9607" y2="11.612" gradientUnits="userSpaceOnUse">
<stop stop-color="#1348FF"/>
<stop offset="1" stop-color="#06238D"/>
</linearGradient>
<clipPath id="clip0_3514_40206">
<rect width="9.99991" height="9.99992" fill="white" transform="translate(2.9978 3.19922)"/>
</clipPath>
</defs>
</svg>
