<svg width="16" height="16" viewBox="0 0 16 16" fill="none" xmlns="http://www.w3.org/2000/svg">
<circle cx="7.99835" cy="7.99908" r="7.85696" fill="url(#paint0_linear_3514_40205)" stroke="#D5DADD" stroke-width="0.285708"/>
<g clip-path="url(#clip0_3514_40205)">
<path fill-rule="evenodd" clip-rule="evenodd" d="M10.0025 3.2168H7.34619C7.24676 3.2168 7.1514 3.2563 7.08109 3.32661C7.01078 3.39692 6.97128 3.49228 6.97128 3.59171V4.90786C6.97128 5.21533 6.86147 5.47887 6.64185 5.69849C6.42223 5.91811 6.15869 6.02792 5.85122 6.02792H4.53507C4.43564 6.02792 4.34028 6.06742 4.26997 6.13773C4.19966 6.20804 4.16016 6.3034 4.16016 6.40283V11.2992C4.16016 11.7963 4.5631 12.1992 5.06016 12.1992H7.3989C7.2302 12.0312 7.07636 11.8483 6.93951 11.6526C6.83269 11.4998 6.86994 11.2894 7.02269 11.1826C7.17545 11.0758 7.38587 11.113 7.49268 11.2658C7.71795 11.5879 7.99861 11.8686 8.32076 12.0938C8.3618 12.1225 8.39449 12.1587 8.4183 12.1992H10.0025C10.4214 12.1992 10.7735 11.913 10.8738 11.5254C10.745 11.549 10.6121 11.5608 10.4756 11.5608H10.0142C9.7542 11.5608 9.53194 11.4519 9.36575 11.2857C9.22968 11.1497 9.14244 10.9809 9.11239 10.7946L8.75053 10.7986C8.51572 10.7986 8.27857 10.7201 8.09202 10.5335C7.90547 10.347 7.82697 10.1098 7.82697 9.87503C7.82697 9.69833 7.87142 9.52032 7.97291 9.36353C7.87142 9.20674 7.82697 9.02872 7.82697 8.85203C7.82697 8.61722 7.90547 8.38007 8.09202 8.19352C8.28319 8.00234 8.52477 7.9385 8.7405 7.9385L9.11345 7.9385C9.1424 7.75888 9.22199 7.58507 9.36575 7.44132C9.54246 7.2646 9.77479 7.16718 10.0312 7.17598L10.4693 7.16624H10.4756C10.6221 7.16624 10.7647 7.17927 10.9025 7.20581V6.06761C10.8751 6.0696 10.8471 6.06828 10.8189 6.06329C10.6289 6.02971 10.4332 6.01216 10.2331 6.01216C10.0329 6.01216 9.83717 6.02971 9.64718 6.06329C9.46363 6.09573 9.28854 5.97323 9.2561 5.78968C9.22366 5.60613 9.34616 5.43103 9.52971 5.39859C9.75831 5.35819 9.99336 5.33716 10.2331 5.33716C10.4609 5.33716 10.6846 5.35617 10.9025 5.39275V4.1168C10.9025 3.61974 10.4995 3.2168 10.0025 3.2168ZM8.40395 6.14311C8.51076 6.29586 8.47352 6.50628 8.32076 6.6131C7.99861 6.83837 7.71795 7.11902 7.49268 7.44118C7.38587 7.59393 7.17545 7.63118 7.02269 7.52436C6.86994 7.41755 6.83269 7.20713 6.93951 7.05437C7.21006 6.66745 7.54703 6.33048 7.93395 6.05992C8.08671 5.95311 8.29713 5.99035 8.40395 6.14311ZM6.66927 8.37651C6.85282 8.40895 6.97532 8.58405 6.94288 8.7676C6.9093 8.95759 6.89175 9.15334 6.89175 9.35347C6.89175 9.5536 6.9093 9.74935 6.94288 9.93934C6.97532 10.1229 6.85282 10.298 6.66927 10.3304C6.48572 10.3629 6.31062 10.2404 6.27818 10.0568C6.23778 9.82821 6.21675 9.59316 6.21675 9.35347C6.21675 9.11378 6.23778 8.87873 6.27818 8.65013C6.31062 8.46657 6.48572 8.34407 6.66927 8.37651Z" fill="url(#paint1_linear_3514_40205)"/>
<path d="M8.48994 8.59129C8.42308 8.65815 8.38965 8.74507 8.38965 8.85205C8.38965 8.95903 8.42308 9.04595 8.48994 9.11281C8.55681 9.17968 8.64373 9.21311 8.75071 9.21311L9.66338 9.20308L9.66338 9.52402L8.75071 9.51399C8.64373 9.51399 8.55681 9.54742 8.48994 9.61428C8.42308 9.68115 8.38965 9.76807 8.38965 9.87505C8.38965 9.98203 8.42308 10.0689 8.48994 10.1358C8.55681 10.2027 8.64373 10.2361 8.75071 10.2361L9.66338 10.2261V10.6473C9.66338 10.7409 9.69681 10.8212 9.76367 10.888C9.83722 10.9616 9.9208 10.9983 10.0144 10.9983H10.4758C10.8636 10.9983 11.1945 10.8746 11.4687 10.6273C11.7428 10.3799 11.8999 10.0689 11.94 9.69452L12.8413 9.69451C12.9483 9.69451 13.0352 9.66108 13.1021 9.59421C13.1623 9.53404 13.1924 9.45046 13.1924 9.34348C13.1924 9.2365 13.1589 9.14958 13.0921 9.08272C13.0252 9.01585 12.9383 8.98242 12.8313 8.98242L11.93 8.98243C11.8765 8.62137 11.7161 8.32049 11.4486 8.07979C11.1878 7.84577 10.8636 7.72876 10.4758 7.72876L10.0244 7.73879C9.92414 7.7321 9.83722 7.76553 9.76367 7.83908C9.69681 7.90595 9.66338 7.99287 9.66338 8.09985L9.66338 8.50102L8.74068 8.50102C8.6337 8.50102 8.55012 8.53111 8.48994 8.59129Z" fill="url(#paint2_linear_3514_40205)"/>
<path d="M6.55431 4.85138V3.85352L4.79688 5.61095H5.79474C6.00325 5.61095 6.18197 5.53648 6.33091 5.38755C6.47984 5.23861 6.55431 5.05989 6.55431 4.85138Z" fill="url(#paint3_linear_3514_40205)"/>
</g>
<defs>
<linearGradient id="paint0_linear_3514_40205" x1="1.44946" y1="2.27016" x2="13.6864" y2="14.747" gradientUnits="userSpaceOnUse">
<stop stop-color="white"/>
<stop offset="1" stop-color="#EAECEE"/>
</linearGradient>
<linearGradient id="paint1_linear_3514_40205" x1="5.17086" y1="4.56006" x2="11.2107" y2="9.09521" gradientUnits="userSpaceOnUse">
<stop stop-color="#0195FF"/>
<stop offset="0.991028" stop-color="#1147E9"/>
</linearGradient>
<linearGradient id="paint2_linear_3514_40205" x1="9.0997" y1="8.20979" x2="11.2252" y2="11.3454" gradientUnits="userSpaceOnUse">
<stop stop-color="#1348FF"/>
<stop offset="1" stop-color="#06238D"/>
</linearGradient>
<linearGradient id="paint3_linear_3514_40205" x1="5.0567" y1="4.11207" x2="6.28663" y2="5.34731" gradientUnits="userSpaceOnUse">
<stop stop-color="#1348FF"/>
<stop offset="1" stop-color="#06238D"/>
</linearGradient>
<clipPath id="clip0_3514_40205">
<rect width="9" height="9" fill="white" transform="translate(4.19849 3.19922)"/>
</clipPath>
</defs>
</svg>
