<svg width="16" height="16" viewBox="0 0 16 16" fill="none" xmlns="http://www.w3.org/2000/svg">
<circle cx="7.99689" cy="7.99908" r="7.85696" fill="url(#paint0_linear_3514_40209)" stroke="#D5DADD" stroke-width="0.285708"/>
<g clip-path="url(#clip0_3514_40209)">
<path d="M10.072 3.19926C10.236 3.19797 10.3986 3.23022 10.5498 3.29402C10.7009 3.35782 10.8374 3.45184 10.9509 3.5703C11.0694 3.6838 11.1634 3.82032 11.2272 3.97146C11.291 4.12261 11.3233 4.28519 11.322 4.44925V11.9492C11.3252 12.115 11.2939 12.2796 11.2301 12.4326C11.1662 12.5856 11.0711 12.7237 10.9509 12.8379C10.836 12.9538 10.699 13.0455 10.548 13.1076C10.3971 13.1696 10.2352 13.2008 10.072 13.1992H6.32202C6.15879 13.2009 5.99688 13.1698 5.84589 13.1077C5.69491 13.0457 5.55792 12.9539 5.44307 12.8379C5.32277 12.7238 5.22762 12.5857 5.16373 12.4327C5.09984 12.2797 5.06861 12.115 5.07203 11.9492V4.44925C5.07059 4.28517 5.10277 4.12254 5.16658 3.97137C5.2304 3.82021 5.32449 3.68371 5.44307 3.5703C5.5565 3.45174 5.69299 3.35766 5.84416 3.29385C5.99532 3.23004 6.15794 3.19785 6.32202 3.19926H10.072ZM10.697 4.44925H5.69702V11.3242H10.697V4.44925ZM8.197 12.5742C8.32002 12.5769 8.43921 12.5313 8.52908 12.4473C8.57495 12.4034 8.61089 12.3501 8.63446 12.2912C8.65804 12.2322 8.6687 12.1689 8.66574 12.1054C8.66574 12.0439 8.65362 11.9829 8.63006 11.926C8.6065 11.8692 8.57198 11.8175 8.52845 11.774C8.48492 11.7304 8.43325 11.6959 8.37638 11.6724C8.31951 11.6488 8.25855 11.6367 8.197 11.6367C8.13544 11.6367 8.07449 11.6488 8.01762 11.6724C7.96075 11.6959 7.90907 11.7304 7.86554 11.774C7.82202 11.8175 7.78749 11.8692 7.76393 11.926C7.74038 11.9829 7.72825 12.0439 7.72825 12.1054C7.72514 12.1689 7.73574 12.2323 7.75932 12.2912C7.7829 12.3502 7.81892 12.4035 7.86492 12.4473C7.95466 12.5315 8.07394 12.5771 8.197 12.5742Z" fill="url(#paint1_linear_3514_40209)"/>
<path d="M7.21874 6.00869L8.22223 8.69379L9.17707 6.01393C9.24264 5.82991 9.41687 5.70703 9.61222 5.70703C9.86735 5.70703 10.0742 5.91385 10.0742 6.16898L10.0742 9.70829C10.0742 9.90403 9.91549 10.0627 9.71974 10.0627C9.524 10.0627 9.36532 9.90403 9.36532 9.70829L9.36533 7.38001L8.46331 9.61241C8.41214 9.73904 8.28924 9.82193 8.15266 9.82194C8.01271 9.82194 7.8875 9.73495 7.83867 9.60379L7.02867 7.42829L7.02867 9.70829C7.02866 9.90403 6.86999 10.0627 6.67424 10.0627C6.4785 10.0627 6.31982 9.90403 6.31982 9.70829L6.31983 6.17117C6.31983 5.91484 6.52764 5.70703 6.78397 5.70703C6.97764 5.70703 7.15095 5.82728 7.21874 6.00869Z" fill="url(#paint2_linear_3514_40209)"/>
</g>
<defs>
<linearGradient id="paint0_linear_3514_40209" x1="1.44799" y1="2.27016" x2="13.6849" y2="14.747" gradientUnits="userSpaceOnUse">
<stop stop-color="white"/>
<stop offset="1" stop-color="#EAECEE"/>
</linearGradient>
<linearGradient id="paint1_linear_3514_40209" x1="6.00874" y1="4.69466" x2="12.3038" y2="8.63069" gradientUnits="userSpaceOnUse">
<stop stop-color="#0195FF"/>
<stop offset="0.991028" stop-color="#1147E9"/>
</linearGradient>
<linearGradient id="paint2_linear_3514_40209" x1="6.87488" y1="6.34785" x2="9.89176" y2="8.95943" gradientUnits="userSpaceOnUse">
<stop stop-color="#1348FF"/>
<stop offset="1" stop-color="#06238D"/>
</linearGradient>
<clipPath id="clip0_3514_40209">
<rect width="10" height="10" fill="white" transform="translate(3.19702 3.19922)"/>
</clipPath>
</defs>
</svg>
