<svg width="16" height="16" viewBox="0 0 16 16" fill="none" xmlns="http://www.w3.org/2000/svg">
<circle cx="7.99493" cy="7.99908" r="7.85696" fill="url(#paint0_linear_3514_40214)" stroke="#D5DADD" stroke-width="0.285708"/>
<g clip-path="url(#clip0_3514_40214)">
<path fill-rule="evenodd" clip-rule="evenodd" d="M7.96636 3.15014C8.10812 2.91316 8.41514 2.83597 8.65212 2.97773L11.8236 4.8749C12.2868 5.15196 12.5703 5.65198 12.5703 6.19168V9.64228C12.5703 10.183 12.2857 10.6838 11.8212 10.9605L8.98058 12.6527C8.49674 12.9409 7.89388 12.9409 7.41004 12.6527L4.56944 10.9605C4.1049 10.6838 3.82031 10.183 3.82031 9.64228L3.82031 6.1924C3.82031 5.65212 4.10445 5.15166 4.5684 4.87479L6.38896 3.78833C6.62609 3.64682 6.93303 3.72433 7.07454 3.96145C7.21606 4.19858 7.13854 4.50553 6.90142 4.64704L5.08085 5.73351C4.91927 5.82993 4.82031 6.00423 4.82031 6.1924L4.82031 9.64228C4.82031 9.8306 4.91943 10.005 5.08122 10.1014L7.92182 11.7935C8.09033 11.8939 8.30029 11.8939 8.4688 11.7935L11.3094 10.1014C11.4712 10.005 11.5703 9.8306 11.5703 9.64228V6.19168C11.5703 6.00371 11.4716 5.82957 11.3103 5.73308L8.13877 3.8359C7.90179 3.69414 7.8246 3.38711 7.96636 3.15014Z" fill="url(#paint1_linear_3514_40214)"/>
<path fill-rule="evenodd" clip-rule="evenodd" d="M10.4962 7.95372C10.6094 8.00519 10.666 8.09269 10.666 8.21623V8.24711L10.5888 8.57139C10.5579 8.70522 10.4756 8.77213 10.3417 8.77213H10.3109L9.81671 8.69492C9.72406 8.89052 9.57479 9.07067 9.3689 9.23538L9.5542 9.76041C9.56449 9.78099 9.56964 9.80673 9.56964 9.83761C9.56964 9.96115 9.52332 10.0435 9.43066 10.0847L9.13727 10.2391C9.09609 10.2597 9.06521 10.27 9.04462 10.27C8.95197 10.27 8.8799 10.2237 8.82843 10.131L8.53503 9.62143C8.48356 9.63172 8.42694 9.64202 8.36517 9.65231H8.19531H8.04089C7.99972 9.64202 7.95339 9.63172 7.90192 9.62143L7.59308 10.1465C7.54161 10.2288 7.47469 10.27 7.39233 10.27C7.34086 10.27 7.30483 10.2597 7.28424 10.2391L6.99084 10.1001C6.89819 10.0589 6.85187 9.98688 6.85187 9.88394C6.85187 9.84276 6.85701 9.81188 6.86731 9.79129L7.05261 9.26627C6.86731 9.13244 6.71804 8.95743 6.6048 8.74125L6.07977 8.81846H6.04889C5.91506 8.81846 5.8327 8.75154 5.80182 8.61771L5.72461 8.29344V8.26255C5.72461 8.13902 5.78123 8.05151 5.89447 8.00004L6.34229 7.86107V7.7993C6.34229 7.54194 6.38861 7.30516 6.48126 7.08898L6.14154 6.78014C6.11066 6.74926 6.08492 6.69264 6.06433 6.61028C6.06433 6.53822 6.08492 6.4816 6.1261 6.44042L6.32684 6.17791C6.37832 6.11614 6.44008 6.08526 6.51215 6.08526C6.56362 6.08526 6.60994 6.1007 6.65112 6.13159L7.00629 6.37865C7.22247 6.20365 7.45925 6.08011 7.71661 6.00805L7.7475 5.56024C7.75779 5.49847 7.78353 5.447 7.82471 5.40582C7.87618 5.35435 7.9328 5.32861 7.99457 5.32861H8.31885C8.39091 5.32861 8.44753 5.35435 8.48871 5.40582C8.54018 5.447 8.56592 5.49847 8.56592 5.56024L8.5968 5.99261C8.85417 6.05438 9.10124 6.16762 9.33801 6.33233L9.69318 6.08526C9.74465 6.05438 9.79097 6.03894 9.83215 6.03894C9.91451 6.03894 9.97628 6.06982 10.0175 6.13159L10.2182 6.3941C10.2594 6.43527 10.28 6.49189 10.28 6.56396C10.28 6.62572 10.2542 6.68234 10.2028 6.73382L9.89392 7.04265C9.94539 7.15589 9.98142 7.27428 10.002 7.39781C10.0329 7.52135 10.0483 7.65518 10.0483 7.7993V7.81474L10.4962 7.95372ZM7.43866 8.55595C7.23277 8.35006 7.12982 8.09784 7.12982 7.7993C7.12982 7.50076 7.23277 7.24854 7.43866 7.04265C7.64455 6.83676 7.89677 6.73382 8.19531 6.73382C8.49386 6.73382 8.74607 6.83676 8.95197 7.04265C9.15786 7.24854 9.2608 7.50076 9.2608 7.7993C9.2608 8.09784 9.15786 8.35006 8.95197 8.55595C8.74607 8.76184 8.49386 8.86478 8.19531 8.86478C7.89677 8.86478 7.64455 8.76184 7.43866 8.55595Z" fill="url(#paint2_linear_3514_40214)"/>
</g>
<defs>
<linearGradient id="paint0_linear_3514_40214" x1="1.44604" y1="2.27016" x2="13.683" y2="14.747" gradientUnits="userSpaceOnUse">
<stop stop-color="white"/>
<stop offset="1" stop-color="#EAECEE"/>
</linearGradient>
<linearGradient id="paint1_linear_3514_40214" x1="5.13197" y1="4.39651" x2="12.0494" y2="10.4744" gradientUnits="userSpaceOnUse">
<stop stop-color="#0195FF"/>
<stop offset="0.991028" stop-color="#1147E9"/>
</linearGradient>
<linearGradient id="paint2_linear_3514_40214" x1="6.45516" y1="6.0556" x2="9.91335" y2="9.52871" gradientUnits="userSpaceOnUse">
<stop stop-color="#1348FF"/>
<stop offset="1" stop-color="#06238D"/>
</linearGradient>
<clipPath id="clip0_3514_40214">
<rect width="10" height="10" fill="white" transform="translate(3.19531 2.79932)"/>
</clipPath>
</defs>
</svg>
