<svg width="16" height="16" viewBox="0 0 16 16" fill="none" xmlns="http://www.w3.org/2000/svg">
<circle cx="7.99591" cy="7.99908" r="7.85696" fill="url(#paint0_linear_3514_40212)" stroke="#D5DADD" stroke-width="0.285708"/>
<g clip-path="url(#clip0_3514_40212)">
<path fill-rule="evenodd" clip-rule="evenodd" d="M7.92774 4.29711C6.7964 4.29711 5.94902 5.39455 6.02729 6.43437C6.03886 6.58811 5.97886 6.73859 5.86468 6.84219C5.75051 6.94579 5.59492 6.99092 5.44303 6.9645C4.97119 6.88244 4.62887 7.00892 4.40301 7.21681C4.16936 7.43187 4.01611 7.77569 4.01611 8.19773C4.01611 8.56021 4.11037 8.83924 4.26095 9.03543C4.40779 9.22676 4.6367 9.37717 4.98326 9.43879C5.25514 9.48712 5.43635 9.74671 5.38802 10.0186C5.33968 10.2905 5.08009 10.4717 4.80821 10.4233C4.24379 10.323 3.78289 10.055 3.46766 9.64427C3.15617 9.23842 3.01611 8.73176 3.01611 8.19773C3.01611 7.53648 3.25847 6.91118 3.72578 6.48105C4.07681 6.15794 4.53095 5.96722 5.04652 5.94223C5.22184 4.5947 6.3453 3.29712 7.92774 3.29712C9.18552 3.29712 10.1262 4.00554 10.6302 5.06064C11.8942 5.17048 12.9501 6.29644 12.9501 7.76793C12.9501 8.20005 12.8627 8.59803 12.7022 8.94981C12.5875 9.20102 12.2909 9.31171 12.0397 9.19705C11.7885 9.08239 11.6778 8.78579 11.7925 8.53458C11.8907 8.31926 11.9501 8.06365 11.9501 7.76793C11.9501 6.68179 11.1218 6 10.3325 6.05514C10.1113 6.07059 9.90639 5.93856 9.82904 5.73079C9.49041 4.82109 8.82051 4.29711 7.92774 4.29711Z" fill="url(#paint1_linear_3514_40212)"/>
<path d="M11.0645 8.33114C10.8718 7.71448 9.87863 7.26978 8.60085 7.26978C7.32306 7.26978 6.32988 7.71152 6.13421 8.33114C6.11346 8.37265 6.09863 8.41712 6.09863 8.46752V11.9184C6.09863 12.6478 7.17482 13.1992 8.60085 13.1992C10.0269 13.1992 11.1031 12.6478 11.1031 11.9184V8.46455C11.1031 8.44821 11.0742 8.3215 11.0645 8.33114ZM10.5072 10.8007C10.5072 11.0735 9.74522 11.4886 8.59788 11.4886C7.45054 11.4886 6.68861 11.0735 6.68861 10.8007V10.528C7.13925 10.7978 7.8152 10.9638 8.59788 10.9638C9.38056 10.9638 10.0536 10.7978 10.5072 10.528V10.8007ZM8.60085 7.86272C9.74819 7.86272 10.5101 8.27778 10.5101 8.55053C10.5101 8.82328 9.74819 9.23834 8.60085 9.23834C7.4535 9.23834 6.69157 8.82328 6.69157 8.55053C6.69157 8.27778 7.4535 7.86272 8.60085 7.86272ZM8.60085 12.6062C7.4535 12.6062 6.69157 12.1912 6.69157 11.9184V11.6457C7.14221 11.9155 7.81816 12.0815 8.60085 12.0815C9.38353 12.0815 10.0565 11.9155 10.5101 11.6457V11.9184C10.5101 12.1912 9.74819 12.6062 8.60085 12.6062Z" fill="url(#paint2_linear_3514_40212)"/>
</g>
<defs>
<linearGradient id="paint0_linear_3514_40212" x1="1.44702" y1="2.27016" x2="13.6839" y2="14.747" gradientUnits="userSpaceOnUse">
<stop stop-color="white"/>
<stop offset="1" stop-color="#EAECEE"/>
</linearGradient>
<linearGradient id="paint1_linear_3514_40212" x1="4.50526" y1="4.36397" x2="9.23813" y2="10.9567" gradientUnits="userSpaceOnUse">
<stop stop-color="#0195FF"/>
<stop offset="0.991028" stop-color="#1147E9"/>
</linearGradient>
<linearGradient id="paint2_linear_3514_40212" x1="6.8385" y1="8.14212" x2="10.9322" y2="11.6121" gradientUnits="userSpaceOnUse">
<stop stop-color="#1348FF"/>
<stop offset="1" stop-color="#06238D"/>
</linearGradient>
<clipPath id="clip0_3514_40212">
<rect width="9.99992" height="9.99994" fill="white" transform="translate(2.99609 3.19922)"/>
</clipPath>
</defs>
</svg>
