<svg width="16" height="16" viewBox="0 0 16 16" fill="none" xmlns="http://www.w3.org/2000/svg">
<circle cx="7.99542" cy="7.99908" r="7.85696" fill="url(#paint0_linear_3514_40213)" stroke="#D5DADD" stroke-width="0.285708"/>
<g clip-path="url(#clip0_3514_40213)">
<path fill-rule="evenodd" clip-rule="evenodd" d="M5.88666 6.56523C6.03688 6.77127 5.99162 7.06008 5.78558 7.2103C5.49339 7.42332 5.24802 7.696 5.06729 8.01035C5.34625 8.0518 5.61803 8.0852 5.882 8.11106C5.89976 8.03127 5.91926 7.95299 5.94043 7.87637C5.99559 7.67675 6.20213 7.55964 6.40176 7.6148C6.60138 7.66996 6.7185 7.8765 6.66334 8.07613C6.65515 8.10575 6.64725 8.13574 6.63963 8.16607C7.12145 8.18839 7.57148 8.18416 7.98514 8.15711C7.97831 8.13018 7.97125 8.10352 7.96397 8.07715C7.90887 7.87751 8.02604 7.671 8.22568 7.61589C8.42532 7.56079 8.63183 7.67796 8.68694 7.8776C8.70501 7.94306 8.72186 8.00974 8.73744 8.07753C8.86372 8.05855 8.98529 8.03712 9.10198 8.01341C9.30493 7.97217 9.5029 8.10326 9.54415 8.30622C9.58539 8.50918 9.4543 8.70714 9.25134 8.74839C9.12291 8.77449 8.98976 8.79797 8.85211 8.81872C8.86563 8.9785 8.87261 9.1419 8.87261 9.30794C8.87261 9.46238 8.86577 9.61312 8.85266 9.75977C9.17029 9.71077 9.50226 9.64874 9.85652 9.57431C9.86673 9.4812 9.87197 9.3866 9.87197 9.29078C9.87197 9.12149 9.85568 8.95645 9.82472 8.79701C9.77611 8.5467 9.93963 8.30437 10.1899 8.25577C10.4403 8.20716 10.6826 8.37068 10.7312 8.62099C10.7734 8.83813 10.7954 9.0621 10.7954 9.29078C10.7954 11.2216 9.23013 12.7869 7.2993 12.7869C5.36847 12.7869 3.80322 11.2216 3.80322 9.29078C3.80322 8.12869 4.37067 7.09909 5.24159 6.46414C5.44763 6.31393 5.73644 6.35918 5.88666 6.56523ZM9.62813 10.3855C9.31127 10.4466 9.00935 10.4973 8.71682 10.5372C8.62277 10.8902 8.49013 11.2078 8.33008 11.4824C8.28494 11.5598 8.23715 11.6346 8.18692 11.7062C8.82321 11.4723 9.34149 10.9942 9.62813 10.3855ZM8.088 9.8544C8.11045 9.68116 8.12261 9.49874 8.12261 9.30794C8.12261 9.16909 8.11703 9.03304 8.10632 8.90055C7.61792 8.93575 7.08688 8.94063 6.51987 8.91107C6.50971 9.04024 6.50442 9.17276 6.50442 9.30794C6.50442 9.50372 6.51722 9.69068 6.54081 9.86795C7.06124 9.90739 7.56266 9.90176 8.088 9.8544ZM6.72493 10.6311C7.12077 10.6516 7.50911 10.6477 7.90577 10.621C7.84151 10.7995 7.7657 10.9613 7.68212 11.1047C7.56604 11.3039 7.43961 11.4606 7.31351 11.5785C7.18742 11.4606 7.06099 11.3039 6.94491 11.1047C6.86291 10.964 6.78839 10.8056 6.72493 10.6311ZM5.77623 9.78005C5.7619 9.62702 5.75442 9.46951 5.75442 9.30794C5.75442 9.15404 5.76041 9.00242 5.77205 8.85383C5.45337 8.82188 5.12524 8.77961 4.78868 8.72638C4.74805 8.90802 4.72663 9.09689 4.72663 9.29078C4.72663 9.38863 4.73209 9.4852 4.74273 9.58021C5.10741 9.66393 5.44886 9.7303 5.77623 9.78005ZM4.97661 10.3984C5.3033 10.4651 5.61421 10.5177 5.9155 10.5569C6.00921 10.902 6.13988 11.2129 6.29695 11.4824C6.34496 11.5648 6.39598 11.6441 6.44974 11.7199C5.80062 11.4929 5.27023 11.013 4.97661 10.3984Z" fill="url(#paint1_linear_3514_40213)"/>
<path fill-rule="evenodd" clip-rule="evenodd" d="M8.37446 6.27986C8.51632 6.42693 8.65854 6.57627 8.81319 6.70999C8.88532 6.78084 8.97733 6.82611 9.08612 6.82611C9.20416 6.82611 9.30243 6.77282 9.377 6.69139C9.45843 6.61682 9.51172 6.51854 9.51172 6.40051C9.51172 6.28673 9.46221 6.19132 9.38572 6.11779C9.25492 5.99208 9.07095 5.79755 8.92207 5.63324C8.95249 5.59112 8.98377 5.54597 9.01591 5.49784C9.08045 5.41159 9.14462 5.31882 9.20845 5.21964C9.40534 4.93479 9.5318 4.63123 9.67521 4.32052C9.70295 4.25816 9.72365 4.19217 9.73709 4.12527H10.0673C10.3148 4.12527 10.4823 3.94363 10.4823 3.69967C10.4823 3.45391 10.313 3.28462 10.0673 3.28462H8.77321V3.21437C8.77321 3.09941 8.7354 2.98937 8.6441 2.90843C8.56142 2.82865 8.4545 2.79932 8.34761 2.79932C8.24015 2.79932 8.12789 2.8263 8.04372 2.91047C7.95954 2.99465 7.93256 3.10691 7.93256 3.21437V3.28462H6.62794C6.38894 3.28462 6.21289 3.46127 6.21289 3.69967C6.21289 3.9412 6.38187 4.12527 6.62794 4.12527H8.87042C8.75666 4.3454 8.64252 4.55802 8.50127 4.76206C8.45232 4.83578 8.40485 4.91034 8.35408 4.98288L8.35187 4.98611L8.35036 4.98838C8.20157 4.83959 8.09064 4.67334 7.98766 4.49211C7.93256 4.3878 7.85949 4.30667 7.74145 4.28044C7.52134 4.23153 7.32142 4.3313 7.23001 4.53697L7.22793 4.54165L7.22613 4.54645C7.18604 4.65337 7.1991 4.76466 7.23608 4.86635L7.23838 4.87266L7.24115 4.87877C7.28255 4.96983 7.33881 5.06143 7.40788 5.15353L7.41053 5.15706L7.41336 5.16046C7.4807 5.24126 7.54843 5.32927 7.61652 5.4246L7.62481 5.43621L7.6349 5.4463C7.68614 5.49753 7.72987 5.54767 7.76659 5.59663L7.77049 5.60183L7.81677 5.65473L6.85419 6.62676C6.77639 6.70472 6.72985 6.80382 6.72985 6.91746C6.72985 7.03127 6.77618 7.13015 6.85419 7.20817C6.93221 7.28618 7.03109 7.33251 7.1449 7.33251C7.2573 7.33251 7.35608 7.28749 7.43777 7.21601L7.44209 7.21223L8.37446 6.27986Z" fill="url(#paint2_linear_3514_40213)"/>
<path fill-rule="evenodd" clip-rule="evenodd" d="M9.80605 7.02963L10.8663 4.38461C10.9121 4.29593 10.9656 4.22344 11.0548 4.17806C11.1218 4.14395 11.2184 4.12598 11.3006 4.12598C11.373 4.12598 11.4438 4.14128 11.5072 4.17806C11.5924 4.22259 11.6424 4.29894 11.6661 4.38461L12.7264 7.02962C12.817 7.23707 12.7135 7.49325 12.4951 7.56359C12.2791 7.6543 12.0503 7.53221 11.959 7.32679L11.9567 7.32141L11.7524 6.80548H10.7801L10.5735 7.32684C10.4836 7.52913 10.2591 7.65328 10.0467 7.56273C9.82874 7.4862 9.71247 7.24398 9.80605 7.02963ZM11.2662 5.21964L10.9 6.12386H11.6439L11.2662 5.21964Z" fill="url(#paint3_linear_3514_40213)"/>
</g>
<defs>
<linearGradient id="paint0_linear_3514_40213" x1="1.44653" y1="2.27016" x2="13.6835" y2="14.747" gradientUnits="userSpaceOnUse">
<stop stop-color="white"/>
<stop offset="1" stop-color="#EAECEE"/>
</linearGradient>
<linearGradient id="paint1_linear_3514_40213" x1="4.85138" y1="7.33427" x2="9.32362" y2="12.2133" gradientUnits="userSpaceOnUse">
<stop stop-color="#0195FF"/>
<stop offset="0.991028" stop-color="#1147E9"/>
</linearGradient>
<linearGradient id="paint2_linear_3514_40213" x1="6.8441" y1="3.46625" x2="10.0118" y2="6.46246" gradientUnits="userSpaceOnUse">
<stop stop-color="#1348FF"/>
<stop offset="1" stop-color="#06238D"/>
</linearGradient>
<linearGradient id="paint3_linear_3514_40213" x1="10.2203" y1="4.64629" x2="12.6213" y2="6.71203" gradientUnits="userSpaceOnUse">
<stop stop-color="#00BBFF"/>
<stop offset="1" stop-color="#008BFF"/>
</linearGradient>
<clipPath id="clip0_3514_40213">
<rect width="10" height="10" fill="white" transform="translate(3.79541 2.79932)"/>
</clipPath>
</defs>
</svg>
