<svg width="16" height="16" viewBox="0 0 16 16" fill="none" xmlns="http://www.w3.org/2000/svg">
<circle cx="7.99738" cy="7.99908" r="7.85696" fill="url(#paint0_linear_3514_40208)" stroke="#D5DADD" stroke-width="0.285708"/>
<g clip-path="url(#clip0_3514_40208)">
<path fill-rule="evenodd" clip-rule="evenodd" d="M13.3829 10.07C13.5261 10.1351 13.5977 10.2458 13.5977 10.402V10.4411L13.5 10.8512C13.461 11.0204 13.3568 11.105 13.1876 11.105H13.1485L12.5236 11.0074C12.4064 11.2548 12.2177 11.4826 11.9573 11.6909L12.1916 12.3548C12.2047 12.3809 12.2112 12.4134 12.2112 12.4525C12.2112 12.6087 12.1526 12.7129 12.0354 12.7649L11.6644 12.9602C11.6123 12.9863 11.5732 12.9993 11.5472 12.9993C11.43 12.9993 11.3389 12.9407 11.2738 12.8235L10.9028 12.1791C10.8377 12.1921 10.7661 12.2051 10.688 12.2181H10.4732H10.2779C10.2258 12.2051 10.1672 12.1921 10.1021 12.1791L9.71155 12.843C9.64646 12.9472 9.56183 12.9993 9.45768 12.9993C9.39259 12.9993 9.34702 12.9863 9.32098 12.9602L8.94995 12.7845C8.83278 12.7324 8.77419 12.6413 8.77419 12.5111C8.77419 12.459 8.7807 12.4199 8.79372 12.3939L9.02806 11.7299C8.79372 11.5607 8.60495 11.3394 8.46174 11.066L7.79778 11.1636H7.75873C7.58948 11.1636 7.48533 11.079 7.44627 10.9098L7.34863 10.4997V10.4606C7.34863 10.3044 7.42024 10.1937 7.56344 10.1286L8.12976 9.95287V9.87476C8.12976 9.54929 8.18835 9.24986 8.30552 8.97646L7.8759 8.5859C7.83684 8.54684 7.80429 8.47524 7.77825 8.37109C7.77825 8.27995 7.80429 8.20835 7.85637 8.15628L8.11023 7.8243C8.17533 7.74618 8.25344 7.70713 8.34457 7.70713C8.40967 7.70713 8.46825 7.72666 8.52033 7.76571L8.96948 8.07816C9.24287 7.85684 9.5423 7.70062 9.86778 7.60949L9.90683 7.04317C9.91985 6.96505 9.9524 6.89996 10.0045 6.84789C10.0696 6.78279 10.1412 6.75024 10.2193 6.75024H10.6294C10.7205 6.75024 10.7921 6.78279 10.8442 6.84789C10.9093 6.89996 10.9418 6.96505 10.9418 7.04317L10.9809 7.58996C11.3064 7.66807 11.6188 7.81128 11.9182 8.01958L12.3674 7.70713C12.4325 7.66807 12.4911 7.64854 12.5431 7.64854C12.6473 7.64854 12.7254 7.6876 12.7775 7.76571L13.0314 8.09769C13.0834 8.14977 13.1095 8.22137 13.1095 8.3125C13.1095 8.39061 13.0769 8.46222 13.0118 8.52731L12.6213 8.91788C12.6864 9.06108 12.7319 9.2108 12.758 9.36703C12.797 9.52325 12.8165 9.6925 12.8165 9.87476V9.89429L13.3829 10.07ZM9.51627 10.8316C9.25589 10.5713 9.1257 10.2523 9.1257 9.87476C9.1257 9.49721 9.25589 9.17825 9.51627 8.91788C9.77664 8.6575 10.0956 8.52731 10.4732 8.52731C10.8507 8.52731 11.1697 8.6575 11.43 8.91788C11.6904 9.17825 11.8206 9.49721 11.8206 9.87476C11.8206 10.2523 11.6904 10.5713 11.43 10.8316C11.1697 11.092 10.8507 11.2222 10.4732 11.2222C10.0956 11.2222 9.77664 11.092 9.51627 10.8316Z" fill="url(#paint1_linear_3514_40208)"/>
<path fill-rule="evenodd" clip-rule="evenodd" d="M5.97249 5.30668L5.97248 4.86641H5.09766C4.82151 4.86641 4.59766 5.09027 4.59766 5.36641V6.62887H7.10427C7.38041 6.62887 7.60427 6.85273 7.60427 7.12887C7.60427 7.40501 7.38041 7.62887 7.10427 7.62887H4.59766V10.2586C4.59766 10.5347 4.82151 10.7586 5.09766 10.7586H5.77417C6.05031 10.7586 6.27417 10.9824 6.27417 11.2586C6.27417 11.5347 6.05031 11.7586 5.77417 11.7586H5.09766C4.26923 11.7586 3.59766 11.087 3.59766 10.2586V5.36641C3.59766 4.53798 4.26923 3.86641 5.09766 3.86641H5.97248L5.97248 3.49048C5.97248 3.21434 6.19634 2.99048 6.47248 2.99048C6.74862 2.99048 6.97248 3.21434 6.97248 3.49048L6.97248 3.86641H8.63503L8.63503 3.49048C8.63503 3.21434 8.85888 2.99048 9.13503 2.99048C9.41117 2.99048 9.63503 3.21434 9.63503 3.49048L9.63503 3.86641H10.4551C11.2835 3.86641 11.9551 4.53798 11.9551 5.36641V5.77943C11.9551 6.05557 11.7312 6.27943 11.4551 6.27943C11.179 6.27943 10.9551 6.05557 10.9551 5.77943V5.36641C10.9551 5.09027 10.7312 4.86641 10.4551 4.86641H9.63503L9.63503 5.30668C9.63503 5.58283 9.41117 5.80668 9.13503 5.80668C8.85889 5.80668 8.63503 5.58283 8.63503 5.30668L8.63503 4.86641H6.97248L6.97248 5.30668C6.97249 5.58283 6.74863 5.80668 6.47249 5.80668C6.19634 5.80668 5.97249 5.58283 5.97249 5.30668Z" fill="url(#paint2_linear_3514_40208)"/>
</g>
<defs>
<linearGradient id="paint0_linear_3514_40208" x1="1.44848" y1="2.27016" x2="13.6854" y2="14.747" gradientUnits="userSpaceOnUse">
<stop stop-color="white"/>
<stop offset="1" stop-color="#EAECEE"/>
</linearGradient>
<linearGradient id="paint1_linear_3514_40208" x1="8.28385" y1="7.6878" x2="12.6594" y2="12.0603" gradientUnits="userSpaceOnUse">
<stop stop-color="#00BBFF"/>
<stop offset="1" stop-color="#008BFF"/>
</linearGradient>
<linearGradient id="paint2_linear_3514_40208" x1="4.85047" y1="4.30169" x2="10.9829" y2="10.1489" gradientUnits="userSpaceOnUse">
<stop stop-color="#0195FF"/>
<stop offset="0.991028" stop-color="#1147E9"/>
</linearGradient>
<clipPath id="clip0_3514_40208">
<rect width="10" height="10" fill="white" transform="translate(3.59766 2.99927)"/>
</clipPath>
</defs>
</svg>
