<svg width="16" height="16" viewBox="0 0 16 16" fill="none" xmlns="http://www.w3.org/2000/svg">
<circle cx="7.9964" cy="7.99908" r="7.85696" fill="url(#paint0_linear_3890_21457)" stroke="#D5DADD" stroke-width="0.285708"/>
<g clip-path="url(#clip0_3890_21457)">
<path fill-rule="evenodd" clip-rule="evenodd" d="M4.90673 3.39941C4.07263 3.39941 3.39648 4.07559 3.39648 4.90966V7.76236C3.39648 8.1629 3.55554 8.54705 3.83886 8.83028L7.96554 12.957C8.55538 13.5468 9.51155 13.5468 10.1014 12.957L12.954 10.1043C13.5439 9.51451 13.5439 8.55828 12.954 7.96847L8.82735 3.84176C8.54415 3.55853 8.16 3.39941 7.75949 3.39941H4.90673ZM5.78148 6.6594C6.26475 6.6594 6.65647 6.26765 6.65647 5.78441C6.65647 5.30117 6.26475 4.90942 5.78148 4.90942C5.2982 4.90942 4.90648 5.30117 4.90648 5.78441C4.90648 6.26765 5.2982 6.6594 5.78148 6.6594ZM8.53563 11.1451C8.69644 11.7453 9.31332 12.1014 9.91346 11.9406C10.5136 11.7798 10.8698 11.1629 10.7089 10.5628L10.5574 9.99727C10.7045 10.0124 10.8567 10.0014 11.008 9.96087C11.6743 9.78232 12.0697 9.09741 11.8912 8.43108C11.7126 7.76475 11.0277 7.36931 10.3614 7.54786C10.2101 7.58839 10.0728 7.65502 9.95301 7.7416L9.80443 7.18707C9.64362 6.58692 9.02675 6.23077 8.4266 6.39158C7.82646 6.55239 7.4703 7.16926 7.63111 7.76941L7.78484 8.34312C7.63714 8.32771 7.48417 8.33857 7.33217 8.3793C6.66584 8.55785 6.27041 9.24276 6.44895 9.90909C6.62749 10.5754 7.3124 10.9709 7.97874 10.7923C8.13074 10.7516 8.26864 10.6845 8.38885 10.5973L8.53563 11.1451Z" fill="url(#paint1_linear_3890_21457)"/>
<path d="M9.75172 11.3368C9.48499 11.4083 9.21082 11.25 9.13935 10.9833L8.23483 7.60756C8.16336 7.34083 8.32165 7.06666 8.58838 6.99519C8.85511 6.92372 9.12928 7.08201 9.20075 7.34874L10.1053 10.7245C10.1767 10.9912 10.0185 11.2654 9.75172 11.3368Z" fill="url(#paint2_linear_3890_21457)"/>
<path d="M8.25828 9.4242C8.34749 9.75712 8.14992 10.0993 7.817 10.1885C7.48408 10.2777 7.14188 10.0802 7.05267 9.74724C6.96346 9.41432 7.16103 9.07212 7.49395 8.98291C7.82688 8.89371 8.16908 9.09128 8.25828 9.4242Z" fill="url(#paint3_linear_3890_21457)"/>
<path d="M10.8462 9.35708C11.1791 9.26787 11.3767 8.92567 11.2875 8.59275C11.1983 8.25983 10.8561 8.06226 10.5232 8.15147C10.1902 8.24067 9.99268 8.58287 10.0819 8.91579C10.1711 9.24872 10.5133 9.44629 10.8462 9.35708Z" fill="url(#paint4_linear_3890_21457)"/>
</g>
<defs>
<linearGradient id="paint0_linear_3890_21457" x1="1.4475" y1="2.27016" x2="13.6844" y2="14.747" gradientUnits="userSpaceOnUse">
<stop stop-color="white"/>
<stop offset="1" stop-color="#EAECEE"/>
</linearGradient>
<linearGradient id="paint1_linear_3890_21457" x1="4.89552" y1="4.89484" x2="11.8974" y2="11.8992" gradientUnits="userSpaceOnUse">
<stop stop-color="#0195FF"/>
<stop offset="0.991028" stop-color="#1147E9"/>
</linearGradient>
<linearGradient id="paint2_linear_3890_21457" x1="7.66367" y1="7.62182" x2="10.7257" y2="10.6279" gradientUnits="userSpaceOnUse">
<stop stop-color="#1348FF"/>
<stop offset="1" stop-color="#06238D"/>
</linearGradient>
<linearGradient id="paint3_linear_3890_21457" x1="7.66367" y1="7.62182" x2="10.7257" y2="10.6279" gradientUnits="userSpaceOnUse">
<stop stop-color="#1348FF"/>
<stop offset="1" stop-color="#06238D"/>
</linearGradient>
<linearGradient id="paint4_linear_3890_21457" x1="7.66367" y1="7.62182" x2="10.7257" y2="10.6279" gradientUnits="userSpaceOnUse">
<stop stop-color="#1348FF"/>
<stop offset="1" stop-color="#06238D"/>
</linearGradient>
<clipPath id="clip0_3890_21457">
<rect width="9.99992" height="9.99992" fill="white" transform="translate(3.39648 3.39917)"/>
</clipPath>
</defs>
</svg>
