<svg width="16" height="16" viewBox="0 0 16 16" fill="none" xmlns="http://www.w3.org/2000/svg">
<circle cx="7.99445" cy="7.99908" r="7.85696" fill="url(#paint0_linear_3514_40216)" stroke="#D5DADD" stroke-width="0.285708"/>
<g clip-path="url(#clip0_3514_40216)">
<path fill-rule="evenodd" clip-rule="evenodd" d="M12.0995 5.36722C12.0995 4.6546 11.5218 4.0769 10.8092 4.0769H4.48514C3.77252 4.0769 3.19482 4.6546 3.19482 5.36722V6.28154C3.72753 6.44034 4.11593 6.93394 4.11593 7.51825C4.11593 8.10256 3.72753 8.59616 3.19482 8.75496V9.55405C3.19482 10.2667 3.77252 10.8444 4.48514 10.8444H6.89934C7.00711 10.3371 7.45864 9.95784 7.99634 9.95784H10.0752C9.94208 9.56625 10.0317 9.11521 10.344 8.80368C10.7812 8.36767 11.4915 8.36767 11.9286 8.80368L12.0995 8.97407V5.36722ZM9.8297 5.66258C9.8297 5.32757 9.65549 5.16007 9.30709 5.16007H6.23637C5.88796 5.16007 5.71375 5.32757 5.71375 5.66258C5.71375 6.01098 5.88796 6.18519 6.23637 6.18519H9.30709C9.65549 6.18519 9.8297 6.01098 9.8297 5.66258ZM8.38853 7.59221C8.48233 7.48501 8.52924 7.35771 8.52924 7.21031C8.52924 6.8753 8.36173 6.7078 8.02672 6.7078H6.23637C5.88796 6.7078 5.71375 6.8753 5.71375 7.21031C5.71375 7.35771 5.76066 7.48501 5.85446 7.59221C5.94826 7.68602 6.07556 7.73292 6.23637 7.73292H8.02672C8.17413 7.73292 8.29473 7.68602 8.38853 7.59221ZM9.06381 9.13622C9.15761 9.02902 9.20451 8.90172 9.20451 8.75431C9.20451 8.41931 9.03701 8.2518 8.702 8.2518H6.23637C5.88796 8.2518 5.71376 8.41931 5.71376 8.75431C5.71376 8.90172 5.76066 9.02902 5.85446 9.13622C5.94826 9.23002 6.07557 9.27692 6.23637 9.27692H8.702C8.8494 9.27692 8.97001 9.23002 9.06381 9.13622Z" fill="url(#paint1_linear_3514_40216)"/>
<path d="M7.5 11.0779C7.5 11.3511 7.72254 11.573 7.99643 11.573L11.5754 11.573L10.7855 12.3609C10.5923 12.5536 10.5923 12.8682 10.7855 13.0609C10.8833 13.1585 11.0105 13.2072 11.1377 13.2072C11.2648 13.2072 11.392 13.1585 11.4874 13.0633L13.05 11.5047C13.2432 11.312 13.2432 10.9974 13.05 10.8047L11.4874 9.24608C11.2942 9.05339 10.9787 9.05339 10.7855 9.24608C10.5923 9.43877 10.5923 9.75342 10.7855 9.94611L11.4238 10.5827L7.99643 10.5827C7.72254 10.5827 7.5 10.8047 7.5 11.0779Z" fill="url(#paint2_linear_3514_40216)"/>
</g>
<defs>
<linearGradient id="paint0_linear_3514_40216" x1="1.44555" y1="2.27016" x2="13.6825" y2="14.747" gradientUnits="userSpaceOnUse">
<stop stop-color="white"/>
<stop offset="1" stop-color="#EAECEE"/>
</linearGradient>
<linearGradient id="paint1_linear_3514_40216" x1="4.52967" y1="5.08894" x2="9.09476" y2="11.0978" gradientUnits="userSpaceOnUse">
<stop stop-color="#0195FF"/>
<stop offset="0.991028" stop-color="#1147E9"/>
</linearGradient>
<linearGradient id="paint2_linear_3514_40216" x1="8.34195" y1="9.7056" x2="11.0644" y2="13.4981" gradientUnits="userSpaceOnUse">
<stop stop-color="#1348FF"/>
<stop offset="1" stop-color="#06238D"/>
</linearGradient>
<clipPath id="clip0_3514_40216">
<rect width="10" height="10" fill="white" transform="translate(3.19482 3.59937)"/>
</clipPath>
</defs>
</svg>
