<svg width="16" height="16" viewBox="0 0 16 16" fill="none" xmlns="http://www.w3.org/2000/svg">
<circle cx="7.9964" cy="7.99908" r="7.85696" fill="url(#paint0_linear_3514_40210)" stroke="#D5DADD" stroke-width="0.285708"/>
<g clip-path="url(#clip0_3514_40210)">
<path d="M11.1431 3.91675C11.5181 3.91675 11.8345 4.04565 12.0923 4.30347C12.3501 4.56128 12.479 4.88354 12.479 5.27026V9.75269C12.479 10.1277 12.3501 10.45 12.0923 10.7195C11.8345 10.9773 11.5181 11.1062 11.1431 11.1062H9.33252V12.0027H10.229C10.5337 12.0027 10.686 12.1492 10.686 12.4421C10.686 12.7468 10.5337 12.8992 10.229 12.8992H5.74658C5.61768 12.8992 5.50635 12.8582 5.4126 12.7761C5.33057 12.6941 5.28955 12.5828 5.28955 12.4421C5.28955 12.3132 5.33057 12.2078 5.4126 12.1257C5.50635 12.0437 5.61768 12.0027 5.74658 12.0027H6.64307V11.1062H4.8501C4.46338 11.1062 4.14111 10.9773 3.8833 10.7195C3.62549 10.45 3.49658 10.1277 3.49658 9.75269V5.27026C3.49658 4.88354 3.62549 4.56128 3.8833 4.30347C4.14111 4.04565 4.46338 3.91675 4.8501 3.91675H11.1431ZM11.5825 5.27026C11.5825 4.96558 11.436 4.81323 11.1431 4.81323H4.8501C4.72119 4.81323 4.60986 4.85425 4.51611 4.93628C4.43408 5.01831 4.39307 5.12964 4.39307 5.27026V9.75269C4.39307 9.88159 4.43408 9.99292 4.51611 10.0867C4.60986 10.1687 4.72119 10.2097 4.8501 10.2097H11.1431C11.272 10.2097 11.3774 10.1687 11.4595 10.0867C11.5415 9.99292 11.5825 9.88159 11.5825 9.75269V5.27026Z" fill="url(#paint1_linear_3514_40210)"/>
<path fill-rule="evenodd" clip-rule="evenodd" d="M11.2129 7.43797C11.2123 7.6865 11.0104 7.88749 10.7618 7.8869L9.56054 7.88403L8.75348 9.58239C8.67324 9.75125 8.49695 9.8529 8.31062 9.83777C8.12428 9.82264 7.9667 9.69387 7.91476 9.51428L7.20682 7.06676L6.99848 7.59265C6.93036 7.76459 6.76398 7.87735 6.57904 7.87691L5.24237 7.87371C4.99384 7.87311 4.79285 7.67116 4.79345 7.42263C4.79404 7.17411 4.996 6.97312 5.24452 6.97371L6.27465 6.97618L6.85496 5.51139C6.92583 5.33249 7.10262 5.21845 7.29483 5.22765C7.48704 5.23685 7.65213 5.36725 7.7056 5.5521L8.44972 8.12471L8.87003 7.24021C8.94475 7.08297 9.10346 6.98293 9.27755 6.98335L10.764 6.9869C11.0125 6.98749 11.2135 7.18945 11.2129 7.43797Z" fill="url(#paint2_linear_3514_40210)"/>
</g>
<defs>
<linearGradient id="paint0_linear_3514_40210" x1="1.4475" y1="2.27016" x2="13.6844" y2="14.747" gradientUnits="userSpaceOnUse">
<stop stop-color="white"/>
<stop offset="1" stop-color="#EAECEE"/>
</linearGradient>
<linearGradient id="paint1_linear_3514_40210" x1="4.84309" y1="5.26001" x2="11.1325" y2="11.5517" gradientUnits="userSpaceOnUse">
<stop stop-color="#0195FF"/>
<stop offset="0.991028" stop-color="#1147E9"/>
</linearGradient>
<linearGradient id="paint2_linear_3514_40210" x1="7.99729" y1="5.05196" x2="7.98972" y2="9.80618" gradientUnits="userSpaceOnUse">
<stop stop-color="#00BBFF"/>
<stop offset="1" stop-color="#008BFF"/>
</linearGradient>
<clipPath id="clip0_3514_40210">
<rect width="9" height="9" fill="white" transform="translate(3.49634 3.89917)"/>
</clipPath>
</defs>
</svg>
