<svg width="16" height="16" viewBox="0 0 16 16" fill="none" xmlns="http://www.w3.org/2000/svg">
<circle cx="7.99933" cy="7.99884" r="7.85696" fill="url(#paint0_linear_3514_40218)" stroke="#D5DADD" stroke-width="0.285708"/>
<path d="M5.90397 4.58988C6.52926 4.31147 7.20691 4.17017 7.89136 4.17547H7.89026C8.57465 4.1808 9.24997 4.33258 9.87081 4.62062C10.4917 4.90866 11.0436 5.32628 11.4897 5.84541C11.5269 5.88991 11.5725 5.92659 11.624 5.9533C11.6755 5.98002 11.7318 5.99624 11.7896 6.00103C11.8474 6.00582 11.9056 5.99907 11.9607 5.9812C12.0159 5.96332 12.067 5.93466 12.111 5.89688C12.155 5.8591 12.1911 5.81296 12.2171 5.76112C12.2432 5.70929 12.2587 5.6528 12.2627 5.59494C12.2667 5.53708 12.2592 5.47899 12.2406 5.42405C12.222 5.36911 12.1927 5.31841 12.1543 5.27489C11.6269 4.66077 10.9741 4.16671 10.2398 3.82594C9.50549 3.48516 8.70673 3.30557 7.89723 3.29925C7.08774 3.29292 6.28627 3.46 5.54673 3.78925C4.80719 4.11851 4.14673 4.6023 3.60976 5.20809C3.53265 5.29515 3.49328 5.40927 3.50032 5.52535C3.50735 5.64143 3.56021 5.74996 3.64726 5.82706C3.73431 5.90417 3.84843 5.94354 3.96451 5.9365C4.08059 5.92947 4.18912 5.87661 4.26623 5.78956C4.72026 5.27735 5.27869 4.86829 5.90397 4.58988Z" fill="url(#paint1_linear_3514_40218)"/>
<path d="M6.99147 6.03504C7.54064 5.87368 8.12406 5.86963 8.67541 6.02335C9.31717 6.20225 9.88297 6.58581 10.2868 7.11573C10.6906 7.64564 10.9103 8.29292 10.9126 8.95915C10.9138 9.01441 10.904 9.06936 10.884 9.12086C10.864 9.17236 10.834 9.21942 10.7957 9.25933C10.7575 9.29924 10.7118 9.33123 10.6612 9.35347C10.6106 9.37571 10.5561 9.38777 10.5008 9.38895C10.4456 9.39014 10.3906 9.38043 10.3391 9.36038C10.2876 9.34033 10.2406 9.31033 10.2007 9.2721C10.1608 9.23387 10.1288 9.18815 10.1065 9.13755C10.0843 9.08696 10.0722 9.03248 10.071 8.97722C10.0715 8.68602 10.0146 8.39758 9.9036 8.12837C9.7926 7.85915 9.62965 7.61444 9.42407 7.4082C9.21849 7.20196 8.97431 7.03823 8.70545 6.92636C8.4366 6.81449 8.14834 6.75667 7.85714 6.75621C7.56594 6.75574 7.2775 6.81263 7.00828 6.92364C6.73907 7.03464 6.49436 7.19759 6.28812 7.40317C6.08188 7.60875 5.91815 7.85293 5.80628 8.12179C5.69441 8.39064 5.63659 8.6789 5.63613 8.9701C5.64005 9.46734 5.71339 9.9616 5.85404 10.4385C6.00734 10.9549 6.26139 11.498 6.66656 11.9032C6.74875 11.9853 6.86019 12.0314 6.97637 12.0313C7.09256 12.0313 7.20396 11.9851 7.28608 11.9029C7.36819 11.8207 7.4143 11.7093 7.41425 11.5931C7.41419 11.4769 7.36799 11.3655 7.2858 11.2834C7.02135 11.0189 6.8237 10.6274 6.69393 10.1894C6.56472 9.7547 6.51216 9.30847 6.51216 8.9701C6.51121 8.61433 6.65164 8.27276 6.90253 8.02053C7.15343 7.7683 7.49425 7.62606 7.85002 7.62512C8.20579 7.62418 8.54736 7.7646 8.79959 8.0155C9.05183 8.2664 9.19406 8.60722 9.195 8.96298V8.97996C9.195 9.00514 9.19391 9.03088 9.19227 9.05661C9.18784 9.1256 9.19985 9.19465 9.22731 9.2581C9.29265 9.54239 9.45187 9.79637 9.67927 9.97905C9.90668 10.1617 10.189 10.2625 10.4807 10.265C10.7724 10.2675 11.0564 10.1717 11.287 9.993C11.5175 9.81429 11.6811 9.56311 11.7514 9.28C11.7719 9.2312 11.7834 9.17906 11.7853 9.12614C11.809 8.53876 11.7007 7.95354 11.4684 7.41349C11.2362 6.87344 10.8859 6.39228 10.4434 6.00537C10.0008 5.61846 9.47712 5.33563 8.91088 5.17767C8.34464 5.0197 7.7502 4.99061 7.17124 5.09253C6.59228 5.19445 6.04351 5.42479 5.56526 5.76663C5.08701 6.10848 4.69142 6.55313 4.40757 7.06792C4.12372 7.58271 3.95882 8.15456 3.92498 8.74145C3.89114 9.32834 3.98922 9.91535 4.21203 10.4594C4.25836 10.5634 4.34337 10.6453 4.44904 10.6877C4.55472 10.7301 4.67275 10.7296 4.77812 10.6865C4.8835 10.6433 4.96793 10.5609 5.01352 10.4565C5.05911 10.3522 5.06228 10.2342 5.02236 10.1276C4.80575 9.59775 4.74214 9.01779 4.83876 8.45362C4.93537 7.88945 5.18833 7.36371 5.56888 6.93616C5.94943 6.50861 6.44231 6.19641 6.99147 6.03504Z" fill="url(#paint2_linear_3514_40218)"/>
<path d="M8.38316 8.97001C8.38315 8.72838 8.18727 8.53251 7.94565 8.53252C7.70403 8.53253 7.50816 8.72841 7.50816 8.97003C7.50818 9.61475 7.63444 10.0057 7.88813 10.4118C8.01615 10.6167 8.28605 10.679 8.49097 10.551C8.6959 10.423 8.75824 10.1531 8.63022 9.94817C8.46949 9.69088 8.38317 9.46272 8.38316 8.97001Z" fill="url(#paint3_linear_3514_40218)"/>
<path d="M12.5884 10.1023C12.4472 10.1023 12.3202 10.1588 12.2073 10.2717L10.4501 12.0289L9.75143 11.3302C9.65263 11.2173 9.53266 11.1609 9.39152 11.1609C9.25038 11.1609 9.12335 11.2173 9.01044 11.3302C8.89752 11.4431 8.84106 11.5702 8.84106 11.7113C8.84106 11.8525 8.89752 11.9795 9.01044 12.0924L10.069 13.151C10.1678 13.2498 10.2948 13.2992 10.4501 13.2992C10.6053 13.2992 10.7324 13.2498 10.8312 13.151L12.9695 11.0127C13.0683 10.8997 13.1177 10.7727 13.1177 10.6316C13.1177 10.4904 13.0683 10.3705 12.9695 10.2717C12.8566 10.1588 12.7295 10.1023 12.5884 10.1023Z" fill="url(#paint4_linear_3514_40218)"/>
<defs>
<linearGradient id="paint0_linear_3514_40218" x1="1.45043" y1="2.26992" x2="13.6874" y2="14.7468" gradientUnits="userSpaceOnUse">
<stop stop-color="white"/>
<stop offset="1" stop-color="#EAECEE"/>
</linearGradient>
<linearGradient id="paint1_linear_3514_40218" x1="4.81331" y1="4.60493" x2="10.9276" y2="10.7437" gradientUnits="userSpaceOnUse">
<stop stop-color="#0195FF"/>
<stop offset="0.991028" stop-color="#1147E9"/>
</linearGradient>
<linearGradient id="paint2_linear_3514_40218" x1="4.81331" y1="4.60493" x2="10.9276" y2="10.7437" gradientUnits="userSpaceOnUse">
<stop stop-color="#0195FF"/>
<stop offset="0.991028" stop-color="#1147E9"/>
</linearGradient>
<linearGradient id="paint3_linear_3514_40218" x1="4.81331" y1="4.60493" x2="10.9276" y2="10.7437" gradientUnits="userSpaceOnUse">
<stop stop-color="#0195FF"/>
<stop offset="0.991028" stop-color="#1147E9"/>
</linearGradient>
<linearGradient id="paint4_linear_3514_40218" x1="9.47333" y1="10.5726" x2="11.6165" y2="13.4521" gradientUnits="userSpaceOnUse">
<stop stop-color="#1348FF"/>
<stop offset="1" stop-color="#06238D"/>
</linearGradient>
</defs>
</svg>
