<svg width="16" height="16" viewBox="0 0 16 16" fill="none" xmlns="http://www.w3.org/2000/svg">
<circle cx="7.99786" cy="7.99884" r="7.85696" fill="url(#paint0_linear_3514_40222)" stroke="#D5DADD" stroke-width="0.285708"/>
<g clip-path="url(#clip0_3514_40222)">
<path d="M3.85927 4.18465C3.60338 4.42918 3.40352 4.76913 3.39795 5.19515C3.39795 5.19515 3.41069 10.6823 3.41069 10.6809L3.41069 10.6817C3.4111 11.6383 4.16341 12.1552 4.83182 12.4113C5.37687 12.6202 6.2183 12.7287 6.96773 12.7677C7.31793 12.7859 7.60246 12.5006 7.60266 12.1499L7.60269 12.0997C7.60288 11.7768 7.34115 11.5251 7.01842 11.515C6.33544 11.4937 5.70315 11.3945 5.24164 11.2176C4.67959 11.0022 4.61256 10.7831 4.61256 10.6809L4.61189 9.90165C4.6874 9.92578 4.76697 9.95532 4.84832 9.98553C4.99962 10.0417 5.15708 10.1002 5.30598 10.1303C5.36367 10.142 5.49131 10.1596 5.63004 10.1773C5.85358 10.2059 6.05109 10.0304 6.05109 9.80501V9.7414C6.05109 9.72489 6.05002 9.7086 6.04794 9.69257C6.04563 9.68048 6.04346 9.66836 6.04141 9.65621C6.00682 9.50608 5.88298 9.38627 5.72626 9.35844C5.63901 9.34295 5.56282 9.3289 5.53557 9.32338C5.15929 9.24715 4.83084 9.11713 4.60902 9.01478L4.60762 8.06379C4.67167 8.08433 4.73864 8.10759 4.80714 8.13139C4.97092 8.18829 5.14348 8.24824 5.30598 8.28116C5.49579 8.31962 5.82559 8.37118 6.12632 8.41156C6.2121 8.42308 6.29438 8.40373 6.36267 8.36221C6.40702 8.30425 6.45536 8.24896 6.5075 8.19675L6.50824 8.196C6.50833 8.19591 6.50842 8.19582 6.50851 8.19574C6.52302 8.16283 6.533 8.12724 6.53757 8.08968L6.54206 8.05274C6.5672 7.84607 6.41919 7.65811 6.21306 7.62889C5.98691 7.59683 5.7521 7.55969 5.62911 7.53477C5.25042 7.45804 4.82696 7.3175 4.60475 7.21441L4.60308 6.21096C4.6611 6.23545 4.71993 6.25846 4.77927 6.28011C5.46063 6.52873 6.35332 6.64931 7.29501 6.64931C7.40013 6.64931 7.50466 6.6478 7.60837 6.64479C7.78162 6.06153 8.27169 5.59819 8.87198 5.46949C8.93671 5.37508 9.01144 5.2869 9.0954 5.20664C9.6722 4.65523 10.562 4.60144 11.2003 5.04259C11.1571 4.68523 10.9736 4.39651 10.7487 4.18313C10.4989 3.9461 10.1738 3.77494 9.83228 3.64923C9.14581 3.39653 8.24437 3.27393 7.29483 3.27393C6.34529 3.27393 5.45028 3.39651 4.76877 3.64987C4.42942 3.77603 4.10732 3.94761 3.85927 4.18465Z" fill="url(#paint1_linear_3514_40222)"/>
<path fill-rule="evenodd" clip-rule="evenodd" d="M12.2666 6.75092C12.2122 6.59989 12.1233 6.46204 12.0053 6.34916C11.7999 6.1527 11.5089 6.04496 11.2313 6.06032C11.1768 5.90932 11.0878 5.77152 10.9697 5.6587C10.5714 5.27813 9.92559 5.27759 9.52709 5.65854C9.40897 5.77147 9.32003 5.90941 9.26567 6.06055C8.68208 6.02693 8.16587 6.52429 8.16587 7.1064V8.44624C8.01986 8.37185 7.85704 8.33203 7.69012 8.33203C7.41253 8.33203 7.14599 8.44249 6.94953 8.63853C6.75329 8.83503 6.64307 9.10138 6.64307 9.37909C6.64307 9.65691 6.75369 9.92354 6.94985 10.12L6.95091 10.121C7.48637 10.6495 7.93891 11.2553 8.48454 11.7746C9.05855 12.321 9.7479 12.7992 10.5822 12.7992C11.4764 12.7992 12.1834 12.4106 12.6595 11.7868C13.1303 11.1701 13.3666 10.3375 13.3666 9.44584V7.79658C13.3666 7.20816 12.8554 6.71852 12.2666 6.75092ZM10.5809 12.0035C10.1486 12.0035 9.75162 11.827 9.42698 11.5325L7.50542 9.56227C7.46132 9.51289 7.43779 9.4485 7.43966 9.38231C7.44152 9.31613 7.46865 9.25317 7.51547 9.20635C7.56229 9.15953 7.62525 9.13241 7.69143 9.13054C7.75761 9.12867 7.822 9.1522 7.87139 9.1963L8.18042 9.50521C8.46635 9.79102 8.95509 9.58852 8.95509 9.18424C8.95509 8.50173 8.9538 7.79766 8.9538 7.10639C8.9538 7.03788 8.98102 6.97217 9.02947 6.92372C9.07791 6.87527 9.14362 6.84806 9.21213 6.84806C9.28065 6.84806 9.34636 6.87527 9.3948 6.92372C9.44325 6.97217 9.47047 7.03788 9.47047 7.10639V8.74637C9.47047 8.88928 9.58632 9.00513 9.72923 9.00513C9.87214 9.00513 9.98799 8.88928 9.98799 8.74637V6.41578C9.98799 6.34727 10.0152 6.28156 10.0637 6.23311C10.1121 6.18466 10.1778 6.15745 10.2463 6.15745C10.3148 6.15745 10.3805 6.18466 10.429 6.23311C10.4774 6.28156 10.5047 6.34727 10.5047 6.41578V8.74594C10.5047 8.88909 10.6207 9.00513 10.7639 9.00513C10.907 9.00513 11.023 8.88909 11.023 8.74594V7.10639C11.023 7.03788 11.0503 6.97217 11.0987 6.92372C11.1472 6.87527 11.2129 6.84806 11.2814 6.84806C11.3499 6.84806 11.4156 6.87527 11.464 6.92372C11.5125 6.97217 11.5397 7.03788 11.5397 7.10639V8.74616C11.5397 8.88919 11.6557 9.00513 11.7987 9.00513C11.9417 9.00513 12.0577 8.88919 12.0577 8.74616V7.79657C12.0578 7.73658 12.0788 7.67849 12.117 7.63228C12.1553 7.58607 12.2084 7.55462 12.2673 7.54331C12.3453 7.52836 12.4283 7.55154 12.487 7.6034C12.5467 7.65609 12.5558 7.74135 12.5559 7.82094C12.5559 7.93277 12.5568 8.04884 12.5576 8.16742C12.5694 9.76438 12.5849 11.8804 10.5809 12.0035Z" fill="url(#paint2_linear_3514_40222)"/>
</g>
<defs>
<linearGradient id="paint0_linear_3514_40222" x1="1.44897" y1="2.26992" x2="13.6859" y2="14.7468" gradientUnits="userSpaceOnUse">
<stop stop-color="white"/>
<stop offset="1" stop-color="#EAECEE"/>
</linearGradient>
<linearGradient id="paint1_linear_3514_40222" x1="4.56756" y1="4.69378" x2="11.09" y2="10.0556" gradientUnits="userSpaceOnUse">
<stop stop-color="#0195FF"/>
<stop offset="0.991028" stop-color="#1147E9"/>
</linearGradient>
<linearGradient id="paint2_linear_3514_40222" x1="7.63709" y1="6.46559" x2="12.8109" y2="11.17" gradientUnits="userSpaceOnUse">
<stop stop-color="#1348FF"/>
<stop offset="1" stop-color="#06238D"/>
</linearGradient>
<clipPath id="clip0_3514_40222">
<rect width="9.99998" height="9.99998" fill="white" transform="translate(3.39795 2.79907)"/>
</clipPath>
</defs>
</svg>
