<svg width="16" height="16" viewBox="0 0 16 16" fill="none" xmlns="http://www.w3.org/2000/svg">
<circle cx="7.99786" cy="7.99884" r="7.85696" fill="url(#paint0_linear_3890_21469)" stroke="#D5DADD" stroke-width="0.285708"/>
<g clip-path="url(#clip0_3890_21469)">
<path d="M12.5919 10.5218C12.6918 10.4182 12.8043 10.3665 12.9293 10.3665C13.0543 10.3665 13.1667 10.4182 13.2667 10.5218C13.3542 10.6125 13.3979 10.7225 13.3979 10.852C13.3979 10.9814 13.3542 11.098 13.2667 11.2015L11.3734 13.163C11.2859 13.2537 11.1735 13.299 11.036 13.299C10.8985 13.299 10.786 13.2537 10.6986 13.163L9.76129 12.192C9.66132 12.0884 9.61133 11.9719 9.61133 11.8424C9.61133 11.713 9.66132 11.5964 9.76129 11.4929C9.86127 11.3893 9.97374 11.3375 10.0987 11.3375C10.2237 11.3375 10.3299 11.3893 10.4174 11.4929L11.036 12.1337L12.5919 10.5218Z" fill="url(#paint1_linear_3890_21469)"/>
<path fill-rule="evenodd" clip-rule="evenodd" d="M11.2179 3.30812C12.0063 3.30368 12.5651 4.12908 12.5651 4.8582V9.03722C12.5651 10.4255 11.2361 10.759 10.1619 10.759C9.85164 10.759 9.59206 10.8953 9.39999 11.0943C8.96106 11.549 8.39872 12.5046 7.7667 12.5046H4.91318C4.48386 12.5046 4.124 12.3591 3.83358 12.0682C3.54316 11.7772 3.39795 11.4167 3.39795 10.9867V4.8582C3.39795 4.08671 3.98282 3.32133 4.79953 3.32133L11.2179 3.30812ZM11.2179 4.34025C11.5649 4.34025 11.5649 4.70641 11.5649 4.8582V7.91295H9.49674C9.34521 7.91295 9.21895 7.96355 9.11793 8.06474C9.02954 8.15328 8.98535 8.2861 8.98535 8.46318C8.98535 8.72881 8.88433 8.96282 8.6823 9.16521C8.4929 9.35494 8.2593 9.44981 7.98151 9.44981C7.69109 9.44981 7.44487 9.35494 7.24284 9.16521C7.05343 8.96282 6.95873 8.72881 6.95873 8.46318C6.95873 8.2861 6.90822 8.15328 6.80721 8.06474C6.71882 7.96355 6.59887 7.91295 6.44734 7.91295H4.40179V4.8582C4.40179 4.70641 4.40179 4.34025 4.79953 4.34025H11.2179Z" fill="url(#paint2_linear_3890_21469)"/>
<path fill-rule="evenodd" clip-rule="evenodd" d="M10.2364 5.77959L5.70065 5.77959C5.52754 5.77959 5.38721 5.63902 5.38721 5.4656C5.38721 5.29219 5.52754 5.15161 5.70065 5.15161L10.2364 5.15161C10.4095 5.15161 10.5498 5.29219 10.5498 5.4656C10.5498 5.63901 10.4095 5.77959 10.2364 5.77959ZM10.2364 7.09367L5.70065 7.09368C5.52754 7.09368 5.38721 6.9531 5.38721 6.77969C5.38721 6.60628 5.52754 6.4657 5.70065 6.4657L10.2364 6.4657C10.4095 6.4657 10.5498 6.60627 10.5498 6.77968C10.5498 6.9531 10.4095 7.09367 10.2364 7.09367Z" fill="url(#paint3_linear_3890_21469)"/>
</g>
<defs>
<linearGradient id="paint0_linear_3890_21469" x1="1.44897" y1="2.26992" x2="13.6859" y2="14.7468" gradientUnits="userSpaceOnUse">
<stop stop-color="white"/>
<stop offset="1" stop-color="#EAECEE"/>
</linearGradient>
<linearGradient id="paint1_linear_3890_21469" x1="10.1712" y1="10.7979" x2="12.1561" y2="13.3719" gradientUnits="userSpaceOnUse">
<stop stop-color="#1348FF"/>
<stop offset="1" stop-color="#06238D"/>
</linearGradient>
<linearGradient id="paint2_linear_3890_21469" x1="4.77214" y1="4.68338" x2="11.2114" y2="11.1044" gradientUnits="userSpaceOnUse">
<stop stop-color="#0195FF"/>
<stop offset="0.991028" stop-color="#1147E9"/>
</linearGradient>
<linearGradient id="paint3_linear_3890_21469" x1="6.15984" y1="5.44298" x2="7.05655" y2="7.82507" gradientUnits="userSpaceOnUse">
<stop stop-color="#00BBFF"/>
<stop offset="1" stop-color="#008BFF"/>
</linearGradient>
<clipPath id="clip0_3890_21469">
<rect width="9.99998" height="9.99998" fill="white" transform="translate(3.39795 3.29907)"/>
</clipPath>
</defs>
</svg>
