<svg width="16" height="16" viewBox="0 0 16 16" fill="none" xmlns="http://www.w3.org/2000/svg">
<circle cx="7.99762" cy="7.99884" r="7.85696" fill="url(#paint0_linear_3514_40223)" stroke="#D5DADD" stroke-width="0.285708"/>
<g clip-path="url(#clip0_3514_40223)">
<path fill-rule="evenodd" clip-rule="evenodd" d="M10.3384 2.8186H7.38696C7.27648 2.8186 7.17052 2.86249 7.0924 2.94061C7.01428 3.01874 6.97039 3.12469 6.97039 3.23517L6.97039 4.84786C6.97039 5.18948 6.84838 5.48231 6.60436 5.72633C6.36034 5.97035 6.06751 6.09236 5.72588 6.09236H4.26349C4.15301 6.09236 4.04706 6.13625 3.96893 6.21437C3.89081 6.29249 3.84692 6.39845 3.84692 6.50893V11.7991C3.84692 12.3513 4.29464 12.799 4.84692 12.799H6.97341C7.4399 12.799 7.84441 12.4765 7.9483 12.0217L8.19383 10.9469C8.29771 10.4921 8.70223 10.1696 9.16871 10.1696H10.3384C10.8906 10.1696 11.3384 9.72185 11.3384 9.16956V3.8186C11.3384 3.26632 10.8906 2.8186 10.3384 2.8186ZM9.52242 6.12376L7.9346 6.12375C7.66658 6.12375 7.44729 5.89776 7.44729 5.62154C7.44729 5.34532 7.66658 5.11932 7.9346 5.11932L9.52242 5.11932C9.79044 5.11932 10.0097 5.34532 10.0097 5.62154C10.0097 5.89776 9.79044 6.12376 9.52242 6.12376ZM9.54182 7.7532H5.64336C5.37534 7.7532 5.15605 7.5272 5.15605 7.25098C5.15605 6.97476 5.37534 6.74876 5.64336 6.74876H9.54182C9.80984 6.74876 10.0291 6.97476 10.0291 7.25098C10.0291 7.5272 9.80984 7.7532 9.54182 7.7532ZM5.64336 9.38263H9.54182C9.80984 9.38263 10.0291 9.15663 10.0291 8.88041C10.0291 8.60419 9.80984 8.3782 9.54182 8.3782H5.64336C5.37534 8.3782 5.15605 8.60419 5.15605 8.88041C5.15605 9.15663 5.37534 9.38263 5.64336 9.38263ZM7.10528 11.0121H5.64336C5.37534 11.0121 5.15605 10.7861 5.15605 10.5099C5.15605 10.2336 5.37534 10.0076 5.64336 10.0076H7.10528C7.3733 10.0076 7.59259 10.2336 7.59259 10.5099C7.59259 10.7861 7.3733 11.0121 7.10528 11.0121Z" fill="url(#paint1_linear_3514_40223)"/>
<path d="M6.44684 4.73616V3.52588L4.49414 5.58013H5.60288C5.83456 5.58013 6.03314 5.49739 6.19862 5.3319C6.3641 5.16642 6.44684 4.96784 6.44684 4.73616Z" fill="url(#paint2_linear_3514_40223)"/>
<path d="M11.7442 9.98276C11.8442 9.87918 11.9567 9.82739 12.0816 9.82739C12.2066 9.82739 12.3191 9.87918 12.4191 9.98276C12.5065 10.0734 12.5503 10.1834 12.5503 10.3129C12.5503 10.4424 12.5065 10.5589 12.4191 10.6625L10.5258 12.624C10.4383 12.7146 10.3258 12.7599 10.1883 12.7599C10.0509 12.7599 9.93839 12.7146 9.85091 12.624L8.91364 11.6529C8.81366 11.5494 8.76367 11.4328 8.76367 11.3034C8.76367 11.1739 8.81366 11.0574 8.91364 10.9538C9.01361 10.8502 9.12609 10.7984 9.25106 10.7984C9.37603 10.7984 9.48225 10.8502 9.56973 10.9538L10.1883 11.5947L11.7442 9.98276Z" fill="url(#paint3_linear_3514_40223)"/>
</g>
<defs>
<linearGradient id="paint0_linear_3514_40223" x1="1.44873" y1="2.26992" x2="13.6856" y2="14.7468" gradientUnits="userSpaceOnUse">
<stop stop-color="white"/>
<stop offset="1" stop-color="#EAECEE"/>
</linearGradient>
<linearGradient id="paint1_linear_3514_40223" x1="4.96992" y1="4.31112" x2="11.6808" y2="9.35016" gradientUnits="userSpaceOnUse">
<stop stop-color="#0195FF"/>
<stop offset="0.991028" stop-color="#1147E9"/>
</linearGradient>
<linearGradient id="paint2_linear_3514_40223" x1="4.78283" y1="3.8281" x2="6.21896" y2="5.19912" gradientUnits="userSpaceOnUse">
<stop stop-color="#1348FF"/>
<stop offset="1" stop-color="#06238D"/>
</linearGradient>
<linearGradient id="paint3_linear_3514_40223" x1="9.3235" y1="10.2588" x2="11.3084" y2="12.8329" gradientUnits="userSpaceOnUse">
<stop stop-color="#1348FF"/>
<stop offset="1" stop-color="#06238D"/>
</linearGradient>
<clipPath id="clip0_3514_40223">
<rect width="9.99998" height="9.99998" fill="white" transform="translate(2.5979 2.79907)"/>
</clipPath>
</defs>
</svg>
