<svg width="16" height="16" viewBox="0 0 16 16" fill="none" xmlns="http://www.w3.org/2000/svg">
<circle cx="7.99738" cy="7.99884" r="7.85696" fill="url(#paint0_linear_3514_40224)" stroke="#D5DADD" stroke-width="0.285708"/>
<g clip-path="url(#clip0_3514_40224)">
<path d="M12.5914 10.5218C12.6914 10.4182 12.8038 10.3665 12.9288 10.3665C13.0538 10.3665 13.1662 10.4182 13.2662 10.5218C13.3537 10.6125 13.3974 10.7225 13.3974 10.852C13.3974 10.9814 13.3537 11.098 13.2662 11.2015L11.3729 13.163C11.2854 13.2537 11.173 13.299 11.0355 13.299C10.898 13.299 10.7856 13.2537 10.6981 13.163L9.7608 12.192C9.66083 12.0884 9.61084 11.9719 9.61084 11.8424C9.61084 11.713 9.66083 11.5964 9.7608 11.4929C9.86078 11.3893 9.97325 11.3375 10.0982 11.3375C10.2232 11.3375 10.3294 11.3893 10.4169 11.4929L11.0355 12.1337L12.5914 10.5218Z" fill="url(#paint1_linear_3514_40224)"/>
<path fill-rule="evenodd" clip-rule="evenodd" d="M11.2175 3.30789C11.6389 3.30551 11.8512 3.46656 12.129 3.75749C12.4194 4.04842 12.5646 4.41524 12.5646 4.85796V9.03698C12.5646 9.5393 12.2355 9.99341 11.8792 10.3475C11.8431 10.3834 11.8075 10.4202 11.7724 10.4576C11.3725 10.884 10.746 10.7588 10.1614 10.7588L-nan -nanL10.1614 10.7588C9.85115 10.7588 9.59157 10.8951 9.3995 11.0941L-nan -nanL9.3995 11.0941C8.96057 11.5488 8.39823 12.5043 7.76622 12.5043H4.91269C4.48337 12.5043 4.12351 12.3589 3.83309 12.0679C3.54267 11.777 3.39746 11.4165 3.39746 10.9864V4.85796C3.39746 4.64293 3.43534 4.44054 3.5111 4.25081C3.58686 4.06107 3.68788 3.89663 3.81415 3.75749C3.95304 3.61835 4.10457 3.51083 4.26872 3.43494C4.43287 3.35904 4.60964 3.3211 4.79905 3.3211L11.2175 3.30789ZM11.2175 4.34002C11.5644 4.34002 11.5644 4.70617 11.5644 4.85796V7.91271H9.49625C9.34473 7.91271 9.21846 7.96331 9.11744 8.0645C9.02905 8.15305 8.98486 8.28586 8.98486 8.46295C8.98486 8.72858 8.88384 8.96258 8.68181 9.16497C8.49241 9.35471 8.25881 9.44957 7.98102 9.44957C7.6906 9.44957 7.44438 9.35471 7.24235 9.16497C7.05295 8.96258 6.95824 8.72858 6.95824 8.46295C6.95824 8.28586 6.90774 8.15305 6.80672 8.0645C6.71833 7.96331 6.59838 7.91271 6.44685 7.91271H4.4013V4.85796C4.4013 4.70617 4.4013 4.34002 4.79905 4.34002H11.2175Z" fill="url(#paint2_linear_3514_40224)"/>
<path fill-rule="evenodd" clip-rule="evenodd" d="M10.2361 5.77959L5.7004 5.77959C5.52729 5.77959 5.38696 5.63902 5.38696 5.4656C5.38696 5.29219 5.52729 5.15161 5.7004 5.15161L10.2361 5.15161C10.4093 5.15161 10.5496 5.29219 10.5496 5.4656C10.5496 5.63901 10.4093 5.77959 10.2361 5.77959ZM10.2361 7.09367L5.7004 7.09368C5.52729 7.09368 5.38696 6.9531 5.38696 6.77969C5.38696 6.60628 5.52729 6.4657 5.7004 6.4657L10.2361 6.4657C10.4093 6.4657 10.5496 6.60627 10.5496 6.77968C10.5496 6.9531 10.4093 7.09367 10.2361 7.09367Z" fill="url(#paint3_linear_3514_40224)"/>
</g>
<defs>
<linearGradient id="paint0_linear_3514_40224" x1="1.44848" y1="2.26992" x2="13.6854" y2="14.7468" gradientUnits="userSpaceOnUse">
<stop stop-color="white"/>
<stop offset="1" stop-color="#EAECEE"/>
</linearGradient>
<linearGradient id="paint1_linear_3514_40224" x1="10.1707" y1="10.7979" x2="12.1556" y2="13.3719" gradientUnits="userSpaceOnUse">
<stop stop-color="#1348FF"/>
<stop offset="1" stop-color="#06238D"/>
</linearGradient>
<linearGradient id="paint2_linear_3514_40224" x1="4.77165" y1="4.68314" x2="11.2109" y2="11.1041" gradientUnits="userSpaceOnUse">
<stop stop-color="#0195FF"/>
<stop offset="0.991028" stop-color="#1147E9"/>
</linearGradient>
<linearGradient id="paint3_linear_3514_40224" x1="6.15959" y1="5.44298" x2="7.05631" y2="7.82507" gradientUnits="userSpaceOnUse">
<stop stop-color="#00BBFF"/>
<stop offset="1" stop-color="#008BFF"/>
</linearGradient>
<clipPath id="clip0_3514_40224">
<rect width="9.99998" height="9.99998" fill="white" transform="translate(3.39746 3.29907)"/>
</clipPath>
</defs>
</svg>
