<svg width="16" height="16" viewBox="0 0 16 16" fill="none" xmlns="http://www.w3.org/2000/svg">
<circle cx="7.9964" cy="7.99884" r="7.85696" fill="url(#paint0_linear_3514_40226)" stroke="#D5DADD" stroke-width="0.285708"/>
<g clip-path="url(#clip0_3514_40226)">
<path d="M7.51693 3.8584C6.19108 3.8584 5.24906 4.93903 5.09211 6.06721C4.66562 6.09263 4.28903 6.25312 3.99654 6.52268C3.60085 6.88735 3.39648 7.41667 3.39648 7.97487C3.39648 8.49362 3.55364 8.98396 3.90648 9.34649C4.26169 9.71147 4.76599 9.89635 5.35979 9.89635H6.48947V9.21713C6.48947 8.56081 7.0184 8.01955 7.68217 8.01955C8.20037 8.01955 8.65541 8.3546 8.81531 8.8434L8.84052 8.92046L8.86379 8.84775C9.02086 8.35703 9.47605 8.01955 9.99527 8.01955C10.6323 8.01955 11.1446 8.51976 11.1816 9.14083C11.5188 8.75605 11.7296 8.23786 11.7296 7.61616C11.7296 6.38114 10.8481 5.43204 9.78682 5.33166C9.3614 4.45083 8.57171 3.8584 7.51693 3.8584Z" fill="url(#paint1_linear_3514_40226)"/>
<path d="M11.8271 12.4655C11.6806 12.6145 11.5359 12.8455 11.6824 12.9945C11.8289 13.1435 11.9951 13.1539 12.1416 13.0049L13.2664 11.8609C13.4129 11.7119 13.4129 11.4705 13.2664 11.3215L12.1416 10.1774C11.9951 10.0284 11.823 9.96637 11.6765 10.1154C11.4932 10.2584 11.7483 10.5678 11.8948 10.7168L12.3147 11.2181L10.0024 11.2205L10.0022 11.5172C10.0021 11.7219 10.1666 11.8877 10.3695 11.8875L12.3561 11.8854L11.8271 12.4655Z" fill="url(#paint2_linear_3514_40226)"/>
<path d="M7.15698 9.24861C7.15698 8.9313 7.41201 8.67407 7.72661 8.67407C7.97244 8.67407 8.19053 8.83313 8.26756 9.06859L8.73475 10.4967C8.76074 10.5754 8.79132 10.6856 8.82648 10.8275C8.86164 10.9694 8.88458 11.0634 8.89528 11.1097C8.90751 11.0634 8.93197 10.9709 8.96866 10.8321C9.00689 10.6918 9.03899 10.5839 9.06498 10.5083L9.52562 9.06912C9.60098 8.83365 9.81831 8.67407 10.0636 8.67407C10.3759 8.67407 10.629 8.92937 10.629 9.2443V11.2198L10.0024 11.2205L10.0029 9.9578C10.0029 9.79126 10.0067 9.63398 10.0144 9.48594C10.0236 9.33791 10.0198 9.27905 10.0282 9.25233C10.0266 9.25387 10.0113 9.30784 9.98229 9.41424C9.967 9.46513 9.93489 9.57461 9.88597 9.74269C9.83858 9.91077 9.80112 10.0349 9.7736 10.1151L9.2558 11.67C9.20345 11.8272 9.0574 11.9331 8.89299 11.9331C8.72857 11.9331 8.58252 11.8272 8.53017 11.67L8.01237 10.1151C7.98027 10.021 7.9344 9.87376 7.87478 9.6733C7.81668 9.4713 7.77616 9.33097 7.75323 9.25233L7.75782 9.31941C7.75935 9.34408 7.76393 9.4312 7.77158 9.58078C7.77922 9.72881 7.78304 9.85449 7.78304 9.9578V11.6174C7.78304 11.7918 7.6429 11.9331 7.47001 11.9331C7.29713 11.9331 7.15698 11.7918 7.15698 11.6174V9.24861Z" fill="url(#paint3_linear_3514_40226)"/>
</g>
<defs>
<linearGradient id="paint0_linear_3514_40226" x1="1.4475" y1="2.26992" x2="13.6844" y2="14.7468" gradientUnits="userSpaceOnUse">
<stop stop-color="white"/>
<stop offset="1" stop-color="#EAECEE"/>
</linearGradient>
<linearGradient id="paint1_linear_3514_40226" x1="4.64566" y1="4.76134" x2="8.66266" y2="10.3073" gradientUnits="userSpaceOnUse">
<stop stop-color="#0195FF"/>
<stop offset="0.991028" stop-color="#1147E9"/>
</linearGradient>
<linearGradient id="paint2_linear_3514_40226" x1="8.07646" y1="9.32693" x2="11.009" y2="13.4547" gradientUnits="userSpaceOnUse">
<stop stop-color="#1348FF"/>
<stop offset="1" stop-color="#06238D"/>
</linearGradient>
<linearGradient id="paint3_linear_3514_40226" x1="8.07646" y1="9.32693" x2="11.009" y2="13.4547" gradientUnits="userSpaceOnUse">
<stop stop-color="#1348FF"/>
<stop offset="1" stop-color="#06238D"/>
</linearGradient>
<clipPath id="clip0_3514_40226">
<rect width="9.99977" height="10" fill="white" transform="translate(3.39648 3.79907)"/>
</clipPath>
</defs>
</svg>
