<svg width="16" height="16" viewBox="0 0 16 16" fill="none" xmlns="http://www.w3.org/2000/svg">
<circle cx="7.99445" cy="7.99884" r="7.85696" fill="url(#paint0_linear_3514_40232)" stroke="#D5DADD" stroke-width="0.285708"/>
<path d="M11.9903 9.38672C11.8632 9.38672 11.7489 9.43753 11.6473 9.53915L10.0658 11.1207L9.43701 10.4919C9.34809 10.3902 9.24011 10.3394 9.11309 10.3394C8.98606 10.3394 8.87173 10.3902 8.77011 10.4919C8.66849 10.5935 8.61768 10.7078 8.61768 10.8348C8.61768 10.9619 8.66849 11.0762 8.77011 11.1778L9.72282 12.1305C9.81174 12.2194 9.92607 12.2639 10.0658 12.2639C10.2055 12.2639 10.3199 12.2194 10.4088 12.1305L12.3333 10.2061C12.4222 10.1044 12.4666 9.9901 12.4666 9.86307C12.4666 9.73605 12.4222 9.62807 12.3333 9.53915C12.2316 9.43753 12.1173 9.38672 11.9903 9.38672Z" fill="url(#paint1_linear_3514_40232)"/>
<path d="M10.222 4.10052C10.222 3.66275 10.5769 3.30786 11.0147 3.30786C11.4525 3.30786 11.8074 3.66275 11.8074 4.10052V7.92186C11.8074 8.35963 11.4525 8.71451 11.0147 8.71451C10.5769 8.71451 10.222 8.35963 10.222 7.92186L10.222 4.10052Z" fill="url(#paint2_linear_3514_40232)"/>
<path d="M5.9539 5.87826C5.9539 5.44049 6.30878 5.08561 6.74655 5.08561C7.18433 5.08561 7.53921 5.44049 7.53921 5.87826L7.53921 11.1765C7.53921 11.6143 7.18433 11.9692 6.74655 11.9692C6.30878 11.9692 5.9539 11.6143 5.9539 11.1765L5.9539 5.87826Z" fill="url(#paint3_linear_3514_40232)"/>
<path d="M8.08797 7.49184C8.08797 7.05407 8.44286 6.69918 8.88063 6.69918C9.3184 6.69918 9.67329 7.05407 9.67329 7.49184L9.67328 8.71451C9.67328 9.15228 9.3184 9.50717 8.88063 9.50717C8.44286 9.50717 8.08797 9.15228 8.08797 8.71451L8.08797 7.49184Z" fill="url(#paint4_linear_3514_40232)"/>
<path d="M3.81982 9.24892C3.81982 8.81115 4.17471 8.45626 4.61248 8.45626C5.05025 8.45626 5.40514 8.81115 5.40514 9.24892L5.40514 11.1765C5.40514 11.6143 5.05025 11.9692 4.61248 11.9692C4.17471 11.9692 3.81982 11.6143 3.81982 11.1765V9.24892Z" fill="url(#paint5_linear_3514_40232)"/>
<defs>
<linearGradient id="paint0_linear_3514_40232" x1="1.44555" y1="2.26992" x2="13.6825" y2="14.7468" gradientUnits="userSpaceOnUse">
<stop stop-color="white"/>
<stop offset="1" stop-color="#EAECEE"/>
</linearGradient>
<linearGradient id="paint1_linear_3514_40232" x1="9.18672" y1="9.81002" x2="11.1156" y2="12.4015" gradientUnits="userSpaceOnUse">
<stop stop-color="#1348FF"/>
<stop offset="1" stop-color="#06238D"/>
</linearGradient>
<linearGradient id="paint2_linear_3514_40232" x1="5.01719" y1="4.60311" x2="11.0621" y2="10.1798" gradientUnits="userSpaceOnUse">
<stop stop-color="#0195FF"/>
<stop offset="0.991028" stop-color="#1147E9"/>
</linearGradient>
<linearGradient id="paint3_linear_3514_40232" x1="5.01719" y1="4.60311" x2="11.0621" y2="10.1798" gradientUnits="userSpaceOnUse">
<stop stop-color="#0195FF"/>
<stop offset="0.991028" stop-color="#1147E9"/>
</linearGradient>
<linearGradient id="paint4_linear_3514_40232" x1="5.01719" y1="4.60311" x2="11.0621" y2="10.1798" gradientUnits="userSpaceOnUse">
<stop stop-color="#0195FF"/>
<stop offset="0.991028" stop-color="#1147E9"/>
</linearGradient>
<linearGradient id="paint5_linear_3514_40232" x1="5.01719" y1="4.60311" x2="11.0621" y2="10.1798" gradientUnits="userSpaceOnUse">
<stop stop-color="#0195FF"/>
<stop offset="0.991028" stop-color="#1147E9"/>
</linearGradient>
</defs>
</svg>
