<svg width="16" height="16" viewBox="0 0 16 16" fill="none" xmlns="http://www.w3.org/2000/svg">
<circle cx="7.99591" cy="7.99884" r="7.85696" fill="url(#paint0_linear_3514_40228)" stroke="#D5DADD" stroke-width="0.285708"/>
<g clip-path="url(#clip0_3514_40228)">
<path fill-rule="evenodd" clip-rule="evenodd" d="M5.11517 5.375C5.11517 4.67035 5.6864 4.09912 6.39105 4.09912C7.0957 4.09912 7.66693 4.67035 7.66693 5.375C7.66693 6.07965 7.0957 6.65088 6.39105 6.65088C5.6864 6.65088 5.11517 6.07965 5.11517 5.375ZM6.39105 3.09912C5.13411 3.09912 4.11517 4.11807 4.11517 5.375C4.11517 5.96328 4.33837 6.49942 4.70469 6.90337C4.20937 7.10117 3.82062 7.40044 3.52624 7.75398C2.97878 8.41149 2.7959 9.21 2.7959 9.75968V9.76414L2.79598 9.7686L3.2959 9.75968L2.79598 9.7686L2.79598 9.76862L2.79598 9.76872L2.79599 9.76911L2.79601 9.77066L2.79612 9.7768L2.79654 9.80033L2.79801 9.88604C2.79924 9.95792 2.80087 10.0559 2.8025 10.1604C2.80579 10.3715 2.80897 10.603 2.80897 10.7035C2.80897 10.8361 2.86165 10.9632 2.95542 11.057C3.04919 11.1508 3.17636 11.2035 3.30897 11.2035H6.34247C6.61861 11.2035 6.84247 10.9796 6.84247 10.7035C6.84247 10.4273 6.61861 10.2035 6.34247 10.2035H3.80328L3.80237 10.1448C3.80073 10.0397 3.79909 9.94121 3.79787 9.86903L3.79638 9.78286L3.79596 9.75913L3.7959 9.75556C3.79687 9.39203 3.9261 8.83658 4.29473 8.39385C4.64531 7.9728 5.25168 7.605 6.32079 7.65141C6.33925 7.65221 6.35753 7.652 6.37556 7.65083C6.38072 7.65087 6.38588 7.65088 6.39105 7.65088C7.64798 7.65088 8.66693 6.63194 8.66693 5.375C8.66693 4.11807 7.64798 3.09912 6.39105 3.09912Z" fill="url(#paint1_linear_3514_40228)"/>
<path fill-rule="evenodd" clip-rule="evenodd" d="M8.7959 8.09912C8.24361 8.09912 7.7959 8.54684 7.7959 9.09912V12.0991C7.7959 12.6514 8.24361 13.0991 8.7959 13.0991H11.7959C12.3482 13.0991 12.7959 12.6514 12.7959 12.0991V9.09912C12.7959 8.54684 12.3482 8.09912 11.7959 8.09912H8.7959ZM8.82851 9.82081C9.05123 9.82081 9.23181 9.64027 9.23181 9.41751C9.23181 9.19476 9.05123 9.01421 8.82851 9.01421C8.60578 9.01421 8.42521 9.19476 8.42521 9.41751C8.42521 9.64027 8.60578 9.82081 8.82851 9.82081ZM10.2209 9.05737C10.022 9.05737 9.86076 9.21863 9.86076 9.41751C9.86076 9.6164 10.022 9.77765 10.2209 9.77765H11.8065C12.0054 9.77765 12.1666 9.6164 12.1666 9.41751C12.1666 9.21863 12.0054 9.05737 11.8065 9.05737H10.2209ZM8.82851 11.0024C9.05123 11.0024 9.23181 10.8219 9.23181 10.5991C9.23181 10.3764 9.05123 10.1958 8.82851 10.1958C8.60578 10.1958 8.42521 10.3764 8.42521 10.5991C8.42521 10.8219 8.60578 11.0024 8.82851 11.0024ZM10.2209 10.239C10.022 10.239 9.86076 10.4002 9.86076 10.5991C9.86076 10.798 10.022 10.9593 10.2209 10.9593H11.8065C12.0054 10.9593 12.1666 10.798 12.1666 10.5991C12.1666 10.4002 12.0054 10.239 11.8065 10.239H10.2209ZM9.23181 11.7807C9.23181 12.0035 9.05123 12.184 8.82851 12.184C8.60578 12.184 8.42521 12.0035 8.42521 11.7807C8.42521 11.558 8.60578 11.3774 8.82851 11.3774C9.05123 11.3774 9.23181 11.558 9.23181 11.7807ZM9.86076 11.7807C9.86076 11.5818 10.022 11.4206 10.2209 11.4206H11.8065C12.0054 11.4206 12.1666 11.5818 12.1666 11.7807C12.1666 11.9796 12.0054 12.1409 11.8065 12.1409H10.2209C10.022 12.1409 9.86076 11.9796 9.86076 11.7807Z" fill="url(#paint2_linear_3514_40228)"/>
<path d="M11.9801 4.72275C12.08 4.61917 12.1925 4.56738 12.3175 4.56738C12.4424 4.56738 12.5549 4.61917 12.6549 4.72275C12.7424 4.81338 12.7861 4.92343 12.7861 5.0529C12.7861 5.18237 12.7424 5.2989 12.6549 5.40247L10.7616 7.36396C10.6741 7.45459 10.5616 7.49991 10.4242 7.49991C10.2867 7.49991 10.1742 7.45459 10.0868 7.36396L9.14948 6.39293C9.0495 6.28935 8.99951 6.17283 8.99951 6.04336C8.99951 5.91388 9.0495 5.79736 9.14948 5.69378C9.24945 5.59021 9.36193 5.53842 9.4869 5.53842C9.61187 5.53842 9.71809 5.59021 9.80557 5.69378L10.4242 6.33467L11.9801 4.72275Z" fill="url(#paint3_linear_3514_40228)"/>
</g>
<defs>
<linearGradient id="paint0_linear_3514_40228" x1="1.44702" y1="2.26992" x2="13.6839" y2="14.7468" gradientUnits="userSpaceOnUse">
<stop stop-color="white"/>
<stop offset="1" stop-color="#EAECEE"/>
</linearGradient>
<linearGradient id="paint1_linear_3514_40228" x1="3.67599" y1="4.31108" x2="9.06859" y2="8.219" gradientUnits="userSpaceOnUse">
<stop stop-color="#0195FF"/>
<stop offset="0.991028" stop-color="#1147E9"/>
</linearGradient>
<linearGradient id="paint2_linear_3514_40228" x1="8.54419" y1="8.84928" x2="12.0452" y2="12.3478" gradientUnits="userSpaceOnUse">
<stop stop-color="#00BBFF"/>
<stop offset="1" stop-color="#008BFF"/>
</linearGradient>
<linearGradient id="paint3_linear_3514_40228" x1="9.55934" y1="4.99882" x2="11.5442" y2="7.57287" gradientUnits="userSpaceOnUse">
<stop stop-color="#1348FF"/>
<stop offset="1" stop-color="#06238D"/>
</linearGradient>
<clipPath id="clip0_3514_40228">
<rect width="9.99997" height="9.99998" fill="white" transform="translate(2.7959 3.09912)"/>
</clipPath>
</defs>
</svg>
