<svg width="16" height="16" viewBox="0 0 16 16" fill="none" xmlns="http://www.w3.org/2000/svg">
<circle cx="7.99493" cy="7.99884" r="7.85696" fill="url(#paint0_linear_3514_40231)" stroke="#D5DADD" stroke-width="0.285708"/>
<g clip-path="url(#clip0_3514_40231)">
<path fill-rule="evenodd" clip-rule="evenodd" d="M6.33289 4.69955C6.47107 4.89777 6.4224 5.17047 6.22419 5.30864C5.90444 5.53154 5.62621 5.81003 5.40361 6.13C5.26562 6.32835 4.99297 6.37728 4.79462 6.23929C4.59627 6.1013 4.54734 5.82864 4.68533 5.6303C4.96709 5.22531 5.31909 4.87297 5.7238 4.59084C5.92202 4.45267 6.19472 4.50134 6.33289 4.69955ZM9.85821 4.69955C9.99639 4.50134 10.2691 4.45267 10.4673 4.59084C10.872 4.87297 11.224 5.22531 11.5058 5.6303C11.6438 5.82864 11.5948 6.1013 11.3965 6.23929C11.1981 6.37728 10.9255 6.32835 10.7875 6.13C10.5649 5.81003 10.2867 5.53154 9.96692 5.30864C9.7687 5.17047 9.72004 4.89777 9.85821 4.69955ZM4.79462 9.75832C4.99297 9.62033 5.26562 9.66926 5.40361 9.86761C5.62621 10.1876 5.90444 10.4661 6.22419 10.689C6.4224 10.8271 6.47107 11.0998 6.33289 11.2981C6.19472 11.4963 5.92202 11.5449 5.7238 11.4068C5.31909 11.1246 4.96709 10.7723 4.68533 10.3673C4.54734 10.169 4.59627 9.89631 4.79462 9.75832ZM11.3965 9.75832C11.5948 9.89631 11.6438 10.169 11.5058 10.3673C11.224 10.7723 10.872 11.1246 10.4673 11.4068C10.2691 11.5449 9.99639 11.4963 9.85821 11.2981C9.72004 11.0998 9.76871 10.8271 9.96692 10.689C10.2867 10.4661 10.5649 10.1876 10.7875 9.86761C10.9255 9.66926 11.1981 9.62033 11.3965 9.75832Z" fill="url(#paint1_linear_3514_40231)"/>
<path d="M3.12646 8.00916C3.12646 7.32067 3.68791 6.76245 4.3804 6.76245C5.07288 6.76245 5.63433 7.32067 5.63433 8.00916C5.63433 8.69766 5.07288 9.25588 4.3804 9.25588C3.68791 9.25588 3.12646 8.69766 3.12646 8.00916ZM4.3804 7.59339C4.14968 7.59339 3.96253 7.77946 3.96253 8.00885C3.96253 8.23825 4.14968 8.42432 4.3804 8.42432C4.61112 8.42432 4.79827 8.23825 4.79827 8.00885C4.79827 7.77946 4.61112 7.59339 4.3804 7.59339Z" fill="url(#paint2_linear_3514_40231)"/>
<path d="M10.5562 8.00916C10.5562 7.32067 11.1176 6.76245 11.8101 6.76245C12.5026 6.76245 13.064 7.32067 13.064 8.00916C13.064 8.69766 12.5026 9.25588 11.8101 9.25588C11.1176 9.25588 10.5562 8.69766 10.5562 8.00916ZM11.8101 7.59339C11.5794 7.59339 11.3922 7.77946 11.3922 8.00885C11.3922 8.23825 11.5794 8.42432 11.8101 8.42432C12.0408 8.42432 12.228 8.23825 12.228 8.00885C12.228 7.77946 12.0408 7.59339 11.8101 7.59339Z" fill="url(#paint3_linear_3514_40231)"/>
<path d="M8.09958 3.03784C8.79207 3.03784 9.35352 3.59606 9.35352 4.28455C9.35352 4.97305 8.79207 5.53127 8.09958 5.53127C7.40709 5.53127 6.84565 4.97305 6.84565 4.28455C6.84565 3.59606 7.40709 3.03784 8.09958 3.03784ZM8.51777 4.28455C8.51777 4.05516 8.33062 3.86909 8.09989 3.86909C7.86917 3.86909 7.68202 4.05516 7.68202 4.28455C7.68202 4.51395 7.86917 4.70002 8.09989 4.70002C8.33062 4.70002 8.51777 4.51395 8.51777 4.28455Z" fill="url(#paint4_linear_3514_40231)"/>
<path d="M8.09958 10.4663C8.79207 10.4663 9.35352 11.0245 9.35352 11.713C9.35352 12.4015 8.79207 12.9597 8.09958 12.9597C7.40709 12.9597 6.84565 12.4015 6.84565 11.713C6.84565 11.0245 7.40709 10.4663 8.09958 10.4663ZM8.51777 11.713C8.51777 11.4836 8.33062 11.2976 8.09989 11.2976C7.86917 11.2976 7.68202 11.4836 7.68202 11.713C7.68202 11.9424 7.86917 12.1285 8.09989 12.1285C8.33062 12.1285 8.51777 11.9424 8.51777 11.713Z" fill="url(#paint5_linear_3514_40231)"/>
<path d="M9.29207 6.68784C9.39204 6.58426 9.50452 6.53247 9.62949 6.53247C9.75446 6.53247 9.86693 6.58426 9.96691 6.68784C10.0544 6.77847 10.0981 6.88852 10.0981 7.01799C10.0981 7.14746 10.0544 7.26398 9.96691 7.36756L8.07361 9.32905C7.98613 9.41968 7.87365 9.465 7.73619 9.465C7.59872 9.465 7.48625 9.41968 7.39877 9.32905L6.46149 8.35802C6.36151 8.25444 6.31152 8.13792 6.31152 8.00844C6.31152 7.87897 6.36151 7.76245 6.46149 7.65887C6.56146 7.55529 6.67394 7.50351 6.79891 7.50351C6.92388 7.50351 7.0301 7.55529 7.11758 7.65887L7.73619 8.29975L9.29207 6.68784Z" fill="url(#paint6_linear_3514_40231)"/>
</g>
<defs>
<linearGradient id="paint0_linear_3514_40231" x1="1.44604" y1="2.26992" x2="13.683" y2="14.7468" gradientUnits="userSpaceOnUse">
<stop stop-color="white"/>
<stop offset="1" stop-color="#EAECEE"/>
</linearGradient>
<linearGradient id="paint1_linear_3514_40231" x1="5.65113" y1="5.55841" x2="10.5337" y2="10.4404" gradientUnits="userSpaceOnUse">
<stop stop-color="#00BBFF"/>
<stop offset="1" stop-color="#008BFF"/>
</linearGradient>
<linearGradient id="paint2_linear_3514_40231" x1="3.50241" y1="7.13533" x2="5.24826" y2="8.89191" gradientUnits="userSpaceOnUse">
<stop stop-color="#0195FF"/>
<stop offset="0.991028" stop-color="#1147E9"/>
</linearGradient>
<linearGradient id="paint3_linear_3514_40231" x1="10.9321" y1="7.13533" x2="12.6779" y2="8.89191" gradientUnits="userSpaceOnUse">
<stop stop-color="#0195FF"/>
<stop offset="0.991028" stop-color="#1147E9"/>
</linearGradient>
<linearGradient id="paint4_linear_3514_40231" x1="8.97848" y1="3.41162" x2="7.23201" y2="5.16759" gradientUnits="userSpaceOnUse">
<stop stop-color="#0195FF"/>
<stop offset="0.991028" stop-color="#1147E9"/>
</linearGradient>
<linearGradient id="paint5_linear_3514_40231" x1="8.97848" y1="10.8401" x2="7.23201" y2="12.5961" gradientUnits="userSpaceOnUse">
<stop stop-color="#0195FF"/>
<stop offset="0.991028" stop-color="#1147E9"/>
</linearGradient>
<linearGradient id="paint6_linear_3514_40231" x1="6.87135" y1="6.96391" x2="8.85626" y2="9.53796" gradientUnits="userSpaceOnUse">
<stop stop-color="#1348FF"/>
<stop offset="1" stop-color="#06238D"/>
</linearGradient>
<clipPath id="clip0_3514_40231">
<rect width="9.99998" height="9.99998" fill="white" transform="translate(3.09521 2.99878)"/>
</clipPath>
</defs>
</svg>
