<svg width="16" height="16" viewBox="0 0 16 16" fill="none" xmlns="http://www.w3.org/2000/svg">
<circle cx="7.99542" cy="7.99884" r="7.85696" fill="url(#paint0_linear_3514_40229)" stroke="#D5DADD" stroke-width="0.285708"/>
<g clip-path="url(#clip0_3514_40229)">
<path d="M12.4655 6.49177C12.6862 6.40768 12.9175 6.5233 13.0016 6.73352C13.0857 6.94375 12.9542 7.39982 12.7229 7.48391L12.6599 7.50493C11.7875 7.83078 10.8729 7.96134 9.94797 7.96134L6.04833 7.99895C5.12337 7.99895 4.20885 7.83078 3.33645 7.50493L3.27338 7.48391C3.06316 7.39982 2.9742 6.94375 3.05829 6.73352C3.14237 6.5233 3.38412 6.40768 3.59434 6.49177L3.65741 6.51279C4.0358 6.65995 4.4247 6.76506 4.8136 6.83864L5.36017 4.831C5.58089 4.05317 6.28512 3.50659 7.09446 3.50659H8.9654C9.77473 3.50659 10.4895 4.05317 10.6997 4.831L11.2463 6.83864C11.6457 6.76506 12.0241 6.64943 12.4025 6.51279L12.4655 6.49177Z" fill="url(#paint1_linear_3514_40229)"/>
<path fill-rule="evenodd" clip-rule="evenodd" d="M4.6958 10.1803C4.6958 9.34014 5.37896 8.65698 6.21907 8.65698C6.82949 8.65698 7.35817 9.01548 7.59924 9.53678C7.88819 9.48133 8.17745 9.48141 8.46639 9.537C8.71519 9.01693 9.23342 8.65698 9.84542 8.65698C10.6851 8.65698 11.369 9.33983 11.3582 10.1809C11.3578 11.0207 10.6748 11.7035 9.83491 11.7035C9.12561 11.7035 8.524 11.2051 8.35801 10.5489C8.14487 10.4907 7.918 10.4905 7.69605 10.5494C7.52999 11.2156 6.92775 11.7035 6.21907 11.7035C5.37895 11.7035 4.6958 11.0204 4.6958 10.1803ZM5.72419 10.1908C5.72419 9.90725 5.95444 9.68538 6.22958 9.68538C6.51309 9.68538 6.73497 9.91562 6.73497 10.1908C6.73497 10.4659 6.51309 10.6962 6.22958 10.6962C5.94607 10.6962 5.72419 10.4659 5.72419 10.1908ZM9.84542 9.68538C9.57028 9.68538 9.34003 9.90725 9.34003 10.1908C9.34003 10.4659 9.56191 10.6962 9.84542 10.6962C10.1289 10.6962 10.3508 10.4659 10.3508 10.1908C10.3508 9.91562 10.1289 9.68538 9.84542 9.68538Z" fill="url(#paint2_linear_3514_40229)"/>
</g>
<defs>
<linearGradient id="paint0_linear_3514_40229" x1="1.44653" y1="2.26992" x2="13.6835" y2="14.7468" gradientUnits="userSpaceOnUse">
<stop stop-color="white"/>
<stop offset="1" stop-color="#EAECEE"/>
</linearGradient>
<linearGradient id="paint1_linear_3514_40229" x1="4.52594" y1="4.1784" x2="6.87694" y2="9.4137" gradientUnits="userSpaceOnUse">
<stop stop-color="#0195FF"/>
<stop offset="0.991028" stop-color="#1147E9"/>
</linearGradient>
<linearGradient id="paint2_linear_3514_40229" x1="5.68081" y1="9.10519" x2="7.28896" y2="12.6372" gradientUnits="userSpaceOnUse">
<stop stop-color="#1348FF"/>
<stop offset="1" stop-color="#06238D"/>
</linearGradient>
<clipPath id="clip0_3514_40229">
<rect width="9.99995" height="9.99997" fill="white" transform="translate(2.99561 2.99902)"/>
</clipPath>
</defs>
</svg>
