<svg width="16" height="16" viewBox="0 0 16 16" fill="none" xmlns="http://www.w3.org/2000/svg">
<circle cx="7.99493" cy="7.99884" r="7.85696" fill="url(#paint0_linear_3514_40230)" stroke="#D5DADD" stroke-width="0.285708"/>
<g clip-path="url(#clip0_3514_40230)">
<path d="M6.16085 3.61216C6.34536 3.4261 6.34536 3.12468 6.16085 2.93862C5.97634 2.75256 5.67745 2.75256 5.49294 2.93862L4.07637 4.36712C3.89186 4.55318 3.89186 4.8546 4.07637 5.04066L5.49294 6.46916C5.67745 6.65523 5.97634 6.65523 6.16085 6.46916C6.34536 6.2831 6.34536 5.98169 6.16085 5.79562L5.55079 5.18042H8.18766C10.0129 5.18042 11.4929 6.67249 11.4929 8.51347C11.4929 10.3541 10.0129 11.8465 8.18766 11.8465C6.36242 11.8465 4.88246 10.3545 4.88246 8.51347C4.88246 8.25063 4.67103 8.03743 4.41038 8.03743C4.14974 8.03743 3.93831 8.25063 3.93831 8.51347C3.93831 10.8801 5.84112 12.799 8.18802 12.799C10.5349 12.799 12.4377 10.8801 12.4377 8.51347C12.4377 6.1468 10.5349 4.22797 8.18802 4.22797H5.55019L6.16085 3.61216Z" fill="url(#paint1_linear_3514_40230)"/>
<path d="M9.79664 7.2207C9.6555 7.2207 9.52847 7.27716 9.41556 7.39007L7.65834 9.14729L6.95968 8.44864C6.86088 8.33573 6.74091 8.27927 6.59977 8.27927C6.45863 8.27927 6.3316 8.33573 6.21869 8.44864C6.10577 8.56155 6.04932 8.68858 6.04932 8.82972C6.04932 8.97087 6.10577 9.09789 6.21869 9.21081L7.27725 10.2694C7.37605 10.3682 7.50308 10.4176 7.65834 10.4176C7.81359 10.4176 7.94062 10.3682 8.03942 10.2694L10.1777 8.13107C10.2765 8.01816 10.3259 7.89113 10.3259 7.74999C10.3259 7.60884 10.2765 7.48887 10.1777 7.39007C10.0648 7.27716 9.93778 7.2207 9.79664 7.2207Z" fill="url(#paint2_linear_3514_40230)"/>
</g>
<defs>
<linearGradient id="paint0_linear_3514_40230" x1="1.44604" y1="2.26992" x2="13.683" y2="14.7468" gradientUnits="userSpaceOnUse">
<stop stop-color="white"/>
<stop offset="1" stop-color="#EAECEE"/>
</linearGradient>
<linearGradient id="paint1_linear_3514_40230" x1="5.21213" y1="4.2945" x2="12.1229" y2="10.1706" gradientUnits="userSpaceOnUse">
<stop stop-color="#0195FF"/>
<stop offset="0.991028" stop-color="#1147E9"/>
</linearGradient>
<linearGradient id="paint2_linear_3514_40230" x1="6.68158" y1="7.69103" x2="8.82479" y2="10.5705" gradientUnits="userSpaceOnUse">
<stop stop-color="#1348FF"/>
<stop offset="1" stop-color="#06238D"/>
</linearGradient>
<clipPath id="clip0_3514_40230">
<rect width="9.99997" height="9.99998" fill="white" transform="translate(3.19531 2.79907)"/>
</clipPath>
</defs>
</svg>
