<svg width="16" height="16" viewBox="0 0 16 16" fill="none" xmlns="http://www.w3.org/2000/svg">
<circle cx="7.99982" cy="7.99835" r="7.85696" fill="url(#paint0_linear_3514_40233)" stroke="#D5DADD" stroke-width="0.285708"/>
<g clip-path="url(#clip0_3514_40233)">
<path d="M6.60928 4.59953V3.51196L4.69385 5.42739H5.78142C6.00868 5.42739 6.20346 5.34623 6.36579 5.1839C6.52811 5.02158 6.60928 4.82679 6.60928 4.59953Z" fill="url(#paint1_linear_3514_40233)"/>
<path fill-rule="evenodd" clip-rule="evenodd" d="M10.2862 2.80884H7.47246C7.36409 2.80884 7.26015 2.85189 7.18352 2.92852C7.10689 3.00515 7.06384 3.10908 7.06384 3.21746V4.65193C7.06384 4.98704 6.94416 5.27427 6.7048 5.51363C6.46543 5.753 6.1782 5.87268 5.84309 5.87268H4.40862C4.30025 5.87268 4.19631 5.91573 4.11968 5.99236C4.04305 6.06899 4 6.17292 4 6.2813V11.3749C4 11.9616 4.47559 12.4371 5.06227 12.4371H10.0352C10.022 12.3019 10.0329 12.1645 10.068 12.0326H9.03763C8.41632 12.0326 7.91264 11.5289 7.91264 10.9076C7.91264 10.2863 8.41632 9.78263 9.03764 9.78263H10.068C9.97207 9.42216 10.0567 9.02093 10.3219 8.73235C10.5957 8.4345 10.991 8.33199 11.3484 8.42483V3.8711C11.3484 3.28443 10.8728 2.80884 10.2862 2.80884ZM5.80488 7.47V8.65308H5.17988V7.47C5.17988 7.12483 5.4597 6.84501 5.80488 6.84501H7.1093V7.47H5.80488ZM9.42845 8.65308H10.0534V7.47C10.0534 7.12483 9.77363 6.84501 9.42845 6.84501H8.12403V7.47H9.42845V8.65308ZM5.80488 9.26333H5.17988V10.4464C5.17988 10.7916 5.4597 11.0714 5.80488 11.0714H7.1093V10.4464H5.80488V9.26333Z" fill="url(#paint2_linear_3514_40233)"/>
<path d="M10.7605 11.9915C10.5907 12.1762 10.5907 12.4754 10.7605 12.6601C10.9302 12.8448 11.2052 12.8448 11.3749 12.6601L12.6782 11.242C12.8479 11.0573 12.8479 10.7581 12.6782 10.5734L11.3749 9.15537C11.2052 8.97067 10.9302 8.97067 10.7605 9.15537C10.5907 9.34007 10.5907 9.63928 10.7605 9.82398L11.297 10.4077H9.05981C8.78367 10.4077 8.55981 10.6316 8.55981 10.9077C8.55981 11.1839 8.78367 11.4077 9.05981 11.4077H11.297L10.7605 11.9915Z" fill="url(#paint3_linear_3514_40233)"/>
</g>
<defs>
<linearGradient id="paint0_linear_3514_40233" x1="1.45092" y1="2.26943" x2="13.6878" y2="14.7463" gradientUnits="userSpaceOnUse">
<stop stop-color="white"/>
<stop offset="1" stop-color="#EAECEE"/>
</linearGradient>
<linearGradient id="paint1_linear_3514_40233" x1="4.97703" y1="3.79376" x2="6.31753" y2="5.14004" gradientUnits="userSpaceOnUse">
<stop stop-color="#1348FF"/>
<stop offset="1" stop-color="#06238D"/>
</linearGradient>
<linearGradient id="paint2_linear_3514_40233" x1="5.10156" y1="4.24869" x2="11.605" y2="9.21391" gradientUnits="userSpaceOnUse">
<stop stop-color="#0195FF"/>
<stop offset="0.991028" stop-color="#1147E9"/>
</linearGradient>
<linearGradient id="paint3_linear_3514_40233" x1="9.18751" y1="9.57323" x2="11.8152" y2="12.536" gradientUnits="userSpaceOnUse">
<stop stop-color="#1348FF"/>
<stop offset="1" stop-color="#06238D"/>
</linearGradient>
<clipPath id="clip0_3514_40233">
<rect width="9.99997" height="9.99997" fill="white" transform="translate(4 2.79858)"/>
</clipPath>
</defs>
</svg>
