<svg width="16" height="16" viewBox="0 0 16 16" fill="none" xmlns="http://www.w3.org/2000/svg">
<circle cx="7.99445" cy="7.99884" r="7.85696" fill="url(#paint0_linear_3890_21479)" stroke="#D5DADD" stroke-width="0.285708"/>
<path fill-rule="evenodd" clip-rule="evenodd" d="M4.27423 3.91951C4.00809 4.16404 3.80023 4.504 3.79443 4.93002C3.79443 4.93002 3.80768 10.4172 3.80769 10.4158L3.80769 10.4165C3.80812 11.3732 4.59056 11.8901 5.28574 12.1462C5.85058 12.3543 6.53281 12.4653 7.22255 12.5059C7.56714 12.5262 7.84739 12.2443 7.84759 11.8991L7.84761 11.8793C7.84782 11.5341 7.5678 11.2568 7.2234 11.2337C6.64362 11.1948 6.11514 11.101 5.71197 10.9525C5.12742 10.7371 5.0577 10.5179 5.0577 10.4158L5.057 9.63651C5.28157 9.70552 5.51724 9.76216 5.75537 9.80855C6.40616 9.93532 7.14386 9.99816 7.8724 9.99972C8.07384 10.0001 8.27591 9.99589 8.47656 9.98684C8.79507 9.97247 9.11001 9.94601 9.41319 9.90699C9.60778 9.88194 9.74964 9.71375 9.74964 9.51756C9.74964 9.26528 9.51931 9.07558 9.26916 9.10816C9.01605 9.14112 8.74964 9.16457 8.47656 9.17825C8.2787 9.18816 8.07735 9.19295 7.87503 9.19252C7.20989 9.1911 6.55163 9.13332 5.99078 9.02407C5.59943 8.94783 5.28473 8.852 5.05401 8.74964L5.05255 7.79866C5.27846 7.86828 5.51567 7.92537 5.75537 7.97206C6.40616 8.09884 7.14386 8.16168 7.8724 8.16323C8.60075 8.16478 9.33729 8.10512 9.98534 7.97872C10.2171 7.93351 10.4472 7.878 10.6669 7.80982L10.6667 8.56719C10.6667 8.91251 10.9479 9.19252 11.2932 9.19252C11.6384 9.19252 11.9194 8.91269 11.9194 8.56752V4.93879C11.9194 4.50624 11.7078 4.16262 11.4396 3.91799C11.1798 3.68096 10.8417 3.50981 10.4865 3.38409C9.77253 3.13139 8.83499 3.00879 7.84741 3.00879C6.85984 3.00879 5.92897 3.13138 5.22016 3.38474C4.86722 3.51089 4.53222 3.68247 4.27423 3.91951ZM5.04784 5.94583L5.04958 6.94927C5.28069 7.05237 5.59692 7.14894 5.99078 7.22567C6.55163 7.33492 7.20989 7.3927 7.87503 7.39412C8.54036 7.39554 9.1952 7.34053 9.74964 7.23238C10.1394 7.15637 10.4476 7.06006 10.6696 6.95781V5.93928C10.6093 5.96391 10.5483 5.98707 10.4867 6.00887C9.77272 6.26157 8.83518 6.38417 7.8476 6.38417C6.86819 6.38417 5.93974 6.26359 5.23109 6.01498C5.16937 5.99332 5.10818 5.97031 5.04784 5.94583Z" fill="url(#paint1_linear_3890_21479)"/>
<path d="M12.5418 9.80225C12.4006 9.80225 12.2736 9.8587 12.1607 9.97162L10.4035 11.7288L9.7048 11.0302C9.606 10.9173 9.48603 10.8608 9.34489 10.8608C9.20375 10.8608 9.07672 10.9173 8.9638 11.0302C8.85089 11.1431 8.79443 11.2701 8.79443 11.4113C8.79443 11.5524 8.85089 11.6794 8.9638 11.7923L10.0224 12.8509C10.1212 12.9497 10.2482 12.9991 10.4035 12.9991C10.5587 12.9991 10.6857 12.9497 10.7845 12.8509L12.9228 10.7126C13.0216 10.5997 13.071 10.4727 13.071 10.3315C13.071 10.1904 13.0216 10.0704 12.9228 9.97162C12.8099 9.8587 12.6829 9.80225 12.5418 9.80225Z" fill="url(#paint2_linear_3890_21479)"/>
<defs>
<linearGradient id="paint0_linear_3890_21479" x1="1.44555" y1="2.26992" x2="13.6825" y2="14.7468" gradientUnits="userSpaceOnUse">
<stop stop-color="white"/>
<stop offset="1" stop-color="#EAECEE"/>
</linearGradient>
<linearGradient id="paint1_linear_3890_21479" x1="5.0124" y1="4.42918" x2="11.583" y2="10.0518" gradientUnits="userSpaceOnUse">
<stop stop-color="#0195FF"/>
<stop offset="0.991028" stop-color="#1147E9"/>
</linearGradient>
<linearGradient id="paint2_linear_3890_21479" x1="9.4267" y1="10.2726" x2="11.5699" y2="13.152" gradientUnits="userSpaceOnUse">
<stop stop-color="#1348FF"/>
<stop offset="1" stop-color="#06238D"/>
</linearGradient>
</defs>
</svg>
