<svg width="16" height="16" viewBox="0 0 16 16" fill="none" xmlns="http://www.w3.org/2000/svg">
<circle cx="7.99884" cy="7.99835" r="7.85696" fill="url(#paint0_linear_3514_40236)" stroke="#D5DADD" stroke-width="0.285708"/>
<g clip-path="url(#clip0_3514_40236)">
<path d="M7.28497 3.41089H7.9122C8.12724 3.41089 8.32437 3.48257 8.50358 3.62594C8.67084 3.75735 8.77239 3.93059 8.80823 4.14564L8.93367 4.73702L9.2493 4.92786L8.96552 5.13928H8.72052C8.16824 5.13928 7.72052 5.58699 7.72052 6.13927C7.72052 6.15089 7.72072 6.16246 7.72111 6.17399C7.68353 6.17178 7.64568 6.17067 7.60755 6.17067C7.35666 6.17067 7.11771 6.21846 6.89072 6.31404C6.66372 6.40962 6.4666 6.54103 6.29934 6.70829C6.13208 6.87555 6.00066 7.06671 5.90508 7.28176C5.80951 7.50875 5.76172 7.74769 5.76172 7.99858C5.76172 8.24947 5.80951 8.48244 5.90508 8.69749C6.00066 8.92449 6.13208 9.12161 6.29934 9.28887C6.4666 9.45613 6.66372 9.58755 6.89072 9.68313C7.11771 9.7787 7.35666 9.82649 7.60755 9.82649C7.64776 9.82649 7.68768 9.82527 7.72728 9.82281C7.72282 9.86115 7.72052 9.90014 7.72052 9.93968C7.72052 10.492 8.16824 10.9397 8.72052 10.9397H8.96552L9.1887 11.1059L8.93367 11.2601L8.80823 11.8515C8.76044 12.0666 8.65292 12.2398 8.48566 12.3712C8.3184 12.5146 8.12724 12.5863 7.9122 12.5863H7.28497C7.06993 12.5863 6.87877 12.5146 6.71151 12.3712C6.54425 12.2398 6.43673 12.0666 6.38894 11.8515L6.28142 11.2601L5.49291 10.7942L4.95529 11.0093C4.85971 11.057 4.74621 11.0809 4.6148 11.0809C4.44754 11.0809 4.29223 11.0391 4.14886 10.9555C3.99355 10.8719 3.87408 10.7464 3.79045 10.5792L3.46788 9.9161C3.39619 9.79663 3.36035 9.65923 3.36035 9.50392C3.36035 9.20524 3.4858 8.9663 3.73669 8.78709L4.16678 8.46452V7.53265L3.73669 7.22799C3.4858 7.03684 3.36035 6.79192 3.36035 6.49325C3.36035 6.34988 3.39619 6.21249 3.46788 6.08107L3.79045 5.41801C3.87408 5.25075 3.99355 5.1253 4.14886 5.04167C4.29223 4.95804 4.44754 4.91623 4.6148 4.91623C4.73427 4.91623 4.84777 4.93415 4.95529 4.96999L5.49291 5.20296L6.28142 4.73702L6.38894 4.14564C6.43673 3.93059 6.54425 3.75735 6.71151 3.62594C6.87877 3.48257 7.06993 3.41089 7.28497 3.41089Z" fill="url(#paint1_linear_3514_40236)"/>
<path fill-rule="evenodd" clip-rule="evenodd" d="M10.6767 5.07377C10.8339 4.59962 11.2809 4.25757 11.8077 4.25757C12.4656 4.25757 12.999 4.79091 12.999 5.44881C12.999 6.10672 12.4656 6.64005 11.8077 6.64005C11.2808 6.64005 10.8338 6.29797 10.6767 5.82377H10.3988L9.58849 6.42744C9.51296 6.4837 9.4213 6.51409 9.32712 6.51409H8.77129C8.56418 6.51409 8.39629 6.3462 8.39629 6.13909C8.39629 5.93199 8.56418 5.76409 8.77129 5.76409H9.22351L10.0338 5.16043C10.1093 5.10417 10.201 5.07377 10.2952 5.07377H10.6767ZM11.3665 5.44881C11.3665 5.20512 11.564 5.00757 11.8077 5.00757C12.0514 5.00757 12.249 5.20512 12.249 5.44881C12.249 5.6925 12.0514 5.89006 11.8077 5.89006C11.564 5.89006 11.3665 5.6925 11.3665 5.44881Z" fill="url(#paint2_linear_3514_40236)"/>
<path fill-rule="evenodd" clip-rule="evenodd" d="M10.6767 11.0051C10.8339 11.4793 11.2808 11.8213 11.8077 11.8213C12.4656 11.8213 12.999 11.288 12.999 10.6301C12.999 9.97217 12.4656 9.43883 11.8077 9.43883C11.2808 9.43883 10.8338 9.78092 10.6767 10.2551H10.3988L9.58848 9.65145C9.51295 9.59518 9.42129 9.56479 9.32711 9.56479H8.77128C8.56418 9.56479 8.39628 9.73268 8.39628 9.93979C8.39628 10.1469 8.56418 10.3148 8.77128 10.3148H9.2235L10.0338 10.9185C10.1093 10.9747 10.201 11.0051 10.2952 11.0051H10.6767ZM11.3665 10.6301C11.3665 10.8738 11.564 11.0713 11.8077 11.0713C12.0514 11.0713 12.249 10.8738 12.249 10.6301C12.249 10.3864 12.0514 10.1888 11.8077 10.1888C11.564 10.1888 11.3665 10.3864 11.3665 10.6301Z" fill="url(#paint3_linear_3514_40236)"/>
<path fill-rule="evenodd" clip-rule="evenodd" d="M10.3533 6.8482C9.82644 6.8482 9.37946 7.19025 9.22231 7.6644H7.80639C7.59929 7.6644 7.4314 7.8323 7.4314 8.0394C7.4314 8.24651 7.59929 8.4144 7.80639 8.4144H9.22229C9.37941 8.8886 9.82641 9.23068 10.3533 9.23068C11.0112 9.23068 11.5446 8.69735 11.5446 8.03944C11.5446 7.38154 11.0112 6.8482 10.3533 6.8482ZM10.3533 7.5982C10.1096 7.5982 9.91207 7.79575 9.91207 8.03944C9.91207 8.28313 10.1096 8.48069 10.3533 8.48069C10.597 8.48069 10.7946 8.28313 10.7946 8.03944C10.7946 7.79575 10.597 7.5982 10.3533 7.5982Z" fill="url(#paint4_linear_3514_40236)"/>
</g>
<defs>
<linearGradient id="paint0_linear_3514_40236" x1="1.44995" y1="2.26943" x2="13.6869" y2="14.7463" gradientUnits="userSpaceOnUse">
<stop stop-color="white"/>
<stop offset="1" stop-color="#EAECEE"/>
</linearGradient>
<linearGradient id="paint1_linear_3514_40236" x1="4.24313" y1="4.78301" x2="10.0848" y2="8.53361" gradientUnits="userSpaceOnUse">
<stop stop-color="#0195FF"/>
<stop offset="0.991028" stop-color="#1147E9"/>
</linearGradient>
<linearGradient id="paint2_linear_3514_40236" x1="8.25453" y1="5.37036" x2="13.3153" y2="9.11159" gradientUnits="userSpaceOnUse">
<stop stop-color="#1348FF"/>
<stop offset="1" stop-color="#06238D"/>
</linearGradient>
<linearGradient id="paint3_linear_3514_40236" x1="8.25453" y1="5.37036" x2="13.3153" y2="9.11159" gradientUnits="userSpaceOnUse">
<stop stop-color="#1348FF"/>
<stop offset="1" stop-color="#06238D"/>
</linearGradient>
<linearGradient id="paint4_linear_3514_40236" x1="8.25453" y1="5.37036" x2="13.3153" y2="9.11159" gradientUnits="userSpaceOnUse">
<stop stop-color="#1348FF"/>
<stop offset="1" stop-color="#06238D"/>
</linearGradient>
<clipPath id="clip0_3514_40236">
<rect width="9.99997" height="9.99997" fill="white" transform="matrix(-1 0 0 1 12.999 2.99854)"/>
</clipPath>
</defs>
</svg>
