<svg width="16" height="16" viewBox="0 0 16 16" fill="none" xmlns="http://www.w3.org/2000/svg">
<circle cx="7.99908" cy="7.99835" r="7.85696" fill="url(#paint0_linear_3514_40235)" stroke="#D5DADD" stroke-width="0.285708"/>
<g clip-path="url(#clip0_3514_40235)">
<path d="M6.43431 5.40967C5.00586 5.71766 4.2013 6.94914 4.2013 8.8922V9.23711C4.2013 10.3868 3.47863 11.1588 3.47316 11.1642C3.35271 11.2902 3.31986 11.4763 3.38556 11.6405C3.45673 11.7993 3.6155 11.9033 3.79069 11.9033H5.84374C5.96966 12.5275 6.52262 12.9983 7.18507 12.9983L7.17959 12.9928C7.84204 12.9928 8.39499 12.522 8.52091 11.8979H10.574C10.7492 11.8979 10.9079 11.7938 10.9791 11.6351C11.0503 11.4763 11.0174 11.2902 10.897 11.1642C10.8805 11.1478 10.1688 10.3649 10.1688 9.23711V8.8922C10.1688 8.61688 10.1527 8.35584 10.1209 8.10969H8.97237L8.16607 8.92457L8.14269 8.94461C8.01584 9.05334 7.84457 9.15471 7.62972 9.19175C7.43394 9.22551 7.24891 9.19766 7.08818 9.13434C6.87549 9.06248 6.68434 8.91454 6.5686 8.69297C6.47399 8.52882 6.43431 8.3518 6.43431 8.18277V5.40967Z" fill="url(#paint1_linear_3514_40235)"/>
<path fill-rule="evenodd" clip-rule="evenodd" d="M8.00715 2.99854C7.77198 2.99854 7.57602 3.07692 7.41924 3.2337C7.26247 3.39047 7.18408 3.58287 7.18408 3.81091V8.18276C7.18408 8.23977 7.19833 8.28966 7.22684 8.33241C7.24822 8.38229 7.28741 8.41436 7.34442 8.42861C7.45131 8.4785 7.55464 8.46068 7.6544 8.37517L8.65918 7.3597H11.8232C12.0583 7.3597 12.2543 7.28131 12.4111 7.12454C12.5678 6.96777 12.6462 6.77536 12.6462 6.54733V3.81091C12.6462 3.58287 12.5678 3.39047 12.4111 3.2337C12.2543 3.07692 12.0583 2.99854 11.8232 2.99854H8.00715ZM9.62889 5.22295C9.55421 5.14736 9.51688 5.05666 9.51688 4.95083V4.03394C9.51688 3.93568 9.55421 3.85254 9.62889 3.78451C9.70357 3.70892 9.79898 3.67113 9.91515 3.67113C10.0313 3.67113 10.1267 3.70892 10.2014 3.78451C10.2761 3.85254 10.3134 3.93568 10.3134 4.03394V4.95083C10.3134 5.05666 10.2761 5.14736 10.2014 5.22295C10.1267 5.29097 10.0313 5.32499 9.91515 5.32499C9.79898 5.32499 9.70357 5.29097 9.62889 5.22295ZM10.2512 6.60394C10.1599 6.69521 10.0479 6.74084 9.91513 6.74084C9.78237 6.74084 9.67036 6.69521 9.57909 6.60394C9.48782 6.51267 9.44219 6.39651 9.44219 6.25545C9.44219 6.1227 9.48782 6.01069 9.57909 5.91942C9.67036 5.82815 9.78237 5.78251 9.91513 5.78251C10.0479 5.78251 10.1599 5.82815 10.2512 5.91942C10.3424 6.01069 10.3881 6.1227 10.3881 6.25545C10.3881 6.39651 10.3424 6.51267 10.2512 6.60394Z" fill="url(#paint2_linear_3514_40235)"/>
</g>
<defs>
<linearGradient id="paint0_linear_3514_40235" x1="1.45019" y1="2.26943" x2="13.6871" y2="14.7463" gradientUnits="userSpaceOnUse">
<stop stop-color="white"/>
<stop offset="1" stop-color="#EAECEE"/>
</linearGradient>
<linearGradient id="paint1_linear_3514_40235" x1="4.50116" y1="6.5445" x2="9.8144" y2="11.9124" gradientUnits="userSpaceOnUse">
<stop stop-color="#0195FF"/>
<stop offset="0.991028" stop-color="#1147E9"/>
</linearGradient>
<linearGradient id="paint2_linear_3514_40235" x1="7.99162" y1="3.80147" x2="11.8111" y2="7.64059" gradientUnits="userSpaceOnUse">
<stop stop-color="#1348FF"/>
<stop offset="1" stop-color="#06238D"/>
</linearGradient>
<clipPath id="clip0_3514_40235">
<rect width="9.99977" height="9.99977" fill="white" transform="matrix(-1 0 0 1 12.9993 2.99854)"/>
</clipPath>
</defs>
</svg>
