<svg width="16" height="16" viewBox="0 0 16 16" fill="none" xmlns="http://www.w3.org/2000/svg">
<circle cx="7.99689" cy="7.99835" r="7.85696" fill="url(#paint0_linear_3514_40241)" stroke="#D5DADD" stroke-width="0.285708"/>
<g clip-path="url(#clip0_3514_40241)">
<path fill-rule="evenodd" clip-rule="evenodd" d="M7.12121 3.09455C7.40582 3.04424 7.69842 3.01807 7.99671 3.01807C8.295 3.01807 8.5876 3.04424 8.87221 3.09455C9.14413 3.1426 9.3256 3.402 9.27755 3.67392C9.22949 3.94584 8.97009 4.12732 8.69817 4.07926C8.47076 4.03907 8.2364 4.01804 7.99671 4.01804C7.75702 4.01804 7.52266 4.03907 7.29525 4.07926C7.02333 4.12732 6.76393 3.94584 6.71587 3.67392C6.66782 3.402 6.84929 3.1426 7.12121 3.09455ZM10.1626 4.04111C10.3209 3.81481 10.6326 3.75964 10.8589 3.91788C11.3405 4.25467 11.76 4.67412 12.0968 5.15576C12.255 5.38206 12.1999 5.69379 11.9736 5.85203C11.7473 6.01027 11.4355 5.9551 11.2773 5.7288C11.0076 5.34311 10.6716 5.00708 10.2859 4.73738C10.0596 4.57914 10.0044 4.26741 10.1626 4.04111ZM5.83079 4.04111C5.98903 4.26741 5.93386 4.57914 5.70756 4.73738C5.32186 5.00708 4.98583 5.34311 4.71614 5.7288C4.5579 5.9551 4.24617 6.01027 4.01987 5.85203C3.79357 5.69379 3.73839 5.38206 3.89664 5.15576C4.23343 4.67412 4.65287 4.25467 5.13452 3.91788C5.36082 3.75964 5.67255 3.81481 5.83079 4.04111ZM12.3407 6.73712C12.6127 6.68906 12.8721 6.87054 12.9201 7.14246C12.9704 7.42707 12.9966 7.71966 12.9966 8.01796C12.9966 8.31625 12.9704 8.60884 12.9201 8.89345C12.8721 9.16537 12.6127 9.34685 12.3407 9.29879C12.0688 9.25073 11.8873 8.99134 11.9354 8.71942C11.9756 8.49201 11.9966 8.25764 11.9966 8.01796C11.9966 7.77827 11.9756 7.5439 11.9354 7.3165C11.8873 7.04457 12.0688 6.78518 12.3407 6.73712ZM3.65268 6.73712C3.9246 6.78518 4.10608 7.04457 4.05802 7.3165C4.01783 7.5439 3.9968 7.77827 3.9968 8.01796C3.9968 8.25764 4.01783 8.49201 4.05802 8.71942C4.10608 8.99134 3.9246 9.25073 3.65268 9.29879C3.38076 9.34685 3.12136 9.16537 3.0733 8.89345C3.023 8.60884 2.99683 8.31625 2.99683 8.01796C2.99683 7.71966 3.023 7.42707 3.0733 7.14246C3.12136 6.87054 3.38076 6.68906 3.65268 6.73712ZM11.9736 10.1839C12.1999 10.3421 12.255 10.6538 12.0968 10.8801C11.76 11.3618 11.3405 11.7812 10.8589 12.118C10.6326 12.2763 10.3209 12.2211 10.1626 11.9948C10.0044 11.7685 10.0596 11.4568 10.2859 11.2985C10.6716 11.0288 11.0076 10.6928 11.2773 10.3071C11.4355 10.0808 11.7473 10.0256 11.9736 10.1839ZM4.01987 10.1839C4.24617 10.0256 4.5579 10.0808 4.71614 10.3071C4.98584 10.6928 5.32186 11.0288 5.70756 11.2985C5.93386 11.4568 5.98903 11.7685 5.83079 11.9948C5.67255 12.2211 5.36082 12.2763 5.13452 12.118C4.65287 11.7812 4.23343 11.3618 3.89664 10.8801C3.7384 10.6538 3.79357 10.3421 4.01987 10.1839ZM6.71587 12.362C6.76393 12.0901 7.02333 11.9086 7.29525 11.9566C7.52266 11.9968 7.75702 12.0179 7.99671 12.0179C8.2364 12.0179 8.47076 11.9968 8.69817 11.9566C8.97009 11.9086 9.22949 12.0901 9.27755 12.362C9.32561 12.6339 9.14413 12.8933 8.87221 12.9414C8.5876 12.9917 8.295 13.0178 7.99671 13.0178C7.69842 13.0178 7.40582 12.9917 7.12121 12.9414C6.84929 12.8933 6.66782 12.6339 6.71587 12.362Z" fill="url(#paint1_linear_3514_40241)"/>
<path fill-rule="evenodd" clip-rule="evenodd" d="M5.52326 6.55948C5.52241 6.54585 5.52197 6.53203 5.52197 6.51802C5.52197 6.25873 5.67206 6.06478 5.82338 5.93872C5.97689 5.81084 6.17626 5.71271 6.38922 5.63767C6.81859 5.48638 7.38692 5.3999 7.99663 5.3999C8.60634 5.3999 9.17467 5.48638 9.60403 5.63767C9.81699 5.71271 10.0164 5.81084 10.1699 5.93872C10.3212 6.06478 10.4713 6.25873 10.4713 6.51802C10.4713 6.53203 10.4708 6.54585 10.47 6.55948C10.4708 6.56989 10.4713 6.58041 10.4713 6.59103V9.51802C10.4713 9.77732 10.3212 9.97127 10.1699 10.0973C10.0164 10.2252 9.81699 10.3233 9.60403 10.3984C9.17467 10.5497 8.60634 10.6361 7.99663 10.6361C7.38692 10.6361 6.81859 10.5497 6.38922 10.3984C6.17626 10.3233 5.97689 10.2252 5.82338 10.0973C5.67206 9.97127 5.52197 9.77732 5.52197 9.51802V6.59103C5.52197 6.58041 5.52241 6.56989 5.52326 6.55948ZM6.28211 7.35813V7.95365C6.28775 7.95984 6.29657 7.96852 6.30991 7.97964C6.36839 8.02835 6.47576 8.08926 6.64184 8.14778C6.97057 8.26361 7.44953 8.34235 7.99663 8.34235C8.54372 8.34235 9.02269 8.26361 9.35141 8.14778C9.5175 8.08926 9.62487 8.02835 9.68334 7.97964C9.69669 7.96852 9.7055 7.95984 9.71114 7.95365V7.35813C9.67594 7.37223 9.64018 7.38564 9.60403 7.39837C9.17467 7.54967 8.60634 7.63615 7.99663 7.63615C7.38692 7.63615 6.81859 7.54967 6.38922 7.39837C6.35308 7.38564 6.31732 7.37223 6.28211 7.35813ZM9.71114 8.82449C9.67594 8.83859 9.64018 8.85199 9.60403 8.86473C9.17467 9.01602 8.60634 9.1025 7.99663 9.1025C7.38692 9.1025 6.81859 9.01602 6.38922 8.86473C6.35308 8.85199 6.31732 8.83859 6.28211 8.82449V9.4873C6.28775 9.49349 6.29657 9.50217 6.30991 9.51329C6.36839 9.562 6.47576 9.62291 6.64184 9.68143C6.97057 9.79726 7.44953 9.876 7.99663 9.876C8.54372 9.876 9.02269 9.79726 9.35141 9.68143C9.5175 9.62291 9.62487 9.562 9.68334 9.51329C9.69669 9.50217 9.7055 9.49349 9.71114 9.4873V8.82449Z" fill="url(#paint2_linear_3514_40241)"/>
</g>
<defs>
<linearGradient id="paint0_linear_3514_40241" x1="1.44799" y1="2.26943" x2="13.6849" y2="14.7463" gradientUnits="userSpaceOnUse">
<stop stop-color="white"/>
<stop offset="1" stop-color="#EAECEE"/>
</linearGradient>
<linearGradient id="paint1_linear_3514_40241" x1="4.49583" y1="4.51347" x2="11.4976" y2="11.5177" gradientUnits="userSpaceOnUse">
<stop stop-color="#0195FF"/>
<stop offset="0.991028" stop-color="#1147E9"/>
</linearGradient>
<linearGradient id="paint2_linear_3514_40241" x1="6.2537" y1="6.17027" x2="9.91332" y2="9.64427" gradientUnits="userSpaceOnUse">
<stop stop-color="#1348FF"/>
<stop offset="1" stop-color="#06238D"/>
</linearGradient>
<clipPath id="clip0_3514_40241">
<rect width="9.99977" height="9.99977" fill="white" transform="translate(2.99707 2.99854)"/>
</clipPath>
</defs>
</svg>
