<svg width="16" height="16" viewBox="0 0 16 16" fill="none" xmlns="http://www.w3.org/2000/svg">
<circle cx="7.99738" cy="7.99835" r="7.85696" fill="url(#paint0_linear_3514_40240)" stroke="#D5DADD" stroke-width="0.285708"/>
<path d="M3.84051 7.1721C4.22127 6.74254 4.68959 6.39949 5.21398 6.166L5.23292 6.15763C5.37872 6.09361 5.47917 5.953 5.47917 5.79376C5.47917 5.5402 5.23424 5.35866 5.00062 5.45719C4.97177 5.46936 4.94302 5.48182 4.91439 5.49456C4.29418 5.77069 3.74029 6.17642 3.28996 6.68446C3.2253 6.75747 3.19228 6.85317 3.19818 6.95052C3.20408 7.04787 3.24841 7.13889 3.32142 7.20355C3.39442 7.26822 3.49013 7.30123 3.58748 7.29533C3.68483 7.28943 3.77585 7.24511 3.84051 7.1721Z" fill="url(#paint1_linear_3514_40240)"/>
<path d="M4.32065 9.40628C4.40168 8.93315 4.61382 8.49224 4.93296 8.13368C5.08571 7.96208 5.26002 7.81263 5.45077 7.6886C5.61591 7.58122 5.69924 7.37477 5.62484 7.19237C5.54537 6.99754 5.31837 6.90639 5.13842 7.01546C5.06734 7.05854 4.99779 7.10437 4.92993 7.15287C4.52884 7.43955 4.19709 7.81246 3.95904 8.24418C3.72099 8.67591 3.5827 9.15548 3.55432 9.64767C3.52594 10.1399 3.6082 10.6321 3.79505 11.0884C3.83391 11.1756 3.9052 11.2443 3.99382 11.2798C4.08245 11.3154 4.18143 11.315 4.2698 11.2789C4.35817 11.2427 4.42898 11.1735 4.46721 11.086C4.50545 10.9985 4.50811 10.8995 4.47463 10.8101C4.29297 10.3658 4.23963 9.87941 4.32065 9.40628Z" fill="url(#paint2_linear_3514_40240)"/>
<path d="M10.1463 9.97029C10.1661 9.47768 10.0753 8.98689 9.88057 8.53399C9.8295 8.41523 9.77163 8.29987 9.70734 8.18844C9.63143 8.05687 9.48743 7.98276 9.33554 7.98276H9.25553C9.02579 7.98276 8.89875 8.27937 9.02101 8.47387C9.27566 8.87896 9.41276 9.3487 9.41439 9.83024C9.41538 9.87658 9.40724 9.92266 9.39042 9.96585C9.37361 10.009 9.34845 10.0485 9.31639 10.082C9.28433 10.1154 9.24598 10.1423 9.20355 10.1609C9.16112 10.1796 9.11543 10.1897 9.06909 10.1907C9.02275 10.1917 8.97667 10.1835 8.93347 10.1667C8.89028 10.1499 8.85082 10.1248 8.81735 10.0927C8.78388 10.0606 8.75705 10.0223 8.7384 9.97985C8.71975 9.93742 8.70964 9.89173 8.70864 9.84539C8.70903 9.60118 8.66132 9.35928 8.56823 9.13351C8.47513 8.90774 8.33848 8.70251 8.16607 8.52955C7.99367 8.35659 7.78888 8.21928 7.56341 8.12546C7.33794 8.03165 7.09619 7.98316 6.85198 7.98276C6.60777 7.98237 6.36587 8.03009 6.1401 8.12318C5.91433 8.21627 5.7091 8.35292 5.53614 8.52533C5.36318 8.69774 5.22587 8.90252 5.13206 9.12799C5.03824 9.35347 4.98975 9.59521 4.98936 9.83942C4.99264 10.2564 5.05415 10.6709 5.17211 11.0709C5.30067 11.5039 5.51373 11.9594 5.85352 12.2992C5.92244 12.3681 6.0159 12.4067 6.11334 12.4067C6.21077 12.4066 6.3042 12.3679 6.37307 12.299C6.44193 12.23 6.4806 12.1366 6.48056 12.0391C6.48051 11.9417 6.44177 11.8483 6.37284 11.7794C6.15106 11.5576 5.9853 11.2293 5.87647 10.862C5.76811 10.4974 5.72403 10.1232 5.72403 9.83942C5.72324 9.54106 5.841 9.25461 6.05141 9.04307C6.26183 8.83154 6.54765 8.71226 6.84601 8.71147C7.14437 8.71068 7.43083 8.82844 7.64236 9.03885C7.85389 9.24927 7.97318 9.53509 7.97397 9.83345V9.84769C7.97397 9.86881 7.97305 9.89039 7.97167 9.91197C7.96796 9.96983 7.97803 10.0277 8.00106 10.0809C8.05585 10.3194 8.18938 10.5324 8.38009 10.6856C8.57081 10.8388 8.80758 10.9233 9.0522 10.9254C9.29682 10.9275 9.53502 10.8471 9.72837 10.6973C9.92171 10.5474 10.0589 10.3367 10.1178 10.0993C10.1351 10.0584 10.1447 10.0147 10.1463 9.97029Z" fill="url(#paint3_linear_3514_40240)"/>
<path fill-rule="evenodd" clip-rule="evenodd" d="M6.92624 9.47242C7.12888 9.47241 7.29315 9.63668 7.29315 9.83931C7.29317 10.2525 7.36555 10.4439 7.50035 10.6596C7.60771 10.8315 7.55543 11.0578 7.38357 11.1652C7.21172 11.2726 6.98536 11.2203 6.878 11.0484C6.66525 10.7079 6.55936 10.38 6.55935 9.83933C6.55934 9.6367 6.72361 9.47242 6.92624 9.47242Z" fill="url(#paint4_linear_3514_40240)"/>
<path fill-rule="evenodd" clip-rule="evenodd" d="M6.96631 3.48926C6.69017 3.48926 6.46631 3.71311 6.46631 3.98926V6.46778C6.46631 6.74392 6.69017 6.96778 6.96631 6.96778H12.6974C12.9735 6.96778 13.1974 6.74392 13.1974 6.46778V3.98926C13.1974 3.71311 12.9735 3.48926 12.6974 3.48926H6.96631ZM8.08831 4.5254C8.20552 4.5254 8.30053 4.62042 8.30053 4.73763V4.86094L8.40732 4.79928C8.50883 4.74068 8.63862 4.77546 8.69723 4.87696C8.75583 4.97847 8.72105 5.10827 8.61955 5.16687L8.51277 5.22852L8.61955 5.29017C8.72106 5.34878 8.75583 5.47857 8.69723 5.58008C8.63862 5.68159 8.50883 5.71637 8.40732 5.65776L8.30053 5.59611V5.71942C8.30053 5.83663 8.20552 5.93165 8.08831 5.93165C7.9711 5.93165 7.87608 5.83663 7.87608 5.71942V5.59612L7.76929 5.65777C7.66779 5.71637 7.53799 5.68159 7.47939 5.58009C7.42078 5.47858 7.45556 5.34878 7.55707 5.29018L7.66386 5.22852L7.55707 5.16687C7.45556 5.10826 7.42078 4.97847 7.47939 4.87696C7.53799 4.77545 7.66779 4.74067 7.7693 4.79928L7.87608 4.86093V4.73763C7.87608 4.62042 7.9711 4.5254 8.08831 4.5254ZM10.0441 4.73763C10.0441 4.62042 9.94906 4.5254 9.83185 4.5254C9.71464 4.5254 9.61962 4.62042 9.61962 4.73763V4.86093L9.51284 4.79928C9.41133 4.74067 9.28153 4.77545 9.22293 4.87696C9.16432 4.97847 9.1991 5.10826 9.30061 5.16687L9.4074 5.22852L9.30061 5.29018C9.1991 5.34878 9.16432 5.47858 9.22293 5.58009C9.28153 5.68159 9.41133 5.71637 9.51283 5.65777L9.61962 5.59612V5.71942C9.61962 5.83663 9.71464 5.93165 9.83185 5.93165C9.94906 5.93165 10.0441 5.83663 10.0441 5.71942V5.59611L10.1509 5.65776C10.2524 5.71637 10.3822 5.68159 10.4408 5.58008C10.4994 5.47857 10.4646 5.34878 10.3631 5.29017L10.2563 5.22852L10.3631 5.16687C10.4646 5.10827 10.4994 4.97847 10.4408 4.87696C10.3822 4.77546 10.2524 4.74068 10.1509 4.79928L10.0441 4.86094V4.73763ZM11.7876 4.73763C11.7876 4.62042 11.6926 4.5254 11.5754 4.5254C11.4582 4.5254 11.3632 4.62042 11.3632 4.73763V4.86093L11.2564 4.79928C11.1549 4.74067 11.0251 4.77545 10.9665 4.87696C10.9079 4.97847 10.9426 5.10826 11.0442 5.16687L11.1509 5.22852L11.0441 5.29018C10.9426 5.34878 10.9079 5.47858 10.9665 5.58009C11.0251 5.68159 11.1549 5.71637 11.2564 5.65777L11.3632 5.59612V5.71942C11.3632 5.83663 11.4582 5.93165 11.5754 5.93165C11.6926 5.93165 11.7876 5.83663 11.7876 5.71942V5.59611L11.8944 5.65776C11.9959 5.71637 12.1257 5.68159 12.1843 5.58008C12.2429 5.47857 12.2081 5.34878 12.1066 5.29017L11.9999 5.22852L12.1066 5.16687C12.2081 5.10827 12.2429 4.97847 12.1843 4.87696C12.1257 4.77546 11.9959 4.74068 11.8944 4.79928L11.7876 4.86094V4.73763Z" fill="url(#paint5_linear_3514_40240)"/>
<defs>
<linearGradient id="paint0_linear_3514_40240" x1="1.44848" y1="2.26943" x2="13.6854" y2="14.7463" gradientUnits="userSpaceOnUse">
<stop stop-color="white"/>
<stop offset="1" stop-color="#EAECEE"/>
</linearGradient>
<linearGradient id="paint1_linear_3514_40240" x1="4.23956" y1="6.47326" x2="9.12463" y2="11.3423" gradientUnits="userSpaceOnUse">
<stop stop-color="#0195FF"/>
<stop offset="0.991028" stop-color="#1147E9"/>
</linearGradient>
<linearGradient id="paint2_linear_3514_40240" x1="4.23956" y1="6.47326" x2="9.12463" y2="11.3423" gradientUnits="userSpaceOnUse">
<stop stop-color="#0195FF"/>
<stop offset="0.991028" stop-color="#1147E9"/>
</linearGradient>
<linearGradient id="paint3_linear_3514_40240" x1="4.23956" y1="6.47326" x2="9.12463" y2="11.3423" gradientUnits="userSpaceOnUse">
<stop stop-color="#0195FF"/>
<stop offset="0.991028" stop-color="#1147E9"/>
</linearGradient>
<linearGradient id="paint4_linear_3514_40240" x1="4.23956" y1="6.47326" x2="9.12463" y2="11.3423" gradientUnits="userSpaceOnUse">
<stop stop-color="#0195FF"/>
<stop offset="0.991028" stop-color="#1147E9"/>
</linearGradient>
<linearGradient id="paint5_linear_3514_40240" x1="7.46145" y1="4.00102" x2="9.44233" y2="7.85061" gradientUnits="userSpaceOnUse">
<stop stop-color="#1348FF"/>
<stop offset="1" stop-color="#06238D"/>
</linearGradient>
</defs>
</svg>
