<svg width="16" height="16" viewBox="0 0 16 16" fill="none" xmlns="http://www.w3.org/2000/svg">
<circle cx="7.9964" cy="7.99835" r="7.85696" fill="url(#paint0_linear_3514_40242)" stroke="#D5DADD" stroke-width="0.285708"/>
<path fill-rule="evenodd" clip-rule="evenodd" d="M4.70751 6.39883C4.68731 6.44628 4.66809 6.49426 4.64991 6.54273C4.5529 6.80128 4.26467 6.93223 4.00613 6.83522C3.74759 6.73821 3.61664 6.44998 3.71364 6.19144C4.36407 4.45794 6.0367 3.2229 7.99906 3.2229C9.96141 3.2229 11.634 4.45794 12.2845 6.19144C12.3815 6.44998 12.2505 6.73821 11.992 6.83522C11.7334 6.93223 11.4452 6.80128 11.3482 6.54273C11.3327 6.50142 11.3165 6.46046 11.2995 6.41989C10.9853 6.50175 10.5824 6.59272 10.1099 6.66929C10.1413 6.79805 10.1675 6.92735 10.1882 7.05714C10.2317 7.32984 10.0459 7.58616 9.77316 7.62965C9.50046 7.67315 9.24414 7.48735 9.20065 7.21465C9.17838 7.07503 9.14789 6.93462 9.10895 6.79357C8.43387 6.85201 7.67112 6.86681 6.85627 6.79425C6.81743 6.93508 6.787 7.07526 6.76476 7.21465C6.72127 7.48735 6.46495 7.67315 6.19225 7.62965C5.91956 7.58616 5.73375 7.32984 5.77725 7.05714C5.7983 6.92514 5.82496 6.79364 5.85715 6.66271C5.48034 6.59658 5.0961 6.50988 4.70751 6.39883ZM7.04074 4.35277C6.33121 4.54966 5.71017 4.95984 5.25127 5.51017C5.56994 5.59177 5.88529 5.65602 6.19522 5.7054C6.40815 5.24484 6.69095 4.79317 7.04074 4.35277ZM10.7579 5.52346C10.289 4.95564 9.6483 4.5352 8.91568 4.34147C9.2707 4.7868 9.55719 5.2437 9.77216 5.70967C10.1473 5.65438 10.4793 5.58815 10.7579 5.52346ZM7.9827 4.78155C8.27851 5.12851 8.51945 5.47548 8.70857 5.8205C8.25541 5.84819 7.76766 5.85291 7.25625 5.82157C7.44546 5.47619 7.68659 5.12887 7.9827 4.78155Z" fill="url(#paint1_linear_3514_40242)"/>
<path d="M4.41378 9.85188C4.36523 9.86428 4.31774 9.88425 4.27295 9.91216C4.0386 10.0582 3.96703 10.3666 4.11309 10.601C4.92017 11.8959 6.35849 12.7594 7.99891 12.7594C9.63933 12.7594 11.0777 11.8959 11.8847 10.601C12.0308 10.3666 11.9592 10.0582 11.7249 9.91216C11.6277 9.85158 11.5177 9.82844 11.4119 9.83883H11.3355C11.2228 9.87739 11.109 9.91172 10.9945 9.94119C10.7239 10.0109 10.4508 9.97598 10.2182 9.86167C10.1844 9.91737 10.1453 9.97083 10.1006 10.0213L8.76787 11.5283C8.36426 11.9847 7.66791 12.0245 7.21492 11.6171C6.87883 11.3148 6.77168 10.8516 6.90605 10.4476C6.47853 10.4076 6.05946 10.3409 5.65736 10.248C5.23401 10.1503 4.81338 10.0197 4.41378 9.85188Z" fill="url(#paint2_linear_3514_40242)"/>
<path fill-rule="evenodd" clip-rule="evenodd" d="M12.8684 8.21994C13.0728 8.03425 13.088 7.71803 12.9023 7.51364C12.7166 7.30925 12.4004 7.29409 12.196 7.47977C11.7872 7.85116 11.1723 8.21737 10.5888 8.36765C10.3214 8.43653 10.1605 8.70914 10.2293 8.97656C10.2982 9.24397 10.5708 9.40491 10.8383 9.33604C11.6035 9.13892 12.3594 8.68237 12.8684 8.21994ZM8.09683 8.8644L7.46946 8.30012C7.27464 8.12489 7.25744 7.82397 7.43103 7.62768C7.60462 7.43139 7.90303 7.41434 8.09786 7.58957L9.59363 8.93491C9.78845 9.11014 9.80565 9.41107 9.63206 9.60735L8.29931 11.1144C8.12572 11.3106 7.82731 11.3277 7.63249 11.1525C7.43766 10.9772 7.42046 10.6763 7.59405 10.48L8.13919 9.86362C7.33311 9.88568 6.53176 9.80868 5.79759 9.63916C4.75095 9.39749 3.79002 8.95551 3.16356 8.29113C2.97412 8.09022 2.98341 7.77377 3.18433 7.58433C3.38524 7.39489 3.70168 7.40418 3.89112 7.60509C4.33148 8.07211 5.08073 8.44733 6.02257 8.6648C6.66715 8.81363 7.3783 8.88285 8.09683 8.8644Z" fill="url(#paint3_linear_3514_40242)"/>
<defs>
<linearGradient id="paint0_linear_3514_40242" x1="1.4475" y1="2.26943" x2="13.6844" y2="14.7463" gradientUnits="userSpaceOnUse">
<stop stop-color="white"/>
<stop offset="1" stop-color="#EAECEE"/>
</linearGradient>
<linearGradient id="paint1_linear_3514_40242" x1="4.97604" y1="3.88285" x2="7.47986" y2="8.78367" gradientUnits="userSpaceOnUse">
<stop stop-color="#0195FF"/>
<stop offset="0.991028" stop-color="#1147E9"/>
</linearGradient>
<linearGradient id="paint2_linear_3514_40242" x1="5.22506" y1="10.2735" x2="6.55394" y2="13.8768" gradientUnits="userSpaceOnUse">
<stop stop-color="#0195FF"/>
<stop offset="0.991028" stop-color="#1147E9"/>
</linearGradient>
<linearGradient id="paint3_linear_3514_40242" x1="4.5065" y1="7.92711" x2="6.3673" y2="12.6924" gradientUnits="userSpaceOnUse">
<stop stop-color="#1348FF"/>
<stop offset="1" stop-color="#06238D"/>
</linearGradient>
</defs>
</svg>
