<svg width="16" height="16" viewBox="0 0 16 16" fill="none" xmlns="http://www.w3.org/2000/svg">
<circle cx="7.99493" cy="7.99835" r="7.85696" fill="url(#paint0_linear_3514_40247)" stroke="#D5DADD" stroke-width="0.285708"/>
<g clip-path="url(#clip0_3514_40247)">
<path fill-rule="evenodd" clip-rule="evenodd" d="M6.97502 2.81812H9.92636C10.4786 2.81812 10.9263 3.26582 10.9263 3.81809V4.49518C10.7217 4.6038 10.5592 4.78141 10.47 4.99701C10.32 4.63428 9.9626 4.37907 9.54563 4.37907H8.92069C7.81616 4.37907 6.92075 5.27447 6.92074 6.37901L6.92073 7.00396C6.92073 7.33365 7.08028 7.62607 7.32637 7.80823C7.08028 7.99039 6.92073 8.28282 6.92074 8.6125L6.92074 9.23745C6.92075 10.342 7.81616 11.2374 8.9207 11.2374H9.54564C9.96261 11.2374 10.32 10.9822 10.47 10.6194C10.5592 10.8351 10.7217 11.0127 10.9263 11.1213V11.7984C10.9263 12.3506 10.4786 12.7984 9.92636 12.7984L4.43504 12.7984C3.88276 12.7984 3.43506 12.3506 3.43506 11.7984V6.50836C3.43506 6.39789 3.47895 6.29193 3.55707 6.21381C3.63519 6.13569 3.74114 6.0918 3.85162 6.0918H5.31398C5.6556 6.0918 5.94842 5.9698 6.19243 5.72578C6.43645 5.48177 6.55846 5.18895 6.55846 4.84732L6.55846 3.23468C6.55846 3.1242 6.60235 3.01824 6.68047 2.94012C6.75859 2.862 6.86454 2.81812 6.97502 2.81812ZM5.71797 7.75373C5.99411 7.75373 6.21796 7.52988 6.21796 7.25374C6.21796 6.97761 5.99411 6.75375 5.71797 6.75375H5.05876C4.78262 6.75375 4.55877 6.97761 4.55877 7.25374C4.55877 7.52988 4.78262 7.75373 5.05876 7.75373H5.71797ZM6.21796 8.88339C6.21796 9.15953 5.99411 9.38338 5.71797 9.38338H5.05876C4.78262 9.38338 4.55877 9.15953 4.55877 8.88339C4.55877 8.60726 4.78262 8.38341 5.05876 8.38341H5.71797C5.99411 8.38341 6.21796 8.60726 6.21796 8.88339ZM5.71797 11.013C5.99411 11.013 6.21796 10.7892 6.21796 10.513C6.21796 10.2369 5.99411 10.0131 5.71797 10.0131H5.05876C4.78262 10.0131 4.55877 10.2369 4.55877 10.513C4.55877 10.7892 4.78262 11.013 5.05876 11.013H5.71797Z" fill="url(#paint1_linear_3514_40247)"/>
<path d="M6.03518 4.73565V3.52539L4.08252 5.5796H5.19123C5.42291 5.5796 5.62148 5.49686 5.78696 5.33138C5.95244 5.1659 6.03518 4.96732 6.03518 4.73565Z" fill="url(#paint2_linear_3514_40247)"/>
<path fill-rule="evenodd" clip-rule="evenodd" d="M9.9208 5.37914C9.9208 5.17204 9.75292 5.00415 9.54581 5.00415H8.92087C8.1615 5.00415 7.54591 5.61974 7.5459 6.37911L7.5459 7.00406C7.5459 7.21116 7.71378 7.37905 7.92089 7.37905C8.12799 7.37905 8.29588 7.21117 8.29588 7.00406L8.29589 6.37911C8.29589 6.03394 8.5757 5.75413 8.92087 5.75413L9.54581 5.75413C9.75292 5.75413 9.9208 5.58624 9.9208 5.37914ZM9.92081 10.2375C9.92081 10.4446 9.75292 10.6125 9.54582 10.6125H8.92088C8.16151 10.6125 7.54592 9.99691 7.54591 9.23754L7.5459 8.61259C7.5459 8.40549 7.71379 8.2376 7.92089 8.23759C8.12799 8.23759 8.29588 8.40548 8.29588 8.61258L8.29589 9.23753C8.29589 9.5827 8.57571 9.86251 8.92088 9.86251H9.54582C9.75292 9.86251 9.92081 10.0304 9.92081 10.2375ZM11.0196 10.2375C11.0196 10.4446 11.1875 10.6125 11.3946 10.6125H12.0196C12.7789 10.6125 13.3945 9.99691 13.3945 9.23754L13.3945 8.61259C13.3945 8.40549 13.2267 8.2376 13.0196 8.2376C12.8125 8.2376 12.6446 8.40548 12.6446 8.61259L12.6446 9.23754C12.6446 9.5827 12.3647 9.86252 12.0196 9.86252L11.3946 9.86252C11.1875 9.86252 11.0196 10.0304 11.0196 10.2375ZM11.0196 5.37915C11.0196 5.17204 11.1875 5.00415 11.3946 5.00415L12.0196 5.00415C12.7789 5.00415 13.3945 5.61974 13.3945 6.37911L13.3945 7.00406C13.3945 7.21116 13.2267 7.37905 13.0196 7.37906C12.8124 7.37906 12.6446 7.21117 12.6446 7.00407L12.6445 6.37912C12.6445 6.03395 12.3647 5.75414 12.0196 5.75414L11.3946 5.75414C11.1875 5.75414 11.0196 5.58625 11.0196 5.37915Z" fill="url(#paint3_linear_3514_40247)"/>
<path d="M11.2488 6.72636C11.3313 6.64088 11.4241 6.59814 11.5272 6.59814C11.6304 6.59814 11.7232 6.64088 11.8057 6.72636C11.8779 6.80115 11.914 6.89197 11.914 6.99882C11.914 7.10567 11.8779 7.20183 11.8057 7.28731L10.2432 8.90605C10.171 8.98084 10.0782 9.01824 9.96478 9.01824C9.85133 9.01824 9.75851 8.98084 9.68632 8.90605L8.91282 8.10469C8.83032 8.01921 8.78906 7.92305 8.78906 7.8162C8.78906 7.70936 8.83032 7.61319 8.91282 7.52772C8.99533 7.44224 9.08815 7.3995 9.19128 7.3995C9.29441 7.3995 9.38208 7.44224 9.45427 7.52772L9.96478 8.05661L11.2488 6.72636Z" fill="url(#paint4_linear_3514_40247)"/>
</g>
<defs>
<linearGradient id="paint0_linear_3514_40247" x1="1.44604" y1="2.26943" x2="13.683" y2="14.7463" gradientUnits="userSpaceOnUse">
<stop stop-color="white"/>
<stop offset="1" stop-color="#EAECEE"/>
</linearGradient>
<linearGradient id="paint1_linear_3514_40247" x1="4.55803" y1="4.3106" x2="11.2688" y2="9.34953" gradientUnits="userSpaceOnUse">
<stop stop-color="#0195FF"/>
<stop offset="0.991028" stop-color="#1147E9"/>
</linearGradient>
<linearGradient id="paint2_linear_3514_40247" x1="4.37121" y1="3.82761" x2="5.8073" y2="5.1986" gradientUnits="userSpaceOnUse">
<stop stop-color="#1348FF"/>
<stop offset="1" stop-color="#06238D"/>
</linearGradient>
<linearGradient id="paint3_linear_3514_40247" x1="8.42263" y1="5.84284" x2="12.3461" y2="9.9358" gradientUnits="userSpaceOnUse">
<stop stop-color="#0195FF"/>
<stop offset="0.991028" stop-color="#1147E9"/>
</linearGradient>
<linearGradient id="paint4_linear_3514_40247" x1="9.25106" y1="6.95419" x2="10.8891" y2="9.07845" gradientUnits="userSpaceOnUse">
<stop stop-color="#1348FF"/>
<stop offset="1" stop-color="#06238D"/>
</linearGradient>
<clipPath id="clip0_3514_40247">
<rect width="9.99977" height="9.99977" fill="white" transform="translate(3.39502 2.79858)"/>
</clipPath>
</defs>
</svg>
