<svg width="16" height="16" viewBox="0 0 16 16" fill="none" xmlns="http://www.w3.org/2000/svg">
<circle cx="7.99445" cy="7.99835" r="7.85696" fill="url(#paint0_linear_3514_40248)" stroke="#D5DADD" stroke-width="0.285708"/>
<g clip-path="url(#clip0_3514_40248)">
<path d="M10.3744 7.89487L9.37556 6.13039C9.30478 6.00432 9.20186 5.89926 9.07726 5.82592C8.95266 5.75258 8.81085 5.71358 8.66627 5.71289C8.52175 5.71364 8.38002 5.75267 8.25549 5.82601C8.13096 5.89934 8.02809 6.00437 7.95734 6.13039L7.37536 7.64093C7.29953 7.55521 6.82257 7.05699 6.71815 7.01012C6.61374 6.96326 6.50054 6.93918 6.38609 6.9395C6.23861 6.94007 6.09404 6.9806 5.96776 7.05679C5.84149 7.13298 5.73822 7.24197 5.66895 7.37218L5.63694 7.44295C5.94385 8.51098 6.92808 9.29239 8.09481 9.29239C9.0896 9.29239 9.95171 8.72431 10.3744 7.89487Z" fill="url(#paint1_linear_3514_40248)"/>
<path d="M11.6123 10.0815C10.7279 11.0109 9.47902 11.5902 8.09481 11.5902C6.663 11.5902 5.37597 10.9704 4.48738 9.9844L3.91038 11.26C3.84097 11.3895 3.80615 11.5346 3.80928 11.6815C3.8124 11.8283 3.85338 11.9719 3.92824 12.0982C3.99969 12.2203 4.10186 12.3214 4.22459 12.3917C4.34731 12.4619 4.4863 12.4988 4.6277 12.4986H11.562C11.7048 12.4988 11.8451 12.4612 11.9687 12.3896C12.0923 12.3179 12.1946 12.2148 12.2654 12.0907C12.3399 11.9624 12.3796 11.8169 12.3806 11.6685C12.3815 11.5202 12.3437 11.3741 12.2709 11.2449L11.6123 10.0815Z" fill="url(#paint2_linear_3514_40248)"/>
<path fill-rule="evenodd" clip-rule="evenodd" d="M8.09459 3.55317C6.3372 3.55317 4.91255 4.97782 4.91255 6.73521C4.91255 8.4926 6.3372 9.91725 8.09459 9.91725C9.85197 9.91725 11.2766 8.4926 11.2766 6.73521C11.2766 4.97782 9.85197 3.55317 8.09459 3.55317ZM3.86475 6.73521C3.86475 4.39914 5.75851 2.50537 8.09459 2.50537C10.4307 2.50537 12.3244 4.39914 12.3244 6.73521C12.3244 9.07128 10.4307 10.9651 8.09459 10.9651C5.75851 10.9651 3.86475 9.07128 3.86475 6.73521Z" fill="url(#paint3_linear_3514_40248)"/>
</g>
<defs>
<linearGradient id="paint0_linear_3514_40248" x1="1.44555" y1="2.26943" x2="13.6825" y2="14.7463" gradientUnits="userSpaceOnUse">
<stop stop-color="white"/>
<stop offset="1" stop-color="#EAECEE"/>
</linearGradient>
<linearGradient id="paint1_linear_3514_40248" x1="5.09188" y1="6.73097" x2="9.71716" y2="12.5694" gradientUnits="userSpaceOnUse">
<stop stop-color="#00BBFF"/>
<stop offset="1" stop-color="#008BFF"/>
</linearGradient>
<linearGradient id="paint2_linear_3514_40248" x1="5.09188" y1="6.73097" x2="9.71716" y2="12.5694" gradientUnits="userSpaceOnUse">
<stop stop-color="#00BBFF"/>
<stop offset="1" stop-color="#008BFF"/>
</linearGradient>
<linearGradient id="paint3_linear_3514_40248" x1="5.13289" y1="3.77046" x2="11.0563" y2="9.69596" gradientUnits="userSpaceOnUse">
<stop stop-color="#0195FF"/>
<stop offset="0.991028" stop-color="#1147E9"/>
</linearGradient>
<clipPath id="clip0_3514_40248">
<rect width="10" height="10" fill="white" transform="translate(3.09473 2.49854)"/>
</clipPath>
</defs>
</svg>
