<svg width="16" height="16" viewBox="0 0 16 16" fill="none" xmlns="http://www.w3.org/2000/svg">
<circle cx="7.99591" cy="7.99811" r="7.85696" fill="url(#paint0_linear_3890_21506)" stroke="#D5DADD" stroke-width="0.285708"/>
<g clip-path="url(#clip0_3890_21506)">
<path d="M7.42053 12.7111C7.60178 12.9019 7.84552 13.0072 8.09551 13.0072C8.3455 13.0072 8.59549 12.9019 8.75798 12.7243L11.5291 9.98186H9.31829C9.21971 9.98186 9.12271 9.97024 9.02898 9.94794L9.01096 10.1328C8.96403 10.614 8.64375 11.025 8.18857 11.1882C7.73339 11.3513 7.22496 11.2372 6.88306 10.8953L5.96959 9.98186H4.66144L7.42053 12.7111Z" fill="url(#paint1_linear_3890_21506)"/>
<path d="M3.1369 7.56729C3.10957 7.39242 3.0957 7.21385 3.0957 7.0327C3.0957 5.33439 4.43236 3.78882 6.17683 3.78882C6.9018 3.78882 7.78653 4.26482 8.09551 4.73632C8.40708 4.26482 9.28921 3.78882 10.0142 3.78882C11.7141 3.78882 13.0953 5.24297 13.0953 7.0327C13.0953 7.21337 13.0813 7.39202 13.0538 7.5672C12.9129 7.51216 12.7596 7.48195 12.5992 7.48195H10.0052L9.13672 6.11448C8.85069 5.66411 8.31033 5.44493 7.79138 5.5688C7.27243 5.69266 6.88931 6.13227 6.83753 6.66328L6.75487 7.51091C6.66766 7.4918 6.57801 7.48195 6.48733 7.48195H3.59175C3.43127 7.48195 3.27786 7.51219 3.1369 7.56729Z" fill="url(#paint2_linear_3890_21506)"/>
<path fill-rule="evenodd" clip-rule="evenodd" d="M7.96602 6.29812C8.1736 6.24857 8.38974 6.33624 8.50415 6.51639L9.59356 8.23177H12.5997C12.8759 8.23177 13.0997 8.45562 13.0997 8.73175C13.0997 9.00788 12.8759 9.23173 12.5997 9.23173H9.31881C9.1477 9.23173 8.98848 9.14423 8.89675 8.99979L8.43874 8.27862L8.26505 10.0598C8.24627 10.2523 8.11816 10.4167 7.93609 10.482C7.75402 10.5472 7.55065 10.5016 7.41389 10.3649L6.28075 9.23173H3.59227C3.31613 9.23173 3.09229 9.00788 3.09229 8.73175C3.09229 8.45562 3.31613 8.23177 3.59227 8.23177H6.48785C6.62046 8.23177 6.74763 8.28444 6.84139 8.37821L7.37253 8.90935L7.58448 6.73591C7.60519 6.52351 7.75844 6.34766 7.96602 6.29812Z" fill="url(#paint3_linear_3890_21506)"/>
</g>
<defs>
<linearGradient id="paint0_linear_3890_21506" x1="1.44702" y1="2.26919" x2="13.6839" y2="14.7461" gradientUnits="userSpaceOnUse">
<stop stop-color="white"/>
<stop offset="1" stop-color="#EAECEE"/>
</linearGradient>
<linearGradient id="paint1_linear_3890_21506" x1="4.59469" y1="5.16737" x2="11.0279" y2="12.1482" gradientUnits="userSpaceOnUse">
<stop stop-color="#0195FF"/>
<stop offset="0.991028" stop-color="#1147E9"/>
</linearGradient>
<linearGradient id="paint2_linear_3890_21506" x1="4.59469" y1="5.16737" x2="11.0279" y2="12.1482" gradientUnits="userSpaceOnUse">
<stop stop-color="#0195FF"/>
<stop offset="0.991028" stop-color="#1147E9"/>
</linearGradient>
<linearGradient id="paint3_linear_3890_21506" x1="4.57182" y1="6.90629" x2="6.68607" y2="11.9335" gradientUnits="userSpaceOnUse">
<stop stop-color="#1348FF"/>
<stop offset="1" stop-color="#06238D"/>
</linearGradient>
<clipPath id="clip0_3890_21506">
<rect width="9.99962" height="9.99962" fill="white" transform="translate(3.09619 3.39819)"/>
</clipPath>
</defs>
</svg>
