<svg width="16" height="16" viewBox="0 0 16 16" fill="none" xmlns="http://www.w3.org/2000/svg">
<circle cx="7.99738" cy="7.99811" r="7.85696" fill="url(#paint0_linear_3514_40256)" stroke="#D5DADD" stroke-width="0.285708"/>
<g clip-path="url(#clip0_3514_40256)">
<path d="M6.20687 4.59022V3.50269L4.2915 5.41805H5.37904C5.60629 5.41805 5.80107 5.33689 5.96339 5.17457C6.12571 5.01225 6.20687 4.81747 6.20687 4.59022Z" fill="url(#paint1_linear_3514_40256)"/>
<path d="M9.88362 2.79956H7.07001C6.96164 2.79956 6.85771 2.84261 6.78108 2.91924C6.70445 2.99587 6.6614 3.0998 6.6614 3.20817V4.64259C6.6614 4.97769 6.54172 5.26492 6.30237 5.50427C6.06301 5.74363 5.77579 5.86331 5.44069 5.86331H4.00626C3.89789 5.86331 3.79396 5.90636 3.71733 5.98298C3.64071 6.05961 3.59766 6.16354 3.59766 6.27191V11.3653C3.59766 11.952 4.07323 12.4276 4.65989 12.4276H9.88362C10.3968 12.4276 10.825 12.0636 10.9242 11.5797C10.6448 11.6726 10.3462 11.7228 10.0366 11.7228C8.48268 11.7228 7.22299 10.4631 7.22299 8.9092C7.22299 7.3553 8.48268 6.09561 10.0366 6.09561C10.3548 6.09561 10.6606 6.14842 10.9459 6.24577V3.86179C10.9459 3.27514 10.4703 2.79956 9.88362 2.79956Z" fill="url(#paint2_linear_3514_40256)"/>
<path d="M10.9459 6.91782C10.6689 6.79117 10.361 6.72058 10.0366 6.72058C8.82785 6.72058 7.84797 7.70046 7.84797 8.9092C7.84797 10.1179 8.82785 11.0978 10.0366 11.0978C10.361 11.0978 10.6689 11.0272 10.9459 10.9006V9.67483C10.7278 9.93352 10.4014 10.0979 10.0366 10.0979C9.38012 10.0979 8.84794 9.56568 8.84794 8.9092C8.84794 8.25273 9.38012 7.72055 10.0366 7.72055C10.4014 7.72055 10.7278 7.88489 10.9459 8.14357V6.91782Z" fill="url(#paint3_linear_3514_40256)"/>
<path fill-rule="evenodd" clip-rule="evenodd" d="M11.2252 8.90932C11.2252 9.56579 10.693 10.098 10.0365 10.098C9.38004 10.098 8.84787 9.56579 8.84787 8.90932C8.84787 8.25284 9.38004 7.72067 10.0365 7.72067C10.693 7.72067 11.2252 8.25284 11.2252 8.90932ZM11.1494 10.7943C10.8233 10.9872 10.4428 11.0979 10.0365 11.0979C8.82778 11.0979 7.8479 10.1181 7.8479 8.90932C7.8479 7.70058 8.82778 6.7207 10.0365 6.7207C11.2453 6.7207 12.2251 7.70058 12.2251 8.90932C12.2251 9.34943 12.0952 9.7592 11.8717 10.1024L13.3434 11.5742C13.5387 11.7694 13.5387 12.086 13.3434 12.2812C13.1482 12.4765 12.8316 12.4765 12.6364 12.2812L11.1494 10.7943Z" fill="url(#paint4_linear_3514_40256)"/>
</g>
<defs>
<linearGradient id="paint0_linear_3514_40256" x1="1.44848" y1="2.26919" x2="13.6854" y2="14.7461" gradientUnits="userSpaceOnUse">
<stop stop-color="white"/>
<stop offset="1" stop-color="#EAECEE"/>
</linearGradient>
<linearGradient id="paint1_linear_3514_40256" x1="4.57468" y1="3.78448" x2="5.91514" y2="5.13071" gradientUnits="userSpaceOnUse">
<stop stop-color="#1348FF"/>
<stop offset="1" stop-color="#06238D"/>
</linearGradient>
<linearGradient id="paint2_linear_3514_40256" x1="4.69918" y1="4.23937" x2="11.2024" y2="9.20443" gradientUnits="userSpaceOnUse">
<stop stop-color="#0195FF"/>
<stop offset="0.991028" stop-color="#1147E9"/>
</linearGradient>
<linearGradient id="paint3_linear_3514_40256" x1="4.69918" y1="4.23937" x2="11.2024" y2="9.20443" gradientUnits="userSpaceOnUse">
<stop stop-color="#0195FF"/>
<stop offset="0.991028" stop-color="#1147E9"/>
</linearGradient>
<linearGradient id="paint4_linear_3514_40256" x1="8.68203" y1="7.56032" x2="12.676" y2="11.5258" gradientUnits="userSpaceOnUse">
<stop stop-color="#1348FF"/>
<stop offset="1" stop-color="#06238D"/>
</linearGradient>
<clipPath id="clip0_3514_40256">
<rect width="9.99966" height="9.99966" fill="white" transform="translate(3.59766 2.49829)"/>
</clipPath>
</defs>
</svg>
