<svg width="16" height="16" viewBox="0 0 16 16" fill="none" xmlns="http://www.w3.org/2000/svg">
<circle cx="7.99493" cy="7.99811" r="7.85696" fill="url(#paint0_linear_3514_40263)" stroke="#D5DADD" stroke-width="0.285708"/>
<g clip-path="url(#clip0_3514_40263)">
<path d="M7.50918 9.56429C7.50918 9.29086 7.44407 9.03045 7.31387 8.78306C7.19669 8.53567 7.02091 8.33386 6.78654 8.17761L5.47799 7.29873C5.1004 7.03832 4.80093 6.69979 4.57958 6.28314C4.37125 5.8795 4.26709 5.44332 4.26709 4.97458L4.26709 4.71507C4.26709 4.3505 4.44938 4.16821 4.81395 4.16821C5.17852 4.16821 5.36081 4.3505 5.36081 4.71507V4.97458C5.36081 5.57352 5.60168 6.03575 6.08344 6.36126L7.48965 7.31826C7.61985 7.42243 7.73703 7.52008 7.8412 7.61122C7.95838 7.71539 8.04952 7.83257 8.11463 7.96277C8.28389 7.68934 8.50524 7.468 8.77867 7.29873L10.1068 6.41985C10.3281 6.26361 10.5039 6.06179 10.6341 5.8144C10.7643 5.58003 10.8294 5.31962 10.8294 5.03317V4.77366C10.8294 4.6044 10.875 4.46768 10.9661 4.36352C11.0703 4.25936 11.207 4.20727 11.3762 4.20727C11.5455 4.20727 11.6757 4.25936 11.7669 4.36352C11.871 4.46768 11.9231 4.6044 11.9231 4.77366V5.03317C11.9231 5.50191 11.8189 5.93809 11.6106 6.34173C11.4023 6.75838 11.1028 7.09691 10.7122 7.35732L9.38412 8.2362C9.16277 8.39245 8.987 8.58775 8.85679 8.82212C8.73961 9.06951 8.66799 9.33643 8.64195 9.62288V9.59521C8.63813 9.71044 8.58916 10.1083 8.0951 10.1083C7.51737 10.1083 7.50918 9.56429 7.50918 9.56429Z" fill="url(#paint1_linear_3514_40263)"/>
<path d="M9.03264 12.0229C9.03264 12.5407 8.61292 12.9604 8.09517 12.9604C7.57742 12.9604 7.1577 12.5407 7.1577 12.0229C7.1577 11.5052 7.57742 11.0854 8.09517 11.0854C8.61292 11.0854 9.03264 11.5052 9.03264 12.0229Z" stroke="url(#paint2_linear_3514_40263)" stroke-width="0.874973"/>
<path d="M6.60534 4.95773C6.99792 4.95773 7.31616 4.6337 7.31616 4.23399C7.31616 3.83428 6.99792 3.51025 6.60534 3.51025C6.21277 3.51025 5.89453 3.83428 5.89453 4.23399C5.89453 4.6337 6.21277 4.95773 6.60534 4.95773Z" fill="url(#paint3_linear_3514_40263)"/>
<path d="M8.09509 6.405C8.48766 6.405 8.8059 6.08097 8.8059 5.68126C8.8059 5.28155 8.48766 4.95752 8.09509 4.95752C7.70252 4.95752 7.38428 5.28155 7.38428 5.68126C7.38428 6.08097 7.70252 6.405 8.09509 6.405Z" fill="url(#paint4_linear_3514_40263)"/>
<path d="M9.58533 4.95773C9.9779 4.95773 10.2961 4.6337 10.2961 4.23399C10.2961 3.83428 9.9779 3.51025 9.58533 3.51025C9.19275 3.51025 8.87451 3.83428 8.87451 4.23399C8.87451 4.6337 9.19275 4.95773 9.58533 4.95773Z" fill="url(#paint5_linear_3514_40263)"/>
</g>
<defs>
<linearGradient id="paint0_linear_3514_40263" x1="1.44604" y1="2.26919" x2="13.683" y2="14.7461" gradientUnits="userSpaceOnUse">
<stop stop-color="white"/>
<stop offset="1" stop-color="#EAECEE"/>
</linearGradient>
<linearGradient id="paint1_linear_3514_40263" x1="5.41476" y1="5.05652" x2="9.44325" y2="10.2505" gradientUnits="userSpaceOnUse">
<stop stop-color="#0195FF"/>
<stop offset="0.991028" stop-color="#1147E9"/>
</linearGradient>
<linearGradient id="paint2_linear_3514_40263" x1="7.13244" y1="11.0592" x2="9.05792" y2="12.9853" gradientUnits="userSpaceOnUse">
<stop stop-color="#0195FF"/>
<stop offset="0.991028" stop-color="#1147E9"/>
</linearGradient>
<linearGradient id="paint3_linear_3514_40263" x1="6.10729" y1="3.72742" x2="7.12063" y2="4.72197" gradientUnits="userSpaceOnUse">
<stop stop-color="#00BBFF"/>
<stop offset="1" stop-color="#008BFF"/>
</linearGradient>
<linearGradient id="paint4_linear_3514_40263" x1="7.59704" y1="5.17469" x2="8.61037" y2="6.16924" gradientUnits="userSpaceOnUse">
<stop stop-color="#00BBFF"/>
<stop offset="1" stop-color="#008BFF"/>
</linearGradient>
<linearGradient id="paint5_linear_3514_40263" x1="9.08727" y1="3.72742" x2="10.1006" y2="4.72197" gradientUnits="userSpaceOnUse">
<stop stop-color="#00BBFF"/>
<stop offset="1" stop-color="#008BFF"/>
</linearGradient>
<clipPath id="clip0_3514_40263">
<rect width="9.9997" height="9.9997" fill="white" transform="translate(3.09521 3.39819)"/>
</clipPath>
</defs>
</svg>
