<svg width="16" height="16" viewBox="0 0 16 16" fill="none" xmlns="http://www.w3.org/2000/svg">
<circle cx="7.9964" cy="7.99811" r="7.85696" fill="url(#paint0_linear_3514_40258)" stroke="#D5DADD" stroke-width="0.285708"/>
<path d="M4.26463 10.949C3.95398 10.949 3.70215 11.2008 3.70215 11.5115C3.70215 11.8221 3.95398 12.0739 4.26463 12.0739H5.27977C5.59042 12.0739 5.84225 11.8221 5.84225 11.5115C5.84225 11.2008 5.59042 10.949 5.27977 10.949H4.26463Z" fill="url(#paint1_linear_3514_40258)"/>
<path d="M10.7733 10.949C10.4626 10.949 10.2108 11.2008 10.2108 11.5115C10.2108 11.8221 10.4626 12.0739 10.7733 12.0739H11.7884C12.0991 12.0739 12.3509 11.8221 12.3509 11.5115C12.3509 11.2008 12.0991 10.949 11.7884 10.949H10.7733Z" fill="url(#paint2_linear_3514_40258)"/>
<path fill-rule="evenodd" clip-rule="evenodd" d="M8.46401 5.88096C8.97213 5.67899 9.33134 5.18282 9.33134 4.60274C9.33134 3.84337 8.71575 3.22778 7.95638 3.22778C7.19702 3.22778 6.58143 3.84337 6.58143 4.60274C6.58143 5.18861 6.94786 5.6889 7.46404 5.88692V7.80861C7.00947 7.43095 6.53267 7.36285 6.18713 7.31349C6.11904 7.30377 6.05605 7.29477 5.99933 7.28427C5.7932 7.24613 5.63862 7.19468 5.48984 7.07815C5.38366 6.99499 5.26074 6.86283 5.12839 6.64015C5.47828 6.39089 5.70646 5.98186 5.70646 5.51954C5.70646 4.76017 5.09087 4.14458 4.3315 4.14458C3.57213 4.14458 2.95654 4.76017 2.95654 5.51954C2.95654 6.20731 3.46153 6.77714 4.12095 6.87848C4.34295 7.32553 4.59028 7.64376 4.87324 7.86539C5.20057 8.12177 5.53294 8.21492 5.81738 8.26755C5.91743 8.28606 6.00812 8.30039 6.09136 8.31353C6.48531 8.37574 6.71345 8.41177 6.98814 8.74263C7.21944 9.02123 7.34883 9.44126 7.41234 9.84276C7.42957 9.95166 7.44117 10.054 7.44893 10.1448C6.94072 10.3467 6.58143 10.8429 6.58143 11.4231C6.58143 12.1824 7.19702 12.798 7.95638 12.798C8.71575 12.798 9.33134 12.1824 9.33134 11.4231C9.33134 10.8458 8.97555 10.3516 8.47129 10.1478C8.47905 10.0563 8.49072 9.95285 8.50813 9.84276C8.57164 9.44126 8.70103 9.02123 8.93234 8.74263C9.20703 8.41177 9.43528 8.37573 9.82923 8.31351C9.91245 8.30037 10.0031 8.28606 10.1031 8.26755C10.3875 8.21492 10.7199 8.12177 11.0472 7.86539C11.3305 7.64354 11.578 7.32491 11.8002 6.87717C12.4555 6.77234 12.9563 6.20442 12.9563 5.51954C12.9563 4.76017 12.3407 4.14458 11.5813 4.14458C10.8219 4.14458 10.2063 4.76017 10.2063 5.51954C10.2063 5.98423 10.4369 6.39509 10.7898 6.64397C10.6583 6.86435 10.5362 6.99547 10.4306 7.07815C10.2819 7.19468 10.1273 7.24613 9.92115 7.28427C9.8645 7.29476 9.80144 7.30376 9.73345 7.31348C9.38983 7.36256 8.91629 7.43019 8.46401 7.80235V5.88096ZM8.33137 4.60274C8.33137 4.80984 8.16348 4.97773 7.95638 4.97773C7.74928 4.97773 7.58139 4.80984 7.58139 4.60274C7.58139 4.39564 7.74928 4.22775 7.95638 4.22775C8.16348 4.22775 8.33137 4.39564 8.33137 4.60274ZM11.5813 5.89453C11.7884 5.89453 11.9563 5.72664 11.9563 5.51954C11.9563 5.31244 11.7884 5.14455 11.5813 5.14455C11.3742 5.14455 11.2063 5.31244 11.2063 5.51954C11.2063 5.72664 11.3742 5.89453 11.5813 5.89453ZM4.3315 5.89453C4.5386 5.89453 4.70649 5.72664 4.70649 5.51954C4.70649 5.31244 4.5386 5.14455 4.3315 5.14455C4.1244 5.14455 3.95651 5.31244 3.95651 5.51954C3.95651 5.72664 4.1244 5.89453 4.3315 5.89453ZM7.95639 11.7968C8.16282 11.7968 8.33017 11.6295 8.33017 11.423C8.33017 11.2166 8.16282 11.0493 7.95639 11.0493C7.74996 11.0493 7.58261 11.2166 7.58261 11.423C7.58261 11.6295 7.74996 11.7968 7.95639 11.7968Z" fill="url(#paint3_linear_3514_40258)"/>
<circle cx="7.9565" cy="11.4231" r="0.874973" stroke="url(#paint4_linear_3514_40258)" stroke-width="0.99997"/>
<defs>
<linearGradient id="paint0_linear_3514_40258" x1="1.4475" y1="2.26919" x2="13.6844" y2="14.7461" gradientUnits="userSpaceOnUse">
<stop stop-color="white"/>
<stop offset="1" stop-color="#EAECEE"/>
</linearGradient>
<linearGradient id="paint1_linear_3514_40258" x1="4.98081" y1="11.1145" x2="5.18138" y2="12.6631" gradientUnits="userSpaceOnUse">
<stop stop-color="#1348FF"/>
<stop offset="1" stop-color="#06238D"/>
</linearGradient>
<linearGradient id="paint2_linear_3514_40258" x1="4.98081" y1="11.1145" x2="5.18138" y2="12.6631" gradientUnits="userSpaceOnUse">
<stop stop-color="#1348FF"/>
<stop offset="1" stop-color="#06238D"/>
</linearGradient>
<linearGradient id="paint3_linear_3514_40258" x1="4.45554" y1="4.65895" x2="11.15" y2="11.6563" gradientUnits="userSpaceOnUse">
<stop stop-color="#0195FF"/>
<stop offset="0.991028" stop-color="#1147E9"/>
</linearGradient>
<linearGradient id="paint4_linear_3514_40258" x1="6.99377" y1="10.4593" x2="8.91925" y2="12.3855" gradientUnits="userSpaceOnUse">
<stop stop-color="#0195FF"/>
<stop offset="0.991028" stop-color="#1147E9"/>
</linearGradient>
</defs>
</svg>
