<svg width="16" height="16" viewBox="0 0 16 16" fill="none" xmlns="http://www.w3.org/2000/svg">
<circle cx="7.9964" cy="7.99811" r="7.85696" fill="url(#paint0_linear_3890_21505)" stroke="#D5DADD" stroke-width="0.285708"/>
<path fill-rule="evenodd" clip-rule="evenodd" d="M5.49287 10.0695C5.64253 10.1936 5.81044 10.252 5.97835 10.252V10.2483C6.15357 10.2483 6.32148 10.1826 6.45289 10.0549L7.00409 9.53654C7.38737 9.76286 7.8254 9.88332 8.26709 9.88332C9.27822 9.88332 10.0703 9.47449 10.5558 8.70793C11.0267 7.96327 11.0961 7.06164 11.0961 6.59076C11.0961 6.04686 11.0304 5.13794 10.5704 5.13794C10.4938 5.13794 10.4208 5.16714 10.366 5.2219C9.6834 5.88625 9.33297 5.8826 8.75623 5.87165H8.51896C7.31071 5.87165 5.9601 6.72947 5.9601 7.87931C5.9601 7.99607 5.97275 8.11397 5.99674 8.22851C6.35769 7.99005 6.79103 7.78571 7.26724 7.73023L7.28102 7.72862L7.29488 7.72804C8.35301 7.68352 8.8964 7.3994 9.16781 7.17159C9.30523 7.05625 9.38145 6.94842 9.42176 6.87742C9.44209 6.84163 9.45362 6.81458 9.45924 6.79992C9.46141 6.79426 9.46269 6.79046 9.46325 6.78873C9.51568 6.59249 9.71557 6.47309 9.91399 6.52128C10.1152 6.57015 10.2388 6.77292 10.1899 6.97417L9.82549 6.88568C10.1899 6.97417 10.1898 6.97451 10.1897 6.97485L10.1896 6.97556L10.1892 6.97705L10.1883 6.98035L10.1862 6.98823C10.1846 6.99403 10.1827 7.00094 10.1802 7.00887C10.1753 7.02474 10.1686 7.04473 10.1596 7.06829C10.1415 7.11539 10.1142 7.17679 10.074 7.24772C9.99307 7.39017 9.86099 7.56891 9.64997 7.74603C9.22629 8.10166 8.51643 8.42483 7.34121 8.47671C6.84641 8.53866 6.36696 8.84658 5.9881 9.17852C5.80191 9.34164 5.65053 9.50126 5.54595 9.61991C5.49383 9.67904 5.4538 9.72747 5.42734 9.76039C5.41412 9.77683 5.40432 9.78936 5.39814 9.79737L5.39161 9.8059L5.39054 9.80731C5.37388 9.82966 5.35521 9.84962 5.33496 9.86714C5.37329 9.93752 5.42575 10.0054 5.49287 10.0695Z" fill="url(#paint1_linear_3890_21505)"/>
<path fill-rule="evenodd" clip-rule="evenodd" d="M9.24558 4.19844C7.147 3.50854 4.88649 4.65049 4.19658 6.74907C3.50668 8.84765 4.64864 11.1082 6.74721 11.7981C8.84579 12.488 11.1063 11.346 11.7962 9.24743C11.8824 8.98511 12.165 8.84237 12.4273 8.9286C12.6897 9.01484 12.8324 9.29741 12.7462 9.55973C11.8838 12.183 9.05814 13.6104 6.43492 12.748C3.8117 11.8856 2.38425 9.06 3.24663 6.43678C4.10901 3.81355 6.93465 2.38611 9.55787 3.24849C9.82019 3.33473 9.96294 3.61729 9.8767 3.87961C9.79046 4.14193 9.5079 4.28468 9.24558 4.19844Z" fill="url(#paint2_linear_3890_21505)"/>
<defs>
<linearGradient id="paint0_linear_3890_21505" x1="1.4475" y1="2.26919" x2="13.6844" y2="14.7461" gradientUnits="userSpaceOnUse">
<stop stop-color="white"/>
<stop offset="1" stop-color="#EAECEE"/>
</linearGradient>
<linearGradient id="paint1_linear_3890_21505" x1="6.1867" y1="5.89033" x2="9.73869" y2="9.90896" gradientUnits="userSpaceOnUse">
<stop stop-color="#1348FF"/>
<stop offset="1" stop-color="#06238D"/>
</linearGradient>
<linearGradient id="paint2_linear_3890_21505" x1="5.76511" y1="3.57575" x2="10.2292" y2="12.4163" gradientUnits="userSpaceOnUse">
<stop stop-color="#0195FF"/>
<stop offset="0.991028" stop-color="#1147E9"/>
</linearGradient>
</defs>
</svg>
