<svg width="16" height="16" viewBox="0 0 16 16" fill="none" xmlns="http://www.w3.org/2000/svg">
<circle cx="7.99542" cy="7.99811" r="7.85696" fill="url(#paint0_linear_3890_21508)" stroke="#D5DADD" stroke-width="0.285708"/>
<g clip-path="url(#clip0_3890_21508)">
<path fill-rule="evenodd" clip-rule="evenodd" d="M10.7032 4.30954L4.70065 4.30956C4.42694 4.30956 4.20412 4.52963 4.2007 4.8033L4.19049 5.62178H9.1525C9.42864 5.62178 9.65249 5.84563 9.65249 6.12177C9.65249 6.3979 9.42864 6.62175 9.1525 6.62175H4.17802L4.14601 9.18745C4.14253 9.466 4.36738 9.69367 4.64595 9.69367H5.22466C5.5008 9.69367 5.72465 9.91752 5.72465 10.1937C5.72465 10.4698 5.5008 10.6936 5.22466 10.6936H4.64595C3.81023 10.6936 3.13569 10.0106 3.14612 9.17497L3.20081 4.79083C3.21105 3.96979 3.87954 3.30959 4.70064 3.30959L10.7032 3.30957C11.5316 3.30957 12.2031 3.98112 12.2031 4.80952V6.86226C12.2031 7.1384 11.9793 7.36225 11.7031 7.36225C11.427 7.36225 11.2031 7.1384 11.2031 6.86226V4.80952C11.2031 4.53339 10.9793 4.30954 10.7032 4.30954Z" fill="url(#paint1_linear_3890_21508)"/>
<path fill-rule="evenodd" clip-rule="evenodd" d="M7.55268 9.45009C7.86588 8.6048 8.64663 7.8916 9.71952 7.8916C10.5836 7.8916 11.2511 8.31938 11.6642 8.93553C12.5531 9.19803 13.1985 10.0583 13.1985 11.0682C13.1985 12.4641 12.0666 13.328 10.8976 13.2744H8.30092C7.76228 13.2744 7.23197 13.1037 6.83775 12.6992C6.4489 12.3002 6.30127 11.7851 6.30127 11.3038C6.30127 10.7677 6.4988 10.2206 6.92457 9.82871C7.1099 9.65813 7.32275 9.5316 7.55268 9.45009Z" fill="url(#paint2_linear_3890_21508)"/>
</g>
<defs>
<linearGradient id="paint0_linear_3890_21508" x1="1.44653" y1="2.26919" x2="13.6835" y2="14.7461" gradientUnits="userSpaceOnUse">
<stop stop-color="white"/>
<stop offset="1" stop-color="#EAECEE"/>
</linearGradient>
<linearGradient id="paint1_linear_3890_21508" x1="4.5037" y1="4.41381" x2="9.56765" y2="10.6273" gradientUnits="userSpaceOnUse">
<stop stop-color="#0195FF"/>
<stop offset="0.991028" stop-color="#1147E9"/>
</linearGradient>
<linearGradient id="paint2_linear_3890_21508" x1="7.33349" y1="8.69954" x2="10.9922" y2="13.3822" gradientUnits="userSpaceOnUse">
<stop stop-color="#00BBFF"/>
<stop offset="1" stop-color="#008BFF"/>
</linearGradient>
<clipPath id="clip0_3890_21508">
<rect width="9.9997" height="9.9997" fill="white" transform="translate(3.1958 3.2981)"/>
</clipPath>
</defs>
</svg>
