<svg width="16" height="16" viewBox="0 0 16 16" fill="none" xmlns="http://www.w3.org/2000/svg">
<circle cx="7.99933" cy="7.99762" r="7.85696" fill="url(#paint0_linear_3514_40266)" stroke="#D5DADD" stroke-width="0.285708"/>
<g clip-path="url(#clip0_3514_40266)">
<path d="M4.6949 5.80598C4.85184 4.6778 5.79386 3.59717 7.11971 3.59717C8.17449 3.59717 8.96419 4.1896 9.38961 5.07043C9.95562 5.12397 10.4705 5.41892 10.8278 5.86991C10.6908 6.03291 10.6082 6.24327 10.6082 6.47291V6.53558H10.5456C10.0278 6.53558 9.60812 6.95531 9.60812 7.47307C9.60812 7.62005 9.64194 7.75913 9.70223 7.88295C9.69678 7.88287 9.69132 7.88284 9.68585 7.88284C9.15972 7.88284 8.69847 8.22481 8.53931 8.72206L8.51573 8.79574L8.49019 8.71765C8.32816 8.22234 7.86706 7.88284 7.34196 7.88284C6.66935 7.88284 6.13338 8.4313 6.13338 9.09636V9.63512H4.96257C4.36878 9.63512 3.86448 9.45024 3.50926 9.08526C3.15643 8.72273 2.99927 8.23239 2.99927 7.71364C2.99927 7.15544 3.20364 6.62612 3.59932 6.26145C3.89181 5.99189 4.2684 5.8314 4.6949 5.80598Z" fill="url(#paint1_linear_3514_40266)"/>
<path d="M11.2332 6.65586C11.2975 6.8746 11.3324 7.1091 11.3324 7.35493C11.3324 7.60819 11.2974 7.84428 11.2332 8.06116V7.78556H10.5456C10.373 7.78556 10.2331 7.64566 10.2331 7.47307C10.2331 7.30048 10.373 7.16057 10.5456 7.16057H11.2332V6.65586Z" fill="url(#paint2_linear_3514_40266)"/>
<path d="M11.4296 12.2643C11.2831 12.4133 11.1384 12.6443 11.2849 12.7933C11.4314 12.9423 11.5976 12.9527 11.7441 12.8037L12.8689 11.6597C13.0154 11.5107 13.0154 11.2693 12.8689 11.1203L11.7441 9.97624C11.5976 9.82723 11.4255 9.76519 11.279 9.9142C11.0958 10.0573 11.3508 10.3666 11.4973 10.5157L11.9173 11.017L9.60491 11.0193L9.60476 11.316C9.60462 11.5207 9.76918 11.6865 9.97207 11.6863L11.9586 11.6842L11.4296 12.2643Z" fill="url(#paint3_linear_3514_40266)"/>
<path d="M6.75952 9.04744C6.75952 8.73013 7.01455 8.4729 7.32915 8.4729C7.57498 8.4729 7.79307 8.63196 7.8701 8.86742L8.33729 10.2956C8.36328 10.3742 8.39386 10.4845 8.42902 10.6263C8.46418 10.7682 8.48712 10.8623 8.49782 10.9085C8.51005 10.8623 8.53451 10.7697 8.5712 10.631C8.60942 10.4906 8.64153 10.3827 8.66752 10.3071L9.12816 8.86795C9.20352 8.63248 9.42085 8.4729 9.66617 8.4729C9.97841 8.4729 10.2315 8.7282 10.2315 9.04313V11.0187L9.60491 11.0193L9.60547 9.75663C9.60547 9.59009 9.60929 9.43281 9.61693 9.28477C9.62611 9.13674 9.62234 9.07788 9.63069 9.05116C9.62916 9.0527 9.61388 9.10667 9.58483 9.21307C9.56954 9.26396 9.53743 9.37344 9.48851 9.54152C9.44112 9.7096 9.40366 9.83373 9.37614 9.91392L8.85834 11.4688C8.80599 11.626 8.65994 11.732 8.49553 11.732C8.33111 11.732 8.18506 11.626 8.13271 11.4688L7.61491 9.91392C7.5828 9.81985 7.53694 9.67259 7.47731 9.47213C7.41922 9.27012 7.3787 9.1298 7.35577 9.05116L7.36036 9.11823C7.36189 9.14291 7.36647 9.23003 7.37412 9.37961C7.38176 9.52764 7.38558 9.65331 7.38558 9.75663V11.4162C7.38558 11.5906 7.24543 11.732 7.07255 11.732C6.89967 11.732 6.75952 11.5906 6.75952 11.4162V9.04744Z" fill="url(#paint4_linear_3514_40266)"/>
<path d="M11.8582 6.47314C11.8582 6.30055 11.7183 6.16064 11.5457 6.16064C11.3731 6.16064 11.2332 6.30055 11.2332 6.47314V7.16081H10.5457C10.3731 7.16081 10.2332 7.30072 10.2332 7.4733C10.2332 7.64589 10.3731 7.7858 10.5457 7.7858H11.2332V8.47314C11.2332 8.64573 11.3731 8.78564 11.5457 8.78564C11.7183 8.78564 11.8582 8.64573 11.8582 8.47314V7.7858H12.5456C12.7182 7.7858 12.8581 7.64589 12.8581 7.4733C12.8581 7.30072 12.7182 7.16081 12.5456 7.16081H11.8582V6.47314Z" fill="url(#paint5_linear_3514_40266)"/>
</g>
<defs>
<linearGradient id="paint0_linear_3514_40266" x1="1.45043" y1="2.2687" x2="13.6874" y2="14.7456" gradientUnits="userSpaceOnUse">
<stop stop-color="white"/>
<stop offset="1" stop-color="#EAECEE"/>
</linearGradient>
<linearGradient id="paint1_linear_3514_40266" x1="4.24844" y1="4.50011" x2="8.26544" y2="10.046" gradientUnits="userSpaceOnUse">
<stop stop-color="#0195FF"/>
<stop offset="0.991028" stop-color="#1147E9"/>
</linearGradient>
<linearGradient id="paint2_linear_3514_40266" x1="4.24844" y1="4.50011" x2="8.26544" y2="10.046" gradientUnits="userSpaceOnUse">
<stop stop-color="#0195FF"/>
<stop offset="0.991028" stop-color="#1147E9"/>
</linearGradient>
<linearGradient id="paint3_linear_3514_40266" x1="7.679" y1="9.12575" x2="10.6116" y2="13.2535" gradientUnits="userSpaceOnUse">
<stop stop-color="#1348FF"/>
<stop offset="1" stop-color="#06238D"/>
</linearGradient>
<linearGradient id="paint4_linear_3514_40266" x1="7.679" y1="9.12575" x2="10.6116" y2="13.2535" gradientUnits="userSpaceOnUse">
<stop stop-color="#1348FF"/>
<stop offset="1" stop-color="#06238D"/>
</linearGradient>
<linearGradient id="paint5_linear_3514_40266" x1="10.626" y1="6.55448" x2="12.464" y2="8.39117" gradientUnits="userSpaceOnUse">
<stop stop-color="#00BBFF"/>
<stop offset="1" stop-color="#008BFF"/>
</linearGradient>
<clipPath id="clip0_3514_40266">
<rect width="9.99977" height="10" fill="white" transform="translate(2.99951 3.5979)"/>
</clipPath>
</defs>
</svg>
