<svg width="48" height="48" viewBox="0 0 48 48" fill="none" xmlns="http://www.w3.org/2000/svg">
<g clip-path="url(#clip0_3202_18577)">
<circle cx="24.001" cy="23.7573" r="23.5714" fill="url(#paint0_linear_3202_18577)" stroke="#D5DADD" stroke-width="0.857143"/>
<g clip-path="url(#clip1_3202_18577)">
<path d="M23.8098 11.2031C19.5273 11.2031 16.4847 14.6891 15.9777 18.3284C14.6002 18.4104 13.3838 18.9281 12.4391 19.7977C11.1611 20.9741 10.501 22.6816 10.501 24.4823C10.501 26.1557 11.0086 27.7374 12.1482 28.9069C13.2955 30.0843 14.9244 30.6807 16.8423 30.6807H17.6851C17.6971 30.6623 17.7092 30.644 17.7214 30.6258L17.7335 30.6076L17.7461 30.5898C18.1229 30.0578 18.5681 29.5886 19.0791 29.1863C19.1104 29.1605 19.1419 29.1352 19.1736 29.1101C18.8991 28.4723 18.7631 27.7742 18.7631 27.0326C18.7631 26.3287 18.8978 25.6467 19.1713 25.0002C19.4355 24.3756 19.8047 23.8166 20.2819 23.3395C20.7691 22.8523 21.3343 22.4713 21.9687 22.2029C22.6151 21.9294 23.2971 21.7947 24.001 21.7947C24.7048 21.7947 25.3868 21.9294 26.0333 22.2029C26.6627 22.4692 27.221 22.8488 27.6943 23.3392C28.1848 23.8125 28.5644 24.3708 28.8307 25.0002C29.1042 25.6467 29.2388 26.3287 29.2388 27.0326C29.2388 27.7364 29.1042 28.4184 28.8307 29.0649L28.8264 29.075L28.8214 29.0863C29.369 29.5051 29.8501 30.0101 30.2608 30.5968C30.2824 30.6277 30.3037 30.6587 30.3247 30.6898C34.0565 30.5875 37.4166 27.7801 37.4166 23.3251C37.4166 19.3411 34.5692 16.2795 31.1414 15.9557C29.7673 13.1142 27.2166 11.2031 23.8098 11.2031Z" fill="url(#paint1_linear_3202_18577)"/>
<path d="M26.5866 29.7737C27.558 30.1553 28.3472 30.7798 28.9543 31.6471C29.5614 32.5144 29.865 33.4944 29.865 34.5872V36.0703C29.865 36.2784 29.7869 36.4519 29.6308 36.5906C29.4921 36.7294 29.3273 36.7988 29.1365 36.7988H27.6534C27.4452 36.7988 27.2631 36.7294 27.107 36.5906C26.9682 36.4519 26.8989 36.2784 26.8989 36.0703C26.8989 35.8621 26.9682 35.6886 27.107 35.5499C27.2631 35.3938 27.4452 35.3157 27.6534 35.3157H28.3819V34.5872C28.3819 34.0842 28.2865 33.6071 28.0957 33.1561C27.9049 32.7052 27.6361 32.3149 27.2891 31.9853C26.9596 31.6384 26.5693 31.3695 26.1183 31.1787C25.6846 30.9879 25.2076 30.8925 24.6873 30.8925H23.2302C22.7098 30.8925 22.2242 30.9879 21.7732 31.1787C21.3395 31.3695 20.9492 31.6384 20.6023 31.9853C20.2728 32.3149 20.0126 32.7052 19.8218 33.1561C19.631 33.6071 19.5356 34.0842 19.5356 34.5872V35.3157H20.2641C20.4722 35.3157 20.6457 35.3938 20.7845 35.5499C20.9232 35.6886 20.9926 35.8621 20.9926 36.0703C20.9926 36.2784 20.9232 36.4519 20.7845 36.5906C20.6457 36.7294 20.4722 36.7988 20.2641 36.7988H18.781C18.5902 36.7988 18.4168 36.7294 18.2606 36.5906C18.1219 36.4519 18.0525 36.2784 18.0525 36.0703V34.5872C18.0525 34.0321 18.1305 33.5117 18.2867 33.0261C18.4601 32.523 18.6856 32.0634 18.9631 31.6471C19.258 31.2308 19.6049 30.8665 20.0039 30.5543C20.4028 30.2247 20.8452 29.9645 21.3308 29.7737C20.6197 29.0972 20.2641 28.2386 20.2641 27.1978C20.2641 26.6948 20.3595 26.2178 20.5503 25.7668C20.7411 25.3158 21.0013 24.9255 21.3308 24.596C21.6778 24.249 22.0767 23.9802 22.5277 23.7894C22.9787 23.5986 23.4557 23.5032 23.9587 23.5032C24.4618 23.5032 24.9388 23.5986 25.3898 23.7894C25.8408 23.9802 26.231 24.249 26.5606 24.596C26.9075 24.9255 27.1764 25.3158 27.3672 25.7668C27.558 26.2178 27.6534 26.6948 27.6534 27.1978C27.6534 27.7009 27.558 28.1779 27.3672 28.6289C27.1764 29.0625 26.9162 29.4441 26.5866 29.7737ZM23.9587 24.9862C23.3516 24.9862 22.8313 25.2031 22.3976 25.6367C21.964 26.0704 21.7471 26.5907 21.7471 27.1978C21.7471 27.8049 21.964 28.3253 22.3976 28.759C22.8313 29.1926 23.3516 29.4094 23.9587 29.4094C24.5658 29.4094 25.0862 29.1926 25.5199 28.759C25.9535 28.3253 26.1703 27.8049 26.1703 27.1978C26.1703 26.5907 25.9535 26.0704 25.5199 25.6367C25.0862 25.2031 24.5658 24.9862 23.9587 24.9862Z" fill="url(#paint2_linear_3202_18577)"/>
</g>
</g>
<defs>
<linearGradient id="paint0_linear_3202_18577" x1="4.35384" y1="6.57017" x2="41.0655" y2="44.0016" gradientUnits="userSpaceOnUse">
<stop stop-color="white"/>
<stop offset="1" stop-color="#EAECEE"/>
</linearGradient>
<linearGradient id="paint1_linear_3202_18577" x1="14.5357" y1="14.1172" x2="27.4968" y2="32.0257" gradientUnits="userSpaceOnUse">
<stop stop-color="#0195FF"/>
<stop offset="0.991028" stop-color="#1147E9"/>
</linearGradient>
<linearGradient id="paint2_linear_3202_18577" x1="19.7989" y1="25.4592" x2="29.0437" y2="33.7082" gradientUnits="userSpaceOnUse">
<stop stop-color="#1348FF"/>
<stop offset="1" stop-color="#06238D"/>
</linearGradient>
<clipPath id="clip0_3202_18577">
<rect width="48" height="48" fill="white" transform="translate(0 0.000976562)"/>
</clipPath>
<clipPath id="clip1_3202_18577">
<rect width="27" height="27" fill="white" transform="translate(10.501 10.501)"/>
</clipPath>
</defs>
</svg>
