<svg width="16" height="16" viewBox="0 0 16 16" fill="none" xmlns="http://www.w3.org/2000/svg">
<circle cx="7.99933" cy="7.99786" r="7.85696" fill="url(#paint0_linear_3890_21513)" stroke="#D5DADD" stroke-width="0.285708"/>
<path d="M7.17484 3.4149L10.1936 4.28561H10.1928C10.4065 4.3429 10.5133 4.48493 10.5133 4.71249V6.23044C10.0161 6.37805 9.65255 6.76824 9.55583 7.44553C9.55583 7.44553 9.26971 7.46187 8.63486 7.80116C8 8.14044 7.56371 8.69054 7.56371 8.69054C7.13748 9.17351 7.03312 9.49626 7.18066 10.2031C7.37004 10.6437 7.53248 10.8198 7.90131 11.0341C7.90131 11.0341 7.85131 11.2996 7.90264 11.7377C7.75476 11.8279 7.6244 11.9014 7.51167 11.9586C7.34306 12.0442 7.24739 12.0926 7.22506 12.1039C7.1577 12.1269 7.10149 12.1382 7.05645 12.1382C7.0114 12.1382 6.9552 12.1265 6.88783 12.1039C6.86511 12.0926 6.76984 12.047 6.60122 11.9675C6.43261 11.8876 6.22453 11.7654 5.97738 11.6003C5.73024 11.4353 5.46874 11.2332 5.1933 10.9943C4.91785 10.7554 4.66193 10.4766 4.42595 10.1579C4.18957 9.83954 3.99305 9.48125 3.83559 9.08261C3.67814 8.68437 3.59961 8.24619 3.59961 7.76806V4.71249C3.59961 4.48493 3.70644 4.3425 3.9201 4.28561L6.93885 3.4149C7.00622 3.3923 7.08475 3.3923 7.17484 3.4149Z" fill="url(#paint1_linear_3890_21513)"/>
<path fill-rule="evenodd" clip-rule="evenodd" d="M10.5525 7.51889C10.5899 7.28017 10.8136 7.11691 11.0524 7.15424C11.9089 7.28819 12.7512 7.69537 13.4441 8.39204C13.6145 8.56336 13.6137 8.84037 13.4424 9.01075C13.2711 9.18114 12.9941 9.18037 12.8237 9.00905C12.2631 8.44536 11.5911 8.12412 10.9172 8.01873C10.6785 7.9814 10.5152 7.75761 10.5525 7.51889Z" fill="url(#paint2_linear_3890_21513)"/>
<path d="M10.9362 11.2549C10.9362 11.0133 10.7403 10.8174 10.4987 10.8174C10.2571 10.8174 10.0612 11.0133 10.0612 11.2549C10.0612 11.5985 10.1532 11.9646 10.3366 12.2609C10.3555 12.2914 10.3746 12.3219 10.3976 12.3493C10.5398 12.5195 10.797 12.5581 10.9827 12.4298C11.1805 12.2932 11.2308 12.0229 11.0962 11.8244C10.991 11.6583 10.9362 11.4502 10.9362 11.2549Z" fill="url(#paint3_linear_3890_21513)"/>
<path d="M13.288 10.9847C13.3341 9.8585 12.4668 8.91438 11.4573 8.53529C10.4117 8.1426 9.10375 8.30446 8.19856 9.48215C8.05131 9.67372 8.08724 9.94839 8.27882 10.0956C8.47039 10.2429 8.74506 10.207 8.89231 10.0154C9.52946 9.18643 10.4102 9.07671 11.1497 9.35443C11.9254 9.64573 12.4397 10.314 12.4138 10.949C12.409 11.067 12.3692 11.1269 12.3386 11.1567C12.3043 11.1904 12.2599 11.2074 12.2176 11.2082C12.1761 11.209 12.145 11.1947 12.1242 11.1739C12.1066 11.1561 12.0656 11.1024 12.0656 10.9669C12.0656 10.5926 11.8282 10.1916 11.4837 9.93308C11.1128 9.65471 10.5881 9.51257 9.97139 9.68273L9.96236 9.68522L9.95344 9.6881C9.36291 9.87859 8.98623 10.4306 8.9016 11.0755C8.81613 11.7269 9.01623 12.4931 9.56831 13.2381C9.71217 13.4322 9.98617 13.473 10.1803 13.3291C10.3744 13.1853 10.4152 12.9113 10.2713 12.7171C9.8279 12.1188 9.71852 11.5753 9.76916 11.1894C9.81995 10.8024 10.0201 10.59 10.214 10.5235C10.5605 10.4308 10.8028 10.516 10.9585 10.6329C11.0419 10.6955 11.1039 10.77 11.1434 10.8394C11.1854 10.9114 11.1889 10.948 11.1913 11.0128C11.2009 11.3223 11.3076 11.5937 11.504 11.7911C11.7069 11.995 11.9747 12.0881 12.2345 12.083C12.767 12.0727 13.2606 11.6568 13.288 10.9847Z" fill="url(#paint4_linear_3890_21513)"/>
<defs>
<linearGradient id="paint0_linear_3890_21513" x1="1.45043" y1="2.26894" x2="13.6874" y2="14.7458" gradientUnits="userSpaceOnUse">
<stop stop-color="white"/>
<stop offset="1" stop-color="#EAECEE"/>
</linearGradient>
<linearGradient id="paint1_linear_3890_21513" x1="4.636" y1="4.705" x2="10.5919" y2="9.41789" gradientUnits="userSpaceOnUse">
<stop stop-color="#0195FF"/>
<stop offset="0.991028" stop-color="#1147E9"/>
</linearGradient>
<linearGradient id="paint2_linear_3890_21513" x1="8.91565" y1="8.07082" x2="13.2627" y2="11.8773" gradientUnits="userSpaceOnUse">
<stop stop-color="#1348FF"/>
<stop offset="1" stop-color="#06238D"/>
</linearGradient>
<linearGradient id="paint3_linear_3890_21513" x1="8.91565" y1="8.07082" x2="13.2627" y2="11.8773" gradientUnits="userSpaceOnUse">
<stop stop-color="#1348FF"/>
<stop offset="1" stop-color="#06238D"/>
</linearGradient>
<linearGradient id="paint4_linear_3890_21513" x1="8.91565" y1="8.07082" x2="13.2627" y2="11.8773" gradientUnits="userSpaceOnUse">
<stop stop-color="#1348FF"/>
<stop offset="1" stop-color="#06238D"/>
</linearGradient>
</defs>
</svg>
