<svg width="16" height="16" viewBox="0 0 16 16" fill="none" xmlns="http://www.w3.org/2000/svg">
<circle cx="7.99884" cy="7.99786" r="7.85696" fill="url(#paint0_linear_3890_21514)" stroke="#D5DADD" stroke-width="0.285708"/>
<path fill-rule="evenodd" clip-rule="evenodd" d="M9.95194 7.51889C9.98927 7.28017 10.2131 7.11691 10.4518 7.15424C11.3083 7.28819 12.1507 7.69537 12.8435 8.39204C13.0139 8.56336 13.0131 8.84037 12.8418 9.01075C12.6705 9.18114 12.3935 9.18037 12.2231 9.00905C11.6625 8.44536 10.9905 8.12412 10.3166 8.01873C10.0779 7.9814 9.91461 7.75761 9.95194 7.51889Z" fill="url(#paint1_linear_3890_21514)"/>
<path d="M10.3356 11.2549C10.3356 11.0133 10.1397 10.8174 9.89809 10.8174C9.65647 10.8174 9.46059 11.0133 9.46059 11.2549C9.46059 11.5985 9.55264 11.9646 9.73601 12.2609C9.75494 12.2914 9.77401 12.3219 9.79697 12.3493C9.93922 12.5195 10.1965 12.5581 10.3822 12.4298C10.5799 12.2932 10.6302 12.0229 10.4956 11.8244C10.3904 11.6583 10.3356 11.4502 10.3356 11.2549Z" fill="url(#paint2_linear_3890_21514)"/>
<path d="M12.6875 10.9847C12.7335 9.8585 11.8662 8.91438 10.8568 8.53529C9.81112 8.1426 8.50317 8.30446 7.59797 9.48215C7.45072 9.67372 7.48666 9.94839 7.67823 10.0956C7.8698 10.2429 8.14447 10.207 8.29172 10.0154C8.92887 9.18643 9.80964 9.07671 10.5491 9.35443C11.3248 9.64573 11.8391 10.314 11.8132 10.949C11.8084 11.067 11.7686 11.1269 11.7381 11.1567C11.7037 11.1904 11.6593 11.2074 11.617 11.2082C11.5755 11.209 11.5444 11.1947 11.5237 11.1739C11.506 11.1561 11.465 11.1024 11.465 10.9669C11.465 10.5926 11.2276 10.1916 10.8831 9.93308C10.5123 9.65471 9.9875 9.51257 9.37081 9.68273L9.36178 9.68522L9.35286 9.6881C8.76232 9.87859 8.38565 10.4306 8.30101 11.0755C8.21554 11.7269 8.41565 12.4931 8.96773 13.2381C9.11159 13.4322 9.38558 13.473 9.57971 13.3291C9.77385 13.1853 9.8146 12.9113 9.67074 12.7171C9.22731 12.1188 9.11793 11.5753 9.16858 11.1894C9.21936 10.8024 9.41955 10.59 9.61346 10.5235C9.95988 10.4308 10.2022 10.516 10.3579 10.6329C10.4413 10.6955 10.5033 10.77 10.5428 10.8394C10.5848 10.9114 10.5883 10.948 10.5907 11.0128C10.6003 11.3223 10.7071 11.5937 10.9034 11.7911C11.1063 11.995 11.3741 12.0881 11.6339 12.083C12.1664 12.0727 12.66 11.6568 12.6875 10.9847Z" fill="url(#paint3_linear_3890_21514)"/>
<path d="M8.57331 7.28584C8.37805 7.48111 8.06147 7.48111 7.86621 7.28585C7.67094 7.09059 7.67094 6.774 7.8662 6.57874L8.5298 5.91513H4.57077C4.29462 5.91513 4.07077 5.69127 4.07077 5.41513C4.07077 5.13899 4.29462 4.91513 4.57077 4.91513H8.52981L7.8662 4.2515C7.67094 4.05623 7.67094 3.73965 7.86621 3.54439C8.06147 3.34913 8.37805 3.34914 8.57331 3.5444L10.0905 5.06158C10.2857 5.25684 10.2857 5.57342 10.0905 5.76868L8.57331 7.28584Z" fill="url(#paint4_linear_3890_21514)"/>
<path d="M4.66261 6.77162C4.85787 6.57635 5.17445 6.57635 5.36972 6.77161C5.56498 6.96687 5.56498 7.28346 5.36972 7.47872L4.70612 8.14233H6.41238C6.68852 8.14233 6.91238 8.36619 6.91238 8.64233C6.91238 8.91847 6.68852 9.14233 6.41238 9.14233H4.70611L5.36972 9.80596C5.56498 10.0012 5.56498 10.3178 5.36972 10.5131C5.17445 10.7083 4.85787 10.7083 4.66261 10.5131L3.14547 8.99588C2.95021 8.80062 2.95021 8.48404 3.14547 8.28878L4.66261 6.77162Z" fill="url(#paint5_linear_3890_21514)"/>
<defs>
<linearGradient id="paint0_linear_3890_21514" x1="1.44995" y1="2.26894" x2="13.6869" y2="14.7458" gradientUnits="userSpaceOnUse">
<stop stop-color="white"/>
<stop offset="1" stop-color="#EAECEE"/>
</linearGradient>
<linearGradient id="paint1_linear_3890_21514" x1="8.31506" y1="8.07082" x2="12.6621" y2="11.8773" gradientUnits="userSpaceOnUse">
<stop stop-color="#1348FF"/>
<stop offset="1" stop-color="#06238D"/>
</linearGradient>
<linearGradient id="paint2_linear_3890_21514" x1="8.31506" y1="8.07082" x2="12.6621" y2="11.8773" gradientUnits="userSpaceOnUse">
<stop stop-color="#1348FF"/>
<stop offset="1" stop-color="#06238D"/>
</linearGradient>
<linearGradient id="paint3_linear_3890_21514" x1="8.31506" y1="8.07082" x2="12.6621" y2="11.8773" gradientUnits="userSpaceOnUse">
<stop stop-color="#1348FF"/>
<stop offset="1" stop-color="#06238D"/>
</linearGradient>
<linearGradient id="paint4_linear_3890_21514" x1="4.08401" y1="4.48387" x2="9.1685" y2="9.55354" gradientUnits="userSpaceOnUse">
<stop stop-color="#0195FF"/>
<stop offset="0.991028" stop-color="#1147E9"/>
</linearGradient>
<linearGradient id="paint5_linear_3890_21514" x1="4.08401" y1="4.48387" x2="9.1685" y2="9.55354" gradientUnits="userSpaceOnUse">
<stop stop-color="#0195FF"/>
<stop offset="0.991028" stop-color="#1147E9"/>
</linearGradient>
</defs>
</svg>
