<svg width="16" height="16" viewBox="0 0 16 16" fill="none" xmlns="http://www.w3.org/2000/svg">
<circle cx="7.99786" cy="7.99786" r="7.85696" fill="url(#paint0_linear_3890_21517)" stroke="#D5DADD" stroke-width="0.285708"/>
<g clip-path="url(#clip0_3890_21517)">
<path d="M7.92891 3.39795C6.6859 3.39795 5.80274 4.41106 5.6556 5.46876C5.25576 5.49258 4.90269 5.64304 4.62848 5.89576C4.25752 6.23765 4.06592 6.73389 4.06592 7.25722C4.06592 7.74356 4.21326 8.20326 4.54405 8.54314C4.87707 8.88531 5.34986 9.05865 5.90655 9.05865H7.69897C7.70405 9.04791 7.70911 9.03707 7.71415 9.02611C7.47974 8.78393 7.33533 8.45397 7.33533 8.08971V7.36248C7.33533 6.61853 7.93842 6.01544 8.68237 6.01544H9.40716C10.1511 6.01544 10.7542 6.61853 10.7542 7.36248V8.08971C10.7542 8.41955 10.6357 8.72122 10.4394 8.95502C11.2488 8.69241 11.8784 7.96124 11.8784 6.92092C11.8784 5.76307 11.0519 4.87327 10.057 4.77916C9.65814 3.95337 8.91779 3.39795 7.92891 3.39795Z" fill="url(#paint1_linear_3890_21517)"/>
<path fill-rule="evenodd" clip-rule="evenodd" d="M9.40711 6.64038C9.80588 6.64038 10.1291 6.96365 10.1291 7.36242V8.08965C10.1291 8.38901 9.94696 8.64582 9.68742 8.75525C9.84273 9.24637 10.0422 9.61074 10.2292 9.88031C10.3866 10.1072 10.5292 10.2613 10.6443 10.3805C10.7386 10.3353 10.8444 10.3099 10.956 10.3099H11.407C11.8058 10.3099 12.1291 10.6332 12.1291 11.032V11.485C12.1291 11.8838 11.8058 12.207 11.407 12.207H10.956C10.5572 12.207 10.234 11.8838 10.234 11.485V11.032C10.234 10.928 10.2559 10.8292 10.2955 10.7399C10.1731 10.613 9.99535 10.4204 9.8184 10.1653C9.63783 9.905 9.45137 9.5731 9.29472 9.15092L9.29476 10.946C9.69192 10.9479 10.0133 11.2704 10.0133 11.668V12.1211C10.0133 12.5198 9.69003 12.8431 9.29126 12.8431H8.84022C8.44145 12.8431 8.11818 12.5198 8.11818 12.1211V11.668C8.11818 11.2845 8.41717 10.9709 8.79476 10.9474L8.79473 9.3637C8.65771 9.68671 8.50462 9.9504 8.35555 10.1653C8.1637 10.4419 7.97091 10.6449 7.84878 10.7705C7.88028 10.8516 7.89756 10.9398 7.89756 11.032V11.485C7.89756 11.8838 7.57429 12.207 7.17552 12.207H6.72448C6.32571 12.207 6.00244 11.8838 6.00244 11.485L6.00244 11.032C6.00244 10.6332 6.32571 10.3099 6.72448 10.3099H7.17552C7.29852 10.3099 7.41435 10.3407 7.51571 10.3949C7.63308 10.2738 7.78091 10.1165 7.94472 9.88031C8.12827 9.61572 8.32386 9.25979 8.47788 8.78233C8.17868 8.69416 7.96028 8.41741 7.96028 8.08965V7.36242C7.96028 6.96365 8.28355 6.64038 8.68232 6.64038H9.40711ZM9.50415 7.36242C9.50415 7.30883 9.4607 7.26538 9.40711 7.26538H8.68232C8.62873 7.26538 8.58528 7.30883 8.58528 7.36242V8.08965C8.58528 8.14324 8.62873 8.18668 8.68232 8.18668H9.40711C9.4607 8.18668 9.50415 8.14324 9.50415 8.08965V7.36242ZM9.3883 11.668C9.3883 11.6144 9.34485 11.571 9.29126 11.571H8.84022C8.78663 11.571 8.74318 11.6144 8.74318 11.668V12.1211C8.74318 12.1747 8.78663 12.2181 8.84022 12.2181H9.29126C9.34485 12.2181 9.3883 12.1747 9.3883 12.1211V11.668ZM11.407 10.9349C11.4606 10.9349 11.5041 10.9784 11.5041 11.032V11.485C11.5041 11.5386 11.4606 11.582 11.407 11.582H10.956C10.9024 11.582 10.859 11.5386 10.859 11.485V11.032C10.859 10.9784 10.9024 10.9349 10.956 10.9349H11.407ZM7.27256 11.032C7.27256 10.9784 7.22911 10.9349 7.17552 10.9349H6.72448C6.67089 10.9349 6.62744 10.9784 6.62744 11.032L6.62744 11.485C6.62744 11.5386 6.67089 11.582 6.72448 11.582H7.17552C7.22911 11.582 7.27256 11.5386 7.27256 11.485V11.032Z" fill="url(#paint2_linear_3890_21517)"/>
</g>
<defs>
<linearGradient id="paint0_linear_3890_21517" x1="1.44897" y1="2.26894" x2="13.6859" y2="14.7458" gradientUnits="userSpaceOnUse">
<stop stop-color="white"/>
<stop offset="1" stop-color="#EAECEE"/>
</linearGradient>
<linearGradient id="paint1_linear_3890_21517" x1="5.23704" y1="4.24447" x2="9.00306" y2="9.44387" gradientUnits="userSpaceOnUse">
<stop stop-color="#0195FF"/>
<stop offset="0.991028" stop-color="#1147E9"/>
</linearGradient>
<linearGradient id="paint2_linear_3890_21517" x1="6.90822" y1="7.55294" x2="11.2491" y2="11.859" gradientUnits="userSpaceOnUse">
<stop stop-color="#1348FF"/>
<stop offset="1" stop-color="#06238D"/>
</linearGradient>
<clipPath id="clip0_3890_21517">
<rect width="9.9998" height="9.99992" fill="white" transform="translate(3.09766 3.39795)"/>
</clipPath>
</defs>
</svg>
