<svg width="16" height="16" viewBox="0 0 16 16" fill="none" xmlns="http://www.w3.org/2000/svg">
<circle cx="7.99835" cy="7.99762" r="7.85696" fill="url(#paint0_linear_3514_40269)" stroke="#D5DADD" stroke-width="0.285708"/>
<g clip-path="url(#clip0_3514_40269)">
<path d="M7.92989 3.39771C6.68688 3.39771 5.80372 4.41081 5.65658 5.46851C5.25673 5.49234 4.90367 5.6428 4.62946 5.89552C4.25849 6.2374 4.06689 6.73365 4.06689 7.25697C4.06689 7.74332 4.21424 8.20302 4.54502 8.5429C4.87804 8.88507 5.35083 9.0584 5.90753 9.0584H7.69995C7.70502 9.04767 7.71008 9.03682 7.71513 9.02587C7.48072 8.78369 7.33631 8.45373 7.33631 8.08946V7.36223C7.33631 6.61829 7.9394 6.0152 8.68334 6.0152H9.40813C10.1521 6.0152 10.7552 6.61829 10.7552 7.36224V8.08946C10.7552 8.41931 10.6367 8.72098 10.4404 8.95477C11.2497 8.69216 11.8794 7.961 11.8794 6.92068C11.8794 5.76282 11.0529 4.87303 10.058 4.77892C9.65912 3.95313 8.91877 3.39771 7.92989 3.39771Z" fill="url(#paint1_linear_3514_40269)"/>
<path fill-rule="evenodd" clip-rule="evenodd" d="M9.40833 6.64014C9.8071 6.64014 10.1304 6.9634 10.1304 7.36217V8.0894C10.1304 8.38876 9.94818 8.64558 9.68864 8.75501C9.84395 9.24612 10.0434 9.6105 10.2305 9.88007C10.3878 10.1069 10.5305 10.2611 10.6455 10.3803C10.7399 10.335 10.8456 10.3097 10.9572 10.3097H11.4083C11.807 10.3097 12.1303 10.6329 12.1303 11.0317V11.4848C12.1303 11.8835 11.807 12.2068 11.4083 12.2068H10.9572C10.5584 12.2068 10.2352 11.8835 10.2352 11.4848V11.0317C10.2352 10.9278 10.2571 10.8289 10.2967 10.7396C10.1743 10.6127 9.99657 10.4201 9.81962 10.1651C9.63905 9.90476 9.45259 9.57285 9.29594 9.15067L9.29598 10.9458C9.69314 10.9476 10.0145 11.2702 10.0145 11.6678V12.1208C10.0145 12.5196 9.69125 12.8429 9.29248 12.8429H8.84144C8.44267 12.8429 8.1194 12.5196 8.1194 12.1208V11.6678C8.1194 11.2843 8.41839 10.9706 8.79598 10.9472L8.79595 9.36345C8.65893 9.68646 8.50584 9.95016 8.35677 10.1651C8.16492 10.4416 7.97213 10.6447 7.85 10.7703C7.8815 10.8514 7.89878 10.9395 7.89878 11.0317V11.4848C7.89878 11.8835 7.57551 12.2068 7.17674 12.2068H6.7257C6.32693 12.2068 6.00366 11.8835 6.00366 11.4848L6.00366 11.0317C6.00366 10.6329 6.32693 10.3097 6.7257 10.3097H7.17674C7.29974 10.3097 7.41557 10.3404 7.51693 10.3947C7.6343 10.2736 7.78213 10.1162 7.94594 9.88007C8.12949 9.61547 8.32508 9.25955 8.4791 8.78209C8.1799 8.69392 7.96151 8.41717 7.96151 8.0894V7.36217C7.96151 6.9634 8.28477 6.64014 8.68354 6.64014H9.40833ZM9.50537 7.36217C9.50537 7.30858 9.46192 7.26514 9.40833 7.26514L8.68354 7.26514C8.62995 7.26514 8.5865 7.30858 8.5865 7.36217V8.0894C8.5865 8.14299 8.62995 8.18644 8.68354 8.18644H9.40833C9.46193 8.18644 9.50537 8.14299 9.50537 8.0894V7.36217ZM9.38952 11.6678C9.38952 11.6142 9.34607 11.5707 9.29248 11.5707H8.84144C8.78785 11.5707 8.7444 11.6142 8.7444 11.6678V12.1208C8.7444 12.1744 8.78785 12.2179 8.84144 12.2179H9.29248C9.34607 12.2179 9.38952 12.1744 9.38952 12.1208V11.6678ZM11.4083 10.9347C11.4619 10.9347 11.5053 10.9781 11.5053 11.0317V11.4848C11.5053 11.5384 11.4619 11.5818 11.4083 11.5818H10.9572C10.9036 11.5818 10.8602 11.5384 10.8602 11.4848V11.0317C10.8602 10.9781 10.9036 10.9347 10.9572 10.9347H11.4083ZM7.27378 11.0317C7.27378 10.9781 7.23033 10.9347 7.17674 10.9347H6.7257C6.67211 10.9347 6.62866 10.9781 6.62866 11.0317L6.62866 11.4848C6.62866 11.5384 6.67211 11.5818 6.7257 11.5818H7.17674C7.23033 11.5818 7.27378 11.5384 7.27378 11.4848V11.0317Z" fill="url(#paint2_linear_3514_40269)"/>
</g>
<defs>
<linearGradient id="paint0_linear_3514_40269" x1="1.44946" y1="2.2687" x2="13.6864" y2="14.7456" gradientUnits="userSpaceOnUse">
<stop stop-color="white"/>
<stop offset="1" stop-color="#EAECEE"/>
</linearGradient>
<linearGradient id="paint1_linear_3514_40269" x1="5.23802" y1="4.24423" x2="9.00403" y2="9.44363" gradientUnits="userSpaceOnUse">
<stop stop-color="#0195FF"/>
<stop offset="0.991028" stop-color="#1147E9"/>
</linearGradient>
<linearGradient id="paint2_linear_3514_40269" x1="6.90944" y1="7.55269" x2="11.2503" y2="11.8588" gradientUnits="userSpaceOnUse">
<stop stop-color="#1348FF"/>
<stop offset="1" stop-color="#06238D"/>
</linearGradient>
<clipPath id="clip0_3514_40269">
<rect width="9.9998" height="9.99992" fill="white" transform="translate(3.09863 3.39771)"/>
</clipPath>
</defs>
</svg>
