<svg width="16" height="16" viewBox="0 0 16 16" fill="none" xmlns="http://www.w3.org/2000/svg">
<circle cx="7.99884" cy="7.99762" r="7.85696" fill="url(#paint0_linear_3514_40268)" stroke="#D5DADD" stroke-width="0.285708"/>
<g clip-path="url(#clip0_3514_40268)">
<path d="M7.94958 2.89771C6.42715 2.89771 5.27795 3.96001 4.91349 5.20608C4.5107 5.29296 4.14213 5.47445 3.83277 5.74577C3.27747 6.23279 2.99902 6.93413 2.99902 7.65301C2.99902 8.30654 3.2097 8.96434 3.71462 9.45803C4.11 9.84463 4.61593 10.0625 5.16973 10.1386V10.0242C5.16973 9.72035 5.28064 9.44238 5.4642 9.22859C4.96386 9.07561 4.59996 8.61019 4.59996 8.05977V7.72077C4.59996 7.04585 5.14709 6.49873 5.822 6.49873H6.15917C6.17107 6.49873 6.18293 6.4989 6.19475 6.49924C6.17597 6.41411 6.16608 6.32564 6.16608 6.23486V5.89587C6.16608 5.22095 6.7132 4.67383 7.38811 4.67383H7.72529C8.4002 4.67383 8.94733 5.22095 8.94733 5.89587V6.17877C9.17148 5.91521 9.50553 5.74801 9.87863 5.74801H10.2158C10.8907 5.74801 11.4378 6.29513 11.4378 6.97004V7.30904C11.4378 7.66348 11.2869 7.98268 11.0459 8.20589C11.2312 8.42013 11.3433 8.69945 11.3433 9.00495V9.458C11.3433 9.62556 11.3096 9.78524 11.2486 9.93063C12.2341 9.51869 12.999 8.59809 12.999 7.2872C12.999 5.82473 11.9786 4.69457 10.7131 4.44349C10.1438 3.5143 9.1823 2.89771 7.94958 2.89771Z" fill="url(#paint1_linear_3514_40268)"/>
<path fill-rule="evenodd" clip-rule="evenodd" d="M7.72531 5.17188C8.12408 5.17188 8.44734 5.49514 8.44734 5.89391V6.23291C8.44734 6.45621 8.34598 6.65584 8.18675 6.78828L8.35384 7.45093H8.37794C8.4477 7.45093 8.51339 7.46837 8.57088 7.49913L9.15663 7.20195V6.96813C9.15663 6.56936 9.4799 6.24609 9.87867 6.24609H10.2158C10.6146 6.24609 10.9379 6.56936 10.9379 6.96813V7.30713C10.9379 7.7059 10.6146 8.02917 10.2158 8.02917H9.87867C9.67183 8.02917 9.4853 7.94219 9.35366 7.80282L8.78748 8.09008V8.16166L8.78937 8.15878L9.21843 8.4399C9.34215 8.34049 9.49931 8.28101 9.67036 8.28101H10.1214C10.5202 8.28101 10.8434 8.60427 10.8434 9.00304V9.45609C10.8434 9.85486 10.5202 10.1781 10.1214 10.1781H9.67036C9.27159 10.1781 8.94833 9.85486 8.94833 9.45609V9.01013L8.56153 8.7567C8.50631 8.78444 8.44395 8.80006 8.37794 8.80006H8.04435L7.37486 9.69904C7.42365 9.7963 7.45111 9.90611 7.45111 10.0223V10.3613C7.45111 10.7601 7.12784 11.0834 6.72907 11.0834H6.3919C5.99313 11.0834 5.66986 10.7601 5.66986 10.3613L5.66986 10.0223C5.66986 9.62356 5.99313 9.30029 6.3919 9.30029H6.72907C6.78107 9.30029 6.83179 9.30579 6.88067 9.31623L7.46386 8.53313C7.44736 8.48872 7.43835 8.44067 7.43835 8.39052V8.28466L6.84501 8.28466C6.74991 8.57233 6.47885 8.7799 6.15931 8.7799H5.82214C5.42337 8.7799 5.1001 8.45663 5.1001 8.05786L5.1001 7.71886C5.1001 7.32009 5.42337 6.99683 5.82214 6.99683H6.15931C6.53815 6.99683 6.84884 7.28858 6.87896 7.65966L7.49087 7.65966C7.53976 7.57293 7.61933 7.50581 7.71485 7.47302L7.58421 6.95495H7.38813C6.98936 6.95495 6.66609 6.63168 6.66609 6.23291V5.89391C6.66609 5.49514 6.98936 5.17188 7.38813 5.17188H7.72531ZM7.82234 5.89391C7.82234 5.84032 7.7789 5.79688 7.72531 5.79688L7.38813 5.79687C7.33454 5.79687 7.29109 5.84032 7.29109 5.89391V6.23291C7.29109 6.2865 7.33454 6.32995 7.38813 6.32995H7.72531C7.7789 6.32995 7.82234 6.2865 7.82234 6.23291V5.89391ZM10.3129 6.96813C10.3129 6.91454 10.2694 6.87109 10.2158 6.87109H9.87867C9.82508 6.87109 9.78163 6.91454 9.78163 6.96813V7.30713C9.78163 7.36072 9.82508 7.40417 9.87867 7.40417H10.2158C10.2694 7.40417 10.3129 7.36072 10.3129 7.30713V6.96813ZM10.2184 9.00304C10.2184 8.94945 10.175 8.90601 10.1214 8.90601H9.67036C9.61677 8.90601 9.57333 8.94945 9.57333 9.00304V9.45609C9.57333 9.50968 9.61677 9.55313 9.67036 9.55313H10.1214C10.175 9.55313 10.2184 9.50968 10.2184 9.45609V9.00304ZM6.15931 7.62183C6.2129 7.62183 6.25635 7.66527 6.25635 7.71886V8.05786C6.25635 8.11146 6.2129 8.1549 6.15931 8.1549H5.82214C5.76854 8.1549 5.7251 8.11146 5.7251 8.05786V7.71886C5.7251 7.66527 5.76854 7.62183 5.82214 7.62183H6.15931ZM6.82611 10.0223C6.82611 9.96874 6.78267 9.92529 6.72907 9.92529H6.3919C6.33831 9.92529 6.29486 9.96874 6.29486 10.0223V10.3613C6.29486 10.4149 6.33831 10.4584 6.3919 10.4584H6.72907C6.78267 10.4584 6.82611 10.4149 6.82611 10.3613V10.0223Z" fill="url(#paint2_radial_3514_40268)"/>
<path fill-rule="evenodd" clip-rule="evenodd" d="M4.25879 10.5227C4.50041 10.5227 4.69629 10.7186 4.69629 10.9602V11.4602C4.69629 11.7709 4.94813 12.0227 5.25879 12.0227H10.7588C11.0694 12.0227 11.3213 11.7709 11.3213 11.4602V10.9602C11.3213 10.7186 11.5172 10.5227 11.7588 10.5227C12.0004 10.5227 12.1963 10.7186 12.1963 10.9602V11.4602C12.1963 12.2541 11.5527 12.8977 10.7588 12.8977H5.25879C4.46488 12.8977 3.82129 12.2541 3.82129 11.4602V10.9602C3.82129 10.7186 4.01716 10.5227 4.25879 10.5227ZM10.5234 11.6379C10.7305 11.6379 10.8984 11.47 10.8984 11.2629C10.8984 11.0558 10.7305 10.8879 10.5234 10.8879C10.3163 10.8879 10.1484 11.0558 10.1484 11.2629C10.1484 11.47 10.3163 11.6379 10.5234 11.6379ZM9.74974 11.2629C9.74974 11.47 9.58185 11.6379 9.37474 11.6379C9.16763 11.6379 8.99974 11.47 8.99974 11.2629C8.99974 11.0558 9.16763 10.8879 9.37474 10.8879C9.58185 10.8879 9.74974 11.0558 9.74974 11.2629Z" fill="url(#paint3_radial_3514_40268)"/>
</g>
<defs>
<linearGradient id="paint0_linear_3514_40268" x1="1.44995" y1="2.2687" x2="13.6869" y2="14.7456" gradientUnits="userSpaceOnUse">
<stop stop-color="white"/>
<stop offset="1" stop-color="#EAECEE"/>
</linearGradient>
<linearGradient id="paint1_linear_3514_40268" x1="4.49807" y1="3.98054" x2="9.31441" y2="10.6344" gradientUnits="userSpaceOnUse">
<stop stop-color="#0195FF"/>
<stop offset="0.991028" stop-color="#1147E9"/>
</linearGradient>
<radialGradient id="paint2_radial_3514_40268" cx="0" cy="0" r="1" gradientUnits="userSpaceOnUse" gradientTransform="translate(6.00407 6.06117) rotate(45.3594) scale(5.78724 5.27328)">
<stop stop-color="#1348FF"/>
<stop offset="1" stop-color="#06238D"/>
</radialGradient>
<radialGradient id="paint3_radial_3514_40268" cx="0" cy="0" r="1" gradientUnits="userSpaceOnUse" gradientTransform="translate(5.11814 10.88) rotate(15.8324) scale(6.06384 2.90073)">
<stop stop-color="#1348FF"/>
<stop offset="1" stop-color="#06238D"/>
</radialGradient>
<clipPath id="clip0_3514_40268">
<rect width="10" height="10" fill="white" transform="translate(2.99902 2.89771)"/>
</clipPath>
</defs>
</svg>
