<svg width="16" height="16" viewBox="0 0 16 16" fill="none" xmlns="http://www.w3.org/2000/svg">
<circle cx="7.99908" cy="7.99762" r="7.85696" fill="url(#paint0_linear_3514_40267)" stroke="#D5DADD" stroke-width="0.285708"/>
<g clip-path="url(#clip0_3514_40267)">
<path d="M7.31964 3.39746C5.99379 3.39746 5.05178 4.47808 4.89484 5.60626C4.46835 5.63168 4.09176 5.79216 3.79927 6.06172C3.40359 6.42639 3.19922 6.95571 3.19922 7.5139C3.19922 8.03266 3.35638 8.52299 3.70921 8.88552C4.06442 9.25049 4.56872 9.43538 5.16251 9.43538H6.44395C6.46642 9.40698 6.49076 9.37959 6.51699 9.35337L7.55252 8.31779C7.7111 8.15921 7.91236 8.06931 8.11933 8.04811C8.16042 7.89416 8.24136 7.74864 8.36213 7.62787C8.57019 7.4198 8.85173 7.32998 9.12323 7.35841C9.13169 6.84795 9.54812 6.43676 10.0606 6.43676C10.5731 6.43676 10.9895 6.84796 10.9979 7.35841C11.1739 7.33998 11.3541 7.37122 11.5157 7.45213C11.5267 7.35602 11.5323 7.257 11.5323 7.1552C11.5323 5.92018 10.6508 4.9711 9.58952 4.87072C9.1641 3.98989 8.37441 3.39746 7.31964 3.39746Z" fill="url(#paint1_linear_3514_40267)"/>
<path d="M11.2621 8.51151C11.3841 8.38947 11.3841 8.19161 11.2621 8.06957C11.1401 7.94753 10.9422 7.94753 10.8201 8.06957L10.318 8.57167V7.37402C10.318 7.20143 10.1781 7.06152 10.0055 7.06152C9.83295 7.06152 9.69304 7.20143 9.69304 7.37402L9.69304 8.57167L9.19092 8.06957C9.06888 7.94753 8.87102 7.94753 8.74898 8.06957C8.62694 8.19161 8.62695 8.38948 8.74899 8.51151L9.78457 9.54707C9.90661 9.6691 10.1045 9.6691 10.2265 9.54707L11.2621 8.51151Z" fill="url(#paint2_linear_3514_40267)"/>
<path d="M8.74907 11.483C8.62703 11.605 8.62703 11.8029 8.74906 11.9249C8.8711 12.047 9.06896 12.047 9.191 11.9249L9.69311 11.4228L9.69311 12.6205C9.69311 12.7931 9.83302 12.933 10.0056 12.933C10.1782 12.933 10.3181 12.7931 10.3181 12.6205V11.4228L10.8202 11.9249C10.9423 12.047 11.1401 12.047 11.2622 11.9249C11.3842 11.8029 11.3842 11.605 11.2622 11.483L10.2266 10.4474C10.1045 10.3254 9.90668 10.3254 9.78464 10.4474L8.74907 11.483Z" fill="url(#paint3_linear_3514_40267)"/>
<path d="M8.43621 11.2724C8.31417 11.3944 8.1163 11.3944 7.99427 11.2724L6.95871 10.2368C6.83668 10.1148 6.83668 9.91692 6.95871 9.79488L7.99427 8.7593C8.1163 8.63726 8.31417 8.63725 8.43621 8.75929C8.55825 8.88133 8.55825 9.07919 8.43621 9.20123L7.93411 9.70335H9.13176C9.30435 9.70335 9.44426 9.84326 9.44426 10.0158C9.44426 10.1884 9.30435 10.3283 9.13176 10.3283L7.93411 10.3283L8.43621 10.8305C8.55825 10.9525 8.55825 11.1504 8.43621 11.2724Z" fill="url(#paint4_linear_3514_40267)"/>
<path d="M12.0717 8.75934C11.9497 8.6373 11.7518 8.63729 11.6298 8.75933C11.5077 8.88137 11.5077 9.07923 11.6298 9.20127L12.1319 9.70338H10.9342C10.7617 9.70338 10.6217 9.84329 10.6217 10.0159C10.6217 10.1885 10.7617 10.3284 10.9342 10.3284L12.1319 10.3284L11.6298 10.8305C11.5077 10.9525 11.5077 11.1504 11.6298 11.2724C11.7518 11.3945 11.9497 11.3945 12.0717 11.2724L13.1073 10.2368C13.2293 10.1148 13.2293 9.91695 13.1073 9.79491L12.0717 8.75934Z" fill="url(#paint5_linear_3514_40267)"/>
</g>
<defs>
<linearGradient id="paint0_linear_3514_40267" x1="1.45019" y1="2.2687" x2="13.6871" y2="14.7456" gradientUnits="userSpaceOnUse">
<stop stop-color="white"/>
<stop offset="1" stop-color="#EAECEE"/>
</linearGradient>
<linearGradient id="paint1_linear_3514_40267" x1="4.44839" y1="4.30039" x2="8.46536" y2="9.84627" gradientUnits="userSpaceOnUse">
<stop stop-color="#0195FF"/>
<stop offset="0.991028" stop-color="#1147E9"/>
</linearGradient>
<linearGradient id="paint2_linear_3514_40267" x1="7.80328" y1="7.92534" x2="11.8994" y2="12.3615" gradientUnits="userSpaceOnUse">
<stop stop-color="#1348FF"/>
<stop offset="1" stop-color="#06238D"/>
</linearGradient>
<linearGradient id="paint3_linear_3514_40267" x1="7.80328" y1="7.92534" x2="11.8994" y2="12.3615" gradientUnits="userSpaceOnUse">
<stop stop-color="#1348FF"/>
<stop offset="1" stop-color="#06238D"/>
</linearGradient>
<linearGradient id="paint4_linear_3514_40267" x1="7.80328" y1="7.92534" x2="11.8994" y2="12.3615" gradientUnits="userSpaceOnUse">
<stop stop-color="#1348FF"/>
<stop offset="1" stop-color="#06238D"/>
</linearGradient>
<linearGradient id="paint5_linear_3514_40267" x1="7.80328" y1="7.92534" x2="11.8994" y2="12.3615" gradientUnits="userSpaceOnUse">
<stop stop-color="#1348FF"/>
<stop offset="1" stop-color="#06238D"/>
</linearGradient>
<clipPath id="clip0_3514_40267">
<rect width="9.99977" height="9.99993" fill="white" transform="translate(3.19922 3.39771)"/>
</clipPath>
</defs>
</svg>
