<svg width="16" height="16" viewBox="0 0 16 16" fill="none" xmlns="http://www.w3.org/2000/svg">
<circle cx="7.99982" cy="8.00031" r="7.85696" fill="url(#paint0_linear_3658_27665)" stroke="#D5DADD" stroke-width="0.285708"/>
<g clip-path="url(#clip0_3658_27665)">
<path fill-rule="evenodd" clip-rule="evenodd" d="M7.96018 3.2605C6.3741 3.2605 5.24719 4.55159 5.05944 5.8995C4.54924 5.92987 4.09873 6.12161 3.74884 6.44367C3.27549 6.87937 3.03101 7.51178 3.03101 8.17869C3.03101 8.79848 3.21901 9.38432 3.6411 9.81745C3.95759 10.1422 4.373 10.3476 4.8579 10.4313C4.90258 10.3406 4.95291 10.2529 5.00909 10.1687L5.01494 10.1599L5.02005 10.1527C5.11345 10.0208 5.22007 9.90083 5.33937 9.79343C5.28981 9.62887 5.26568 9.45583 5.26568 9.27766C5.26568 9.04484 5.31035 8.8176 5.40157 8.60201C5.48867 8.39612 5.61137 8.20976 5.77101 8.05011C5.93236 7.88876 6.12012 7.76216 6.33034 7.67322C6.54593 7.58201 6.77318 7.53733 7.006 7.53733C7.10196 7.53733 7.19697 7.54492 7.29061 7.56023C7.40959 7.47559 7.5376 7.40418 7.67398 7.34648C7.92018 7.24232 8.17988 7.19108 8.44752 7.19108C8.71515 7.19108 8.97485 7.24232 9.22105 7.34648C9.46036 7.44773 9.67294 7.59216 9.85321 7.77878C10.0398 7.95905 10.1843 8.17163 10.2855 8.41094C10.3897 8.65715 10.4409 8.91684 10.4409 9.18448C10.4409 9.44128 10.3937 9.69076 10.2979 9.92803C10.4801 10.0722 10.6422 10.2422 10.7832 10.4366C11.9921 10.2255 12.9997 9.23488 12.9997 7.75012C12.9997 6.27457 11.9452 5.14063 10.6756 5.0207C10.1667 3.96832 9.22199 3.2605 7.96018 3.2605Z" fill="url(#paint1_linear_3658_27665)"/>
<path fill-rule="evenodd" clip-rule="evenodd" d="M9.42081 10.1385C9.78057 10.2799 10.0729 10.5111 10.2977 10.8323C10.5226 11.1536 10.635 11.5166 10.635 11.9213V12.4706C10.635 12.5477 10.6061 12.6119 10.5483 12.6633C10.4969 12.7147 10.4359 12.7404 10.3652 12.7404H9.8159C9.73881 12.7404 9.67136 12.7147 9.61354 12.6633C9.56214 12.6119 9.53644 12.5477 9.53644 12.4706C9.53644 12.3935 9.56214 12.3292 9.61354 12.2778C9.67136 12.22 9.73881 12.1911 9.8159 12.1911H10.0857V11.9213C10.0857 11.735 10.0504 11.5583 9.97972 11.3913C9.90906 11.2242 9.80948 11.0797 9.68099 10.9576C9.55893 10.8291 9.41438 10.7296 9.24735 10.6589C9.08674 10.5882 8.91007 10.5529 8.71734 10.5529H8.17769C7.98496 10.5529 7.80508 10.5882 7.63805 10.6589C7.47744 10.7296 7.33289 10.8291 7.20441 10.9576C7.08234 11.0797 6.98598 11.2242 6.91531 11.3913C6.84464 11.5583 6.80931 11.735 6.80931 11.9213V12.1911H7.07913C7.15622 12.1911 7.22047 12.22 7.27186 12.2778C7.32326 12.3292 7.34895 12.3935 7.34895 12.4706C7.34895 12.5477 7.32326 12.6119 7.27186 12.6633C7.22047 12.7147 7.15622 12.7404 7.07913 12.7404H6.52985C6.45918 12.7404 6.39494 12.7147 6.33712 12.6633C6.28572 12.6119 6.26003 12.5477 6.26003 12.4706L6.26002 12.0802H5.52697C5.45635 12.0802 5.39295 12.0539 5.33851 12.0056L5.33587 12.0032C5.28426 11.9516 5.25893 11.8864 5.25893 11.8121V11.3885C5.25893 11.2242 5.28204 11.0693 5.3287 10.9242L5.32908 10.923C5.3802 10.7748 5.44684 10.6388 5.52913 10.5154L5.53007 10.514C5.61748 10.3905 5.72042 10.2824 5.83873 10.1897C5.93465 10.1106 6.039 10.0449 6.15166 9.99266C5.97749 9.79802 5.89068 9.55854 5.89068 9.27767C5.89068 9.12618 5.91946 8.98195 5.97717 8.84553C6.03453 8.70996 6.11308 8.59193 6.21296 8.49205C6.3175 8.38751 6.43792 8.30635 6.57387 8.24883C6.71029 8.19111 6.85451 8.16234 7.006 8.16234C7.15749 8.16234 7.30171 8.19111 7.43813 8.24883L7.44449 8.25154C7.45423 8.24115 7.46414 8.23091 7.47423 8.22082C7.60271 8.09234 7.75047 7.99276 7.91751 7.92209C8.08454 7.85142 8.26121 7.81609 8.44752 7.81609C8.63382 7.81609 8.81049 7.85142 8.97753 7.92209C9.14456 7.99276 9.28911 8.09234 9.41117 8.22082C9.53966 8.34289 9.63923 8.48744 9.7099 8.65447C9.78057 8.82151 9.8159 8.99818 9.8159 9.18449C9.8159 9.3708 9.78057 9.54747 9.7099 9.7145C9.63923 9.87511 9.54287 10.0164 9.42081 10.1385ZM6.34675 11.3431C6.32652 11.406 6.30983 11.4706 6.29668 11.5366H5.80243V11.3885C5.80243 11.2526 5.82816 11.1243 5.87945 11.003C5.9311 10.881 6.00119 10.776 6.08961 10.6876C6.18353 10.5937 6.28875 10.5212 6.40543 10.4699C6.5263 10.4188 6.65691 10.393 6.79789 10.393H7.02598C7.01143 10.4043 6.99702 10.4158 6.98276 10.4276C6.835 10.5433 6.70652 10.6782 6.5973 10.8323C6.49451 10.9865 6.411 11.1568 6.34675 11.3431ZM8.44752 8.36537C8.22266 8.36537 8.02993 8.44568 7.86933 8.60629C7.70872 8.7669 7.62841 8.95963 7.62841 9.18449C7.62841 9.40934 7.70872 9.60207 7.86933 9.76268C8.02993 9.92329 8.22266 10.0036 8.44752 10.0036C8.67237 10.0036 8.8651 9.92329 9.02571 9.76268C9.18632 9.60207 9.26662 9.40934 9.26662 9.18449C9.26662 8.95963 9.18632 8.7669 9.02571 8.60629C8.8651 8.44568 8.67237 8.36537 8.44752 8.36537ZM7.07913 9.18449C7.07913 9.41697 7.12703 9.62492 7.22284 9.80834C7.15617 9.83584 7.08402 9.84949 7.006 9.84949C6.84865 9.84949 6.7152 9.794 6.60244 9.68123C6.48967 9.56847 6.43418 9.43502 6.43418 9.27767C6.43418 9.12032 6.48967 8.98686 6.60244 8.8741C6.7152 8.76134 6.84865 8.70584 7.006 8.70584C7.05923 8.70584 7.10972 8.7122 7.15761 8.72497C7.10529 8.87101 7.07913 9.02418 7.07913 9.18449Z" fill="url(#paint2_linear_3658_27665)"/>
</g>
<defs>
<linearGradient id="paint0_linear_3658_27665" x1="1.45092" y1="2.27138" x2="13.6878" y2="14.7482" gradientUnits="userSpaceOnUse">
<stop stop-color="white"/>
<stop offset="1" stop-color="#EAECEE"/>
</linearGradient>
<linearGradient id="paint1_linear_3658_27665" x1="4.52536" y1="4.67816" x2="11.1546" y2="11.6517" gradientUnits="userSpaceOnUse">
<stop stop-color="#0195FF"/>
<stop offset="0.991028" stop-color="#1147E9"/>
</linearGradient>
<linearGradient id="paint2_linear_3658_27665" x1="4.50482" y1="4.6552" x2="11.1295" y2="11.6515" gradientUnits="userSpaceOnUse">
<stop stop-color="#1348FF"/>
<stop offset="1" stop-color="#06238D"/>
</linearGradient>
<clipPath id="clip0_3658_27665">
<rect width="10" height="10" fill="white" transform="translate(2.99976 3.00049)"/>
</clipPath>
</defs>
</svg>
