<svg width="16" height="16" viewBox="0 0 16 16" fill="none" xmlns="http://www.w3.org/2000/svg">
<circle cx="7.99689" cy="7.99786" r="7.85696" fill="url(#paint0_linear_3890_21520)" stroke="#D5DADD" stroke-width="0.285708"/>
<g clip-path="url(#clip0_3890_21520)">
<path fill-rule="evenodd" clip-rule="evenodd" d="M4.68544 3.71897C4.41351 3.82669 4.1554 3.9732 3.95663 4.1756C3.82667 4.30794 3.59717 4.56356 3.59717 5.04595V9.72332C3.5975 10.5402 4.20035 10.9815 4.73597 11.2002C5.30274 11.4317 6.02293 11.5225 6.70951 11.523C6.79957 11.523 6.93908 11.506 7.08443 11.4854C7.36172 11.4463 7.57529 11.2032 7.57529 10.9231C7.57529 10.6056 7.30381 10.3729 6.98895 10.4143C6.88081 10.4285 6.78132 10.4387 6.7101 10.4387C6.0791 10.4382 5.48374 10.3522 5.06437 10.1809C4.61398 9.99702 4.56027 9.8099 4.56027 9.72265L4.55973 9.05726C4.73276 9.11618 4.91433 9.16455 5.0978 9.20416C5.59922 9.31241 6.16759 9.36607 6.72891 9.36739C6.82043 9.36761 6.89919 9.36901 6.99072 9.36642C7.17169 9.36131 7.31218 9.21065 7.31218 9.02961C7.31218 8.83005 7.14269 8.67308 6.94319 8.67813C6.86846 8.68003 6.80624 8.67831 6.73094 8.67814C6.21847 8.67692 5.7113 8.62759 5.27918 8.5343C4.97766 8.4692 4.73518 8.38737 4.55742 8.29997L4.5563 7.48794C4.73036 7.54739 4.91312 7.59614 5.0978 7.63601C5.59922 7.74426 6.16759 7.79792 6.72891 7.79925C7.19086 7.80034 7.65709 7.76601 8.08604 7.69363C8.5403 7.63601 8.49344 6.94266 8.08604 7.02282C7.67864 7.10299 7.20829 7.14364 6.73094 7.14251C6.21847 7.1413 5.7113 7.09197 5.27918 6.99868C4.97572 6.93316 4.73207 6.8507 4.55401 6.76267L4.55267 5.90584C4.59916 5.92675 4.64631 5.9464 4.69386 5.96488C5.23986 6.17717 5.9552 6.28014 6.70981 6.28014C7.47071 6.28014 8.19306 6.17545 8.74315 5.95967C8.7906 5.94106 8.83765 5.92128 8.88406 5.90025L8.88406 6.59472L8.88196 6.35897C8.88177 6.56744 9.05072 6.73653 9.25919 6.73653H9.36455C9.63103 6.73653 9.84705 6.52051 9.84704 6.25403L9.84701 5.04595C9.84701 4.6766 9.68397 4.38318 9.47736 4.17431C9.27716 3.97191 9.01666 3.82576 8.743 3.71841C8.19291 3.50264 7.47056 3.39795 6.70966 3.39795C5.94876 3.39795 5.23156 3.50263 4.68544 3.71897Z" fill="url(#paint1_linear_3890_21520)"/>
<path fill-rule="evenodd" clip-rule="evenodd" d="M10.5501 7.43442C10.5874 7.1957 10.8112 7.03244 11.0499 7.06977C11.9064 7.20372 12.7488 7.6109 13.4416 8.30756C13.612 8.47889 13.6113 8.7559 13.4399 8.92628C13.2686 9.09666 12.9916 9.0959 12.8212 8.92458C12.2606 8.36089 11.5886 8.03965 10.9147 7.93426C10.676 7.89693 10.5128 7.67314 10.5501 7.43442Z" fill="url(#paint2_linear_3890_21520)"/>
<path d="M10.9337 11.1704C10.9337 10.9288 10.7379 10.7329 10.4962 10.7329C10.2546 10.7329 10.0587 10.9288 10.0587 11.1704C10.0587 11.514 10.1508 11.8802 10.3342 12.1764C10.3531 12.207 10.3722 12.2374 10.3951 12.2649C10.5374 12.435 10.7946 12.4736 10.9803 12.3454C11.178 12.2088 11.2284 11.9385 11.0938 11.74C10.9886 11.5738 10.9337 11.3657 10.9337 11.1704Z" fill="url(#paint3_linear_3890_21520)"/>
<path d="M13.2856 10.9003C13.3316 9.77403 12.4644 8.82991 11.4549 8.45081C10.4093 8.05813 9.10131 8.21999 8.19612 9.39768C8.04887 9.58925 8.0848 9.86392 8.27637 10.0112C8.46795 10.1584 8.74262 10.1225 8.88987 9.93091C9.52701 9.10196 10.4078 8.99224 11.1473 9.26995C11.923 9.56126 12.4373 10.2295 12.4113 10.8645C12.4065 10.9825 12.3667 11.0424 12.3362 11.0722C12.3018 11.1059 12.2575 11.1229 12.2151 11.1237C12.1736 11.1245 12.1425 11.1103 12.1218 11.0894C12.1041 11.0717 12.0632 11.018 12.0632 10.8824C12.0632 10.5082 11.8257 10.1071 11.4813 9.8486C11.1104 9.57023 10.5856 9.42809 9.96895 9.59825L9.95992 9.60075L9.951 9.60362C9.36047 9.79412 8.98379 10.3461 8.89916 10.9911C8.81369 11.6424 9.01379 12.4086 9.56587 13.1536C9.70973 13.3478 9.98373 13.3885 10.1779 13.2447C10.372 13.1008 10.4127 12.8268 10.2689 12.6327C9.82545 12.0343 9.71607 11.4909 9.76672 11.1049C9.81751 10.7179 10.0177 10.5055 10.2116 10.439C10.558 10.3463 10.8003 10.4315 10.956 10.5484C11.0395 10.611 11.1014 10.6855 11.1409 10.7549C11.183 10.8269 11.1865 10.8635 11.1889 10.9283C11.1984 11.2378 11.3052 11.5093 11.5015 11.7066C11.7044 11.9105 11.9723 12.0036 12.232 11.9986C12.7646 11.9883 13.2582 11.5723 13.2856 10.9003Z" fill="url(#paint4_linear_3890_21520)"/>
</g>
<defs>
<linearGradient id="paint0_linear_3890_21520" x1="1.44799" y1="2.26894" x2="13.6849" y2="14.7458" gradientUnits="userSpaceOnUse">
<stop stop-color="white"/>
<stop offset="1" stop-color="#EAECEE"/>
</linearGradient>
<linearGradient id="paint1_linear_3890_21520" x1="4.53405" y1="4.61299" x2="10.0333" y2="8.84455" gradientUnits="userSpaceOnUse">
<stop stop-color="#0195FF"/>
<stop offset="0.991028" stop-color="#1147E9"/>
</linearGradient>
<linearGradient id="paint2_linear_3890_21520" x1="8.91321" y1="7.98635" x2="13.2602" y2="11.7928" gradientUnits="userSpaceOnUse">
<stop stop-color="#1348FF"/>
<stop offset="1" stop-color="#06238D"/>
</linearGradient>
<linearGradient id="paint3_linear_3890_21520" x1="8.91321" y1="7.98635" x2="13.2602" y2="11.7928" gradientUnits="userSpaceOnUse">
<stop stop-color="#1348FF"/>
<stop offset="1" stop-color="#06238D"/>
</linearGradient>
<linearGradient id="paint4_linear_3890_21520" x1="8.91321" y1="7.98635" x2="13.2602" y2="11.7928" gradientUnits="userSpaceOnUse">
<stop stop-color="#1348FF"/>
<stop offset="1" stop-color="#06238D"/>
</linearGradient>
<clipPath id="clip0_3890_21520">
<rect width="10" height="10" fill="white" transform="translate(3.59717 3.39795)"/>
</clipPath>
</defs>
</svg>
