<svg width="16" height="16" viewBox="0 0 16 16" fill="none" xmlns="http://www.w3.org/2000/svg">
<circle cx="7.99786" cy="7.99786" r="7.85696" fill="url(#paint0_linear_3890_21518)" stroke="#D5DADD" stroke-width="0.285708"/>
<path fill-rule="evenodd" clip-rule="evenodd" d="M11.9602 4.02875C11.6941 3.75013 11.4908 3.59589 11.0872 3.59817L4.94042 3.61082C4.75903 3.61082 4.58974 3.64716 4.43253 3.71985C4.27533 3.79253 4.13022 3.8955 3.9972 4.02875C3.87627 4.162 3.77953 4.31948 3.70698 4.50119C3.63442 4.6829 3.59814 4.87672 3.59814 5.08265V10.3053C3.59814 10.7172 3.73721 11.0624 4.01534 11.341C4.29347 11.6196 4.63811 11.759 5.04926 11.759H7.92519C7.90444 11.2997 8.15794 10.827 8.66816 10.6496C8.83925 10.5901 9.02678 10.5236 9.15794 10.3925C9.22897 10.3215 9.31404 10.1988 9.41252 9.90997C9.67366 9.13421 10.5853 8.95916 11.14 9.38481C11.2497 9.25455 11.3983 9.14871 11.5857 9.08458L11.5885 9.08365C11.6884 9.04982 11.7082 9.02999 11.7421 8.93003L11.743 8.92733C11.8563 8.59606 12.0995 8.38618 12.3774 8.2977V5.08265C12.3774 4.65867 12.2383 4.30737 11.9602 4.02875ZM11.4195 5.08265C11.4195 4.93729 11.4195 4.58662 11.0872 4.58662H4.94042C4.55951 4.58662 4.55951 4.93729 4.55951 5.08265V8.00815H6.51851C6.66362 8.00815 6.7785 8.0566 6.86315 8.15351C6.95989 8.23831 7.00826 8.3655 7.00826 8.5351C7.00826 8.78949 7.09895 9.0136 7.28034 9.20742C7.47382 9.38912 7.70963 9.47998 7.98776 9.47998C8.25379 9.47998 8.47751 9.38912 8.6589 9.20742C8.85238 9.0136 8.94912 8.78949 8.94912 8.5351C8.94912 8.3655 8.99144 8.23831 9.07609 8.15351C9.17283 8.0566 9.29376 8.00815 9.43887 8.00815H11.4195V5.08265Z" fill="url(#paint1_linear_3890_21518)"/>
<path d="M13.5121 10.1935C13.1188 10.3266 12.9433 10.5021 12.8102 10.8954C12.7708 11.0104 12.6105 11.0104 12.5712 10.8954C12.438 10.5021 12.2626 10.3266 11.8692 10.1935C11.7543 10.1542 11.7543 9.9908 11.8692 9.95147C12.2626 9.81835 12.438 9.64287 12.5712 9.24956C12.6105 9.13459 12.7708 9.13459 12.8102 9.24956C12.9433 9.64287 13.1188 9.81835 13.5121 9.95147C13.6271 9.9908 13.6271 10.1542 13.5121 10.1935Z" fill="url(#paint2_linear_3890_21518)"/>
<path d="M11.9662 11.9567C11.2462 12.2018 10.9255 12.5225 10.6804 13.2426C10.6108 13.4513 10.3113 13.4513 10.2417 13.2426C9.99665 12.5225 9.67595 12.2018 8.95589 11.9567C8.74713 11.8871 8.74713 11.5876 8.95589 11.515C9.67595 11.2699 9.99665 10.9492 10.2417 10.2292C10.3113 10.0204 10.6108 10.0204 10.6804 10.2292C10.9255 10.9492 11.2462 11.2699 11.9662 11.515C12.175 11.5846 12.175 11.8841 11.9662 11.9567Z" fill="url(#paint3_linear_3890_21518)"/>
<path fill-rule="evenodd" clip-rule="evenodd" d="M10.2554 5.98809L5.71969 5.98809C5.54658 5.98809 5.40625 5.84751 5.40625 5.6741C5.40625 5.50069 5.54658 5.36011 5.71969 5.36011L10.2554 5.36011C10.4285 5.36011 10.5689 5.50069 10.5689 5.6741C10.5689 5.84751 10.4285 5.98809 10.2554 5.98809ZM10.2554 7.30217L5.71969 7.30217C5.54658 7.30217 5.40625 7.1616 5.40625 6.98818C5.40625 6.81477 5.54658 6.67419 5.71969 6.67419L10.2554 6.67419C10.4285 6.67419 10.5689 6.81477 10.5689 6.98818C10.5689 7.16159 10.4285 7.30217 10.2554 7.30217Z" fill="url(#paint4_linear_3890_21518)"/>
<defs>
<linearGradient id="paint0_linear_3890_21518" x1="1.44897" y1="2.26894" x2="13.6859" y2="14.7458" gradientUnits="userSpaceOnUse">
<stop stop-color="white"/>
<stop offset="1" stop-color="#EAECEE"/>
</linearGradient>
<linearGradient id="paint1_linear_3890_21518" x1="4.91419" y1="4.81854" x2="10.613" y2="10.9513" gradientUnits="userSpaceOnUse">
<stop stop-color="#0195FF"/>
<stop offset="0.991028" stop-color="#1147E9"/>
</linearGradient>
<linearGradient id="paint2_linear_3890_21518" x1="9.50882" y1="9.78651" x2="12.4487" y2="13.1316" gradientUnits="userSpaceOnUse">
<stop stop-color="#1348FF"/>
<stop offset="1" stop-color="#06238D"/>
</linearGradient>
<linearGradient id="paint3_linear_3890_21518" x1="9.50882" y1="9.78651" x2="12.4487" y2="13.1316" gradientUnits="userSpaceOnUse">
<stop stop-color="#1348FF"/>
<stop offset="1" stop-color="#06238D"/>
</linearGradient>
<linearGradient id="paint4_linear_3890_21518" x1="6.17888" y1="5.65148" x2="7.07559" y2="8.03357" gradientUnits="userSpaceOnUse">
<stop stop-color="#00BBFF"/>
<stop offset="1" stop-color="#008BFF"/>
</linearGradient>
</defs>
</svg>
