<svg width="16" height="16" viewBox="0 0 16 16" fill="none" xmlns="http://www.w3.org/2000/svg">
<circle cx="7.99738" cy="7.99786" r="7.85696" fill="url(#paint0_linear_3890_21519)" stroke="#D5DADD" stroke-width="0.285708"/>
<g clip-path="url(#clip0_3890_21519)">
<path d="M7.70905 11.2105H7.14252C6.94828 11.2105 6.77023 11.1494 6.60836 11.0273C6.45729 10.9154 6.36556 10.7679 6.33319 10.5848L6.21988 10.0813L5.52386 9.68457L5.03826 9.88294C4.93035 9.91346 4.82784 9.92871 4.73072 9.92871C4.57964 9.92871 4.43396 9.89311 4.29368 9.8219C4.16419 9.75069 4.06167 9.64388 3.98613 9.50147L3.67859 8.93689C3.62463 8.81482 3.59766 8.70292 3.59766 8.6012C3.59766 8.33671 3.71096 8.12309 3.93757 7.96033L4.30987 7.70093V6.90747L3.92139 6.63281C3.70557 6.48023 3.59766 6.27169 3.59766 6.0072C3.59766 5.90548 3.62463 5.79358 3.67859 5.67151L3.98613 5.10693C4.06167 4.96452 4.16419 4.85771 4.29368 4.7865C4.43396 4.71529 4.57964 4.67969 4.73072 4.67969C4.84942 4.67969 4.95193 4.70003 5.03826 4.74072L5.52386 4.92383L6.21988 4.5271L6.33319 4.02356C6.37635 3.84045 6.47347 3.69295 6.62455 3.58105C6.77562 3.45898 6.94828 3.39795 7.14252 3.39795H7.70905C7.90329 3.39795 8.07594 3.45898 8.22702 3.58105C8.37809 3.69295 8.47521 3.84045 8.51838 4.02356L8.6155 4.5271L9.32771 4.92383L9.8133 4.74072C9.89963 4.70003 10.0021 4.67969 10.1208 4.67969C10.2719 4.67969 10.4122 4.71529 10.5417 4.7865C10.682 4.85771 10.7899 4.96452 10.8654 5.10693L11.1568 5.67151C11.2215 5.77324 11.2539 5.89022 11.2539 6.02246C11.2539 6.06576 11.2506 6.10759 11.2441 6.14794C10.3914 6.06143 9.69371 6.44052 9.55387 7.41974C9.55387 7.41974 9.39823 7.42863 9.06181 7.56943C9.07721 7.48284 9.08491 7.39443 9.08491 7.3042C9.08491 7.09058 9.04174 6.89221 8.95541 6.70911C8.86909 6.51583 8.75038 6.34798 8.59931 6.20557C8.44824 6.06315 8.27018 5.95125 8.06515 5.86987C7.86012 5.78849 7.6443 5.7478 7.41769 5.7478C7.19108 5.7478 6.97526 5.78849 6.77023 5.86987C6.57599 5.95125 6.40333 6.06315 6.25226 6.20557C6.10118 6.34798 5.98248 6.51583 5.89615 6.70911C5.80982 6.89221 5.76666 7.09058 5.76666 7.3042C5.76666 7.51782 5.80982 7.72127 5.89615 7.91455C5.98248 8.09766 6.10118 8.26042 6.25226 8.40283C6.40333 8.54525 6.57599 8.65715 6.77023 8.73853C6.97017 8.81789 7.18037 8.85855 7.40083 8.86052C7.11116 9.2461 7.05192 9.56988 7.17871 10.1774C7.36809 10.6179 7.53052 10.794 7.89936 11.0083C7.89936 11.0083 7.88703 11.0738 7.8809 11.1934C7.82563 11.2048 7.76834 11.2105 7.70905 11.2105Z" fill="url(#paint1_linear_3890_21519)"/>
<path fill-rule="evenodd" clip-rule="evenodd" d="M10.5506 7.49301C10.5879 7.25429 10.8117 7.09103 11.0504 7.12836C11.9069 7.26231 12.7493 7.66949 13.4421 8.36616C13.6125 8.53748 13.6118 8.81449 13.4404 8.98487C13.2691 9.15526 12.9921 9.15449 12.8217 8.98317C12.2611 8.41948 11.5891 8.09825 10.9152 7.99286C10.6765 7.95552 10.5132 7.73174 10.5506 7.49301Z" fill="url(#paint2_linear_3890_21519)"/>
<path d="M10.9342 11.229C10.9342 10.9874 10.7383 10.7915 10.4967 10.7915C10.2551 10.7915 10.0592 10.9874 10.0592 11.229C10.0592 11.5726 10.1513 11.9388 10.3346 12.235C10.3536 12.2655 10.3726 12.296 10.3956 12.3235C10.5379 12.4936 10.7951 12.5322 10.9808 12.4039C11.1785 12.2673 11.2288 11.9971 11.0943 11.7986C10.989 11.6324 10.9342 11.4243 10.9342 11.229Z" fill="url(#paint3_linear_3890_21519)"/>
<path d="M13.2861 10.9589C13.3321 9.83262 12.4649 8.8885 11.4554 8.50941C10.4097 8.11672 9.1018 8.27858 8.1966 9.45627C8.04936 9.64784 8.08529 9.92251 8.27686 10.0698C8.46844 10.217 8.74311 10.1811 8.89035 9.9895C9.5275 9.16055 10.4083 9.05083 11.1478 9.32855C11.9235 9.61985 12.4378 10.2881 12.4118 10.9231C12.407 11.0411 12.3672 11.101 12.3367 11.1308C12.3023 11.1645 12.258 11.1815 12.2156 11.1823C12.1741 11.1831 12.143 11.1689 12.1223 11.148C12.1046 11.1302 12.0637 11.0766 12.0637 10.941C12.0637 10.5667 11.8262 10.1657 11.4818 9.9072C11.1109 9.62883 10.5861 9.48669 9.96944 9.65685L9.96041 9.65934L9.95149 9.66222C9.36095 9.85272 8.98428 10.4047 8.89965 11.0497C8.81417 11.701 9.01428 12.4672 9.56636 13.2122C9.71022 13.4064 9.98422 13.4471 10.1783 13.3033C10.3725 13.1594 10.4132 12.8854 10.2694 12.6913C9.82594 12.0929 9.71656 11.5495 9.76721 11.1635C9.81799 10.7765 10.0182 10.5641 10.2121 10.4976C10.5585 10.4049 10.8008 10.4901 10.9565 10.607C11.04 10.6696 11.1019 10.7441 11.1414 10.8135C11.1835 10.8855 11.187 10.9221 11.1894 10.9869C11.1989 11.2964 11.3057 11.5679 11.502 11.7652C11.7049 11.9691 11.9728 12.0622 12.2325 12.0572C12.7651 12.0469 13.2586 11.6309 13.2861 10.9589Z" fill="url(#paint4_linear_3890_21519)"/>
</g>
<defs>
<linearGradient id="paint0_linear_3890_21519" x1="1.44848" y1="2.26894" x2="13.6854" y2="14.7458" gradientUnits="userSpaceOnUse">
<stop stop-color="white"/>
<stop offset="1" stop-color="#EAECEE"/>
</linearGradient>
<linearGradient id="paint1_linear_3890_21519" x1="4.74536" y1="4.56626" x2="10.2146" y2="9.92795" gradientUnits="userSpaceOnUse">
<stop stop-color="#0195FF"/>
<stop offset="0.991028" stop-color="#1147E9"/>
</linearGradient>
<linearGradient id="paint2_linear_3890_21519" x1="8.9137" y1="8.04494" x2="13.2607" y2="11.8514" gradientUnits="userSpaceOnUse">
<stop stop-color="#1348FF"/>
<stop offset="1" stop-color="#06238D"/>
</linearGradient>
<linearGradient id="paint3_linear_3890_21519" x1="8.9137" y1="8.04494" x2="13.2607" y2="11.8514" gradientUnits="userSpaceOnUse">
<stop stop-color="#1348FF"/>
<stop offset="1" stop-color="#06238D"/>
</linearGradient>
<linearGradient id="paint4_linear_3890_21519" x1="8.9137" y1="8.04494" x2="13.2607" y2="11.8514" gradientUnits="userSpaceOnUse">
<stop stop-color="#1348FF"/>
<stop offset="1" stop-color="#06238D"/>
</linearGradient>
<clipPath id="clip0_3890_21519">
<rect width="10" height="10" fill="white" transform="translate(3.59766 3.39795)"/>
</clipPath>
</defs>
</svg>
