<svg width="16" height="16" viewBox="0 0 16 16" fill="none" xmlns="http://www.w3.org/2000/svg">
<circle cx="7.9964" cy="7.99786" r="7.85696" fill="url(#paint0_linear_3890_21521)" stroke="#D5DADD" stroke-width="0.285708"/>
<g clip-path="url(#clip0_3890_21521)">
<path fill-rule="evenodd" clip-rule="evenodd" d="M7.40988 3.39795C6.06662 3.39795 4.97424 4.48302 4.97424 5.82578C4.97424 6.51616 5.26302 7.13842 5.7262 7.58011C4.50168 8.06221 3.59668 9.06076 3.59668 10.3276V11.1821C3.59668 11.4583 3.82054 11.6821 4.09668 11.6821H6.47529C6.75144 11.6821 6.97529 11.4583 6.97529 11.1821C6.97529 10.906 6.75144 10.6821 6.47529 10.6821H4.59668V10.3276C4.59668 9.29987 5.72929 8.26433 7.40996 8.26433C7.44972 8.26433 7.4884 8.25968 7.52548 8.25091C8.81525 8.19079 9.84552 7.1298 9.84552 5.82578C9.84552 4.48302 8.75314 3.39795 7.40988 3.39795ZM5.97424 5.82578C5.97424 5.03911 6.61509 4.39795 7.40988 4.39795C8.20467 4.39795 8.84552 5.03911 8.84552 5.82578C8.84552 6.61244 8.20467 7.2536 7.40988 7.2536C6.61509 7.2536 5.97424 6.61244 5.97424 5.82578Z" fill="url(#paint1_linear_3890_21521)"/>
<path fill-rule="evenodd" clip-rule="evenodd" d="M10.5496 7.59409C10.5869 7.35536 10.8107 7.1921 11.0494 7.22944C11.906 7.36339 12.7483 7.77057 13.4412 8.46723C13.6115 8.63855 13.6108 8.91556 13.4395 9.08595C13.2681 9.25633 12.9911 9.25557 12.8207 9.08425C12.2601 8.52055 11.5881 8.19932 10.9142 8.09393C10.6755 8.0566 10.5123 7.83281 10.5496 7.59409Z" fill="url(#paint2_linear_3890_21521)"/>
<path d="M10.9332 11.3301C10.9332 11.0885 10.7374 10.8926 10.4957 10.8926C10.2541 10.8926 10.0582 11.0885 10.0582 11.3301C10.0582 11.6737 10.1503 12.0398 10.3337 12.3361C10.3526 12.3666 10.3717 12.3971 10.3946 12.4245C10.5369 12.5947 10.7941 12.6333 10.9798 12.505C11.1775 12.3684 11.2279 12.0981 11.0933 11.8996C10.9881 11.7335 10.9332 11.5254 10.9332 11.3301Z" fill="url(#paint3_linear_3890_21521)"/>
<path d="M13.2851 11.0599C13.3311 9.93369 12.4639 8.98958 11.4544 8.61048C10.4088 8.2178 9.10082 8.37966 8.19563 9.55734C8.04838 9.74892 8.08431 10.0236 8.27589 10.1708C8.46746 10.3181 8.74213 10.2821 8.88938 10.0906C9.52653 9.26162 10.4073 9.15191 11.1468 9.42962C11.9225 9.72092 12.4368 10.3892 12.4108 11.0242C12.406 11.1422 12.3662 11.2021 12.3357 11.2319C12.3013 11.2656 12.257 11.2826 12.2146 11.2834C12.1732 11.2842 12.142 11.2699 12.1213 11.2491C12.1036 11.2313 12.0627 11.1776 12.0627 11.0421C12.0627 10.6678 11.8253 10.2668 11.4808 10.0083C11.1099 9.7299 10.5852 9.58776 9.96846 9.75792L9.95943 9.76041L9.95052 9.76329C9.35998 9.95379 8.9833 10.5058 8.89867 11.1507C8.8132 11.8021 9.01331 12.5683 9.56538 13.3133C9.70924 13.5074 9.98324 13.5482 10.1774 13.4043C10.3715 13.2605 10.4123 12.9865 10.2684 12.7923C9.82497 12.194 9.71559 11.6505 9.76623 11.2646C9.81702 10.8776 10.0172 10.6652 10.2111 10.5987C10.5575 10.506 10.7998 10.5912 10.9555 10.7081C11.039 10.7707 11.1009 10.8452 11.1405 10.9146C11.1825 10.9866 11.186 11.0232 11.1884 11.088C11.1979 11.3975 11.3047 11.6689 11.501 11.8662C11.704 12.0702 11.9718 12.1633 12.2315 12.1582C12.7641 12.1479 13.2577 11.732 13.2851 11.0599Z" fill="url(#paint4_linear_3890_21521)"/>
</g>
<defs>
<linearGradient id="paint0_linear_3890_21521" x1="1.4475" y1="2.26894" x2="13.6844" y2="14.7458" gradientUnits="userSpaceOnUse">
<stop stop-color="white"/>
<stop offset="1" stop-color="#EAECEE"/>
</linearGradient>
<linearGradient id="paint1_linear_3890_21521" x1="4.53341" y1="4.6368" x2="10.1113" y2="8.84574" gradientUnits="userSpaceOnUse">
<stop stop-color="#0195FF"/>
<stop offset="0.991028" stop-color="#1147E9"/>
</linearGradient>
<linearGradient id="paint2_linear_3890_21521" x1="8.91272" y1="8.14602" x2="13.2598" y2="11.9525" gradientUnits="userSpaceOnUse">
<stop stop-color="#1348FF"/>
<stop offset="1" stop-color="#06238D"/>
</linearGradient>
<linearGradient id="paint3_linear_3890_21521" x1="8.91272" y1="8.14602" x2="13.2598" y2="11.9525" gradientUnits="userSpaceOnUse">
<stop stop-color="#1348FF"/>
<stop offset="1" stop-color="#06238D"/>
</linearGradient>
<linearGradient id="paint4_linear_3890_21521" x1="8.91272" y1="8.14602" x2="13.2598" y2="11.9525" gradientUnits="userSpaceOnUse">
<stop stop-color="#1348FF"/>
<stop offset="1" stop-color="#06238D"/>
</linearGradient>
<clipPath id="clip0_3890_21521">
<rect width="10" height="10" fill="white" transform="translate(3.59668 3.39795)"/>
</clipPath>
</defs>
</svg>
