<svg width="16" height="16" viewBox="0 0 16 16" fill="none" xmlns="http://www.w3.org/2000/svg">
<circle cx="7.99738" cy="7.99762" r="7.85696" fill="url(#paint0_linear_3514_40272)" stroke="#D5DADD" stroke-width="0.285708"/>
<g clip-path="url(#clip0_3514_40272)">
<path d="M7.2607 3.5979C6.01769 3.5979 5.13453 4.61101 4.98739 5.66871C4.58754 5.69253 4.23448 5.84299 3.96027 6.09571C3.58931 6.4376 3.39771 6.93384 3.39771 7.45717C3.39771 7.94351 3.54505 8.40321 3.87583 8.74309C4.20885 9.08526 4.68165 9.2586 5.23834 9.2586H7.09197V8.88537C7.09197 8.14142 7.69506 7.53833 8.43901 7.53833H8.89005C9.21668 7.53833 9.51575 7.65443 9.74868 7.84746C10.0695 7.67817 10.4583 7.53292 10.92 7.4502C10.9823 7.27296 11.0805 7.11268 11.206 6.97813C11.1413 5.89053 10.3424 5.06932 9.38877 4.97911C8.98993 4.15332 8.24958 3.5979 7.2607 3.5979Z" fill="url(#paint1_linear_3514_40272)"/>
<path fill-rule="evenodd" clip-rule="evenodd" d="M12.6422 7.17456C13.041 7.17456 13.3642 7.49783 13.3642 7.8966V8.34965C13.3642 8.74842 13.041 9.07168 12.6422 9.07168H12.4277C12.4217 9.96971 12.1923 10.5218 11.9388 10.8636C11.9088 10.9041 11.8787 10.9413 11.849 10.9754C11.986 11.1068 12.0712 11.2917 12.0712 11.4965V11.9495C12.0712 12.3483 11.7479 12.6715 11.3492 12.6715H10.8981C10.6158 12.6715 10.3712 12.5094 10.2526 12.2732C10.1868 12.2602 10.102 12.2398 10.0051 12.2098C9.81122 12.1497 9.56212 12.049 9.31858 11.8855C8.83692 11.5623 8.3832 10.994 8.42154 10.0603C8.03076 10.0511 7.7168 9.73141 7.7168 9.33842V8.88537C7.7168 8.4866 8.04006 8.16333 8.43883 8.16333L8.88988 8.16333C9.22206 8.16333 9.50185 8.38765 9.58603 8.69308C9.63199 8.65665 9.68154 8.61974 9.73479 8.58288C10.1166 8.31866 10.6828 8.06196 11.4691 8.00897V7.8966C11.4691 7.49783 11.7924 7.17456 12.1912 7.17456H12.6422ZM10.1761 11.7353V11.4965C10.1761 11.1956 10.3601 10.9377 10.6217 10.8292C10.5602 10.6303 10.4631 10.4597 10.3235 10.3141C10.1334 10.1158 9.84777 9.94668 9.42116 9.82738C9.29483 9.96457 9.11604 10.0527 8.91661 10.06C8.87819 10.7981 9.21916 11.216 9.58775 11.4634C9.78117 11.5932 9.98368 11.6759 10.1453 11.726C10.1558 11.7292 10.166 11.7323 10.1761 11.7353ZM11.3394 10.7744H11.1197C11.0415 10.4723 10.9009 10.1968 10.6753 9.96144C10.4188 9.69384 10.0673 9.49403 9.6118 9.35807C9.61801 9.35089 9.62456 9.34344 9.63145 9.33574C9.71103 9.24682 9.83633 9.12505 10.0138 9.00225C10.3251 8.7868 10.8027 8.56396 11.4881 8.51466C11.5429 8.74922 11.7121 8.9398 11.9336 9.0244L11.9335 9.03193C11.9335 9.85943 11.7265 10.3104 11.5442 10.5564C11.4719 10.6538 11.4002 10.7236 11.3394 10.7744ZM12.7392 7.8966C12.7392 7.84301 12.6958 7.79956 12.6422 7.79956L12.1912 7.79956C12.1376 7.79956 12.0941 7.84301 12.0941 7.8966V8.34965C12.0941 8.40324 12.1376 8.44668 12.1912 8.44668H12.6422C12.6958 8.44668 12.7392 8.40324 12.7392 8.34965V7.8966ZM8.88988 8.78833C8.94347 8.78833 8.98692 8.83178 8.98692 8.88537V9.33842C8.98692 9.39201 8.94347 9.43545 8.88988 9.43545H8.43884C8.38524 9.43545 8.3418 9.39201 8.3418 9.33842L8.3418 8.88537C8.3418 8.83178 8.38524 8.78833 8.43883 8.78833H8.88988ZM11.3492 11.3994C11.4028 11.3994 11.4462 11.4429 11.4462 11.4965V11.9495C11.4462 12.0031 11.4028 12.0465 11.3492 12.0465H10.8981C10.8445 12.0465 10.8011 12.0031 10.8011 11.9495V11.4965C10.8011 11.4429 10.8445 11.3994 10.8981 11.3994H11.3492Z" fill="url(#paint2_linear_3514_40272)"/>
</g>
<defs>
<linearGradient id="paint0_linear_3514_40272" x1="1.44848" y1="2.2687" x2="13.6854" y2="14.7456" gradientUnits="userSpaceOnUse">
<stop stop-color="white"/>
<stop offset="1" stop-color="#EAECEE"/>
</linearGradient>
<linearGradient id="paint1_linear_3514_40272" x1="4.5682" y1="4.44442" x2="8.33485" y2="9.64189" gradientUnits="userSpaceOnUse">
<stop stop-color="#0195FF"/>
<stop offset="0.991028" stop-color="#1147E9"/>
</linearGradient>
<linearGradient id="paint2_linear_3514_40272" x1="8.55173" y1="7.98328" x2="12.3969" y2="11.9507" gradientUnits="userSpaceOnUse">
<stop stop-color="#1348FF"/>
<stop offset="1" stop-color="#06238D"/>
</linearGradient>
<clipPath id="clip0_3514_40272">
<rect width="9.9998" height="10" fill="white" transform="translate(3.39746 3.5979)"/>
</clipPath>
</defs>
</svg>
