<svg width="16" height="16" viewBox="0 0 16 16" fill="none" xmlns="http://www.w3.org/2000/svg">
<circle cx="7.99591" cy="7.99786" r="7.85696" fill="url(#paint0_linear_3890_21523)" stroke="#D5DADD" stroke-width="0.285708"/>
<g clip-path="url(#clip0_3890_21523)">
<path fill-rule="evenodd" clip-rule="evenodd" d="M4.36035 7.50616C4.41885 7.39478 4.49498 7.28947 4.58996 7.19449C4.7971 6.98735 5.10173 6.81815 5.48066 6.81815H5.83114C6.14816 6.81815 6.47525 6.93489 6.7226 7.19346C6.8584 7.32316 6.96571 7.48397 7.03027 7.66725C7.15255 7.62096 7.29965 7.58587 7.46672 7.58587C7.83471 7.58587 8.22053 7.74172 8.47402 8.09511L8.65366 8.33003C8.87869 8.59134 8.95072 8.89917 8.95072 9.15331C8.95072 9.41577 8.86954 9.64258 8.75082 9.82605C8.90125 9.91833 9.0471 10.0478 9.16163 10.2248C9.27399 10.3984 9.33244 10.5811 9.35568 10.7542H12.5642C12.8017 10.7542 12.996 10.5598 12.996 10.3224V6.97607C12.996 6.84654 12.9366 6.7224 12.834 6.64144L10.6751 4.91432C10.5456 4.80638 10.3675 4.79019 10.2164 4.86035C10.0706 4.93052 9.97349 5.08164 9.97349 5.24895V6.08013L8.51624 4.91432C8.3867 4.80638 8.20859 4.79019 8.05747 4.86035C7.91174 4.93052 7.81459 5.08164 7.81459 5.24895V6.28504H6.77198V3.62978C6.77198 3.3923 6.57768 3.198 6.3402 3.198H4.79213C4.55465 3.198 4.36035 3.3923 4.36035 3.62978V7.50616ZM9.43944 8.4873C9.43944 8.78415 9.68232 9.02703 9.97917 9.02703C10.276 9.02703 10.5189 8.78415 10.5189 8.4873C10.5189 8.19046 10.276 7.94758 9.97917 7.94758C9.68232 7.94758 9.43944 8.19046 9.43944 8.4873ZM11.5983 9.02703C11.3015 9.02703 11.0586 8.78415 11.0586 8.4873C11.0586 8.19046 11.3015 7.94758 11.5983 7.94758C11.8952 7.94758 12.1381 8.19046 12.1381 8.4873C12.1381 8.78415 11.8952 9.02703 11.5983 9.02703Z" fill="url(#paint1_linear_3890_21523)"/>
<path fill-rule="evenodd" clip-rule="evenodd" d="M8.18443 10.6553C8.30682 10.711 8.36802 10.8056 8.36802 10.9391V10.9724L8.28457 11.3229C8.25119 11.4676 8.16218 11.5399 8.01754 11.5399H7.98416L7.45009 11.4564C7.34995 11.6678 7.18862 11.8626 6.96609 12.0406L7.16637 12.608C7.17749 12.6303 7.18306 12.6581 7.18306 12.6915C7.18306 12.825 7.13299 12.914 7.03285 12.9585L6.71575 13.1254C6.67124 13.1477 6.63786 13.1588 6.61561 13.1588C6.51547 13.1588 6.43759 13.1087 6.38196 13.0086L6.06485 12.4578C6.00922 12.469 5.94803 12.4801 5.88127 12.4912H5.69768H5.53079C5.48628 12.4801 5.43621 12.469 5.38058 12.4578L5.04679 13.0253C4.99116 13.1143 4.91883 13.1588 4.82982 13.1588C4.77419 13.1588 4.73525 13.1477 4.71299 13.1254L4.39589 12.9752C4.29575 12.9307 4.24569 12.8528 4.24569 12.7415C4.24569 12.697 4.25125 12.6637 4.26238 12.6414L4.46265 12.074C4.26238 11.9293 4.10104 11.7402 3.97865 11.5065L3.4112 11.59H3.37783C3.23318 11.59 3.14417 11.5176 3.11079 11.373L3.02734 11.0225V10.9891C3.02734 10.8556 3.08854 10.761 3.21093 10.7054L3.69493 10.5552V10.4885C3.69493 10.2103 3.745 9.95438 3.84513 9.72073L3.47796 9.38694C3.44458 9.35356 3.41677 9.29236 3.39452 9.20335C3.39452 9.12547 3.41677 9.06427 3.46127 9.01977L3.67824 8.73604C3.73387 8.66928 3.80063 8.63591 3.87851 8.63591C3.93415 8.63591 3.98421 8.6526 4.02872 8.68597L4.41258 8.95301C4.64624 8.76386 4.90214 8.63034 5.1803 8.55246L5.21368 8.06846C5.22481 8.0017 5.25263 7.94607 5.29713 7.90156C5.35276 7.84593 5.41396 7.81812 5.48072 7.81812H5.8312C5.90908 7.81812 5.97028 7.84593 6.01478 7.90156C6.07042 7.94607 6.09823 8.0017 6.09823 8.06846L6.13161 8.53577C6.40977 8.60253 6.67681 8.72492 6.93271 8.90294L7.31657 8.63591C7.37221 8.60253 7.42228 8.58584 7.46678 8.58584C7.55579 8.58584 7.62255 8.61922 7.66706 8.68597L7.88402 8.9697C7.92853 9.0142 7.95078 9.0754 7.95078 9.15328C7.95078 9.22004 7.92296 9.28124 7.86733 9.33687L7.53354 9.67066C7.58917 9.79305 7.62811 9.921 7.65037 10.0545C7.68375 10.188 7.70044 10.3327 7.70044 10.4885V10.5051L8.18443 10.6553ZM4.87989 11.3062C4.65736 11.0837 4.5461 10.8111 4.5461 10.4885C4.5461 10.1658 4.65736 9.89319 4.87989 9.67066C5.10242 9.44813 5.37502 9.33687 5.69768 9.33687C6.02035 9.33687 6.29294 9.44813 6.51547 9.67066C6.738 9.89319 6.84927 10.1658 6.84927 10.4885C6.84927 10.8111 6.738 11.0837 6.51547 11.3062C6.29294 11.5288 6.02035 11.64 5.69768 11.64C5.37502 11.64 5.10242 11.5288 4.87989 11.3062Z" fill="url(#paint2_linear_3890_21523)"/>
</g>
<defs>
<linearGradient id="paint0_linear_3890_21523" x1="1.44702" y1="2.26894" x2="13.6839" y2="14.7458" gradientUnits="userSpaceOnUse">
<stop stop-color="white"/>
<stop offset="1" stop-color="#EAECEE"/>
</linearGradient>
<linearGradient id="paint1_linear_3890_21523" x1="5.65487" y1="4.32797" x2="10.8986" y2="10.3229" gradientUnits="userSpaceOnUse">
<stop stop-color="#0195FF"/>
<stop offset="0.991028" stop-color="#1147E9"/>
</linearGradient>
<linearGradient id="paint2_linear_3890_21523" x1="3.81693" y1="8.60384" x2="7.55456" y2="12.3576" gradientUnits="userSpaceOnUse">
<stop stop-color="#1348FF"/>
<stop offset="1" stop-color="#06238D"/>
</linearGradient>
<clipPath id="clip0_3890_21523">
<rect width="10" height="10" fill="white" transform="translate(2.99609 3.198)"/>
</clipPath>
</defs>
</svg>
