<svg width="16" height="16" viewBox="0 0 16 16" fill="none" xmlns="http://www.w3.org/2000/svg">
<circle cx="7.99445" cy="7.99786" r="7.85696" fill="url(#paint0_linear_3890_21527)" stroke="#D5DADD" stroke-width="0.285708"/>
<path fill-rule="evenodd" clip-rule="evenodd" d="M5.02114 9.09375H4.70079C3.9497 9.09375 3.34082 9.70263 3.34082 10.4537C3.34082 11.2048 3.9497 11.8137 4.70079 11.8137H11.2881C12.0392 11.8137 12.6481 11.2048 12.6481 10.4537C12.6481 9.70263 12.0392 9.09375 11.2881 9.09375H11.0502C10.8064 9.33799 10.4693 9.4891 10.0969 9.4891H9.64586C9.27347 9.4891 8.93638 9.33799 8.69254 9.09375H8.05082C8.02634 9.81619 7.43297 10.3943 6.70457 10.3943H6.36739C5.63899 10.3943 5.04562 9.81619 5.02114 9.09375ZM9.90433 10.8287C10.1114 10.8287 10.2793 10.6608 10.2793 10.4537C10.2793 10.2466 10.1114 10.0787 9.90433 10.0787C9.69722 10.0787 9.52933 10.2466 9.52933 10.4537C9.52933 10.6608 9.69722 10.8287 9.90433 10.8287ZM11.3358 10.4537C11.3358 10.6608 11.168 10.8287 10.9608 10.8287C10.7537 10.8287 10.5858 10.6608 10.5858 10.4537C10.5858 10.2466 10.7537 10.0787 10.9608 10.0787C11.168 10.0787 11.3358 10.2466 11.3358 10.4537Z" fill="url(#paint1_linear_3890_21527)"/>
<path fill-rule="evenodd" clip-rule="evenodd" d="M7.70138 3.85791C8.10015 3.85791 8.42342 4.18118 8.42342 4.57995V4.91895C8.42342 5.14225 8.32205 5.34187 8.16282 5.47432L8.32992 6.13696H8.35401C8.42377 6.13696 8.48946 6.15441 8.54695 6.18517L9.13271 5.88798V5.65417C9.13271 5.2554 9.45598 4.93213 9.85475 4.93213H10.1919C10.5907 4.93213 10.914 5.2554 10.914 5.65417V5.99317C10.914 6.39194 10.5907 6.7152 10.1919 6.7152H9.85475C9.6479 6.7152 9.46138 6.62823 9.32974 6.48886L8.76355 6.77611V6.8477L8.76544 6.84481L9.19451 7.12593C9.31822 7.02652 9.47538 6.96704 9.64644 6.96704H10.0975C10.4963 6.96704 10.8195 7.29031 10.8195 7.68908V8.14213C10.8195 8.5409 10.4963 8.86416 10.0975 8.86416H9.64644C9.24767 8.86416 8.9244 8.5409 8.9244 8.14213V7.69616L8.5376 7.44274C8.48238 7.47048 8.42002 7.48609 8.35401 7.48609H8.02042L7.35094 8.38507C7.39973 8.48233 7.42719 8.59214 7.42719 8.70837V9.04736C7.42719 9.44614 7.10392 9.7694 6.70515 9.7694H6.36797C5.9692 9.7694 5.64594 9.44614 5.64594 9.04736L5.64594 8.70837C5.64594 8.3096 5.9692 7.98633 6.36797 7.98633H6.70515C6.75715 7.98633 6.80786 7.99183 6.85674 8.00227L7.43994 7.21916C7.42344 7.17475 7.41442 7.12671 7.41442 7.07655V6.97069L6.82108 6.9707C6.72599 7.25836 6.45493 7.46594 6.13538 7.46594H5.79821C5.39944 7.46594 5.07617 7.14267 5.07617 6.7439L5.07617 6.4049C5.07617 6.00613 5.39944 5.68286 5.79821 5.68286H6.13538C6.51422 5.68286 6.82492 5.97462 6.85503 6.3457L7.46695 6.34569C7.51583 6.25897 7.5954 6.19185 7.69092 6.15906L7.56028 5.64098H7.36421C6.96544 5.64098 6.64217 5.31772 6.64217 4.91895V4.57995C6.64217 4.18118 6.96544 3.85791 7.36421 3.85791H7.70138ZM7.79842 4.57995C7.79842 4.52636 7.75497 4.48291 7.70138 4.48291L7.36421 4.48291C7.31061 4.48291 7.26717 4.52636 7.26717 4.57995V4.91895C7.26717 4.97254 7.31061 5.01598 7.36421 5.01598H7.70138C7.75497 5.01598 7.79842 4.97254 7.79842 4.91895V4.57995ZM10.289 5.65417C10.289 5.60057 10.2455 5.55713 10.1919 5.55713H9.85475C9.80115 5.55713 9.75771 5.60057 9.75771 5.65417V5.99317C9.75771 6.04676 9.80115 6.0902 9.85475 6.0902H10.1919C10.2455 6.0902 10.289 6.04676 10.289 5.99317V5.65417ZM10.1945 7.68908C10.1945 7.63549 10.1511 7.59204 10.0975 7.59204H9.64644C9.59285 7.59204 9.5494 7.63549 9.5494 7.68908V8.14213C9.5494 8.19572 9.59285 8.23916 9.64644 8.23916H10.0975C10.1511 8.23916 10.1945 8.19572 10.1945 8.14213V7.68908ZM6.13538 6.30786C6.18898 6.30786 6.23242 6.35131 6.23242 6.4049V6.7439C6.23242 6.79749 6.18898 6.84094 6.13538 6.84094H5.79821C5.74462 6.84094 5.70117 6.79749 5.70117 6.7439V6.4049C5.70117 6.35131 5.74462 6.30786 5.79821 6.30786H6.13538ZM6.80219 8.70837C6.80219 8.65477 6.75874 8.61133 6.70515 8.61133H6.36797C6.31438 8.61133 6.27094 8.65477 6.27094 8.70837V9.04736C6.27094 9.10096 6.31438 9.1444 6.36797 9.1444H6.70515C6.75874 9.1444 6.80219 9.10096 6.80219 9.04736V8.70837Z" fill="url(#paint2_linear_3890_21527)"/>
<defs>
<linearGradient id="paint0_linear_3890_21527" x1="1.44555" y1="2.26894" x2="13.6825" y2="14.7458" gradientUnits="userSpaceOnUse">
<stop stop-color="white"/>
<stop offset="1" stop-color="#EAECEE"/>
</linearGradient>
<linearGradient id="paint1_linear_3890_21527" x1="4.73602" y1="9.5005" x2="5.76126" y2="13.01" gradientUnits="userSpaceOnUse">
<stop stop-color="#0195FF"/>
<stop offset="0.991028" stop-color="#1147E9"/>
</linearGradient>
<linearGradient id="paint2_linear_3890_21527" x1="5.93925" y1="4.72762" x2="10.0763" y2="8.83067" gradientUnits="userSpaceOnUse">
<stop stop-color="#1348FF"/>
<stop offset="1" stop-color="#06238D"/>
</linearGradient>
</defs>
</svg>
