<svg width="16" height="16" viewBox="0 0 16 16" fill="none" xmlns="http://www.w3.org/2000/svg">
<circle cx="7.99689" cy="7.99762" r="7.85696" fill="url(#paint0_linear_3514_40273)" stroke="#D5DADD" stroke-width="0.285708"/>
<g clip-path="url(#clip0_3514_40273)">
<path d="M10.3074 6.52464C9.45006 6.78711 8.80306 7.61134 8.80306 8.53516C8.80306 9.14839 9.09754 9.55617 9.27619 9.80357L9.2995 9.83589L9.30264 9.84022C9.31928 9.86312 9.33487 9.8847 9.34946 9.90513C9.22462 9.83655 9.08124 9.79754 8.92874 9.79754L8.37344 9.79755C8.14099 9.39312 7.70485 9.12093 7.2049 9.12093H6.75185C6.09038 9.12093 5.54026 9.59772 5.42642 10.2264H5.03765C4.48096 10.2264 4.00817 10.053 3.67515 9.71087C3.34436 9.37099 3.19702 8.91129 3.19702 8.42494C3.19702 7.90162 3.38862 7.40537 3.75959 7.06349C4.0338 6.81077 4.38686 6.66031 4.78671 6.63648C4.93385 5.57878 5.817 4.56567 7.06002 4.56567C8.04889 4.56567 8.78925 5.12109 9.18809 5.94689C9.54821 5.98095 9.88626 6.11925 10.171 6.33677C10.2081 6.40543 10.2541 6.46857 10.3074 6.52464Z" fill="url(#paint1_linear_3514_40273)"/>
<path d="M10.2163 10.5356C10.2538 10.5769 10.304 10.5989 10.3566 10.5989L11.4841 10.5769C11.5943 10.5741 11.682 10.4778 11.682 10.3568C11.682 9.97957 11.8427 9.76256 12.0266 9.51426L12.0303 9.50925C12.2157 9.2616 12.4237 8.98093 12.4237 8.54342C12.4237 7.72618 11.7296 7.01074 10.9253 7.01074C10.1211 7.01074 9.41699 7.72342 9.41699 8.53516C9.41699 8.96224 9.61766 9.24062 9.79576 9.48769C9.79897 9.49214 9.80216 9.49657 9.80535 9.501L9.80717 9.5035C9.99432 9.76109 10.1561 9.98382 10.1561 10.3788C10.1561 10.4366 10.1787 10.4943 10.2163 10.5356Z" fill="url(#paint2_linear_3514_40273)"/>
<path d="M10.3288 11.0138C10.2367 11.0647 10.1733 11.1615 10.1696 11.2735L10.1694 11.2841C10.1694 11.4545 10.3073 11.5927 10.4774 11.5927H11.4609C11.631 11.5927 11.7689 11.4545 11.7689 11.2841C11.7689 11.2742 11.7684 11.2643 11.7675 11.2546C11.7591 11.1656 11.7129 11.0876 11.6452 11.0369L11.6426 11.0349C11.5916 10.9976 11.5288 10.9756 11.4609 10.9756H10.4774C10.4269 10.9756 10.3792 10.9878 10.3371 11.0094L10.3288 11.0138Z" fill="url(#paint3_linear_3514_40273)"/>
<path fill-rule="evenodd" clip-rule="evenodd" d="M10.6915 4.92006C10.2944 4.91808 9.97312 4.59558 9.97312 4.19803V3.74499C9.97312 3.34622 10.2964 3.02295 10.6952 3.02295H11.1462C11.545 3.02295 11.8682 3.34622 11.8682 3.74499V4.19803C11.8682 4.5816 11.5692 4.89531 11.1915 4.91868L11.1915 5.92143C11.1915 6.0595 11.0796 6.17143 10.9415 6.17143C10.8034 6.17143 10.6915 6.0595 10.6915 5.92143L10.6915 4.92006ZM10.6952 4.29507C10.6416 4.29507 10.5981 4.25163 10.5981 4.19803V3.74499C10.5981 3.69139 10.6416 3.64795 10.6952 3.64795L11.1462 3.64795C11.1998 3.64795 11.2432 3.69139 11.2432 3.74499V4.19803C11.2432 4.25163 11.1998 4.29507 11.1462 4.29507H10.6952Z" fill="url(#paint4_linear_3514_40273)"/>
<path fill-rule="evenodd" clip-rule="evenodd" d="M7.92714 10.9229C7.92523 11.3201 7.6027 11.6414 7.20511 11.6414H6.75207C6.3533 11.6414 6.03003 11.3181 6.03003 10.9194V10.4683C6.03003 10.0696 6.3533 9.7463 6.75207 9.7463H7.20511C7.58863 9.7463 7.90231 10.0453 7.92575 10.4229L8.92897 10.4229C9.06704 10.4229 9.17897 10.5348 9.17897 10.6729C9.17897 10.811 9.06705 10.9229 8.92898 10.9229L7.92714 10.9229ZM7.30215 10.9194C7.30215 10.973 7.25871 11.0164 7.20511 11.0164H6.75207C6.69847 11.0164 6.65503 10.973 6.65503 10.9194L6.65503 10.4683C6.65503 10.4147 6.69847 10.3713 6.75207 10.3713H7.20511C7.25871 10.3713 7.30215 10.4147 7.30215 10.4683L7.30215 10.9194Z" fill="url(#paint5_linear_3514_40273)"/>
</g>
<defs>
<linearGradient id="paint0_linear_3514_40273" x1="1.44799" y1="2.2687" x2="13.6849" y2="14.7456" gradientUnits="userSpaceOnUse">
<stop stop-color="white"/>
<stop offset="1" stop-color="#EAECEE"/>
</linearGradient>
<linearGradient id="paint1_linear_3514_40273" x1="4.2629" y1="5.4122" x2="8.12535" y2="10.2655" gradientUnits="userSpaceOnUse">
<stop stop-color="#0195FF"/>
<stop offset="0.991028" stop-color="#1147E9"/>
</linearGradient>
<linearGradient id="paint2_linear_3514_40273" x1="9.86151" y1="7.68484" x2="12.8082" y2="9.62683" gradientUnits="userSpaceOnUse">
<stop stop-color="#1348FF"/>
<stop offset="1" stop-color="#06238D"/>
</linearGradient>
<linearGradient id="paint3_linear_3514_40273" x1="9.86151" y1="7.68484" x2="12.8082" y2="9.62683" gradientUnits="userSpaceOnUse">
<stop stop-color="#1348FF"/>
<stop offset="1" stop-color="#06238D"/>
</linearGradient>
<linearGradient id="paint4_linear_3514_40273" x1="6.90376" y1="4.316" x2="12.5065" y2="8.10865" gradientUnits="userSpaceOnUse">
<stop stop-color="#00BBFF"/>
<stop offset="1" stop-color="#008BFF"/>
</linearGradient>
<linearGradient id="paint5_linear_3514_40273" x1="6.90376" y1="4.316" x2="12.5065" y2="8.10865" gradientUnits="userSpaceOnUse">
<stop stop-color="#00BBFF"/>
<stop offset="1" stop-color="#008BFF"/>
</linearGradient>
<clipPath id="clip0_3514_40273">
<rect width="9.9998" height="10" fill="white" transform="translate(3.19702 2.39771)"/>
</clipPath>
</defs>
</svg>
