<svg width="16" height="16" viewBox="0 0 16 16" fill="none" xmlns="http://www.w3.org/2000/svg">
<circle cx="7.99786" cy="7.99762" r="7.85696" fill="url(#paint0_linear_3514_40270)" stroke="#D5DADD" stroke-width="0.285708"/>
<g clip-path="url(#clip0_3514_40270)">
<path d="M7.46114 3.5979C6.21813 3.5979 5.33497 4.60973 5.18783 5.66609C4.78798 5.68989 4.43492 5.84015 4.16071 6.09255C3.78974 6.43401 3.59814 6.92963 3.59814 7.45229C3.59814 7.93802 3.74549 8.39714 4.07627 8.73659C4.40929 9.07833 4.88208 9.25144 5.43878 9.25144H7.64137C7.61763 9.14819 7.60508 9.04067 7.60508 8.93021V8.38839C7.60508 7.60012 8.2441 6.96111 9.03236 6.96111H9.57178C9.97649 6.96111 10.3419 7.12955 10.6016 7.40016C10.8123 7.18068 11.0924 7.0284 11.4067 6.9787C11.3441 5.89007 10.5443 5.06759 9.58921 4.97737C9.19037 4.15262 8.45001 3.5979 7.46114 3.5979Z" fill="url(#paint1_linear_3514_40270)"/>
<path fill-rule="evenodd" clip-rule="evenodd" d="M10.971 10.88C10.971 10.4953 11.2718 10.1809 11.651 10.1592L11.651 9.73256H11.6313C11.1882 9.73256 10.829 9.37337 10.829 8.93028V8.38846C10.829 7.94537 11.1882 7.58618 11.6313 7.58618H12.1708C12.6138 7.58618 12.973 7.94538 12.973 8.38846V8.93028C12.973 9.37337 12.6138 9.73256 12.1707 9.73256H12.151L12.151 10.158C12.5466 10.1617 12.8661 10.4836 12.8661 10.88V11.3331C12.8661 11.7318 12.5428 12.0551 12.144 12.0551H11.693C11.2942 12.0551 10.971 11.7318 10.971 11.3331V10.88ZM11.596 10.88C11.596 10.8264 11.6394 10.783 11.693 10.783H12.144C12.1976 10.783 12.2411 10.8264 12.2411 10.88V11.3331C12.2411 11.3867 12.1976 11.4301 12.144 11.4301H11.693C11.6394 11.4301 11.596 11.3867 11.596 11.3331V10.88ZM11.6313 9.10756C11.5334 9.10756 11.454 9.02819 11.454 8.93028V8.38846C11.454 8.29055 11.5334 8.21118 11.6313 8.21118L12.1707 8.21118C12.2687 8.21118 12.348 8.29055 12.348 8.38846V8.93028C12.348 9.02819 12.2687 9.10756 12.1707 9.10756L11.6313 9.10756Z" fill="url(#paint2_linear_3514_40270)"/>
<path fill-rule="evenodd" clip-rule="evenodd" d="M8.3719 10.88C8.3719 10.4953 8.6727 10.1809 9.05192 10.1592L9.05192 9.73256H9.03226C8.58917 9.73256 8.22998 9.37337 8.22998 8.93028V8.38846C8.22998 7.94537 8.58918 7.58618 9.03226 7.58618H9.57168C10.0148 7.58618 10.374 7.94538 10.374 8.38846V8.93028C10.374 9.37337 10.0148 9.73256 9.57168 9.73256H9.55192L9.55192 10.158C9.9475 10.1617 10.267 10.4836 10.267 10.88V11.3331C10.267 11.7318 9.94375 12.0551 9.54498 12.0551H9.09394C8.69517 12.0551 8.3719 11.7318 8.3719 11.3331V10.88ZM8.9969 10.88C8.9969 10.8264 9.04034 10.783 9.09394 10.783H9.54498C9.59857 10.783 9.64202 10.8264 9.64202 10.88V11.3331C9.64202 11.3867 9.59857 11.4301 9.54498 11.4301H9.09394C9.04034 11.4301 8.9969 11.3867 8.9969 11.3331V10.88ZM9.03226 9.10756C8.93435 9.10756 8.85498 9.02819 8.85498 8.93028V8.38846C8.85498 8.29055 8.93435 8.21118 9.03226 8.21118L9.57168 8.21118C9.66959 8.21118 9.74896 8.29055 9.74896 8.38846V8.93028C9.74896 9.02819 9.66959 9.10756 9.57168 9.10756L9.03226 9.10756Z" fill="url(#paint3_linear_3514_40270)"/>
</g>
<defs>
<linearGradient id="paint0_linear_3514_40270" x1="1.44897" y1="2.2687" x2="13.6859" y2="14.7456" gradientUnits="userSpaceOnUse">
<stop stop-color="white"/>
<stop offset="1" stop-color="#EAECEE"/>
</linearGradient>
<linearGradient id="paint1_linear_3514_40270" x1="4.76868" y1="4.44335" x2="8.52904" y2="9.6389" gradientUnits="userSpaceOnUse">
<stop stop-color="#0195FF"/>
<stop offset="0.991028" stop-color="#1147E9"/>
</linearGradient>
<linearGradient id="paint2_linear_3514_40270" x1="8.93121" y1="8.24366" x2="12.0524" y2="11.5706" gradientUnits="userSpaceOnUse">
<stop stop-color="#1348FF"/>
<stop offset="1" stop-color="#06238D"/>
</linearGradient>
<linearGradient id="paint3_linear_3514_40270" x1="8.93121" y1="8.24366" x2="12.0524" y2="11.5706" gradientUnits="userSpaceOnUse">
<stop stop-color="#1348FF"/>
<stop offset="1" stop-color="#06238D"/>
</linearGradient>
<clipPath id="clip0_3514_40270">
<rect width="10" height="10" fill="white" transform="matrix(-1 0 0 1 13.5981 3.5979)"/>
</clipPath>
</defs>
</svg>
