<svg width="16" height="16" viewBox="0 0 16 16" fill="none" xmlns="http://www.w3.org/2000/svg">
<circle cx="7.9964" cy="7.99762" r="7.85696" fill="url(#paint0_linear_3514_40274)" stroke="#D5DADD" stroke-width="0.285708"/>
<g clip-path="url(#clip0_3514_40274)">
<path d="M7.25997 3.19775C6.01695 3.19775 5.1338 4.21086 4.98666 5.26856C4.58681 5.29239 4.23375 5.44285 3.95954 5.69557C3.58857 6.03745 3.39697 6.5337 3.39697 7.05702C3.39697 7.54337 3.54431 8.00307 3.8751 8.34295C4.20812 8.68512 4.68091 8.85845 5.23761 8.85845H7.01125L7.01125 8.83763C7.01126 7.76758 7.87869 6.90014 8.94872 6.90014H9.57366C9.96132 6.90014 10.294 7.13543 10.4367 7.471C10.5674 7.16381 10.8573 6.94066 11.2027 6.90511C11.2072 6.84479 11.2095 6.78332 11.2095 6.72073C11.2095 5.56287 10.383 4.67308 9.38804 4.57897C8.9892 3.75317 8.24884 3.19775 7.25997 3.19775Z" fill="url(#paint1_linear_3514_40274)"/>
<path d="M9.57341 13.0086C9.746 13.0086 9.88591 12.8686 9.88591 12.696C9.88591 12.5235 9.746 12.3835 9.57341 12.3835H8.94847C8.56878 12.3835 8.26099 12.0757 8.26099 11.6961L8.26098 11.0711C8.26098 10.8985 8.12107 10.7586 7.94848 10.7586C7.77589 10.7586 7.63599 10.8985 7.63599 11.0711L7.63599 11.6961C7.636 12.4209 8.22361 13.0086 8.94847 13.0086H9.57341Z" fill="url(#paint2_linear_3514_40274)"/>
<path d="M11.2996 7.52515C11.127 7.52515 10.9871 7.66506 10.9871 7.83765C10.9871 8.01024 11.127 8.15015 11.2996 8.15015L11.9245 8.15015C12.3042 8.15015 12.612 8.45795 12.612 8.83764L12.612 9.46261C12.612 9.6352 12.7519 9.77511 12.9245 9.77511C13.0971 9.77511 13.237 9.63519 13.237 9.4626L13.237 8.83764C13.237 8.11277 12.6494 7.52515 11.9245 7.52515L11.2996 7.52515Z" fill="url(#paint3_linear_3514_40274)"/>
<path d="M10.9872 12.696C10.9872 12.8686 11.1272 13.0086 11.2997 13.0086L11.9247 13.0086C12.6495 13.0086 13.2372 12.4209 13.2372 11.6961L13.2372 11.0711C13.2372 10.8985 13.0973 10.7586 12.9247 10.7586C12.7521 10.7586 12.6122 10.8985 12.6122 11.0711L12.6122 11.6961C12.6122 12.0757 12.3044 12.3835 11.9247 12.3835H11.2997C11.1272 12.3835 10.9872 12.5235 10.9872 12.696Z" fill="url(#paint4_linear_3514_40274)"/>
<path d="M9.57341 7.52515C9.746 7.52515 9.88591 7.66506 9.88591 7.83765C9.88591 8.01024 9.746 8.15015 9.57341 8.15015H8.94847C8.56878 8.15015 8.26099 8.45795 8.26099 8.83764L8.26098 9.46261C8.26098 9.6352 8.12107 9.77511 7.94848 9.77511C7.77589 9.77511 7.63598 9.63519 7.63599 9.4626L7.63599 8.83764C7.636 8.11277 8.22361 7.52515 8.94847 7.52515H9.57341Z" fill="url(#paint5_linear_3514_40274)"/>
<path d="M11.6955 9.01329C11.5747 8.89252 11.3904 8.87028 11.2474 8.95926L10.0207 9.65524C9.95713 9.69337 9.89993 9.7474 9.86179 9.81414L9.12768 11.0663C9.03869 11.2124 9.05776 11.3968 9.17853 11.5207C9.24844 11.5938 9.34378 11.6288 9.43912 11.6288C9.50586 11.6288 9.56942 11.6097 9.6298 11.5747L10.8851 10.8152C10.9518 10.7739 11.0059 10.7199 11.044 10.6531L11.7495 9.46456C11.8353 9.31837 11.8131 9.13405 11.6923 9.01647L11.6955 9.01329ZM10.4402 10.5832C10.2654 10.5832 10.1192 10.437 10.1192 10.2622C10.1192 10.0874 10.2622 9.92537 10.437 9.92537C10.6118 9.92537 10.7548 10.0874 10.7548 10.2622C10.7548 10.437 10.6118 10.5832 10.437 10.5832H10.4402Z" fill="url(#paint6_linear_3514_40274)"/>
</g>
<defs>
<linearGradient id="paint0_linear_3514_40274" x1="1.4475" y1="2.2687" x2="13.6844" y2="14.7456" gradientUnits="userSpaceOnUse">
<stop stop-color="white"/>
<stop offset="1" stop-color="#EAECEE"/>
</linearGradient>
<linearGradient id="paint1_linear_3514_40274" x1="4.5681" y1="4.04428" x2="8.33411" y2="9.24368" gradientUnits="userSpaceOnUse">
<stop stop-color="#0195FF"/>
<stop offset="0.991028" stop-color="#1147E9"/>
</linearGradient>
<linearGradient id="paint2_linear_3514_40274" x1="8.47425" y1="8.34783" x2="12.3129" y2="12.2662" gradientUnits="userSpaceOnUse">
<stop stop-color="#00BBFF"/>
<stop offset="1" stop-color="#008BFF"/>
</linearGradient>
<linearGradient id="paint3_linear_3514_40274" x1="8.47425" y1="8.34783" x2="12.3129" y2="12.2662" gradientUnits="userSpaceOnUse">
<stop stop-color="#00BBFF"/>
<stop offset="1" stop-color="#008BFF"/>
</linearGradient>
<linearGradient id="paint4_linear_3514_40274" x1="8.47425" y1="8.34783" x2="12.3129" y2="12.2662" gradientUnits="userSpaceOnUse">
<stop stop-color="#00BBFF"/>
<stop offset="1" stop-color="#008BFF"/>
</linearGradient>
<linearGradient id="paint5_linear_3514_40274" x1="8.47425" y1="8.34783" x2="12.3129" y2="12.2662" gradientUnits="userSpaceOnUse">
<stop stop-color="#00BBFF"/>
<stop offset="1" stop-color="#008BFF"/>
</linearGradient>
<linearGradient id="paint6_linear_3514_40274" x1="9.47572" y1="9.30575" x2="11.3819" y2="11.2238" gradientUnits="userSpaceOnUse">
<stop stop-color="#1348FF"/>
<stop offset="1" stop-color="#06238D"/>
</linearGradient>
<clipPath id="clip0_3514_40274">
<rect width="9.9998" height="10" fill="white" transform="translate(3.39648 3.19775)"/>
</clipPath>
</defs>
</svg>
