<svg width="16" height="16" viewBox="0 0 16 16" fill="none" xmlns="http://www.w3.org/2000/svg">
<circle cx="7.99762" cy="7.99762" r="7.85696" fill="url(#paint0_linear_3514_40271)" stroke="#D5DADD" stroke-width="0.285708"/>
<g clip-path="url(#clip0_3514_40271)">
<path d="M7.26095 3.39771C6.01793 3.39771 5.13477 4.40953 4.98763 5.46589C4.58779 5.48969 4.23473 5.63996 3.96051 5.89236C3.58955 6.23381 3.39795 6.72943 3.39795 7.25209C3.39795 7.73782 3.54529 8.19694 3.87608 8.53639C4.2091 8.87813 4.68189 9.05124 5.23858 9.05124H6.21841C6.32208 8.48142 6.82092 8.04938 7.42066 8.04938H7.75784C7.76974 8.04938 7.7816 8.04955 7.79341 8.04988C7.77464 7.96475 7.76474 7.87629 7.76474 7.78551V7.44651C7.76474 6.7716 8.31187 6.22447 8.98678 6.22447H9.32395C9.99886 6.22447 10.546 6.7716 10.546 7.44651V7.72942C10.7073 7.53976 10.9255 7.4 11.1742 7.33653C11.198 7.20285 11.2104 7.0626 11.2104 6.91622C11.2104 5.75983 10.384 4.87116 9.38901 4.77717C8.99017 3.95242 8.24982 3.39771 7.26095 3.39771Z" fill="url(#paint1_linear_3514_40271)"/>
<path fill-rule="evenodd" clip-rule="evenodd" d="M9.3237 6.72461C9.72247 6.72461 10.0457 7.04788 10.0457 7.44665V7.78565C10.0457 8.00895 9.94437 8.20857 9.78514 8.34102L9.95223 9.00366H9.97633C10.0461 9.00366 10.1118 9.0211 10.1693 9.05187L10.755 8.75468V8.52087C10.755 8.1221 11.0783 7.79883 11.4771 7.79883H11.8142C12.213 7.79883 12.5363 8.1221 12.5363 8.52087V8.85987C12.5363 9.25864 12.213 9.5819 11.8142 9.5819H11.4771C11.2702 9.5819 11.0837 9.49493 10.9521 9.35555L10.3859 9.64281V9.7144L10.3878 9.71151L10.8168 9.99263C10.9405 9.89322 11.0977 9.83374 11.2688 9.83374H11.7198C12.1186 9.83374 12.4418 10.157 12.4418 10.5558V11.0088C12.4418 11.4076 12.1186 11.7309 11.7198 11.7309H11.2688C10.87 11.7309 10.5467 11.4076 10.5467 11.0088V10.5629L10.1599 10.3094C10.1047 10.3372 10.0423 10.3528 9.97633 10.3528H9.64274L8.97325 11.2518C9.02204 11.349 9.0495 11.4588 9.0495 11.5751V11.9141C9.0495 12.3128 8.72623 12.6361 8.32746 12.6361H7.99029C7.59152 12.6361 7.26825 12.3128 7.26825 11.9141L7.26825 11.5751C7.26825 11.1763 7.59152 10.853 7.99029 10.853H8.32746C8.37946 10.853 8.43018 10.8585 8.47906 10.869L9.06225 10.0859C9.04575 10.0415 9.03674 9.99341 9.03674 9.94325V9.83739L8.4434 9.8374C8.3483 10.1251 8.07724 10.3326 7.7577 10.3326H7.42052C7.02175 10.3326 6.69849 10.0094 6.69849 9.6106L6.69849 9.2716C6.69849 8.87283 7.02175 8.54956 7.42052 8.54956H7.7577C8.13654 8.54956 8.44723 8.84132 8.47734 9.2124L9.08926 9.21239C9.13815 9.12567 9.21772 9.05855 9.31324 9.02575L9.1826 8.50768H8.98652C8.58775 8.50768 8.26448 8.18442 8.26448 7.78565V7.44665C8.26448 7.04788 8.58775 6.72461 8.98652 6.72461H9.3237ZM9.42073 7.44665C9.42073 7.39306 9.37729 7.34961 9.3237 7.34961L8.98652 7.34961C8.93293 7.34961 8.88948 7.39305 8.88948 7.44665V7.78565C8.88948 7.83924 8.93293 7.88268 8.98652 7.88268H9.3237C9.37729 7.88268 9.42073 7.83924 9.42073 7.78565V7.44665ZM11.9113 8.52087C11.9113 8.46727 11.8678 8.42383 11.8142 8.42383H11.4771C11.4235 8.42383 11.38 8.46727 11.38 8.52087V8.85986C11.38 8.91346 11.4235 8.9569 11.4771 8.9569H11.8142C11.8678 8.9569 11.9113 8.91346 11.9113 8.85986V8.52087ZM11.8168 10.5558C11.8168 10.5022 11.7734 10.4587 11.7198 10.4587H11.2688C11.2152 10.4587 11.1717 10.5022 11.1717 10.5558V11.0088C11.1717 11.0624 11.2152 11.1059 11.2688 11.1059H11.7198C11.7734 11.1059 11.8168 11.0624 11.8168 11.0088V10.5558ZM7.7577 9.17456C7.81129 9.17456 7.85474 9.21801 7.85474 9.2716V9.6106C7.85474 9.66419 7.81129 9.70764 7.7577 9.70764H7.42052C7.36693 9.70764 7.32349 9.66419 7.32349 9.6106V9.2716C7.32349 9.21801 7.36693 9.17456 7.42052 9.17456H7.7577ZM8.4245 11.5751C8.4245 11.5215 8.38105 11.478 8.32746 11.478H7.99029C7.93669 11.478 7.89325 11.5215 7.89325 11.5751V11.9141C7.89325 11.9677 7.9367 12.0111 7.99029 12.0111H8.32746C8.38105 12.0111 8.4245 11.9677 8.4245 11.9141V11.5751Z" fill="url(#paint2_radial_3514_40271)"/>
</g>
<defs>
<linearGradient id="paint0_linear_3514_40271" x1="1.44873" y1="2.2687" x2="13.6856" y2="14.7456" gradientUnits="userSpaceOnUse">
<stop stop-color="white"/>
<stop offset="1" stop-color="#EAECEE"/>
</linearGradient>
<linearGradient id="paint1_linear_3514_40271" x1="4.56908" y1="4.24316" x2="8.32884" y2="9.4405" gradientUnits="userSpaceOnUse">
<stop stop-color="#0195FF"/>
<stop offset="0.991028" stop-color="#1147E9"/>
</linearGradient>
<radialGradient id="paint2_radial_3514_40271" cx="0" cy="0" r="1" gradientUnits="userSpaceOnUse" gradientTransform="translate(7.60246 7.6139) rotate(45.3594) scale(5.78724 5.27328)">
<stop stop-color="#1348FF"/>
<stop offset="1" stop-color="#06238D"/>
</radialGradient>
<clipPath id="clip0_3514_40271">
<rect width="10" height="10" fill="white" transform="translate(3.39771 3.39771)"/>
</clipPath>
</defs>
</svg>
