<svg width="16" height="16" viewBox="0 0 16 16" fill="none" xmlns="http://www.w3.org/2000/svg">
<circle cx="7.99738" cy="7.99738" r="7.85696" fill="url(#paint0_linear_3890_21535)" stroke="#D5DADD" stroke-width="0.285708"/>
<g clip-path="url(#clip0_3890_21535)">
<path d="M7.60408 8.89864L7.75731 9.06406L7.97527 9.00629C8.13333 8.96439 8.26756 8.87854 8.37829 8.76781C8.54271 8.60339 8.64437 8.39414 8.64437 8.15108C8.64437 8.10938 8.64138 8.06868 8.63559 8.02902C8.67525 8.03481 8.71595 8.03781 8.75766 8.03781C9.00071 8.03781 9.20996 7.93615 9.37438 7.77172C9.53881 7.6073 9.64047 7.39805 9.64047 7.15499C9.64047 6.91194 9.53881 6.70269 9.37438 6.53827L9.3744 6.53825L9.37145 6.53537L8.74404 5.9216L8.8861 5.77954L8.6504 5.54384L8.8861 5.77954C9.04837 5.61727 9.13266 5.41088 9.13266 5.18235C9.13266 4.95177 9.0557 4.73522 8.8861 4.56562L8.43688 4.1164C7.99726 3.67678 7.46828 3.43264 6.8628 3.40159C6.37668 3.37667 5.92707 3.4896 5.52245 3.73527L4.50587 2.69213L4.50589 2.69211L4.50247 2.68869C4.33804 2.52427 4.12879 2.42261 3.88574 2.42261C3.64505 2.42261 3.44398 2.53326 3.28855 2.68869C3.12412 2.85312 3.02246 3.06237 3.02246 3.30542C3.02246 3.54754 3.12334 3.75612 3.28666 3.92025L4.31516 4.97562C4.0868 5.37865 3.98319 5.82123 4.00817 6.2958L4.0082 6.29633C4.03978 6.88054 4.28751 7.39487 4.72296 7.83032L4.72289 7.83038L4.72891 7.83614L5.1 8.19109L5.25728 8.34153L5.46592 8.27959C5.65435 8.22366 5.84926 8.19519 6.04898 8.19519C6.48133 8.19519 6.88192 8.32865 7.23694 8.57812C7.37255 8.67342 7.49479 8.78066 7.60408 8.89864Z" fill="url(#paint1_linear_3890_21535)" stroke="#F4F4F4" stroke-width="0.75"/>
<path d="M9.76289 12.0982C10.253 12.1108 10.7032 11.979 11.106 11.7122L12.2612 12.8674C12.4167 13.0229 12.6177 13.1335 12.8584 13.1335C13.1015 13.1335 13.3107 13.0319 13.4752 12.8674C13.6396 12.703 13.7412 12.4938 13.7412 12.2507C13.7412 12.0105 13.6311 11.8098 13.4761 11.6545L12.3131 10.4751C12.557 10.0861 12.6714 9.65471 12.6472 9.1888C12.6302 8.59216 12.3901 8.06847 11.9517 7.6301L11.5025 7.18088C11.3381 7.01645 11.1288 6.91479 10.8858 6.91479C10.6427 6.91479 10.4335 7.01645 10.2691 7.18088L8.45114 8.99879L8.14635 9.30358L8.49039 9.56326C8.6158 9.65793 8.72916 9.76793 8.82972 9.89229L8.82969 9.89232L8.8332 9.89654C8.9912 10.0862 9.11106 10.301 9.19532 10.535C9.28404 10.7815 9.32548 11.0402 9.32548 11.306C9.32548 11.4258 9.31684 11.5439 9.29943 11.6601L9.24109 12.0497L9.63303 12.0888C9.6729 12.0928 9.71299 12.0958 9.7533 12.0979L9.75329 12.098L9.76289 12.0982Z" fill="url(#paint2_linear_3890_21535)" stroke="#F4F4F4" stroke-width="0.75"/>
<path d="M4.52645 12.7977H7.35411C7.54055 12.7977 7.71663 12.7597 7.88235 12.6837C8.04808 12.6078 8.18963 12.5042 8.30702 12.373C8.43131 12.2349 8.52799 12.0761 8.59704 11.8966C8.66609 11.7101 8.70061 11.5133 8.70061 11.3062C8.70061 11.1059 8.66954 10.9195 8.6074 10.7468C8.54525 10.5742 8.45893 10.4223 8.34845 10.2911C8.23797 10.153 8.10677 10.0425 7.95486 9.95966C7.80295 9.8768 7.64067 9.82846 7.46805 9.81465C7.32994 9.51083 7.13315 9.26915 6.87766 9.08961C6.62217 8.91008 6.34596 8.82031 6.04904 8.82031C5.85569 8.82031 5.66925 8.85829 5.48972 8.93425C5.31709 9.0102 5.16173 9.11378 5.02362 9.24498C4.88552 9.37618 4.77159 9.535 4.68182 9.72143C4.59205 9.90097 4.52991 10.0943 4.49538 10.3015C4.34347 10.3015 4.19846 10.336 4.06036 10.405C3.92916 10.4672 3.81522 10.557 3.71855 10.6743C3.62188 10.7848 3.54247 10.916 3.48032 11.0679C3.42508 11.2199 3.39746 11.3787 3.39746 11.5444C3.39746 11.717 3.42508 11.8793 3.48032 12.0312C3.54247 12.1831 3.62533 12.3178 3.72891 12.4352C3.83249 12.5456 3.95333 12.6354 4.09143 12.7045C4.22953 12.7666 4.37454 12.7977 4.52645 12.7977Z" fill="url(#paint3_linear_3890_21535)"/>
</g>
<defs>
<linearGradient id="paint0_linear_3890_21535" x1="1.44848" y1="2.26845" x2="13.6854" y2="14.7453" gradientUnits="userSpaceOnUse">
<stop stop-color="white"/>
<stop offset="1" stop-color="#EAECEE"/>
</linearGradient>
<linearGradient id="paint1_linear_3890_21535" x1="4.2771" y1="3.67187" x2="8.37055" y2="7.78202" gradientUnits="userSpaceOnUse">
<stop stop-color="#0195FF"/>
<stop offset="0.991028" stop-color="#1147E9"/>
</linearGradient>
<linearGradient id="paint2_linear_3890_21535" x1="9.41335" y1="8.10761" x2="13.1929" y2="11.3224" gradientUnits="userSpaceOnUse">
<stop stop-color="#0195FF"/>
<stop offset="0.991028" stop-color="#1147E9"/>
</linearGradient>
<linearGradient id="paint3_linear_3890_21535" x1="4.1815" y1="9.40547" x2="6.85048" y2="12.9794" gradientUnits="userSpaceOnUse">
<stop stop-color="#1348FF"/>
<stop offset="1" stop-color="#06238D"/>
</linearGradient>
<clipPath id="clip0_3890_21535">
<rect width="10" height="10" fill="white" transform="translate(3.39746 2.79761)"/>
</clipPath>
</defs>
</svg>
