<svg width="16" height="16" viewBox="0 0 16 16" fill="none" xmlns="http://www.w3.org/2000/svg">
<circle cx="7.99542" cy="7.99762" r="7.85696" fill="url(#paint0_linear_3514_40277)" stroke="#D5DADD" stroke-width="0.285708"/>
<g clip-path="url(#clip0_3514_40277)">
<path d="M7.15889 3.39771C5.91588 3.39771 5.03272 4.41081 4.88558 5.46851C4.48574 5.49234 4.13267 5.6428 3.85846 5.89552C3.4875 6.2374 3.2959 6.73365 3.2959 7.25697C3.2959 7.74332 3.44324 8.20302 3.77403 8.5429C4.10705 8.88507 4.57984 9.0584 5.13653 9.0584H5.8088C5.7548 8.76297 5.84342 8.44684 6.07372 8.22043L7.46186 6.85576C7.83108 6.49278 8.42465 6.49784 8.78763 6.86706C9.03102 7.11463 9.10893 7.46307 9.02255 7.77522L9.15781 7.86929C9.47335 7.61518 9.80072 7.5115 9.92316 7.47577C10.1417 7.41199 10.3789 7.39801 10.5526 7.39877C10.5596 7.3988 10.567 7.39952 10.5744 7.40024C10.5985 7.4026 10.6227 7.40495 10.6336 7.38288C10.5623 7.08002 10.6433 6.74832 10.8775 6.51006C10.929 6.45768 10.9851 6.41264 11.0446 6.37493C10.8328 5.49235 10.1187 4.85759 9.28696 4.77892C8.88812 3.95313 8.14777 3.39771 7.15889 3.39771Z" fill="url(#paint1_linear_3514_40277)"/>
<path fill-rule="evenodd" clip-rule="evenodd" d="M11.3716 6.99137C11.4925 6.8683 11.6904 6.86661 11.8135 6.9876L13.2016 8.35227C13.3247 8.47327 13.3264 8.67112 13.2054 8.7942C13.0844 8.91727 12.8865 8.91896 12.7635 8.79797L11.3753 7.4333C11.2522 7.3123 11.2506 7.11444 11.3716 6.99137ZM8.39028 7.34838C8.51127 7.47145 8.50959 7.66931 8.38651 7.7903L6.99838 9.15497C6.8753 9.27596 6.67744 9.27428 6.55645 9.1512C6.43546 9.02813 6.43714 8.83027 6.56022 8.70928L7.94835 7.34461C8.07143 7.22361 8.26929 7.2253 8.39028 7.34838ZM12.3895 10.1095L12.3899 10.1085L12.3909 10.1061C12.4287 10.0095 12.4523 9.90674 12.4644 9.80393C12.4839 9.63752 12.4789 9.38741 12.3306 9.15677C12.2632 9.05209 12.1595 8.9416 12.0559 8.84267C11.9481 8.73976 11.8238 8.6338 11.7017 8.53724C11.5796 8.44069 11.456 8.35056 11.3487 8.27993C11.2523 8.2165 11.1495 8.14933 11.0373 8.11795C10.9097 8.08222 10.7459 8.06757 10.5982 8.06692C10.4512 8.06628 10.2822 8.07931 10.1466 8.1189C9.94443 8.17789 9.23422 8.42261 9.14489 9.2399C9.11827 9.48343 9.12729 9.69053 9.1356 9.88126C9.13719 9.91764 9.13875 9.95342 9.14003 9.98874C9.14806 10.2102 9.14815 10.4482 9.09095 10.7869C9.07675 10.8709 9.09751 10.9571 9.14843 11.0255C9.19934 11.0939 9.27598 11.1385 9.36059 11.149C9.60317 11.1791 9.82447 11.1606 10.0052 11.0463C10.1894 10.9299 10.2693 10.7529 10.315 10.6165C10.3585 10.4866 10.3849 10.3518 10.4234 10.2347C10.4601 10.1229 10.5063 10.0267 10.5817 9.94183C10.7728 9.72677 11.0812 9.6881 11.251 9.79735C11.41 9.8996 11.5775 10.0121 11.7059 10.0996C11.7779 10.1486 11.8495 10.198 11.9211 10.2476C11.9988 10.3019 12.0972 10.3181 12.1882 10.2914C12.2787 10.2648 12.3538 10.1968 12.3895 10.1095Z" fill="url(#paint2_linear_3514_40277)"/>
<path d="M8.33435 9.49336C8.47231 9.39006 8.50059 9.1945 8.39747 9.05633C8.29425 8.91801 8.09844 8.88956 7.96012 8.99278L7.95911 8.99354L7.95771 8.99459C7.90545 9.03445 7.85468 9.07732 7.77597 9.15476C7.67577 9.25333 7.54575 9.39827 7.43143 9.58154C7.20132 9.95042 7.02119 10.5038 7.32083 11.1256C7.50077 11.4991 7.80836 11.8235 8.09731 12.1145C8.38327 12.4026 8.68228 12.6679 8.96104 12.9517C8.97141 12.9623 8.98251 12.9721 8.99427 12.9811C9.30904 13.2216 9.70343 13.1983 9.96537 12.9896C10.0544 12.9187 10.1279 12.8261 10.1755 12.7174C10.3639 12.7446 10.5531 12.7012 10.7113 12.5923C10.8361 12.5064 10.9352 12.3819 10.9881 12.2328C11.2484 12.3143 11.5098 12.29 11.7282 12.1153C12.0043 11.8944 12.0943 11.5488 11.9805 11.2172C11.881 10.9273 11.6459 10.6457 11.3608 10.3902C11.2323 10.275 11.0347 10.2858 10.9195 10.4144C10.8043 10.5429 10.8151 10.7405 10.9437 10.8557C11.2015 11.0868 11.3417 11.2814 11.3893 11.4201C11.4188 11.5061 11.4102 11.5693 11.3378 11.6272C11.3112 11.6485 11.2822 11.6624 11.2087 11.6456C11.1179 11.6248 10.9827 11.5595 10.7912 11.4174C10.6677 11.3257 10.4959 11.3376 10.3862 11.4453C10.2764 11.553 10.2613 11.7246 10.3506 11.8498C10.4068 11.9285 10.4075 11.9814 10.4035 12.0061C10.3944 12.0618 10.3359 12.1119 10.2573 12.0975C10.2205 12.0908 10.1583 12.0652 10.0894 11.9763C9.9883 11.8457 9.80306 11.8164 9.66656 11.9093C9.53005 12.0022 9.4894 12.1853 9.57375 12.3273C9.6051 12.38 9.63273 12.4555 9.57588 12.5008C9.53978 12.5295 9.46882 12.5483 9.38829 12.4949C9.25053 12.3554 9.10735 12.2193 8.96775 12.0869L8.9513 12.0713C8.80986 11.9371 8.67235 11.8067 8.54085 11.6742C8.269 11.4004 8.03853 11.1331 7.88046 10.8472C7.70974 10.4862 7.8018 10.1687 7.96171 9.91233C8.05999 9.75479 8.18761 9.6082 8.33435 9.49336Z" fill="url(#paint3_linear_3514_40277)"/>
</g>
<defs>
<linearGradient id="paint0_linear_3514_40277" x1="1.44653" y1="2.2687" x2="13.6835" y2="14.7456" gradientUnits="userSpaceOnUse">
<stop stop-color="white"/>
<stop offset="1" stop-color="#EAECEE"/>
</linearGradient>
<linearGradient id="paint1_linear_3514_40277" x1="4.45746" y1="4.24423" x2="8.233" y2="9.41421" gradientUnits="userSpaceOnUse">
<stop stop-color="#0195FF"/>
<stop offset="0.991028" stop-color="#1147E9"/>
</linearGradient>
<linearGradient id="paint2_linear_3514_40277" x1="7.47631" y1="7.81833" x2="11.8361" y2="12.5975" gradientUnits="userSpaceOnUse">
<stop stop-color="#1348FF"/>
<stop offset="1" stop-color="#06238D"/>
</linearGradient>
<linearGradient id="paint3_linear_3514_40277" x1="7.47631" y1="7.81833" x2="11.8361" y2="12.5975" gradientUnits="userSpaceOnUse">
<stop stop-color="#1348FF"/>
<stop offset="1" stop-color="#06238D"/>
</linearGradient>
<clipPath id="clip0_3514_40277">
<rect width="9.9998" height="9.7561" fill="white" transform="translate(3.29541 3.39771)"/>
</clipPath>
</defs>
</svg>
