<svg width="16" height="16" viewBox="0 0 16 16" fill="none" xmlns="http://www.w3.org/2000/svg">
<circle cx="7.99591" cy="7.99762" r="7.85696" fill="url(#paint0_linear_3514_40276)" stroke="#D5DADD" stroke-width="0.285708"/>
<g clip-path="url(#clip0_3514_40276)">
<path d="M9.89887 6.16162C8.12727 6.33516 6.74297 7.82904 6.74297 9.64624C6.74297 9.70009 6.74418 9.75367 6.74659 9.80693C6.70461 9.80075 6.66166 9.79754 6.61796 9.79754L6.06265 9.79755C5.83021 9.39313 5.39407 9.12093 4.89412 9.12093H4.44107C4.09062 9.12093 3.77143 9.25476 3.53181 9.4741C3.51218 9.4559 3.49298 9.43717 3.47422 9.4179C3.14343 9.07802 2.99609 8.61832 2.99609 8.13197C2.99609 7.60865 3.18769 7.1124 3.55866 6.77052C3.83287 6.5178 4.18593 6.36734 4.58578 6.34351C4.73292 5.28581 5.61608 4.27271 6.85909 4.27271C7.84796 4.27271 8.58832 4.82813 8.98716 5.65392C9.30469 5.68395 9.60505 5.79502 9.86687 5.96998C9.87047 6.03608 9.8814 6.10023 9.89887 6.16162Z" fill="url(#paint1_linear_3514_40276)"/>
<path fill-rule="evenodd" clip-rule="evenodd" d="M10.4906 4.92006C10.0935 4.91808 9.7722 4.59558 9.7722 4.19803V3.74499C9.7722 3.34622 10.0955 3.02295 10.4942 3.02295H10.9453C11.344 3.02295 11.6673 3.34622 11.6673 3.74499V4.19803C11.6673 4.5816 11.3682 4.89531 10.9906 4.91868L10.9906 5.92143C10.9906 6.0595 10.8786 6.17143 10.7406 6.17143C10.6025 6.17143 10.4906 6.0595 10.4906 5.92143L10.4906 4.92006ZM10.4942 4.29507C10.4406 4.29507 10.3972 4.25163 10.3972 4.19803V3.74499C10.3972 3.69139 10.4406 3.64795 10.4942 3.64795L10.9453 3.64795C10.9989 3.64795 11.0423 3.69139 11.0423 3.74499V4.19803C11.0423 4.25163 10.9989 4.29507 10.9453 4.29507H10.4942Z" fill="url(#paint2_linear_3514_40276)"/>
<path fill-rule="evenodd" clip-rule="evenodd" d="M5.61635 10.9229C5.61444 11.3201 5.29191 11.6414 4.89432 11.6414H4.44128C4.04251 11.6414 3.71924 11.3182 3.71924 10.9194V10.4683C3.71924 10.0696 4.04251 9.7463 4.44128 9.7463H4.89432C5.27784 9.7463 5.59152 10.0453 5.61496 10.4229L6.61818 10.4229C6.75625 10.4229 6.86818 10.5348 6.86818 10.6729C6.86818 10.811 6.75626 10.9229 6.61818 10.9229L5.61635 10.9229ZM4.99136 10.9194C4.99136 10.973 4.94792 11.0164 4.89432 11.0164H4.44128C4.38768 11.0164 4.34424 10.973 4.34424 10.9194L4.34424 10.4683C4.34424 10.4147 4.38768 10.3713 4.44128 10.3713H4.89432C4.94792 10.3713 4.99136 10.4147 4.99136 10.4683L4.99136 10.9194Z" fill="url(#paint3_linear_3514_40276)"/>
<path fill-rule="evenodd" clip-rule="evenodd" d="M10.2446 6.89478C8.72504 6.89478 7.49316 8.12665 7.49316 9.64624C7.49316 11.1658 8.72504 12.3977 10.2446 12.3977C11.7642 12.3977 12.9961 11.1658 12.9961 9.64624C12.9961 8.12665 11.7642 6.89478 10.2446 6.89478ZM9.5705 7.76114C9.07932 7.93681 8.67684 8.299 8.44839 8.76239C8.70431 8.80464 8.94368 8.83855 9.17377 8.86407C9.22358 8.59688 9.29444 8.34448 9.38591 8.12197C9.43623 7.99955 9.49743 7.87611 9.5705 7.76114ZM8.24316 9.64624C8.24316 9.55078 8.24985 9.45688 8.26277 9.36498C8.55843 9.41508 8.83355 9.45486 9.0974 9.4843C9.08991 9.60154 9.08615 9.71938 9.08615 9.83671C9.08615 9.92368 9.08933 10.0107 9.09538 10.0974C8.82507 10.0691 8.55046 10.0289 8.27015 9.97568C8.2524 9.8685 8.24316 9.75845 8.24316 9.64624ZM8.51376 10.6519C8.72601 11.0164 9.05013 11.3078 9.43908 11.479C9.43061 11.4605 9.42229 11.4418 9.4141 11.423C9.32511 11.2185 9.24786 10.9842 9.19072 10.7345C8.96797 10.7148 8.74253 10.6874 8.51376 10.6519ZM9.84493 10.7712C9.88583 10.9159 9.93418 11.0518 9.9872 11.1737C10.0622 11.346 10.1413 11.4784 10.2125 11.5655C10.2919 11.475 10.3814 11.3357 10.4662 11.1555C10.523 11.0348 10.5752 10.9011 10.6197 10.7594C10.3637 10.7731 10.1058 10.7773 9.84493 10.7712ZM11.2843 10.7027C11.2198 10.9639 11.1318 11.2089 11.0317 11.4215C11.0187 11.4493 11.0054 11.4766 10.9917 11.5036C11.427 11.3284 11.7864 11.0046 12.0073 10.5951C11.7665 10.6384 11.5259 10.6746 11.2843 10.7027ZM12.2281 9.91548C11.947 9.97406 11.6675 10.0226 11.3877 10.06C11.3935 9.97912 11.3966 9.89801 11.3966 9.81702C11.3966 9.70314 11.3938 9.58827 11.3881 9.47354C11.6502 9.44354 11.9266 9.40435 12.2252 9.35599C12.239 9.45075 12.2461 9.54766 12.2461 9.64624C12.2461 9.73754 12.24 9.82742 12.2281 9.91548ZM10.7542 10.1249C10.415 10.1489 10.0733 10.1553 9.72622 10.1423C9.71641 10.0408 9.71115 9.9385 9.71115 9.83671C9.71115 9.73559 9.71429 9.63489 9.7204 9.53547C10.0676 9.55302 10.4077 9.55089 10.765 9.52905C10.7694 9.62436 10.7716 9.7206 10.7716 9.81702C10.7716 9.9192 10.7655 10.0223 10.7542 10.1249ZM11.3265 8.85162C11.5497 8.82589 11.7845 8.79313 12.0363 8.75329C11.8231 8.32617 11.4616 7.986 11.0192 7.80018C11.067 7.89421 11.1085 7.99385 11.1447 8.09608C11.2253 8.32361 11.2853 8.581 11.3265 8.85162ZM9.80084 8.91364C10.0998 8.92702 10.3942 8.92475 10.7025 8.90673C10.6669 8.68516 10.6178 8.48041 10.5556 8.30469C10.4843 8.10339 10.4027 7.9598 10.3214 7.87149L10.3153 7.86503C10.2094 7.92597 10.0831 8.06975 9.96396 8.3596C9.89736 8.52161 9.84235 8.7096 9.80084 8.91364Z" fill="url(#paint4_linear_3514_40276)"/>
</g>
<defs>
<linearGradient id="paint0_linear_3514_40276" x1="1.44702" y1="2.2687" x2="13.6839" y2="14.7456" gradientUnits="userSpaceOnUse">
<stop stop-color="white"/>
<stop offset="1" stop-color="#EAECEE"/>
</linearGradient>
<linearGradient id="paint1_linear_3514_40276" x1="4.03085" y1="5.10031" x2="7.81288" y2="9.81925" gradientUnits="userSpaceOnUse">
<stop stop-color="#0195FF"/>
<stop offset="0.991028" stop-color="#1147E9"/>
</linearGradient>
<linearGradient id="paint2_linear_3514_40276" x1="4.90873" y1="4.316" x2="10.9233" y2="9.85882" gradientUnits="userSpaceOnUse">
<stop stop-color="#00BBFF"/>
<stop offset="1" stop-color="#008BFF"/>
</linearGradient>
<linearGradient id="paint3_linear_3514_40276" x1="4.90873" y1="4.316" x2="10.9233" y2="9.85882" gradientUnits="userSpaceOnUse">
<stop stop-color="#00BBFF"/>
<stop offset="1" stop-color="#008BFF"/>
</linearGradient>
<linearGradient id="paint4_linear_3514_40276" x1="8.30673" y1="7.70437" x2="12.1579" y2="11.5722" gradientUnits="userSpaceOnUse">
<stop stop-color="#1348FF"/>
<stop offset="1" stop-color="#06238D"/>
</linearGradient>
<clipPath id="clip0_3514_40276">
<rect width="9.9998" height="10" fill="white" transform="translate(2.99609 2.39771)"/>
</clipPath>
</defs>
</svg>
