<svg width="16" height="16" viewBox="0 0 16 16" fill="none" xmlns="http://www.w3.org/2000/svg">
<circle cx="7.99738" cy="7.99738" r="7.85696" fill="url(#paint0_linear_3890_21535)" stroke="#D5DADD" stroke-width="0.285708"/>
<g clip-path="url(#clip0_3890_21535)">
<path d="M7.87918 8.64381C7.96335 8.62149 8.04133 8.57444 8.11312 8.50265C8.21729 8.39848 8.26937 8.28129 8.26937 8.15108C8.26937 8.02088 8.21729 7.90369 8.11312 7.79952L7.21469 6.92062L7.52719 6.60812L8.40609 7.50656C8.51026 7.61072 8.62745 7.66281 8.75766 7.66281C8.88786 7.66281 9.00505 7.61072 9.10922 7.50656C9.21339 7.40239 9.26547 7.2852 9.26547 7.15499C9.26547 7.02479 9.21339 6.9076 9.10922 6.80343L8.21078 5.92453L8.62094 5.51438C8.71208 5.42323 8.75766 5.31255 8.75766 5.18235C8.75766 5.03912 8.71208 4.92193 8.62094 4.83079L8.17172 4.38157C7.79411 4.00397 7.3514 3.80214 6.84359 3.7761C6.33578 3.75006 5.88005 3.8998 5.4764 4.22532L4.23731 2.95386C4.13314 2.84969 4.01595 2.79761 3.88574 2.79761C3.76855 2.79761 3.65788 2.84969 3.55371 2.95386C3.44954 3.05802 3.39746 3.17521 3.39746 3.30542C3.39746 3.43563 3.44954 3.55281 3.55371 3.65698L4.79281 4.92844C4.49333 5.33209 4.35661 5.7813 4.38265 6.27609C4.40869 6.75786 4.61052 7.18755 4.98812 7.56515L5.35921 7.9201C5.58237 7.85385 5.81323 7.82019 6.04898 7.82019C6.56268 7.82019 7.0379 7.97993 7.45254 8.2713C7.60986 8.38185 7.75203 8.50654 7.87918 8.64381Z" fill="url(#paint1_linear_3890_21535)"/>
<path d="M13.3662 12.2507C13.3662 12.1335 13.3142 12.0228 13.21 11.9187L11.8233 10.5124C12.1488 10.1218 12.2985 9.68562 12.2725 9.20385C12.2595 8.70906 12.0642 8.27286 11.6866 7.89526L11.2373 7.44604C11.1332 7.34188 11.016 7.28979 10.8858 7.28979C10.7556 7.28979 10.6384 7.34188 10.5342 7.44604L8.71631 9.26396C8.86667 9.37745 9.00198 9.50892 9.12132 9.6565C9.3092 9.88202 9.45011 10.1357 9.54815 10.408C9.65283 10.6988 9.70048 11.0009 9.70048 11.306C9.70048 11.4438 9.69053 11.5806 9.6703 11.7157C9.70407 11.719 9.73814 11.7216 9.77251 11.7234C10.2803 11.7364 10.736 11.5671 11.1397 11.2156L12.5264 12.6023C12.6306 12.7064 12.7412 12.7585 12.8584 12.7585C12.9886 12.7585 13.1058 12.7064 13.21 12.6023C13.3142 12.4981 13.3662 12.3809 13.3662 12.2507Z" fill="url(#paint2_linear_3890_21535)"/>
<path d="M4.52645 12.7977H7.35411C7.54055 12.7977 7.71663 12.7597 7.88235 12.6837C8.04808 12.6078 8.18963 12.5042 8.30702 12.373C8.43131 12.2349 8.52799 12.0761 8.59704 11.8966C8.66609 11.7101 8.70061 11.5133 8.70061 11.3062C8.70061 11.1059 8.66954 10.9195 8.6074 10.7468C8.54525 10.5742 8.45893 10.4223 8.34845 10.2911C8.23797 10.153 8.10677 10.0425 7.95486 9.95966C7.80295 9.8768 7.64067 9.82846 7.46805 9.81465C7.32994 9.51083 7.13315 9.26915 6.87766 9.08961C6.62217 8.91008 6.34596 8.82031 6.04904 8.82031C5.85569 8.82031 5.66925 8.85829 5.48972 8.93425C5.31709 9.0102 5.16173 9.11378 5.02362 9.24498C4.88552 9.37618 4.77159 9.535 4.68182 9.72143C4.59205 9.90097 4.52991 10.0943 4.49538 10.3015C4.34347 10.3015 4.19846 10.336 4.06036 10.405C3.92916 10.4672 3.81522 10.557 3.71855 10.6743C3.62188 10.7848 3.54247 10.916 3.48032 11.0679C3.42508 11.2199 3.39746 11.3787 3.39746 11.5444C3.39746 11.717 3.42508 11.8793 3.48032 12.0312C3.54247 12.1831 3.62533 12.3178 3.72891 12.4352C3.83249 12.5456 3.95333 12.6354 4.09143 12.7045C4.22953 12.7666 4.37454 12.7977 4.52645 12.7977Z" fill="url(#paint3_linear_3890_21535)"/>
</g>
<defs>
<linearGradient id="paint0_linear_3890_21535" x1="1.44848" y1="2.26845" x2="13.6854" y2="14.7453" gradientUnits="userSpaceOnUse">
<stop stop-color="white"/>
<stop offset="1" stop-color="#EAECEE"/>
</linearGradient>
<linearGradient id="paint1_linear_3890_21535" x1="4.2771" y1="3.67187" x2="8.37055" y2="7.78202" gradientUnits="userSpaceOnUse">
<stop stop-color="#0195FF"/>
<stop offset="0.991028" stop-color="#1147E9"/>
</linearGradient>
<linearGradient id="paint2_linear_3890_21535" x1="9.41335" y1="8.10761" x2="13.1929" y2="11.3224" gradientUnits="userSpaceOnUse">
<stop stop-color="#0195FF"/>
<stop offset="0.991028" stop-color="#1147E9"/>
</linearGradient>
<linearGradient id="paint3_linear_3890_21535" x1="4.1815" y1="9.40547" x2="6.85048" y2="12.9794" gradientUnits="userSpaceOnUse">
<stop stop-color="#1348FF"/>
<stop offset="1" stop-color="#06238D"/>
</linearGradient>
<clipPath id="clip0_3890_21535">
<rect width="10" height="10" fill="white" transform="translate(3.39746 2.79761)"/>
</clipPath>
</defs>
</svg>
