<svg width="16" height="16" viewBox="0 0 16 16" fill="none" xmlns="http://www.w3.org/2000/svg">
<circle cx="7.99786" cy="7.99738" r="7.85696" fill="url(#paint0_linear_3890_21533)" stroke="#D5DADD" stroke-width="0.285708"/>
<g clip-path="url(#clip0_3890_21533)">
<path d="M3.89311 10.9463C3.63211 10.9463 3.37111 10.8555 3.13847 10.6626C3.08592 10.6125 3.03914 10.5608 2.99805 10.5079L3.73987 9.76604L4.89736 8.63691L4.89169 8.64826L4.90304 8.63691L5.16404 8.38158C5.5442 8.01277 6.12295 7.7461 6.80382 7.63262L6.90028 7.61559L6.92196 7.61187C7.84483 7.4534 9.09773 7.23826 10.0266 6.15171C10.1855 5.95879 10.1685 5.67509 9.97558 5.51055C9.78267 5.35167 9.49897 5.3687 9.33442 5.56161C8.61382 6.40136 7.58116 6.57726 6.74708 6.71911L6.65063 6.73613C5.92436 6.86095 5.27185 7.13331 4.78388 7.51346L4.0406 8.20569C3.92714 7.91067 3.86474 7.58161 3.86474 7.25823C3.86474 5.47093 5.96412 4.13754 7.84221 4.13754H8.21102C9.10751 4.15456 9.65221 4.16024 10.7132 3.12757C10.7984 3.04246 10.9118 2.99707 11.031 2.99707C11.7459 2.99707 11.848 4.40989 11.848 5.25532C11.848 5.66346 11.8145 6.2798 11.6579 6.94593C11.2243 6.79778 10.7249 6.89451 10.376 7.23786C10.1236 7.48636 9.99897 7.81574 10.0029 8.14404H8.70305C8.21777 8.14404 7.79708 8.42057 7.58996 8.82465C7.12743 8.61847 6.56598 8.7076 6.18984 9.08977L5.07992 10.2175L4.63073 10.6399C4.42647 10.8385 4.16546 10.9406 3.89311 10.9406V10.9463Z" fill="url(#paint1_linear_3890_21533)"/>
<path d="M3.06836 9.15523L3.10712 9.11647C3.09383 9.12917 3.0809 9.14209 3.06836 9.15523Z" fill="url(#paint2_linear_3890_21533)"/>
<path d="M10.9018 7.77255C10.705 7.96625 10.7025 8.28282 10.8962 8.47963L11.3042 8.8942L8.7027 8.89419C8.42656 8.89419 8.2027 9.11805 8.2027 9.39419C8.2027 9.67034 8.42656 9.89419 8.7027 9.89419L11.304 9.8942L10.8962 10.3085C10.7025 10.5054 10.705 10.8219 10.9018 11.0156C11.0986 11.2093 11.4152 11.2068 11.6089 11.01L12.8477 9.75133C12.8664 9.73293 12.8838 9.71307 12.8995 9.69192C12.9169 9.66846 12.932 9.64382 12.9448 9.61831C12.9752 9.55771 12.9937 9.49008 12.9971 9.4185C12.9992 9.37575 12.9958 9.33277 12.987 9.29071C12.9851 9.28186 12.983 9.27305 12.9807 9.26429C12.9586 9.18177 12.915 9.10383 12.8501 9.03934L11.6089 7.77818C11.4152 7.58137 11.0986 7.57885 10.9018 7.77255Z" fill="url(#paint3_linear_3890_21533)"/>
<path d="M7.43112 12.8535C7.62793 12.6598 7.63045 12.3432 7.43675 12.1464L7.02873 11.7318H9.66141C9.93755 11.7318 10.1614 11.508 10.1614 11.2318C10.1614 10.9557 9.93755 10.7318 9.66141 10.7318H7.02894L7.43675 10.3175C7.63045 10.1207 7.62793 9.80409 7.43112 9.61039C7.23431 9.41669 6.91773 9.41921 6.72403 9.61602L5.48969 10.8702C5.39435 10.9612 5.33496 11.0896 5.33496 11.2318C5.33496 11.3719 5.39259 11.4986 5.48544 11.5894L6.72403 12.8478C6.91773 13.0446 7.23431 13.0472 7.43112 12.8535Z" fill="url(#paint4_linear_3890_21533)"/>
</g>
<defs>
<linearGradient id="paint0_linear_3890_21533" x1="1.44897" y1="2.26845" x2="13.6859" y2="14.7453" gradientUnits="userSpaceOnUse">
<stop stop-color="white"/>
<stop offset="1" stop-color="#EAECEE"/>
</linearGradient>
<linearGradient id="paint1_linear_3890_21533" x1="4.3247" y1="4.18583" x2="9.85861" y2="10.3489" gradientUnits="userSpaceOnUse">
<stop stop-color="#0195FF"/>
<stop offset="0.991028" stop-color="#1147E9"/>
</linearGradient>
<linearGradient id="paint2_linear_3890_21533" x1="4.3247" y1="4.18583" x2="9.85861" y2="10.3489" gradientUnits="userSpaceOnUse">
<stop stop-color="#0195FF"/>
<stop offset="0.991028" stop-color="#1147E9"/>
</linearGradient>
<linearGradient id="paint3_linear_3890_21533" x1="6.46785" y1="8.41868" x2="9.99361" y2="13.4732" gradientUnits="userSpaceOnUse">
<stop stop-color="#1348FF"/>
<stop offset="1" stop-color="#06238D"/>
</linearGradient>
<linearGradient id="paint4_linear_3890_21533" x1="6.46785" y1="8.41868" x2="9.99361" y2="13.4732" gradientUnits="userSpaceOnUse">
<stop stop-color="#1348FF"/>
<stop offset="1" stop-color="#06238D"/>
</linearGradient>
<clipPath id="clip0_3890_21533">
<rect width="10" height="10" fill="white" transform="translate(2.99805 2.99731)"/>
</clipPath>
</defs>
</svg>
