<svg width="16" height="16" viewBox="0 0 16 16" fill="none" xmlns="http://www.w3.org/2000/svg">
<circle cx="7.99615" cy="7.99762" r="7.85696" fill="url(#paint0_linear_3514_40275)" stroke="#D5DADD" stroke-width="0.285708"/>
<g clip-path="url(#clip0_3514_40275)">
<path d="M7.25948 3.19775C6.01647 3.19775 5.13331 4.21086 4.98617 5.26856C4.58632 5.29239 4.23326 5.44285 3.95905 5.69557C3.58808 6.03745 3.39648 6.5337 3.39648 7.05702C3.39648 7.54337 3.54383 8.00307 3.87461 8.34295C4.20763 8.68512 4.68042 8.85845 5.23712 8.85845H7.01076L7.01076 8.83763C7.01077 7.76758 7.8782 6.90014 8.94823 6.90014H9.57318C9.96083 6.90014 10.2935 7.13543 10.4363 7.471C10.5669 7.16381 10.8568 6.94066 11.2022 6.90511C11.2067 6.84479 11.209 6.78332 11.209 6.72073C11.209 5.56287 10.3825 4.67308 9.38755 4.57897C8.98871 3.75317 8.24835 3.19775 7.25948 3.19775Z" fill="url(#paint1_linear_3514_40275)"/>
<path d="M9.57317 13.0086C9.74576 13.0086 9.88567 12.8686 9.88567 12.696C9.88567 12.5235 9.74576 12.3835 9.57317 12.3835H8.94822C8.56854 12.3835 8.26075 12.0757 8.26074 11.6961L8.26074 11.0711C8.26073 10.8985 8.12082 10.7586 7.94824 10.7586C7.77565 10.7586 7.63574 10.8985 7.63574 11.0711L7.63575 11.6961C7.63576 12.4209 8.22337 13.0086 8.94822 13.0086H9.57317Z" fill="url(#paint2_linear_3514_40275)"/>
<path d="M11.2993 7.52515C11.1268 7.52515 10.9868 7.66506 10.9868 7.83765C10.9868 8.01024 11.1268 8.15015 11.2993 8.15015L11.9243 8.15015C12.304 8.15015 12.6118 8.45795 12.6118 8.83764L12.6118 9.46261C12.6118 9.6352 12.7517 9.77511 12.9243 9.77511C13.0969 9.77511 13.2368 9.63519 13.2368 9.4626L13.2368 8.83764C13.2368 8.11277 12.6491 7.52515 11.9243 7.52515L11.2993 7.52515Z" fill="url(#paint3_linear_3514_40275)"/>
<path d="M10.987 12.696C10.987 12.8686 11.1269 13.0086 11.2995 13.0086L11.9244 13.0086C12.6493 13.0086 13.2369 12.4209 13.2369 11.6961L13.2369 11.0711C13.2369 10.8985 13.097 10.7586 12.9244 10.7586C12.7518 10.7586 12.6119 10.8985 12.6119 11.0711L12.6119 11.6961C12.6119 12.0757 12.3041 12.3835 11.9244 12.3835H11.2995C11.1269 12.3835 10.987 12.5235 10.987 12.696Z" fill="url(#paint4_linear_3514_40275)"/>
<path d="M9.57317 7.52515C9.74576 7.52515 9.88567 7.66506 9.88567 7.83765C9.88567 8.01024 9.74576 8.15015 9.57317 8.15015H8.94822C8.56854 8.15015 8.26075 8.45795 8.26074 8.83764L8.26074 9.46261C8.26073 9.6352 8.12082 9.77511 7.94824 9.77511C7.77565 9.77511 7.63574 9.63519 7.63574 9.4626L7.63575 8.83764C7.63575 8.11277 8.22337 7.52515 8.94822 7.52515H9.57317Z" fill="url(#paint5_linear_3514_40275)"/>
<path fill-rule="evenodd" clip-rule="evenodd" d="M9.07712 10.386C8.93067 10.2396 8.93067 10.0021 9.07712 9.8557L10.1711 8.76172C10.3175 8.61528 10.555 8.61528 10.7014 8.76172L11.7954 9.8557C11.9419 10.0021 11.9419 10.2396 11.7954 10.386C11.649 10.5325 11.4115 10.5325 11.2651 10.386L10.8113 9.9322L10.8113 11.5066C10.8113 11.7137 10.6434 11.8816 10.4363 11.8816C10.2292 11.8816 10.0613 11.7137 10.0613 11.5066L10.0613 9.9322L9.60744 10.386C9.461 10.5325 9.22356 10.5325 9.07712 10.386Z" fill="url(#paint6_linear_3514_40275)"/>
</g>
<defs>
<linearGradient id="paint0_linear_3514_40275" x1="1.44726" y1="2.2687" x2="13.6842" y2="14.7456" gradientUnits="userSpaceOnUse">
<stop stop-color="white"/>
<stop offset="1" stop-color="#EAECEE"/>
</linearGradient>
<linearGradient id="paint1_linear_3514_40275" x1="4.56761" y1="4.04428" x2="8.33362" y2="9.24368" gradientUnits="userSpaceOnUse">
<stop stop-color="#0195FF"/>
<stop offset="0.991028" stop-color="#1147E9"/>
</linearGradient>
<linearGradient id="paint2_linear_3514_40275" x1="8.474" y1="8.34783" x2="12.3127" y2="12.2662" gradientUnits="userSpaceOnUse">
<stop stop-color="#00BBFF"/>
<stop offset="1" stop-color="#008BFF"/>
</linearGradient>
<linearGradient id="paint3_linear_3514_40275" x1="8.474" y1="8.34783" x2="12.3127" y2="12.2662" gradientUnits="userSpaceOnUse">
<stop stop-color="#00BBFF"/>
<stop offset="1" stop-color="#008BFF"/>
</linearGradient>
<linearGradient id="paint4_linear_3514_40275" x1="8.474" y1="8.34783" x2="12.3127" y2="12.2662" gradientUnits="userSpaceOnUse">
<stop stop-color="#00BBFF"/>
<stop offset="1" stop-color="#008BFF"/>
</linearGradient>
<linearGradient id="paint5_linear_3514_40275" x1="8.474" y1="8.34783" x2="12.3127" y2="12.2662" gradientUnits="userSpaceOnUse">
<stop stop-color="#00BBFF"/>
<stop offset="1" stop-color="#008BFF"/>
</linearGradient>
<linearGradient id="paint6_linear_3514_40275" x1="9.39952" y1="11.4041" x2="11.6585" y2="9.35799" gradientUnits="userSpaceOnUse">
<stop stop-color="#1348FF"/>
<stop offset="1" stop-color="#06238D"/>
</linearGradient>
<clipPath id="clip0_3514_40275">
<rect width="9.9998" height="10" fill="white" transform="translate(3.39624 3.19775)"/>
</clipPath>
</defs>
</svg>
