<svg width="16" height="16" viewBox="0 0 16 16" fill="none" xmlns="http://www.w3.org/2000/svg">
<circle cx="7.99689" cy="7.99738" r="7.85696" fill="url(#paint0_linear_3890_21536)" stroke="#D5DADD" stroke-width="0.285708"/>
<path fill-rule="evenodd" clip-rule="evenodd" d="M3.49707 3.57282C3.77321 3.57282 3.99707 3.79668 3.99707 4.07282V11.4756C3.99707 11.7517 4.22093 11.9756 4.49707 11.9756H8.1226C8.39875 11.9756 8.6226 12.1995 8.6226 12.4756C8.6226 12.7517 8.39875 12.9756 8.1226 12.9756H4.49707C3.66864 12.9756 2.99707 12.304 2.99707 11.4756V4.07282C2.99707 3.79668 3.22093 3.57282 3.49707 3.57282Z" fill="url(#paint1_linear_3890_21536)"/>
<path d="M12.9893 3.76904C12.9893 3.35483 12.6535 3.01904 12.2393 3.01904C11.8251 3.01904 11.4893 3.35483 11.4893 3.76904V7.98779C11.4893 8.40201 11.8251 8.73779 12.2393 8.73779C12.6535 8.73779 12.9893 8.40201 12.9893 7.98779L12.9893 3.76904Z" fill="url(#paint2_linear_3890_21536)"/>
<path d="M8.66212 5.74159C8.66212 5.32738 8.32633 4.99159 7.91212 4.99159C7.4979 4.99159 7.16212 5.32738 7.16212 5.74159V10.2728C7.16212 10.6871 7.4979 11.0228 7.91212 11.0228C8.32633 11.0228 8.66212 10.6871 8.66212 10.2728L8.66212 5.74159Z" fill="url(#paint3_linear_3890_21536)"/>
<path d="M6.4985 8.86659C6.4985 8.45238 6.16271 8.11659 5.7485 8.11659C5.33428 8.11659 4.9985 8.45238 4.9985 8.86659V10.2728C4.9985 10.6871 5.33428 11.0228 5.7485 11.0228C6.16271 11.0228 6.4985 10.6871 6.4985 10.2728V8.86659Z" fill="url(#paint4_linear_3890_21536)"/>
<path d="M10.0757 5.83155C10.4899 5.83155 10.8257 6.16734 10.8257 6.58155V7.9878C10.8257 8.40201 10.4899 8.7378 10.0757 8.7378C9.66152 8.7378 9.32574 8.40201 9.32574 7.9878V6.58155C9.32574 6.16734 9.66152 5.83155 10.0757 5.83155Z" fill="url(#paint5_linear_3890_21536)"/>
<path d="M11.7643 10.7755C11.6953 10.7064 11.6647 10.6184 11.6647 10.528C11.6647 10.4376 11.6953 10.3495 11.7643 10.2805C11.7774 10.2674 11.7913 10.2554 11.8059 10.2445C11.7577 10.2102 11.7069 10.1798 11.6535 10.153C11.5002 10.0764 11.3416 10.0388 11.1755 10.0388C10.9494 10.0388 10.7504 10.0957 10.5735 10.2076C10.3977 10.3188 10.2649 10.47 10.1733 10.6656C10.1456 10.7345 10.0975 10.7926 10.03 10.8312L10.021 10.8364C9.96809 10.8628 9.9114 10.8751 9.85398 10.8751C9.83007 10.8751 9.80371 10.8737 9.77734 10.8689C9.75804 10.8654 9.73124 10.8588 9.70327 10.8446C9.64489 10.82 9.59049 10.7804 9.55113 10.7214L9.54158 10.707L9.5348 10.6912C9.51292 10.6402 9.50049 10.5853 9.50049 10.528C9.50049 10.482 9.5096 10.4383 9.52288 10.3985L9.52756 10.3844L9.5311 10.3779C9.6817 10.0579 9.90273 9.80266 10.1932 9.61689C10.4882 9.42662 10.8173 9.33179 11.1755 9.33179C11.4611 9.33179 11.7314 9.3987 11.9839 9.53192C12.1059 9.59523 12.2193 9.67002 12.3239 9.75612C12.3395 9.71897 12.3619 9.68408 12.3919 9.65295C12.4584 9.57961 12.5472 9.54246 12.6439 9.54246C12.7384 9.54246 12.8255 9.57799 12.8915 9.64832C12.9618 9.71431 12.9973 9.80145 12.9973 9.89595V10.528C12.9973 10.6246 12.9602 10.7135 12.8869 10.7799C12.8185 10.8459 12.7323 10.8751 12.6439 10.8751H12.0182C11.9277 10.8751 11.843 10.8448 11.7734 10.784L11.7719 10.7826L11.7643 10.7755Z" fill="url(#paint6_linear_3890_21536)"/>
<path d="M10.7335 11.5318C10.8026 11.6009 10.8331 11.6889 10.8331 11.7793C10.8331 11.8697 10.8026 11.9577 10.7335 12.0268C10.7204 12.0399 10.7066 12.0519 10.692 12.0628C10.7402 12.0971 10.7909 12.1275 10.8444 12.1543C10.9977 12.2309 11.1563 12.2685 11.3224 12.2685C11.5484 12.2685 11.7474 12.2116 11.9244 12.0997C12.1001 11.9885 12.233 11.8373 12.3246 11.6417C12.3523 11.5728 12.4003 11.5147 12.4679 11.4761L12.4769 11.4709C12.5298 11.4445 12.5865 11.4322 12.6439 11.4322C12.6678 11.4322 12.6942 11.4336 12.7205 11.4384C12.7398 11.4419 12.7666 11.4485 12.7946 11.4627C12.853 11.4873 12.9074 11.5269 12.9467 11.5859L12.9563 11.6002L12.9631 11.6161C12.9849 11.6671 12.9974 11.722 12.9974 11.7793C12.9974 11.8253 12.9883 11.869 12.975 11.9088L12.9703 11.9229L12.9668 11.9294C12.8162 12.2494 12.5951 12.5046 12.3047 12.6904C12.0097 12.8807 11.6806 12.9755 11.3224 12.9755C11.0367 12.9755 10.7664 12.9086 10.514 12.7754C10.392 12.7121 10.2786 12.6373 10.1739 12.5512C10.1584 12.5883 10.1359 12.6232 10.1059 12.6543C10.0395 12.7277 9.95063 12.7648 9.854 12.7648C9.7595 12.7648 9.67236 12.7293 9.60636 12.659C9.53604 12.593 9.50051 12.5058 9.50051 12.4113L9.50051 11.7793C9.50051 11.6827 9.53765 11.5938 9.611 11.5274C9.6794 11.4614 9.76557 11.4322 9.854 11.4322L10.4796 11.4322C10.5701 11.4322 10.6549 11.4624 10.7244 11.5233L10.726 11.5246L10.7335 11.5318Z" fill="url(#paint7_linear_3890_21536)"/>
<defs>
<linearGradient id="paint0_linear_3890_21536" x1="1.44799" y1="2.26845" x2="13.6849" y2="14.7453" gradientUnits="userSpaceOnUse">
<stop stop-color="white"/>
<stop offset="1" stop-color="#EAECEE"/>
</linearGradient>
<linearGradient id="paint1_linear_3890_21536" x1="4.49495" y1="4.50798" x2="11.4664" y2="11.5069" gradientUnits="userSpaceOnUse">
<stop stop-color="#0195FF"/>
<stop offset="0.991028" stop-color="#1147E9"/>
</linearGradient>
<linearGradient id="paint2_linear_3890_21536" x1="4.49495" y1="4.50798" x2="11.4664" y2="11.5069" gradientUnits="userSpaceOnUse">
<stop stop-color="#0195FF"/>
<stop offset="0.991028" stop-color="#1147E9"/>
</linearGradient>
<linearGradient id="paint3_linear_3890_21536" x1="4.49495" y1="4.50798" x2="11.4664" y2="11.5069" gradientUnits="userSpaceOnUse">
<stop stop-color="#0195FF"/>
<stop offset="0.991028" stop-color="#1147E9"/>
</linearGradient>
<linearGradient id="paint4_linear_3890_21536" x1="4.49495" y1="4.50798" x2="11.4664" y2="11.5069" gradientUnits="userSpaceOnUse">
<stop stop-color="#0195FF"/>
<stop offset="0.991028" stop-color="#1147E9"/>
</linearGradient>
<linearGradient id="paint5_linear_3890_21536" x1="4.49495" y1="4.50798" x2="11.4664" y2="11.5069" gradientUnits="userSpaceOnUse">
<stop stop-color="#0195FF"/>
<stop offset="0.991028" stop-color="#1147E9"/>
</linearGradient>
<linearGradient id="paint6_linear_3890_21536" x1="10.0238" y1="9.87846" x2="12.5729" y2="12.3231" gradientUnits="userSpaceOnUse">
<stop stop-color="#00BBFF"/>
<stop offset="1" stop-color="#008BFF"/>
</linearGradient>
<linearGradient id="paint7_linear_3890_21536" x1="10.0238" y1="9.87846" x2="12.5729" y2="12.3231" gradientUnits="userSpaceOnUse">
<stop stop-color="#00BBFF"/>
<stop offset="1" stop-color="#008BFF"/>
</linearGradient>
</defs>
</svg>
