<svg width="16" height="16" viewBox="0 0 16 16" fill="none" xmlns="http://www.w3.org/2000/svg">
<circle cx="7.9964" cy="7.99738" r="7.85696" fill="url(#paint0_linear_3890_21537)" stroke="#D5DADD" stroke-width="0.285708"/>
<path fill-rule="evenodd" clip-rule="evenodd" d="M10.5364 2.81714H7.58496C7.47447 2.81714 7.36852 2.86103 7.2904 2.93915C7.21227 3.01727 7.16839 3.12323 7.16839 3.23371L7.16839 4.84639C7.16839 5.18802 7.04638 5.48084 6.80235 5.72486C6.55833 5.96888 6.26551 6.0909 5.92388 6.0909H4.46149C4.35101 6.0909 4.24505 6.13478 4.16693 6.21291C4.08881 6.29103 4.04492 6.39698 4.04492 6.50746V11.7976C4.04492 12.3499 4.49264 12.7976 5.04492 12.7976H7.17141C7.63789 12.7976 8.04241 12.475 8.14629 12.0203L8.39182 10.9454C8.49571 10.4906 8.90022 10.1681 9.36671 10.1681H10.5364C11.0886 10.1681 11.5364 9.72038 11.5364 9.1681L11.5364 3.81714C11.5364 3.26485 11.0886 2.81714 10.5364 2.81714ZM9.72439 7.75977C10.0005 7.75977 10.2244 7.53591 10.2244 7.25977C10.2244 6.98363 10.0005 6.75978 9.72439 6.75978H7.76805C7.49191 6.75978 7.26805 6.98363 7.26805 7.25977C7.26805 7.53591 7.49191 7.75977 7.76805 7.75977H9.72439ZM6.03503 7.76038C6.31116 7.76038 6.53502 7.53652 6.53502 7.26038C6.53502 6.98424 6.31116 6.76039 6.03503 6.76039H5.91161C5.63547 6.76039 5.41161 6.98424 5.41161 7.26038C5.41161 7.53652 5.63547 7.76038 5.91161 7.76038H6.03503ZM6.53502 8.87903C6.53502 9.15517 6.31116 9.37903 6.03503 9.37903H5.91161C5.63547 9.37903 5.41161 9.15517 5.41161 8.87903C5.41161 8.6029 5.63547 8.37904 5.91161 8.37904H6.03503C6.31116 8.37904 6.53502 8.6029 6.53502 8.87903ZM6.03503 10.9794C6.31116 10.9794 6.53502 10.7555 6.53502 10.4794C6.53502 10.2032 6.31116 9.97938 6.03503 9.97938H5.91161C5.63547 9.97938 5.41161 10.2032 5.41161 10.4794C5.41161 10.7555 5.63547 10.9794 5.91161 10.9794H6.03503ZM10.2469 8.87842C10.2469 9.15456 10.0231 9.37842 9.74692 9.37842H7.76803C7.49189 9.37842 7.26804 9.15456 7.26804 8.87842C7.26804 8.60228 7.49189 8.37843 7.76803 8.37843H9.74692C10.0231 8.37843 10.2469 8.60228 10.2469 8.87842Z" fill="url(#paint1_linear_3890_21537)"/>
<path d="M6.64509 4.73543V3.52515L4.69238 5.5794H5.80112C6.0328 5.5794 6.23138 5.49665 6.39686 5.33117C6.56234 5.16569 6.64509 4.96711 6.64509 4.73543Z" fill="url(#paint2_linear_3890_21537)"/>
<path d="M11.9425 9.98178C12.0424 9.8782 12.1549 9.82642 12.2799 9.82642C12.4048 9.82642 12.5173 9.8782 12.6173 9.98178C12.7048 10.0724 12.7485 10.1825 12.7485 10.3119C12.7485 10.4414 12.7048 10.5579 12.6173 10.6615L10.724 12.623C10.6365 12.7136 10.524 12.759 10.3866 12.759C10.2491 12.759 10.1366 12.7136 10.0492 12.623L9.11188 11.652C9.0119 11.5484 8.96191 11.4319 8.96191 11.3024C8.96191 11.1729 9.0119 11.0564 9.11188 10.9528C9.21185 10.8492 9.32433 10.7975 9.4493 10.7975C9.57427 10.7975 9.68049 10.8492 9.76797 10.9528L10.3866 11.5937L11.9425 9.98178Z" fill="url(#paint3_linear_3890_21537)"/>
<defs>
<linearGradient id="paint0_linear_3890_21537" x1="1.4475" y1="2.26845" x2="13.6844" y2="14.7453" gradientUnits="userSpaceOnUse">
<stop stop-color="white"/>
<stop offset="1" stop-color="#EAECEE"/>
</linearGradient>
<linearGradient id="paint1_linear_3890_21537" x1="5.16792" y1="4.30965" x2="11.8788" y2="9.34869" gradientUnits="userSpaceOnUse">
<stop stop-color="#0195FF"/>
<stop offset="0.991028" stop-color="#1147E9"/>
</linearGradient>
<linearGradient id="paint2_linear_3890_21537" x1="4.98108" y1="3.82737" x2="6.4172" y2="5.19839" gradientUnits="userSpaceOnUse">
<stop stop-color="#1348FF"/>
<stop offset="1" stop-color="#06238D"/>
</linearGradient>
<linearGradient id="paint3_linear_3890_21537" x1="9.52174" y1="10.2579" x2="11.5067" y2="12.8319" gradientUnits="userSpaceOnUse">
<stop stop-color="#1348FF"/>
<stop offset="1" stop-color="#06238D"/>
</linearGradient>
</defs>
</svg>
