<svg width="16" height="16" viewBox="0 0 16 16" fill="none" xmlns="http://www.w3.org/2000/svg">
<circle cx="7.99493" cy="7.99738" r="7.85696" fill="url(#paint0_linear_3890_21541)" stroke="#D5DADD" stroke-width="0.285708"/>
<path d="M6.05459 9.70564H4.37853C3.93907 9.70564 3.57001 9.3584 3.52195 8.8997L3.03205 4.36301L3.03042 4.34587C2.97912 3.75245 3.42161 3.23657 3.99867 3.23657L8.22623 3.2366C8.4761 3.2366 8.67867 3.43917 8.67867 3.68904C8.67867 3.93892 8.4761 4.14149 8.22622 4.14149L3.99867 4.14146C3.92958 4.14146 3.88302 4.19917 3.88863 4.26407L4.37853 8.80076H6.50007C6.2758 9.06945 6.11555 9.38652 6.05459 9.70564Z" fill="url(#paint1_linear_3890_21541)"/>
<path d="M4.6605 6.01039C4.64766 6.02788 4.63535 6.04579 4.62357 6.0641C4.59173 6.1136 4.56486 6.1633 4.54234 6.2117L4.53468 6.22852L3.63142 8.25914C3.55476 8.43148 3.5237 8.6223 3.54151 8.81159C3.54699 8.86994 3.55655 8.92752 3.56987 8.98363C3.69178 9.49681 4.13312 9.88896 4.67013 9.88896H7.36336L7.96056 9.29175C7.92502 8.98741 7.93674 8.67937 7.99591 8.37168C8.11175 7.7693 8.40404 7.24655 8.83242 6.81817C9.12053 6.53007 9.45687 6.30077 9.84018 6.14838C10.2012 6.00083 10.5827 5.91933 10.9778 5.91933C11.3729 5.91933 11.7544 6.00083 12.1154 6.14838C12.373 6.2508 12.6094 6.38794 12.8241 6.55432L12.9756 6.09482C13.0233 5.95 13.0405 5.79602 13.0261 5.64353C12.9676 5.0256 12.4835 4.59227 11.9342 4.57299C11.895 4.56812 11.8555 4.56567 11.8159 4.56567H10.1862C9.92095 4.56567 9.66641 4.67533 9.47762 4.87091L8.83277 5.53896H5.56548C5.54583 5.53896 5.52598 5.53949 5.50594 5.54058C5.37967 5.54743 5.25582 5.57915 5.14083 5.63399C5.01783 5.68515 4.90106 5.7585 4.79831 5.85489C4.75175 5.89856 4.7048 5.95003 4.6605 6.01039Z" fill="url(#paint2_linear_3890_21541)"/>
<path fill-rule="evenodd" clip-rule="evenodd" d="M7.36708 13.2054L7.3807 13.2027L7.39359 13.1976C7.4829 13.1618 7.56237 13.1085 7.63158 13.0393L7.78465 12.8862L7.94813 13.0497C8.05238 13.1539 8.17727 13.2242 8.32066 13.2214C8.46251 13.2186 8.58686 13.1449 8.69246 13.0393C8.79562 12.9361 8.86677 12.8132 8.86677 12.6723C8.86677 12.5314 8.79562 12.4085 8.69246 12.3053L8.52898 12.1419L8.84554 11.8253L9.00901 11.9888C9.11019 12.09 9.23416 12.1478 9.37598 12.1478L9.38604 12.1472C9.52797 12.1377 9.65215 12.0796 9.75334 11.9784C9.8565 11.8752 9.92765 11.7524 9.92765 11.6114C9.92765 11.4705 9.8565 11.3476 9.75334 11.2445L9.58986 11.081L9.96092 10.7099C10.338 10.9247 10.7401 11.0201 11.1643 10.9928L11.1691 10.9923C11.6371 10.947 12.0503 10.7423 12.4055 10.3871C12.606 10.1866 12.7566 9.96174 12.8549 9.71261C12.9586 9.46044 13.0115 9.20553 13.0115 8.94882C13.0115 8.69328 12.9625 8.44223 12.8657 8.19654C12.7674 7.94697 12.6167 7.72173 12.4159 7.52098C12.2155 7.32052 11.9906 7.16993 11.7415 7.07161C11.4893 6.96792 11.2344 6.91504 10.9777 6.91504C10.721 6.91504 10.4661 6.96791 10.2139 7.0716C9.96479 7.16993 9.73991 7.32052 9.53945 7.52098C9.24225 7.81818 9.05328 8.16391 8.97784 8.55623C8.90923 8.91298 8.93515 9.26428 9.05465 9.6075L6.88725 11.7749C6.78607 11.8761 6.72852 12 6.72852 12.1419L6.73895 12.6739C6.73918 12.7854 6.76412 12.8911 6.82591 12.9798C6.88527 13.065 6.9697 13.1215 7.06786 13.1546C7.16021 13.2058 7.26177 13.2265 7.36708 13.2054ZM10.2838 8.26531C10.0894 8.45973 9.99525 8.68511 9.99525 8.94882C9.99525 9.21118 10.0918 9.44038 10.2942 9.64274C10.4886 9.83717 10.714 9.93127 10.9777 9.93127C11.2414 9.93127 11.4668 9.83717 11.6612 9.64274C11.8636 9.44038 11.9601 9.21118 11.9601 8.94882C11.9601 8.68511 11.866 8.45973 11.6716 8.26531C11.4693 8.06294 11.2401 7.96638 10.9777 7.96638C10.7153 7.96638 10.4861 8.06294 10.2838 8.26531Z" fill="url(#paint3_linear_3890_21541)"/>
<defs>
<linearGradient id="paint0_linear_3890_21541" x1="1.44604" y1="2.26845" x2="13.683" y2="14.7453" gradientUnits="userSpaceOnUse">
<stop stop-color="white"/>
<stop offset="1" stop-color="#EAECEE"/>
</linearGradient>
<linearGradient id="paint1_linear_3890_21541" x1="3.87367" y1="4.20398" x2="8.36255" y2="8.12747" gradientUnits="userSpaceOnUse">
<stop stop-color="#0195FF"/>
<stop offset="0.991028" stop-color="#1147E9"/>
</linearGradient>
<linearGradient id="paint2_linear_3890_21541" x1="4.95988" y1="5.36174" x2="8.1393" y2="11.0344" gradientUnits="userSpaceOnUse">
<stop stop-color="#0195FF"/>
<stop offset="0.991028" stop-color="#1147E9"/>
</linearGradient>
<linearGradient id="paint3_linear_3890_21541" x1="7.65741" y1="7.84285" x2="12.0709" y2="12.2589" gradientUnits="userSpaceOnUse">
<stop stop-color="#1348FF"/>
<stop offset="1" stop-color="#06238D"/>
</linearGradient>
</defs>
</svg>
