<svg width="16" height="16" viewBox="0 0 16 16" fill="none" xmlns="http://www.w3.org/2000/svg">
<circle cx="7.99591" cy="7.99738" r="7.85696" fill="url(#paint0_linear_3890_21539)" stroke="#D5DADD" stroke-width="0.285708"/>
<g clip-path="url(#clip0_3890_21539)">
<path fill-rule="evenodd" clip-rule="evenodd" d="M11.3314 9.47892C11.3314 10.1354 10.7992 10.6676 10.1427 10.6676C9.48626 10.6676 8.95407 10.1354 8.95407 9.47892C8.95407 8.82244 9.48626 8.29026 10.1427 8.29026C10.7992 8.29026 11.3314 8.82244 11.3314 9.47892ZM11.2556 11.3639C10.9295 11.5568 10.5491 11.6675 10.1427 11.6675C8.93399 11.6675 7.9541 10.6877 7.9541 9.47892C7.9541 8.27017 8.93399 7.29028 10.1427 7.29028C11.3515 7.29028 12.3314 8.27017 12.3314 9.47892C12.3314 9.91903 12.2015 10.3288 11.9779 10.672L13.4497 12.1438C13.6449 12.339 13.6449 12.6556 13.4497 12.8509C13.2544 13.0461 12.9379 13.0461 12.7426 12.8509L11.2556 11.3639Z" fill="url(#paint1_linear_3890_21539)"/>
<path d="M6.32178 6.72632C5.89678 6.72632 5.54053 6.37007 5.54053 5.94507C5.54053 5.52007 5.89678 5.16382 6.32178 5.16382C6.74678 5.16382 7.10303 5.52007 7.10303 5.94507C7.10303 6.37007 6.74678 6.72632 6.32178 6.72632Z" fill="url(#paint2_linear_3890_21539)"/>
<path d="M8.06911 6.44507H9.77329C10.0483 6.44507 10.2733 6.22007 10.2733 5.94507C10.2733 5.67007 10.0483 5.44507 9.77329 5.44507H8.06911C7.79411 5.44507 7.56911 5.67007 7.56911 5.94507C7.56911 6.22007 7.79411 6.44507 8.06911 6.44507Z" fill="url(#paint3_linear_3890_21539)"/>
<path d="M6.32178 8.74683C5.89678 8.74683 5.54053 8.39058 5.54053 7.96558C5.54053 7.54058 5.89678 7.18433 6.32178 7.18433C6.74678 7.18433 7.10303 7.54058 7.10303 7.96558C7.10303 8.39058 6.74678 8.74683 6.32178 8.74683Z" fill="url(#paint4_linear_3890_21539)"/>
<path d="M6.32178 10.7676C5.89678 10.7676 5.54053 10.4113 5.54053 9.98633C5.54053 9.56133 5.89678 9.20508 6.32178 9.20508C6.74678 9.20508 7.10303 9.56133 7.10303 9.98633C7.10303 10.4113 6.74678 10.7676 6.32178 10.7676Z" fill="url(#paint5_linear_3890_21539)"/>
<path fill-rule="evenodd" clip-rule="evenodd" d="M3.85205 4.48315C3.85205 3.65473 4.52362 2.98315 5.35205 2.98315H10.462C11.2904 2.98315 11.962 3.65473 11.962 4.48315V5.96827C11.962 6.24441 11.7381 6.46827 11.462 6.46827C11.1858 6.46827 10.962 6.24441 10.962 5.96827V4.48315C10.962 4.20701 10.7381 3.98315 10.462 3.98315H5.35205C5.07591 3.98315 4.85205 4.20701 4.85205 4.48315V11.4832C4.85205 11.7593 5.07591 11.9832 5.35205 11.9832H8.00358C8.27972 11.9832 8.50358 12.207 8.50358 12.4832C8.50358 12.7593 8.27972 12.9832 8.00358 12.9832H5.35205C4.52362 12.9832 3.85205 12.3116 3.85205 11.4832V4.48315Z" fill="url(#paint6_linear_3890_21539)"/>
</g>
<defs>
<linearGradient id="paint0_linear_3890_21539" x1="1.44702" y1="2.26845" x2="13.6839" y2="14.7453" gradientUnits="userSpaceOnUse">
<stop stop-color="white"/>
<stop offset="1" stop-color="#EAECEE"/>
</linearGradient>
<linearGradient id="paint1_linear_3890_21539" x1="8.78824" y1="8.12991" x2="12.7822" y2="12.0954" gradientUnits="userSpaceOnUse">
<stop stop-color="#1348FF"/>
<stop offset="1" stop-color="#06238D"/>
</linearGradient>
<linearGradient id="paint2_linear_3890_21539" x1="6.24999" y1="5.39748" x2="6.9012" y2="7.37067" gradientUnits="userSpaceOnUse">
<stop stop-color="#0195FF"/>
<stop offset="0.991028" stop-color="#1147E9"/>
</linearGradient>
<linearGradient id="paint3_linear_3890_21539" x1="6.24999" y1="5.39748" x2="6.9012" y2="7.37067" gradientUnits="userSpaceOnUse">
<stop stop-color="#0195FF"/>
<stop offset="0.991028" stop-color="#1147E9"/>
</linearGradient>
<linearGradient id="paint4_linear_3890_21539" x1="5.77475" y1="7.41799" x2="6.86881" y2="8.51242" gradientUnits="userSpaceOnUse">
<stop stop-color="#0195FF"/>
<stop offset="0.991028" stop-color="#1147E9"/>
</linearGradient>
<linearGradient id="paint5_linear_3890_21539" x1="5.77475" y1="9.43874" x2="6.86881" y2="10.5332" gradientUnits="userSpaceOnUse">
<stop stop-color="#0195FF"/>
<stop offset="0.991028" stop-color="#1147E9"/>
</linearGradient>
<linearGradient id="paint6_linear_3890_21539" x1="5.06776" y1="4.47859" x2="11.9193" y2="10.0371" gradientUnits="userSpaceOnUse">
<stop stop-color="#0195FF"/>
<stop offset="0.991028" stop-color="#1147E9"/>
</linearGradient>
<clipPath id="clip0_3890_21539">
<rect width="10" height="10" fill="white" transform="translate(3.59619 2.99731)"/>
</clipPath>
</defs>
</svg>
