<svg width="16" height="16" viewBox="0 0 16 16" fill="none" xmlns="http://www.w3.org/2000/svg">
<circle cx="7.99542" cy="7.99738" r="7.85696" fill="url(#paint0_linear_3890_21540)" stroke="#D5DADD" stroke-width="0.285708"/>
<g clip-path="url(#clip0_3890_21540)">
<path d="M8.6813 8.05273L7.87074 8.05273C7.84598 8.05273 7.82126 8.05338 7.7966 8.05467L7.45677 6.59987L8.23189 6.16249L8.6813 8.05273Z" fill="url(#paint1_linear_3890_21540)"/>
<path d="M6.02139 9.68611H4.34532C3.90586 9.68611 3.5368 9.33886 3.48875 8.88017L2.99885 4.34348L2.99721 4.32634C2.94592 3.73292 3.3884 3.21704 3.96547 3.21704L8.19302 3.21707C8.4429 3.21707 8.64546 3.41964 8.64546 3.66951C8.64546 3.91939 8.4429 4.12196 8.19302 4.12195L3.96547 4.12192C3.89638 4.12192 3.84981 4.17964 3.85542 4.24454L4.34532 8.78123H6.46687C6.2426 9.04992 6.08235 9.36699 6.02139 9.68611Z" fill="url(#paint2_linear_3890_21540)"/>
<path d="M4.6273 5.99086C4.61446 6.00835 4.60214 6.02626 4.59037 6.04456C4.55853 6.09406 4.53166 6.14377 4.50914 6.19217L4.50148 6.20899L3.59821 8.23961C3.52156 8.41194 3.4905 8.60277 3.5083 8.79205C3.51379 8.85041 3.52335 8.90799 3.53667 8.9641C3.65858 9.47728 4.09991 9.86943 4.63692 9.86943H6.05757C6.27912 9.10071 7.05071 8.38695 7.87074 8.38695L12.1052 8.38692C12.1304 8.38642 12.1554 8.38654 12.1804 8.38726L12.9424 6.07529C12.9901 5.93046 13.0073 5.77649 12.9929 5.624C12.9344 5.00607 12.4503 4.57274 11.901 4.55345C11.8618 4.54859 11.8223 4.54614 11.7827 4.54614H10.1529C9.88775 4.54614 9.63321 4.6558 9.44442 4.85138L8.79956 5.51943H5.53228C5.51263 5.51943 5.49277 5.51996 5.47273 5.52104C5.34646 5.5279 5.22262 5.55961 5.10763 5.61446C4.98462 5.66562 4.86786 5.73897 4.76511 5.83535C4.71855 5.87903 4.6716 5.9305 4.6273 5.99086Z" fill="url(#paint3_linear_3890_21540)"/>
<path fill-rule="evenodd" clip-rule="evenodd" d="M8.11781 9.38672C7.52608 9.38672 7.04639 9.86641 7.04639 10.4581V12.1065C7.04639 12.6982 7.52608 13.1779 8.11781 13.1779H11.9265C12.5183 13.1779 12.9979 12.6982 12.9979 12.1065V10.4581C12.9979 9.86641 12.5183 9.38672 11.9265 9.38672H8.11781ZM11.1813 12.3538C11.1136 12.3538 11.0459 12.3275 10.9934 12.2764C10.8898 12.1728 10.8898 12.0043 10.9934 11.9007L11.6109 11.2832L10.9934 10.6643C10.8898 10.5607 10.8898 10.3922 10.9934 10.2886C11.097 10.185 11.2656 10.185 11.3692 10.2886L12.1745 11.0939C12.2242 11.1437 12.2519 11.2114 12.2519 11.2818C12.2519 11.3523 12.2242 11.42 12.1745 11.4697L11.3692 12.275C11.3167 12.3275 11.249 12.3538 11.1813 12.3538ZM8.86337 12.3538C8.79569 12.3538 8.728 12.3275 8.67551 12.2764L7.87017 11.4711C7.76657 11.3675 7.76657 11.1989 7.87017 11.0953L8.67551 10.29C8.77911 10.1864 8.94764 10.1864 9.05124 10.29C9.15484 10.3936 9.15484 10.5621 9.05124 10.6657L8.43239 11.2832L9.04986 11.9007C9.15346 12.0043 9.15346 12.1728 9.04986 12.2764C8.99875 12.3275 8.93106 12.3538 8.86337 12.3538ZM9.56925 12.3068C9.60517 12.322 9.64108 12.3289 9.677 12.3289C9.77922 12.3289 9.87592 12.2695 9.91874 12.1714L10.6094 10.6105C10.6688 10.4765 10.608 10.3204 10.474 10.261C10.3401 10.2016 10.184 10.2624 10.1246 10.3964L9.43388 11.9573C9.37448 12.0913 9.43526 12.2474 9.56925 12.3068Z" fill="url(#paint4_linear_3890_21540)"/>
</g>
<defs>
<linearGradient id="paint0_linear_3890_21540" x1="1.44653" y1="2.26845" x2="13.6835" y2="14.7453" gradientUnits="userSpaceOnUse">
<stop stop-color="white"/>
<stop offset="1" stop-color="#EAECEE"/>
</linearGradient>
<linearGradient id="paint1_linear_3890_21540" x1="3.84584" y1="4.18445" x2="8.33843" y2="8.13608" gradientUnits="userSpaceOnUse">
<stop stop-color="#0195FF"/>
<stop offset="0.991028" stop-color="#1147E9"/>
</linearGradient>
<linearGradient id="paint2_linear_3890_21540" x1="3.84584" y1="4.18445" x2="8.33843" y2="8.13608" gradientUnits="userSpaceOnUse">
<stop stop-color="#0195FF"/>
<stop offset="0.991028" stop-color="#1147E9"/>
</linearGradient>
<linearGradient id="paint3_linear_3890_21540" x1="4.92667" y1="5.34221" x2="8.10609" y2="11.0149" gradientUnits="userSpaceOnUse">
<stop stop-color="#0195FF"/>
<stop offset="0.991028" stop-color="#1147E9"/>
</linearGradient>
<linearGradient id="paint4_linear_3890_21540" x1="7.92629" y1="9.94448" x2="10.3264" y2="13.7286" gradientUnits="userSpaceOnUse">
<stop stop-color="#1348FF"/>
<stop offset="1" stop-color="#06238D"/>
</linearGradient>
<clipPath id="clip0_3890_21540">
<rect width="10" height="10" fill="white" transform="translate(2.99561 3.19751)"/>
</clipPath>
</defs>
</svg>
