<svg width="16" height="16" viewBox="0 0 16 16" fill="none" xmlns="http://www.w3.org/2000/svg">
<circle cx="7.99445" cy="7.99738" r="7.85696" fill="url(#paint0_linear_3890_21543)" stroke="#D5DADD" stroke-width="0.285708"/>
<g clip-path="url(#clip0_3890_21543)">
<path d="M8.94346 3.21001C8.4193 2.68585 7.56947 2.68586 7.04531 3.21001L3.40679 6.84853C2.88263 7.37269 2.88263 8.22252 3.40679 8.74668L4.33309 9.67298C4.36806 8.87264 4.84021 8.18579 5.51665 7.84531C5.4213 7.57329 5.36935 7.28087 5.36935 6.97661C5.36936 5.52984 6.54163 4.34964 7.99435 4.34964C9.44708 4.34964 10.6194 5.52985 10.6194 6.97661C10.6194 7.2819 10.5671 7.57526 10.4711 7.84806C11.1464 8.19037 11.6168 8.87835 11.6495 9.67918L12.582 8.74668C13.1061 8.22252 13.1061 7.37269 12.582 6.84853L8.94346 3.21001Z" fill="url(#paint1_linear_3890_21543)"/>
<path fill-rule="evenodd" clip-rule="evenodd" d="M6.24429 6.97658C6.24429 7.51752 6.48992 8.00227 6.87611 8.32399L6.76133 8.5222C6.67165 8.50224 6.57842 8.49172 6.48273 8.49172C5.77758 8.49172 5.20594 9.06335 5.20594 9.7685C5.20594 10.1006 5.33275 10.4031 5.54059 10.6302L5.44813 10.7899C5.38303 10.7766 5.31562 10.7696 5.24658 10.7696C4.6943 10.7696 4.24658 11.2173 4.24658 11.7696C4.24658 12.3219 4.6943 12.7696 5.24658 12.7696C5.79887 12.7696 6.24658 12.3219 6.24658 11.7696C6.24658 11.5125 6.14959 11.2781 5.99022 11.101L6.06329 10.9748C6.19466 11.0205 6.3358 11.0453 6.48273 11.0453C6.65015 11.0453 6.81005 11.0131 6.95656 10.9545L7.0247 11.0722C6.84936 11.2523 6.74136 11.4983 6.74136 11.7696C6.74136 12.3219 7.18908 12.7696 7.74136 12.7696C8.29365 12.7696 8.74136 12.3219 8.74136 11.7696C8.74136 11.2173 8.29365 10.7696 7.74136 10.7696C7.68618 10.7696 7.63204 10.7741 7.57929 10.7827L7.46463 10.5847C7.64877 10.3634 7.75951 10.0789 7.75951 9.7685C7.75951 9.38371 7.58929 9.03867 7.32004 8.80458L7.42 8.63196C7.59985 8.69453 7.79307 8.72855 7.99429 8.72855C8.19353 8.72855 8.38491 8.6952 8.56324 8.63381L8.66213 8.80459C8.39289 9.03867 8.22267 9.38371 8.22267 9.7685C8.22267 10.4737 8.7943 11.0453 9.49945 11.0453C9.64638 11.0453 9.78751 11.0205 9.91888 10.9748L9.99195 11.101C9.83258 11.2781 9.73559 11.5125 9.73559 11.7696C9.73559 12.3219 10.1833 12.7696 10.7356 12.7696C11.2879 12.7696 11.7356 12.3219 11.7356 11.7696C11.7356 11.2173 11.2879 10.7696 10.7356 10.7696C10.6665 10.7696 10.5991 10.7766 10.534 10.7899L10.4416 10.6302C10.6494 10.4031 10.7762 10.1006 10.7762 9.7685C10.7762 9.06335 10.2046 8.49172 9.49945 8.49172C9.40376 8.49172 9.31052 8.50224 9.22084 8.5222L9.10814 8.32759C9.49682 8.00589 9.74429 7.51954 9.74429 6.97658C9.74429 6.01111 8.96182 5.22461 7.99429 5.22461C7.02677 5.22461 6.24429 6.01111 6.24429 6.97658ZM8.74429 6.97658C8.74429 7.1482 8.68676 7.30641 8.59008 7.43298L8.58937 7.43174C8.4606 7.60024 8.26214 7.71261 8.03713 7.72531L8.03827 7.72728C8.02372 7.72812 8.00905 7.72855 7.99429 7.72855C7.97743 7.72855 7.9607 7.72799 7.94412 7.72689L7.94526 7.72491C7.7207 7.71031 7.52312 7.59639 7.3957 7.42674L7.39487 7.42817C7.30039 7.30242 7.24429 7.14604 7.24429 6.97658C7.24429 6.56134 7.58111 6.22461 7.99429 6.22461C8.40748 6.22461 8.74429 6.56134 8.74429 6.97658ZM9.49946 9.26835C9.22331 9.26835 8.99946 9.4922 8.99946 9.76835C8.99946 10.0445 9.22331 10.2683 9.49946 10.2683C9.7756 10.2683 9.99946 10.0445 9.99946 9.76835C9.99946 9.4922 9.7756 9.26835 9.49946 9.26835ZM5.98279 9.7685C5.98279 9.49236 6.20665 9.2685 6.48279 9.2685C6.75894 9.2685 6.98279 9.49236 6.98279 9.7685C6.98279 10.0446 6.75894 10.2685 6.48279 10.2685C6.20665 10.2685 5.98279 10.0446 5.98279 9.7685ZM10.7355 11.3944C10.5284 11.3944 10.3605 11.5623 10.3605 11.7694C10.3605 11.9766 10.5284 12.1444 10.7355 12.1444C10.9426 12.1444 11.1105 11.9766 11.1105 11.7694C11.1105 11.5623 10.9426 11.3944 10.7355 11.3944ZM7.36631 11.7694C7.36631 11.5623 7.5342 11.3944 7.74131 11.3944C7.94842 11.3944 8.11631 11.5623 8.11631 11.7694C8.11631 11.9766 7.94842 12.1444 7.74131 12.1444C7.5342 12.1444 7.36631 11.9766 7.36631 11.7694ZM5.24665 11.3944C5.03954 11.3944 4.87165 11.5623 4.87165 11.7694C4.87165 11.9766 5.03954 12.1444 5.24665 12.1444C5.45376 12.1444 5.62165 11.9766 5.62165 11.7694C5.62165 11.5623 5.45376 11.3944 5.24665 11.3944Z" fill="url(#paint2_linear_3890_21543)"/>
</g>
<defs>
<linearGradient id="paint0_linear_3890_21543" x1="1.44555" y1="2.26845" x2="13.6825" y2="14.7453" gradientUnits="userSpaceOnUse">
<stop stop-color="white"/>
<stop offset="1" stop-color="#EAECEE"/>
</linearGradient>
<linearGradient id="paint1_linear_3890_21543" x1="4.50693" y1="3.84311" x2="8.99592" y2="10.3617" gradientUnits="userSpaceOnUse">
<stop stop-color="#0195FF"/>
<stop offset="0.991028" stop-color="#1147E9"/>
</linearGradient>
<linearGradient id="paint2_linear_3890_21543" x1="5.35378" y1="6.33464" x2="10.6341" y2="11.5984" gradientUnits="userSpaceOnUse">
<stop stop-color="#1348FF"/>
<stop offset="1" stop-color="#06238D"/>
</linearGradient>
<clipPath id="clip0_3890_21543">
<rect width="10" height="10" fill="white" transform="translate(2.99463 2.79761)"/>
</clipPath>
</defs>
</svg>
