<svg width="16" height="16" viewBox="0 0 16 16" fill="none" xmlns="http://www.w3.org/2000/svg">
<circle cx="7.99982" cy="7.99689" r="7.85696" fill="url(#paint0_linear_4272_60093)" stroke="#D5DADD" stroke-width="0.285708"/>
<g clip-path="url(#clip0_4272_60093)">
<path fill-rule="evenodd" clip-rule="evenodd" d="M10.4597 8.24844C10.5539 8.02595 10.8106 7.92197 11.0331 8.0162L12.715 8.72851C12.8767 8.797 12.9818 8.95556 12.9819 9.13119L12.9829 11.5437C12.983 11.7047 12.8946 11.8528 12.7528 11.9291L10.9194 12.916C10.7955 12.9827 10.647 12.9857 10.5205 12.9241L8.83871 12.1049C8.68832 12.0317 8.59285 11.8791 8.59279 11.7118L8.5918 9.30793C8.59173 9.14621 8.68088 8.99764 8.82361 8.92161L8.97494 8.841C9.09167 8.77882 9.23026 8.77278 9.35196 8.82457L11.0339 9.54038C11.1952 9.60905 11.3 9.76742 11.3 9.94276L11.3003 10.6665C11.3004 10.9081 11.1046 11.1041 10.863 11.1042C10.6214 11.1043 10.4254 10.9085 10.4253 10.6669L10.4251 10.2323L9.46701 9.82449L9.46767 11.438L10.7021 12.0392L12.1078 11.2826L12.107 9.42125L10.6919 8.82192C10.4694 8.72769 10.3654 8.47093 10.4597 8.24844Z" fill="url(#paint1_linear_4272_60093)"/>
<path d="M8.15026 3.57788C8.23862 3.75565 8.28723 3.95454 8.28731 4.16132L8.28831 6.57383C8.28851 7.05693 8.02329 7.50109 7.59791 7.73007L5.76458 8.71693C5.39277 8.91707 4.94738 8.9261 4.56776 8.74121L3.58057 8.26039V10.917C3.58057 11.7454 4.25214 12.417 5.08057 12.417H7.92386C7.79214 12.2103 7.7183 11.9669 7.71819 11.7121L7.7172 9.30826C7.717 8.82311 7.98444 8.37742 8.41263 8.14933L8.56396 8.06871C8.89105 7.89447 9.27537 7.86717 9.62214 7.99095C9.63186 7.96287 9.64259 7.93494 9.65435 7.90718C9.93704 7.2397 10.7073 6.92777 11.3748 7.21046L12.4197 7.65299V5.07788C12.4197 4.24945 11.7481 3.57788 10.9197 3.57788H8.15026Z" fill="url(#paint2_linear_4272_60093)"/>
<path fill-rule="evenodd" clip-rule="evenodd" d="M4.88983 3.27847C4.98406 3.05598 5.24082 2.952 5.46331 3.04623L7.14519 3.75854C7.30691 3.82703 7.412 3.98559 7.41207 4.16122L7.41307 6.57373C7.41314 6.73476 7.32473 6.88281 7.18294 6.95914L5.34961 7.946C5.22567 8.01271 5.07721 8.01572 4.95067 7.95409L3.26889 7.13498C3.11849 7.06172 3.02303 6.90912 3.02296 6.74183L3.02197 4.33795C3.02191 4.17624 3.11105 4.02767 3.25378 3.95164L3.40512 3.87103C3.52185 3.80885 3.66044 3.80281 3.78214 3.8546L5.46403 4.57041C5.62537 4.63908 5.73013 4.79745 5.7302 4.97279L5.7305 5.69653C5.7306 5.93815 5.5348 6.13411 5.29318 6.13421C5.05155 6.13431 4.8556 5.93851 4.8555 5.69689L4.85532 5.2623L3.89719 4.85452L3.89785 6.46805L5.13227 7.06927L6.53796 6.31261L6.53719 4.45128L5.12207 3.85195C4.89958 3.75772 4.7956 3.50096 4.88983 3.27847Z" fill="url(#paint3_linear_4272_60093)"/>
</g>
<defs>
<linearGradient id="paint0_linear_4272_60093" x1="1.45092" y1="2.26797" x2="13.6878" y2="14.7448" gradientUnits="userSpaceOnUse">
<stop stop-color="white"/>
<stop offset="1" stop-color="#EAECEE"/>
</linearGradient>
<linearGradient id="paint1_linear_4272_60093" x1="9.24099" y1="8.71511" x2="12.7048" y2="11.7783" gradientUnits="userSpaceOnUse">
<stop stop-color="#1348FF"/>
<stop offset="1" stop-color="#06238D"/>
</linearGradient>
<linearGradient id="paint2_linear_4272_60093" x1="4.90559" y1="4.89971" x2="11.0947" y2="11.091" gradientUnits="userSpaceOnUse">
<stop stop-color="#0195FF"/>
<stop offset="0.991028" stop-color="#1147E9"/>
</linearGradient>
<linearGradient id="paint3_linear_4272_60093" x1="3.67914" y1="3.75965" x2="7.14249" y2="6.80717" gradientUnits="userSpaceOnUse">
<stop stop-color="#00BBFF"/>
<stop offset="1" stop-color="#008BFF"/>
</linearGradient>
<clipPath id="clip0_4272_60093">
<rect width="10" height="10" fill="white" transform="matrix(-1 0 0 1 13 2.99683)"/>
</clipPath>
</defs>
</svg>
