<svg width="16" height="16" viewBox="0 0 16 16" fill="none" xmlns="http://www.w3.org/2000/svg">
<g clip-path="url(#clip0_4272_60094)">
<circle cx="7.99933" cy="7.99689" r="7.85696" fill="url(#paint0_linear_4272_60094)" stroke="#D5DADD" stroke-width="0.285708"/>
<path d="M6.12836 11.3197L5.58607 10.9918L5.03371 11.2312C4.91096 11.268 4.79435 11.2864 4.68387 11.2864C4.51203 11.2864 4.34632 11.2435 4.18674 11.1575C4.03945 11.0716 3.92284 10.9427 3.83691 10.7709L3.48708 10.0896C3.42571 9.94234 3.39502 9.80731 3.39502 9.68457C3.39502 9.36542 3.5239 9.10765 3.78168 8.91125L4.20516 8.59825V7.64081L3.76326 7.30939C3.51777 7.12527 3.39502 6.87364 3.39502 6.55449C3.39502 6.43174 3.42571 6.29672 3.48708 6.14942L3.83691 5.46817C3.92284 5.29632 4.03945 5.16744 4.18674 5.08152C4.34632 4.99559 4.51203 4.95263 4.68387 4.95263C4.8189 4.95263 4.93551 4.97718 5.03371 5.02628L5.58607 5.24723L6.3778 4.76851L6.50668 4.16091C6.55578 3.93996 6.66625 3.76198 6.8381 3.62695C7.00995 3.47965 7.20635 3.40601 7.42729 3.40601H8.07172C8.29267 3.40601 8.48906 3.47965 8.66091 3.62695C8.83276 3.76198 8.94323 3.93996 8.99233 4.16091L9.1028 4.76851L9.91294 5.24723L10.4653 5.02628C10.5635 4.97718 10.6801 4.95263 10.8151 4.95263C10.987 4.95263 11.1466 4.99559 11.2939 5.08152C11.4534 5.16744 11.5762 5.29632 11.6621 5.46817L11.9935 6.14942C12.0672 6.27217 12.104 6.41333 12.104 6.5729C12.104 6.87977 11.9751 7.12527 11.7173 7.30939L11.2754 7.64081V8.28012C10.8502 8.11586 10.3883 8.02576 9.90573 8.02576C9.81471 8.02576 9.72442 8.02896 9.63498 8.03527C9.62538 7.80941 9.57687 7.59814 9.48946 7.40145C9.39126 7.16823 9.25624 6.9657 9.08439 6.79385C8.91254 6.622 8.71001 6.48698 8.47679 6.38878C8.24357 6.29058 7.99807 6.24148 7.7403 6.24148C7.48253 6.24148 7.23703 6.29058 7.00381 6.38878C6.78286 6.48698 6.58647 6.622 6.41462 6.79385C6.24277 6.9657 6.10775 7.16823 6.00955 7.40145C5.91135 7.6224 5.86225 7.86176 5.86225 8.11953C5.86225 8.3773 5.91135 8.6228 6.00955 8.85602C6.10775 9.07696 6.24277 9.27336 6.41462 9.44521C6.51579 9.54638 6.62546 9.63478 6.74365 9.71042C6.42481 10.1827 6.20889 10.73 6.12836 11.3197Z" fill="url(#paint1_linear_4272_60094)"/>
<path d="M11.0058 10.6194C10.862 10.5381 10.6808 10.5756 10.587 10.7131L9.79326 11.8631C9.50576 11.9194 9.28076 12.1631 9.28076 12.4631C9.28076 12.8069 9.56201 13.0881 9.90576 13.0881C10.2495 13.0881 10.5308 12.8069 10.5308 12.4631C10.5308 12.3944 10.512 12.3319 10.4933 12.2694L11.1245 11.0319C11.1995 10.8881 11.1495 10.7069 11.0058 10.6194Z" fill="url(#paint2_linear_4272_60094)"/>
<path d="M7.09326 11.8381C7.09326 10.2881 8.35576 9.02563 9.90576 9.02563C11.4558 9.02563 12.7183 10.2881 12.7183 11.8381C12.7183 12.1131 12.4933 12.3381 12.2183 12.3381C11.9433 12.3381 11.7183 12.1131 11.7183 11.8381C11.7183 10.8381 10.9058 10.0256 9.90576 10.0256C8.90576 10.0256 8.09326 10.8381 8.09326 11.8381C8.09326 12.1131 7.86826 12.3381 7.59326 12.3381C7.31826 12.3381 7.09326 12.1131 7.09326 11.8381Z" fill="url(#paint3_linear_4272_60094)"/>
</g>
<defs>
<linearGradient id="paint0_linear_4272_60094" x1="1.45043" y1="2.26797" x2="13.6874" y2="14.7448" gradientUnits="userSpaceOnUse">
<stop stop-color="white"/>
<stop offset="1" stop-color="#EAECEE"/>
</linearGradient>
<linearGradient id="paint1_linear_4272_60094" x1="4.70053" y1="4.58945" x2="10.2162" y2="10.6615" gradientUnits="userSpaceOnUse">
<stop stop-color="#0195FF"/>
<stop offset="0.991028" stop-color="#1147E9"/>
</linearGradient>
<linearGradient id="paint2_linear_4272_60094" x1="7.92488" y1="9.62332" x2="10.6202" y2="13.3714" gradientUnits="userSpaceOnUse">
<stop stop-color="#1348FF"/>
<stop offset="1" stop-color="#06238D"/>
</linearGradient>
<linearGradient id="paint3_linear_4272_60094" x1="7.92488" y1="9.62332" x2="10.6202" y2="13.3714" gradientUnits="userSpaceOnUse">
<stop stop-color="#1348FF"/>
<stop offset="1" stop-color="#06238D"/>
</linearGradient>
<clipPath id="clip0_4272_60094">
<rect width="16" height="16" fill="white" transform="translate(-0.000488281 -0.00292969)"/>
</clipPath>
</defs>
</svg>
