<svg width="16" height="16" viewBox="0 0 16 16" fill="none" xmlns="http://www.w3.org/2000/svg">
<g clip-path="url(#clip0_4272_60092)">
<circle cx="7.99982" cy="7.99689" r="7.85696" fill="url(#paint0_linear_4272_60092)" stroke="#D5DADD" stroke-width="0.285708"/>
<g clip-path="url(#clip1_4272_60092)">
<path d="M9.73218 6.47681L7.27193 6.47681C6.51368 6.47681 5.89693 5.86006 5.89693 5.10181C5.91457 4.38578 6.48388 3.75795 7.20682 3.72217H5.2251C4.39667 3.72217 3.7251 4.39374 3.7251 5.22217V9.72058H6.06038C6.02588 9.32911 6.15796 8.92552 6.45662 8.62686C6.99208 8.09141 7.86484 8.09141 8.4003 8.62686L9.9003 10.1269C10.4295 10.6561 10.4295 11.5413 9.9003 12.0706L9.49869 12.4722H10.9751C11.8035 12.4722 12.4751 11.8006 12.4751 10.9722V7.16753L12.0721 7.57053C11.5366 8.10599 10.6639 8.10599 10.1284 7.57053C9.82976 7.27187 9.69768 6.86828 9.73218 6.47681Z" fill="url(#paint1_linear_4272_60092)"/>
<path d="M3.6001 11.6019C3.3251 11.6019 3.1001 11.3769 3.1001 11.1019C3.1001 11.1019 3.1001 10.5957 3.6001 10.5957L7.71905 10.5957L7.0753 9.95191C6.88155 9.75816 6.88155 9.4394 7.0753 9.24565C7.26905 9.0519 7.5878 9.0519 7.78155 9.24565L9.28155 10.7457C9.46905 10.9332 9.46905 11.2644 9.28155 11.4519L7.78155 12.9519C7.5878 13.1457 7.26905 13.1457 7.0753 12.9519C6.88155 12.7582 6.88155 12.4394 7.0753 12.2457L7.71905 11.6019L3.6001 11.6019Z" fill="url(#paint2_linear_4272_60092)"/>
<path d="M7.27197 5.60166C6.99697 5.60166 6.77197 5.37666 6.77197 5.10166C6.77197 5.10166 6.77197 4.59541 7.27197 4.59541L11.3909 4.59541L10.7472 3.95166C10.5534 3.75791 10.5534 3.43916 10.7472 3.24541C10.9409 3.05166 11.2597 3.05166 11.4534 3.24541L12.9534 4.74541C13.1409 4.93291 13.1409 5.26416 12.9534 5.45166L11.4534 6.95166C11.2597 7.14541 10.9409 7.14541 10.7472 6.95166C10.5534 6.75791 10.5534 6.43916 10.7472 6.24541L11.3909 5.60166L7.27197 5.60166Z" fill="url(#paint3_linear_4272_60092)"/>
</g>
</g>
<defs>
<linearGradient id="paint0_linear_4272_60092" x1="1.45092" y1="2.26797" x2="13.6878" y2="14.7448" gradientUnits="userSpaceOnUse">
<stop stop-color="white"/>
<stop offset="1" stop-color="#EAECEE"/>
</linearGradient>
<linearGradient id="paint1_linear_4272_60092" x1="5.03676" y1="5.03068" x2="11.1635" y2="11.1595" gradientUnits="userSpaceOnUse">
<stop stop-color="#0195FF"/>
<stop offset="0.991028" stop-color="#1147E9"/>
</linearGradient>
<linearGradient id="paint2_linear_4272_60092" x1="4.03478" y1="9.68837" x2="6.55698" y2="13.6951" gradientUnits="userSpaceOnUse">
<stop stop-color="#1348FF"/>
<stop offset="1" stop-color="#06238D"/>
</linearGradient>
<linearGradient id="paint3_linear_4272_60092" x1="7.71812" y1="3.69976" x2="10.247" y2="7.69705" gradientUnits="userSpaceOnUse">
<stop stop-color="#00BBFF"/>
<stop offset="1" stop-color="#008BFF"/>
</linearGradient>
<clipPath id="clip0_4272_60092">
<rect width="16" height="16" fill="white" transform="translate(0 -0.00292969)"/>
</clipPath>
<clipPath id="clip1_4272_60092">
<rect width="10" height="10" fill="white" transform="matrix(-1 0 0 1 13.1001 3.09717)"/>
</clipPath>
</defs>
</svg>
