<svg width="16" height="16" viewBox="0 0 16 16" fill="none" xmlns="http://www.w3.org/2000/svg">
<g clip-path="url(#clip0_4272_60097)">
<circle cx="7.99933" cy="7.99689" r="7.85696" fill="url(#paint0_linear_4272_60097)" stroke="#D5DADD" stroke-width="0.285708"/>
<g clip-path="url(#clip1_4272_60097)">
<path fill-rule="evenodd" clip-rule="evenodd" d="M5.7313 3.93342C5.77607 4.17086 5.61988 4.39963 5.38244 4.44441C5.07637 4.50212 4.84716 4.76991 4.84716 5.08798C4.84716 5.45008 5.02463 5.69891 5.16326 5.75925C5.38481 5.85568 5.48624 6.11345 5.38982 6.335C5.31654 6.50336 5.15009 6.60235 4.97717 6.59787C4.39889 6.7209 4.06641 7.17766 4.06641 7.63947C4.06641 7.88109 3.87053 8.07697 3.62891 8.07697C3.38728 8.07697 3.19141 7.88109 3.19141 7.63947C3.19141 6.94732 3.57443 6.31475 4.19165 5.96821C4.04399 5.69637 3.97216 5.38026 3.97216 5.08798C3.97216 4.33898 4.5109 3.71833 5.22031 3.58456C5.45775 3.53979 5.68653 3.69598 5.7313 3.93342Z" fill="url(#paint1_linear_4272_60097)"/>
<path fill-rule="evenodd" clip-rule="evenodd" d="M10.2677 3.93342C10.223 4.17086 10.3791 4.39963 10.6166 4.44441C10.9227 4.50212 11.1519 4.76991 11.1519 5.08798C11.1519 5.45008 10.9744 5.69891 10.8358 5.75925C10.6142 5.85568 10.5128 6.11345 10.6092 6.335C10.6825 6.50336 10.8489 6.60235 11.0219 6.59787C11.6001 6.7209 11.9326 7.17766 11.9326 7.63947C11.9326 7.88109 12.1285 8.07697 12.3701 8.07697C12.6117 8.07697 12.8076 7.88109 12.8076 7.63947C12.8076 6.94732 12.4246 6.31475 11.8074 5.96821C11.955 5.69637 12.0269 5.38026 12.0269 5.08798C12.0269 4.33898 11.4881 3.71833 10.7787 3.58456C10.5413 3.53979 10.3125 3.69598 10.2677 3.93342Z" fill="url(#paint2_linear_4272_60097)"/>
<path fill-rule="evenodd" clip-rule="evenodd" d="M8.01564 3.95538C7.40761 3.95538 6.91788 4.4458 6.91788 5.04685C6.91788 5.64791 7.40761 6.13833 8.01564 6.13833C8.62367 6.13833 9.1134 5.64791 9.1134 5.04685C9.1134 4.4458 8.62367 3.95538 8.01564 3.95538ZM5.99863 5.04685C5.99863 3.93461 6.90343 3.03613 8.01564 3.03613C9.12784 3.03613 10.0326 3.93461 10.0326 5.04685C10.0326 5.58727 9.81904 6.07722 9.47183 6.43816C10.4335 6.84425 11.1411 7.64707 11.1411 8.66891C11.1411 8.92276 10.9353 9.12854 10.6815 9.12854C10.4276 9.12854 10.2219 8.92276 10.2219 8.66891C10.2219 7.88646 9.35081 7.06613 8.01568 7.06613C6.68056 7.06613 5.8095 7.88646 5.8095 8.66891C5.8095 8.92276 5.60372 9.12854 5.34987 9.12854C5.09603 9.12854 4.89025 8.92276 4.89025 8.66891C4.89025 7.64709 5.59787 6.84429 6.55947 6.43819C6.21225 6.07724 5.99863 5.58728 5.99863 5.04685Z" fill="url(#paint3_linear_4272_60097)"/>
<path fill-rule="evenodd" clip-rule="evenodd" d="M4.81568 12.1147C4.81451 12.392 4.58913 12.6174 4.31179 12.6186C4.03384 12.6197 3.80939 12.3953 3.81055 12.1173L3.81782 10.3832C3.81899 10.1059 4.04437 9.88051 4.32171 9.87935L6.05581 9.87208C6.33376 9.87091 6.55822 10.0954 6.55705 10.3733C6.55589 10.6507 6.3305 10.876 6.05317 10.8772L5.56508 10.8792L5.85948 11.1737C6.39196 11.7061 7.1924 11.9769 7.99999 11.9769C8.80758 11.9768 9.60787 11.7058 10.14 11.1737L10.4344 10.8792L9.94636 10.8772C9.66902 10.876 9.44364 10.6507 9.44247 10.3733C9.44131 10.0954 9.66577 9.87091 9.94372 9.87208L11.6778 9.87935C11.9552 9.88051 12.1805 10.1059 12.1817 10.3832L12.189 12.1173C12.1901 12.3953 11.9657 12.6197 11.6877 12.6186C11.4104 12.6174 11.185 12.392 11.1838 12.1147L11.1815 11.5584L10.8529 11.887C10.1193 12.6207 9.05788 12.985 8.00158 12.9856C6.94527 12.9862 5.88267 12.6231 5.14658 11.887L4.81801 11.5584L4.81568 12.1147Z" fill="url(#paint4_linear_4272_60097)"/>
</g>
</g>
<defs>
<linearGradient id="paint0_linear_4272_60097" x1="1.45043" y1="2.26797" x2="13.6874" y2="14.7448" gradientUnits="userSpaceOnUse">
<stop stop-color="white"/>
<stop offset="1" stop-color="#EAECEE"/>
</linearGradient>
<linearGradient id="paint1_linear_4272_60097" x1="3.57267" y1="4.25206" x2="6.27341" y2="5.77992" gradientUnits="userSpaceOnUse">
<stop stop-color="#00BBFF"/>
<stop offset="1" stop-color="#008BFF"/>
</linearGradient>
<linearGradient id="paint2_linear_4272_60097" x1="12.431" y1="4.23896" x2="9.72464" y2="5.77766" gradientUnits="userSpaceOnUse">
<stop stop-color="#1348FF"/>
<stop offset="1" stop-color="#06238D"/>
</linearGradient>
<linearGradient id="paint3_linear_4272_60097" x1="5.06651" y1="4.52401" x2="11.9318" y2="10.3073" gradientUnits="userSpaceOnUse">
<stop stop-color="#0195FF"/>
<stop offset="0.991028" stop-color="#1147E9"/>
</linearGradient>
<linearGradient id="paint4_linear_4272_60097" x1="5.06651" y1="4.52401" x2="11.9318" y2="10.3073" gradientUnits="userSpaceOnUse">
<stop stop-color="#0195FF"/>
<stop offset="0.991028" stop-color="#1147E9"/>
</linearGradient>
<clipPath id="clip0_4272_60097">
<rect width="16" height="16" fill="white" transform="translate(-0.000488281 -0.00292969)"/>
</clipPath>
<clipPath id="clip1_4272_60097">
<rect width="10" height="10" fill="white" transform="translate(2.99951 2.99707)"/>
</clipPath>
</defs>
</svg>
