<svg width="16" height="16" viewBox="0 0 16 16" fill="none" xmlns="http://www.w3.org/2000/svg">
<circle cx="7.99933" cy="7.99762" r="7.85696" fill="url(#paint0_linear_6471_25637)" stroke="#D5DADD" stroke-width="0.285708"/>
<path fill-rule="evenodd" clip-rule="evenodd" d="M8.05959 4.66254C7.00615 4.66254 6.21761 5.6842 6.29045 6.65197C6.30112 6.79376 6.24578 6.93255 6.14048 7.0281C6.03517 7.12365 5.89167 7.16527 5.75158 7.14091C5.31224 7.0645 4.99309 7.18224 4.78239 7.37618C4.56451 7.57673 4.42181 7.89714 4.42181 8.29008C4.42181 8.7875 4.708 9.47405 5.27296 9.47405H5.92913C6.18382 9.47405 6.39029 9.68051 6.39029 9.9352C6.39029 10.1899 6.18382 10.3963 5.92913 10.3963H5.27296C4.9151 10.3689 4.42181 10.2132 4.05867 9.79413C3.69646 9.37611 3.49951 8.86108 3.49951 8.29008C3.49951 7.67652 3.72439 7.09649 4.15778 6.69758C4.48394 6.39737 4.90615 6.22034 5.3856 6.19771C5.54708 4.94616 6.59019 3.74023 8.05959 3.74023C9.21742 3.74023 10.0858 4.3871 10.5562 5.35353C11.413 5.36054 12.2404 5.61777 12.4822 6.56281C12.5507 6.80812 12.4073 7.06248 12.162 7.13094C11.9167 7.1994 11.6623 7.05603 11.5938 6.81072C11.4549 6.31297 10.9161 6.20178 10.3316 6.29171C10.1154 6.32498 9.90563 6.2018 9.82932 5.99681C9.51429 5.1505 8.89074 4.66254 8.05959 4.66254Z" fill="url(#paint1_linear_6471_25637)"/>
<path fill-rule="evenodd" clip-rule="evenodd" d="M6.74476 11.4284C6.64778 11.4284 6.5508 11.3908 6.47559 11.3175C6.32715 11.1691 6.32715 10.9276 6.47559 10.7792L7.3603 9.89446L6.47559 9.00777C6.32715 8.85933 6.32715 8.61787 6.47559 8.46942C6.62403 8.32098 6.86549 8.32098 7.01393 8.46942L8.16781 9.62331C8.23907 9.69456 8.27865 9.79154 8.27865 9.89248C8.27865 9.99342 8.23907 10.0904 8.16781 10.1617L7.01393 11.3155C6.93872 11.3908 6.84174 11.4284 6.74476 11.4284Z" fill="url(#paint2_linear_6471_25637)"/>
<path fill-rule="evenodd" clip-rule="evenodd" d="M9.176 9.86413C9.176 9.6156 9.37747 9.41413 9.626 9.41413H11.1757C11.4243 9.41413 11.6257 9.6156 11.6257 9.86413C11.6257 10.1127 11.4243 10.3141 11.1757 10.3141H9.626C9.37747 10.3141 9.176 10.1127 9.176 9.86413Z" fill="url(#paint3_linear_6471_25637)"/>
<path fill-rule="evenodd" clip-rule="evenodd" d="M8.50899 11.2435C8.50899 10.995 8.71046 10.7935 8.95899 10.7935H11.1709C11.4195 10.7935 11.6209 10.995 11.6209 11.2435C11.6209 11.492 11.4195 11.6935 11.1709 11.6935H8.95899C8.71046 11.6935 8.50899 11.492 8.50899 11.2435Z" fill="url(#paint4_linear_6471_25637)"/>
<path fill-rule="evenodd" clip-rule="evenodd" d="M8.5138 8.4915C8.5138 8.24298 8.71527 8.0415 8.9638 8.0415H11.1757C11.4243 8.0415 11.6257 8.24298 11.6257 8.4915C11.6257 8.74003 11.4243 8.9415 11.1757 8.9415H8.9638C8.71527 8.9415 8.5138 8.74003 8.5138 8.4915Z" fill="url(#paint5_linear_6471_25637)"/>
<defs>
<linearGradient id="paint0_linear_6471_25637" x1="1.45043" y1="2.2687" x2="13.6874" y2="14.7456" gradientUnits="userSpaceOnUse">
<stop stop-color="white"/>
<stop offset="1" stop-color="#EAECEE"/>
</linearGradient>
<linearGradient id="paint1_linear_6471_25637" x1="4.84862" y1="4.73561" x2="9.30444" y2="10.7625" gradientUnits="userSpaceOnUse">
<stop stop-color="#0195FF"/>
<stop offset="0.991028" stop-color="#1147E9"/>
</linearGradient>
<linearGradient id="paint2_linear_6471_25637" x1="7.14213" y1="8.57879" x2="9.53297" y2="12.0381" gradientUnits="userSpaceOnUse">
<stop stop-color="#1348FF"/>
<stop offset="1" stop-color="#06238D"/>
</linearGradient>
<linearGradient id="paint3_linear_6471_25637" x1="7.14213" y1="8.57879" x2="9.53297" y2="12.0381" gradientUnits="userSpaceOnUse">
<stop stop-color="#1348FF"/>
<stop offset="1" stop-color="#06238D"/>
</linearGradient>
<linearGradient id="paint4_linear_6471_25637" x1="7.14213" y1="8.57879" x2="9.53297" y2="12.0381" gradientUnits="userSpaceOnUse">
<stop stop-color="#1348FF"/>
<stop offset="1" stop-color="#06238D"/>
</linearGradient>
<linearGradient id="paint5_linear_6471_25637" x1="7.14213" y1="8.57879" x2="9.53297" y2="12.0381" gradientUnits="userSpaceOnUse">
<stop stop-color="#1348FF"/>
<stop offset="1" stop-color="#06238D"/>
</linearGradient>
</defs>
</svg>
