<svg width="16" height="16" viewBox="0 0 16 16" fill="none" xmlns="http://www.w3.org/2000/svg">
<g clip-path="url(#clip0_4272_60095)">
<circle cx="7.99933" cy="7.99713" r="7.85696" fill="url(#paint0_linear_4272_60095)" stroke="#D5DADD" stroke-width="0.285708"/>
<path d="M3.81836 6.1994C3.81836 6.44793 4.01983 6.6494 4.26836 6.6494C4.51689 6.6494 4.71836 6.44793 4.71836 6.1994L4.71836 5.17227C4.71836 4.92374 4.91983 4.72227 5.16836 4.72227H6.12346C6.37199 4.72227 6.57346 4.52079 6.57346 4.27227C6.57346 4.02374 6.37199 3.82227 6.12346 3.82227H5.16836C4.42277 3.82227 3.81836 4.42668 3.81836 5.17227V6.1994Z" fill="url(#paint1_linear_4272_60095)"/>
<path d="M6.1955 12.1932C6.44402 12.1932 6.6455 11.9918 6.6455 11.7432C6.6455 11.4947 6.44402 11.2932 6.1955 11.2932H5.16836C4.91983 11.2932 4.71836 11.0918 4.71836 10.8432L4.71836 9.88815C4.71836 9.63962 4.51689 9.43815 4.26836 9.43815C4.01983 9.43815 3.81836 9.63962 3.81836 9.88815V10.8432C3.81836 11.5888 4.42278 12.1932 5.16836 12.1932H6.1955Z" fill="url(#paint2_linear_4272_60095)"/>
<path d="M11.7243 6.6494C11.9728 6.6494 12.1743 6.44793 12.1743 6.1994L12.1743 5.17227C12.1743 4.42668 11.5698 3.82227 10.8243 3.82227L9.86915 3.82227C9.62062 3.82227 9.41915 4.02374 9.41915 4.27227C9.41915 4.52079 9.62062 4.72227 9.86915 4.72227L10.8243 4.72227C11.0728 4.72227 11.2743 4.92374 11.2743 5.17227V6.1994C11.2743 6.44793 11.4757 6.6494 11.7243 6.6494Z" fill="url(#paint3_linear_4272_60095)"/>
<path fill-rule="evenodd" clip-rule="evenodd" d="M8.34225 6.7521C8.21798 6.7521 8.11725 6.85284 8.11725 6.9771V7.48013C8.11725 7.97719 7.71428 8.38014 7.21721 8.38013L7.02812 8.38012C7.01846 8.76166 6.70613 9.06799 6.32226 9.06799H5.66995C5.27999 9.06799 4.96387 8.75186 4.96387 8.3619V7.7074C4.96387 7.31744 5.27999 7.00131 5.66995 7.00131H6.32226C6.71146 7.00131 7.02712 7.31621 7.02834 7.70512L7.21724 7.70513C7.3415 7.70513 7.44225 7.60439 7.44225 7.48013V6.9771C7.44225 6.48004 7.8452 6.07709 8.34226 6.0771L8.67921 6.0771V6.02677C8.67921 5.58995 9.03332 5.23584 9.47014 5.23584L9.96953 5.23584C10.4063 5.23584 10.7605 5.58995 10.7605 6.02677V6.52838C10.7605 6.9652 10.4063 7.31931 9.96953 7.31931H9.47014C9.11102 7.31931 8.80781 7.07997 8.7113 6.7521L8.34225 6.7521ZM6.32226 7.67631C6.33943 7.67631 6.35335 7.69023 6.35335 7.7074L6.35335 8.3619C6.35335 8.37907 6.33943 8.39299 6.32226 8.39299H5.66995C5.65278 8.39299 5.63887 8.37907 5.63887 8.3619V7.7074C5.63887 7.69023 5.65278 7.67631 5.66995 7.67631H6.32226ZM10.0855 6.02677C10.0855 5.96274 10.0336 5.91084 9.96953 5.91084H9.47014C9.40611 5.91084 9.35421 5.96274 9.35421 6.02677V6.52838C9.35421 6.5924 9.40611 6.64431 9.47014 6.64431H9.96953C10.0336 6.64431 10.0855 6.5924 10.0855 6.52838V6.02677Z" fill="url(#paint4_linear_4272_60095)"/>
<path fill-rule="evenodd" clip-rule="evenodd" d="M10.6897 9.72292C10.6897 10.2475 10.2644 10.6728 9.73976 10.6728C9.21514 10.6728 8.78985 10.2475 8.78985 9.72292C8.78985 9.19829 9.21514 8.773 9.73976 8.773C10.2644 8.773 10.6897 9.19829 10.6897 9.72292ZM10.6291 11.2293C10.3685 11.3835 10.0645 11.472 9.73976 11.472C8.7738 11.472 7.99072 10.6889 7.99072 9.72292C7.99072 8.75695 8.7738 7.97388 9.73976 7.97388C10.7057 7.97388 11.4888 8.75695 11.4888 9.72292C11.4888 10.0746 11.385 10.4021 11.2063 10.6764L12.3825 11.8525C12.5386 12.0086 12.5386 12.2616 12.3825 12.4176C12.2265 12.5736 11.9735 12.5736 11.8174 12.4176L10.6291 11.2293Z" fill="url(#paint5_linear_4272_60095)"/>
</g>
<defs>
<linearGradient id="paint0_linear_4272_60095" x1="1.45043" y1="2.26821" x2="13.6874" y2="14.7451" gradientUnits="userSpaceOnUse">
<stop stop-color="white"/>
<stop offset="1" stop-color="#EAECEE"/>
</linearGradient>
<linearGradient id="paint1_linear_4272_60095" x1="5.07094" y1="5.07409" x2="10.9323" y2="10.9269" gradientUnits="userSpaceOnUse">
<stop stop-color="#0195FF"/>
<stop offset="0.991028" stop-color="#1147E9"/>
</linearGradient>
<linearGradient id="paint2_linear_4272_60095" x1="5.07094" y1="5.07409" x2="10.9323" y2="10.9269" gradientUnits="userSpaceOnUse">
<stop stop-color="#0195FF"/>
<stop offset="0.991028" stop-color="#1147E9"/>
</linearGradient>
<linearGradient id="paint3_linear_4272_60095" x1="5.07094" y1="5.07409" x2="10.9323" y2="10.9269" gradientUnits="userSpaceOnUse">
<stop stop-color="#0195FF"/>
<stop offset="0.991028" stop-color="#1147E9"/>
</linearGradient>
<linearGradient id="paint4_linear_4272_60095" x1="5.83137" y1="5.81078" x2="8.30085" y2="9.54357" gradientUnits="userSpaceOnUse">
<stop stop-color="#00BBFF"/>
<stop offset="1" stop-color="#008BFF"/>
</linearGradient>
<linearGradient id="paint5_linear_4272_60095" x1="8.65732" y1="8.64486" x2="11.8491" y2="11.8139" gradientUnits="userSpaceOnUse">
<stop stop-color="#1348FF"/>
<stop offset="1" stop-color="#06238D"/>
</linearGradient>
<clipPath id="clip0_4272_60095">
<rect width="16" height="16" fill="white" transform="translate(-0.000488281 -0.00292969)"/>
</clipPath>
</defs>
</svg>
