<svg width="16" height="16" viewBox="0 0 16 16" fill="none" xmlns="http://www.w3.org/2000/svg">
<g clip-path="url(#clip0_4272_60099)">
<circle cx="7.99933" cy="7.99713" r="7.85696" fill="url(#paint0_linear_4272_60099)" stroke="#D5DADD" stroke-width="0.285708"/>
<path fill-rule="evenodd" clip-rule="evenodd" d="M8.82557 6.55011C8.78527 6.7638 8.92584 6.96971 9.13954 7.01C9.38843 7.05693 9.57462 7.27469 9.57462 7.53303C9.57462 7.83458 9.42663 8.03481 9.32043 8.08104C9.12103 8.16782 9.02975 8.39982 9.11653 8.59921C9.18209 8.74984 9.33052 8.83878 9.48517 8.83585C9.9637 8.93882 10.2364 9.31641 10.2364 9.69581C10.2364 9.91327 10.4127 10.0896 10.6302 10.0896C10.8476 10.0896 11.0239 9.91327 11.0239 9.69581C11.0239 9.10763 10.7025 8.57018 10.1838 8.27029C10.304 8.04038 10.3621 7.77649 10.3621 7.53303C10.3621 6.88685 9.89735 6.35152 9.28546 6.23614C9.07176 6.19584 8.86586 6.33641 8.82557 6.55011Z" fill="url(#paint1_linear_4272_60099)"/>
<path fill-rule="evenodd" clip-rule="evenodd" d="M6.86703 6.63565C6.35163 6.63565 5.9365 7.05136 5.9365 7.56084C5.9365 8.07033 6.35163 8.48604 6.86703 8.48604C7.38242 8.48604 7.79755 8.07033 7.79755 7.56084C7.79755 7.05136 7.38242 6.63565 6.86703 6.63565ZM5.1573 7.56084C5.1573 6.61805 5.92426 5.85645 6.86703 5.85645C7.80979 5.85645 8.57675 6.61805 8.57675 7.56084C8.57675 8.01893 8.39569 8.43424 8.10137 8.74019C8.9165 9.08442 9.51635 9.76493 9.51635 10.6311C9.51635 10.8463 9.34192 11.0207 9.12675 11.0207C8.91158 11.0207 8.73715 10.8463 8.73715 10.6311C8.73715 9.96785 7.99879 9.27249 6.86706 9.27249C5.73534 9.27249 4.99698 9.96785 4.99698 10.6311C4.99698 10.8463 4.82255 11.0207 4.60738 11.0207C4.3922 11.0207 4.21777 10.8463 4.21777 10.6311C4.21777 9.76495 4.8176 9.08445 5.6327 8.74022C5.33837 8.43426 5.1573 8.01894 5.1573 7.56084Z" fill="url(#paint2_linear_4272_60099)"/>
<path fill-rule="evenodd" clip-rule="evenodd" d="M9.03916 12.3471C9.03916 12.0986 9.24063 11.8971 9.48916 11.8971H10.9245C11.2973 11.8971 11.5995 11.5949 11.5995 11.2221V9.69422C11.5995 9.44569 11.801 9.24422 12.0495 9.24422C12.298 9.24422 12.4995 9.44569 12.4995 9.69422L12.4995 11.2221C12.4995 12.092 11.7944 12.7971 10.9245 12.7971L9.48916 12.7971C9.24063 12.7971 9.03916 12.5956 9.03916 12.3471Z" fill="url(#paint3_linear_4272_60099)"/>
<path fill-rule="evenodd" clip-rule="evenodd" d="M6.95987 4.24712C6.95987 4.49564 6.75839 4.69712 6.50987 4.69712L5.07451 4.69712C4.70172 4.69712 4.39951 4.99932 4.39951 5.37211L4.39951 6.90002C4.39951 7.14855 4.19804 7.35002 3.94951 7.35002C3.70098 7.35002 3.49951 7.14855 3.49951 6.90002L3.49951 5.37211C3.49951 4.50227 4.20466 3.79712 5.07451 3.79712L6.50987 3.79712C6.75839 3.79712 6.95987 3.99859 6.95987 4.24712Z" fill="url(#paint4_linear_4272_60099)"/>
<path fill-rule="evenodd" clip-rule="evenodd" d="M12.0495 7.25747C11.801 7.25747 11.5995 7.056 11.5995 6.80747V5.37211C11.5995 4.99932 11.2973 4.69712 10.9245 4.69712L9.39661 4.69712C9.14808 4.69712 8.94661 4.49564 8.94661 4.24712C8.94661 3.99859 9.14808 3.79712 9.39661 3.79712L10.9245 3.79712C11.7944 3.79712 12.4995 4.50227 12.4995 5.37211L12.4995 6.80747C12.4995 7.056 12.298 7.25747 12.0495 7.25747Z" fill="url(#paint5_linear_4272_60099)"/>
</g>
<defs>
<linearGradient id="paint0_linear_4272_60099" x1="1.45043" y1="2.26821" x2="13.6874" y2="14.7451" gradientUnits="userSpaceOnUse">
<stop stop-color="white"/>
<stop offset="1" stop-color="#EAECEE"/>
</linearGradient>
<linearGradient id="paint1_linear_4272_60099" x1="10.6939" y1="6.80842" x2="8.36635" y2="8.13713" gradientUnits="userSpaceOnUse">
<stop stop-color="#00BBFF"/>
<stop offset="1" stop-color="#008BFF"/>
</linearGradient>
<linearGradient id="paint2_linear_4272_60099" x1="5.00113" y1="6.61622" x2="8.61372" y2="10.3387" gradientUnits="userSpaceOnUse">
<stop stop-color="#1348FF"/>
<stop offset="1" stop-color="#06238D"/>
</linearGradient>
<linearGradient id="paint3_linear_4272_60099" x1="4.84865" y1="5.14301" x2="11.1504" y2="11.447" gradientUnits="userSpaceOnUse">
<stop stop-color="#0195FF"/>
<stop offset="0.991028" stop-color="#1147E9"/>
</linearGradient>
<linearGradient id="paint4_linear_4272_60099" x1="4.84865" y1="5.14301" x2="11.1504" y2="11.447" gradientUnits="userSpaceOnUse">
<stop stop-color="#0195FF"/>
<stop offset="0.991028" stop-color="#1147E9"/>
</linearGradient>
<linearGradient id="paint5_linear_4272_60099" x1="4.84865" y1="5.14301" x2="11.1504" y2="11.447" gradientUnits="userSpaceOnUse">
<stop stop-color="#0195FF"/>
<stop offset="0.991028" stop-color="#1147E9"/>
</linearGradient>
<clipPath id="clip0_4272_60099">
<rect width="16" height="16" fill="white" transform="translate(-0.000488281 -0.00292969)"/>
</clipPath>
</defs>
</svg>
