<svg width="16" height="16" viewBox="0 0 16 16" fill="none" xmlns="http://www.w3.org/2000/svg">
<g clip-path="url(#clip0_4272_60100)">
<circle cx="7.99933" cy="7.99713" r="7.85696" fill="url(#paint0_linear_4272_60100)" stroke="#D5DADD" stroke-width="0.285708"/>
<g clip-path="url(#clip1_4272_60100)">
<path d="M5.19741 5.58483C5.30013 5.72247 5.27211 5.91719 5.13496 6.02032C5.02085 6.10972 4.92097 6.22431 4.84389 6.34788C4.71971 6.54696 4.65221 6.78519 4.77985 7.05657C4.90526 7.28284 5.08899 7.49648 5.30943 7.71853C5.41622 7.82609 5.52798 7.93211 5.64371 8.04187C5.76293 8.15496 5.88218 8.26809 5.99777 8.38491C6.01767 8.39711 6.09098 8.41518 6.0858 8.37181C6.08412 8.35779 6.07661 8.33955 6.06539 8.32067C5.98126 8.17909 6.0218 7.99649 6.15795 7.90382C6.29409 7.81115 6.47884 7.84039 6.5797 7.97058C6.62863 8.03374 6.66777 8.0461 6.68253 8.0488C6.7168 8.05506 6.73422 8.03379 6.73641 8.02038C6.73704 8.01651 6.74125 7.98809 6.70292 7.93435C6.61386 7.80948 6.62889 7.63837 6.73836 7.53093C6.84783 7.4235 7.01919 7.41168 7.14237 7.50307C7.29659 7.61749 7.39962 7.6655 7.46257 7.67991C7.50752 7.6902 7.50359 7.68927 7.52039 7.67583C7.54272 7.65797 7.55025 7.64355 7.55294 7.63148C7.55592 7.61808 7.55485 7.59897 7.54447 7.56872C7.51025 7.46901 7.40421 7.31773 7.19588 7.13101C7.0677 7.01613 7.05692 6.81908 7.1718 6.6909C7.28669 6.56272 7.48373 6.55194 7.61191 6.66683C7.84737 6.87786 8.04805 7.11582 8.13404 7.36635C8.23437 7.65864 8.15499 7.96643 7.90977 8.16259C7.72823 8.30781 7.51396 8.33574 7.30306 8.28255C7.25287 8.39432 7.17284 8.48779 7.07542 8.55486C6.946 8.64397 6.79309 8.68396 6.63903 8.67117C6.59675 8.7525 6.53796 8.82222 6.46889 8.87725C6.23466 9.06389 5.88378 9.0833 5.60596 8.87102C5.46776 8.76541 5.3498 8.62207 5.22348 8.5023C5.10356 8.3886 4.98352 8.27498 4.86708 8.1577C4.63139 7.9203 4.37338 7.64907 4.22167 7.33421C3.96554 6.80261 4.1208 6.32933 4.31502 6.01797C4.41144 5.8634 4.52084 5.74152 4.6049 5.65883C4.67073 5.59407 4.71424 5.55726 4.75903 5.5231L4.76031 5.52213L4.76123 5.52145C4.89918 5.4185 5.09446 5.44688 5.19741 5.58483Z" fill="url(#paint1_linear_4272_60100)"/>
<path d="M8.46723 6.50059C8.43157 6.58772 8.35695 6.65531 8.26645 6.68187C8.1757 6.70851 8.07766 6.69238 8.00017 6.63831C7.9418 6.59783 7.88338 6.55756 7.82477 6.51764C7.72001 6.44631 7.58356 6.35463 7.45423 6.27144C7.39973 6.23638 7.31747 6.2223 7.22799 6.23906C7.13943 6.25565 7.04884 6.3017 6.97965 6.37958C6.92489 6.44121 6.89023 6.51209 6.86164 6.59913C6.84723 6.64301 6.83488 6.69032 6.82165 6.74103L6.81985 6.74793C6.80611 6.80058 6.79138 6.8564 6.77293 6.91154C6.7342 7.02728 6.66343 7.18698 6.49647 7.29253C6.33289 7.39595 6.13665 7.41005 5.93259 7.38472C5.84821 7.37425 5.77177 7.32975 5.72099 7.26155C5.67022 7.19335 5.64951 7.10736 5.66367 7.02352C5.70958 6.75174 5.70951 6.56132 5.70303 6.38261C5.702 6.35398 5.70073 6.32494 5.69943 6.29517L5.69939 6.29407C5.69261 6.13856 5.68508 5.96572 5.7073 5.7624C5.78444 5.05667 6.39885 4.8471 6.56618 4.79828C6.68453 4.76374 6.82876 4.75301 6.95134 4.75354C7.07453 4.75408 7.21398 4.76622 7.32515 4.79732C7.42621 4.8256 7.51699 4.88533 7.59418 4.93612L7.59536 4.9369C7.68472 4.9957 7.78709 5.07036 7.88788 5.15008C7.98868 5.22981 8.09166 5.31757 8.18131 5.40315C8.26683 5.4848 8.35555 5.57881 8.4143 5.67013C8.54548 5.87405 8.54892 6.09356 8.53223 6.23606C8.5219 6.32414 8.50158 6.41292 8.46869 6.49696L8.4677 6.49942L8.46723 6.50059Z" fill="url(#paint2_linear_4272_60100)"/>
<path d="M7.54304 3.89127C7.66372 3.76852 7.86105 3.76684 7.98379 3.88751L9.11837 5.00291C9.24112 5.12358 9.2428 5.32091 9.12213 5.44366C9.00145 5.5664 8.80412 5.56808 8.68138 5.44741L7.5468 4.33202C7.42405 4.21134 7.42237 4.01401 7.54304 3.89127Z" fill="url(#paint3_linear_4272_60100)"/>
<path d="M5.18656 4.18306C5.30723 4.30581 5.30555 4.50314 5.18281 4.62381L4.04823 5.73921C3.92548 5.85988 3.72815 5.8582 3.60748 5.73545C3.48681 5.6127 3.48849 5.41537 3.61124 5.2947L4.74581 4.1793C4.86856 4.05863 5.06589 4.06031 5.18656 4.18306Z" fill="url(#paint4_linear_4272_60100)"/>
<path fill-rule="evenodd" clip-rule="evenodd" d="M10.8019 7.77197L12.3369 8.22366C12.4456 8.25338 12.4995 8.32705 12.4995 8.4451V10.03C12.4995 10.278 12.4596 10.5053 12.3795 10.7119C12.2992 10.9185 12.1993 11.1045 12.0793 11.2697C11.9593 11.435 11.8292 11.5797 11.6891 11.7036C11.5491 11.8277 11.4161 11.9309 11.2904 12.0136C11.1647 12.0962 11.0589 12.1596 10.9732 12.204L10.8274 12.2794C10.7932 12.2913 10.7646 12.2972 10.7417 12.2972C10.7188 12.2972 10.6902 12.2911 10.656 12.2794C10.6444 12.2735 10.596 12.2499 10.5102 12.2086C10.4245 12.1672 10.3187 12.1038 10.193 12.0182C10.0673 11.9325 9.93435 11.8277 9.79428 11.7038C9.65421 11.5799 9.52408 11.4352 9.40408 11.2699C9.28388 11.1047 9.18395 10.9189 9.10388 10.7121C9.02382 10.5055 8.98389 10.2782 8.98389 10.0302V8.4451C8.98389 8.32705 9.03821 8.25317 9.14686 8.22366L10.6819 7.77197C10.7162 7.76025 10.7561 7.76025 10.8019 7.77197ZM10.6978 10.7388L11.6548 9.78188L11.6586 9.77778C11.7154 9.71292 11.7458 9.63663 11.7458 9.55167C11.7458 9.46638 11.715 9.39116 11.6548 9.33094C11.5907 9.26685 11.5131 9.23042 11.4246 9.23042C11.336 9.23042 11.2585 9.26685 11.1944 9.33094L10.4676 10.0577L10.2165 9.80654C10.1577 9.74043 10.0821 9.70417 9.99387 9.70417C9.90532 9.70417 9.82775 9.74059 9.76366 9.80468C9.69957 9.86877 9.66315 9.94634 9.66315 10.0349C9.66315 10.1234 9.69957 10.201 9.76366 10.2651L10.2374 10.7388C10.2993 10.8007 10.3785 10.8299 10.4676 10.8299C10.5568 10.8299 10.636 10.8007 10.6978 10.7388Z" fill="url(#paint5_linear_4272_60100)"/>
<path fill-rule="evenodd" clip-rule="evenodd" d="M12.0495 6.29133C11.801 6.29133 11.5995 6.08986 11.5995 5.84134V4.87236C11.5995 4.49957 11.2973 4.19736 10.9245 4.19736L9.94658 4.19736C9.69805 4.19736 9.49658 3.99589 9.49658 3.74736C9.49658 3.49883 9.69805 3.29736 9.94658 3.29736L10.9245 3.29736C11.7944 3.29736 12.4995 4.00251 12.4995 4.87236V5.84134C12.4995 6.08986 12.298 6.29133 12.0495 6.29133Z" fill="url(#paint6_linear_4272_60100)"/>
<path fill-rule="evenodd" clip-rule="evenodd" d="M3.94951 9.30337C4.19804 9.30337 4.39951 9.50484 4.39951 9.75337L4.39951 10.7223C4.39951 11.0951 4.70171 11.3973 5.07451 11.3973H6.05245C6.30097 11.3973 6.50245 11.5988 6.50245 11.8473C6.50245 12.0959 6.30097 12.2973 6.05245 12.2973L5.07451 12.2973C4.20466 12.2973 3.49951 11.5922 3.49951 10.7223L3.49951 9.75337C3.49951 9.50484 3.70098 9.30337 3.94951 9.30337Z" fill="url(#paint7_linear_4272_60100)"/>
</g>
</g>
<defs>
<linearGradient id="paint0_linear_4272_60100" x1="1.45043" y1="2.26821" x2="13.6874" y2="14.7451" gradientUnits="userSpaceOnUse">
<stop stop-color="white"/>
<stop offset="1" stop-color="#EAECEE"/>
</linearGradient>
<linearGradient id="paint1_linear_4272_60100" x1="4.35981" y1="4.5669" x2="8.00223" y2="8.55249" gradientUnits="userSpaceOnUse">
<stop stop-color="#1348FF"/>
<stop offset="1" stop-color="#06238D"/>
</linearGradient>
<linearGradient id="paint2_linear_4272_60100" x1="4.35981" y1="4.5669" x2="8.00223" y2="8.55249" gradientUnits="userSpaceOnUse">
<stop stop-color="#1348FF"/>
<stop offset="1" stop-color="#06238D"/>
</linearGradient>
<linearGradient id="paint3_linear_4272_60100" x1="4.35981" y1="4.5669" x2="8.00223" y2="8.55249" gradientUnits="userSpaceOnUse">
<stop stop-color="#1348FF"/>
<stop offset="1" stop-color="#06238D"/>
</linearGradient>
<linearGradient id="paint4_linear_4272_60100" x1="4.35981" y1="4.5669" x2="8.00223" y2="8.55249" gradientUnits="userSpaceOnUse">
<stop stop-color="#1348FF"/>
<stop offset="1" stop-color="#06238D"/>
</linearGradient>
<linearGradient id="paint5_linear_4272_60100" x1="9.51089" y1="8.44121" x2="12.5858" y2="10.8263" gradientUnits="userSpaceOnUse">
<stop stop-color="#0195FF"/>
<stop offset="0.991028" stop-color="#1147E9"/>
</linearGradient>
<linearGradient id="paint6_linear_4272_60100" x1="4.84865" y1="4.64325" x2="11.1504" y2="10.9472" gradientUnits="userSpaceOnUse">
<stop stop-color="#0195FF"/>
<stop offset="0.991028" stop-color="#1147E9"/>
</linearGradient>
<linearGradient id="paint7_linear_4272_60100" x1="4.84865" y1="4.64325" x2="11.1504" y2="10.9472" gradientUnits="userSpaceOnUse">
<stop stop-color="#0195FF"/>
<stop offset="0.991028" stop-color="#1147E9"/>
</linearGradient>
<clipPath id="clip0_4272_60100">
<rect width="16" height="16" fill="white" transform="translate(-0.000488281 -0.00292969)"/>
</clipPath>
<clipPath id="clip1_4272_60100">
<rect width="9" height="9" fill="white" transform="translate(3.49951 3.29712)"/>
</clipPath>
</defs>
</svg>
