<svg width="16" height="16" viewBox="0 0 16 16" fill="none" xmlns="http://www.w3.org/2000/svg">
<circle cx="7.99982" cy="8.00006" r="7.85696" fill="url(#paint0_linear_7100_11613)" stroke="#D5DADD" stroke-width="0.285708"/>
<path fill-rule="evenodd" clip-rule="evenodd" d="M8.46073 8.12727C7.88806 8.12727 7.42681 8.58917 7.42681 9.15527C7.42681 9.72137 7.88806 10.1833 8.46073 10.1833C9.0334 10.1833 9.49465 9.72137 9.49465 9.15527C9.49465 8.58917 9.0334 8.12727 8.46073 8.12727ZM6.56102 9.15527C6.56102 8.10771 7.4132 7.26147 8.46073 7.26147C9.50826 7.26147 10.3604 8.10771 10.3604 9.15527C10.3604 9.66426 10.1593 10.1257 9.83224 10.4657C10.738 10.8481 11.4045 11.6043 11.4045 12.5667C11.4045 12.8058 11.2106 12.9996 10.9716 12.9996C10.7325 12.9996 10.5387 12.8058 10.5387 12.5667C10.5387 11.8297 9.71826 11.0571 8.46077 11.0571C7.20329 11.0571 6.38288 11.8297 6.38288 12.5667C6.38288 12.8058 6.18907 12.9996 5.94999 12.9996C5.7109 12.9996 5.51709 12.8058 5.51709 12.5667C5.51709 11.6043 6.18356 10.8482 7.08924 10.4657C6.76221 10.1257 6.56102 9.66427 6.56102 9.15527Z" fill="url(#paint1_linear_7100_11613)"/>
<path d="M7.65263 3.00049C8.84298 3.00071 9.73411 3.6714 10.2143 4.66859C11.4124 4.78227 12.4073 5.85735 12.4073 7.2559C12.4073 7.27985 12.406 7.30364 12.4055 7.32731C12.109 7.07238 11.7527 6.88536 11.3599 6.79325L11.2537 6.77067L11.1079 6.75113C10.8206 6.72664 10.5423 6.78976 10.3022 6.9202C9.80069 6.50868 9.15896 6.26226 8.46136 6.26224C6.86561 6.26224 5.56155 7.55202 5.56155 9.15594C5.56156 9.39054 5.58992 9.61862 5.64273 9.8371H5.21731C4.54699 9.8371 3.97705 9.62723 3.57606 9.21393C3.17815 8.80352 3.00055 8.24887 3.00049 7.66179C3.00049 7.0297 3.23133 6.42983 3.67798 6.01687C4.00808 5.71176 4.43329 5.53056 4.91457 5.50173C5.09174 4.22416 6.1559 3.00049 7.65263 3.00049Z" fill="url(#paint2_linear_7100_11613)"/>
<path fill-rule="evenodd" clip-rule="evenodd" d="M10.5573 8.10215C10.5125 8.33959 10.6687 8.56837 10.9061 8.61314C11.1827 8.66529 11.3896 8.90725 11.3896 9.19429C11.3896 9.52935 11.2251 9.75184 11.1071 9.8032C10.8856 9.89962 10.7842 10.1574 10.8806 10.3789C10.9534 10.5463 11.1184 10.6451 11.2902 10.6419C11.8219 10.7563 12.1249 11.1758 12.1249 11.5974C12.1249 11.839 12.3208 12.0349 12.5624 12.0349C12.804 12.0349 12.9999 11.839 12.9999 11.5974C12.9999 10.9439 12.6427 10.3467 12.0665 10.0135C12.2 9.75802 12.2646 9.46481 12.2646 9.19429C12.2646 8.47631 11.7482 7.88149 11.0683 7.75329C10.8308 7.70852 10.6021 7.86471 10.5573 8.10215Z" fill="url(#paint3_linear_7100_11613)"/>
<defs>
<linearGradient id="paint0_linear_7100_11613" x1="1.45092" y1="2.27114" x2="13.6878" y2="14.748" gradientUnits="userSpaceOnUse">
<stop stop-color="white"/>
<stop offset="1" stop-color="#EAECEE"/>
</linearGradient>
<linearGradient id="paint1_linear_7100_11613" x1="6.3875" y1="8.10568" x2="10.4015" y2="12.2419" gradientUnits="userSpaceOnUse">
<stop stop-color="#1348FF"/>
<stop offset="1" stop-color="#06238D"/>
</linearGradient>
<linearGradient id="paint2_linear_7100_11613" x1="4.41061" y1="4.02286" x2="8.96324" y2="10.2892" gradientUnits="userSpaceOnUse">
<stop stop-color="#0195FF"/>
<stop offset="0.991028" stop-color="#1147E9"/>
</linearGradient>
<linearGradient id="paint3_linear_7100_11613" x1="9.14023" y1="7.97785" x2="12.4781" y2="11.1497" gradientUnits="userSpaceOnUse">
<stop stop-color="#00BBFF"/>
<stop offset="1" stop-color="#008BFF"/>
</linearGradient>
</defs>
</svg>
