<svg width="16" height="16" viewBox="0 0 16 16" fill="none" xmlns="http://www.w3.org/2000/svg">
<circle cx="7.99982" cy="8.00006" r="7.85696" fill="url(#paint0_linear_7100_11378)" stroke="#D5DADD" stroke-width="0.285708"/>
<mask id="mask0_7100_11378" style="mask-type:luminance" maskUnits="userSpaceOnUse" x="5" y="4" width="7" height="8">
<path d="M9.43145 6.63135C10.4439 6.9501 11.1689 7.8876 11.1689 8.9876C11.1689 10.3563 10.0439 11.4626 8.65645 11.4626H7.70645C6.3377 11.4626 5.23145 10.3563 5.23145 8.9876V6.01885C5.23145 5.2001 5.89395 4.5376 6.7127 4.5376C7.53145 4.5376 8.19395 5.2001 8.19395 6.01885V8.8251C8.19395 9.01885 8.46895 9.0501 8.5127 8.8626L8.95645 6.9501C9.01895 6.6876 9.18145 6.55635 9.41895 6.63135H9.43145Z" fill="white"/>
</mask>
<g mask="url(#mask0_7100_11378)">
<g filter="url(#filter0_d_7100_11378)">
<path d="M16.425 4.61863C15.1812 5.78113 13.3437 6.22488 13.1187 11.4999C12.9 16.7686 6.54374 15.1374 5.19999 14.5436C2.81874 13.4874 -0.643765 6.51238 3.34374 4.32488C7.32498 2.14363 9.78124 0.32488 12.1687 1.38113C14.55 2.43738 17.675 3.45613 16.4312 4.62488L16.425 4.61863Z" fill="url(#paint1_radial_7100_11378)"/>
</g>
<g filter="url(#filter1_d_7100_11378)">
<path d="M15.0001 9.51869C13.5188 9.63744 8.95007 8.23119 6.56257 11.5437C3.55007 15.0249 0.843821 11.0312 0.250071 9.89369C-0.806179 7.87494 4.41257 1.22494 8.31882 1.89994C12.2251 2.56869 12.3501 4.65619 13.4063 6.67494C14.4626 8.69369 16.4813 9.39994 15.0001 9.51869Z" fill="url(#paint2_radial_7100_11378)"/>
</g>
<g filter="url(#filter2_d_7100_11378)">
<path d="M-0.912357 10.1624C-2.18111 8.86236 -2.16236 6.79986 -0.868607 5.56236C0.425143 4.32486 5.37514 2.99361 6.64389 4.29361C7.71264 5.81861 7.26264 8.41236 5.34389 9.69986C4.05014 10.9374 0.731393 11.8436 -0.912357 10.1624Z" fill="#01ABFF"/>
</g>
</g>
<defs>
<filter id="filter0_d_7100_11378" x="0.36817" y="-0.083002" width="17.501" height="16.4924" filterUnits="userSpaceOnUse" color-interpolation-filters="sRGB">
<feFlood flood-opacity="0" result="BackgroundImageFix"/>
<feColorMatrix in="SourceAlpha" type="matrix" values="0 0 0 0 0 0 0 0 0 0 0 0 0 0 0 0 0 0 127 0" result="hardAlpha"/>
<feOffset/>
<feGaussianBlur stdDeviation="0.577634"/>
<feColorMatrix type="matrix" values="0 0 0 0 0 0 0 0 0 0 0 0 0 0 0 0 0 0 0.6 0"/>
<feBlend mode="normal" in2="BackgroundImageFix" result="effect1_dropShadow_7100_11378"/>
<feBlend mode="normal" in="SourceGraphic" in2="effect1_dropShadow_7100_11378" result="shape"/>
</filter>
<filter id="filter1_d_7100_11378" x="-1.04345" y="0.696783" width="17.7231" height="13.397" filterUnits="userSpaceOnUse" color-interpolation-filters="sRGB">
<feFlood flood-opacity="0" result="BackgroundImageFix"/>
<feColorMatrix in="SourceAlpha" type="matrix" values="0 0 0 0 0 0 0 0 0 0 0 0 0 0 0 0 0 0 127 0" result="hardAlpha"/>
<feOffset/>
<feGaussianBlur stdDeviation="0.577634"/>
<feColorMatrix type="matrix" values="0 0 0 0 0 0 0 0 0 0 0 0 0 0 0 0 0 0 0.6 0"/>
<feBlend mode="normal" in2="BackgroundImageFix" result="effect1_dropShadow_7100_11378"/>
<feBlend mode="normal" in="SourceGraphic" in2="effect1_dropShadow_7100_11378" result="shape"/>
</filter>
<filter id="filter2_d_7100_11378" x="-3.00683" y="2.60474" width="11.3721" height="9.63304" filterUnits="userSpaceOnUse" color-interpolation-filters="sRGB">
<feFlood flood-opacity="0" result="BackgroundImageFix"/>
<feColorMatrix in="SourceAlpha" type="matrix" values="0 0 0 0 0 0 0 0 0 0 0 0 0 0 0 0 0 0 127 0" result="hardAlpha"/>
<feOffset/>
<feGaussianBlur stdDeviation="0.577634"/>
<feColorMatrix type="matrix" values="0 0 0 0 0 0 0 0 0 0 0 0 0 0 0 0 0 0 0.6 0"/>
<feBlend mode="normal" in2="BackgroundImageFix" result="effect1_dropShadow_7100_11378"/>
<feBlend mode="normal" in="SourceGraphic" in2="effect1_dropShadow_7100_11378" result="shape"/>
</filter>
<linearGradient id="paint0_linear_7100_11378" x1="1.45092" y1="2.27114" x2="13.6878" y2="14.748" gradientUnits="userSpaceOnUse">
<stop stop-color="white"/>
<stop offset="1" stop-color="#EAECEE"/>
</linearGradient>
<radialGradient id="paint1_radial_7100_11378" cx="0" cy="0" r="1" gradientUnits="userSpaceOnUse" gradientTransform="translate(10.169 6.99123) rotate(79.1) scale(14.9375 13.8375)">
<stop stop-color="#103CD8"/>
<stop offset="1" stop-color="#0F3CD8"/>
</radialGradient>
<radialGradient id="paint2_radial_7100_11378" cx="0" cy="0" r="1" gradientUnits="userSpaceOnUse" gradientTransform="translate(10.5601 1.70299) rotate(119.36) scale(18.9152 32.4596)">
<stop stop-color="#0874F6"/>
<stop offset="1" stop-color="#0776F6"/>
</radialGradient>
</defs>
</svg>
