<svg width="16" height="16" viewBox="0 0 16 16" fill="none" xmlns="http://www.w3.org/2000/svg">
<circle cx="7.99982" cy="8.00006" r="7.85696" fill="url(#paint0_linear_7100_11568)" stroke="#D5DADD" stroke-width="0.285708"/>
<g clip-path="url(#clip0_7100_11568)">
<path d="M7.77087 3C9.0301 3 9.97295 3.70969 10.4808 4.76453C11.6839 4.87871 12.6923 5.90919 12.791 7.27917C12.6238 7.19597 12.4401 7.14092 12.246 7.12109L12.083 7.11255H8.12976C7.25 7.11255 6.53674 7.82581 6.53674 8.70557V10.2308H5.1958C4.48691 10.2308 3.88464 10.0093 3.46057 9.57227C3.0394 9.13815 2.85208 8.55098 2.85205 7.92981C2.85205 7.26133 3.09561 6.62702 3.56799 6.19031C3.91714 5.86755 4.36689 5.67572 4.87598 5.64526C5.06334 4.29421 6.18804 3.00002 7.77087 3Z" fill="url(#paint1_linear_7100_11568)"/>
<path fill-rule="evenodd" clip-rule="evenodd" d="M12.7996 8.7055C12.7996 8.30907 12.4783 7.98791 12.0819 7.98779H8.12884C7.73234 7.98779 7.41113 8.309 7.41113 8.7055V12.2822C7.41115 12.6787 7.73235 12.9999 8.12884 12.9999H12.0819C12.4783 12.9998 12.7996 12.6786 12.7996 12.2822V8.7055ZM8.37442 10.3633C8.32507 10.3635 8.28523 10.4037 8.28523 10.4531V11.9593C8.28531 12.0086 8.32512 12.0483 8.37442 12.0485H11.8357C11.8852 12.0485 11.9254 12.0087 11.9255 11.9593V10.4531C11.9255 10.4036 11.8852 10.3633 11.8357 10.3633H8.37442ZM10.106 9.03671C10.106 8.87037 9.97084 8.73524 9.8045 8.73524C9.63816 8.73524 9.50302 8.87037 9.50302 9.03671C9.50314 9.20295 9.63823 9.33758 9.8045 9.33759C9.97077 9.33759 10.1058 9.20295 10.106 9.03671ZM10.7071 8.73524C10.8735 8.73524 11.0086 8.87037 11.0086 9.03671C11.0085 9.20295 10.8734 9.33759 10.7071 9.33759C10.541 9.33743 10.4064 9.20285 10.4063 9.03671C10.4063 8.87046 10.5409 8.73539 10.7071 8.73524ZM11.9113 9.03671C11.9113 8.87039 11.7767 8.73526 11.6104 8.73524C11.444 8.73524 11.3089 8.87037 11.3089 9.03671C11.309 9.20295 11.4441 9.33759 11.6104 9.33759C11.7766 9.33756 11.9111 9.20293 11.9113 9.03671Z" fill="url(#paint2_linear_7100_11568)"/>
</g>
<defs>
<linearGradient id="paint0_linear_7100_11568" x1="1.45092" y1="2.27114" x2="13.6878" y2="14.748" gradientUnits="userSpaceOnUse">
<stop stop-color="white"/>
<stop offset="1" stop-color="#EAECEE"/>
</linearGradient>
<linearGradient id="paint1_linear_7100_11568" x1="4.34194" y1="4.08133" x2="9.15863" y2="10.7043" gradientUnits="userSpaceOnUse">
<stop stop-color="#0195FF"/>
<stop offset="0.991028" stop-color="#1147E9"/>
</linearGradient>
<linearGradient id="paint2_linear_7100_11568" x1="8.20779" y1="8.72518" x2="11.7052" y2="12.5015" gradientUnits="userSpaceOnUse">
<stop stop-color="#1348FF"/>
<stop offset="1" stop-color="#06238D"/>
</linearGradient>
<clipPath id="clip0_7100_11568">
<rect width="10" height="10" fill="white" transform="translate(2.7998 3)"/>
</clipPath>
</defs>
</svg>
