<svg width="16" height="16" viewBox="0 0 16 16" fill="none" xmlns="http://www.w3.org/2000/svg">
<circle cx="7.99982" cy="8.00006" r="7.85696" fill="url(#paint0_linear_7107_10931)" stroke="#D5DADD" stroke-width="0.285708"/>
<path fill-rule="evenodd" clip-rule="evenodd" d="M5.8692 7.1036L5.87667 7.10546H6.18807L6.19317 7.10461C6.23352 7.09789 6.27159 7.09115 6.30738 7.0844L6.55499 7.51445C6.61148 7.61587 6.69688 7.6741 6.8084 7.6741C6.84328 7.6741 6.88326 7.65828 6.92166 7.63908L7.19118 7.49723C7.24423 7.47321 7.28617 7.43624 7.31424 7.38636C7.3422 7.33665 7.35425 7.27795 7.35425 7.21356C7.35425 7.18009 7.34896 7.14753 7.33532 7.11842L7.18048 6.67972C7.34437 6.54263 7.46974 6.39299 7.55474 6.23039L7.96927 6.29516C8.04863 6.29516 8.12705 6.28711 8.19123 6.23496C8.24271 6.19314 8.27448 6.13295 8.29091 6.0619L8.36359 5.75665C8.36359 5.68079 8.35695 5.60687 8.31447 5.54121C8.28075 5.4891 8.23165 5.44953 8.17078 5.42186L7.79468 5.30514C7.79258 5.18088 7.77814 5.06399 7.75104 4.9547C7.73355 4.85094 7.70473 4.75086 7.66459 4.65456L7.9188 4.40035C7.97566 4.34349 8.00819 4.27615 8.00819 4.19978C8.00819 4.12261 7.98621 4.05429 7.93613 4.00238L7.75482 3.76527C7.70388 3.69011 7.62671 3.65393 7.53342 3.65393C7.48014 3.65393 7.42617 3.67361 7.37325 3.70537L7.07817 3.91064C6.87893 3.7773 6.67126 3.68164 6.45526 3.62427L6.43019 3.27336C6.42953 3.19941 6.39807 3.13695 6.341 3.08914C6.29038 3.02907 6.22117 3 6.14025 3H5.84171C5.76534 3 5.698 3.03253 5.64114 3.08939C5.59331 3.13721 5.56377 3.19672 5.55232 3.26542L5.52647 3.64027C5.3119 3.70594 5.11285 3.80979 4.9295 3.95139L4.64147 3.75102C4.59297 3.71494 4.53749 3.69658 4.47697 3.69658C4.38979 3.69658 4.31603 3.73508 4.25832 3.80433L4.07426 4.04503C4.02418 4.09694 4.00221 4.16526 4.00221 4.24242V4.25012L4.00407 4.25758C4.02362 4.33578 4.05056 4.40206 4.09154 4.44304L4.37405 4.69987C4.29247 4.90629 4.2581 5.12657 4.2581 5.34787L3.88247 5.46496C3.82159 5.49263 3.7723 5.53175 3.73857 5.58386C3.70484 5.636 3.68945 5.69689 3.68945 5.76353V5.7993L3.76218 6.10477C3.77862 6.17581 3.81034 6.23579 3.86181 6.27761C3.91351 6.31961 3.97837 6.3378 4.05049 6.3378L4.52811 6.27242C4.6258 6.44726 4.74984 6.59341 4.90031 6.71007L4.74611 7.14696C4.73164 7.17829 4.72722 7.2168 4.72722 7.2562C4.72722 7.31313 4.74013 7.36571 4.76914 7.41084C4.79805 7.45581 4.84018 7.48904 4.89156 7.51202L5.15286 7.63579C5.18931 7.66583 5.23926 7.6741 5.28729 7.6741C5.38882 7.6741 5.4687 7.62127 5.52511 7.53101L5.7876 7.08479C5.81707 7.09109 5.84426 7.09736 5.8692 7.1036ZM6.02652 4.41865C5.76778 4.41865 5.55163 4.50717 5.37413 4.68466C5.19663 4.86216 5.10811 5.07832 5.10811 5.33705C5.10811 5.59579 5.19663 5.81194 5.37413 5.98944C5.55163 6.16694 5.76778 6.25545 6.02652 6.25545C6.28526 6.25545 6.50141 6.16694 6.67891 5.98944C6.85641 5.81194 6.94493 5.59579 6.94493 5.33705C6.94493 5.07832 6.85641 4.86216 6.67891 4.68466C6.50141 4.50717 6.28526 4.41865 6.02652 4.41865Z" fill="url(#paint1_linear_7107_10931)"/>
<path fill-rule="evenodd" clip-rule="evenodd" d="M12.7825 9.75746C12.9916 9.48295 13.0962 9.17576 13.0962 8.83589V8.26734C13.0962 7.8837 13.0237 7.50351 12.8825 7.14679L12.0766 5.1104C12.0282 4.91671 11.8126 4.81628 11.6256 4.81628H10.0178C9.44387 4.81629 9.1158 4.89471 9.1158 5.30648V7.81628C9.1158 8.1143 9.32569 8.32608 9.6256 8.32608H12.1354V8.83589C12.1354 9.16269 11.9655 9.32609 11.6256 9.32609H4.606C4.26613 9.32609 4.0962 9.16269 4.0962 8.83589V8.12708C4.0962 7.85093 3.87234 7.62707 3.5962 7.62707C3.32005 7.62707 3.09619 7.85093 3.09619 8.12708L3.0962 8.83589C3.0962 9.17576 3.19424 9.48295 3.39032 9.75746C3.59947 10.032 3.86744 10.2084 4.19424 10.2869C4.13285 10.471 4.0962 10.6407 4.0962 10.8359C4.0962 11.2673 4.23999 11.6267 4.52757 11.9143C4.81515 12.2019 5.17463 12.3457 5.606 12.3457C6.0243 12.3457 6.37724 12.2019 6.66482 11.9143C6.96548 11.6267 7.1158 11.2673 7.1158 10.8359C7.1158 10.6659 7.07139 10.487 7.01776 10.3261H9.17462C9.10927 10.496 9.07659 10.666 9.07659 10.8359C9.07659 11.2673 9.22038 11.6267 9.50796 11.9143C9.79554 12.2019 10.155 12.3457 10.5864 12.3457C11.0047 12.3457 11.3576 12.2019 11.6452 11.9143C11.9328 11.6267 12.0766 11.2673 12.0766 10.8359C12.0766 10.6398 12.0439 10.4568 11.9785 10.2869C12.3184 10.2084 12.5864 10.032 12.7825 9.75746ZM6.1158 10.8359C6.1158 10.6921 6.06352 10.5745 5.95894 10.4829C5.86744 10.3784 5.74979 10.3261 5.606 10.3261C5.46221 10.3261 5.33803 10.3784 5.23345 10.4829C5.14195 10.5745 5.0962 10.6921 5.0962 10.8359C5.0962 10.9797 5.14195 11.1039 5.23345 11.2084C5.33803 11.2999 5.46221 11.3457 5.606 11.3457C5.74979 11.3457 5.86744 11.2999 5.95894 11.2084C6.06352 11.1039 6.1158 10.9797 6.1158 10.8359ZM10.9982 11.2084C10.9066 11.2999 10.7825 11.3457 10.6256 11.3457C10.4818 11.3457 10.3642 11.2999 10.2727 11.2084C10.1812 11.1039 10.1354 10.9797 10.1354 10.8359C10.1354 10.6921 10.1812 10.5745 10.2727 10.4829C10.3642 10.3784 10.4818 10.3261 10.6256 10.3261C10.7825 10.3261 10.9066 10.3784 10.9982 10.4829C11.0897 10.5745 11.1354 10.6921 11.1354 10.8359C11.1354 10.9797 11.0897 11.1039 10.9982 11.2084Z" fill="url(#paint2_linear_7107_10931)"/>
<defs>
<linearGradient id="paint0_linear_7107_10931" x1="1.45092" y1="2.27114" x2="13.6878" y2="14.748" gradientUnits="userSpaceOnUse">
<stop stop-color="white"/>
<stop offset="1" stop-color="#EAECEE"/>
</linearGradient>
<linearGradient id="paint1_linear_7107_10931" x1="4.38049" y1="3.68766" x2="7.65164" y2="6.97293" gradientUnits="userSpaceOnUse">
<stop stop-color="#1348FF"/>
<stop offset="1" stop-color="#06238D"/>
</linearGradient>
<linearGradient id="paint2_linear_7107_10931" x1="4.59523" y1="5.94226" x2="9.66143" y2="12.6732" gradientUnits="userSpaceOnUse">
<stop stop-color="#0195FF"/>
<stop offset="0.991028" stop-color="#1147E9"/>
</linearGradient>
</defs>
</svg>
