<svg width="16" height="16" viewBox="0 0 16 16" fill="none" xmlns="http://www.w3.org/2000/svg">
<circle cx="7.99933" cy="7.99762" r="7.85696" fill="url(#paint0_linear_6471_25665)" stroke="#D5DADD" stroke-width="0.285708"/>
<g clip-path="url(#clip0_6471_25665)">
<path d="M10.4407 7.27886C10.6432 6.68384 10.9082 6.41882 11.5032 6.21631C11.6757 6.15631 11.6757 5.9088 11.5032 5.8513C10.9082 5.64879 10.6432 5.38377 10.4407 4.78874C10.3832 4.61624 10.1357 4.61624 10.0782 4.78874C9.87565 5.38377 9.61064 5.64879 9.01561 5.8513C8.8431 5.9113 8.8431 6.15881 9.01561 6.21631C9.61064 6.41882 9.87565 6.68384 10.0782 7.27886C10.1357 7.45137 10.3832 7.45137 10.4407 7.27886Z" fill="url(#paint1_linear_6471_25665)"/>
<path d="M11.7467 5.15178C11.8738 4.77615 12.0414 4.60856 12.417 4.48142C12.5268 4.44386 12.5268 4.28783 12.417 4.25026C12.0414 4.12313 11.8738 3.95554 11.7467 3.57991C11.7091 3.47011 11.556 3.47011 11.5184 3.57991C11.3913 3.95554 11.2237 4.12313 10.8481 4.25026C10.7383 4.28783 10.7383 4.44386 10.8481 4.48142C11.2237 4.60856 11.3913 4.77615 11.5184 5.15178C11.556 5.26158 11.7091 5.26158 11.7467 5.15178Z" fill="url(#paint2_linear_6471_25665)"/>
<path d="M7.94377 4.36597C8.44168 4.36597 8.88199 4.49716 9.25364 4.734C9.20838 4.82876 9.16932 4.87839 9.1374 4.91031C9.08813 4.95958 8.99663 5.02588 8.76205 5.10571L8.75707 5.10744C7.89565 5.40707 7.86122 6.65856 8.7636 6.96229C8.99703 7.04189 9.08824 7.10802 9.1374 7.15718C9.18657 7.20634 9.25271 7.29756 9.33231 7.53102C9.63072 8.41724 10.8885 8.41724 11.1869 7.53102C11.2665 7.29756 11.3326 7.20634 11.3818 7.15718C11.431 7.10791 11.5226 7.04159 11.7571 6.96176L11.7621 6.96004C11.8374 6.93385 11.9064 6.90037 11.969 6.86089C12.2941 7.24736 12.4995 7.76661 12.4995 8.36615C12.4995 9.79678 11.3745 10.6579 10.1572 10.5828H9.56123V9.2072C9.55134 8.90118 9.38655 8.61632 9.11228 8.4587L9.11806 8.45526L7.36329 7.44038L7.35921 7.43809C7.08855 7.28653 6.74671 7.27959 6.46502 7.44352L6.46422 7.44399L5.6133 7.93796L5.60961 7.93577L4.7236 8.45185C4.44267 8.6123 4.28091 8.90537 4.27282 9.20738L4.27265 10.3233C3.76086 10.0194 3.49951 9.47109 3.49951 8.79913C3.49951 7.70782 4.29659 6.84655 5.52699 7.06053C5.42976 5.76879 6.46491 4.36597 7.94377 4.36597Z" fill="url(#paint3_linear_6471_25665)"/>
<path d="M6.91663 9.50131L7.59184 9.90362V10.6098L6.91663 11.0008L6.24142 10.6098V9.90362L6.91663 9.50131ZM6.91663 8.97802L7.78315 8.46317L7.02916 8.0271C6.95883 7.98771 6.87161 7.98771 6.80409 8.0271L6.05292 8.46317L6.91944 8.97802H6.91663ZM7.35833 9.23966L7.93226 9.58289C7.99978 9.62228 8.04198 9.69824 8.04198 9.77702V10.3509L8.88599 9.86142V9.23685C8.88599 9.15526 8.84379 9.08211 8.77345 9.04273L8.22766 8.72482L7.35833 9.24248V9.23966ZM7.59184 11.1303L7.02916 11.4566C7.02916 11.4566 7.02916 11.4566 7.02635 11.4566C6.99259 11.4763 6.95602 11.4847 6.91944 11.4847C6.88287 11.4847 6.84629 11.4763 6.81253 11.4566C6.81253 11.4566 6.81253 11.4566 6.80972 11.4566L6.24704 11.1303V12.1403L6.80972 12.4666C6.84348 12.4863 6.88287 12.4976 6.92225 12.4976C6.96164 12.4976 7.00103 12.4863 7.03479 12.4666L7.59746 12.1403V11.1303H7.59184ZM8.04198 10.8686V11.8786L8.77345 11.4538C8.84379 11.4144 8.88599 11.3384 8.88599 11.2597V10.3791L8.04198 10.8686ZM5.79128 10.3481V9.7742C5.79128 9.69543 5.83348 9.62228 5.901 9.58008L6.47493 9.23685L5.6056 8.71919L5.0598 9.0371C4.98947 9.07649 4.94727 9.15245 4.94727 9.23122V9.85579L5.79128 10.3453V10.3481ZM5.79128 10.8686L4.94727 10.3791V11.2597C4.94727 11.3413 4.98947 11.4144 5.0598 11.4538L5.79128 11.8786V10.8686Z" fill="url(#paint4_linear_6471_25665)"/>
</g>
<defs>
<linearGradient id="paint0_linear_6471_25665" x1="1.45043" y1="2.2687" x2="13.6874" y2="14.7456" gradientUnits="userSpaceOnUse">
<stop stop-color="white"/>
<stop offset="1" stop-color="#EAECEE"/>
</linearGradient>
<linearGradient id="paint1_linear_6471_25665" x1="9.42697" y1="4.08429" x2="12.1565" y2="6.60441" gradientUnits="userSpaceOnUse">
<stop stop-color="#00BBFF"/>
<stop offset="1" stop-color="#008BFF"/>
</linearGradient>
<linearGradient id="paint2_linear_6471_25665" x1="9.42697" y1="4.08429" x2="12.1565" y2="6.60441" gradientUnits="userSpaceOnUse">
<stop stop-color="#00BBFF"/>
<stop offset="1" stop-color="#008BFF"/>
</linearGradient>
<linearGradient id="paint3_linear_6471_25665" x1="4.84865" y1="5.29634" x2="8.9234" y2="11.193" gradientUnits="userSpaceOnUse">
<stop stop-color="#0195FF"/>
<stop offset="0.991028" stop-color="#1147E9"/>
</linearGradient>
<linearGradient id="paint4_linear_6471_25665" x1="5.52958" y1="8.6596" x2="8.65291" y2="11.4052" gradientUnits="userSpaceOnUse">
<stop stop-color="#1348FF"/>
<stop offset="1" stop-color="#06238D"/>
</linearGradient>
<clipPath id="clip0_6471_25665">
<rect width="9" height="9" fill="white" transform="translate(3.49951 3.49756)"/>
</clipPath>
</defs>
</svg>
