<svg width="16" height="17" viewBox="0 0 16 17" fill="none" xmlns="http://www.w3.org/2000/svg">
<circle cx="7.99982" cy="8.18512" r="7.85696" fill="url(#paint0_linear_6961_26300)" stroke="#D5DADD" stroke-width="0.285708"/>
<g clip-path="url(#clip0_6961_26300)">
<path d="M7.94117 3.18506C9.19932 3.18512 10.1415 3.89423 10.649 4.94818C11.9148 5.06843 12.9665 6.20388 12.9665 7.68161C12.9665 7.94425 12.9339 8.19119 12.8756 8.42138C12.3029 7.45113 11.2473 6.79979 10.0391 6.79974C8.22097 6.79982 6.74704 8.27365 6.74704 10.0918C6.74705 10.1992 6.75284 10.3054 6.7629 10.4102H5.36753C4.65934 10.4101 4.05796 10.1887 3.63428 9.75211C3.21342 9.31833 3.02566 8.73165 3.02563 8.11096C3.02563 7.44301 3.26961 6.8092 3.74162 6.37283C4.0905 6.05037 4.53989 5.85863 5.04856 5.82822C5.23578 4.47823 6.35957 3.18506 7.94117 3.18506Z" fill="url(#paint1_linear_6961_26300)"/>
<path d="M12.5771 10.4053C12.4372 11.5705 11.5116 12.4932 10.3451 12.6288L9.93982 12.0581L10.2578 11.6309C10.8968 11.5442 11.4103 11.0688 11.5542 10.4498L12.0236 10.7996L12.1713 10.694L12.5771 10.4053ZM8.51282 10.2936C8.59252 10.9265 9.05406 11.4394 9.65967 11.5961L9.32092 12.0514L9.42712 12.1991L9.72986 12.6263C8.55718 12.48 7.63123 11.5375 7.51245 10.3564L8.06848 9.96277L8.51282 10.2936ZM10.3811 7.57263C11.5306 7.72279 12.4386 8.63875 12.5771 9.79187L12.0303 10.1807L11.5731 9.8407C11.4709 9.23225 11.015 8.74496 10.4232 8.59741L10.6661 8.27209L10.7748 8.12622L10.6692 7.97852L10.3811 7.57263ZM10.1559 8.11951L9.82141 8.56873C9.20654 8.65919 8.71014 9.10973 8.5531 9.70032L8.22107 9.45312L8.0752 9.34387L7.92688 9.45007L7.52649 9.73389C7.69025 8.59212 8.61058 7.69422 9.76343 7.56592L10.1559 8.11951Z" fill="url(#paint2_linear_6961_26300)"/>
</g>
<defs>
<linearGradient id="paint0_linear_6961_26300" x1="1.45092" y1="2.4562" x2="13.6878" y2="14.9331" gradientUnits="userSpaceOnUse">
<stop stop-color="white"/>
<stop offset="1" stop-color="#EAECEE"/>
</linearGradient>
<linearGradient id="paint1_linear_6961_26300" x1="4.51581" y1="4.26553" x2="9.32721" y2="10.8877" gradientUnits="userSpaceOnUse">
<stop stop-color="#0195FF"/>
<stop offset="0.991028" stop-color="#1147E9"/>
</linearGradient>
<linearGradient id="paint2_linear_6961_26300" x1="8.26123" y1="8.31077" x2="11.8044" y2="11.8705" gradientUnits="userSpaceOnUse">
<stop stop-color="#1348FF"/>
<stop offset="1" stop-color="#06238D"/>
</linearGradient>
<clipPath id="clip0_6961_26300">
<rect width="10" height="10" fill="white" transform="translate(3 3.18506)"/>
</clipPath>
</defs>
</svg>
