<svg width="48" height="48" viewBox="0 0 48 48" fill="none" xmlns="http://www.w3.org/2000/svg">
<g clip-path="url(#clip0_3169_9800)">
<circle cx="23.999" cy="23.5112" r="23.5714" fill="url(#paint0_linear_3169_9800)" stroke="#D5DADD" stroke-width="0.857143"/>
<g clip-path="url(#clip1_3169_9800)">
<path d="M21.7421 37.3747C21.4125 37.2708 21.0995 37.1003 20.8032 36.8633C20.311 36.4766 20.0122 35.9668 19.9067 35.334L19.5376 33.5938L17.27 32.2227L15.688 32.9082C15.3364 33.0137 15.0024 33.0664 14.686 33.0664C14.1938 33.0664 13.7192 32.9434 13.2622 32.6973C12.8403 32.4512 12.5063 32.082 12.2603 31.5898L11.2583 29.6387C11.0825 29.2168 10.9946 28.8301 10.9946 28.4785C10.9946 27.5645 11.3638 26.8262 12.102 26.2637L13.3149 25.3672V22.625L12.0493 21.6758C11.3462 21.1484 10.9946 20.4277 10.9946 19.5137C10.9946 19.1621 11.0825 18.7754 11.2583 18.3535L12.2603 16.4023C12.5063 15.9102 12.8403 15.541 13.2622 15.2949C13.7192 15.0488 14.1938 14.9258 14.686 14.9258C15.0727 14.9258 15.4067 14.9961 15.688 15.1367L17.27 15.7695L19.5376 14.3984L19.9067 12.6582C20.0473 12.0254 20.3638 11.5156 20.8559 11.1289C21.3481 10.707 21.9106 10.4961 22.5434 10.4961H24.3891C25.0219 10.4961 25.5844 10.707 26.0766 11.1289C26.5688 11.5156 26.8852 12.0254 27.0258 12.6582L27.3423 14.3984L29.6626 15.7695L31.2446 15.1367C31.5258 14.9961 31.8598 14.9258 32.2465 14.9258C32.7387 14.9258 33.1958 15.0488 33.6176 15.2949C34.0747 15.541 34.4262 15.9102 34.6723 16.4023L35.6215 18.3535C35.8325 18.7051 35.9379 19.1094 35.9379 19.5664C35.9379 20.4453 35.5688 21.1484 34.8305 21.6758L34.1315 22.2H28.5564C28.5234 22.1122 28.4878 22.0253 28.4497 21.9395C28.1684 21.2715 27.7817 20.6914 27.2895 20.1992C26.7973 19.707 26.2173 19.3203 25.5493 19.0391C24.8813 18.7578 24.1782 18.6172 23.4399 18.6172C22.7016 18.6172 21.9985 18.7578 21.3305 19.0391C20.6977 19.3203 20.1352 19.707 19.643 20.1992C19.1509 20.6914 18.7641 21.2715 18.4829 21.9395C18.2016 22.5723 18.061 23.2578 18.061 23.9961C18.061 24.7344 18.2016 25.4375 18.4829 26.1055C18.7641 26.7383 19.1509 27.3008 19.643 27.793C20.1352 28.2852 20.6977 28.6719 21.3305 28.9531C21.4663 29.0103 21.6035 29.0616 21.7421 29.1072L21.7421 37.3747Z" fill="url(#paint1_linear_3169_9800)"/>
<path fill-rule="evenodd" clip-rule="evenodd" d="M26.1294 24.8999C25.1974 24.8999 24.4419 25.6554 24.4419 26.5874V35.7733C24.4419 36.7053 25.1974 37.4608 26.1294 37.4608H36.2815C37.2135 37.4608 37.969 36.7053 37.969 35.7733V26.5874C37.969 25.6554 37.2135 24.8999 36.2815 24.8999H26.1294ZM31.2066 27.4375C31.2066 27.8647 30.8602 28.211 30.433 28.211C30.0058 28.211 29.6595 27.8647 29.6595 27.4375C29.6595 27.0103 30.0058 26.6639 30.433 26.6639C30.8602 26.6639 31.2066 27.0103 31.2066 27.4375ZM33.5255 27.4375C33.5255 27.8647 33.1792 28.211 32.752 28.211C32.3248 28.211 31.9784 27.8647 31.9784 27.4375C31.9784 27.0103 32.3248 26.6639 32.752 26.6639C33.1792 26.6639 33.5255 27.0103 33.5255 27.4375ZM35.0709 28.211C35.4981 28.211 35.8444 27.8647 35.8444 27.4375C35.8444 27.0103 35.4981 26.6639 35.0709 26.6639C34.6437 26.6639 34.2973 27.0103 34.2973 27.4375C34.2973 27.8647 34.6437 28.211 35.0709 28.211ZM26.3744 31.0754C26.3744 30.8619 26.5474 30.6889 26.7608 30.6889H35.6501C35.8635 30.6889 36.0366 30.8619 36.0366 31.0754V34.9437C36.0366 35.1572 35.8635 35.3302 35.6501 35.3302H26.7608C26.5474 35.3302 26.3744 35.1572 26.3744 34.9437V31.0754Z" fill="url(#paint2_linear_3169_9800)"/>
</g>
</g>
<defs>
<linearGradient id="paint0_linear_3169_9800" x1="4.35189" y1="6.32407" x2="41.0635" y2="43.7555" gradientUnits="userSpaceOnUse">
<stop stop-color="white"/>
<stop offset="1" stop-color="#EAECEE"/>
</linearGradient>
<linearGradient id="paint1_linear_3169_9800" x1="14.7337" y1="14.5156" x2="33.502" y2="31.9387" gradientUnits="userSpaceOnUse">
<stop stop-color="#0195FF"/>
<stop offset="0.991028" stop-color="#1147E9"/>
</linearGradient>
<linearGradient id="paint2_linear_3169_9800" x1="26.4663" y1="26.7844" x2="35.2378" y2="36.224" gradientUnits="userSpaceOnUse">
<stop stop-color="#00BBFF"/>
<stop offset="1" stop-color="#008BFF"/>
</linearGradient>
<clipPath id="clip0_3169_9800">
<rect width="48" height="48" fill="white" transform="translate(0 0.000976562)"/>
</clipPath>
<clipPath id="clip1_3169_9800">
<rect width="27" height="27" fill="white" transform="translate(10.999 10.501)"/>
</clipPath>
</defs>
</svg>
