<svg width="48" height="48" viewBox="0 0 48 48" fill="none" xmlns="http://www.w3.org/2000/svg">
<g clip-path="url(#clip0_3169_8824)">
<circle cx="24.0007" cy="24" r="23.5714" fill="url(#paint0_linear_3169_8824)" stroke="#D5DADD" stroke-width="0.857143"/>
<g clip-path="url(#clip1_3169_8824)">
<path d="M22.0007 29.0703H20.9831L20.4928 27.5954H18.1404L17.6501 29.0703H16.6201L18.7213 23.2654H19.9284L22.0007 29.0703ZM18.4123 26.7838H20.225L19.607 24.9257C19.4615 24.4972 19.3653 24.1992 19.3186 24.0317C19.3022 24.1003 19.206 24.4011 19.0302 24.9339L18.4123 26.7838Z" fill="url(#paint1_linear_3169_8824)"/>
<path d="M22.7875 29.0703V23.2654H25.0658C25.7222 23.2654 26.2235 23.3849 26.5696 23.6238C26.9156 23.8628 27.0887 24.2239 27.0887 24.7073C27.0887 25.0452 26.9994 25.3308 26.8209 25.5643C26.6451 25.7977 26.3883 25.9543 26.0504 26.0339C26.446 26.0861 26.7495 26.2344 26.9609 26.4789C27.1752 26.7233 27.2823 27.0392 27.2823 27.4265C27.2823 27.8 27.1875 28.1104 26.998 28.3575C26.8113 28.602 26.5586 28.7819 26.24 28.8972C25.9214 29.0126 25.5629 29.0703 25.1647 29.0703H22.7875ZM24.971 25.6467C25.3501 25.6467 25.6275 25.5794 25.8033 25.4448C25.979 25.3075 26.0669 25.107 26.0669 24.8433C26.0669 24.5851 25.9804 24.3983 25.8074 24.283C25.6371 24.1676 25.3775 24.11 25.0287 24.11H23.8051V25.6467H24.971ZM25.0823 28.2257C25.4531 28.2257 25.7415 28.1598 25.9475 28.028C26.1562 27.8934 26.2606 27.664 26.2606 27.3399C26.2606 27.0433 26.1548 26.8277 25.9433 26.6931C25.7346 26.5558 25.4503 26.4871 25.0905 26.4871H23.8051V28.2257H25.0823Z" fill="url(#paint2_linear_3169_8824)"/>
<path d="M33.0819 29.0703H32.0643L31.574 27.5954H29.2216L28.7313 29.0703H27.7013L29.8025 23.2654H31.0096L33.0819 29.0703ZM29.4935 26.7838H31.3062L30.6883 24.9257C30.5427 24.4972 30.4466 24.1992 30.3999 24.0317C30.3834 24.1003 30.2873 24.4011 30.1115 24.9339L29.4935 26.7838Z" fill="url(#paint3_linear_3169_8824)"/>
<path d="M33.8602 29.0703V23.2654H36.258C36.7139 23.2654 37.0971 23.3409 37.4074 23.492C37.7178 23.643 37.9499 23.8559 38.1037 24.1306C38.2575 24.4052 38.3344 24.7266 38.3344 25.0946C38.3344 25.4462 38.2589 25.7648 38.1078 26.0504C37.9567 26.3361 37.7288 26.564 37.4239 26.7343C37.119 26.9019 36.7469 26.9856 36.3074 26.9856H34.8819V29.0703H33.8602ZM36.1715 26.1163C36.5505 26.1163 36.8334 26.0284 37.0202 25.8527C37.2097 25.6741 37.3044 25.4242 37.3044 25.1028C37.3044 24.7897 37.2069 24.5535 37.0119 24.3942C36.8169 24.2322 36.5258 24.1512 36.1385 24.1512H34.8819V26.1163H36.1715Z" fill="url(#paint4_linear_3169_8824)"/>
<path d="M15.5093 22.7217C14.196 22.7553 13.1569 23.849 13.1904 25.1623C13.2245 26.4931 14.4023 27.55 15.7082 27.4777L16.2307 27.4487L15.6021 29.0702L15.358 29.0574C13.3141 28.9495 11.6632 27.2832 11.61 25.2027C11.5551 23.057 13.2203 21.264 15.3491 21.1461C15.5213 20.47 15.8467 19.8389 16.3075 19.3039C17.6547 17.7396 19.8378 17.3222 21.6617 18.1124C22.8005 16.8117 24.2818 16.1108 26.0654 16.2689C28.6089 16.4943 30.9271 18.3717 31.1742 21.3369C31.2145 21.8199 30.8405 22.2022 30.3938 22.2425C29.8676 22.29 29.4597 21.8777 29.3974 21.411C29.1449 19.519 27.6 18.1763 25.9096 18.0264C24.6478 17.9146 23.6624 18.4296 22.8436 19.4511L22.443 19.9106C22.1948 20.1989 21.7841 20.2095 21.507 20.0153C20.2833 19.1575 18.6116 19.337 17.6468 20.4573C17.2592 20.9074 17.0256 21.468 16.975 22.061C16.9459 22.4011 16.6697 22.7143 16.283 22.7145C16.0248 22.7234 15.7673 22.7151 15.5093 22.7217Z" fill="url(#paint5_linear_3169_8824)"/>
</g>
</g>
<defs>
<linearGradient id="paint0_linear_3169_8824" x1="4.3536" y1="6.81284" x2="41.0652" y2="44.2443" gradientUnits="userSpaceOnUse">
<stop stop-color="white"/>
<stop offset="1" stop-color="#EAECEE"/>
</linearGradient>
<linearGradient id="paint1_linear_3169_8824" x1="19.8304" y1="24.1194" x2="21.8501" y2="31.7069" gradientUnits="userSpaceOnUse">
<stop stop-color="#1348FF"/>
<stop offset="1" stop-color="#06238D"/>
</linearGradient>
<linearGradient id="paint2_linear_3169_8824" x1="19.8304" y1="24.1194" x2="21.8501" y2="31.7069" gradientUnits="userSpaceOnUse">
<stop stop-color="#1348FF"/>
<stop offset="1" stop-color="#06238D"/>
</linearGradient>
<linearGradient id="paint3_linear_3169_8824" x1="19.8304" y1="24.1194" x2="21.8501" y2="31.7069" gradientUnits="userSpaceOnUse">
<stop stop-color="#1348FF"/>
<stop offset="1" stop-color="#06238D"/>
</linearGradient>
<linearGradient id="paint4_linear_3169_8824" x1="19.8304" y1="24.1194" x2="21.8501" y2="31.7069" gradientUnits="userSpaceOnUse">
<stop stop-color="#1348FF"/>
<stop offset="1" stop-color="#06238D"/>
</linearGradient>
<linearGradient id="paint5_linear_3169_8824" x1="14.5421" y1="18.1645" x2="22.7735" y2="30.73" gradientUnits="userSpaceOnUse">
<stop stop-color="#0195FF"/>
<stop offset="0.991028" stop-color="#1147E9"/>
</linearGradient>
<clipPath id="clip0_3169_8824">
<rect width="48" height="48" fill="white"/>
</clipPath>
<clipPath id="clip1_3169_8824">
<rect width="27" height="27" fill="white" transform="translate(11.501 9.5)"/>
</clipPath>
</defs>
</svg>
