<svg width="48" height="48" viewBox="0 0 48 48" fill="none" xmlns="http://www.w3.org/2000/svg">
<circle cx="24" cy="24" r="23.5714" fill="url(#paint0_linear_3232_4626)" stroke="#D5DADD" stroke-width="0.857143"/>
<g clip-path="url(#clip0_3232_4626)">
<path d="M15.5782 18.4625C16.0019 15.4163 18.5454 12.4985 22.1253 12.4985C24.9733 12.4985 27.1055 14.0981 28.2542 16.4764C29.7825 16.621 31.1727 17.4174 32.1375 18.6351C31.7674 19.0752 31.5444 19.6432 31.5444 20.2632V20.4324H31.3755C29.9775 20.4324 28.8442 21.5657 28.8442 22.9637C28.8442 23.3606 28.9355 23.7361 29.0983 24.0704C29.0836 24.0702 29.0688 24.0701 29.0541 24.0701C27.6335 24.0701 26.3881 24.9935 25.9583 26.3361L25.8947 26.535L25.8257 26.3242C25.3882 24.9868 24.1432 24.0701 22.7254 24.0701C20.9093 24.0701 19.4622 25.551 19.4622 27.3467V28.8014H16.3009C14.6976 28.8014 13.336 28.3022 12.3769 27.3167C11.4242 26.3379 10.9999 25.0139 10.9999 23.6133C10.9999 22.1061 11.5517 20.6769 12.6201 19.6923C13.4098 18.9644 14.4266 18.5311 15.5782 18.4625Z" fill="url(#paint1_linear_3232_4626)"/>
<path d="M33.232 20.7572C33.4056 21.3478 33.4999 21.981 33.4999 22.6447C33.4999 23.3285 33.4055 23.966 33.232 24.5516V23.8075H31.3755C30.9095 23.8075 30.5317 23.4297 30.5317 22.9637C30.5317 22.4977 30.9095 22.1199 31.3755 22.1199H33.232V20.7572Z" fill="url(#paint2_linear_3232_4626)"/>
<path d="M33.7625 35.8999C33.367 36.3022 32.9762 36.9259 33.3718 37.3282C33.7673 37.7306 34.2162 37.7587 34.6117 37.3563L37.6487 34.2674C38.0443 33.865 38.0443 33.2133 37.6487 32.8109L34.6117 29.722C34.2162 29.3196 33.7514 29.1521 33.3558 29.5545C32.8611 29.9407 33.5498 30.7761 33.9453 31.1784L35.0792 32.532L28.8357 32.5383L28.8353 33.3395C28.8349 33.8921 29.2792 34.3398 29.827 34.3392L35.1909 34.3335L33.7625 35.8999Z" fill="url(#paint3_linear_3232_4626)"/>
<path d="M21.153 27.2141C21.153 26.3574 21.8416 25.6628 22.691 25.6628C23.3547 25.6628 23.9436 26.0923 24.1516 26.7281L25.413 30.5841C25.4832 30.7965 25.5658 31.0942 25.6607 31.4772C25.7556 31.8603 25.8176 32.1143 25.8465 32.2392C25.8795 32.1143 25.9455 31.8644 26.0446 31.4897C26.1478 31.1108 26.2345 30.8194 26.3047 30.6154L27.5484 26.7295C27.7519 26.0937 28.3387 25.6628 29.0011 25.6628C29.8442 25.6628 30.5276 26.3522 30.5276 27.2025V32.5366L28.8357 32.5383L28.8372 29.129C28.8372 28.6793 28.8475 28.2546 28.8681 27.8549C28.8929 27.4552 28.8827 27.2963 28.9053 27.2242C28.9012 27.2283 28.8599 27.3741 28.7815 27.6613C28.7402 27.7987 28.6535 28.0944 28.5214 28.5482C28.3934 29.002 28.2923 29.3372 28.218 29.5537L26.8199 33.7521C26.6785 34.1765 26.2842 34.4625 25.8403 34.4625C25.3963 34.4625 25.002 34.1765 24.8607 33.7521L23.4626 29.5537C23.3759 29.2997 23.252 28.9021 23.091 28.3608C22.9342 27.8154 22.8248 27.4365 22.7629 27.2242L22.7752 27.4053C22.7794 27.4719 22.7918 27.7071 22.8124 28.111C22.833 28.5107 22.8434 28.85 22.8434 29.129V33.61C22.8434 34.0808 22.4649 34.4625 21.9982 34.4625C21.5314 34.4625 21.153 34.0808 21.153 33.61V27.2141Z" fill="url(#paint4_linear_3232_4626)"/>
<path d="M34.9195 20.2632C34.9195 19.7972 34.5418 19.4194 34.0758 19.4194C33.6098 19.4194 33.232 19.7972 33.232 20.2632V22.1199H31.3755C30.9095 22.1199 30.5317 22.4977 30.5317 22.9637C30.5317 23.4297 30.9095 23.8075 31.3755 23.8075H33.232V25.6633C33.232 26.1293 33.6098 26.5071 34.0758 26.5071C34.5418 26.5071 34.9195 26.1293 34.9195 25.6633V23.8075H36.7755C37.2415 23.8075 37.6193 23.4297 37.6193 22.9637C37.6193 22.4977 37.2415 22.1199 36.7755 22.1199H34.9195V20.2632Z" fill="url(#paint5_linear_3232_4626)"/>
</g>
<defs>
<linearGradient id="paint0_linear_3232_4626" x1="4.35287" y1="6.81284" x2="41.0645" y2="44.2443" gradientUnits="userSpaceOnUse">
<stop stop-color="white"/>
<stop offset="1" stop-color="#EAECEE"/>
</linearGradient>
<linearGradient id="paint1_linear_3232_4626" x1="14.3727" y1="14.9365" x2="25.2189" y2="29.9108" gradientUnits="userSpaceOnUse">
<stop stop-color="#0195FF"/>
<stop offset="0.991028" stop-color="#1147E9"/>
</linearGradient>
<linearGradient id="paint2_linear_3232_4626" x1="14.3727" y1="14.9365" x2="25.2189" y2="29.9108" gradientUnits="userSpaceOnUse">
<stop stop-color="#0195FF"/>
<stop offset="0.991028" stop-color="#1147E9"/>
</linearGradient>
<linearGradient id="paint3_linear_3232_4626" x1="23.6356" y1="27.4256" x2="31.5537" y2="38.5708" gradientUnits="userSpaceOnUse">
<stop stop-color="#1348FF"/>
<stop offset="1" stop-color="#06238D"/>
</linearGradient>
<linearGradient id="paint4_linear_3232_4626" x1="23.6356" y1="27.4256" x2="31.5537" y2="38.5708" gradientUnits="userSpaceOnUse">
<stop stop-color="#1348FF"/>
<stop offset="1" stop-color="#06238D"/>
</linearGradient>
<linearGradient id="paint5_linear_3232_4626" x1="31.5924" y1="20.4828" x2="36.5552" y2="25.442" gradientUnits="userSpaceOnUse">
<stop stop-color="#00BBFF"/>
<stop offset="1" stop-color="#008BFF"/>
</linearGradient>
<clipPath id="clip0_3232_4626">
<rect width="27" height="27.0006" fill="white" transform="translate(11 12.5)"/>
</clipPath>
</defs>
</svg>
