<svg width="48" height="48" viewBox="0 0 48 48" fill="none" xmlns="http://www.w3.org/2000/svg">
<g clip-path="url(#clip0_3169_8832)">
<circle cx="24" cy="24" r="23.5714" fill="url(#paint0_linear_3169_8832)" stroke="#D5DADD" stroke-width="0.857143"/>
<g clip-path="url(#clip1_3169_8832)">
<path d="M23.0588 10.5C18.7764 10.5 15.7337 13.9859 15.2268 17.6253C13.8492 17.7073 12.6329 18.225 11.6881 19.0946C10.4101 20.2709 9.75 21.9784 9.75 23.7791C9.75 25.4526 10.2576 27.0343 11.3973 28.2038C12.5446 29.3811 14.1734 29.9775 16.0913 29.9775H18.1875V26.9053C18.1875 25.1149 19.6304 23.6384 21.4412 23.6384C22.8548 23.6384 24.0962 24.5524 24.5324 25.8858L24.6011 26.096L24.6646 25.8976C25.0931 24.559 26.3349 23.6384 27.7513 23.6384C29.5557 23.6384 30.9934 25.1097 30.9934 26.8936V28.073C31.5533 27.5651 32.2925 27.3304 33.0618 27.4802C33.5947 27.584 34.0198 27.8486 34.3321 28.112C35.7449 26.8346 36.6656 24.954 36.6656 22.622C36.6656 18.638 33.8183 15.5764 30.3904 15.2525C29.0163 12.4111 26.4656 10.5 23.0588 10.5Z" fill="url(#paint1_linear_3169_8832)"/>
<path d="M32.5127 35.6521C32.1171 36.0544 31.7263 36.6781 32.1219 37.0804C32.5174 37.4827 32.9663 37.5109 33.3618 37.1085L36.3988 34.0196C36.7944 33.6173 36.7944 32.9655 36.3988 32.5632L33.3618 29.4743C32.9663 29.072 32.5015 28.9045 32.1059 29.3068C31.6112 29.6931 32.2999 30.5284 32.6955 30.9307L33.8293 32.2843L29.2777 32.2889V26.9549C29.2777 26.1046 28.5943 25.4153 27.7512 25.4153C27.0888 25.4153 26.502 25.8461 26.2985 26.4819L25.0548 30.3677C24.9846 30.5717 24.8979 30.8632 24.7947 31.242L24.5966 31.9914C24.5677 31.8665 24.5058 31.6126 24.4108 31.2295C24.3159 30.8465 24.2333 30.5488 24.1631 30.3365L22.9017 26.4805C22.6937 25.8447 22.1049 25.4153 21.4411 25.4153C20.5917 25.4153 19.9031 26.1098 19.9031 26.9665V33.3623C19.9031 33.8331 20.2815 34.2147 20.7483 34.2147C21.2151 34.2147 21.5935 33.8331 21.5935 33.3623V28.8814C21.5935 28.6024 21.5832 28.2631 21.5625 27.8634C21.5419 27.4595 21.5295 27.2243 21.5254 27.1577L21.513 26.9766C21.5749 27.1889 21.6843 27.5678 21.8412 28.1132C22.0022 28.6544 22.126 29.0521 22.2127 29.306L23.6108 33.5043C23.7521 33.9288 24.1465 34.2147 24.5904 34.2147C25.0343 34.2147 25.4287 33.9288 25.57 33.5043L26.9681 29.306C27.0424 29.0895 27.1435 28.7544 27.2715 28.3006C27.4036 27.8467 27.4903 27.5511 27.5316 27.4137C27.61 27.1265 27.6513 26.9807 27.6554 26.9766C27.6329 27.0487 27.643 27.2076 27.6183 27.6073C27.5976 28.007 27.5873 28.4317 27.5873 28.8814L27.5858 32.2906L27.5854 33.0918C27.585 33.6443 28.0294 34.092 28.5772 34.0914L33.941 34.0857L32.5127 35.6521Z" fill="url(#paint2_linear_3169_8832)"/>
</g>
</g>
<defs>
<linearGradient id="paint0_linear_3169_8832" x1="4.35287" y1="6.81284" x2="41.0645" y2="44.2443" gradientUnits="userSpaceOnUse">
<stop stop-color="white"/>
<stop offset="1" stop-color="#EAECEE"/>
</linearGradient>
<linearGradient id="paint1_linear_3169_8832" x1="13.7848" y1="13.4127" x2="26.7379" y2="31.3186" gradientUnits="userSpaceOnUse">
<stop stop-color="#0195FF"/>
<stop offset="0.991028" stop-color="#1147E9"/>
</linearGradient>
<linearGradient id="paint2_linear_3169_8832" x1="22.4162" y1="27.2129" x2="30.3509" y2="38.326" gradientUnits="userSpaceOnUse">
<stop stop-color="#00BBFF"/>
<stop offset="1" stop-color="#008BFF"/>
</linearGradient>
<clipPath id="clip0_3169_8832">
<rect width="48" height="48" fill="white"/>
</clipPath>
<clipPath id="clip1_3169_8832">
<rect width="27" height="27" fill="white" transform="translate(9.75 10.5)"/>
</clipPath>
</defs>
</svg>
