<svg width="48" height="48" viewBox="0 0 48 48" fill="none" xmlns="http://www.w3.org/2000/svg">
<circle cx="24" cy="24" r="23.5714" fill="url(#paint0_linear_3202_17383)" stroke="#D5DADD" stroke-width="0.857143"/>
<g clip-path="url(#clip0_3202_17383)">
<path d="M21.2743 16.0103C17.4174 16.8418 15.245 20.1669 15.245 25.4133V26.3446C15.245 29.4489 13.2938 31.5332 13.279 31.548C12.9538 31.8879 12.8651 32.3905 13.0425 32.834C13.2346 33.2627 13.6633 33.5436 14.1363 33.5436H19.6797C20.0197 35.2287 21.5127 36.5 23.3014 36.5L23.2866 36.4852C25.0752 36.4852 26.5682 35.214 26.9082 33.5288H32.4516C32.9246 33.5288 33.3533 33.2479 33.5455 32.8192C33.7376 32.3905 33.6489 31.8879 33.3237 31.548C33.2794 31.5036 31.3577 29.3897 31.3577 26.3446V25.4133C31.3577 24.6699 31.3141 23.9651 31.2282 23.3005H28.1272L25.9501 25.5007L25.887 25.5548C25.5445 25.8484 25.0821 26.1221 24.502 26.2221C23.9733 26.3133 23.4738 26.2381 23.0397 26.0671C22.4655 25.8731 21.9494 25.4736 21.6368 24.8754C21.3814 24.4322 21.2743 23.9542 21.2743 23.4978V16.0103Z" fill="url(#paint1_linear_3202_17383)"/>
<path fill-rule="evenodd" clip-rule="evenodd" d="M25.5216 9.5C24.8867 9.5 24.3576 9.71165 23.9343 10.1349C23.511 10.5582 23.2993 11.0778 23.2993 11.6935V23.4977C23.2993 23.6517 23.3378 23.7864 23.4148 23.9018C23.4725 24.0365 23.5783 24.1231 23.7322 24.1616C24.0208 24.2962 24.2998 24.2481 24.5692 24.0173L27.2822 21.2754H35.8251C36.4601 21.2754 36.9892 21.0638 37.4125 20.6405C37.8358 20.2172 38.0475 19.6977 38.0475 19.082V11.6935C38.0475 11.0778 37.8358 10.5582 37.4125 10.1349C36.9892 9.71165 36.4601 9.5 35.8251 9.5H25.5216ZM29.9005 15.5061C29.6988 15.302 29.598 15.0571 29.598 14.7713V12.2957C29.598 12.0304 29.6988 11.8059 29.9005 11.6222C30.1021 11.4181 30.3597 11.316 30.6734 11.316C30.987 11.316 31.2446 11.4181 31.4463 11.6222C31.6479 11.8059 31.7487 12.0304 31.7487 12.2957V14.7713C31.7487 15.0571 31.6479 15.302 31.4463 15.5061C31.2446 15.6897 30.987 15.7816 30.6734 15.7816C30.3597 15.7816 30.1021 15.6897 29.9005 15.5061ZM31.5806 19.2348C31.3342 19.4812 31.0318 19.6045 30.6733 19.6045C30.3149 19.6045 30.0124 19.4812 29.766 19.2348C29.5196 18.9884 29.3963 18.6747 29.3963 18.2939C29.3963 17.9354 29.5196 17.633 29.766 17.3866C30.0124 17.1401 30.3149 17.0169 30.6733 17.0169C31.0318 17.0169 31.3342 17.1401 31.5806 17.3866C31.8271 17.633 31.9503 17.9354 31.9503 18.2939C31.9503 18.6747 31.8271 18.9884 31.5806 19.2348Z" fill="url(#paint2_linear_3202_17383)"/>
</g>
<defs>
<linearGradient id="paint0_linear_3202_17383" x1="4.35287" y1="6.81284" x2="41.0645" y2="44.2443" gradientUnits="userSpaceOnUse">
<stop stop-color="white"/>
<stop offset="1" stop-color="#EAECEE"/>
</linearGradient>
<linearGradient id="paint1_linear_3202_17383" x1="16.0547" y1="19.0744" x2="30.4007" y2="33.568" gradientUnits="userSpaceOnUse">
<stop stop-color="#0195FF"/>
<stop offset="0.991028" stop-color="#1147E9"/>
</linearGradient>
<linearGradient id="paint2_linear_3202_17383" x1="25.4797" y1="11.668" x2="35.7926" y2="22.0338" gradientUnits="userSpaceOnUse">
<stop stop-color="#1348FF"/>
<stop offset="1" stop-color="#06238D"/>
</linearGradient>
<clipPath id="clip0_3202_17383">
<rect width="27" height="27" fill="white" transform="matrix(-1 0 0 1 39 9.5)"/>
</clipPath>
</defs>
</svg>
