<svg width="48" height="48" viewBox="0 0 48 48" fill="none" xmlns="http://www.w3.org/2000/svg">
<g clip-path="url(#clip0_3169_8883)">
<circle cx="24.001" cy="24" r="23.5714" fill="url(#paint0_linear_3169_8883)" stroke="#D5DADD" stroke-width="0.857143"/>
<path fill-rule="evenodd" clip-rule="evenodd" d="M14.6968 13.7698C14.0335 14.3792 13.5154 15.2265 13.501 16.2882C13.501 16.2882 13.534 29.9637 13.534 29.9601L13.534 29.9621C13.5351 32.3463 15.4851 33.6345 17.2177 34.2729C17.7526 34.47 18.3298 34.6321 18.9342 34.763C19.8686 34.9653 20.7055 34.2134 20.7055 33.2574C20.7055 32.4588 20.1121 31.7967 19.3352 31.6114C18.9555 31.5209 18.6017 31.4163 18.28 31.2978C16.8231 30.761 16.6494 30.2148 16.6494 29.9601L16.6476 28.018C17.2073 28.19 17.7946 28.3312 18.3881 28.4468C18.8585 28.5384 19.3304 28.6119 19.8043 28.671C20.3916 28.7441 20.8973 28.2717 20.8973 27.68C20.8973 27.1601 20.5031 26.7247 19.9878 26.6558C19.6491 26.6106 19.3116 26.5573 18.9748 26.4917C17.9995 26.3017 17.2152 26.0628 16.6402 25.8077L16.6365 23.4376C17.1996 23.6111 17.7907 23.7534 18.3881 23.8698C20.0101 24.1858 21.8486 24.3424 23.6643 24.3462C25.4795 24.3501 27.3152 24.2014 28.9303 23.8864C29.508 23.7737 30.0812 23.6354 30.6288 23.4655C30.6287 23.5318 30.6286 23.5982 30.6285 23.6646C30.6272 24.5273 31.3271 25.2273 32.1899 25.2273C33.0519 25.2273 33.7508 24.5284 33.7507 23.6664L33.7505 16.3101C33.7505 15.2321 33.2231 14.3756 32.5547 13.766C31.9072 13.1752 31.0645 12.7487 30.1793 12.4354C28.3999 11.8056 26.0633 11.5 23.602 11.5C21.1407 11.5 18.8208 11.8055 17.0543 12.437C16.1746 12.7514 15.3397 13.179 14.6968 13.7698ZM16.6248 18.8199L16.6291 21.3207C17.2051 21.5777 17.9932 21.8184 18.9748 22.0096C20.3726 22.2819 22.0132 22.4259 23.6709 22.4294C25.329 22.4329 26.9611 22.2958 28.3429 22.0263C29.3142 21.8369 30.0823 21.5969 30.6356 21.342V18.8036C30.4855 18.865 30.3333 18.9227 30.1798 18.977C28.4004 19.6068 26.0638 19.9123 23.6025 19.9123C21.1616 19.9123 18.8476 19.6118 17.0815 18.9922C16.9277 18.9383 16.7752 18.8809 16.6248 18.8199Z" fill="url(#paint1_linear_3169_8883)"/>
<path fill-rule="evenodd" clip-rule="evenodd" d="M25.637 27.2844C24.0393 27.2844 22.7441 28.5796 22.7441 30.1773V34.6277C22.7441 36.2254 24.0393 37.5206 25.637 37.5206H35.9205C37.5182 37.5206 38.8134 36.2254 38.8134 34.6277V30.1773C38.8134 28.5796 37.5182 27.2844 35.9205 27.2844H25.637ZM33.9084 35.2954C33.7257 35.2954 33.5429 35.2246 33.4012 35.0866C33.1215 34.8068 33.1215 34.3518 33.4012 34.0721L35.0684 32.4049L33.4012 30.734C33.1215 30.4543 33.1215 29.9993 33.4012 29.7195C33.6809 29.4398 34.1359 29.4398 34.4157 29.7195L36.5901 31.8939C36.7243 32.0282 36.7989 32.211 36.7989 32.4012C36.7989 32.5914 36.7243 32.7742 36.5901 32.9084L34.4157 35.0828C34.2739 35.2246 34.0912 35.2954 33.9084 35.2954ZM27.65 35.2954C27.4672 35.2954 27.2845 35.2246 27.1428 35.0866L24.9684 32.9122C24.6886 32.6324 24.6886 32.1774 24.9684 31.8977L27.1428 29.7233C27.4225 29.4435 27.8775 29.4435 28.1572 29.7233C28.437 30.003 28.437 30.458 28.1572 30.7377L26.4863 32.4049L28.1535 34.0721C28.4332 34.3518 28.4332 34.8068 28.1535 35.0866C28.0155 35.2246 27.8328 35.2954 27.65 35.2954ZM29.5559 35.1686C29.6528 35.2097 29.7498 35.2283 29.8468 35.2283C30.1228 35.2283 30.3839 35.0679 30.4995 34.8031L32.3643 30.5885C32.5247 30.2268 32.3606 29.8053 31.9988 29.6449C31.637 29.4845 31.2156 29.6487 31.0552 30.0104L29.1904 34.225C29.03 34.5868 29.1941 35.0083 29.5559 35.1686Z" fill="url(#paint2_linear_3169_8883)"/>
</g>
<defs>
<linearGradient id="paint0_linear_3169_8883" x1="4.35384" y1="6.81284" x2="41.0655" y2="44.2443" gradientUnits="userSpaceOnUse">
<stop stop-color="white"/>
<stop offset="1" stop-color="#EAECEE"/>
</linearGradient>
<linearGradient id="paint1_linear_3169_8883" x1="16.5365" y1="14.9838" x2="32.6902" y2="29.03" gradientUnits="userSpaceOnUse">
<stop stop-color="#0195FF"/>
<stop offset="0.991028" stop-color="#1147E9"/>
</linearGradient>
<linearGradient id="paint2_linear_3169_8883" x1="25.1199" y1="28.7904" x2="31.6003" y2="39.0076" gradientUnits="userSpaceOnUse">
<stop stop-color="#1348FF"/>
<stop offset="1" stop-color="#06238D"/>
</linearGradient>
<clipPath id="clip0_3169_8883">
<rect width="48" height="48" fill="white"/>
</clipPath>
</defs>
</svg>
