<svg width="48" height="48" viewBox="0 0 48 48" fill="none" xmlns="http://www.w3.org/2000/svg">
<g clip-path="url(#clip0_3169_8874)">
<circle cx="24" cy="24" r="23.5714" fill="url(#paint0_linear_3169_8874)" stroke="#D5DADD" stroke-width="0.857143"/>
<g clip-path="url(#clip1_3169_8874)">
<path fill-rule="evenodd" clip-rule="evenodd" d="M27.6652 15.1216L25.7308 17.0559C24.9905 17.7963 24.6697 18.7387 24.6697 19.6757C24.6697 20.6127 24.9905 21.5551 25.7308 22.2955C26.4712 23.0358 27.4136 23.3566 28.3506 23.3566C29.2855 23.3566 30.2258 23.0372 30.9654 22.3004L32.9005 20.3837C33.0621 20.6887 33.2723 20.9775 33.5355 21.2408L33.5911 21.2964L33.6503 21.3482C34.2613 21.8828 34.988 22.1917 35.7598 22.2773V31.024C35.7598 32.357 35.3038 33.4795 34.3917 34.3915C33.4797 35.3035 32.3747 35.7595 31.0769 35.7595H22.3115C22.2367 34.9476 21.9102 34.1522 21.2672 33.5092L21.2116 33.4535L21.1524 33.4017C20.9137 33.1929 20.6573 33.0185 20.3875 32.8784L22.3219 30.944C23.0622 30.2036 23.383 29.2612 23.383 28.3242C23.383 27.3872 23.0622 26.4448 22.3219 25.7045C21.5816 24.9641 20.6391 24.6434 19.7021 24.6434C18.7672 24.6434 17.8269 24.9627 17.0873 25.6996L15.1522 27.6162C14.9906 27.3112 14.7804 27.0224 14.5172 26.7592L14.4616 26.7035L14.4024 26.6517C13.7499 26.0808 12.9653 25.7672 12.1348 25.7083V16.87C12.1348 15.5371 12.5908 14.4146 13.5028 13.5026C14.4499 12.5905 15.5724 12.1345 16.8703 12.1345H25.733C25.7883 12.9829 26.1146 13.8198 26.7855 14.4908L26.8411 14.5464L26.9003 14.5982C27.139 14.807 27.3954 14.9815 27.6652 15.1216Z" fill="url(#paint1_linear_3169_8874)"/>
<path d="M37.1309 10.9219C36.8848 10.6406 36.5684 10.5 36.1816 10.5H29.4316C29.0449 10.5 28.7109 10.6406 28.4297 10.9219C28.1836 11.168 28.0605 11.4844 28.0605 11.8711C28.0605 12.2578 28.1836 12.5742 28.4297 12.8203C28.7109 13.0664 29.0449 13.1895 29.4316 13.1895H32.9121L27.375 18.7266C27.1289 18.9727 27.0059 19.2891 27.0059 19.6758C27.0059 20.0625 27.1289 20.3789 27.375 20.625C27.6211 20.8711 27.9375 20.9941 28.3242 20.9941C28.7109 20.9941 29.0273 20.8711 29.2734 20.625L34.8105 15.1406V18.6211C34.8105 19.0078 34.9336 19.3242 35.1797 19.5703C35.4609 19.8164 35.7949 19.9395 36.1816 19.9395C36.5684 19.9395 36.8848 19.8164 37.1309 19.5703C37.377 19.3242 37.5 19.0078 37.5 18.6211V11.8711C37.5 11.4844 37.377 11.168 37.1309 10.9219Z" fill="url(#paint2_linear_3169_8874)"/>
<path d="M10.8691 37.0781C11.1152 37.3594 11.4316 37.5 11.8184 37.5L18.5684 37.5C18.9551 37.5 19.2891 37.3594 19.5703 37.0781C19.8164 36.832 19.9395 36.5156 19.9395 36.1289C19.9395 35.7422 19.8164 35.4258 19.5703 35.1797C19.2891 34.9336 18.9551 34.8105 18.5684 34.8105L15.0879 34.8105L20.625 29.2734C20.8711 29.0273 20.9941 28.7109 20.9941 28.3242C20.9941 27.9375 20.8711 27.6211 20.625 27.375C20.3789 27.1289 20.0625 27.0059 19.6758 27.0059C19.2891 27.0059 18.9727 27.1289 18.7266 27.375L13.1895 32.8594L13.1895 29.3789C13.1895 28.9922 13.0664 28.6758 12.8203 28.4297C12.5391 28.1836 12.2051 28.0605 11.8184 28.0605C11.4316 28.0605 11.1152 28.1836 10.8691 28.4297C10.623 28.6758 10.5 28.9922 10.5 29.3789L10.5 36.1289C10.5 36.5156 10.623 36.832 10.8691 37.0781Z" fill="url(#paint3_linear_3169_8874)"/>
</g>
</g>
<defs>
<linearGradient id="paint0_linear_3169_8874" x1="4.35287" y1="6.81284" x2="41.0645" y2="44.2443" gradientUnits="userSpaceOnUse">
<stop stop-color="white"/>
<stop offset="1" stop-color="#EAECEE"/>
</linearGradient>
<linearGradient id="paint1_linear_3169_8874" x1="15.6763" y1="15.6675" x2="32.2184" y2="32.2154" gradientUnits="userSpaceOnUse">
<stop stop-color="#0195FF"/>
<stop offset="0.991028" stop-color="#1147E9"/>
</linearGradient>
<linearGradient id="paint2_linear_3169_8874" x1="28.5573" y1="12.0439" x2="35.9016" y2="19.4198" gradientUnits="userSpaceOnUse">
<stop stop-color="#1348FF"/>
<stop offset="1" stop-color="#06238D"/>
</linearGradient>
<linearGradient id="paint3_linear_3169_8874" x1="19.4236" y1="35.9255" x2="12.0757" y2="28.5827" gradientUnits="userSpaceOnUse">
<stop stop-color="#00BBFF"/>
<stop offset="1" stop-color="#008BFF"/>
</linearGradient>
<clipPath id="clip0_3169_8874">
<rect width="48" height="48" fill="white"/>
</clipPath>
<clipPath id="clip1_3169_8874">
<rect width="27" height="27" fill="white" transform="translate(10.5 10.5)"/>
</clipPath>
</defs>
</svg>
