<svg width="48" height="48" viewBox="0 0 48 48" fill="none" xmlns="http://www.w3.org/2000/svg">
<g clip-path="url(#clip0_3169_8892)">
<circle cx="24" cy="24" r="23.5714" fill="url(#paint0_linear_3169_8892)" stroke="#D5DADD" stroke-width="0.857143"/>
<path d="M20.9904 9.51831C19.6341 9.51831 18.5114 10.5183 18.3194 11.8213C18.3031 11.9317 18.2928 12.0444 18.2904 12.1588H16.9403C14.7968 12.1588 13.0591 13.8965 13.0591 16.04V32.5775C13.0591 34.7211 14.7968 36.4588 16.9403 36.4588H27.8958C28.5482 36.4588 29.077 35.9299 29.077 35.2775C29.077 34.6251 28.5482 34.0963 27.8958 34.0963H16.9403C16.1015 34.0963 15.4216 33.4163 15.4216 32.5775V16.04C15.4216 15.7733 15.4903 15.5226 15.6111 15.3047C15.7144 15.1184 15.8558 14.956 16.0247 14.8282C16.2793 14.6355 16.5965 14.5213 16.9403 14.5213H18.2904V14.8282L18.2905 14.8588C18.3069 16.3358 19.5094 17.5282 20.9904 17.5282H26.7279C28.2088 17.5282 29.4113 16.3358 29.4277 14.8588L29.4279 14.8282V14.5213H30.7778C31.1217 14.5213 31.4388 14.6355 31.6934 14.8282C31.8624 14.956 32.0038 15.1184 32.1071 15.3049C32.2278 15.5227 32.2966 15.7733 32.2966 16.04V18.7911C32.2966 19.4435 32.8254 19.9723 33.4778 19.9723C34.1302 19.9723 34.6591 19.4435 34.6591 18.7911V16.04C34.6591 13.8965 32.9214 12.1588 30.7778 12.1588H29.4272C29.4248 12.0444 29.4152 11.9317 29.3989 11.8213C29.2069 10.5183 28.0842 9.51831 26.7279 9.51831H20.9904Z" fill="url(#paint1_linear_3169_8892)"/>
<path fill-rule="evenodd" clip-rule="evenodd" d="M21.7996 20.9434C21.7996 20.0645 21.3425 19.625 20.4285 19.625H18.4937C17.5796 19.625 17.1226 20.0645 17.1226 20.9434C17.1226 21.8574 17.5796 22.3145 18.4937 22.3145H20.4285C21.3425 22.3145 21.7996 21.8574 21.7996 20.9434ZM20.185 26.0059C20.4311 25.7246 20.5542 25.3906 20.5542 25.0039C20.5542 24.125 20.1147 23.6855 19.2358 23.6855H18.4937C17.5796 23.6855 17.1226 24.125 17.1226 25.0039C17.1226 25.3906 17.2456 25.7246 17.4917 26.0059C17.7378 26.252 18.0718 26.375 18.4937 26.375H19.2358C19.6225 26.375 19.9389 26.252 20.185 26.0059ZM20.7427 30.0564C20.9888 29.7752 21.1118 29.4412 21.1118 29.0545C21.1118 28.1756 20.6723 27.7361 19.7934 27.7361H18.4937C17.5796 27.7361 17.1226 28.1756 17.1226 29.0545C17.1226 29.4412 17.2456 29.7752 17.4917 30.0564C17.7378 30.3025 18.0718 30.4256 18.4937 30.4256H19.7934C20.1802 30.4256 20.4966 30.3025 20.7427 30.0564Z" fill="url(#paint2_linear_3169_8892)"/>
<path fill-rule="evenodd" clip-rule="evenodd" d="M32.0394 25.474C32.0394 27.5674 30.3204 29.298 28.1582 29.298C25.996 29.298 24.2769 27.5674 24.2769 25.474C24.2769 23.3806 25.996 21.65 28.1582 21.65C30.3204 21.65 32.0394 23.3806 32.0394 25.474ZM31.092 30.5515C30.2276 31.0424 29.226 31.323 28.1582 31.323C24.8963 31.323 22.252 28.7043 22.252 25.474C22.252 22.2437 24.8963 19.625 28.1582 19.625C31.4201 19.625 34.0644 22.2437 34.0644 25.474C34.0644 26.6732 33.7 27.7881 33.0749 28.716L37.1048 32.746C37.632 33.2732 37.632 34.128 37.1048 34.6552C36.5776 35.1824 35.7228 35.1824 35.1956 34.6552L31.092 30.5515Z" fill="url(#paint3_linear_3169_8892)"/>
</g>
<defs>
<linearGradient id="paint0_linear_3169_8892" x1="4.35287" y1="6.81284" x2="41.0645" y2="44.2443" gradientUnits="userSpaceOnUse">
<stop stop-color="white"/>
<stop offset="1" stop-color="#EAECEE"/>
</linearGradient>
<linearGradient id="paint1_linear_3169_8892" x1="16.297" y1="13.5471" x2="34.7108" y2="28.3158" gradientUnits="userSpaceOnUse">
<stop stop-color="#0195FF"/>
<stop offset="0.991028" stop-color="#1147E9"/>
</linearGradient>
<linearGradient id="paint2_linear_3169_8892" x1="17.8237" y1="21.2402" x2="23.3404" y2="23.6299" gradientUnits="userSpaceOnUse">
<stop stop-color="#0195FF"/>
<stop offset="0.991028" stop-color="#1147E9"/>
</linearGradient>
<linearGradient id="paint3_linear_3169_8892" x1="24.5063" y1="21.8944" x2="35.3017" y2="32.6117" gradientUnits="userSpaceOnUse">
<stop stop-color="#1348FF"/>
<stop offset="1" stop-color="#06238D"/>
</linearGradient>
<clipPath id="clip0_3169_8892">
<rect width="48" height="48" fill="white"/>
</clipPath>
</defs>
</svg>
