<svg width="48" height="48" viewBox="0 0 48 48" fill="none" xmlns="http://www.w3.org/2000/svg">
<g clip-path="url(#clip0_3169_8901)">
<circle cx="24" cy="24" r="23.5714" fill="url(#paint0_linear_3169_8901)" stroke="#D5DADD" stroke-width="0.857143"/>
<path d="M17.4921 14.4852C19.1803 13.7335 21.01 13.352 22.858 13.3663H22.8551C24.7029 13.3807 26.5263 13.7905 28.2026 14.5682C29.8788 15.3459 31.3692 16.4735 32.5734 17.8751C32.6739 17.9953 32.7972 18.0943 32.9362 18.1664C33.0752 18.2386 33.2272 18.2824 33.3832 18.2953C33.5393 18.3082 33.6964 18.29 33.8454 18.2418C33.9944 18.1935 34.1323 18.1161 34.2511 18.0141C34.37 17.9121 34.4674 17.7875 34.5377 17.6476C34.608 17.5076 34.6498 17.3551 34.6607 17.1989C34.6715 17.0426 34.6513 16.8858 34.6011 16.7374C34.5508 16.5891 34.4717 16.4522 34.3681 16.3347C32.944 14.6766 31.1814 13.3426 29.1988 12.4225C27.2162 11.5024 25.0595 11.0176 22.8739 11.0005C20.6882 10.9834 18.5243 11.4345 16.5275 12.3235C14.5307 13.2125 12.7475 14.5187 11.2977 16.1544C11.0895 16.3894 10.9832 16.6975 11.0022 17.011C11.0212 17.3244 11.1639 17.6174 11.3989 17.8256C11.634 18.0338 11.9421 18.1401 12.2555 18.1211C12.5689 18.1021 12.862 17.9594 13.0701 17.7243C14.296 16.3414 15.8038 15.2369 17.4921 14.4852Z" fill="url(#paint1_linear_3169_8901)"/>
<path d="M20.4283 18.3871C21.9111 17.9514 23.4863 17.9405 24.975 18.3556C26.7077 18.8386 28.2354 19.8742 29.3257 21.305C30.416 22.7358 31.0092 24.4834 31.0153 26.2823C31.0185 26.4314 30.9923 26.5798 30.9382 26.7189C30.884 26.8579 30.803 26.985 30.6998 27.0927C30.5966 27.2005 30.4731 27.2869 30.3365 27.3469C30.1999 27.407 30.0528 27.4395 29.9036 27.4427C29.7544 27.4459 29.6061 27.4197 29.467 27.3656C29.3279 27.3114 29.2009 27.2304 29.0932 27.1272C28.9854 27.024 28.899 26.9005 28.839 26.7639C28.7789 26.6273 28.7464 26.4802 28.7432 26.331C28.7444 25.5448 28.5908 24.766 28.2911 24.0391C27.9914 23.3122 27.5514 22.6515 26.9964 22.0947C26.4413 21.5378 25.782 21.0958 25.0561 20.7937C24.3302 20.4917 23.5519 20.3355 22.7656 20.3343C21.9794 20.333 21.2006 20.4866 20.4737 20.7863C19.7468 21.0861 19.0861 21.526 18.5293 22.0811C17.9724 22.6361 17.5303 23.2955 17.2283 24.0214C16.9262 24.7473 16.7701 25.5256 16.7689 26.3118C16.7795 27.6544 16.9775 28.9889 17.3572 30.2766C17.7712 31.6707 18.4571 33.1372 19.551 34.2311C19.773 34.4528 20.0739 34.5773 20.3875 34.5772C20.7012 34.577 21.002 34.4523 21.2237 34.2304C21.4455 34.0085 21.5699 33.7076 21.5698 33.3939C21.5697 33.0802 21.4449 32.7794 21.223 32.5577C20.509 31.8436 19.9753 30.7867 19.625 29.604C19.2761 28.4302 19.1342 27.2254 19.1342 26.3118C19.1316 25.3512 19.5108 24.429 20.1882 23.748C20.8656 23.0669 21.7858 22.6829 22.7464 22.6804C23.707 22.6778 24.6292 23.057 25.3103 23.7344C25.9913 24.4118 26.3753 25.332 26.3779 26.2926V26.3384C26.3779 26.4064 26.3749 26.4759 26.3705 26.5454C26.3585 26.7317 26.391 26.9181 26.4651 27.0894C26.6415 27.857 27.0714 28.5427 27.6854 29.036C28.2994 29.5293 29.0617 29.8012 29.8492 29.8081C30.6368 29.8149 31.4037 29.5562 32.0262 29.0737C32.6486 28.5911 33.0904 27.9129 33.2801 27.1485C33.3356 27.0168 33.3666 26.876 33.3717 26.7331C33.4355 25.1472 33.1432 23.5671 32.5162 22.109C31.8892 20.6508 30.9434 19.3517 29.7484 18.307C28.5534 17.2624 27.1396 16.4987 25.6107 16.0722C24.0819 15.6457 22.4769 15.5672 20.9137 15.8423C19.3505 16.1175 17.8688 16.7395 16.5775 17.6624C15.2862 18.5854 14.2182 19.786 13.4518 21.1759C12.6854 22.5659 12.2401 24.1099 12.1488 25.6945C12.0574 27.2791 12.3222 28.864 12.9238 30.3328C13.0489 30.6136 13.2784 30.8347 13.5637 30.9492C13.8491 31.0637 14.1678 31.0626 14.4523 30.9461C14.7368 30.8296 14.9647 30.6069 15.0878 30.3252C15.2109 30.0435 15.2195 29.7249 15.1117 29.437C14.5269 28.0065 14.3551 26.4406 14.616 24.9173C14.8768 23.3941 15.5598 21.9745 16.5873 20.8202C17.6148 19.6658 18.9456 18.8228 20.4283 18.3871Z" fill="url(#paint2_linear_3169_8901)"/>
<path d="M24.1859 26.3116C24.1859 25.6592 23.657 25.1303 23.0046 25.1303C22.3522 25.1304 21.8234 25.6592 21.8234 26.3116C21.8234 28.0524 22.1643 29.1079 22.8493 30.2043C23.195 30.7576 23.9237 30.9259 24.477 30.5803C25.0303 30.2346 25.1986 29.5059 24.853 28.9526C24.419 28.2579 24.1859 27.6419 24.1859 26.3116Z" fill="url(#paint3_linear_3169_8901)"/>
<path d="M35.5399 29.3687C35.1588 29.3687 34.8159 29.5211 34.511 29.826L29.7665 34.5705L27.8801 32.6841C27.6134 32.3792 27.2894 32.2268 26.9083 32.2268C26.5273 32.2268 26.1843 32.3792 25.8794 32.6841C25.5746 32.989 25.4221 33.3319 25.4221 33.713C25.4221 34.0941 25.5746 34.4371 25.8794 34.7419L28.7376 37.6001C29.0043 37.8668 29.3473 38.0002 29.7665 38.0002C30.1857 38.0002 30.5287 37.8668 30.7954 37.6001L36.5688 31.8266C36.8356 31.5218 36.969 31.1788 36.969 30.7977C36.969 30.4166 36.8356 30.0927 36.5688 29.826C36.264 29.5211 35.921 29.3687 35.5399 29.3687Z" fill="url(#paint4_linear_3169_8901)"/>
</g>
<defs>
<linearGradient id="paint0_linear_3169_8901" x1="4.35287" y1="6.81284" x2="41.0645" y2="44.2443" gradientUnits="userSpaceOnUse">
<stop stop-color="white"/>
<stop offset="1" stop-color="#EAECEE"/>
</linearGradient>
<linearGradient id="paint1_linear_3169_8901" x1="14.5473" y1="14.5258" x2="31.0558" y2="31.1005" gradientUnits="userSpaceOnUse">
<stop stop-color="#0195FF"/>
<stop offset="0.991028" stop-color="#1147E9"/>
</linearGradient>
<linearGradient id="paint2_linear_3169_8901" x1="14.5473" y1="14.5258" x2="31.0558" y2="31.1005" gradientUnits="userSpaceOnUse">
<stop stop-color="#0195FF"/>
<stop offset="0.991028" stop-color="#1147E9"/>
</linearGradient>
<linearGradient id="paint3_linear_3169_8901" x1="14.5473" y1="14.5258" x2="31.0558" y2="31.1005" gradientUnits="userSpaceOnUse">
<stop stop-color="#0195FF"/>
<stop offset="0.991028" stop-color="#1147E9"/>
</linearGradient>
<linearGradient id="paint4_linear_3169_8901" x1="27.1292" y1="30.6385" x2="32.9159" y2="38.413" gradientUnits="userSpaceOnUse">
<stop stop-color="#1348FF"/>
<stop offset="1" stop-color="#06238D"/>
</linearGradient>
<clipPath id="clip0_3169_8901">
<rect width="48" height="48" fill="white"/>
</clipPath>
</defs>
</svg>
