<svg width="48" height="48" viewBox="0 0 48 48" fill="none" xmlns="http://www.w3.org/2000/svg">
<g clip-path="url(#clip0_3169_8909)">
<circle cx="24.001" cy="24" r="23.5714" fill="url(#paint0_linear_3169_8909)" stroke="#D5DADD" stroke-width="0.857143"/>
<g clip-path="url(#clip1_3169_8909)">
<path d="M22.0721 11.6133H23.7656C24.3462 11.6133 24.8785 11.8068 25.3623 12.1939C25.8139 12.5487 26.0881 13.0165 26.1849 13.5971L26.5236 15.1938L27.3758 15.7091L26.6096 16.2799H25.9481C24.4569 16.2799 23.2481 17.4888 23.2481 18.9799C23.2481 19.0113 23.2486 19.0426 23.2497 19.0737C23.1482 19.0677 23.046 19.0647 22.943 19.0647C22.2656 19.0647 21.6205 19.1938 21.0076 19.4518C20.3947 19.7099 19.8625 20.0647 19.4109 20.5163C18.9593 20.9679 18.6044 21.484 18.3464 22.0647C18.0883 22.6775 17.9593 23.3227 17.9593 24.0001C17.9593 24.6775 18.0883 25.3065 18.3464 25.8871C18.6044 26.5 18.9593 27.0323 19.4109 27.4839C19.8625 27.9355 20.3947 28.2903 21.0076 28.5484C21.6205 28.8064 22.2656 28.9355 22.943 28.9355C23.0516 28.9355 23.1594 28.9321 23.2663 28.9255C23.2543 29.029 23.2481 29.1343 23.2481 29.2411C23.2481 30.7322 24.4569 31.9411 25.9481 31.9411H26.6096L27.2122 32.39L26.5236 32.8063L26.1849 34.4031C26.0559 34.9837 25.7656 35.4514 25.3139 35.8063C24.8623 36.1934 24.3462 36.3869 23.7656 36.3869H22.0721C21.4915 36.3869 20.9753 36.1934 20.5237 35.8063C20.0721 35.4514 19.7818 34.9837 19.6528 34.4031L19.3625 32.8063L17.2335 31.5483L15.7819 32.1289C15.5239 32.258 15.2174 32.3225 14.8626 32.3225C14.411 32.3225 13.9917 32.2096 13.6046 31.9838C13.1852 31.758 12.8626 31.4193 12.6368 30.9677L11.7659 29.1774C11.5724 28.8548 11.4756 28.4839 11.4756 28.0645C11.4756 27.2581 11.8143 26.6129 12.4917 26.1291L13.653 25.2581V22.7421L12.4917 21.9195C11.8143 21.4034 11.4756 20.7421 11.4756 19.9357C11.4756 19.5486 11.5724 19.1776 11.7659 18.8228L12.6368 17.0325C12.8626 16.5809 13.1852 16.2422 13.6046 16.0164C13.9917 15.7906 14.411 15.6777 14.8626 15.6777C15.1852 15.6777 15.4916 15.7261 15.7819 15.8229L17.2335 16.4519L19.3625 15.1938L19.6528 13.5971C19.7818 13.0165 20.0721 12.5487 20.5237 12.1939C20.9753 11.8068 21.4915 11.6133 22.0721 11.6133Z" fill="url(#paint1_linear_3169_8909)"/>
<path fill-rule="evenodd" clip-rule="evenodd" d="M31.2299 16.1032C31.6542 14.823 32.8611 13.8994 34.2837 13.8994C36.06 13.8994 37.5 15.3394 37.5 17.1158C37.5 18.8921 36.06 20.3321 34.2837 20.3321C32.861 20.3321 31.6541 19.4085 31.2299 18.1282H30.4795L28.2917 19.7581C28.0878 19.91 27.8403 19.992 27.586 19.992H26.0853C25.5261 19.992 25.0728 19.5387 25.0728 18.9795C25.0728 18.4204 25.5261 17.967 26.0853 17.967H27.3062L29.4941 16.3371C29.698 16.1852 29.9455 16.1032 30.1998 16.1032H31.2299ZM33.0923 17.1158C33.0923 16.4578 33.6257 15.9244 34.2837 15.9244C34.9416 15.9244 35.475 16.4578 35.475 17.1158C35.475 17.7738 34.9416 18.3071 34.2837 18.3071C33.6257 18.3071 33.0923 17.7738 33.0923 17.1158Z" fill="url(#paint2_linear_3169_8909)"/>
<path fill-rule="evenodd" clip-rule="evenodd" d="M31.2299 32.1178C31.6542 33.398 32.8611 34.3216 34.2836 34.3216C36.06 34.3216 37.5 32.8816 37.5 31.1052C37.5 29.3289 36.06 27.8889 34.2836 27.8889C32.861 27.8889 31.6541 28.8125 31.2298 30.0928H30.4795L28.2917 28.4629C28.0878 28.311 27.8403 28.229 27.586 28.229H26.0852C25.526 28.229 25.0727 28.6823 25.0727 29.2415C25.0727 29.8006 25.526 30.254 26.0852 30.254H27.3062L29.494 31.8838C29.698 32.0358 29.9455 32.1178 30.1998 32.1178H31.2299ZM33.0923 31.1052C33.0923 31.7632 33.6257 32.2966 34.2836 32.2966C34.9416 32.2966 35.475 31.7632 35.475 31.1052C35.475 30.4472 34.9416 29.9139 34.2836 29.9139C33.6257 29.9139 33.0923 30.4472 33.0923 31.1052Z" fill="url(#paint3_linear_3169_8909)"/>
<path fill-rule="evenodd" clip-rule="evenodd" d="M30.3567 20.8941C28.9342 20.8941 27.7273 21.8177 27.303 23.0979H23.48C22.9208 23.0979 22.4675 23.5512 22.4675 24.1104C22.4675 24.6696 22.9208 25.1229 23.48 25.1229H27.3029C27.7272 26.4032 28.9341 27.3269 30.3567 27.3269C32.1331 27.3269 33.5731 25.8868 33.5731 24.1105C33.5731 22.3341 32.1331 20.8941 30.3567 20.8941ZM30.3567 22.9191C29.6988 22.9191 29.1654 23.4525 29.1654 24.1105C29.1654 24.7685 29.6988 25.3019 30.3567 25.3019C31.0147 25.3019 31.5481 24.7685 31.5481 24.1105C31.5481 23.4525 31.0147 22.9191 30.3567 22.9191Z" fill="url(#paint4_linear_3169_8909)"/>
</g>
</g>
<defs>
<linearGradient id="paint0_linear_3169_8909" x1="4.35384" y1="6.81284" x2="41.0655" y2="44.2443" gradientUnits="userSpaceOnUse">
<stop stop-color="white"/>
<stop offset="1" stop-color="#EAECEE"/>
</linearGradient>
<linearGradient id="paint1_linear_3169_8909" x1="13.8591" y1="15.318" x2="29.6316" y2="25.4447" gradientUnits="userSpaceOnUse">
<stop stop-color="#0195FF"/>
<stop offset="0.991028" stop-color="#1147E9"/>
</linearGradient>
<linearGradient id="paint2_linear_3169_8909" x1="24.69" y1="16.904" x2="38.3541" y2="27.0053" gradientUnits="userSpaceOnUse">
<stop stop-color="#1348FF"/>
<stop offset="1" stop-color="#06238D"/>
</linearGradient>
<linearGradient id="paint3_linear_3169_8909" x1="24.69" y1="16.904" x2="38.3541" y2="27.0053" gradientUnits="userSpaceOnUse">
<stop stop-color="#1348FF"/>
<stop offset="1" stop-color="#06238D"/>
</linearGradient>
<linearGradient id="paint4_linear_3169_8909" x1="24.69" y1="16.904" x2="38.3541" y2="27.0053" gradientUnits="userSpaceOnUse">
<stop stop-color="#1348FF"/>
<stop offset="1" stop-color="#06238D"/>
</linearGradient>
<clipPath id="clip0_3169_8909">
<rect width="48" height="48" fill="white"/>
</clipPath>
<clipPath id="clip1_3169_8909">
<rect width="27" height="27" fill="white" transform="matrix(-1 0 0 1 37.5 10.5)"/>
</clipPath>
</defs>
</svg>
