<svg width="48" height="48" viewBox="0 0 48 48" fill="none" xmlns="http://www.w3.org/2000/svg">
<g clip-path="url(#clip0_3169_8917)">
<circle cx="23.9999" cy="23.9999" r="23.5713" fill="url(#paint0_linear_3169_8917)" stroke="#D5DADD" stroke-width="0.857139"/>
<g clip-path="url(#clip1_3169_8917)">
<path fill-rule="evenodd" clip-rule="evenodd" d="M14.6958 13.7697C14.0325 14.3792 13.5144 15.2264 13.5 16.2882C13.5 16.2882 13.533 29.9636 13.533 29.96L13.533 29.962C13.5339 31.8558 15.1598 32.8614 16.9131 33.4998C17.9349 33.8719 18.9738 33.0552 18.9738 31.9677C18.9738 31.2737 18.5423 30.6474 17.8759 30.4534C17.0916 30.2251 16.6484 30.1419 16.6484 29.96L16.6466 28.0179C17.2063 28.1899 17.7937 28.3311 18.3871 28.4467C19.71 28.7044 21.1726 28.8418 22.6522 28.8858C23.207 28.9023 23.6582 28.452 23.66 27.8969C23.6618 27.3409 23.2121 26.8907 22.6564 26.8727C21.3506 26.8303 20.0873 26.7085 18.9738 26.4916C17.9985 26.3016 17.2142 26.0627 16.6392 25.8076L16.6355 23.4375C17.1986 23.6111 17.7897 23.7533 18.3871 23.8697C20.0091 24.1857 21.8476 24.3423 23.6633 24.3461C25.4785 24.35 27.3142 24.2013 28.9293 23.8863C29.5069 23.7736 30.0802 23.6353 30.6278 23.4654C30.627 23.8406 30.6267 24.2159 30.6264 24.5912C30.6259 25.454 31.3255 26.1539 32.1883 26.1539C33.0507 26.1539 33.7497 25.4548 33.7497 24.5924L33.7494 16.31C33.7494 15.232 33.222 14.3756 32.5537 13.766C31.9061 13.1752 31.0635 12.7487 30.1783 12.4353C28.3989 11.8056 26.0623 11.5 23.601 11.5C21.1397 11.5 18.8198 11.8055 17.0533 12.437C16.1737 12.7514 15.3388 13.179 14.6958 13.7697ZM16.6238 18.8198L16.6281 21.3207C17.2041 21.5776 17.9922 21.8183 18.9738 22.0095C20.3716 22.2818 22.0122 22.4258 23.6698 22.4293C25.328 22.4329 26.96 22.2958 28.3418 22.0262C29.3131 21.8368 30.0813 21.5968 30.6345 21.3419V18.8035C30.4844 18.8649 30.3322 18.9226 30.1788 18.9769C28.3994 19.6067 26.0628 19.9123 23.6015 19.9123C21.1605 19.9123 18.8466 19.6118 17.0805 18.9922C16.9267 18.9382 16.7742 18.8808 16.6238 18.8198Z" fill="url(#paint1_linear_3169_8917)"/>
<path fill-rule="evenodd" clip-rule="evenodd" d="M35.3327 34.1509C35.5425 34.3602 35.8152 34.4648 36.0879 34.4648C36.3606 34.4648 36.6333 34.3602 36.8378 34.1562L40.1889 30.8137C40.6032 30.4005 40.6032 29.7257 40.1889 29.3125L36.8378 25.9701C36.4235 25.5568 35.747 25.5568 35.3327 25.9701C34.9184 26.3833 34.9184 27.0581 35.3327 27.4713L36.7015 28.8365L29.3515 28.8365C28.7642 28.8365 28.2869 29.3125 28.2869 29.8984C28.2869 30.4842 28.7642 30.9602 29.3515 30.9602L37.0266 30.9602L35.3327 32.6497C34.9184 33.0629 34.9184 33.7377 35.3327 34.1509ZM26.123 38.1861C25.9133 38.3954 25.6405 38.5 25.3678 38.5C25.0951 38.5 24.8224 38.3954 24.6179 38.1914L21.2668 34.8489C20.8525 34.4357 20.8525 33.7609 21.2668 33.3477L24.6179 30.0053C25.0322 29.592 25.7087 29.592 26.123 30.0053C26.5373 30.4185 26.5373 31.0933 26.123 31.5065L24.7543 32.8717L32.1042 32.8717C32.6916 32.8717 33.1688 33.3477 33.1688 33.9335C33.1688 34.5194 32.6916 34.9954 32.1042 34.9954L24.4291 34.9954L26.123 36.6849C26.5373 37.0981 26.5373 37.7729 26.123 38.1861Z" fill="url(#paint2_linear_3169_8917)"/>
</g>
</g>
<defs>
<linearGradient id="paint0_linear_3169_8917" x1="4.35285" y1="6.81281" x2="41.0643" y2="44.2441" gradientUnits="userSpaceOnUse">
<stop stop-color="white"/>
<stop offset="1" stop-color="#EAECEE"/>
</linearGradient>
<linearGradient id="paint1_linear_3169_8917" x1="16.5355" y1="14.8036" x2="31.9456" y2="28.9341" gradientUnits="userSpaceOnUse">
<stop stop-color="#0195FF"/>
<stop offset="0.991028" stop-color="#1147E9"/>
</linearGradient>
<linearGradient id="paint2_linear_3169_8917" x1="23.8454" y1="27.5492" x2="32.0787" y2="40.1352" gradientUnits="userSpaceOnUse">
<stop stop-color="#1348FF"/>
<stop offset="1" stop-color="#06238D"/>
</linearGradient>
<clipPath id="clip0_3169_8917">
<rect width="47.9998" height="47.9998" fill="white"/>
</clipPath>
<clipPath id="clip1_3169_8917">
<rect width="26.9999" height="26.9999" fill="white" transform="translate(13.5 11.5)"/>
</clipPath>
</defs>
</svg>
