<svg width="48" height="48" viewBox="0 0 48 48" fill="none" xmlns="http://www.w3.org/2000/svg">
<g clip-path="url(#clip0_3169_8934)">
<circle cx="23.9989" cy="23.9999" r="23.5713" fill="url(#paint0_linear_3169_8934)" stroke="#D5DADD" stroke-width="0.857139"/>
<g clip-path="url(#clip1_3169_8934)">
<path d="M19.5442 15.3627V12.4263L14.3726 17.5979H17.309C17.9226 17.5979 18.4485 17.3788 18.8868 16.9405C19.3251 16.5022 19.5442 15.9763 19.5442 15.3627Z" fill="url(#paint1_linear_3169_8934)"/>
<path fill-rule="evenodd" clip-rule="evenodd" d="M29.4717 10.5278H21.8747C21.5821 10.5278 21.3015 10.6441 21.0946 10.851C20.8877 11.0579 20.7714 11.3385 20.7714 11.6311V15.5042C20.7714 16.409 20.4483 17.1845 19.802 17.8308C19.1557 18.4771 18.3802 18.8002 17.4754 18.8002H13.6023C13.3097 18.8002 13.0291 18.9165 12.8222 19.1234C12.6153 19.3303 12.499 19.6109 12.499 19.9035V33.6562C12.499 35.2402 13.7831 36.5243 15.3672 36.5243H28.7942C28.7584 36.1591 28.788 35.7882 28.8827 35.4321H26.1007C24.4231 35.4321 23.0632 34.0722 23.0632 32.3946C23.0632 30.7171 24.4231 29.3571 26.1007 29.3571H28.8827C28.6237 28.3838 28.8522 27.3005 29.5682 26.5214C30.3073 25.7172 31.3748 25.4404 32.3398 25.6911V13.396C32.3398 11.8119 31.0557 10.5278 29.4717 10.5278ZM17.3722 23.113V26.3073H15.6847V23.113C15.6847 22.181 16.4402 21.4255 17.3722 21.4255H20.8942V23.113H17.3722ZM27.1559 26.3073H28.8434V23.113C28.8434 22.181 28.0879 21.4255 27.1559 21.4255H23.6339V23.113H27.1559V26.3073ZM17.3722 27.955H15.6847V31.1493C15.6847 32.0813 16.4402 32.8368 17.3722 32.8368H20.8942V31.1493H17.3722V27.955Z" fill="url(#paint2_linear_3169_8934)"/>
<path d="M30.7514 35.3208C30.2931 35.8195 30.2931 36.6274 30.7514 37.1261C31.2097 37.6248 31.9521 37.6248 32.4105 37.1261L35.9292 33.2973C36.3875 32.7986 36.3875 31.9908 35.9292 31.4921L32.4105 27.6633C31.9521 27.1646 31.2097 27.1646 30.7514 27.6633C30.2931 28.162 30.2931 28.9699 30.7514 29.4686L32.1999 31.0447H26.1596C25.414 31.0447 24.8096 31.6491 24.8096 32.3947C24.8096 33.1403 25.414 33.7447 26.1596 33.7447H32.1999L30.7514 35.3208Z" fill="url(#paint3_linear_3169_8934)"/>
</g>
</g>
<defs>
<linearGradient id="paint0_linear_3169_8934" x1="4.35187" y1="6.81281" x2="41.0633" y2="44.2441" gradientUnits="userSpaceOnUse">
<stop stop-color="white"/>
<stop offset="1" stop-color="#EAECEE"/>
</linearGradient>
<linearGradient id="paint1_linear_3169_8934" x1="15.1372" y1="13.1871" x2="18.7565" y2="16.8221" gradientUnits="userSpaceOnUse">
<stop stop-color="#1348FF"/>
<stop offset="1" stop-color="#06238D"/>
</linearGradient>
<linearGradient id="paint2_linear_3169_8934" x1="15.4732" y1="14.4154" x2="33.0326" y2="27.8216" gradientUnits="userSpaceOnUse">
<stop stop-color="#0195FF"/>
<stop offset="0.991028" stop-color="#1147E9"/>
</linearGradient>
<linearGradient id="paint3_linear_3169_8934" x1="26.5044" y1="28.7915" x2="33.5992" y2="36.7911" gradientUnits="userSpaceOnUse">
<stop stop-color="#1348FF"/>
<stop offset="1" stop-color="#06238D"/>
</linearGradient>
<clipPath id="clip0_3169_8934">
<rect width="47.9998" height="47.9998" fill="white" transform="translate(-0.000976562)"/>
</clipPath>
<clipPath id="clip1_3169_8934">
<rect width="27" height="27" fill="white" transform="translate(12.499 10.5)"/>
</clipPath>
</defs>
</svg>
