<svg width="48" height="48" viewBox="0 0 48 48" fill="none" xmlns="http://www.w3.org/2000/svg">
<g clip-path="url(#clip0_3169_8925)">
<circle cx="23.9994" cy="23.9999" r="23.5713" fill="url(#paint0_linear_3169_8925)" stroke="#D5DADD" stroke-width="0.857139"/>
<g clip-path="url(#clip1_3169_8925)">
<path d="M10.8379 24.889H10.8356L11.0767 22.2335L11.1076 21.8786L11.4331 21.7149L18.7716 18.0418L19.1128 17.8696L19.4355 18.0676L21.6368 19.4103L10.8379 24.889Z" fill="url(#paint1_linear_3169_8925)"/>
<path d="M25.3418 21.689L11.5752 28.5796L10.4995 29.1196L10.7196 26.6215L10.7511 26.2705L11.0743 26.1046L22.7777 20.1202L23.1049 20.3182L25.3418 21.689Z" fill="url(#paint2_linear_3169_8925)"/>
<path d="M22.7218 28.7764L23.7736 29.3586L24.9721 30.0257L25.2883 30.2001L37.0295 24.3293L37.3725 24.1572L37.3906 23.7848L37.4506 22.3499L37.4995 21.2288L22.7218 28.7764Z" fill="url(#paint3_linear_3169_8925)"/>
<path d="M26.5072 30.9184L36.2946 25.9887L37.3213 25.4701L37.27 26.5889L37.2077 27.9811L37.192 28.3512L36.8536 28.5233L29.2228 32.4209L28.9043 32.2443L27.5677 31.5063L26.5072 30.9184Z" fill="url(#paint4_linear_3169_8925)"/>
<path d="M23.1379 11.5084L23.1228 11.5V12.6728L23.1094 14.0093V14.3597L34.1553 21.3775L34.4808 21.5923L34.8262 21.4225L35.1203 21.2785L37.1853 20.2648L23.1379 11.5084Z" fill="url(#paint5_linear_3169_8925)"/>
<path d="M17.6667 27.1679L17.3481 26.9896L17.0226 27.1533L14.5719 28.3818L15.6301 28.9713L25.1414 34.252V31.3686L24.8094 31.1813L17.6667 27.1679Z" fill="url(#paint6_linear_3169_8925)"/>
<path d="M23.0583 15.7502H23.0472V16.9314L23.0338 18.4181V18.7736L23.3431 18.9649L30.2855 23.3012L30.6064 23.5009L30.9494 23.3332L32.237 22.6987L33.2707 22.1925L23.0583 15.7502Z" fill="url(#paint7_linear_3169_8925)"/>
<path d="M13.636 29.2272L13.3197 29.0534L12.9965 29.2142L10.6932 30.3741L10.6909 30.3786L24.1361 37.9363L25.1413 38.5V35.5688L24.8047 35.3843L13.636 29.2272Z" fill="url(#paint8_linear_3169_8925)"/>
</g>
</g>
<defs>
<linearGradient id="paint0_linear_3169_8925" x1="4.35236" y1="6.81281" x2="41.0638" y2="44.2441" gradientUnits="userSpaceOnUse">
<stop stop-color="white"/>
<stop offset="1" stop-color="#EAECEE"/>
</linearGradient>
<linearGradient id="paint1_linear_3169_8925" x1="14.4913" y1="20.0104" x2="22.9772" y2="35.8241" gradientUnits="userSpaceOnUse">
<stop stop-color="#1348FF"/>
<stop offset="1" stop-color="#06238D"/>
</linearGradient>
<linearGradient id="paint2_linear_3169_8925" x1="14.4913" y1="20.0104" x2="22.9772" y2="35.8241" gradientUnits="userSpaceOnUse">
<stop stop-color="#1348FF"/>
<stop offset="1" stop-color="#06238D"/>
</linearGradient>
<linearGradient id="paint3_linear_3169_8925" x1="14.4913" y1="20.0104" x2="22.9772" y2="35.8241" gradientUnits="userSpaceOnUse">
<stop stop-color="#1348FF"/>
<stop offset="1" stop-color="#06238D"/>
</linearGradient>
<linearGradient id="paint4_linear_3169_8925" x1="14.4913" y1="20.0104" x2="22.9772" y2="35.8241" gradientUnits="userSpaceOnUse">
<stop stop-color="#1348FF"/>
<stop offset="1" stop-color="#06238D"/>
</linearGradient>
<linearGradient id="paint5_linear_3169_8925" x1="14.6625" y1="15.5377" x2="33.5645" y2="34.0922" gradientUnits="userSpaceOnUse">
<stop stop-color="#0195FF"/>
<stop offset="0.991028" stop-color="#1147E9"/>
</linearGradient>
<linearGradient id="paint6_linear_3169_8925" x1="14.6625" y1="15.5377" x2="33.5645" y2="34.0922" gradientUnits="userSpaceOnUse">
<stop stop-color="#0195FF"/>
<stop offset="0.991028" stop-color="#1147E9"/>
</linearGradient>
<linearGradient id="paint7_linear_3169_8925" x1="14.6625" y1="15.5377" x2="33.5645" y2="34.0922" gradientUnits="userSpaceOnUse">
<stop stop-color="#0195FF"/>
<stop offset="0.991028" stop-color="#1147E9"/>
</linearGradient>
<linearGradient id="paint8_linear_3169_8925" x1="14.6625" y1="15.5377" x2="33.5645" y2="34.0922" gradientUnits="userSpaceOnUse">
<stop stop-color="#0195FF"/>
<stop offset="0.991028" stop-color="#1147E9"/>
</linearGradient>
<clipPath id="clip0_3169_8925">
<rect width="47.9998" height="47.9998" fill="white" transform="translate(-0.000488281)"/>
</clipPath>
<clipPath id="clip1_3169_8925">
<rect width="26.9999" height="26.9999" fill="white" transform="translate(10.4995 11.5)"/>
</clipPath>
</defs>
</svg>
