<svg width="48" height="48" viewBox="0 0 48 48" fill="none" xmlns="http://www.w3.org/2000/svg">
<g clip-path="url(#clip0_3169_8959)">
<circle cx="23.998" cy="23.9999" r="23.5713" fill="url(#paint0_linear_3169_8959)" stroke="#D5DADD" stroke-width="0.857139"/>
<g clip-path="url(#clip1_3169_8959)">
<path fill-rule="evenodd" clip-rule="evenodd" d="M21.6342 10.7592C22.4026 10.6234 23.1926 10.5527 23.998 10.5527C24.8035 10.5527 25.5935 10.6234 26.3619 10.7592C27.0961 10.889 27.5861 11.5894 27.4564 12.3236C27.3266 13.0578 26.6262 13.5478 25.892 13.418C25.278 13.3095 24.6452 13.2527 23.998 13.2527C23.3509 13.2527 22.7181 13.3095 22.1041 13.418C21.3699 13.5478 20.6695 13.0578 20.5397 12.3236C20.4099 11.5894 20.8999 10.889 21.6342 10.7592ZM29.8462 13.315C30.2734 12.704 31.1151 12.555 31.7261 12.9823C33.0266 13.8916 34.1592 15.0242 35.0685 16.3247C35.4958 16.9357 35.3468 17.7774 34.7358 18.2046C34.1248 18.6319 33.2831 18.4829 32.8558 17.8719C32.1276 16.8305 31.2203 15.9232 30.1789 15.195C29.5679 14.7677 29.4189 13.926 29.8462 13.315ZM18.1499 13.315C18.5772 13.926 18.4282 14.7677 17.8172 15.195C16.7758 15.9232 15.8685 16.8305 15.1403 17.8719C14.713 18.4829 13.8713 18.6319 13.2603 18.2046C12.6493 17.7774 12.5003 16.9357 12.9276 16.3247C13.8369 15.0242 14.9695 13.8916 16.2699 12.9823C16.881 12.555 17.7227 12.704 18.1499 13.315ZM35.7272 20.5944C36.4614 20.4646 37.1618 20.9546 37.2916 21.6889C37.4274 22.4573 37.498 23.2473 37.498 24.0527C37.498 24.8582 37.4274 25.6482 37.2916 26.4166C37.1618 27.1508 36.4614 27.6408 35.7272 27.5111C34.993 27.3813 34.503 26.6809 34.6328 25.9467C34.7413 25.3327 34.798 24.6999 34.798 24.0527C34.798 23.4056 34.7413 22.7728 34.6328 22.1588C34.503 21.4246 34.993 20.7242 35.7272 20.5944ZM12.2689 20.5944C13.0031 20.7242 13.4931 21.4246 13.3633 22.1588C13.2548 22.7728 13.198 23.4056 13.198 24.0527C13.198 24.6999 13.2548 25.3327 13.3633 25.9467C13.4931 26.6809 13.0031 27.3813 12.2689 27.5111C11.5347 27.6408 10.8343 27.1508 10.7045 26.4166C10.5687 25.6482 10.498 24.8582 10.498 24.0527C10.498 23.2473 10.5687 22.4573 10.7045 21.6889C10.8343 20.9546 11.5347 20.4646 12.2689 20.5944ZM34.7358 29.9009C35.3468 30.3281 35.4958 31.1698 35.0685 31.7808C34.1592 33.0813 33.0266 34.2139 31.7261 35.1232C31.1151 35.5505 30.2734 35.4015 29.8462 34.7905C29.4189 34.1795 29.5679 33.3378 30.1789 32.9105C31.2203 32.1823 32.1276 31.275 32.8558 30.2336C33.2831 29.6226 34.1248 29.4736 34.7358 29.9009ZM13.2603 29.9009C13.8713 29.4736 14.713 29.6226 15.1403 30.2336C15.8685 31.275 16.7758 32.1823 17.8172 32.9105C18.4282 33.3378 18.5772 34.1795 18.1499 34.7905C17.7227 35.4015 16.881 35.5505 16.2699 35.1232C14.9695 34.2139 13.8369 33.0813 12.9276 31.7808C12.5003 31.1698 12.6493 30.3281 13.2603 29.9009ZM20.5397 35.7819C20.6695 35.0477 21.3699 34.5577 22.1041 34.6875C22.7181 34.796 23.3509 34.8528 23.998 34.8528C24.6452 34.8528 25.278 34.796 25.892 34.6875C26.6262 34.5577 27.3266 35.0477 27.4564 35.7819C27.5861 36.5161 27.0961 37.2165 26.3619 37.3463C25.5935 37.4821 24.8035 37.5528 23.998 37.5528C23.1926 37.5528 22.4026 37.4821 21.6342 37.3463C20.8999 37.2165 20.4099 36.5161 20.5397 35.7819Z" fill="url(#paint1_linear_3169_8959)"/>
<path fill-rule="evenodd" clip-rule="evenodd" d="M17.3199 20.1146C17.3176 20.0778 17.3164 20.0405 17.3164 20.0026C17.3164 19.3025 17.7217 18.7789 18.1302 18.4385C18.5447 18.0932 19.083 17.8283 19.658 17.6256C20.8174 17.2171 22.3519 16.9836 23.9981 16.9836C25.6444 16.9836 27.1789 17.2171 28.3382 17.6256C28.9132 17.8283 29.4516 18.0932 29.866 18.4385C30.2746 18.7789 30.6799 19.3025 30.6799 20.0026C30.6799 20.0405 30.6787 20.0778 30.6764 20.1146C30.6787 20.1427 30.6799 20.1711 30.6799 20.1998V28.1028C30.6799 28.8029 30.2746 29.3266 29.866 29.667C29.4516 30.0123 28.9132 30.2772 28.3382 30.4798C27.1789 30.8883 25.6444 31.1218 23.9981 31.1218C22.3519 31.1218 20.8174 30.8883 19.658 30.4798C19.083 30.2772 18.5447 30.0123 18.1302 29.667C17.7217 29.3266 17.3164 28.8029 17.3164 28.1028V20.1998C17.3164 20.1711 17.3176 20.1427 17.3199 20.1146ZM19.3688 22.271V23.8789C19.3841 23.8956 19.4079 23.9191 19.4439 23.9491C19.6018 24.0806 19.8917 24.2451 20.3401 24.4031C21.2277 24.7158 22.5209 24.9284 23.9981 24.9284C25.4753 24.9284 26.7686 24.7158 27.6561 24.4031C28.1046 24.2451 28.3945 24.0806 28.5524 23.9491C28.5884 23.9191 28.6122 23.8956 28.6274 23.8789V22.271C28.5324 22.3091 28.4358 22.3453 28.3382 22.3796C27.1789 22.7881 25.6444 23.0216 23.9981 23.0216C22.3519 23.0216 20.8174 22.7881 19.658 22.3796C19.5604 22.3453 19.4639 22.3091 19.3688 22.271ZM28.6274 26.2302C28.5324 26.2683 28.4358 26.3045 28.3382 26.3389C27.1789 26.7474 25.6444 26.9809 23.9981 26.9809C22.3519 26.9809 20.8174 26.7474 19.658 26.3389C19.5604 26.3045 19.4639 26.2683 19.3688 26.2302V28.0199C19.3841 28.0366 19.4079 28.06 19.4439 28.09C19.6018 28.2216 19.8917 28.386 20.3401 28.544C21.2277 28.8568 22.5209 29.0694 23.9981 29.0694C25.4753 29.0694 26.7686 28.8568 27.6561 28.544C28.1046 28.386 28.3945 28.2216 28.5524 28.09C28.5884 28.06 28.6122 28.0366 28.6274 28.0199V26.2302Z" fill="url(#paint2_linear_3169_8959)"/>
</g>
</g>
<defs>
<linearGradient id="paint0_linear_3169_8959" x1="4.3509" y1="6.81281" x2="41.0624" y2="44.2441" gradientUnits="userSpaceOnUse">
<stop stop-color="white"/>
<stop offset="1" stop-color="#EAECEE"/>
</linearGradient>
<linearGradient id="paint1_linear_3169_8959" x1="14.5455" y1="14.5904" x2="33.4508" y2="33.5023" gradientUnits="userSpaceOnUse">
<stop stop-color="#0195FF"/>
<stop offset="0.991028" stop-color="#1147E9"/>
</linearGradient>
<linearGradient id="paint2_linear_3169_8959" x1="19.2921" y1="19.0637" x2="29.1733" y2="28.4437" gradientUnits="userSpaceOnUse">
<stop stop-color="#1348FF"/>
<stop offset="1" stop-color="#06238D"/>
</linearGradient>
<clipPath id="clip0_3169_8959">
<rect width="47.9998" height="47.9998" fill="white" transform="translate(-0.00195312)"/>
</clipPath>
<clipPath id="clip1_3169_8959">
<rect width="27" height="27" fill="white" transform="translate(10.498 10.5)"/>
</clipPath>
</defs>
</svg>
