<svg width="48" height="48" viewBox="0 0 48 48" fill="none" xmlns="http://www.w3.org/2000/svg">
<g clip-path="url(#clip0_3169_8943)">
<circle cx="23.9989" cy="23.9999" r="23.5713" fill="url(#paint0_linear_3169_8943)" stroke="#D5DADD" stroke-width="0.857139"/>
<g clip-path="url(#clip1_3169_8943)">
<path d="M16.6708 19.7812H13.2958C13.0721 19.7812 12.8575 19.6923 12.6992 19.5341C12.541 19.3759 12.4521 19.1613 12.4521 18.9375C12.4521 18.7137 12.541 18.4991 12.6992 18.3409C12.8575 18.1826 13.0721 18.0938 13.2958 18.0938H16.6708C16.8946 18.0938 17.1092 18.1826 17.2674 18.3409C17.4257 18.4991 17.5146 18.7137 17.5146 18.9375C17.5146 19.1613 17.4257 19.3759 17.2674 19.5341C17.1092 19.6923 16.8946 19.7812 16.6708 19.7812Z" fill="url(#paint1_linear_3169_8943)"/>
<path d="M14.9834 24.8437H11.6084C11.3846 24.8437 11.17 24.7548 11.0118 24.5966C10.8535 24.4384 10.7646 24.2238 10.7646 24C10.7646 23.7762 10.8535 23.5616 11.0118 23.4034C11.17 23.2451 11.3846 23.1562 11.6084 23.1562H14.9834C15.2072 23.1562 15.4218 23.2451 15.58 23.4034C15.7382 23.5616 15.8271 23.7762 15.8271 24C15.8271 24.2238 15.7382 24.4384 15.58 24.5966C15.4218 24.7548 15.2072 24.8437 14.9834 24.8437Z" fill="url(#paint2_linear_3169_8943)"/>
<path d="M14.9546 29.9062H16.6708C16.8946 29.9062 17.1092 29.8173 17.2674 29.6591C17.4257 29.5008 17.5146 29.2862 17.5146 29.0625C17.5146 28.8387 17.4257 28.6241 17.2674 28.4658C17.1092 28.3076 16.8946 28.2187 16.6708 28.2187H14.9546C14.7309 28.2187 14.5163 28.3076 14.358 28.4658C14.1998 28.6241 14.1109 28.8387 14.1109 29.0625C14.1109 29.2862 14.1998 29.5008 14.358 29.6591C14.5163 29.8173 14.7309 29.9062 14.9546 29.9062Z" fill="url(#paint3_linear_3169_8943)"/>
<path fill-rule="evenodd" clip-rule="evenodd" d="M18.7819 21.4689H19.8889L20.3648 20.3282L19.5734 19.5368C19.3424 19.2905 19.2149 18.9648 19.2173 18.6272C19.2138 18.4654 19.2437 18.3046 19.3049 18.1549C19.3662 18.0051 19.4575 17.8695 19.5734 17.7565L21.3857 15.9323C21.4987 15.8164 21.6344 15.7251 21.7841 15.6638C21.9339 15.6026 22.0947 15.5728 22.2565 15.5762C22.4244 15.5704 22.5916 15.599 22.7481 15.6602C22.9045 15.7215 23.0467 15.814 23.166 15.9323L23.9558 16.7237L25.1033 16.2478V15.1408C25.0966 14.9729 25.1248 14.8053 25.1861 14.6488C25.2473 14.4922 25.3403 14.35 25.4592 14.2311C25.5781 14.1122 25.7203 14.0193 25.8768 13.958C26.0334 13.8968 26.2009 13.8686 26.3689 13.8752H28.9001C29.0681 13.8686 29.2357 13.8968 29.3922 13.958C29.5488 14.0193 29.691 14.1122 29.8099 14.2311C29.9287 14.35 30.0217 14.4922 30.083 14.6488C30.1442 14.8053 30.1724 14.9729 30.1658 15.1408V16.2478L31.3133 16.7237L32.1047 15.9323C32.2238 15.8137 32.366 15.7209 32.5225 15.6597C32.6789 15.5984 32.8463 15.57 33.0143 15.5762C33.1758 15.573 33.3362 15.6029 33.4857 15.6642C33.6352 15.7254 33.7705 15.8167 33.8833 15.9323L35.7176 17.7514C35.8334 17.8644 35.9248 18 35.9861 18.1498C36.0473 18.2996 36.0771 18.4604 36.0737 18.6221C36.076 18.9598 35.9486 19.2854 35.7176 19.5317L34.9279 20.3231L35.4021 21.4689H36.4989C36.6669 21.4623 36.8345 21.4905 36.991 21.5517C37.1476 21.613 37.2898 21.706 37.4086 21.8248C37.5275 21.9437 37.6205 22.0859 37.6818 22.2425C37.743 22.399 37.7712 22.5666 37.7645 22.7346V25.2658C37.7682 25.4298 37.7396 25.5928 37.6802 25.7457C37.6208 25.8986 37.532 26.0383 37.4186 26.1568C37.3021 26.28 37.1608 26.377 37.004 26.4416C36.8472 26.5062 36.6785 26.5368 36.5091 26.5314H35.4021L34.9194 27.6722L35.7092 28.4636C35.9377 28.7036 36.0652 29.0223 36.0652 29.3538C36.0652 29.6852 35.9377 30.0039 35.7092 30.2439L33.8901 32.0765C33.7772 32.1921 33.6419 32.2834 33.4924 32.3446C33.343 32.4059 33.1825 32.4358 33.021 32.4326C32.8531 32.4388 32.6857 32.4104 32.5292 32.3491C32.3727 32.2879 32.2305 32.1951 32.1114 32.0765L31.32 31.2463L30.1725 31.7525V32.8612C30.1746 33.0256 30.1443 33.1888 30.0832 33.3414C30.0221 33.494 29.9314 33.633 29.8165 33.7505C29.6999 33.8737 29.5586 33.9708 29.4018 34.0353C29.2451 34.0999 29.0764 34.1305 28.9069 34.1251H26.3757C26.2062 34.1293 26.0379 34.0974 25.8816 34.0317C25.7254 33.9659 25.585 33.8678 25.4695 33.7438C25.3545 33.6263 25.2639 33.4872 25.2028 33.3346C25.1417 33.182 25.1113 33.0188 25.1134 32.8545V31.7458L23.9659 31.2395L23.1762 32.0698C23.0568 32.188 22.9146 32.2806 22.7582 32.3418C22.6018 32.403 22.4345 32.4316 22.2666 32.4258C22.1048 32.4293 21.944 32.3995 21.7943 32.3382C21.6445 32.277 21.5089 32.1856 21.3959 32.0698L19.5717 30.2507C19.3432 30.0106 19.2157 29.6919 19.2157 29.3605C19.2157 29.0291 19.3432 28.7104 19.5717 28.4704L20.3631 27.6789L19.8872 26.5314H18.7802C18.6108 26.5369 18.442 26.5063 18.2852 26.4418C18.1285 26.3772 17.9872 26.2801 17.8707 26.1568C17.7555 26.0391 17.6648 25.8998 17.6037 25.7469C17.5426 25.5939 17.5123 25.4305 17.5146 25.2658V22.7346C17.508 22.5664 17.5362 22.3987 17.5975 22.2421C17.6589 22.0854 17.752 21.9431 17.8711 21.8242C17.9902 21.7053 18.1326 21.6123 18.2893 21.5512C18.4461 21.4901 18.6138 21.4621 18.7819 21.4689ZM25.1961 27.2352C25.2974 27.3265 25.4293 27.3765 25.5657 27.3753C25.6639 27.374 25.7604 27.3498 25.8475 27.3044L31.5073 24.5622C31.5921 24.5154 31.6628 24.4468 31.712 24.3634C31.7612 24.28 31.7872 24.1849 31.7872 24.0881C31.7872 23.9912 31.7612 23.8962 31.712 23.8128C31.6628 23.7294 31.5921 23.6607 31.5073 23.6139L25.8475 20.6962C25.7604 20.6509 25.6639 20.6266 25.5657 20.6253C25.4965 20.6251 25.428 20.6391 25.3645 20.6664C25.3009 20.6936 25.2436 20.7337 25.1961 20.7839C25.1437 20.8369 25.1025 20.8999 25.0753 20.9693C25.048 21.0386 25.0351 21.1128 25.0375 21.1873V26.8488C25.0341 26.9209 25.0466 26.9928 25.074 27.0596C25.1014 27.1263 25.1431 27.1863 25.1961 27.2352Z" fill="url(#paint4_linear_3169_8943)"/>
</g>
</g>
<defs>
<linearGradient id="paint0_linear_3169_8943" x1="4.35187" y1="6.81281" x2="41.0633" y2="44.2441" gradientUnits="userSpaceOnUse">
<stop stop-color="white"/>
<stop offset="1" stop-color="#EAECEE"/>
</linearGradient>
<linearGradient id="paint1_linear_3169_8943" x1="11.7626" y1="19.8316" x2="18.9004" y2="23.9279" gradientUnits="userSpaceOnUse">
<stop stop-color="#1348FF"/>
<stop offset="1" stop-color="#06238D"/>
</linearGradient>
<linearGradient id="paint2_linear_3169_8943" x1="11.7626" y1="19.8316" x2="18.9004" y2="23.9279" gradientUnits="userSpaceOnUse">
<stop stop-color="#1348FF"/>
<stop offset="1" stop-color="#06238D"/>
</linearGradient>
<linearGradient id="paint3_linear_3169_8943" x1="11.7626" y1="19.8316" x2="18.9004" y2="23.9279" gradientUnits="userSpaceOnUse">
<stop stop-color="#1348FF"/>
<stop offset="1" stop-color="#06238D"/>
</linearGradient>
<linearGradient id="paint4_linear_3169_8943" x1="20.5495" y1="16.9028" x2="34.7295" y2="31.0879" gradientUnits="userSpaceOnUse">
<stop stop-color="#0195FF"/>
<stop offset="0.991028" stop-color="#1147E9"/>
</linearGradient>
<clipPath id="clip0_3169_8943">
<rect width="47.9998" height="47.9998" fill="white" transform="translate(-0.000976562)"/>
</clipPath>
<clipPath id="clip1_3169_8943">
<rect width="26.9999" height="26.9999" fill="white" transform="translate(10.7651 10.5)"/>
</clipPath>
</defs>
</svg>
