<svg width="48" height="48" viewBox="0 0 48 48" fill="none" xmlns="http://www.w3.org/2000/svg">
<g clip-path="url(#clip0_3169_8973)">
<circle cx="23.9994" cy="23.9999" r="23.5713" fill="url(#paint0_linear_3169_8973)" stroke="#D5DADD" stroke-width="0.857139"/>
<path d="M38.0915 23.2428C38.3262 23.8359 38.4467 24.468 38.4467 25.1058V27.2312C38.4467 28.1452 38.1654 28.9714 37.6029 29.7097C37.0756 30.4479 36.3549 30.9226 35.4408 31.1335C35.6166 31.5905 35.7045 32.0827 35.7045 32.61C35.7045 33.7702 35.3178 34.737 34.5444 35.5104C33.7709 36.2839 32.8217 36.6706 31.6967 36.6706C30.5366 36.6706 29.5698 36.2839 28.7963 35.5104C28.0229 34.737 27.6362 33.7702 27.6362 32.61C27.6362 32.153 27.7241 31.696 27.8999 31.239H22.0991C22.1694 31.4499 22.2221 31.6608 22.2573 31.8718C22.3276 32.0827 22.3628 32.3288 22.3628 32.61C22.3628 33.7702 21.9585 34.737 21.1499 35.5104C20.3764 36.2839 19.4272 36.6706 18.3022 36.6706C17.1421 36.6706 16.1753 36.2839 15.4019 35.5104C14.6284 34.737 14.2417 33.7702 14.2417 32.61C14.2417 32.3288 14.2593 32.0651 14.2944 31.819C14.3647 31.5729 14.4351 31.3444 14.5054 31.1335C13.6265 30.9226 12.9058 30.4479 12.3433 29.7097C11.8159 28.9714 11.5523 28.1452 11.5523 27.2312L11.5522 25.3249C11.5522 24.5822 12.1543 23.9801 12.897 23.9801L-nan -nanL-nan -nanL12.897 23.9801C13.6396 23.9801 14.2417 24.5822 14.2417 25.3248V27.2312C14.2417 28.1101 14.6987 28.5495 15.6128 28.5495H34.4916C35.4057 28.5495 35.8627 28.1101 35.8627 27.2312V25.8601H29.1127C28.726 25.8601 28.392 25.737 28.1108 25.4909C27.8647 25.2448 27.7417 24.9109 27.7417 24.489V17.739C27.7417 16.6316 28.624 16.4207 30.1674 16.4207H34.4916C34.7729 16.4207 35.019 16.491 35.2299 16.6316C35.476 16.7371 35.6342 16.9304 35.7045 17.2117L38.0915 23.2428ZM19.6733 32.61C19.6733 32.2233 19.5327 31.9069 19.2515 31.6608C19.0054 31.3796 18.689 31.239 18.3022 31.239C17.9155 31.239 17.5815 31.3796 17.3003 31.6608C17.0542 31.9069 16.9311 32.2233 16.9311 32.61C16.9311 32.9968 17.0542 33.3307 17.3003 33.612C17.5815 33.8581 17.9155 33.9811 18.3022 33.9811C18.689 33.9811 19.0054 33.8581 19.2515 33.612C19.5327 33.3307 19.6733 32.9968 19.6733 32.61ZM31.8022 33.9811C32.2241 33.9811 32.558 33.8581 32.8041 33.612C33.0502 33.3307 33.1733 32.9968 33.1733 32.61C33.1733 32.2233 33.0502 31.9069 32.8041 31.6608C32.558 31.3796 32.2241 31.239 31.8022 31.239C31.4155 31.239 31.0991 31.3796 30.853 31.6608C30.6069 31.9069 30.4838 32.2233 30.4838 32.61C30.4838 32.9968 30.6069 33.3307 30.853 33.612C31.0991 33.8581 31.4155 33.9811 31.8022 33.9811Z" fill="url(#paint1_linear_3169_8973)"/>
<path fill-rule="evenodd" clip-rule="evenodd" d="M14.2465 15.0738C14.5007 13.2484 16.0268 11.5 18.1747 11.5C19.8835 11.5 21.1628 12.4585 21.852 13.8837C23.5713 14.0461 24.9995 15.5817 24.9995 17.58C24.9995 19.9419 23.1165 21.3804 21.1207 21.2693H14.6801C13.7182 21.2693 12.9012 20.9701 12.3257 20.3796C11.7541 19.793 11.4995 18.9997 11.4995 18.1604C11.4995 17.2572 11.8306 16.4008 12.4716 15.8107C12.9455 15.3746 13.5555 15.1149 14.2465 15.0738Z" fill="url(#paint2_linear_3169_8973)"/>
</g>
<defs>
<linearGradient id="paint0_linear_3169_8973" x1="4.35236" y1="6.81281" x2="41.0638" y2="44.2441" gradientUnits="userSpaceOnUse">
<stop stop-color="white"/>
<stop offset="1" stop-color="#EAECEE"/>
</linearGradient>
<linearGradient id="paint1_linear_3169_8973" x1="15.5838" y1="19.4489" x2="29.2091" y2="37.5513" gradientUnits="userSpaceOnUse">
<stop stop-color="#0195FF"/>
<stop offset="0.991028" stop-color="#1147E9"/>
</linearGradient>
<linearGradient id="paint2_linear_3169_8973" x1="13.5199" y1="12.9666" x2="20.0241" y2="21.9428" gradientUnits="userSpaceOnUse">
<stop stop-color="#00BBFF"/>
<stop offset="1" stop-color="#008BFF"/>
</linearGradient>
<clipPath id="clip0_3169_8973">
<rect width="47.9998" height="47.9998" fill="white" transform="translate(-0.000488281)"/>
</clipPath>
</defs>
</svg>
