<svg width="48" height="48" viewBox="0 0 48 48" fill="none" xmlns="http://www.w3.org/2000/svg">
<g clip-path="url(#clip0_3169_9501)">
<circle cx="23.9997" cy="24.4062" r="23.5713" fill="url(#paint0_linear_3169_9501)" stroke="#D5DADD" stroke-width="0.85714"/>
<g clip-path="url(#clip1_3169_9501)">
<path d="M19.5462 15.1488V12.2124L14.3745 17.384H17.311C17.9245 17.384 18.4505 17.1649 18.8888 16.7266C19.327 16.2884 19.5462 15.7624 19.5462 15.1488Z" fill="url(#paint1_linear_3169_9501)"/>
<path d="M29.4734 10.314H21.8764C21.5838 10.314 21.3031 10.4302 21.0962 10.6371C20.8893 10.844 20.7731 11.1246 20.7731 11.4172V15.2903C20.7731 16.1951 20.45 16.9706 19.8037 17.6169C19.1574 18.2632 18.3819 18.5863 17.4771 18.5863H13.604C13.3114 18.5863 13.0308 18.7026 12.8239 18.9095C12.617 19.1164 12.5007 19.397 12.5007 19.6896V33.4423C12.5007 35.0263 13.7848 36.3104 15.3689 36.3104H29.4734C30.8591 36.3104 32.0152 35.3277 32.283 34.0212C31.5287 34.2718 30.7225 34.4074 29.8864 34.4074C25.6907 34.4074 22.2894 31.0062 22.2894 26.8105C22.2894 22.6148 25.6907 19.2136 29.8864 19.2136C30.7455 19.2136 31.5713 19.3562 32.3415 19.619V13.1821C32.3415 11.5981 31.0574 10.314 29.4734 10.314Z" fill="url(#paint2_linear_3169_9501)"/>
<path d="M32.3415 21.4336C31.5938 21.0916 30.7623 20.9011 29.8864 20.9011C26.6227 20.9011 23.9769 23.5468 23.9769 26.8105C23.9769 30.0742 26.6227 32.72 29.8864 32.72C30.7623 32.72 31.5938 32.5294 32.3415 32.1874V28.8778C31.7527 29.5762 30.8714 30.02 29.8864 30.02C28.1139 30.02 26.6769 28.583 26.6769 26.8105C26.6769 25.038 28.1139 23.601 29.8864 23.601C30.8714 23.601 31.7527 24.0448 32.3415 24.7432V21.4336Z" fill="url(#paint3_linear_3169_9501)"/>
<path fill-rule="evenodd" clip-rule="evenodd" d="M33.096 26.8106C33.096 28.5831 31.659 30.02 29.8865 30.02C28.114 30.02 26.677 28.5831 26.677 26.8106C26.677 25.038 28.114 23.6011 29.8865 23.6011C31.659 23.6011 33.096 25.038 33.096 26.8106ZM32.8913 31.9001C32.0109 32.421 30.9836 32.72 29.8865 32.72C26.6228 32.72 23.9771 30.0743 23.9771 26.8106C23.9771 23.5469 26.6228 20.9011 29.8865 20.9011C33.1502 20.9011 35.7959 23.5469 35.7959 26.8106C35.7959 27.9989 35.4452 29.1053 34.8415 30.0319L38.8155 34.0059C39.3427 34.5331 39.3427 35.3878 38.8155 35.915C38.2883 36.4423 37.4335 36.4423 36.9063 35.915L32.8913 31.9001Z" fill="url(#paint4_linear_3169_9501)"/>
</g>
</g>
<defs>
<linearGradient id="paint0_linear_3169_9501" x1="4.35261" y1="7.21907" x2="41.0641" y2="44.6504" gradientUnits="userSpaceOnUse">
<stop stop-color="white"/>
<stop offset="1" stop-color="#EAECEE"/>
</linearGradient>
<linearGradient id="paint1_linear_3169_9501" x1="15.1391" y1="12.9733" x2="18.7585" y2="16.6082" gradientUnits="userSpaceOnUse">
<stop stop-color="#1348FF"/>
<stop offset="1" stop-color="#06238D"/>
</linearGradient>
<linearGradient id="paint2_linear_3169_9501" x1="15.4749" y1="14.2016" x2="33.0342" y2="27.6076" gradientUnits="userSpaceOnUse">
<stop stop-color="#0195FF"/>
<stop offset="0.991028" stop-color="#1147E9"/>
</linearGradient>
<linearGradient id="paint3_linear_3169_9501" x1="15.4749" y1="14.2016" x2="33.0342" y2="27.6076" gradientUnits="userSpaceOnUse">
<stop stop-color="#0195FF"/>
<stop offset="0.991028" stop-color="#1147E9"/>
</linearGradient>
<linearGradient id="paint4_linear_3169_9501" x1="26.2293" y1="23.1682" x2="37.0132" y2="33.8753" gradientUnits="userSpaceOnUse">
<stop stop-color="#1348FF"/>
<stop offset="1" stop-color="#06238D"/>
</linearGradient>
<clipPath id="clip0_3169_9501">
<rect width="47.9998" height="47.9998" fill="white" transform="translate(-0.000244141)"/>
</clipPath>
<clipPath id="clip1_3169_9501">
<rect width="26.9999" height="26.9999" fill="white" transform="translate(12.4998 9.5)"/>
</clipPath>
</defs>
</svg>
