<svg width="48" height="48" viewBox="0 0 48 48" fill="none" xmlns="http://www.w3.org/2000/svg">
<g clip-path="url(#clip0_3169_8966)">
<circle cx="23.9997" cy="23.9999" r="23.5713" fill="url(#paint0_linear_3169_8966)" stroke="#D5DADD" stroke-width="0.857139"/>
<g clip-path="url(#clip1_3169_8966)">
<path d="M16.5822 20.0837C16.2905 16.2085 19.3959 12 23.8325 12C27.2692 12 29.7911 14.0834 30.9947 17.3167C34.333 17.0835 37.4998 19.9232 37.4998 24.0005C37.4998 26.4638 36.3879 28.3644 34.75 29.4941C34.7522 29.4109 34.7533 29.3273 34.7533 29.2436C34.7533 23.9422 30.4556 19.6446 25.1542 19.6446C19.8528 19.6446 15.5552 23.9422 15.5552 29.2436C15.5552 29.719 15.5898 30.1864 15.6565 30.6433C12.2552 30.502 10.4998 28.3159 10.4998 25.2994C10.4998 22.0255 12.891 19.4417 16.5822 20.0837Z" fill="url(#paint1_linear_3169_8966)"/>
<path d="M32.989 30.3497C33.0396 29.9882 33.0658 29.619 33.0658 29.2436C33.0658 24.8742 29.5236 21.3321 25.1542 21.3321C20.7848 21.3321 17.2427 24.8742 17.2427 29.2436C17.2427 29.7238 17.2855 30.194 17.3674 30.6506H19.3698C19.2604 30.1995 19.2025 29.7283 19.2025 29.2436C19.2025 25.9566 21.8672 23.2919 25.1542 23.2919C28.4413 23.2919 31.1059 25.9566 31.1059 29.2436C31.1059 29.7332 31.0468 30.2089 30.9353 30.6641C31.6432 30.662 32.3355 30.5545 32.989 30.3497Z" fill="url(#paint2_linear_3169_8966)"/>
<path d="M29.1809 30.6506C29.3348 30.2101 29.4184 29.7366 29.4184 29.2436C29.4184 26.8885 27.5093 24.9794 25.1542 24.9794C22.7992 24.9794 20.89 26.8885 20.89 29.2436C20.89 29.7366 20.9737 30.2101 21.1276 30.6506H29.1809Z" fill="url(#paint3_linear_3169_8966)"/>
<path fill-rule="evenodd" clip-rule="evenodd" d="M25.1542 23.2918C21.8672 23.2918 19.2025 25.9565 19.2025 29.2436C19.2025 32.5306 21.8672 35.1953 25.1542 35.1953C28.4412 35.1953 31.1059 32.5306 31.1059 29.2436C31.1059 25.9565 28.4412 23.2918 25.1542 23.2918ZM17.2427 29.2436C17.2427 24.8741 20.7848 21.332 25.1542 21.332C29.5236 21.332 33.0657 24.8741 33.0657 29.2436C33.0657 33.613 29.5236 37.1551 25.1542 37.1551C20.7848 37.1551 17.2427 33.613 17.2427 29.2436Z" fill="url(#paint4_linear_3169_8966)"/>
</g>
</g>
<defs>
<linearGradient id="paint0_linear_3169_8966" x1="4.35261" y1="6.81281" x2="41.0641" y2="44.2441" gradientUnits="userSpaceOnUse">
<stop stop-color="white"/>
<stop offset="1" stop-color="#EAECEE"/>
</linearGradient>
<linearGradient id="paint1_linear_3169_8966" x1="14.5472" y1="14.7911" x2="26.7713" y2="32.481" gradientUnits="userSpaceOnUse">
<stop stop-color="#0195FF"/>
<stop offset="0.991028" stop-color="#1147E9"/>
</linearGradient>
<linearGradient id="paint2_linear_3169_8966" x1="14.5472" y1="14.7911" x2="26.7713" y2="32.481" gradientUnits="userSpaceOnUse">
<stop stop-color="#0195FF"/>
<stop offset="0.991028" stop-color="#1147E9"/>
</linearGradient>
<linearGradient id="paint3_linear_3169_8966" x1="14.5472" y1="14.7911" x2="26.7713" y2="32.481" gradientUnits="userSpaceOnUse">
<stop stop-color="#0195FF"/>
<stop offset="0.991028" stop-color="#1147E9"/>
</linearGradient>
<linearGradient id="paint4_linear_3169_8966" x1="19.6107" y1="23.706" x2="30.69" y2="34.7775" gradientUnits="userSpaceOnUse">
<stop stop-color="#00BBFF"/>
<stop offset="1" stop-color="#008BFF"/>
</linearGradient>
<clipPath id="clip0_3169_8966">
<rect width="47.9998" height="47.9998" fill="white" transform="translate(-0.000244141)"/>
</clipPath>
<clipPath id="clip1_3169_8966">
<rect width="27" height="27" fill="white" transform="translate(10.4998 12)"/>
</clipPath>
</defs>
</svg>
