<svg width="48" height="48" viewBox="0 0 48 48" fill="none" xmlns="http://www.w3.org/2000/svg">
<g clip-path="url(#clip0_3169_8982)">
<circle cx="23.9989" cy="23.9999" r="23.5713" fill="url(#paint0_linear_3169_8982)" stroke="#D5DADD" stroke-width="0.857139"/>
<g clip-path="url(#clip1_3169_8982)">
<path d="M22.2132 12.8657C18.9168 12.8657 16.5747 15.549 16.1845 18.3504C15.1241 18.4136 14.1878 18.8121 13.4606 19.4814C12.4769 20.3869 11.9688 21.7013 11.9688 23.0874C11.9688 24.3755 12.3595 25.593 13.2367 26.4932C14.1199 27.3995 15.3737 27.8586 16.85 27.8586H19.3739C19.38 27.8515 19.3861 27.8444 19.3923 27.8373L19.8709 27.2114L19.8936 27.1842C20.3011 26.6952 20.9105 26.3453 21.6534 26.3453C22.1085 26.3453 22.5442 26.4786 22.9189 26.7313C22.9643 26.7072 23.01 26.6837 23.0559 26.6607L23.0655 26.5223L23.0789 26.4421C23.1578 25.9683 23.3725 25.5108 23.7433 25.1401C24.1277 24.7557 24.6801 24.4527 25.3614 24.4527H26.1725C26.7551 24.4527 27.3461 24.6665 27.7915 25.1371C28.1783 25.5014 28.4363 25.9994 28.4734 26.5754C28.5289 26.6004 28.5841 26.6261 28.6391 26.6526L28.6931 26.615L28.7419 26.5858C28.8413 26.5261 28.9588 26.4636 29.0924 26.4078L29.0831 26.3581L29.0919 26.1783C29.1054 25.9051 29.1848 25.6051 29.3802 25.3335C29.5752 25.0624 29.8333 24.8923 30.0855 24.7923L30.15 24.7667L30.2349 24.7449C30.2408 24.7183 30.247 24.6919 30.2535 24.6655L30.1938 24.6056L30.1762 24.5861C29.9179 24.3011 29.8346 23.9552 29.7992 23.7765L29.7728 23.6434L29.7795 23.5077C29.7948 23.196 29.9013 22.8344 30.1847 22.5404L30.5173 22.1472L30.5329 22.1302C30.8147 21.8241 31.2237 21.6152 31.7087 21.6391C32.0058 21.6538 32.2859 21.7548 32.5224 21.9318C32.5529 21.9176 32.5834 21.9037 32.6142 21.8901L32.6248 21.8001L32.6361 21.7482C32.6439 21.7126 32.6528 21.6773 32.6629 21.6423C32.4173 18.8496 30.334 16.758 27.8567 16.524C26.799 14.3368 24.8357 12.8657 22.2132 12.8657Z" fill="url(#paint1_linear_3169_8982)"/>
<path fill-rule="evenodd" clip-rule="evenodd" d="M38.0092 26.1119C38.19 26.2051 38.2754 26.3525 38.2655 26.5542L38.263 26.6047L38.1109 27.1279C38.0497 27.344 37.9098 27.4466 37.6913 27.4359L37.6409 27.4334L36.8402 27.2676C36.6732 27.5795 36.415 27.8617 36.0656 28.114L36.3259 28.9862C36.3411 29.0207 36.3474 29.0631 36.3449 29.1135C36.335 29.3152 36.2527 29.446 36.0981 29.5058L35.6066 29.7343C35.5378 29.7646 35.4865 29.779 35.4529 29.7773C35.3016 29.7699 35.1877 29.6884 35.1111 29.533L34.673 28.6773C34.5881 28.69 34.4948 28.7023 34.3931 28.7141L34.1158 28.7005L33.8636 28.688C33.7972 28.6679 33.7224 28.6474 33.6392 28.6264L33.0927 29.4589C33.002 29.5892 32.8895 29.6511 32.755 29.6444C32.6709 29.6403 32.6129 29.6206 32.581 29.5853L32.1131 29.3348C31.9651 29.2601 31.8953 29.1387 31.9035 28.9706C31.9068 28.9034 31.9177 28.8534 31.9362 28.8206L32.281 27.9782C31.9892 27.7448 31.7595 27.447 31.592 27.0849L30.7285 27.1688L30.6781 27.1663C30.4596 27.1556 30.3305 27.0397 30.2908 26.8187L30.1908 26.283L30.1933 26.2325C30.2032 26.0308 30.3027 25.8925 30.4917 25.8176L31.2341 25.6266L31.2391 25.5258C31.2598 25.1056 31.3545 24.7227 31.5231 24.3771L30.9933 23.8455C30.9453 23.7926 30.9078 23.6981 30.8809 23.562C30.8866 23.4443 30.9248 23.3535 30.9954 23.2896L31.3443 22.8771C31.4333 22.7804 31.5366 22.7349 31.6543 22.7407C31.7383 22.7448 31.8127 22.7738 31.8775 22.8275L32.4375 23.2595C32.8046 22.9911 33.2011 22.8084 33.6272 22.7115L33.7136 21.9828C33.7354 21.8827 33.7815 21.8008 33.8521 21.7368C33.9403 21.6569 34.0348 21.6194 34.1357 21.6244L34.6651 21.6505C34.7828 21.6563 34.8732 21.7029 34.9363 21.7902C35.017 21.8616 35.0549 21.9477 35.0499 22.0486L35.0656 22.757C35.4809 22.8786 35.8752 23.0834 36.2486 23.3713L36.8483 22.9965C36.9349 22.9502 37.0118 22.9287 37.079 22.932C37.2135 22.9386 37.3118 22.994 37.3741 23.0982L37.6808 23.543C37.7447 23.6135 37.7738 23.7076 37.768 23.8253C37.763 23.9261 37.7164 24.0165 37.6283 24.0964L37.0991 24.5759C37.1741 24.7649 37.2234 24.9611 37.2471 25.1645C37.2876 25.3687 37.302 25.5885 37.2904 25.8238L37.2892 25.849L38.0092 26.1119ZM32.9684 26.8494C32.6488 26.4967 32.501 26.0766 32.525 25.5891C32.549 25.1016 32.7374 24.6981 33.0901 24.3785C33.4429 24.0588 33.863 23.911 34.3504 23.935C34.8379 23.959 35.2415 24.1474 35.5611 24.5001C35.8807 24.8529 36.0285 25.273 36.0045 25.7605C35.9805 26.2479 35.7922 26.6515 35.4394 26.9711C35.0867 27.2907 34.6666 27.4386 34.1791 27.4145C33.6916 27.3905 33.2881 27.2022 32.9684 26.8494Z" fill="url(#paint2_linear_3169_8982)"/>
<path fill-rule="evenodd" clip-rule="evenodd" d="M31.6185 32.7063C31.9018 32.835 32.0434 33.0539 32.0434 33.3629V33.4401L31.8503 34.2513C31.773 34.586 31.567 34.7534 31.2323 34.7534H31.155L29.9191 34.5602C29.6873 35.0495 29.3139 35.5001 28.7989 35.9121L29.2624 37.2253C29.2882 37.2768 29.3011 37.3412 29.3011 37.4184C29.3011 37.7274 29.1852 37.9334 28.9534 38.0364L28.2196 38.4227C28.1166 38.4742 28.0393 38.4999 27.9878 38.4999C27.7561 38.4999 27.5758 38.3841 27.4471 38.1523L26.7132 36.8777C26.5845 36.9035 26.4429 36.9292 26.2884 36.955H25.8635H25.4773C25.3743 36.9292 25.2584 36.9035 25.1296 36.8777L24.3571 38.1909C24.2284 38.3969 24.061 38.4999 23.855 38.4999C23.7263 38.4999 23.6362 38.4742 23.5847 38.4227L22.8508 38.0751C22.619 37.9721 22.5032 37.7918 22.5032 37.5343C22.5032 37.4313 22.516 37.3541 22.5418 37.3026L23.0053 35.9893C22.5418 35.6546 22.1684 35.2169 21.8852 34.6761L20.572 34.8692H20.4947C20.16 34.8692 19.954 34.7019 19.8767 34.3671L19.6836 33.556V33.4788C19.6836 33.1698 19.8252 32.9509 20.1085 32.8221L21.2286 32.4745V32.32C21.2286 31.6763 21.3444 31.0841 21.5762 30.5433L20.7265 29.7708C20.6492 29.6936 20.5848 29.552 20.5333 29.346C20.5333 29.1657 20.5848 29.0241 20.6878 28.9211L21.1899 28.2645C21.3187 28.11 21.4732 28.0327 21.6534 28.0327C21.7822 28.0327 21.8981 28.0714 22.0011 28.1486L22.8894 28.7666C23.4302 28.3289 24.0224 28.0199 24.6661 27.8396L24.7434 26.7195C24.7691 26.565 24.8335 26.4363 24.9365 26.3333C25.0653 26.2045 25.2069 26.1401 25.3614 26.1401H26.1725C26.3527 26.1401 26.4944 26.2045 26.5974 26.3333C26.7261 26.4363 26.7905 26.565 26.7905 26.7195L26.8677 27.801C27.5115 27.9555 28.1295 28.2387 28.7217 28.6507L29.6101 28.0327C29.7388 27.9555 29.8547 27.9169 29.9577 27.9169C30.1637 27.9169 30.3182 27.9941 30.4212 28.1486L30.9233 28.8052C31.0263 28.9082 31.0778 29.0498 31.0778 29.2301C31.0778 29.3846 31.0134 29.5262 30.8847 29.655L30.1122 30.4274C30.2409 30.7107 30.331 31.0068 30.3825 31.3158C30.4598 31.6248 30.4984 31.9595 30.4984 32.32V32.3587L31.6185 32.7063ZM23.9709 34.2126C23.4559 33.6976 23.1984 33.0668 23.1984 32.32C23.1984 31.5733 23.4559 30.9424 23.9709 30.4274C24.4859 29.9124 25.1168 29.655 25.8635 29.655C26.6102 29.655 27.2411 29.9124 27.7561 30.4274C28.2711 30.9424 28.5286 31.5733 28.5286 32.32C28.5286 33.0668 28.2711 33.6976 27.7561 34.2126C27.2411 34.7276 26.6102 34.9851 25.8635 34.9851C25.1168 34.9851 24.4859 34.7276 23.9709 34.2126Z" fill="url(#paint3_linear_3169_8982)"/>
</g>
</g>
<defs>
<linearGradient id="paint0_linear_3169_8982" x1="4.35187" y1="6.81281" x2="41.0633" y2="44.2441" gradientUnits="userSpaceOnUse">
<stop stop-color="white"/>
<stop offset="1" stop-color="#EAECEE"/>
</linearGradient>
<linearGradient id="paint1_linear_3169_8982" x1="15.0709" y1="15.1078" x2="25.0452" y2="28.8798" gradientUnits="userSpaceOnUse">
<stop stop-color="#0195FF"/>
<stop offset="0.991028" stop-color="#1147E9"/>
</linearGradient>
<linearGradient id="paint2_linear_3169_8982" x1="31.5636" y1="22.6877" x2="36.931" y2="28.6368" gradientUnits="userSpaceOnUse">
<stop stop-color="#1348FF"/>
<stop offset="1" stop-color="#06238D"/>
</linearGradient>
<linearGradient id="paint3_linear_3169_8982" x1="21.5109" y1="27.9585" x2="30.1608" y2="36.6457" gradientUnits="userSpaceOnUse">
<stop stop-color="#1348FF"/>
<stop offset="1" stop-color="#06238D"/>
</linearGradient>
<clipPath id="clip0_3169_8982">
<rect width="47.9998" height="47.9998" fill="white" transform="translate(-0.000976562)"/>
</clipPath>
<clipPath id="clip1_3169_8982">
<rect width="26.9999" height="26.9999" fill="white" transform="translate(11.498 11.5)"/>
</clipPath>
</defs>
</svg>
