<svg width="48" height="48" viewBox="0 0 48 48" fill="none" xmlns="http://www.w3.org/2000/svg">
<g clip-path="url(#clip0_3169_8992)">
<circle cx="23.9984" cy="23.9999" r="23.5713" fill="url(#paint0_linear_3169_8992)" stroke="#D5DADD" stroke-width="0.857139"/>
<g clip-path="url(#clip1_3169_8992)">
<path fill-rule="evenodd" clip-rule="evenodd" d="M25.5743 13.5128C25.5743 12.7673 26.1787 12.1628 26.9243 12.1628H31.0916C33.7011 12.1628 35.8166 14.2783 35.8166 16.8878V20.4767C35.8166 21.2223 35.2122 21.8267 34.4666 21.8267C33.721 21.8267 33.1166 21.2223 33.1166 20.4767V16.8878C33.1166 15.7695 32.21 14.8628 31.0916 14.8628H26.9243C26.1787 14.8628 25.5743 14.2584 25.5743 13.5128ZM13.5287 25.4428C14.2743 25.4428 14.8787 26.0472 14.8787 26.7928V31.0989C14.8787 32.2172 15.7853 33.1238 16.9037 33.1238H21.4874C22.233 33.1238 22.8374 33.7283 22.8374 34.4738C22.8374 35.2194 22.233 35.8238 21.4874 35.8238H16.9037C14.2942 35.8238 12.1787 33.7084 12.1787 31.0989V26.7928C12.1787 26.0472 12.7831 25.4428 13.5287 25.4428Z" fill="url(#paint1_linear_3169_8992)"/>
<path fill-rule="evenodd" clip-rule="evenodd" d="M37.0766 34.6215C37.3579 34.9028 37.4985 35.2016 37.4985 35.518C37.4985 35.8696 37.3579 36.186 37.0766 36.4672C36.7954 36.7485 36.4789 36.8891 36.1274 36.8891C35.811 36.8891 35.5122 36.7485 35.2309 36.4672L31.4868 32.7231C30.3969 33.6723 29.1665 34.1293 27.7954 34.0942C26.4243 34.0239 25.229 33.479 24.2095 32.4594L22.9966 31.2465C22.7153 30.9653 22.5747 30.6665 22.5747 30.3501C22.5747 29.9985 22.7153 29.6821 22.9966 29.4009L29.852 22.5454C30.1333 22.2642 30.4497 22.1235 30.8012 22.1235C31.1528 22.1235 31.4692 22.2642 31.7505 22.5454L32.9633 23.7583C33.9829 24.7778 34.5102 25.9556 34.5454 27.2915C34.6157 28.5923 34.2114 29.77 33.3325 30.8247L37.0766 34.6215Z" fill="url(#paint2_linear_3169_8992)"/>
<path d="M23.2308 25.9036C22.9496 26.1849 22.6332 26.3255 22.2816 26.3255C21.9652 26.3255 21.6664 26.1849 21.3851 25.9036L18.9593 23.4778L17.9047 24.5325C17.6234 24.8138 17.307 24.9544 16.9554 24.9544C16.5687 24.9544 16.2523 24.8138 16.0062 24.5325L14.7933 23.3724C13.7738 22.3528 13.2289 21.1927 13.1586 19.8919C13.0882 18.556 13.4574 17.3431 14.266 16.2533L10.9204 12.8203C10.6392 12.5391 10.4985 12.2226 10.4985 11.8711C10.4985 11.5195 10.6392 11.2031 10.9204 10.9219C11.2017 10.6406 11.5005 10.5 11.8169 10.5C12.1685 10.5 12.4849 10.6406 12.7661 10.9219L16.1117 14.3548C17.2015 13.4759 18.432 13.0716 19.8031 13.1419C21.1742 13.2122 22.3695 13.7572 23.389 14.7767L24.6019 15.9896C24.848 16.2357 24.9711 16.5521 24.9711 16.9388C24.9711 17.2904 24.848 17.5892 24.6019 17.8353L23.4945 18.9427L25.9203 21.3157C26.2015 21.597 26.3422 21.9134 26.3422 22.2649C26.3422 22.6165 26.2015 22.9329 25.9203 23.2142C25.639 23.4954 25.3226 23.636 24.9711 23.636C24.6195 23.636 24.3031 23.4954 24.0218 23.2142L21.6488 20.7884L20.805 21.6321L22.0179 22.8187L23.2308 24.0052C23.5121 24.2864 23.6527 24.6028 23.6527 24.9544C23.6527 25.306 23.5121 25.6224 23.2308 25.9036Z" fill="url(#paint3_linear_3169_8992)"/>
</g>
</g>
<defs>
<linearGradient id="paint0_linear_3169_8992" x1="4.35139" y1="6.81281" x2="41.0629" y2="44.2441" gradientUnits="userSpaceOnUse">
<stop stop-color="white"/>
<stop offset="1" stop-color="#EAECEE"/>
</linearGradient>
<linearGradient id="paint1_linear_3169_8992" x1="15.7221" y1="15.7012" x2="32.2894" y2="32.2581" gradientUnits="userSpaceOnUse">
<stop stop-color="#0195FF"/>
<stop offset="0.991028" stop-color="#1147E9"/>
</linearGradient>
<linearGradient id="paint2_linear_3169_8992" x1="24.8082" y1="24.3388" x2="35.1464" y2="34.7806" gradientUnits="userSpaceOnUse">
<stop stop-color="#00BBFF"/>
<stop offset="1" stop-color="#008BFF"/>
</linearGradient>
<linearGradient id="paint3_linear_3169_8992" x1="12.8409" y1="12.8283" x2="23.9162" y2="23.9641" gradientUnits="userSpaceOnUse">
<stop stop-color="#1348FF"/>
<stop offset="1" stop-color="#06238D"/>
</linearGradient>
<clipPath id="clip0_3169_8992">
<rect width="47.9998" height="47.9998" fill="white" transform="translate(-0.00146484)"/>
</clipPath>
<clipPath id="clip1_3169_8992">
<rect width="26.9999" height="26.9999" fill="white" transform="translate(10.4985 10.5)"/>
</clipPath>
</defs>
</svg>
