<svg width="48" height="48" viewBox="0 0 48 48" fill="none" xmlns="http://www.w3.org/2000/svg">
<g clip-path="url(#clip0_3169_9010)">
<circle cx="23.998" cy="24" r="23.5714" fill="url(#paint0_linear_3169_9010)" stroke="#D5DADD" stroke-width="0.857143"/>
<path fill-rule="evenodd" clip-rule="evenodd" d="M30.6116 20.6529C30.4887 18.62 29.4229 16.5943 27.0966 15.8783C26.3558 15.7038 25.8967 14.9619 26.0712 14.2211C26.2457 13.4803 26.9877 13.0212 27.7285 13.1957C29.9384 13.3311 33.3422 16.38 34.4501 20.171C34.6127 20.2255 34.774 20.2898 34.9332 20.3643C37.1732 21.4131 38.139 24.0792 37.0902 26.3193C36.0415 28.5594 33.3753 29.5252 31.1353 28.4764C28.8952 27.4276 27.9294 24.7615 28.9782 22.5214C29.3498 21.7275 29.9246 21.0937 30.6116 20.6529ZM32.3038 25.9804C33.1654 26.3837 34.1909 26.0123 34.5942 25.1507C34.9976 24.2891 34.6261 23.2637 33.7646 22.8603C32.903 22.457 31.8776 22.8284 31.4742 23.69C31.0708 24.5516 31.4423 25.577 32.3038 25.9804Z" fill="url(#paint1_linear_3169_9010)"/>
<path fill-rule="evenodd" clip-rule="evenodd" d="M23.6523 31.2839C25.4645 32.213 27.7506 32.327 29.5512 30.6893C30.0786 30.1406 30.9509 30.1232 31.4997 30.6506C32.0484 31.1779 32.0657 32.0503 31.5384 32.599C30.2967 34.4321 25.9396 35.8095 22.1127 34.8328C21.983 34.9451 21.8455 35.0511 21.7004 35.1501C19.6572 36.5442 16.8708 36.018 15.4768 33.9748C14.0827 31.9317 14.6089 29.1452 16.6521 27.7512C18.6953 26.3571 21.4817 26.8834 22.8757 28.9265C23.3698 29.6506 23.6227 30.4681 23.6523 31.2839ZM18.2054 30.0278C17.4196 30.564 17.2172 31.6357 17.7534 32.4215C18.2896 33.2073 19.3612 33.4097 20.1471 32.8735C20.9329 32.3374 21.1353 31.2657 20.5991 30.4798C20.063 29.694 18.9913 29.4916 18.2054 30.0278Z" fill="url(#paint2_linear_3169_9010)"/>
<path fill-rule="evenodd" clip-rule="evenodd" d="M17.8167 19.5527C16.1555 20.7309 14.9984 22.706 15.6194 25.0595C15.8625 25.7806 15.475 26.5624 14.7539 26.8055C14.0327 27.0487 13.2509 26.6612 13.0078 25.94C11.9554 23.992 12.7462 19.4913 15.3799 16.5481C15.3402 16.3812 15.3096 16.2103 15.2888 16.0358C14.996 13.5797 16.7497 11.3513 19.2057 11.0585C21.6618 10.7657 23.8902 12.5194 24.183 14.9755C24.4757 17.4315 22.7221 19.6599 20.266 19.9527C19.3957 20.0564 18.5539 19.9032 17.8167 19.5527ZM21.4463 15.3017C21.3337 14.3571 20.4766 13.6826 19.532 13.7952C18.5873 13.9078 17.9129 14.7649 18.0255 15.7095C18.1381 16.6541 18.9952 17.3286 19.9398 17.216C20.8844 17.1034 21.5589 16.2463 21.4463 15.3017Z" fill="url(#paint3_linear_3169_9010)"/>
</g>
<defs>
<linearGradient id="paint0_linear_3169_9010" x1="4.35091" y1="6.81284" x2="41.0625" y2="44.2443" gradientUnits="userSpaceOnUse">
<stop stop-color="white"/>
<stop offset="1" stop-color="#EAECEE"/>
</linearGradient>
<linearGradient id="paint1_linear_3169_9010" x1="27.7522" y1="15.5204" x2="38.2446" y2="23.1668" gradientUnits="userSpaceOnUse">
<stop stop-color="#00BBFF"/>
<stop offset="1" stop-color="#008BFF"/>
</linearGradient>
<linearGradient id="paint2_linear_3169_9010" x1="17.2795" y1="28.3113" x2="22.4134" y2="38.187" gradientUnits="userSpaceOnUse">
<stop stop-color="#0195FF"/>
<stop offset="0.991028" stop-color="#1147E9"/>
</linearGradient>
<linearGradient id="paint3_linear_3169_9010" x1="14.2807" y1="13.3587" x2="24.8839" y2="21.1903" gradientUnits="userSpaceOnUse">
<stop stop-color="#1348FF"/>
<stop offset="1" stop-color="#06238D"/>
</linearGradient>
<clipPath id="clip0_3169_9010">
<rect width="48" height="48" fill="white" transform="translate(-0.00195312)"/>
</clipPath>
</defs>
</svg>
