<svg width="48" height="48" viewBox="0 0 48 48" fill="none" xmlns="http://www.w3.org/2000/svg">
<g clip-path="url(#clip0_3173_15206)">
<circle cx="24" cy="24.0002" r="23.5714" fill="url(#paint0_linear_3173_15206)" stroke="#D5DADD" stroke-width="0.857143"/>
<g clip-path="url(#clip1_3173_15206)">
<path d="M14.2361 21.7688C15.2642 20.609 16.5286 19.6827 17.9445 19.0523L17.9956 19.0297C18.3893 18.8569 18.6605 18.4772 18.6605 18.0473C18.6605 17.3627 17.9992 16.8725 17.3684 17.1385C17.2905 17.1714 17.2129 17.205 17.1356 17.2395C15.461 17.985 13.9655 19.0805 12.7496 20.4522C12.575 20.6493 12.4859 20.9077 12.5018 21.1705C12.5177 21.4334 12.6374 21.6791 12.8346 21.8537C13.0317 22.0283 13.2901 22.1175 13.5529 22.1015C13.8158 22.0856 14.0615 21.9659 14.2361 21.7688Z" fill="url(#paint1_linear_3173_15206)"/>
<path d="M15.5325 27.8011C15.7513 26.5237 16.324 25.3332 17.1857 24.3651C17.5981 23.9017 18.0688 23.4982 18.5838 23.1634C19.0297 22.8734 19.2547 22.316 19.0538 21.8235C18.8392 21.2975 18.2263 21.0514 17.7405 21.3459C17.5486 21.4622 17.3608 21.5859 17.1775 21.7169C16.0946 22.4909 15.1989 23.4978 14.5561 24.6634C13.9134 25.8291 13.54 27.1239 13.4634 28.4529C13.3868 29.7818 13.6089 31.111 14.1134 32.3428C14.2183 32.5783 14.4108 32.7637 14.65 32.8597C14.8893 32.9557 15.1566 32.9548 15.3952 32.8571C15.6338 32.7594 15.825 32.5726 15.9282 32.3363C16.0314 32.1001 16.0386 31.8329 15.9482 31.5915C15.4578 30.3918 15.3137 29.0786 15.5325 27.8011Z" fill="url(#paint2_linear_3173_15206)"/>
<path d="M31.2618 29.3239C31.3153 27.9939 31.0701 26.6688 30.5443 25.4459C30.4064 25.1253 30.2502 24.8138 30.0766 24.5129C29.8716 24.1577 29.4828 23.9576 29.0727 23.9576H28.8567C28.2364 23.9576 27.8934 24.7584 28.2235 25.2836C28.911 26.3774 29.2812 27.6456 29.2856 28.9458C29.2883 29.0709 29.2663 29.1953 29.2209 29.312C29.1755 29.4286 29.1076 29.5351 29.021 29.6255C28.9344 29.7159 28.8309 29.7883 28.7164 29.8387C28.6018 29.889 28.4784 29.9163 28.3533 29.919C28.2282 29.9217 28.1038 29.8997 27.9871 29.8543C27.8705 29.8089 27.764 29.741 27.6736 29.6544C27.5832 29.5679 27.5108 29.4643 27.4604 29.3498C27.4101 29.2352 27.3828 29.1118 27.3801 28.9867C27.3812 28.3273 27.2523 27.6742 27.001 27.0646C26.7496 26.455 26.3807 25.9009 25.9152 25.4339C25.4497 24.9669 24.8967 24.5962 24.288 24.3429C23.6792 24.0896 23.0265 23.9587 22.3671 23.9576C21.7077 23.9566 21.0546 24.0854 20.445 24.3367C19.8354 24.5881 19.2813 24.957 18.8143 25.4225C18.3473 25.888 17.9766 26.441 17.7233 27.0497C17.47 27.6585 17.3391 28.3112 17.338 28.9706C17.3469 30.0965 17.513 31.2157 17.8314 32.2956C18.1786 33.4647 18.7538 34.6946 19.6712 35.612C19.8573 35.798 20.1097 35.9024 20.3728 35.9022C20.6358 35.9021 20.8881 35.7975 21.074 35.6114C21.26 35.4253 21.3644 35.1729 21.3642 34.9099C21.3641 34.6468 21.2595 34.3945 21.0734 34.2086C20.4746 33.6098 20.027 32.7234 19.7332 31.7316C19.4406 30.7472 19.3216 29.7368 19.3216 28.9706C19.3195 28.165 19.6374 27.3916 20.2056 26.8205C20.7737 26.2493 21.5454 25.9273 22.351 25.9251C23.1566 25.923 23.93 26.2409 24.5011 26.8091C25.0723 27.3772 25.3943 28.1489 25.3965 28.9545V28.9929C25.3965 29.0499 25.394 29.1082 25.3903 29.1665C25.3803 29.3227 25.4074 29.4791 25.4696 29.6227C25.6176 30.2664 25.9781 30.8415 26.493 31.2552C27.0079 31.6689 27.6472 31.897 28.3077 31.9027C28.9682 31.9084 29.6113 31.6915 30.1334 31.2868C30.6554 30.8821 31.0258 30.3134 31.1849 29.6723C31.2315 29.5618 31.2575 29.4438 31.2618 29.3239Z" fill="url(#paint3_linear_3173_15206)"/>
<path fill-rule="evenodd" clip-rule="evenodd" d="M22.5676 27.9797C23.1147 27.9797 23.5583 28.4232 23.5583 28.9703C23.5583 30.086 23.7537 30.6026 24.1177 31.1852C24.4076 31.6492 24.2664 32.2603 23.8024 32.5502C23.3384 32.8401 22.7272 32.6989 22.4374 32.2349C21.8629 31.3154 21.577 30.4302 21.577 28.9704C21.577 28.4232 22.0205 27.9797 22.5676 27.9797Z" fill="url(#paint4_linear_3173_15206)"/>
<path fill-rule="evenodd" clip-rule="evenodd" d="M22.6762 11.8252C21.9306 11.8252 21.3262 12.4296 21.3262 13.1752V19.8672C21.3262 20.6128 21.9306 21.2172 22.6762 21.2172H38.1501C38.8956 21.2172 39.5001 20.6128 39.5001 19.8672V13.1752C39.5001 12.4296 38.8956 11.8252 38.1501 11.8252H22.6762ZM25.7056 14.6228C26.022 14.6228 26.2786 14.8793 26.2786 15.1958V15.5287L26.5669 15.3623C26.841 15.204 27.1914 15.2979 27.3497 15.572C27.5079 15.8461 27.414 16.1965 27.1399 16.3548L26.8516 16.5212L27.1399 16.6877C27.414 16.8459 27.5079 17.1964 27.3497 17.4704C27.1914 17.7445 26.841 17.8384 26.5669 17.6802L26.2786 17.5137V17.8467C26.2786 18.1631 26.022 18.4197 25.7056 18.4197C25.3891 18.4197 25.1326 18.1631 25.1326 17.8467V17.5137L24.8442 17.6802C24.5702 17.8384 24.2197 17.7445 24.0615 17.4705C23.9033 17.1964 23.9972 16.8459 24.2712 16.6877L24.5596 16.5212L24.2712 16.3548C23.9972 16.1965 23.9033 15.8461 24.0615 15.572C24.2197 15.2979 24.5702 15.204 24.8443 15.3623L25.1326 15.5287V15.1958C25.1326 14.8793 25.3891 14.6228 25.7056 14.6228ZM30.9862 15.1958C30.9862 14.8793 30.7296 14.6228 30.4132 14.6228C30.0967 14.6228 29.8401 14.8793 29.8401 15.1958V15.5287L29.5518 15.3623C29.2778 15.204 28.9273 15.2979 28.7691 15.572C28.6108 15.8461 28.7047 16.1965 28.9788 16.3548L29.2671 16.5212L28.9788 16.6877C28.7047 16.8459 28.6108 17.1964 28.7691 17.4705C28.9273 17.7445 29.2777 17.8384 29.5518 17.6802L29.8401 17.5137V17.8467C29.8401 18.1631 30.0967 18.4197 30.4132 18.4197C30.7296 18.4197 30.9862 18.1631 30.9862 17.8467V17.5137L31.2745 17.6802C31.5486 17.8384 31.899 17.7445 32.0572 17.4704C32.2155 17.1964 32.1216 16.8459 31.8475 16.6877L31.5592 16.5212L31.8475 16.3548C32.1216 16.1965 32.2155 15.8461 32.0572 15.572C31.899 15.2979 31.5486 15.204 31.2745 15.3623L30.9862 15.5287V15.1958ZM35.6937 15.1958C35.6937 14.8793 35.4372 14.6228 35.1207 14.6228C34.8043 14.6228 34.5477 14.8793 34.5477 15.1958V15.5287L34.2594 15.3623C33.9853 15.204 33.6349 15.2979 33.4766 15.572C33.3184 15.8461 33.4123 16.1965 33.6864 16.3548L33.9747 16.5212L33.6864 16.6877C33.4123 16.8459 33.3184 17.1964 33.4766 17.4705C33.6349 17.7445 33.9853 17.8384 34.2594 17.6802L34.5477 17.5137V17.8467C34.5477 18.1631 34.8043 18.4197 35.1207 18.4197C35.4372 18.4197 35.6937 18.1631 35.6937 17.8467V17.5137L35.9821 17.6802C36.2561 17.8384 36.6066 17.7445 36.7648 17.4704C36.9231 17.1964 36.8292 16.8459 36.5551 16.6877L36.2668 16.5212L36.5551 16.3548C36.8291 16.1965 36.923 15.8461 36.7648 15.572C36.6066 15.2979 36.2561 15.204 35.9821 15.3623L35.6937 15.5287V15.1958Z" fill="url(#paint5_linear_3173_15206)"/>
</g>
</g>
<defs>
<linearGradient id="paint0_linear_3173_15206" x1="4.35287" y1="6.81308" x2="41.0645" y2="44.2445" gradientUnits="userSpaceOnUse">
<stop stop-color="white"/>
<stop offset="1" stop-color="#EAECEE"/>
</linearGradient>
<linearGradient id="paint1_linear_3173_15206" x1="15.3136" y1="19.8819" x2="28.5033" y2="33.0284" gradientUnits="userSpaceOnUse">
<stop stop-color="#0195FF"/>
<stop offset="0.991028" stop-color="#1147E9"/>
</linearGradient>
<linearGradient id="paint2_linear_3173_15206" x1="15.3136" y1="19.8819" x2="28.5033" y2="33.0284" gradientUnits="userSpaceOnUse">
<stop stop-color="#0195FF"/>
<stop offset="0.991028" stop-color="#1147E9"/>
</linearGradient>
<linearGradient id="paint3_linear_3173_15206" x1="15.3136" y1="19.8819" x2="28.5033" y2="33.0284" gradientUnits="userSpaceOnUse">
<stop stop-color="#0195FF"/>
<stop offset="0.991028" stop-color="#1147E9"/>
</linearGradient>
<linearGradient id="paint4_linear_3173_15206" x1="15.3136" y1="19.8819" x2="28.5033" y2="33.0284" gradientUnits="userSpaceOnUse">
<stop stop-color="#0195FF"/>
<stop offset="0.991028" stop-color="#1147E9"/>
</linearGradient>
<linearGradient id="paint5_linear_3173_15206" x1="24.0131" y1="13.207" x2="29.3614" y2="23.6009" gradientUnits="userSpaceOnUse">
<stop stop-color="#1348FF"/>
<stop offset="1" stop-color="#06238D"/>
</linearGradient>
<clipPath id="clip0_3173_15206">
<rect width="48" height="48" fill="white" transform="translate(0 0.000244141)"/>
</clipPath>
<clipPath id="clip1_3173_15206">
<rect width="27" height="27" fill="white" transform="translate(12.5 10.5002)"/>
</clipPath>
</defs>
</svg>
