<svg width="48" height="48" viewBox="0 0 48 48" fill="none" xmlns="http://www.w3.org/2000/svg">
<g clip-path="url(#clip0_3169_9039)">
<circle cx="24" cy="24.0002" r="23.5714" fill="url(#paint0_linear_3169_9039)" stroke="#D5DADD" stroke-width="0.857143"/>
<path fill-rule="evenodd" clip-rule="evenodd" d="M26.9293 36.5467C26.8867 36.4766 26.8453 36.4059 26.8051 36.3347C26.4251 35.6607 26.1197 34.8853 25.9006 34.0415C25.2579 33.9531 24.5972 33.8408 23.9096 33.7038C24.5771 34.9502 25.6394 35.9535 26.9293 36.5467ZM23.1616 31.1258C23.9926 31.3181 24.7751 31.4747 25.5262 31.5969C25.5123 31.3472 25.5052 31.0949 25.5052 30.8405C25.5052 30.4733 25.5199 30.1104 25.5487 29.7536C24.8151 29.6771 24.0548 29.5757 23.2532 29.4469C23.1813 29.8339 23.1437 30.233 23.1437 30.6409C23.1437 30.804 23.1498 30.9657 23.1616 31.1258ZM28.4468 34.2718C28.5706 34.6016 28.7106 34.9039 28.8631 35.1744C29.1195 35.6292 29.3847 35.9547 29.6405 36.1793C29.8964 35.9547 30.1616 35.6292 30.418 35.1744C30.5731 34.8992 30.7153 34.5911 30.8407 34.2547C30.0392 34.2982 29.248 34.3046 28.4468 34.2718ZM31.3678 31.8515C30.1997 31.9458 29.0746 31.9563 27.9156 31.8771C27.8843 31.5422 27.8677 31.1959 27.8677 30.8405C27.8677 30.526 27.8807 30.2187 27.9054 29.9201C29.0691 29.9618 30.2017 29.9413 31.3715 29.8708C31.3989 30.1849 31.4134 30.5087 31.4134 30.8405C31.4134 31.1869 31.3976 31.5246 31.3678 31.8515ZM33.3909 34.0012C33.1711 34.8606 32.862 35.65 32.476 36.3347C32.4358 36.406 32.3943 36.4767 32.3517 36.5468C33.6538 35.9481 34.724 34.9314 35.3903 33.6686C34.6995 33.7994 34.0361 33.9106 33.3909 34.0012ZM36.1206 31.1125C35.2887 31.2883 34.5062 31.437 33.757 31.5574C33.7695 31.3206 33.7759 31.0815 33.7759 30.8405C33.7759 30.4455 33.7588 30.0556 33.7256 29.6729C34.4576 29.5965 35.2177 29.5056 36.0197 29.4028C36.097 29.8036 36.1375 30.2175 36.1375 30.6409C36.1375 30.7995 36.1318 30.9568 36.1206 31.1125ZM28.3882 27.5709C29.2173 27.5898 30.0374 27.5754 30.8792 27.5322C30.7447 27.1543 30.5893 26.8103 30.418 26.5066C30.1616 26.0517 29.8964 25.7263 29.6405 25.5017C29.3847 25.7263 29.1195 26.0517 28.8631 26.5066C28.686 26.8207 28.5257 27.1777 28.3882 27.5709ZM33.2988 27.3419C33.8799 27.2828 34.4816 27.2138 35.1119 27.1359C34.3703 25.9806 33.2727 25.0755 31.974 24.5756C32.158 24.8205 32.3256 25.0795 32.476 25.3463C32.8108 25.9403 33.0878 26.613 33.2988 27.3419ZM24.1333 27.1927C24.7657 27.2869 25.3714 27.3626 25.9597 27.4211C26.1733 26.6617 26.4581 25.9617 26.8051 25.3463C26.9555 25.0796 27.123 24.8206 27.307 24.5757C25.9872 25.0838 24.8751 26.0103 24.1333 27.1927ZM29.6406 39.5002C34.5335 39.5002 38.5 35.5338 38.5 30.6409C38.5 25.748 34.5335 21.7815 29.6406 21.7815C24.7477 21.7815 20.7812 25.748 20.7812 30.6409C20.7812 35.5338 24.7477 39.5002 29.6406 39.5002Z" fill="url(#paint1_linear_3169_9039)"/>
<path fill-rule="evenodd" clip-rule="evenodd" d="M11.5858 16.4783C11.6114 14.2599 13.417 12.4751 15.6355 12.4751H32.3341C34.5709 12.4751 36.3841 14.2883 36.3841 16.5251V17.6403C36.3841 18.3858 35.7797 18.9903 35.0341 18.9903C34.2886 18.9903 33.6841 18.3858 33.6841 17.6403V16.5251C33.6841 15.7795 33.0797 15.1751 32.3341 15.1751H15.6355C14.896 15.1751 14.2941 15.77 14.2856 16.5095L14.2601 18.7182H22.0332C22.7788 18.7182 23.3832 19.3226 23.3832 20.0682C23.3832 20.8138 22.7788 21.4182 22.0332 21.4182H14.2289L14.133 29.7183C14.1243 30.4699 14.7312 31.0839 15.4829 31.0839H17.2781C18.0237 31.0839 18.6281 31.6883 18.6281 32.4339C18.6281 33.1795 18.0237 33.7839 17.2781 33.7839H15.4829C13.2278 33.7839 11.4071 31.942 11.4331 29.6871L11.543 20.1778C11.5401 20.1417 11.5386 20.1051 11.5386 20.0682C11.5386 20.0206 11.5411 19.9735 11.5459 19.9271L11.5858 16.4783Z" fill="url(#paint2_linear_3169_9039)"/>
</g>
<defs>
<linearGradient id="paint0_linear_3169_9039" x1="4.35287" y1="6.81309" x2="41.0645" y2="44.2445" gradientUnits="userSpaceOnUse">
<stop stop-color="white"/>
<stop offset="1" stop-color="#EAECEE"/>
</linearGradient>
<linearGradient id="paint1_linear_3169_9039" x1="23.4008" y1="24.3883" x2="35.8012" y2="36.8421" gradientUnits="userSpaceOnUse">
<stop stop-color="#1348FF"/>
<stop offset="1" stop-color="#06238D"/>
</linearGradient>
<linearGradient id="paint2_linear_3169_9039" x1="15.1732" y1="15.6617" x2="29.9088" y2="32.9222" gradientUnits="userSpaceOnUse">
<stop stop-color="#0195FF"/>
<stop offset="0.991028" stop-color="#1147E9"/>
</linearGradient>
<clipPath id="clip0_3169_9039">
<rect width="48" height="48" fill="white" transform="translate(0 0.000244141)"/>
</clipPath>
</defs>
</svg>
