<svg width="48" height="48" viewBox="0 0 48 48" fill="none" xmlns="http://www.w3.org/2000/svg">
<g clip-path="url(#clip0_3169_9047)">
<circle cx="24" cy="24.0002" r="23.5714" fill="url(#paint0_linear_3169_9047)" stroke="#D5DADD" stroke-width="0.857143"/>
<g clip-path="url(#clip1_3169_9047)">
<path fill-rule="evenodd" clip-rule="evenodd" d="M20.2944 30.777C21.405 34.6589 24.9801 37.5003 29.2187 37.5003C34.3446 37.5003 38.5 33.3449 38.5 28.219C38.5 23.6538 35.204 19.8585 30.8618 19.0828L32.937 22.677C33.9016 24.3478 33.9016 26.4062 32.937 28.077C31.9723 29.7478 30.1896 30.777 28.2604 30.777H20.2944Z" fill="url(#paint1_linear_3169_9047)"/>
<path fill-rule="evenodd" clip-rule="evenodd" d="M23.5685 11.8502C23.0862 11.0149 22.1948 10.5002 21.2302 10.5002C20.2656 10.5002 19.3743 11.0149 18.892 11.8502L11.8617 24.0269C11.3794 24.8623 11.3794 25.8916 11.8617 26.7269C12.344 27.5623 13.2354 28.0769 14.2 28.0769H28.2604C29.2251 28.0769 30.1164 27.5623 30.5987 26.7269C31.081 25.8916 31.081 24.8623 30.5987 24.0269L23.5685 11.8502Z" fill="url(#paint2_linear_3169_9047)"/>
</g>
</g>
<defs>
<linearGradient id="paint0_linear_3169_9047" x1="4.35287" y1="6.81309" x2="41.0645" y2="44.2445" gradientUnits="userSpaceOnUse">
<stop stop-color="white"/>
<stop offset="1" stop-color="#EAECEE"/>
</linearGradient>
<linearGradient id="paint1_linear_3169_9047" x1="23.019" y1="21.846" x2="35.9139" y2="34.5836" gradientUnits="userSpaceOnUse">
<stop stop-color="#00BBFF"/>
<stop offset="1" stop-color="#008BFF"/>
</linearGradient>
<linearGradient id="paint2_linear_3169_9047" x1="14.4172" y1="13.1287" x2="26.6604" y2="26.6888" gradientUnits="userSpaceOnUse">
<stop stop-color="#0195FF"/>
<stop offset="0.991028" stop-color="#1147E9"/>
</linearGradient>
<clipPath id="clip0_3169_9047">
<rect width="48" height="48" fill="white" transform="translate(0 0.000244141)"/>
</clipPath>
<clipPath id="clip1_3169_9047">
<rect width="27" height="27" fill="white" transform="translate(11.5 10.5002)"/>
</clipPath>
</defs>
</svg>
