<svg width="48" height="48" viewBox="0 0 48 48" fill="none" xmlns="http://www.w3.org/2000/svg">
<g clip-path="url(#clip0_3169_9054)">
<circle cx="24.001" cy="24.0002" r="23.5714" fill="url(#paint0_linear_3169_9054)" stroke="#D5DADD" stroke-width="0.857143"/>
<g clip-path="url(#clip1_3169_9054)">
<path d="M28.0845 24.3672C27.7651 24.465 27.4307 24.5446 27.0937 24.6094C26.1515 24.7907 25.0807 24.8763 24.0218 24.8741C22.9626 24.8718 21.8901 24.7817 20.9439 24.5999C20.5954 24.5329 20.2506 24.451 19.9221 24.3511L19.9243 25.7152C20.2597 25.862 20.7172 25.9995 21.2862 26.1088C22.1016 26.2656 23.0586 26.3484 24.0256 26.3505C24.9929 26.3525 25.9449 26.2736 26.751 26.1185C27.3146 26.01 27.7609 25.8728 28.0832 25.727L28.0845 24.3672Z" fill="url(#paint1_linear_3169_9054)"/>
<path d="M19.9153 21.6935L19.9178 23.1328C20.2538 23.2807 20.7136 23.4192 21.2862 23.5293C22.1016 23.686 23.0586 23.7688 24.0256 23.7709C24.9929 23.7729 25.9449 23.694 26.751 23.5389C27.3176 23.4299 27.7657 23.2917 28.0884 23.145V21.6841C28.0009 21.7194 27.9121 21.7526 27.8226 21.7839C26.7846 22.1464 25.4215 22.3222 23.9857 22.3222C22.5618 22.3222 21.212 22.1493 20.1817 21.7927C20.092 21.7616 20.003 21.7286 19.9153 21.6935Z" fill="url(#paint2_linear_3169_9054)"/>
<path d="M23.9857 20.5008C25.3024 20.5008 26.4451 20.3361 27.2246 20.0639C28.2176 19.7171 28.2043 19.386 27.2246 19.0439C26.4451 18.7716 25.3024 18.6069 23.9857 18.6069C22.669 18.6069 21.5385 18.7717 20.7693 19.0429C19.8159 19.3792 19.7787 19.7262 20.7749 20.071C21.5488 20.3389 22.6802 20.5008 23.9857 20.5008Z" fill="url(#paint3_linear_3169_9054)"/>
<path d="M19.9296 28.1051L19.9286 26.9873C20.2551 27.0863 20.5977 27.1675 20.9439 27.2341C21.8901 27.4159 22.9626 27.5061 24.0218 27.5083C25.0807 27.5105 26.1515 27.4249 27.0937 27.2436C27.4311 27.1787 27.766 27.0989 28.0859 27.001C28.0862 27.0673 28.0865 27.2518 28.0868 27.4527C28.0873 27.7253 28.0879 28.0282 28.0884 28.1077C28.0872 28.2481 27.9828 28.5636 27.1219 28.874C26.3198 29.1633 25.1838 29.3086 23.9863 29.3078C22.7956 29.3071 21.6722 29.1626 20.8808 28.8749C20.031 28.566 19.9296 28.2516 19.9296 28.1051Z" fill="url(#paint4_linear_3169_9054)"/>
<path fill-rule="evenodd" clip-rule="evenodd" d="M24.3653 11.5528L33.6907 14.2426C34.3507 14.4196 34.6783 14.8584 34.6783 15.5613V24.9992C34.6783 26.4763 34.4357 27.8299 33.9493 29.0601C33.4617 30.2903 32.8546 31.3984 32.1256 32.3818C31.3966 33.3665 30.606 34.2278 29.7551 34.9656C28.9042 35.7048 28.0964 36.3193 27.333 36.8116C26.5695 37.3039 25.9267 37.6816 25.4058 37.9458L24.5204 38.3945C24.3123 38.4656 24.1387 38.5005 23.9995 38.5005C23.8604 38.5005 23.6868 38.4643 23.4787 38.3945C23.4085 38.3596 23.1142 38.2188 22.5933 37.9733C22.0724 37.7265 21.4296 37.3488 20.6661 36.839C19.9027 36.3292 19.0949 35.7048 18.244 34.9669C17.3931 34.229 16.6025 33.3677 15.8735 32.383C15.1433 31.3996 14.5362 30.2928 14.0498 29.0613C13.5634 27.8311 13.3208 26.4775 13.3208 25.0005V15.5613C13.3208 14.8584 13.6508 14.4184 14.3109 14.2426L23.6363 11.5528C23.8444 11.483 24.087 11.483 24.3653 11.5528ZM18.7909 18.0918C18.4039 18.4426 18.1017 18.9302 18.0933 19.5413L18.1123 28.1051C18.1129 29.4773 19.2505 30.2198 20.2612 30.5872C21.3306 30.976 22.6896 31.1285 23.9852 31.1293C25.2895 31.1301 26.6591 30.9767 27.7372 30.5879C28.7511 30.2222 29.9058 29.4822 29.9058 28.1051L29.9058 19.5539C29.9058 18.9334 29.5981 18.4405 29.2083 18.0897C28.8305 17.7497 28.3389 17.5042 27.8226 17.3238C26.7846 16.9614 25.4215 16.7855 23.9857 16.7855C22.5499 16.7855 21.1966 16.9614 20.1661 17.3248C19.653 17.5057 19.1659 17.7518 18.7909 18.0918Z" fill="url(#paint5_linear_3169_9054)"/>
</g>
</g>
<defs>
<linearGradient id="paint0_linear_3169_9054" x1="4.35384" y1="6.81309" x2="41.0655" y2="44.2445" gradientUnits="userSpaceOnUse">
<stop stop-color="white"/>
<stop offset="1" stop-color="#EAECEE"/>
</linearGradient>
<linearGradient id="paint1_linear_3169_9054" x1="16.5224" y1="15.5382" x2="34.9213" y2="30.0971" gradientUnits="userSpaceOnUse">
<stop stop-color="#0195FF"/>
<stop offset="0.991028" stop-color="#1147E9"/>
</linearGradient>
<linearGradient id="paint2_linear_3169_9054" x1="16.5224" y1="15.5382" x2="34.9213" y2="30.0971" gradientUnits="userSpaceOnUse">
<stop stop-color="#0195FF"/>
<stop offset="0.991028" stop-color="#1147E9"/>
</linearGradient>
<linearGradient id="paint3_linear_3169_9054" x1="16.5224" y1="15.5382" x2="34.9213" y2="30.0971" gradientUnits="userSpaceOnUse">
<stop stop-color="#0195FF"/>
<stop offset="0.991028" stop-color="#1147E9"/>
</linearGradient>
<linearGradient id="paint4_linear_3169_9054" x1="16.5224" y1="15.5382" x2="34.9213" y2="30.0971" gradientUnits="userSpaceOnUse">
<stop stop-color="#0195FF"/>
<stop offset="0.991028" stop-color="#1147E9"/>
</linearGradient>
<linearGradient id="paint5_linear_3169_9054" x1="16.5224" y1="15.5382" x2="34.9213" y2="30.0971" gradientUnits="userSpaceOnUse">
<stop stop-color="#0195FF"/>
<stop offset="0.991028" stop-color="#1147E9"/>
</linearGradient>
<clipPath id="clip0_3169_9054">
<rect width="48" height="48" fill="white" transform="translate(0 0.000244141)"/>
</clipPath>
<clipPath id="clip1_3169_9054">
<rect width="27" height="27" fill="white" transform="translate(10.501 11.5002)"/>
</clipPath>
</defs>
</svg>
