<svg width="48" height="48" viewBox="0 0 48 48" fill="none" xmlns="http://www.w3.org/2000/svg">
<circle cx="24" cy="24" r="23.5714" fill="url(#paint0_linear_3219_19891)" stroke="#D5DADD" stroke-width="0.857143"/>
<path d="M13.9238 32.5078C13.085 32.5078 12.405 33.1878 12.405 34.0266C12.405 34.8653 13.085 35.5453 13.9238 35.5453H16.6647C17.5035 35.5453 18.1835 34.8653 18.1835 34.0266C18.1835 33.1878 17.5035 32.5078 16.6647 32.5078H13.9238Z" fill="url(#paint1_linear_3219_19891)"/>
<path d="M31.4977 32.5078C30.6589 32.5078 29.979 33.1878 29.979 34.0266C29.979 34.8653 30.6589 35.5453 31.4977 35.5453H34.2387C35.0775 35.5453 35.7574 34.8653 35.7574 34.0266C35.7574 33.1878 35.0775 32.5078 34.2387 32.5078H31.4977Z" fill="url(#paint2_linear_3219_19891)"/>
<path fill-rule="evenodd" clip-rule="evenodd" d="M25.2626 18.8235C26.6345 18.2781 27.6044 16.9384 27.6044 15.3722C27.6044 13.3218 25.9423 11.6597 23.8919 11.6597C21.8416 11.6597 20.1794 13.3218 20.1794 15.3722C20.1794 16.9541 21.1688 18.3049 22.5626 18.8396V24.0283C21.3352 23.0086 20.0478 22.8247 19.1148 22.6914C18.931 22.6652 18.7609 22.6409 18.6077 22.6125C18.0512 22.5095 17.6338 22.3706 17.2321 22.056C16.9454 21.8314 16.6135 21.4746 16.2561 20.8733C17.2009 20.2003 17.817 19.0959 17.817 17.8476C17.817 15.7972 16.1548 14.1351 14.1045 14.1351C12.0541 14.1351 10.392 15.7972 10.392 17.8476C10.392 19.7046 11.7555 21.2432 13.536 21.5168C14.1354 22.7239 14.8032 23.5832 15.5672 24.1816C16.451 24.8738 17.3484 25.1253 18.1165 25.2675C18.3866 25.3174 18.6315 25.3561 18.8562 25.3916C19.9199 25.5596 20.5359 25.6569 21.2776 26.5502C21.9022 27.3024 22.2515 28.4366 22.423 29.5206C22.4695 29.8147 22.5008 30.0911 22.5218 30.3361C21.1496 30.8813 20.1794 32.2212 20.1794 33.7876C20.1794 35.8379 21.8416 37.5001 23.8919 37.5001C25.9423 37.5001 27.6044 35.8379 27.6044 33.7876C27.6044 32.2288 26.6438 30.8944 25.2822 30.3442C25.3032 30.0972 25.3347 29.8179 25.3817 29.5206C25.5532 28.4366 25.9026 27.3024 26.5271 26.5502C27.2688 25.6569 27.8851 25.5595 28.9488 25.3916C29.1735 25.3561 29.4182 25.3174 29.6882 25.2675C30.4563 25.1253 31.3537 24.8738 32.2375 24.1816C33.0023 23.5826 33.6706 22.7222 34.2705 21.5133C36.04 21.2303 37.392 19.6968 37.392 17.8476C37.392 15.7972 35.7299 14.1351 33.6795 14.1351C31.6292 14.1351 29.967 15.7972 29.967 17.8476C29.967 19.1023 30.5895 20.2116 31.5424 20.8837C31.1874 21.4787 30.8577 21.8327 30.5726 22.056C30.1709 22.3706 29.7535 22.5095 29.197 22.6125C29.044 22.6408 28.8738 22.6652 28.6902 22.6914C27.7624 22.8239 26.4838 23.0065 25.2626 24.0114V18.8235ZM24.9044 15.3722C24.9044 15.9314 24.4511 16.3847 23.8919 16.3847C23.3328 16.3847 22.8794 15.9314 22.8794 15.3722C22.8794 14.813 23.3328 14.3597 23.8919 14.3597C24.4511 14.3597 24.9044 14.813 24.9044 15.3722ZM33.6795 18.8601C34.2387 18.8601 34.692 18.4068 34.692 17.8476C34.692 17.2884 34.2387 16.8351 33.6795 16.8351C33.1203 16.8351 32.667 17.2884 32.667 17.8476C32.667 18.4068 33.1203 18.8601 33.6795 18.8601ZM14.1045 18.8601C14.6637 18.8601 15.117 18.4068 15.117 17.8476C15.117 17.2884 14.6637 16.8351 14.1045 16.8351C13.5453 16.8351 13.092 17.2884 13.092 17.8476C13.092 18.4068 13.5453 18.8601 14.1045 18.8601ZM23.892 34.7967C24.4494 34.7967 24.9012 34.3449 24.9012 33.7875C24.9012 33.2301 24.4494 32.7783 23.892 32.7783C23.3346 32.7783 22.8827 33.2301 22.8827 33.7875C22.8827 34.3449 23.3346 34.7967 23.892 34.7967Z" fill="url(#paint3_linear_3219_19891)"/>
<circle cx="23.8919" cy="33.7875" r="2.3625" stroke="url(#paint4_linear_3219_19891)" stroke-width="2.7"/>
<defs>
<linearGradient id="paint0_linear_3219_19891" x1="4.35287" y1="6.81284" x2="41.0645" y2="44.2443" gradientUnits="userSpaceOnUse">
<stop stop-color="white"/>
<stop offset="1" stop-color="#EAECEE"/>
</linearGradient>
<linearGradient id="paint1_linear_3219_19891" x1="15.8575" y1="32.9547" x2="16.3991" y2="37.1361" gradientUnits="userSpaceOnUse">
<stop stop-color="#1348FF"/>
<stop offset="1" stop-color="#06238D"/>
</linearGradient>
<linearGradient id="paint2_linear_3219_19891" x1="15.8575" y1="32.9547" x2="16.3991" y2="37.1361" gradientUnits="userSpaceOnUse">
<stop stop-color="#1348FF"/>
<stop offset="1" stop-color="#06238D"/>
</linearGradient>
<linearGradient id="paint3_linear_3219_19891" x1="14.4394" y1="15.5239" x2="32.515" y2="34.4174" gradientUnits="userSpaceOnUse">
<stop stop-color="#0195FF"/>
<stop offset="0.991028" stop-color="#1147E9"/>
</linearGradient>
<linearGradient id="paint4_linear_3219_19891" x1="21.2925" y1="31.1853" x2="26.4914" y2="36.3861" gradientUnits="userSpaceOnUse">
<stop stop-color="#0195FF"/>
<stop offset="0.991028" stop-color="#1147E9"/>
</linearGradient>
</defs>
</svg>
