<svg width="48" height="48" viewBox="0 0 48 48" fill="none" xmlns="http://www.w3.org/2000/svg">
<circle cx="24" cy="24.0002" r="23.5714" fill="url(#paint0_linear_3170_12498)" stroke="#D5DADD" stroke-width="0.857143"/>
<path fill-rule="evenodd" clip-rule="evenodd" d="M14.2955 13.9853C13.5769 14.6456 13.0157 15.5634 13 16.7137C13 16.7137 13.0358 31.5291 13.0358 31.5253L13.0358 31.5274C13.0369 34.1104 15.1495 35.5059 17.0265 36.1975C18.5516 36.7594 20.3936 37.0591 22.2559 37.1687C23.1863 37.2234 23.943 36.4623 23.9436 35.5303L23.9436 35.4768C23.9442 34.5448 23.1881 33.796 22.2582 33.7337C20.6928 33.6287 19.2659 33.3755 18.1774 32.9744C16.5991 32.3928 16.4108 31.8012 16.4108 31.5253L16.4089 29.4213C17.0153 29.6076 17.6516 29.7605 18.2945 29.8858C20.0517 30.2281 22.0435 30.3977 24.0105 30.4019C24.5544 30.4031 25.1 30.3916 25.6418 30.3672C26.5018 30.3284 27.3521 30.2569 28.1707 30.1515C28.6961 30.0839 29.0791 29.6298 29.0791 29.1001C29.0791 28.419 28.4572 27.9067 27.7818 27.9947C27.0984 28.0837 26.3791 28.147 25.6418 28.184C25.1076 28.2107 24.5639 28.2236 24.0176 28.2225C22.2218 28.2186 20.4445 28.0626 18.9302 27.7677C17.8735 27.5618 17.0238 27.3031 16.4009 27.0267L16.3969 24.4591C17.0069 24.647 17.6473 24.8012 18.2945 24.9272C20.0517 25.2695 22.0435 25.4392 24.0105 25.4434C25.9771 25.4476 27.9657 25.2865 29.7155 24.9452C30.3413 24.8232 30.9624 24.6733 31.5556 24.4892L31.5552 26.5341C31.5551 27.4665 32.3143 28.2225 33.2467 28.2225C34.1787 28.2225 34.9375 27.467 34.9375 26.535V16.7374C34.9375 15.5695 34.3661 14.6417 33.6421 13.9812C32.9405 13.3412 32.0276 12.8791 31.0686 12.5397C29.1409 11.8574 26.6095 11.5264 23.9431 11.5264C21.2766 11.5264 18.7633 11.8574 16.8495 12.5414C15.8965 12.8821 14.992 13.3453 14.2955 13.9853ZM16.3842 19.4564L16.3889 22.1657C17.0129 22.4441 17.8667 22.7048 18.9302 22.912C20.4445 23.207 22.2218 23.363 24.0176 23.3668C25.814 23.3706 27.5821 23.2221 29.0791 22.9301C30.1314 22.7249 30.9635 22.4648 31.5629 22.1887V19.4387C31.4003 19.5052 31.2354 19.5678 31.0691 19.6266C29.1414 20.3089 26.6101 20.6399 23.9436 20.6399C21.2992 20.6399 18.7923 20.3144 16.879 19.6431C16.7123 19.5846 16.5471 19.5225 16.3842 19.4564Z" fill="url(#paint1_linear_3170_12498)"/>
<path d="M36.6178 29.8687C36.2367 29.8687 35.8937 30.0211 35.5889 30.326L30.8444 35.0705L28.958 33.1841C28.6912 32.8792 28.3673 32.7268 27.9862 32.7268C27.6051 32.7268 27.2622 32.8792 26.9573 33.1841C26.6524 33.489 26.5 33.8319 26.5 34.213C26.5 34.5941 26.6524 34.9371 26.9573 35.2419L29.8154 38.1001C30.0822 38.3668 30.4252 38.5002 30.8444 38.5002C31.2636 38.5002 31.6065 38.3668 31.8733 38.1001L37.6467 32.3266C37.9135 32.0218 38.0469 31.6788 38.0469 31.2977C38.0469 30.9166 37.9135 30.5927 37.6467 30.326C37.3419 30.0211 36.9989 29.8687 36.6178 29.8687Z" fill="url(#paint2_linear_3170_12498)"/>
<defs>
<linearGradient id="paint0_linear_3170_12498" x1="4.35287" y1="6.81308" x2="41.0645" y2="44.2445" gradientUnits="userSpaceOnUse">
<stop stop-color="white"/>
<stop offset="1" stop-color="#EAECEE"/>
</linearGradient>
<linearGradient id="paint1_linear_3170_12498" x1="16.2885" y1="15.3614" x2="34.0293" y2="30.5426" gradientUnits="userSpaceOnUse">
<stop stop-color="#0195FF"/>
<stop offset="0.991028" stop-color="#1147E9"/>
</linearGradient>
<linearGradient id="paint2_linear_3170_12498" x1="28.2071" y1="31.1385" x2="33.9938" y2="38.913" gradientUnits="userSpaceOnUse">
<stop stop-color="#1348FF"/>
<stop offset="1" stop-color="#06238D"/>
</linearGradient>
</defs>
</svg>
