<svg width="48" height="48" viewBox="0 0 48 48" fill="none" xmlns="http://www.w3.org/2000/svg">
<g clip-path="url(#clip0_3169_9069)">
<circle cx="24" cy="24.0002" r="23.5714" fill="url(#paint0_linear_3169_9069)" stroke="#D5DADD" stroke-width="0.857143"/>
<g clip-path="url(#clip1_3169_9069)">
<path d="M17.8828 20.3088C18.6914 20.3088 19.0957 20.7131 19.0957 21.5217C19.0957 22.3303 18.6914 22.7346 17.8828 22.7346H14.1914V31.3303C14.1914 32.1389 14.5957 32.5432 15.4043 32.5432H17.6584C18.0451 32.5432 18.3439 32.6663 18.5549 32.9124C18.7658 33.1233 18.8713 33.4045 18.8713 33.7561C18.8713 34.1428 18.7658 34.4592 18.5549 34.7053C18.3439 34.9163 18.0451 35.0217 17.6584 35.0217H15.4043C14.3848 35.0217 13.5234 34.6702 12.8203 33.967C12.1172 33.2288 11.7656 32.3499 11.7656 31.3303V16.6174C11.7656 15.5979 12.1172 14.7366 12.8203 14.0334C13.5234 13.3303 14.3848 12.9788 15.4043 12.9788H17.8828V11.7131C17.8828 10.9045 18.2871 10.5002 19.0957 10.5002C19.9043 10.5002 20.3086 10.9045 20.3086 11.7131V12.9788H25.2129V11.7131C25.2129 10.9045 25.6172 10.5002 26.4258 10.5002C26.8125 10.5002 27.1113 10.6057 27.3223 10.8167C27.5684 11.0276 27.6914 11.3264 27.6914 11.7131V12.9788H30.1172C31.1719 12.9788 32.0508 13.3303 32.7539 14.0334C33.457 14.7366 33.8086 15.5979 33.8086 16.6174V17.2879C33.8086 17.6395 33.6855 17.9383 33.4395 18.1844C33.2285 18.3954 32.9473 18.5008 32.5957 18.5008C32.209 18.5008 31.8926 18.3954 31.6465 18.1844C31.4355 17.9383 31.3301 17.6395 31.3301 17.2879V16.6174C31.3301 15.8088 30.9258 15.4045 30.1172 15.4045H27.6914V16.6174C27.6914 17.0042 27.5684 17.3206 27.3223 17.5667C27.1113 17.7776 26.8125 17.8831 26.4258 17.8831C26.0391 17.8831 25.7402 17.7776 25.5293 17.5667C25.3184 17.3206 25.2129 17.0042 25.2129 16.6174V15.4045H20.3086V16.6174C20.3086 17.0042 20.2031 17.3206 19.9922 17.5667C19.7812 17.7776 19.4824 17.8831 19.0957 17.8831C18.709 17.8831 18.4102 17.7776 18.1992 17.5667C17.9883 17.3206 17.8828 17.0042 17.8828 16.6174V15.4045H15.4043C14.5957 15.4045 14.1914 15.8088 14.1914 16.6174V20.3088H17.8828Z" fill="url(#paint1_linear_3169_9069)"/>
<path fill-rule="evenodd" clip-rule="evenodd" d="M29.0885 20.6252C30.2654 20.6252 31.3558 20.8502 32.3596 21.3002C33.3981 21.7156 34.2981 22.3041 35.0596 23.0656C35.8212 23.8272 36.4096 24.7272 36.825 25.7656C37.275 26.8041 37.5 27.9118 37.5 29.0887C37.5 30.2656 37.275 31.3733 36.825 32.4118C36.4096 33.4156 35.8212 34.2983 35.0596 35.0599C34.2981 35.8214 33.3981 36.4099 32.3596 36.8252C31.3558 37.2752 30.2654 37.5002 29.0885 37.5002C27.9115 37.5002 26.8038 37.2752 25.7654 36.8252C24.7269 36.4099 23.8269 35.8214 23.0654 35.0599C22.3038 34.2983 21.6981 33.4156 21.2481 32.4118C20.8327 31.3733 20.625 30.2656 20.625 29.0887C20.625 27.9118 20.8327 26.8041 21.2481 25.7656C21.6981 24.7272 22.3038 23.8272 23.0654 23.0656C23.8269 22.3041 24.7269 21.7156 25.7654 21.3002C26.8038 20.8502 27.9115 20.6252 29.0885 20.6252ZM31.4479 28.6099C31.727 28.6099 31.9554 28.7197 32.133 28.9392C32.336 29.1313 32.4375 29.3782 32.4375 29.6801C32.4375 29.9819 32.336 30.2426 32.133 30.4621C31.9554 30.6541 31.727 30.7502 31.4479 30.7502H28.3647C28.0855 30.7502 27.8445 30.6541 27.6415 30.4621C27.4638 30.2426 27.375 29.9819 27.375 29.6801V25.0291C27.375 24.7273 27.4638 24.4804 27.6415 24.2883C27.8445 24.0962 28.0855 24.0002 28.3647 24.0002C28.6438 24.0002 28.8722 24.0962 29.0498 24.2883C29.2275 24.4804 29.3163 24.7273 29.3163 25.0291V28.6099H31.4479Z" fill="url(#paint2_linear_3169_9069)"/>
</g>
</g>
<defs>
<linearGradient id="paint0_linear_3169_9069" x1="4.35287" y1="6.81309" x2="41.0645" y2="44.2445" gradientUnits="userSpaceOnUse">
<stop stop-color="white"/>
<stop offset="1" stop-color="#EAECEE"/>
</linearGradient>
<linearGradient id="paint1_linear_3169_9069" x1="15.0245" y1="14.1079" x2="32.0966" y2="29.5205" gradientUnits="userSpaceOnUse">
<stop stop-color="#1348FF"/>
<stop offset="1" stop-color="#06238D"/>
</linearGradient>
<linearGradient id="paint2_linear_3169_9069" x1="23.1546" y1="23.1488" x2="34.9704" y2="34.9687" gradientUnits="userSpaceOnUse">
<stop stop-color="#0195FF"/>
<stop offset="0.991028" stop-color="#1147E9"/>
</linearGradient>
<clipPath id="clip0_3169_9069">
<rect width="48" height="48" fill="white" transform="translate(0 0.000244141)"/>
</clipPath>
<clipPath id="clip1_3169_9069">
<rect width="27" height="27" fill="white" transform="translate(10.5 10.5002)"/>
</clipPath>
</defs>
</svg>
