<svg width="48" height="48" viewBox="0 0 48 48" fill="none" xmlns="http://www.w3.org/2000/svg">
<g clip-path="url(#clip0_3169_9078)">
<circle cx="24.001" cy="24.0002" r="23.5714" fill="url(#paint0_linear_3169_9078)" stroke="#D5DADD" stroke-width="0.857143"/>
<g clip-path="url(#clip1_3169_9078)">
<path fill-rule="evenodd" clip-rule="evenodd" d="M30.9127 9.55298H22.9439C22.6456 9.55298 22.3595 9.67148 22.1485 9.88241C21.9376 10.0933 21.8191 10.3794 21.8191 10.6777V14.6262C21.8191 15.5486 21.4897 16.3392 20.8308 16.9981C20.172 17.6569 19.3813 17.9864 18.4589 17.9864H14.5105C14.2122 17.9864 13.9261 18.1049 13.7152 18.3158C13.5042 18.5267 13.3857 18.8128 13.3857 19.1111V33.8002C13.3857 35.2914 14.5946 36.5002 16.0857 36.5002H23.102C22.5959 35.9962 22.1343 35.4474 21.7238 34.8603C21.4034 34.402 21.5151 33.7708 21.9733 33.4503C22.4316 33.1299 23.0629 33.2416 23.3833 33.6999C24.0591 34.6663 24.9011 35.5083 25.8676 36.1841C25.9907 36.2702 26.0888 36.3787 26.1602 36.5002H30.9127C32.1695 36.5002 33.2257 35.6415 33.5267 34.4788C33.1404 34.5497 32.7416 34.585 32.332 34.585H30.948C30.1679 34.585 29.5011 34.2584 29.0025 33.7598C28.5943 33.3516 28.3326 32.8454 28.2425 32.2865L27.1569 32.2984C26.4524 32.2984 25.741 32.0629 25.1813 31.5032C24.6217 30.9436 24.3862 30.2321 24.3862 29.5277C24.3862 28.9976 24.5195 28.4635 24.824 27.9932C24.5195 27.5228 24.3862 26.9888 24.3862 26.4587C24.3862 25.7543 24.6217 25.0428 25.1813 24.4831C25.7549 23.9096 26.4796 23.7181 27.1268 23.7181L28.2456 23.7181C28.3325 23.1792 28.5712 22.6578 29.0025 22.2265C29.5327 21.6964 30.2296 21.4041 30.9989 21.4305L32.3133 21.4013H32.332C32.7716 21.4013 33.1995 21.4404 33.6127 21.52V18.1054C33.5307 18.1114 33.4467 18.1074 33.362 18.0925C32.7921 17.9917 32.2048 17.9391 31.6044 17.9391C31.004 17.9391 30.4168 17.9917 29.8468 18.0925C29.2962 18.1898 28.7709 17.8223 28.6736 17.2716C28.5762 16.721 28.9437 16.1957 29.4944 16.0984C30.1802 15.9772 30.8854 15.9141 31.6044 15.9141C32.288 15.9141 32.9589 15.9711 33.6127 16.0808V12.253C33.6127 10.7618 32.4038 9.55298 30.9127 9.55298ZM26.1171 18.3319C26.4376 18.7902 26.3258 19.4214 25.8676 19.7419C24.9011 20.4177 24.0591 21.2597 23.3833 22.2261C23.0629 22.6844 22.4316 22.7961 21.9733 22.4757C21.5151 22.1552 21.4034 21.524 21.7238 21.0657C22.5355 19.9049 23.5464 18.894 24.7071 18.0824C25.1654 17.7619 25.7967 17.8736 26.1171 18.3319ZM20.9131 25.0321C21.4637 25.1295 21.8312 25.6547 21.7339 26.2054C21.6332 26.7754 21.5805 27.3626 21.5805 27.963C21.5805 28.5634 21.6332 29.1506 21.7339 29.7206C21.8312 30.2713 21.4637 30.7965 20.9131 30.8939C20.3624 30.9912 19.8371 30.6237 19.7398 30.073C19.6186 29.3872 19.5555 28.6821 19.5555 27.963C19.5555 27.2439 19.6186 26.5388 19.7398 25.853C19.8371 25.3023 20.3624 24.9348 20.9131 25.0321Z" fill="url(#paint1_linear_3169_9078)"/>
<path d="M26.3746 25.6764C26.174 25.877 26.0737 26.1378 26.0737 26.4587C26.0737 26.7797 26.174 27.0404 26.3746 27.241C26.5752 27.4416 26.836 27.5419 27.1569 27.5419L29.8949 27.5118L29.8949 28.4746L27.1569 28.4446C26.836 28.4446 26.5752 28.5449 26.3746 28.7454C26.174 28.946 26.0737 29.2068 26.0737 29.5277C26.0737 29.8487 26.174 30.1094 26.3746 30.31C26.5752 30.5106 26.836 30.6109 27.1569 30.6109L29.8949 30.5808V31.8445C29.8949 32.1253 29.9952 32.366 30.1958 32.5666C30.4165 32.7873 30.6672 32.8976 30.948 32.8976H32.3321C33.4955 32.8976 34.4884 32.5265 35.3108 31.7843C36.1332 31.0422 36.6046 30.1094 36.7249 28.9861L39.4288 28.9861C39.7497 28.9861 40.0105 28.8858 40.2111 28.6852C40.3916 28.5047 40.4819 28.254 40.4819 27.933C40.4819 27.6121 40.3816 27.3513 40.181 27.1507C39.9804 26.9501 39.7196 26.8499 39.3987 26.8499L36.6948 26.8499C36.5344 25.7667 36.053 24.8641 35.2506 24.142C34.4683 23.4399 33.4955 23.0889 32.3321 23.0889L30.9781 23.119C30.6772 23.0989 30.4165 23.1992 30.1958 23.4198C29.9952 23.6204 29.8949 23.8812 29.8949 24.2021L29.8949 25.4057L27.1268 25.4057C26.8059 25.4057 26.5551 25.4959 26.3746 25.6764Z" fill="url(#paint2_linear_3169_9078)"/>
<path d="M20.5677 14.4565V11.4629L15.2954 16.7352H18.289C18.9145 16.7352 19.4507 16.5118 19.8975 16.065C20.3443 15.6182 20.5677 15.082 20.5677 14.4565Z" fill="url(#paint3_linear_3169_9078)"/>
</g>
</g>
<defs>
<linearGradient id="paint0_linear_3169_9078" x1="4.35384" y1="6.81309" x2="41.0655" y2="44.2445" gradientUnits="userSpaceOnUse">
<stop stop-color="white"/>
<stop offset="1" stop-color="#EAECEE"/>
</linearGradient>
<linearGradient id="paint1_linear_3169_9078" x1="16.4178" y1="13.5828" x2="34.5374" y2="27.1882" gradientUnits="userSpaceOnUse">
<stop stop-color="#0195FF"/>
<stop offset="0.991028" stop-color="#1147E9"/>
</linearGradient>
<linearGradient id="paint2_linear_3169_9078" x1="28.2039" y1="24.5319" x2="34.5804" y2="33.9389" gradientUnits="userSpaceOnUse">
<stop stop-color="#1348FF"/>
<stop offset="1" stop-color="#06238D"/>
</linearGradient>
<linearGradient id="paint3_linear_3169_9078" x1="16.0749" y1="12.2386" x2="19.7647" y2="15.9443" gradientUnits="userSpaceOnUse">
<stop stop-color="#1348FF"/>
<stop offset="1" stop-color="#06238D"/>
</linearGradient>
<clipPath id="clip0_3169_9078">
<rect width="48" height="48" fill="white" transform="translate(0 0.000244141)"/>
</clipPath>
<clipPath id="clip1_3169_9078">
<rect width="27" height="27" fill="white" transform="translate(13.501 9.50024)"/>
</clipPath>
</defs>
</svg>
