<svg width="48" height="48" viewBox="0 0 48 48" fill="none" xmlns="http://www.w3.org/2000/svg">
<g clip-path="url(#clip0_3169_9107)">
<circle cx="24" cy="23.7566" r="23.5714" fill="url(#paint0_linear_3169_9107)" stroke="#D5DADD" stroke-width="0.857143"/>
<g clip-path="url(#clip1_3169_9107)">
<path d="M22.5234 34.2542L20.5723 31.9866C20.291 31.6702 19.9395 31.512 19.5176 31.512C19.0957 31.512 18.7617 31.6702 18.5156 31.9866C18.1992 32.303 18.041 32.6546 18.041 33.0413C18.041 33.4631 18.1992 33.7971 18.5156 34.0432L22.9453 38.5256C23.2617 38.8421 23.6133 39.0003 24 39.0003C24.3867 39.0003 24.7383 38.8421 25.0547 38.5256L29.5371 34.0432C29.8184 33.762 29.959 33.428 29.959 33.0413C29.959 32.6897 29.8184 32.3381 29.5371 31.9866C29.2207 31.6702 28.8691 31.512 28.4824 31.512C28.0957 31.512 27.7441 31.6702 27.4277 31.9866L25.582 34.2542L25.582 32.092C25.582 31.3538 25.7578 30.6506 26.1094 29.9827C26.4258 29.3147 26.9004 28.7698 27.5332 28.3479L31.0664 25.9749C32.0859 25.2717 32.8945 24.3577 33.4922 23.2327C34.0547 22.1428 34.3359 20.9651 34.3359 19.6995V16.9045C34.3359 15.9202 33.8437 15.428 32.8594 15.428C31.875 15.428 31.3828 15.9202 31.3828 16.9045V19.6995C31.3828 21.3167 30.7324 22.5647 29.4316 23.4436L25.6348 26.0276C25.2832 26.3088 24.9668 26.5725 24.6855 26.8186C24.3691 27.0999 24.123 27.4163 23.9473 27.7678C23.4902 27.0295 22.8926 26.4319 22.1543 25.9749L18.5684 23.6018C17.9707 23.1799 17.4961 22.635 17.1445 21.967C16.793 21.3342 16.6172 20.6311 16.6172 19.8577V17.0627C16.6172 16.6057 16.4941 16.2366 16.248 15.9553C15.9668 15.6741 15.5977 15.5334 15.1406 15.5334C14.6836 15.5334 14.332 15.6741 14.0859 15.9553C13.8047 16.2366 13.6641 16.6057 13.6641 17.0627L13.6641 19.8577C13.6641 21.1233 13.9453 22.301 14.5078 23.3909C15.0703 24.5159 15.8789 25.4299 16.9336 26.1331L20.5195 28.5061C21.1172 28.928 21.5918 29.4553 21.9434 30.0881C22.2598 30.7561 22.4531 31.4768 22.5234 32.2503V34.2542Z" fill="url(#paint1_linear_3169_9107)"/>
<path d="M26.839 13.5103C26.839 13.9009 26.9659 14.25 27.2203 14.5407L27.2356 14.5571C27.5047 14.8262 27.8494 14.9537 28.2399 14.9537C28.6304 14.9537 28.9751 14.8262 29.2442 14.5571C29.5323 14.269 29.6833 13.9146 29.6833 13.5103C29.6833 13.1125 29.5364 12.7688 29.2446 12.5056C28.9814 12.2138 28.6377 12.0669 28.2399 12.0669C27.8383 12.0669 27.4919 12.2167 27.2277 12.514C26.964 12.782 26.839 13.1236 26.839 13.5103Z" fill="url(#paint2_linear_3169_9107)"/>
<path d="M18.6979 15.0355C18.4436 14.7448 18.3167 14.3956 18.3167 14.005C18.3167 13.6145 18.4441 13.2699 18.7132 13.0008C18.9823 12.7317 19.327 12.6042 19.7175 12.6042C20.1042 12.6042 20.4459 12.7292 20.7138 12.9928C21.0112 13.257 21.1609 13.6034 21.1609 14.005C21.1609 14.4093 21.0099 14.7637 20.7218 15.0519C20.4527 15.321 20.1081 15.4485 19.7175 15.4485C19.327 15.4485 18.9823 15.321 18.7132 15.0519L18.6979 15.0355Z" fill="url(#paint3_linear_3169_9107)"/>
<path d="M22.968 24.2149C22.7052 23.9521 22.6033 23.5852 22.6033 23.1788V21.7249C22.6033 21.3382 22.7283 20.9965 22.992 20.7286C23.2561 20.4312 23.6026 20.2814 24.0042 20.2814C24.424 20.2814 24.7884 20.4243 25.0589 20.7286C25.3226 20.9965 25.4476 21.3382 25.4476 21.7249V23.1788C25.4476 23.5887 25.3403 23.9573 25.0675 24.2196C24.7972 24.4795 24.4216 24.5796 24.0042 24.5796C23.5977 24.5796 23.2309 24.4778 22.968 24.2149Z" fill="url(#paint4_linear_3169_9107)"/>
<path d="M26.8393 20.2094C26.8393 20.63 26.9447 21.0075 27.2146 21.2774C27.4846 21.5474 27.8621 21.6528 28.2827 21.6528C28.6926 21.6528 29.0612 21.5455 29.3235 21.2727C29.5834 21.0024 29.6836 20.6268 29.6836 20.2094V16.9767C29.6836 16.5593 29.5834 16.1837 29.3235 15.9134C29.0612 15.6406 28.6926 15.5333 28.2827 15.5333C27.8621 15.5333 27.4846 15.6387 27.2146 15.9086C26.9447 16.1786 26.8393 16.5561 26.8393 16.9767V20.2094Z" fill="url(#paint5_linear_3169_9107)"/>
<path d="M18.6767 21.0838C18.4168 20.8135 18.3167 20.4378 18.3167 20.0204V17.8511C18.3167 17.4447 18.4185 17.0778 18.6814 16.815C18.9442 16.5521 19.3111 16.4503 19.7176 16.4503C20.1042 16.4503 20.4459 16.5752 20.7138 16.8389C21.0112 17.1031 21.161 17.4495 21.161 17.8511V20.0204C21.161 20.4402 21.0181 20.8046 20.7139 21.0751C20.4459 21.3388 20.1042 21.4638 19.7176 21.4638C19.3076 21.4638 18.939 21.3565 18.6767 21.0838Z" fill="url(#paint6_linear_3169_9107)"/>
<path d="M25.0089 16.3816C24.7457 16.0898 24.402 15.9429 24.0042 15.9429C23.6026 15.9429 23.2561 16.0926 22.992 16.39C22.7283 16.6579 22.6033 16.9996 22.6033 17.3863C22.6033 17.7768 22.7308 18.1215 22.9999 18.3906C23.269 18.6597 23.6137 18.7872 24.0042 18.7872C24.3909 18.7872 24.7325 18.6622 25.0005 18.3985C25.2978 18.1343 25.4476 17.7879 25.4476 17.3863C25.4476 16.9885 25.3007 16.6448 25.0089 16.3816Z" fill="url(#paint7_linear_3169_9107)"/>
</g>
</g>
<defs>
<linearGradient id="paint0_linear_3169_9107" x1="4.35287" y1="6.56943" x2="41.0645" y2="44.0009" gradientUnits="userSpaceOnUse">
<stop stop-color="white"/>
<stop offset="1" stop-color="#EAECEE"/>
</linearGradient>
<linearGradient id="paint1_linear_3169_9107" x1="16.7629" y1="18.9531" x2="33.1276" y2="33.3092" gradientUnits="userSpaceOnUse">
<stop stop-color="#0195FF"/>
<stop offset="0.991028" stop-color="#1147E9"/>
</linearGradient>
<linearGradient id="paint2_linear_3169_9107" x1="19.9972" y1="13.9078" x2="28.7175" y2="21.8637" gradientUnits="userSpaceOnUse">
<stop stop-color="#1348FF"/>
<stop offset="1" stop-color="#06238D"/>
</linearGradient>
<linearGradient id="paint3_linear_3169_9107" x1="19.9972" y1="13.9078" x2="28.7175" y2="21.8637" gradientUnits="userSpaceOnUse">
<stop stop-color="#1348FF"/>
<stop offset="1" stop-color="#06238D"/>
</linearGradient>
<linearGradient id="paint4_linear_3169_9107" x1="19.9972" y1="13.9078" x2="28.7175" y2="21.8637" gradientUnits="userSpaceOnUse">
<stop stop-color="#1348FF"/>
<stop offset="1" stop-color="#06238D"/>
</linearGradient>
<linearGradient id="paint5_linear_3169_9107" x1="19.9972" y1="13.9078" x2="28.7175" y2="21.8637" gradientUnits="userSpaceOnUse">
<stop stop-color="#1348FF"/>
<stop offset="1" stop-color="#06238D"/>
</linearGradient>
<linearGradient id="paint6_linear_3169_9107" x1="19.9972" y1="13.9078" x2="28.7175" y2="21.8637" gradientUnits="userSpaceOnUse">
<stop stop-color="#1348FF"/>
<stop offset="1" stop-color="#06238D"/>
</linearGradient>
<linearGradient id="paint7_linear_3169_9107" x1="19.9972" y1="13.9078" x2="28.7175" y2="21.8637" gradientUnits="userSpaceOnUse">
<stop stop-color="#1348FF"/>
<stop offset="1" stop-color="#06238D"/>
</linearGradient>
<clipPath id="clip0_3169_9107">
<rect width="48" height="48" fill="white" transform="translate(0 0.000244141)"/>
</clipPath>
<clipPath id="clip1_3169_9107">
<rect width="27" height="27" fill="white" transform="matrix(-1 0 0 1 37.5 12.0002)"/>
</clipPath>
</defs>
</svg>
