<svg width="48" height="48" viewBox="0 0 48 48" fill="none" xmlns="http://www.w3.org/2000/svg">
<g clip-path="url(#clip0_3169_9088)">
<circle cx="24.001" cy="23.7566" r="23.5714" fill="url(#paint0_linear_3169_9088)" stroke="#D5DADD" stroke-width="0.857143"/>
<path d="M11.0049 19.8635C10.8442 18.0928 12.2305 16.5273 14.0386 16.5273H18.9168H22.7899C23.6947 16.5273 24.4702 16.2042 25.1165 15.5579C25.7628 14.9116 26.0859 14.1361 26.0859 13.2313V11.0596C26.0859 10.767 26.2022 10.4863 26.4091 10.2794C26.616 10.0725 26.8966 9.9563 27.1892 9.9563H31.9518C32.8837 9.9563 33.6393 10.7118 33.6393 11.6438V20.6519H29.975C28.632 20.6519 27.343 21.1929 26.3869 22.1577L25.5002 23.0527C22.9493 23.0527 20.3598 23.0729 17.8135 23.0729L17.8301 19.2535H14.0386C13.8221 19.2535 13.6762 19.4257 13.6938 19.6194L15.2288 33.5731H18.2565C17.8589 33.0809 17.8135 32.664 17.8135 31.982V28.8366L17.9797 28.4726C17.988 28.4553 17.9973 28.4388 18.0072 28.4238C18.0151 28.4133 18.0241 28.4034 18.0346 28.3939C18.0586 28.3719 18.0955 28.347 18.149 28.3264C18.1858 28.3123 18.2216 28.2966 18.2565 28.2794L18.2753 28.2789H27.0722C27.4079 28.2789 27.7301 28.1437 27.9692 27.9025L29.975 25.8781H33.6393V29.0929L32.5065 32.4413C32.2371 33.2388 31.5076 33.7664 30.6963 33.7664H29.2659C29.2252 34.2893 29.0325 34.8119 28.702 35.2351C28.1903 35.8902 27.4053 36.2731 26.5741 36.2731H15.2288C13.8519 36.2731 12.6955 35.237 12.545 33.8684L11.01 19.9146L11.0049 19.8635Z" fill="url(#paint1_linear_3169_9088)"/>
<path d="M24.659 13.2275V10.9712L19.4873 15.4627H22.4238C23.0373 15.4627 23.5633 15.2436 24.0016 14.8053C24.4398 14.367 24.659 13.8411 24.659 13.2275Z" fill="url(#paint2_linear_3169_9088)"/>
<path d="M15.4998 27.072C15.5314 27.0253 15.5643 26.9797 15.5987 26.9351C15.7172 26.7813 15.8429 26.6501 15.9675 26.5388C16.2425 26.2931 16.555 26.1061 16.8842 25.9758C17.1919 25.836 17.5234 25.7551 17.8613 25.7377C17.915 25.7349 17.9681 25.7336 18.0207 25.7336H26.765L28.4908 24.0309C28.996 23.5324 29.6773 23.2529 30.387 23.2529H34.7488C34.8547 23.2529 34.9604 23.2592 35.0655 23.2716C36.5355 23.3207 37.831 24.4251 37.9876 26.0001C38.0263 26.3887 37.9801 26.7812 37.8524 27.1503L35.6147 33.6165C34.9648 35.4956 33.2169 36.7628 31.2453 36.8026C31.1424 36.8145 31.039 36.8204 30.9354 36.8204H15.6244C14.1872 36.8204 13.0061 35.821 12.6798 34.513C12.6442 34.37 12.6186 34.2232 12.6039 34.0745C12.5562 33.5921 12.6394 33.1057 12.8445 32.6665L15.2619 27.491L15.2824 27.4482C15.3427 27.3248 15.4146 27.1981 15.4998 27.072Z" fill="url(#paint3_linear_3169_9088)"/>
</g>
<defs>
<linearGradient id="paint0_linear_3169_9088" x1="4.35384" y1="6.56943" x2="41.0655" y2="44.0009" gradientUnits="userSpaceOnUse">
<stop stop-color="white"/>
<stop offset="1" stop-color="#EAECEE"/>
</linearGradient>
<linearGradient id="paint1_linear_3169_9088" x1="14.3871" y1="13.8918" x2="32.6091" y2="29.5783" gradientUnits="userSpaceOnUse">
<stop stop-color="#0195FF"/>
<stop offset="0.991028" stop-color="#1147E9"/>
</linearGradient>
<linearGradient id="paint2_linear_3169_9088" x1="20.2519" y1="11.632" x2="23.3624" y2="15.2289" gradientUnits="userSpaceOnUse">
<stop stop-color="#1348FF"/>
<stop offset="1" stop-color="#06238D"/>
</linearGradient>
<linearGradient id="paint3_linear_3169_9088" x1="16.3999" y1="25.2819" x2="24.2926" y2="40.0689" gradientUnits="userSpaceOnUse">
<stop stop-color="#0195FF"/>
<stop offset="0.991028" stop-color="#1147E9"/>
</linearGradient>
<clipPath id="clip0_3169_9088">
<rect width="48" height="48" fill="white" transform="translate(0 0.000244141)"/>
</clipPath>
</defs>
</svg>
