<svg width="48" height="49" viewBox="0 0 48 49" fill="none" xmlns="http://www.w3.org/2000/svg">
<circle cx="24" cy="24.7563" r="23.5714" fill="url(#paint0_linear_3173_14846)" stroke="#D5DADD" stroke-width="0.857143"/>
<g clip-path="url(#clip0_3173_14846)">
<path d="M37.3236 32.002C37.5935 31.7223 37.8972 31.5825 38.2346 31.5825C38.5721 31.5825 38.8757 31.7223 39.1457 32.002C39.3819 32.2467 39.5 32.5438 39.5 32.8934C39.5 33.243 39.3819 33.5576 39.1457 33.8373L34.0338 39.1333C33.7976 39.378 33.4939 39.5004 33.1227 39.5004C32.7516 39.5004 32.4479 39.378 32.2117 39.1333L29.681 36.5115C29.4111 36.2318 29.2761 35.9172 29.2761 35.5677C29.2761 35.2181 29.4111 34.9035 29.681 34.6238C29.951 34.3441 30.2546 34.2043 30.5921 34.2043C30.9295 34.2043 31.2163 34.3441 31.4525 34.6238L33.1227 36.3542L37.3236 32.002Z" fill="url(#paint1_linear_3173_14846)"/>
<path fill-rule="evenodd" clip-rule="evenodd" d="M33.614 12.5245C34.7519 12.5181 35.3251 12.9529 36.0751 13.7384C36.8592 14.5239 37.2513 15.5144 37.2513 16.7097V27.9931C37.2513 29.3494 36.3627 30.5755 35.4007 31.5315C35.3033 31.6284 35.2072 31.7277 35.1123 31.8289C34.0325 32.9802 32.3412 32.6419 30.7628 32.6419L-nan -nanL30.7628 32.6419C29.925 32.6419 29.2241 33.01 28.7055 33.5472L-nan -nanL28.7055 33.5472C27.5204 34.775 26.0021 37.3549 24.2957 37.3549H16.5911C15.432 37.3549 14.4603 36.9622 13.6762 36.1767C12.8921 35.3912 12.5 34.4178 12.5 33.2566V16.7097C12.5 16.1291 12.6023 15.5827 12.8068 15.0704C13.0114 14.5581 13.2841 14.1141 13.6251 13.7384C14.0001 13.3627 14.4092 13.0724 14.8524 12.8675C15.2956 12.6626 15.7729 12.5602 16.2843 12.5602L33.614 12.5245ZM33.614 15.3112C34.5507 15.3112 34.5507 16.2999 34.5507 16.7097V24.9575H28.9668C28.5577 24.9575 28.2167 25.0942 27.944 25.3674C27.7053 25.6064 27.586 25.965 27.586 26.4432C27.586 27.1604 27.3133 27.7922 26.7678 28.3386C26.2564 28.8509 25.6257 29.1071 24.8756 29.1071C24.0915 29.1071 23.4267 28.8509 22.8812 28.3386C22.3698 27.7922 22.1141 27.1604 22.1141 26.4432C22.1141 25.965 21.9778 25.6064 21.705 25.3674C21.4664 25.0942 21.1425 24.9575 20.7334 24.9575H15.2104V16.7097C15.2104 16.2999 15.2104 15.3112 16.2843 15.3112H33.614Z" fill="url(#paint2_linear_3173_14846)"/>
<path fill-rule="evenodd" clip-rule="evenodd" d="M30.9642 19.1977L18.7176 19.1978C18.2502 19.1978 17.8713 18.8182 17.8713 18.35C17.8713 17.8818 18.2502 17.5022 18.7176 17.5022L30.9642 17.5022C31.4315 17.5022 31.8104 17.8818 31.8104 18.35C31.8104 18.8182 31.4315 19.1977 30.9642 19.1977ZM30.9642 22.7458L18.7176 22.7458C18.2502 22.7458 17.8713 22.3662 17.8713 21.898C17.8713 21.4298 18.2502 21.0502 18.7176 21.0502L30.9642 21.0502C31.4315 21.0502 31.8104 21.4298 31.8104 21.898C31.8104 22.3662 31.4315 22.7458 30.9642 22.7458Z" fill="url(#paint3_linear_3173_14846)"/>
</g>
<defs>
<linearGradient id="paint0_linear_3173_14846" x1="4.35287" y1="7.56919" x2="41.0645" y2="45.0006" gradientUnits="userSpaceOnUse">
<stop stop-color="white"/>
<stop offset="1" stop-color="#EAECEE"/>
</linearGradient>
<linearGradient id="paint1_linear_3173_14846" x1="30.7877" y1="32.7474" x2="36.1469" y2="39.6974" gradientUnits="userSpaceOnUse">
<stop stop-color="#1348FF"/>
<stop offset="1" stop-color="#06238D"/>
</linearGradient>
<linearGradient id="paint2_linear_3173_14846" x1="16.2103" y1="16.2377" x2="33.5965" y2="33.5744" gradientUnits="userSpaceOnUse">
<stop stop-color="#0195FF"/>
<stop offset="0.991028" stop-color="#1147E9"/>
</linearGradient>
<linearGradient id="paint3_linear_3173_14846" x1="19.9574" y1="18.2889" x2="22.3786" y2="24.7206" gradientUnits="userSpaceOnUse">
<stop stop-color="#00BBFF"/>
<stop offset="1" stop-color="#008BFF"/>
</linearGradient>
<clipPath id="clip0_3173_14846">
<rect width="27" height="27" fill="white" transform="translate(12.5 12.5002)"/>
</clipPath>
</defs>
</svg>
