<svg width="48" height="48" viewBox="0 0 48 48" fill="none" xmlns="http://www.w3.org/2000/svg">
<circle cx="24" cy="24.001" r="23.5714" fill="url(#paint0_linear_3232_4632)" stroke="#D5DADD" stroke-width="0.857143"/>
<g clip-path="url(#clip0_3232_4632)">
<path fill-rule="evenodd" clip-rule="evenodd" d="M22.1257 12.6609C18.5458 12.6609 16.0023 15.5786 15.5785 18.6248C14.427 18.6935 13.4102 19.1268 12.6204 19.8546C11.5521 20.8392 11.0002 22.2684 11.0002 23.7756C11.0002 25.1763 11.4246 26.5002 12.3773 27.4791C13.3364 28.4645 14.698 28.9637 16.3013 28.9637H19.3512V27.1298C19.3512 25.3577 20.7794 23.8963 22.5716 23.8963C23.9708 23.8963 25.1994 24.8009 25.6312 26.1207L25.6992 26.3288L25.7621 26.1325C26.1862 24.8075 27.4152 23.8963 28.8171 23.8963C30.5371 23.8963 31.9205 25.247 32.0203 26.924C32.931 25.8851 33.5003 24.4858 33.5003 22.8071C33.5003 19.4724 31.1201 16.9098 28.2546 16.6388C27.1059 14.2605 24.9737 12.6609 22.1257 12.6609Z" fill="url(#paint1_linear_3232_4632)"/>
<path d="M33.7629 35.9009C33.3673 36.3032 32.9765 36.9269 33.3721 37.3292C33.7677 37.7315 34.2165 37.7597 34.6121 37.3573L37.6491 34.2684C38.0447 33.866 38.0447 33.2142 37.6491 32.8119L34.6121 29.7229C34.2165 29.3206 33.7517 29.1531 33.3562 29.5554C32.8615 29.9417 33.5501 30.777 33.9457 31.1794L35.0795 32.533L28.8361 32.5393L28.8356 33.3405C28.8353 33.893 29.2796 34.3408 29.8274 34.3401L35.1912 34.3345L33.7629 35.9009Z" fill="url(#paint2_linear_3232_4632)"/>
<path d="M21.1533 27.2151C21.1533 26.3584 21.8419 25.6638 22.6914 25.6638C23.3551 25.6638 23.944 26.0933 24.1519 26.729L25.4134 30.5851C25.4836 30.7975 25.5661 31.0952 25.6611 31.4782C25.756 31.8613 25.8179 32.1152 25.8468 32.2401C25.8799 32.1152 25.9459 31.8654 26.045 31.4907C26.1482 31.1118 26.2349 30.8204 26.305 30.6164L27.5488 26.7305C27.7523 26.0947 28.3391 25.6638 29.0015 25.6638C29.8445 25.6638 30.528 26.3531 30.528 27.2035V32.5376L28.8361 32.5393L28.8375 29.13C28.8375 28.6803 28.8479 28.2556 28.8685 27.8559C28.8933 27.4562 28.8831 27.2973 28.9057 27.2251C28.9015 27.2293 28.8603 27.375 28.7818 27.6623C28.7405 27.7997 28.6539 28.0953 28.5218 28.5492C28.3938 29.003 28.2927 29.3381 28.2184 29.5546L26.8203 33.753C26.6789 34.1775 26.2846 34.4635 25.8406 34.4635C25.3967 34.4635 25.0024 34.1775 24.861 33.753L23.4629 29.5546C23.3762 29.3007 23.2524 28.9031 23.0914 28.3618C22.9345 27.8164 22.8252 27.4375 22.7632 27.2251L22.7756 27.4063C22.7797 27.4729 22.7921 27.7081 22.8128 28.112C22.8334 28.5117 22.8437 28.851 22.8437 29.13V33.611C22.8437 34.0818 22.4653 34.4635 21.9985 34.4635C21.5317 34.4635 21.1533 34.0818 21.1533 33.611V27.2151Z" fill="url(#paint3_linear_3232_4632)"/>
</g>
<defs>
<linearGradient id="paint0_linear_3232_4632" x1="4.35287" y1="6.81382" x2="41.0645" y2="44.2453" gradientUnits="userSpaceOnUse">
<stop stop-color="white"/>
<stop offset="1" stop-color="#EAECEE"/>
</linearGradient>
<linearGradient id="paint1_linear_3232_4632" x1="14.3731" y1="15.0989" x2="25.2192" y2="30.0732" gradientUnits="userSpaceOnUse">
<stop stop-color="#0195FF"/>
<stop offset="0.991028" stop-color="#1147E9"/>
</linearGradient>
<linearGradient id="paint2_linear_3232_4632" x1="23.636" y1="27.4266" x2="31.5541" y2="38.5718" gradientUnits="userSpaceOnUse">
<stop stop-color="#1348FF"/>
<stop offset="1" stop-color="#06238D"/>
</linearGradient>
<linearGradient id="paint3_linear_3232_4632" x1="23.636" y1="27.4266" x2="31.5541" y2="38.5718" gradientUnits="userSpaceOnUse">
<stop stop-color="#1348FF"/>
<stop offset="1" stop-color="#06238D"/>
</linearGradient>
<clipPath id="clip0_3232_4632">
<rect width="27" height="27.0006" fill="white" transform="translate(11 12.501)"/>
</clipPath>
</defs>
</svg>
