<svg width="48" height="49" viewBox="0 0 48 49" fill="none" xmlns="http://www.w3.org/2000/svg">
<circle cx="24" cy="24.7563" r="23.5714" fill="url(#paint0_linear_3171_14550)" stroke="#D5DADD" stroke-width="0.857143"/>
<g clip-path="url(#clip0_3171_14550)">
<path d="M22.6254 13.4998C19.0455 13.4998 16.502 16.4175 16.0783 19.4637C14.9267 19.5323 13.9099 19.9656 13.1202 20.6934C12.0518 21.6781 11.5 23.1072 11.5 24.6144C11.5 26.0151 11.9243 27.339 12.877 28.3178C13.8361 29.3033 15.1977 29.8025 16.801 29.8025H20.261C20.3216 29.7258 20.3874 29.6519 20.4582 29.5811L23.2542 26.785C23.6824 26.3568 24.2258 26.114 24.7846 26.0568C24.8956 25.6411 25.1141 25.2482 25.4402 24.9221C26.002 24.3603 26.7621 24.1178 27.4952 24.1946C27.518 22.8163 28.6424 21.7061 30.0261 21.7061C31.4098 21.7061 32.5342 22.8163 32.557 24.1946C33.0321 24.1448 33.5186 24.2292 33.9551 24.4476C33.9846 24.1881 33.9999 23.9207 33.9999 23.6459C33.9999 20.3113 31.6197 17.7487 28.7542 17.4776C27.6055 15.0994 25.4733 13.4998 22.6254 13.4998Z" fill="url(#paint1_linear_3171_14550)"/>
<path d="M33.2708 27.3084C33.6003 26.9789 33.6003 26.4446 33.2708 26.1151C32.9413 25.7856 32.407 25.7856 32.0775 26.1151L30.7218 27.4708L30.7218 24.2371C30.7218 23.7711 30.344 23.3933 29.878 23.3933C29.412 23.3933 29.0343 23.7711 29.0343 24.2371V27.4708L27.6785 26.1151C27.349 25.7856 26.8148 25.7856 26.4853 26.1151C26.1557 26.4446 26.1558 26.9789 26.4853 27.3084L29.2814 30.1044C29.6109 30.4339 30.1452 30.4339 30.4747 30.1044L33.2708 27.3084Z" fill="url(#paint2_linear_3171_14550)"/>
<path d="M26.4855 35.3316C26.156 35.6611 26.156 36.1953 26.4855 36.5248C26.815 36.8544 27.3492 36.8544 27.6787 36.5249L29.0345 35.1691V38.4029C29.0345 38.8689 29.4122 39.2466 29.8782 39.2466C30.3442 39.2466 30.722 38.8689 30.722 38.4029V35.1691L32.0778 36.5249C32.4073 36.8544 32.9415 36.8544 33.271 36.5248C33.6005 36.1953 33.6005 35.6611 33.271 35.3316L30.4749 32.5355C30.1453 32.206 29.6111 32.206 29.2816 32.5355L26.4855 35.3316Z" fill="url(#paint3_linear_3171_14550)"/>
<path d="M25.6407 34.7629C25.3112 35.0924 24.777 35.0924 24.4475 34.7629L21.6514 31.9668C21.3219 31.6373 21.3219 31.1031 21.6514 30.7736L24.4475 27.9774C24.777 27.6479 25.3112 27.6479 25.6407 27.9774C25.9703 28.3069 25.9703 28.8411 25.6408 29.1706L24.285 30.5264H27.5188C27.9848 30.5264 28.3625 30.9042 28.3625 31.3702C28.3625 31.8362 27.9848 32.2139 27.5188 32.2139H24.2851L25.6408 33.5697C25.9703 33.8992 25.9703 34.4334 25.6407 34.7629Z" fill="url(#paint4_linear_3171_14550)"/>
<path d="M35.4568 27.9777C35.1273 27.6482 34.5931 27.6481 34.2635 27.9777C33.934 28.3072 33.934 28.8414 34.2635 29.1709L35.6192 30.5266H32.3855C31.9195 30.5266 31.5417 30.9044 31.5417 31.3704C31.5417 31.8364 31.9195 32.2142 32.3855 32.2142H35.6192L34.2635 33.5699C33.934 33.8995 33.934 34.4337 34.2635 34.7632C34.5931 35.0927 35.1273 35.0927 35.4568 34.7632L38.2529 31.967C38.5824 31.6375 38.5824 31.1033 38.2529 30.7738L35.4568 27.9777Z" fill="url(#paint5_linear_3171_14550)"/>
</g>
<defs>
<linearGradient id="paint0_linear_3171_14550" x1="4.35287" y1="7.56919" x2="41.0645" y2="45.0006" gradientUnits="userSpaceOnUse">
<stop stop-color="white"/>
<stop offset="1" stop-color="#EAECEE"/>
</linearGradient>
<linearGradient id="paint1_linear_3171_14550" x1="14.8728" y1="15.9377" x2="25.7189" y2="30.9119" gradientUnits="userSpaceOnUse">
<stop stop-color="#0195FF"/>
<stop offset="0.991028" stop-color="#1147E9"/>
</linearGradient>
<linearGradient id="paint2_linear_3171_14550" x1="23.9318" y1="25.7257" x2="34.9915" y2="37.7036" gradientUnits="userSpaceOnUse">
<stop stop-color="#1348FF"/>
<stop offset="1" stop-color="#06238D"/>
</linearGradient>
<linearGradient id="paint3_linear_3171_14550" x1="23.9318" y1="25.7257" x2="34.9915" y2="37.7036" gradientUnits="userSpaceOnUse">
<stop stop-color="#1348FF"/>
<stop offset="1" stop-color="#06238D"/>
</linearGradient>
<linearGradient id="paint4_linear_3171_14550" x1="23.9318" y1="25.7257" x2="34.9915" y2="37.7036" gradientUnits="userSpaceOnUse">
<stop stop-color="#1348FF"/>
<stop offset="1" stop-color="#06238D"/>
</linearGradient>
<linearGradient id="paint5_linear_3171_14550" x1="23.9318" y1="25.7257" x2="34.9915" y2="37.7036" gradientUnits="userSpaceOnUse">
<stop stop-color="#1348FF"/>
<stop offset="1" stop-color="#06238D"/>
</linearGradient>
<clipPath id="clip0_3171_14550">
<rect width="27" height="27.0004" fill="white" transform="translate(11.5 13.5002)"/>
</clipPath>
</defs>
</svg>
