<svg width="48" height="48" viewBox="0 0 48 48" fill="none" xmlns="http://www.w3.org/2000/svg">
<g clip-path="url(#clip0_3169_9133)">
<circle cx="24" cy="23.7566" r="23.5714" fill="url(#paint0_linear_3169_9133)" stroke="#D5DADD" stroke-width="0.857143"/>
<g clip-path="url(#clip1_3169_9133)">
<path fill-rule="evenodd" clip-rule="evenodd" d="M31.4305 10.5002H21.3055C17.9503 10.5002 15.2305 13.2201 15.2305 16.5752C15.2305 19.9304 17.9503 22.6502 21.3055 22.6502H31.4305C34.7856 22.6502 37.5055 19.9304 37.5055 16.5752C37.5055 13.2201 34.7856 10.5002 31.4305 10.5002ZM31.4305 19.9503C33.2944 19.9503 34.8055 18.4392 34.8055 16.5753C34.8055 14.7113 33.2944 13.2003 31.4305 13.2003C29.5664 13.2003 28.0555 14.7113 28.0555 16.5753C28.0555 18.4392 29.5664 19.9503 31.4305 19.9503Z" fill="url(#paint1_linear_3169_9133)"/>
<path fill-rule="evenodd" clip-rule="evenodd" d="M16.575 37.5003L26.7001 37.5004C30.0552 37.5004 32.7751 34.7806 32.7751 31.4254C32.7751 28.0703 30.0552 25.3504 26.7001 25.3504H16.6068L16.575 25.3503C13.2197 25.3503 10.5 28.0703 10.5 31.4253C10.5 34.7804 13.2197 37.5003 16.575 37.5003ZM22.65 31.4253C22.65 32.6742 22.2731 33.8351 21.6269 34.8004H26.7001C28.564 34.8004 30.0751 33.2894 30.0751 31.4254C30.0751 29.5615 28.564 28.0504 26.7001 28.0504H21.6271C22.2732 29.0157 22.65 30.1765 22.65 31.4253ZM16.5751 34.8003C14.711 34.8003 13.2 33.2892 13.2 31.4253C13.2 29.5613 14.7109 28.0503 16.575 28.0503C17.4464 28.0503 18.2407 28.3806 18.8396 28.9228C18.907 28.9839 18.9719 29.0476 19.0341 29.1138C19.4553 29.5616 19.7555 30.1246 19.8826 30.7504C19.9268 30.9685 19.9501 31.1943 19.9501 31.4254C19.9501 31.6566 19.9268 31.8823 19.8826 32.1004C19.5699 33.6409 18.2079 34.8003 16.5751 34.8003Z" fill="url(#paint2_linear_3169_9133)"/>
</g>
</g>
<defs>
<linearGradient id="paint0_linear_3169_9133" x1="4.35287" y1="6.56943" x2="41.0645" y2="44.0009" gradientUnits="userSpaceOnUse">
<stop stop-color="white"/>
<stop offset="1" stop-color="#EAECEE"/>
</linearGradient>
<linearGradient id="paint1_linear_3169_9133" x1="18.5696" y1="12.3172" x2="25.7209" y2="25.4326" gradientUnits="userSpaceOnUse">
<stop stop-color="#0195FF"/>
<stop offset="0.991028" stop-color="#1147E9"/>
</linearGradient>
<linearGradient id="paint2_linear_3169_9133" x1="13.8336" y1="27.1732" x2="20.9891" y2="40.2824" gradientUnits="userSpaceOnUse">
<stop stop-color="#00BBFF"/>
<stop offset="1" stop-color="#008BFF"/>
</linearGradient>
<clipPath id="clip0_3169_9133">
<rect width="48" height="48" fill="white" transform="translate(0 0.000244141)"/>
</clipPath>
<clipPath id="clip1_3169_9133">
<rect width="27" height="27" fill="white" transform="translate(10.5 10.5002)"/>
</clipPath>
</defs>
</svg>
