<svg width="48" height="48" viewBox="0 0 48 48" fill="none" xmlns="http://www.w3.org/2000/svg">
<g clip-path="url(#clip0_3169_9147)">
<circle cx="23.9995" cy="23.7566" r="23.5714" fill="url(#paint0_linear_3169_9147)" stroke="#D5DADD" stroke-width="0.857143"/>
<g clip-path="url(#clip1_3169_9147)">
<path fill-rule="evenodd" clip-rule="evenodd" d="M23.099 13.9502C20.015 13.9502 17.7066 16.9411 17.9199 19.7742C17.9511 20.1893 17.7891 20.5956 17.4808 20.8753C17.1726 21.155 16.7525 21.2769 16.3424 21.2056C15.0562 20.9819 14.1219 21.3266 13.5051 21.8943C12.8672 22.4814 12.4495 23.4194 12.4495 24.5697C12.4495 25.7058 12.7876 26.542 13.3201 27.0884C13.8454 27.6274 14.7069 28.0357 16.0599 28.0357H19.2579C20.0035 28.0357 20.6079 28.6402 20.6079 29.3857C20.6079 30.1313 20.0035 30.7357 19.2579 30.7357H16.0599C14.1424 30.7357 12.5237 30.1399 11.3864 28.9728C10.2563 27.8131 9.74951 26.2413 9.74951 24.5697C9.74951 22.7735 10.4078 21.0756 11.6766 19.9078C12.6314 19.0289 13.8674 18.5106 15.271 18.4444C15.7437 14.7805 18.7974 11.2502 23.099 11.2502C26.4885 11.2502 29.0305 13.1439 30.4077 15.9731C32.9159 15.9936 35.2544 17.4603 36.046 20.2968C36.2464 21.0149 35.8267 21.7596 35.1085 21.96C34.3904 22.1604 33.6457 21.7407 33.4453 21.0225C32.9554 19.2671 31.4612 18.4563 29.7503 18.7196C29.1174 18.817 28.5032 18.4564 28.2798 17.8563C27.3575 15.3787 25.5321 13.9502 23.099 13.9502Z" fill="url(#paint1_linear_3169_9147)"/>
<path d="M24.9989 24.038H25.6496V24.7502H26.3603V22.6235H25.6496V23.3258H24.9989V22.6235H24.2883V24.7502H24.9989V24.038Z" fill="url(#paint2_linear_3169_9147)"/>
<path d="M27.2954 24.7502H28.0066V23.3289H28.6326V22.6235H26.6694V23.3289H27.2954V24.7502Z" fill="url(#paint3_linear_3169_9147)"/>
<path d="M30.129 24.4522L29.6396 23.6958V24.7502H28.9442V22.6235H29.6854L30.1416 23.3705L30.5968 22.6235H31.3385V24.7502H30.6304V23.6958L30.1416 24.4522H30.129Z" fill="url(#paint4_linear_3169_9147)"/>
<path d="M33.3583 24.0469H32.3585V22.6235H31.6473V24.7502H33.3583V24.0469Z" fill="url(#paint5_linear_3169_9147)"/>
<path fill-rule="evenodd" clip-rule="evenodd" d="M24.2651 36.9835L23.2485 25.5825H34.4234L33.4053 36.9819L28.8292 38.2502L24.2651 36.9835ZM26.3727 32.0181H30.1888L30.061 33.4468L28.8316 33.7785L27.6032 33.4478L27.5243 32.569H26.4179L26.5724 34.2988L28.8305 34.9254L28.8353 34.9238L31.0913 34.2988L31.1076 34.1128L31.3667 31.2123L31.3935 30.9164H27.3808L27.2799 29.7879H31.4976L31.5196 29.5403L31.5701 28.9816L31.5964 28.6862H26.0757L26.3727 32.0181Z" fill="url(#paint6_linear_3169_9147)"/>
</g>
</g>
<defs>
<linearGradient id="paint0_linear_3169_9147" x1="4.35238" y1="6.56943" x2="41.064" y2="44.0009" gradientUnits="userSpaceOnUse">
<stop stop-color="white"/>
<stop offset="1" stop-color="#EAECEE"/>
</linearGradient>
<linearGradient id="paint1_linear_3169_9147" x1="13.699" y1="14.1642" x2="26.7432" y2="31.8075" gradientUnits="userSpaceOnUse">
<stop stop-color="#0195FF"/>
<stop offset="0.991028" stop-color="#1147E9"/>
</linearGradient>
<linearGradient id="paint2_linear_3169_9147" x1="24.9007" y1="24.9226" x2="35.2641" y2="32.3655" gradientUnits="userSpaceOnUse">
<stop stop-color="#1348FF"/>
<stop offset="1" stop-color="#06238D"/>
</linearGradient>
<linearGradient id="paint3_linear_3169_9147" x1="24.9007" y1="24.9226" x2="35.2641" y2="32.3655" gradientUnits="userSpaceOnUse">
<stop stop-color="#1348FF"/>
<stop offset="1" stop-color="#06238D"/>
</linearGradient>
<linearGradient id="paint4_linear_3169_9147" x1="24.9007" y1="24.9226" x2="35.2641" y2="32.3655" gradientUnits="userSpaceOnUse">
<stop stop-color="#1348FF"/>
<stop offset="1" stop-color="#06238D"/>
</linearGradient>
<linearGradient id="paint5_linear_3169_9147" x1="24.9007" y1="24.9226" x2="35.2641" y2="32.3655" gradientUnits="userSpaceOnUse">
<stop stop-color="#1348FF"/>
<stop offset="1" stop-color="#06238D"/>
</linearGradient>
<linearGradient id="paint6_linear_3169_9147" x1="24.9007" y1="24.9226" x2="35.2641" y2="32.3655" gradientUnits="userSpaceOnUse">
<stop stop-color="#1348FF"/>
<stop offset="1" stop-color="#06238D"/>
</linearGradient>
<clipPath id="clip0_3169_9147">
<rect width="48" height="48" fill="white" transform="translate(-0.000488281 0.000244141)"/>
</clipPath>
<clipPath id="clip1_3169_9147">
<rect width="27" height="27" fill="white" transform="translate(9.74951 11.2502)"/>
</clipPath>
</defs>
</svg>
