<svg width="48" height="48" viewBox="0 0 48 48" fill="none" xmlns="http://www.w3.org/2000/svg">
<g clip-path="url(#clip0_3169_9155)">
<circle cx="24" cy="23.7573" r="23.5714" fill="url(#paint0_linear_3169_9155)" stroke="#D5DADD" stroke-width="0.857143"/>
<path fill-rule="evenodd" clip-rule="evenodd" d="M11.5547 17.3066C10.8516 18.9238 10.5 20.6641 10.5 22.5273C10.5 22.8139 10.5083 23.0979 10.5249 23.3795C10.5636 24.0346 11.1267 24.517 11.7829 24.517V24.517C12.6103 24.517 13.2248 23.7618 13.1963 22.9349C13.1917 22.8018 13.1895 22.6665 13.1895 22.5273C13.1895 22.1406 13.207 21.7891 13.2422 21.4727C13.2773 21.1211 13.3301 20.7695 13.4004 20.418H18.041L17.9355 21.4727C17.9004 21.7891 17.8828 22.1406 17.8828 22.5273C17.8828 22.8388 17.8981 23.1313 17.9212 23.4216C17.9709 24.0447 18.5046 24.517 19.1297 24.517V24.517C19.8937 24.517 20.461 23.8201 20.4258 23.057C20.4178 22.8847 20.4141 22.7092 20.4141 22.5273C20.4141 22.1406 20.4316 21.7891 20.4668 21.4727C20.502 21.1211 20.5547 20.7695 20.625 20.418H27.0059C27.1113 21.0859 27.1641 21.7891 27.1641 22.5273C27.1641 22.7138 27.1604 22.9002 27.1529 23.0866C27.1228 23.8447 27.7014 24.517 28.4602 24.517V24.517C29.1062 24.517 29.6497 24.024 29.6769 23.3786C29.6889 23.0939 29.6953 22.8094 29.6953 22.5273C29.6953 22.1406 29.6777 21.7891 29.6426 21.4727C29.6426 21.1211 29.625 20.7695 29.5898 20.418H34.5996C34.6699 20.7695 34.7227 21.1211 34.7578 21.4727C34.793 21.7891 34.8105 22.1406 34.8105 22.5273C34.8105 22.6665 34.8083 22.8018 34.8037 22.9349C34.7752 23.7618 35.3897 24.517 36.2171 24.517V24.517C36.8733 24.517 37.4364 24.0346 37.4751 23.3795C37.4917 23.0979 37.5 22.8139 37.5 22.5273C37.5 20.6641 37.1484 18.9238 36.4453 17.3066C35.7422 15.6543 34.7754 14.2129 33.5449 12.9824C32.3145 11.752 30.873 10.7852 29.2207 10.082C27.6035 9.37891 25.8633 9.02734 24 9.02734C22.1367 9.02734 20.3789 9.37891 18.7266 10.082C17.1094 10.7852 15.6855 11.752 14.4551 12.9824C13.2246 14.2129 12.2578 15.6543 11.5547 17.3066ZM27.7441 14.7227C27.2168 13.7383 26.6016 12.8066 25.8984 11.9277C27.6211 12.209 29.168 12.877 30.5391 13.9316C31.9102 14.9863 32.9824 16.3047 33.7559 17.8867H29.0625C28.7461 16.7617 28.3066 15.707 27.7441 14.7227ZM21.6797 11.9805C20.2383 13.7383 19.2012 15.707 18.5684 17.8867H14.2441C14.9473 16.4102 15.9492 15.1621 17.25 14.1426C18.5508 13.0879 20.0273 12.3672 21.6797 11.9805ZM23.7891 13.2988C24.9492 14.5996 25.8281 16.1289 26.4258 17.8867H21.2051C21.8027 16.1641 22.6641 14.6348 23.7891 13.2988Z" fill="url(#paint1_linear_3169_9155)"/>
<path d="M31.2776 35.4878C31.0276 35.4878 30.8118 35.3989 30.6303 35.2212C30.4487 35.0434 30.3579 34.8264 30.3579 34.5703L30.3579 28.1295C30.3579 27.628 30.7644 27.2214 31.2659 27.2214C31.3335 27.2214 31.3993 27.2288 31.4627 27.2428C31.6916 27.2712 31.9097 27.3868 32.0629 27.583L35.6837 32.2188L35.6836 28.1295C35.6836 27.628 36.0902 27.2214 36.5917 27.2214C37.0932 27.2214 37.4998 27.628 37.4998 28.1295L37.4998 34.5703C37.4998 34.8264 37.4129 35.0434 37.2391 35.2212C37.1803 35.2813 37.1171 35.3313 37.0496 35.3711C37.0398 35.3795 37.0298 35.3876 37.0195 35.3956C36.6266 35.7025 36.0594 35.6327 35.7526 35.2399L32.174 30.658L32.1741 34.5703C32.1741 34.8264 32.0872 35.0434 31.9134 35.2212C31.7396 35.3989 31.5277 35.4878 31.2776 35.4878Z" fill="url(#paint2_linear_3169_9155)"/>
<path d="M11.4198 35.5381C11.1698 35.5381 10.954 35.4492 10.7724 35.2714C10.5908 35.0937 10.5 34.8767 10.5 34.6206L10.5 28.1798C10.5 27.6783 10.9066 27.2717 11.4081 27.2717C11.9096 27.2717 12.3161 27.6782 12.3161 28.1798L12.3162 34.6206C12.3162 34.8767 12.2293 35.0937 12.0555 35.2714C11.8817 35.4492 11.6698 35.5381 11.4198 35.5381Z" fill="url(#paint3_linear_3169_9155)"/>
<path fill-rule="evenodd" clip-rule="evenodd" d="M13.8718 35.2288C14.078 35.435 14.3478 35.5381 14.681 35.5381H19.4711C19.8489 35.5381 20.1522 35.4239 20.3807 35.1953C20.6093 34.9668 20.7235 34.6636 20.7235 34.2857V32.6574C20.7235 32.2574 20.6093 31.9487 20.3807 31.7312C20.1522 31.5137 19.8489 31.4049 19.4711 31.4049C19.8489 31.4049 20.1522 31.2962 20.3807 31.0787C20.6093 30.8612 20.7235 30.5524 20.7235 30.1524V28.5242C20.7235 28.1463 20.6093 27.8431 20.3807 27.6145C20.1522 27.386 19.8489 27.2717 19.4711 27.2717H14.681C14.3478 27.2717 14.078 27.3748 13.8718 27.581C13.6656 27.7872 13.5625 28.057 13.5625 28.3902V34.4196C13.5625 34.7529 13.6656 35.0226 13.8718 35.2288ZM15.5667 30.601C15.4733 30.601 15.3975 30.5252 15.3975 30.4318V29.2759C15.3975 29.1825 15.4733 29.1067 15.5667 29.1067H18.7193C18.8128 29.1067 18.8885 29.1825 18.8885 29.2759V30.4318C18.8885 30.5252 18.8128 30.601 18.7193 30.601H15.5667ZM15.5667 33.7031C15.4733 33.7031 15.3975 33.6274 15.3975 33.5339V32.3781C15.3975 32.2846 15.4733 32.2088 15.5667 32.2088H18.7193C18.8128 32.2088 18.8885 32.2846 18.8885 32.3781V33.5339C18.8885 33.6274 18.8128 33.7031 18.7193 33.7031H15.5667Z" fill="url(#paint4_linear_3169_9155)"/>
<path fill-rule="evenodd" clip-rule="evenodd" d="M22.8894 35.5381C22.6394 35.5381 22.4236 35.4493 22.242 35.2715C22.0605 35.0937 21.9697 34.8768 21.9697 34.6206V28.5242C21.9697 28.1463 22.084 27.8431 22.3125 27.6145C22.5411 27.386 22.8443 27.2717 23.2222 27.2717H27.8782C28.2508 27.2717 28.5495 27.386 28.7744 27.6145C28.9994 27.8431 29.1118 28.1463 29.1118 28.5242V34.6206C29.1118 34.8768 29.0249 35.0937 28.8511 35.2715C28.6773 35.4493 28.4654 35.5381 28.2154 35.5381C27.9654 35.5381 27.7496 35.4493 27.568 35.2715C27.3865 35.0937 27.2957 34.8768 27.2957 34.6206V32.9589H23.7858V34.6206C23.7858 34.8768 23.6989 35.0937 23.5251 35.2715C23.3513 35.4493 23.1394 35.5381 22.8894 35.5381ZM27.2957 30.9546C27.2957 31.0481 27.2199 31.1238 27.1265 31.1238H23.955C23.8616 31.1238 23.7858 31.0481 23.7858 30.9546V29.2759C23.7858 29.1825 23.8616 29.1067 23.955 29.1067H27.1265C27.2199 29.1067 27.2957 29.1825 27.2957 29.2759V30.9546Z" fill="url(#paint5_linear_3169_9155)"/>
</g>
<defs>
<linearGradient id="paint0_linear_3169_9155" x1="4.35287" y1="6.57017" x2="41.0645" y2="44.0016" gradientUnits="userSpaceOnUse">
<stop stop-color="white"/>
<stop offset="1" stop-color="#EAECEE"/>
</linearGradient>
<linearGradient id="paint1_linear_3169_9155" x1="14.5474" y1="11.3437" x2="23.9085" y2="27.6668" gradientUnits="userSpaceOnUse">
<stop stop-color="#0195FF"/>
<stop offset="0.991028" stop-color="#1147E9"/>
</linearGradient>
<linearGradient id="paint2_linear_3169_9155" x1="14.4917" y1="28.4522" x2="17.7902" y2="39.1438" gradientUnits="userSpaceOnUse">
<stop stop-color="#1348FF"/>
<stop offset="1" stop-color="#06238D"/>
</linearGradient>
<linearGradient id="paint3_linear_3169_9155" x1="14.4917" y1="28.4522" x2="17.7902" y2="39.1438" gradientUnits="userSpaceOnUse">
<stop stop-color="#1348FF"/>
<stop offset="1" stop-color="#06238D"/>
</linearGradient>
<linearGradient id="paint4_linear_3169_9155" x1="14.4917" y1="28.4522" x2="17.7902" y2="39.1438" gradientUnits="userSpaceOnUse">
<stop stop-color="#1348FF"/>
<stop offset="1" stop-color="#06238D"/>
</linearGradient>
<linearGradient id="paint5_linear_3169_9155" x1="14.4917" y1="28.4522" x2="17.7902" y2="39.1438" gradientUnits="userSpaceOnUse">
<stop stop-color="#1348FF"/>
<stop offset="1" stop-color="#06238D"/>
</linearGradient>
<clipPath id="clip0_3169_9155">
<rect width="48" height="48" fill="white" transform="translate(0 0.000976562)"/>
</clipPath>
</defs>
</svg>
