<svg width="48" height="48" viewBox="0 0 48 48" fill="none" xmlns="http://www.w3.org/2000/svg">
<g clip-path="url(#clip0_3202_18593)">
<circle cx="24" cy="24.3677" r="23.5714" fill="url(#paint0_linear_3202_18593)" stroke="#D5DADD" stroke-width="0.857142"/>
<path fill-rule="evenodd" clip-rule="evenodd" d="M16.9758 19.3284C17.4827 15.6891 20.5254 12.2031 24.8078 12.2031C28.2147 12.2031 30.7653 14.1142 32.1394 16.9557C35.5673 17.2795 38.4146 20.3411 38.4146 24.3251C38.4146 28.6014 35.3188 31.3595 31.7701 31.6644V22.6916L34.3397 25.2613C34.6692 25.5908 35.2035 25.5908 35.533 25.2613C35.8625 24.9318 35.8625 24.3975 35.533 24.068L31.5229 20.058C31.1934 19.7285 30.6592 19.7285 30.3297 20.058L26.3197 24.068C25.9902 24.3975 25.9902 24.9318 26.3197 25.2613C26.6492 25.5908 27.1834 25.5908 27.5129 25.2613L30.0826 22.6916V31.6807H26.6797C26.6607 31.6526 26.6414 31.6247 26.6219 31.5968C26.2112 31.0101 25.7302 30.5051 25.1825 30.0863L25.1875 30.0751L25.1918 30.0649C25.4653 29.4185 25.6 28.7364 25.6 28.0326C25.6 27.3288 25.4653 26.6467 25.1918 26.0003C24.9255 25.3708 24.5459 24.8126 24.0554 24.3393C23.5821 23.8488 23.0239 23.4692 22.3944 23.2029C21.748 22.9294 21.0659 22.7947 20.3621 22.7947C19.6583 22.7947 18.9763 22.9294 18.3298 23.2029C17.6954 23.4713 17.1302 23.8523 16.643 24.3395C16.1659 24.8167 15.7967 25.3757 15.5324 26.0003C15.2589 26.6467 15.1242 27.3288 15.1242 28.0326C15.1242 28.7742 15.2602 29.4724 15.5348 30.1101C15.503 30.1352 15.4715 30.1606 15.4402 30.1863C15.1374 30.4247 14.8577 30.6867 14.6016 30.9712C14.0575 30.6959 13.5692 30.3409 13.1463 29.9069C12.0066 28.7374 11.499 27.1557 11.499 25.4822C11.499 23.6816 12.1591 21.9741 13.4372 20.7977C14.3819 19.9281 15.5983 19.4104 16.9758 19.3284Z" fill="url(#paint1_linear_3202_18593)"/>
<path d="M22.9834 30.6048C23.9547 30.9864 24.744 31.6108 25.3511 32.4781C25.9582 33.3454 26.2617 34.3254 26.2617 35.4182V36.9013C26.2617 37.1095 26.1837 37.2829 26.0275 37.4217C25.8888 37.5604 25.724 37.6298 25.5332 37.6298H24.0501C23.842 37.6298 23.6598 37.5604 23.5037 37.4217C23.365 37.2829 23.2956 37.1095 23.2956 36.9013C23.2956 36.6932 23.365 36.5197 23.5037 36.3809C23.6598 36.2248 23.842 36.1468 24.0501 36.1468H24.7786V35.4182C24.7786 34.9152 24.6832 34.4382 24.4924 33.9872C24.3016 33.5362 24.0328 33.1459 23.6859 32.8164C23.3563 32.4694 22.966 32.2006 22.515 32.0098C22.0814 31.819 21.6044 31.7236 21.084 31.7236H19.6269C19.1066 31.7236 18.6209 31.819 18.1699 32.0098C17.7362 32.2006 17.346 32.4694 16.9991 32.8164C16.6695 33.1459 16.4093 33.5362 16.2185 33.9872C16.0277 34.4382 15.9323 34.9152 15.9323 35.4182V36.1468H16.6608C16.869 36.1468 17.0424 36.2248 17.1812 36.3809C17.3199 36.5197 17.3893 36.6932 17.3893 36.9013C17.3893 37.1095 17.3199 37.2829 17.1812 37.4217C17.0424 37.5604 16.869 37.6298 16.6608 37.6298H15.1777C14.9869 37.6298 14.8135 37.5604 14.6574 37.4217C14.5186 37.2829 14.4492 37.1095 14.4492 36.9013V35.4182C14.4492 34.8632 14.5273 34.3428 14.6834 33.8571C14.8568 33.3541 15.0823 32.8944 15.3599 32.4781C15.6548 32.0618 16.0017 31.6975 16.4006 31.3853C16.7996 31.0557 17.2419 30.7956 17.7276 30.6048C17.0164 29.9283 16.6608 29.0696 16.6608 28.0289C16.6608 27.5259 16.7562 27.0489 16.947 26.5979C17.1378 26.1469 17.398 25.7566 17.7276 25.427C18.0745 25.0801 18.4734 24.8112 18.9244 24.6204C19.3754 24.4296 19.8524 24.3342 20.3555 24.3342C20.8585 24.3342 21.3355 24.4296 21.7865 24.6204C22.2375 24.8112 22.6278 25.0801 22.9573 25.427C23.3043 25.7566 23.5731 26.1469 23.7639 26.5979C23.9547 27.0489 24.0501 27.5259 24.0501 28.0289C24.0501 28.5319 23.9547 29.0089 23.7639 29.4599C23.5731 29.8936 23.3129 30.2752 22.9834 30.6048ZM20.3555 25.8173C19.7484 25.8173 19.228 26.0341 18.7943 26.4678C18.3607 26.9014 18.1439 27.4218 18.1439 28.0289C18.1439 28.636 18.3607 29.1564 18.7943 29.59C19.228 30.0237 19.7484 30.2405 20.3555 30.2405C20.9626 30.2405 21.4829 30.0237 21.9166 29.59C22.3502 29.1564 22.5671 28.636 22.5671 28.0289C22.5671 27.4218 22.3502 26.9014 21.9166 26.4678C21.4829 26.0341 20.9626 25.8173 20.3555 25.8173Z" fill="url(#paint2_linear_3202_18593)"/>
</g>
<defs>
<linearGradient id="paint0_linear_3202_18593" x1="4.35286" y1="7.18051" x2="41.0644" y2="44.6119" gradientUnits="userSpaceOnUse">
<stop stop-color="white"/>
<stop offset="1" stop-color="#EAECEE"/>
</linearGradient>
<linearGradient id="paint1_linear_3202_18593" x1="15.5338" y1="15.1159" x2="28.4869" y2="33.0217" gradientUnits="userSpaceOnUse">
<stop stop-color="#0195FF"/>
<stop offset="0.991028" stop-color="#1147E9"/>
</linearGradient>
<linearGradient id="paint2_linear_3202_18593" x1="16.1956" y1="26.2903" x2="25.4404" y2="34.5393" gradientUnits="userSpaceOnUse">
<stop stop-color="#1348FF"/>
<stop offset="1" stop-color="#06238D"/>
</linearGradient>
<clipPath id="clip0_3202_18593">
<rect width="48" height="48" fill="white" transform="translate(0 0.000976562)"/>
</clipPath>
</defs>
</svg>
