<svg width="48" height="48" viewBox="0 0 48 48" fill="none" xmlns="http://www.w3.org/2000/svg">
<g clip-path="url(#clip0_3169_9211)">
<circle cx="23.999" cy="24.3677" r="23.5714" fill="url(#paint0_linear_3169_9211)" stroke="#D5DADD" stroke-width="0.857142"/>
<g clip-path="url(#clip1_3169_9211)">
<path d="M23.3406 21.8002C22.9193 21.8002 22.7086 21.9845 22.7086 22.3532C22.7086 22.7218 22.9193 22.9062 23.3406 22.9062H24.6046C25.5175 22.9062 26.2724 23.1827 26.8693 23.7357C27.5013 24.258 27.8173 24.9185 27.8173 25.7173C27.8173 26.4546 27.5891 27.0844 27.1327 27.6067C26.6762 28.0983 26.0618 28.4055 25.2893 28.5284V29.6344C25.2893 30.4025 24.8504 30.7865 23.9726 30.7865C23.5864 30.7865 23.2704 30.679 23.0246 30.4639C22.814 30.2489 22.7086 29.9724 22.7086 29.6344V28.5284H21.4446C21.0584 28.5284 20.7424 28.4362 20.4966 28.2519C20.2508 28.0368 20.1279 27.7603 20.1279 27.4224C20.1279 26.6543 20.5668 26.2703 21.4446 26.2703H24.6046C25.0611 26.2703 25.2893 26.086 25.2893 25.7173C25.2893 25.3486 25.0611 25.1643 24.6046 25.1643H23.3406C22.4277 25.1643 21.6553 24.9031 21.0233 24.3808C20.4264 23.8278 20.1279 23.1519 20.1279 22.3532C20.1279 21.6465 20.3562 21.0321 20.8126 20.5098C21.3042 19.9875 21.9362 19.6649 22.7086 19.542V18.436C22.7086 18.0981 22.814 17.8369 23.0246 17.6526C23.2704 17.4375 23.5864 17.33 23.9726 17.33C24.3589 17.33 24.6749 17.4375 24.9206 17.6526C25.1664 17.8369 25.2893 18.0981 25.2893 18.436V19.542H26.5533C27.396 19.542 27.8173 19.9261 27.8173 20.6941C27.8173 21.0321 27.6945 21.3086 27.4487 21.5236C27.238 21.708 26.9396 21.8002 26.5533 21.8002H23.3406Z" fill="url(#paint1_linear_3169_9211)"/>
<path d="M32.3311 22.2862C32.6475 22.5323 32.9639 22.6553 33.2803 22.6553C33.5967 22.6553 33.9131 22.5323 34.2295 22.2862L37.0772 19.3858C37.3584 19.1045 37.499 18.7881 37.499 18.4366C37.499 18.0498 37.3584 17.7159 37.0772 17.4346C36.8311 17.1885 36.5147 17.0655 36.1279 17.0655C35.7764 17.0655 35.46 17.2061 35.1787 17.4873L34.6514 18.0674L34.6514 16.1907C34.6514 14.8547 34.1943 13.7297 33.2803 12.8157C32.3311 11.9016 31.2061 11.4446 29.9053 11.4446L26.6505 11.4446C26.2637 11.4446 25.9473 11.5676 25.7012 11.8137C25.4551 12.095 25.3321 12.429 25.3321 12.8157C25.3321 13.2024 25.4551 13.5188 25.7012 13.7649C25.9473 14.011 26.2637 14.134 26.6505 14.134L29.9053 14.134C30.4678 14.134 30.9424 14.3274 31.3291 14.7141C31.7158 15.1008 31.9092 15.593 31.9092 16.1907L31.9092 18.0674L31.3818 17.4873C31.1006 17.2061 30.7842 17.0655 30.4326 17.0655C30.0459 17.0655 29.7119 17.2061 29.4307 17.4873C29.1846 17.8038 29.0615 18.1026 29.0615 18.3838C29.0615 18.8057 29.2022 19.1397 29.4834 19.3858L32.3311 22.2862Z" fill="url(#paint2_linear_3169_9211)"/>
<path d="M33.2807 25.3696C33.6674 25.3696 33.9838 25.5103 34.2299 25.7915C34.5111 26.0376 34.6518 26.354 34.6518 26.7407L34.6518 33.4669C34.6518 34.3106 34.353 35.0313 33.7553 35.629C33.1576 36.2266 32.4369 36.5254 31.5932 36.5254L26.7277 36.5254C26.341 36.5254 26.007 36.4024 25.7257 36.1563C25.4796 35.875 25.3566 35.541 25.3566 35.1543C25.3566 34.7676 25.4796 34.4512 25.7257 34.2051C26.007 33.959 26.341 33.836 26.7277 33.836L31.5932 33.836C31.8393 33.836 31.9623 33.713 31.9623 33.4669L31.9623 26.7407C31.9623 26.354 32.0854 26.0376 32.3314 25.7915C32.5775 25.5103 32.8939 25.3696 33.2807 25.3696Z" fill="url(#paint3_linear_3169_9211)"/>
<path d="M14.8013 25.3467C15.1177 25.3467 15.4341 25.4698 15.7505 25.7159L18.5981 28.6163C18.8794 28.8624 19.02 29.1963 19.02 29.6182C19.02 29.8995 18.897 30.1983 18.6509 30.5147C18.3696 30.7959 18.0356 30.9366 17.6489 30.9366C17.2974 30.9366 16.981 30.7959 16.6997 30.5147L16.1724 29.9346L16.1724 31.8114C16.1724 32.409 16.3657 32.9012 16.7524 33.2879C17.1392 33.6746 17.6138 33.868 18.1763 33.868L21.3315 33.868C21.7182 33.868 22.0346 33.9911 22.2807 34.2372C22.5268 34.4833 22.6499 34.7997 22.6499 35.1864C22.6499 35.5731 22.5268 35.9071 22.2807 36.1883C22.0346 36.4344 21.7182 36.5575 21.3315 36.5575L18.1763 36.5575C16.8755 36.5575 15.7505 36.1004 14.8013 35.1864C13.8872 34.2723 13.4302 33.1473 13.4302 31.8114L13.4302 29.9346L12.9028 30.5147C12.6216 30.7959 12.3052 30.9366 11.9536 30.9366C11.5669 30.9366 11.2505 30.8135 11.0044 30.5674C10.7231 30.2862 10.5825 29.9522 10.5825 29.5655C10.5825 29.2139 10.7231 28.8975 11.0044 28.6163L13.852 25.7159C14.1685 25.4698 14.4849 25.3467 14.8013 25.3467Z" fill="url(#paint4_linear_3169_9211)"/>
<path d="M20.6299 14.1464C20.4582 14.1464 20.3182 14.2296 20.2131 14.3269C20.0293 14.4972 19.9861 14.7599 19.9861 15.0105V16.3368C19.9861 16.9097 19.7814 17.4008 19.3722 17.81C18.963 18.2192 18.4583 18.4238 17.8581 18.4238H16.84C16.6398 18.4238 16.4486 18.5068 16.3119 18.653C16.1866 18.787 16.117 18.9635 16.117 19.1469V21.2724C16.117 22.0169 15.5134 22.6204 14.769 22.6204C14.0245 22.6204 13.421 22.0169 13.421 21.2724V17.872C13.421 17.5719 13.5164 17.3264 13.7074 17.1354L18.6356 11.772C18.8539 11.5537 19.0994 11.4446 19.3722 11.4446H21.272C22.0181 11.4446 22.623 12.0494 22.623 12.7955C22.623 13.5416 22.0181 14.1464 21.272 14.1464H20.6299Z" fill="url(#paint5_linear_3169_9211)"/>
</g>
</g>
<defs>
<linearGradient id="paint0_linear_3169_9211" x1="4.35189" y1="7.18051" x2="41.0635" y2="44.6119" gradientUnits="userSpaceOnUse">
<stop stop-color="white"/>
<stop offset="1" stop-color="#EAECEE"/>
</linearGradient>
<linearGradient id="paint1_linear_3169_9211" x1="21.2648" y1="19.3098" x2="29.396" y2="23.9763" gradientUnits="userSpaceOnUse">
<stop stop-color="#1348FF"/>
<stop offset="1" stop-color="#06238D"/>
</linearGradient>
<linearGradient id="paint2_linear_3169_9211" x1="14.6174" y1="15.2001" x2="32.1587" y2="34.0077" gradientUnits="userSpaceOnUse">
<stop stop-color="#0195FF"/>
<stop offset="0.991028" stop-color="#1147E9"/>
</linearGradient>
<linearGradient id="paint3_linear_3169_9211" x1="14.6174" y1="15.2001" x2="32.1587" y2="34.0077" gradientUnits="userSpaceOnUse">
<stop stop-color="#0195FF"/>
<stop offset="0.991028" stop-color="#1147E9"/>
</linearGradient>
<linearGradient id="paint4_linear_3169_9211" x1="14.6174" y1="15.2001" x2="32.1587" y2="34.0077" gradientUnits="userSpaceOnUse">
<stop stop-color="#0195FF"/>
<stop offset="0.991028" stop-color="#1147E9"/>
</linearGradient>
<linearGradient id="paint5_linear_3169_9211" x1="14.6174" y1="15.2001" x2="32.1587" y2="34.0077" gradientUnits="userSpaceOnUse">
<stop stop-color="#0195FF"/>
<stop offset="0.991028" stop-color="#1147E9"/>
</linearGradient>
<clipPath id="clip0_3169_9211">
<rect width="48" height="48" fill="white" transform="translate(0 0.000976562)"/>
</clipPath>
<clipPath id="clip1_3169_9211">
<rect width="27" height="27" fill="white" transform="translate(10.499 10.501)"/>
</clipPath>
</defs>
</svg>
