<svg width="48" height="48" viewBox="0 0 48 48" fill="none" xmlns="http://www.w3.org/2000/svg">
<circle cx="24" cy="24" r="23.5714" fill="url(#paint0_linear_3232_4602)" stroke="#D5DADD" stroke-width="0.857143"/>
<g clip-path="url(#clip0_3232_4602)">
<path fill-rule="evenodd" clip-rule="evenodd" d="M15.7505 16.6677C16.7249 13.3362 19.7974 10.4961 23.8677 10.4961C27.1635 10.4961 29.7341 12.1446 31.2561 14.6288C34.6396 15.3001 37.3677 18.3217 37.3677 22.2317C37.3677 25.5855 35.4949 27.9837 33.0248 29.1492C33.1136 28.8507 33.1613 28.5344 33.1613 28.207V26.9838C33.1613 26.1589 32.8586 25.4048 32.3583 24.8263C33.0091 24.2237 33.4165 23.3618 33.4165 22.4049V21.4896C33.4165 19.6673 31.9393 18.1901 30.117 18.1901H29.2066C28.1993 18.1901 27.2973 18.6415 26.6921 19.3531V18.5893C26.6921 16.767 25.2149 15.2898 23.3926 15.2898H22.4822C20.66 15.2898 19.1827 16.767 19.1827 18.5893V19.5046C19.1827 19.7497 19.2095 19.9885 19.2602 20.2184C19.2283 20.2175 19.1962 20.217 19.1641 20.217H18.2537C16.4315 20.217 14.9542 21.6942 14.9542 23.5165V24.4318C14.9542 25.9179 15.9368 27.1746 17.2877 27.5876C16.7921 28.1649 16.4926 28.9154 16.4926 29.7359V29.8628C14.9897 29.6664 13.6159 29.0824 12.5453 28.0355C11.1953 26.7156 10.6321 24.9569 10.6321 23.2097C10.6321 21.2877 11.3765 19.4126 12.8612 18.1106C13.6882 17.3852 14.6736 16.9 15.7505 16.6677Z" fill="url(#paint1_linear_3232_4602)"/>
<path fill-rule="evenodd" clip-rule="evenodd" d="M23.3926 16.6401C24.4693 16.6401 25.3421 17.513 25.3421 18.5896V19.5049C25.3421 20.1056 25.0704 20.6428 24.6433 21.0004L25.0134 22.2138C25.4992 22.2432 25.9369 22.4504 26.2624 22.7712L27.2571 22.1961V21.4899C27.2571 20.4132 28.1299 19.5404 29.2066 19.5404H30.117C31.1937 19.5404 32.0665 20.4132 32.0665 21.4899V22.4052C32.0665 23.4819 31.1937 24.3547 30.117 24.3547H29.2066C28.6784 24.3547 28.1993 24.1447 27.8482 23.8036L26.8613 24.3742L26.8434 24.3433V25.0701C26.8434 25.0745 26.8434 25.079 26.8434 25.0834L27.4237 25.4637C27.7577 25.1953 28.1821 25.0347 28.6439 25.0347H29.8617C30.9384 25.0347 31.8112 25.9075 31.8112 26.9842V28.2074C31.8112 29.2841 30.9384 30.1569 29.8617 30.1569H28.6439C27.5672 30.1569 26.6944 29.2841 26.6944 28.2074V27.0033L26.0916 26.6084C25.7611 26.866 25.3455 27.0196 24.8939 27.0196H23.9835C23.9298 27.0196 23.8766 27.0174 23.8239 27.0131L22.4461 28.8633C22.5778 29.1259 22.6519 29.4224 22.6519 29.7362V30.6515C22.6519 31.7282 21.7791 32.601 20.7024 32.601H19.7921C18.7154 32.601 17.8426 31.7282 17.8426 30.6515L17.8426 29.7362C17.8426 28.6596 18.7154 27.7867 19.7921 27.7867H20.7024C20.8428 27.7867 20.9798 27.8016 21.1117 27.8298L22.3614 26.1518C22.1546 25.8422 22.034 25.4702 22.034 25.0701V25.0445L21.0155 25.0445C20.7587 25.8212 20.0268 26.3817 19.1641 26.3817H18.2537C17.177 26.3817 16.3042 25.5089 16.3042 24.4322V23.5169C16.3042 22.4402 17.177 21.5674 18.2537 21.5674H19.1641C20.1869 21.5674 21.0258 22.3551 21.1071 23.357L22.2064 23.357C22.4174 22.8906 22.8066 22.5221 23.2871 22.3383L23.0175 21.4544H22.4822C21.4055 21.4544 20.5327 20.5816 20.5327 19.5049V18.5896C20.5327 17.513 21.4055 16.6401 22.4822 16.6401H23.3926ZM23.6546 18.5896C23.6546 18.4449 23.5373 18.3276 23.3926 18.3276L22.4822 18.3276C22.3375 18.3276 22.2202 18.4449 22.2202 18.5896V19.5049C22.2202 19.6496 22.3375 19.7669 22.4822 19.7669H23.3926C23.5373 19.7669 23.6546 19.6496 23.6546 19.5049V18.5896ZM30.379 21.4899C30.379 21.3452 30.2617 21.2279 30.117 21.2279H29.2066C29.0619 21.2279 28.9446 21.3452 28.9446 21.4899V22.4052C28.9446 22.5499 29.0619 22.6672 29.2066 22.6672H30.117C30.2617 22.6672 30.379 22.5499 30.379 22.4052V21.4899ZM30.1237 26.9842C30.1237 26.8395 30.0064 26.7222 29.8617 26.7222H28.6439C28.4992 26.7222 28.3819 26.8395 28.3819 26.9842V28.2074C28.3819 28.3521 28.4992 28.4694 28.6439 28.4694H29.8617C30.0064 28.4694 30.1237 28.3521 30.1237 28.2074V26.9842ZM24.8939 23.8977C25.0386 23.8977 25.1559 24.015 25.1559 24.1597V25.0701C25.1559 25.2148 25.0386 25.3321 24.8939 25.3321H23.9835C23.8388 25.3321 23.7215 25.2148 23.7215 25.0701V24.1597C23.7215 24.015 23.8388 23.8977 23.9835 23.8977H24.8939ZM19.1641 23.2549C19.3088 23.2549 19.4261 23.3722 19.4261 23.5169V24.4322C19.4261 24.5769 19.3088 24.6942 19.1641 24.6942H18.2537C18.109 24.6942 17.9917 24.5769 17.9917 24.4322L17.9917 23.5169C17.9917 23.3722 18.109 23.2549 18.2537 23.2549H19.1641ZM20.9644 29.7362C20.9644 29.5915 20.8471 29.4742 20.7024 29.4742H19.7921C19.6474 29.4742 19.5301 29.5915 19.5301 29.7362V30.6515C19.5301 30.7962 19.6474 30.9135 19.7921 30.9135H20.7024C20.8471 30.9135 20.9644 30.7962 20.9644 30.6515V29.7362Z" fill="url(#paint2_linear_3232_4602)"/>
<path fill-rule="evenodd" clip-rule="evenodd" d="M13.3106 30.8608C13.963 30.8608 14.4919 31.3897 14.4919 32.0421V33.3729C14.4919 34.2117 15.1719 34.8916 16.0106 34.8916H31.9899C32.8287 34.8916 33.5086 34.2117 33.5086 33.3729V32.0421C33.5086 31.3897 34.0375 30.8608 34.6899 30.8608C35.3423 30.8608 35.8712 31.3897 35.8712 32.0421V33.3729C35.8712 35.5164 34.1335 37.2541 31.9899 37.2541H16.0106C13.8671 37.2541 12.1294 35.5164 12.1294 33.3729V32.0421C12.1294 31.3897 12.6583 30.8608 13.3106 30.8608ZM30.815 33.3321C31.3742 33.3321 31.8275 32.8788 31.8275 32.3196C31.8275 31.7604 31.3742 31.3071 30.815 31.3071C30.2558 31.3071 29.8025 31.7604 29.8025 32.3196C29.8025 32.8788 30.2558 33.3321 30.815 33.3321ZM28.7261 32.3196C28.7261 32.8788 28.2727 33.3321 27.7136 33.3321C27.1544 33.3321 26.7011 32.8788 26.7011 32.3196C26.7011 31.7604 27.1544 31.3071 27.7136 31.3071C28.2727 31.3071 28.7261 31.7604 28.7261 32.3196Z" fill="url(#paint3_linear_3232_4602)"/>
</g>
<defs>
<linearGradient id="paint0_linear_3232_4602" x1="4.35287" y1="6.81284" x2="41.0645" y2="44.2443" gradientUnits="userSpaceOnUse">
<stop stop-color="white"/>
<stop offset="1" stop-color="#EAECEE"/>
</linearGradient>
<linearGradient id="paint1_linear_3232_4602" x1="14.6399" y1="13.3923" x2="27.5233" y2="31.184" gradientUnits="userSpaceOnUse">
<stop stop-color="#0195FF"/>
<stop offset="0.991028" stop-color="#1147E9"/>
</linearGradient>
<linearGradient id="paint2_linear_3232_4602" x1="18.6345" y1="18.9883" x2="29.8044" y2="30.0667" gradientUnits="userSpaceOnUse">
<stop stop-color="#1348FF"/>
<stop offset="1" stop-color="#06238D"/>
</linearGradient>
<linearGradient id="paint3_linear_3232_4602" x1="15.6395" y1="31.8014" x2="17.8779" y2="40.1499" gradientUnits="userSpaceOnUse">
<stop stop-color="#1348FF"/>
<stop offset="1" stop-color="#06238D"/>
</linearGradient>
<clipPath id="clip0_3232_4602">
<rect width="27" height="27" fill="white" transform="translate(10.5 10.5)"/>
</clipPath>
</defs>
</svg>
