<svg width="48" height="48" viewBox="0 0 48 48" fill="none" xmlns="http://www.w3.org/2000/svg">
<g clip-path="url(#clip0_3169_9199)">
<circle cx="24" cy="24.3677" r="23.5714" fill="url(#paint0_linear_3169_9199)" stroke="#D5DADD" stroke-width="0.857142"/>
<g clip-path="url(#clip1_3169_9199)">
<path d="M26.961 27.4258L16.6795 27.4258C15.9102 27.4258 15.2548 27.6923 14.7134 28.2255C14.1721 28.7586 13.9014 29.4282 13.9014 30.2344L13.9014 35.1756C13.9014 35.4552 14.1281 35.6819 14.4076 35.6819L25.9708 35.6819C25.8972 35.4452 25.8604 35.1983 25.8604 34.9496V33.2431C25.8604 32.6307 26.0836 32.0316 26.5249 31.5671C26.4275 31.4668 26.3357 31.3545 26.2522 31.2291L26.149 31.0744L26.0758 30.9036C25.9429 30.5935 25.8604 30.2427 25.8604 29.8646C25.8604 29.5405 25.9243 29.2578 25.9987 29.0346L26.0366 28.921L26.0876 28.8127C26.3253 28.3076 26.6168 27.8437 26.961 27.4258Z" fill="url(#paint1_linear_3169_9199)"/>
<path d="M33.4913 30.8477C33.3048 30.6612 33.2223 30.4236 33.2223 30.1794C33.2223 29.9353 33.3048 29.6976 33.4913 29.5112C33.5267 29.4758 33.5641 29.4434 33.6034 29.414C33.4734 29.3215 33.3363 29.2393 33.1919 29.1671C32.7781 28.9602 32.3498 28.8585 31.9014 28.8585C31.2911 28.8585 30.7538 29.0122 30.276 29.3145C29.8015 29.6147 29.4428 30.0229 29.1955 30.551C29.1207 30.7371 28.991 30.894 28.8086 30.9982L28.7842 31.0122C28.6414 31.0835 28.4884 31.1166 28.3333 31.1166C28.2688 31.1166 28.1976 31.1128 28.1264 31.0998C28.0743 31.0904 28.0019 31.0725 27.9264 31.0342C27.7688 30.9679 27.6219 30.861 27.5156 30.7016L27.4899 30.6629L27.4716 30.6202C27.4125 30.4823 27.3789 30.3343 27.3789 30.1794C27.3789 30.0554 27.4035 29.9373 27.4394 29.8297L27.452 29.7918L27.4616 29.7743C27.8682 28.9102 28.465 28.2211 29.2491 27.7195C30.0457 27.2058 30.9342 26.9497 31.9014 26.9497C32.6726 26.9497 33.4025 27.1304 34.084 27.4901C34.4134 27.661 34.7196 27.8629 35.0022 28.0954C35.0441 27.9951 35.1048 27.9009 35.1859 27.8168C35.3652 27.6188 35.6051 27.5185 35.866 27.5185C36.1212 27.5185 36.3564 27.6145 36.5346 27.8043C36.7245 27.9825 36.8204 28.2178 36.8204 28.473V30.1794C36.8204 30.4403 36.7202 30.6802 36.5221 30.8596C36.3374 31.0378 36.1048 31.1166 35.866 31.1166H34.1768C33.9324 31.1166 33.7036 31.0349 33.5159 30.8707L33.5117 30.867L33.4913 30.8477Z" fill="url(#paint2_linear_3169_9199)"/>
<path d="M30.7081 32.8898C30.8946 33.0762 30.9771 33.3138 30.9771 33.558C30.9771 33.8022 30.8946 34.0398 30.7081 34.2262C30.6728 34.2616 30.6353 34.2941 30.596 34.3234C30.726 34.4159 30.8631 34.4982 31.0075 34.5704C31.4213 34.7773 31.8496 34.8789 32.298 34.8789C32.9083 34.8789 33.4456 34.7253 33.9234 34.423C34.3979 34.1228 34.7566 33.7145 35.0039 33.1865C35.0787 33.0004 35.2084 32.8434 35.3908 32.7392L35.4152 32.7253C35.558 32.6539 35.711 32.6208 35.8661 32.6208C35.9306 32.6208 36.0018 32.6247 36.073 32.6376C36.1251 32.6471 36.1975 32.6649 36.273 32.7032C36.4306 32.7696 36.5775 32.8765 36.6838 33.0359L36.7095 33.0745L36.7279 33.1173C36.7869 33.2551 36.8205 33.4032 36.8205 33.558C36.8205 33.6821 36.7959 33.8002 36.76 33.9077L36.7474 33.9456L36.7378 33.9632C36.3312 34.8272 35.7344 35.5164 34.9503 36.018C34.1537 36.5317 33.2652 36.7877 32.298 36.7877C31.5268 36.7877 30.7969 36.6071 30.1154 36.2474C29.786 36.0764 29.4798 35.8745 29.1972 35.642C29.1553 35.7424 29.0946 35.8365 29.0136 35.9206C28.8342 36.1186 28.5943 36.2189 28.3334 36.2189C28.0782 36.2189 27.843 36.123 27.6648 35.9331C27.4749 35.7549 27.379 35.5196 27.379 35.2645L27.379 33.558C27.379 33.2971 27.4793 33.0572 27.6773 32.8778C27.862 32.6997 28.0946 32.6208 28.3334 32.6208L30.0226 32.6208C30.267 32.6208 30.4958 32.7025 30.6835 32.8667L30.6877 32.8704L30.7081 32.8898Z" fill="url(#paint3_linear_3169_9199)"/>
<path d="M21.9587 14.2584V11.9971C21.9587 11.2954 21.3898 10.7266 20.6881 10.7266C19.9863 10.7266 19.4175 11.2954 19.4175 11.9971V14.2584H21.9587Z" fill="url(#paint4_linear_3169_9199)"/>
<path d="M28.5825 11.9972C28.5825 11.2954 28.0136 10.7266 27.3119 10.7266C26.6101 10.7266 26.0413 11.2954 26.0413 11.9972V14.2584H28.5825V11.9972Z" fill="url(#paint5_linear_3169_9199)"/>
<path d="M28.372 20.5036C28.1339 20.7408 27.8513 20.8593 27.5243 20.8593C27.2183 20.8593 26.9489 20.7432 26.716 20.511C26.4831 20.2788 26.3667 20.0038 26.3667 19.686C26.3667 19.3681 26.481 19.0905 26.7095 18.853C26.938 18.6156 27.2112 18.4968 27.529 18.4968C27.8547 18.4968 28.1362 18.6159 28.3734 18.854C28.6106 19.0921 28.7292 19.3673 28.7292 19.6796C28.7292 19.9918 28.6101 20.2665 28.372 20.5036Z" fill="url(#paint6_linear_3169_9199)"/>
<path d="M20.9428 20.5036C20.7047 20.7408 20.4221 20.8593 20.0951 20.8593C19.7891 20.8593 19.5197 20.7432 19.2868 20.511C19.0539 20.2788 18.9375 20.0038 18.9375 19.686C18.9375 19.3681 19.0518 19.0905 19.2803 18.853C19.5088 18.6156 19.782 18.4968 20.0998 18.4968C20.4255 18.4968 20.707 18.6159 20.9442 18.854C21.1814 19.0921 21.3 19.3673 21.3 19.6796C21.3 19.9918 21.1809 20.2665 20.9428 20.5036Z" fill="url(#paint7_linear_3169_9199)"/>
<path fill-rule="evenodd" clip-rule="evenodd" d="M30.3739 17.3473L30.3739 17.3472C29.6466 16.6425 28.8489 16.3196 27.8386 16.3196H20.1369C19.1633 16.3196 18.3722 16.6352 17.6322 17.3531C16.8992 18.0642 16.6014 18.7995 16.6014 19.691C16.6014 20.5817 16.8984 21.3093 17.6253 22.0094C18.364 22.7209 19.1572 23.0367 20.1369 23.0367H27.8386C28.8524 23.0367 29.6514 22.7137 30.3779 22.0127C31.0994 21.3165 31.3986 20.5871 31.3986 19.6856C31.3986 18.7837 31.0989 18.0498 30.3739 17.3473ZM15.7522 23.954C16.9861 25.1425 18.4476 25.7367 20.1369 25.7367H27.8386C29.5509 25.7367 31.0223 25.143 32.2528 23.9555C33.4833 22.7681 34.0986 21.3448 34.0986 19.6856C34.0986 18.0265 33.4833 16.6007 32.2528 15.4083C31.0223 14.2158 29.5509 13.6196 27.8386 13.6196H20.1369C18.4476 13.6196 16.9861 14.2181 15.7522 15.4151C14.5183 16.6121 13.9014 18.0374 13.9014 19.691C13.9014 21.3445 14.5183 22.7656 15.7522 23.954Z" fill="url(#paint8_linear_3169_9199)"/>
</g>
</g>
<defs>
<linearGradient id="paint0_linear_3169_9199" x1="4.35286" y1="7.18051" x2="41.0644" y2="44.6119" gradientUnits="userSpaceOnUse">
<stop stop-color="white"/>
<stop offset="1" stop-color="#EAECEE"/>
</linearGradient>
<linearGradient id="paint1_linear_3169_9199" x1="15.8591" y1="28.6604" x2="21.0804" y2="36.9225" gradientUnits="userSpaceOnUse">
<stop stop-color="#0195FF"/>
<stop offset="0.991028" stop-color="#1147E9"/>
</linearGradient>
<linearGradient id="paint2_linear_3169_9199" x1="28.7919" y1="28.4257" x2="35.6744" y2="35.0263" gradientUnits="userSpaceOnUse">
<stop stop-color="#00BBFF"/>
<stop offset="1" stop-color="#008BFF"/>
</linearGradient>
<linearGradient id="paint3_linear_3169_9199" x1="28.7919" y1="28.4257" x2="35.6744" y2="35.0263" gradientUnits="userSpaceOnUse">
<stop stop-color="#00BBFF"/>
<stop offset="1" stop-color="#008BFF"/>
</linearGradient>
<linearGradient id="paint4_linear_3169_9199" x1="20.7725" y1="11.2462" x2="22.4259" y2="15.5553" gradientUnits="userSpaceOnUse">
<stop stop-color="#1348FF"/>
<stop offset="1" stop-color="#06238D"/>
</linearGradient>
<linearGradient id="paint5_linear_3169_9199" x1="20.7725" y1="11.2462" x2="22.4259" y2="15.5553" gradientUnits="userSpaceOnUse">
<stop stop-color="#1348FF"/>
<stop offset="1" stop-color="#06238D"/>
</linearGradient>
<linearGradient id="paint6_linear_3169_9199" x1="26.716" y1="18.8444" x2="28.3694" y2="20.5049" gradientUnits="userSpaceOnUse">
<stop stop-color="#1348FF"/>
<stop offset="1" stop-color="#06238D"/>
</linearGradient>
<linearGradient id="paint7_linear_3169_9199" x1="19.2868" y1="18.8444" x2="20.9402" y2="20.5049" gradientUnits="userSpaceOnUse">
<stop stop-color="#1348FF"/>
<stop offset="1" stop-color="#06238D"/>
</linearGradient>
<linearGradient id="paint8_linear_3169_9199" x1="16.924" y1="15.4376" x2="24.4123" y2="27.9106" gradientUnits="userSpaceOnUse">
<stop stop-color="#00BBFF"/>
<stop offset="1" stop-color="#008BFF"/>
</linearGradient>
<clipPath id="clip0_3169_9199">
<rect width="48" height="48" fill="white" transform="translate(0 0.000976562)"/>
</clipPath>
<clipPath id="clip1_3169_9199">
<rect width="27" height="27" fill="white" transform="translate(10.5 9.75098)"/>
</clipPath>
</defs>
</svg>
