<svg width="48" height="48" viewBox="0 0 48 48" fill="none" xmlns="http://www.w3.org/2000/svg">
<circle cx="24" cy="24" r="23.5714" fill="url(#paint0_linear_3219_19907)" stroke="#D5DADD" stroke-width="0.857143"/>
<g clip-path="url(#clip0_3219_19907)">
<path fill-rule="evenodd" clip-rule="evenodd" d="M21.1661 10.0527H29.135C30.6261 10.0527 31.835 11.2616 31.835 12.7527V14.5809C31.2824 14.8742 30.8438 15.3538 30.6029 15.9359C30.1977 14.9565 29.2328 14.2674 28.107 14.2674H26.4196C23.4373 14.2674 21.0196 16.685 21.0196 19.6674L21.0196 21.3548C21.0196 22.2449 21.4503 23.0345 22.1148 23.5264C21.4504 24.0182 21.0196 24.8078 21.0196 25.6979L21.0196 27.3853C21.0196 30.3677 23.4373 32.7853 26.4196 32.7853H28.107C29.2328 32.7853 30.1977 32.0962 30.6029 31.1168C30.8438 31.699 31.2824 32.1785 31.835 32.4718V34.3C31.835 35.7912 30.6261 37 29.135 37L14.308 37C12.8169 37 11.608 35.7912 11.608 34.3V20.0166C11.608 19.7183 11.7265 19.4323 11.9375 19.2213C12.1484 19.0104 12.4345 18.8919 12.7328 18.8919H16.6812C17.6036 18.8919 18.3943 18.5625 19.0531 17.9036C19.712 17.2448 20.0414 16.4541 20.0414 15.5317L20.0414 11.1775C20.0414 10.8792 20.1599 10.5931 20.3708 10.3822C20.5818 10.1712 20.8678 10.0527 21.1661 10.0527ZM17.772 23.3792C18.5176 23.3792 19.122 22.7748 19.122 22.0292C19.122 21.2836 18.5176 20.6792 17.772 20.6792H15.9921C15.2465 20.6792 14.6421 21.2836 14.6421 22.0292C14.6421 22.7748 15.2465 23.3792 15.9921 23.3792H17.772ZM19.122 26.4294C19.122 27.175 18.5176 27.7794 17.772 27.7794H15.9921C15.2465 27.7794 14.6421 27.175 14.6421 26.4294C14.6421 25.6838 15.2465 25.0794 15.9921 25.0794H17.772C18.5176 25.0794 19.122 25.6838 19.122 26.4294ZM17.772 32.1795C18.5176 32.1795 19.122 31.5751 19.122 30.8295C19.122 30.0839 18.5176 29.4795 17.772 29.4795H15.9921C15.2465 29.4795 14.6421 30.0839 14.6421 30.8295C14.6421 31.5751 15.2465 32.1795 15.9921 32.1795H17.772Z" fill="url(#paint1_linear_3219_19907)"/>
<path d="M18.6284 15.2304V11.9626L13.3561 17.5091H16.3497C16.9752 17.5091 17.5114 17.2857 17.9582 16.8389C18.405 16.3921 18.6284 15.856 18.6284 15.2304Z" fill="url(#paint2_linear_3219_19907)"/>
<path fill-rule="evenodd" clip-rule="evenodd" d="M29.1194 16.9673C29.1194 16.4081 28.6661 15.9548 28.1069 15.9548H26.4195C24.3692 15.9548 22.7071 17.617 22.707 19.6673L22.707 21.3547C22.707 21.9139 23.1603 22.3672 23.7195 22.3672C24.2787 22.3672 24.732 21.9139 24.732 21.3547L24.732 19.6673C24.7321 18.7353 25.4876 17.9798 26.4195 17.9798L28.1069 17.9798C28.6661 17.9798 29.1194 17.5265 29.1194 16.9673ZM29.1194 30.0852C29.1194 30.6444 28.6661 31.0977 28.1069 31.0977H26.4196C24.3692 31.0977 22.7071 29.4356 22.7071 27.3853L22.707 25.6978C22.707 25.1387 23.1603 24.6853 23.7195 24.6853C24.2787 24.6853 24.732 25.1386 24.732 25.6978L24.7321 27.3852C24.7321 28.3172 25.4876 29.0727 26.4196 29.0727H28.1069C28.6661 29.0727 29.1194 29.526 29.1194 30.0852ZM32.0863 30.0852C32.0863 30.6444 32.5397 31.0977 33.0988 31.0977H34.7862C36.8366 31.0977 38.4987 29.4356 38.4987 27.3853L38.4987 25.6979C38.4987 25.1387 38.0454 24.6853 37.4862 24.6853C36.9271 24.6853 36.4737 25.1386 36.4737 25.6978L36.4737 27.3852C36.4737 28.3172 35.7182 29.0727 34.7862 29.0727L33.0988 29.0727C32.5397 29.0727 32.0863 29.526 32.0863 30.0852ZM32.0863 16.9673C32.0863 16.4082 32.5396 15.9548 33.0988 15.9548L34.7862 15.9548C36.8366 15.9548 38.4987 17.617 38.4987 19.6673L38.4987 21.3547C38.4987 21.9139 38.0454 22.3672 37.4862 22.3672C36.927 22.3672 36.4737 21.9139 36.4737 21.3547L36.4737 19.6673C36.4737 18.7354 35.7182 17.9798 34.7862 17.9798L33.0988 17.9798C32.5396 17.9798 32.0863 17.5265 32.0863 16.9673Z" fill="url(#paint3_linear_3219_19907)"/>
<path d="M32.7057 20.6052C32.9285 20.3744 33.1791 20.259 33.4576 20.259C33.7361 20.259 33.9867 20.3744 34.2094 20.6052C34.4044 20.8072 34.5018 21.0524 34.5018 21.3409C34.5018 21.6294 34.4044 21.889 34.2094 22.1198L29.9907 26.4905C29.7958 26.6925 29.5451 26.7934 29.2388 26.7934C28.9325 26.7934 28.6819 26.6925 28.487 26.4905L26.3985 24.3268C26.1757 24.096 26.0643 23.8364 26.0643 23.5479C26.0643 23.2594 26.1757 22.9997 26.3985 22.7689C26.6213 22.5381 26.8719 22.4227 27.1503 22.4227C27.4288 22.4227 27.6655 22.5381 27.8604 22.7689L29.2388 24.197L32.7057 20.6052Z" fill="url(#paint4_linear_3219_19907)"/>
</g>
<defs>
<linearGradient id="paint0_linear_3219_19907" x1="4.35287" y1="6.81284" x2="41.0645" y2="44.2443" gradientUnits="userSpaceOnUse">
<stop stop-color="white"/>
<stop offset="1" stop-color="#EAECEE"/>
</linearGradient>
<linearGradient id="paint1_linear_3219_19907" x1="14.6401" y1="14.0825" x2="32.7596" y2="27.688" gradientUnits="userSpaceOnUse">
<stop stop-color="#0195FF"/>
<stop offset="0.991028" stop-color="#1147E9"/>
</linearGradient>
<linearGradient id="paint2_linear_3219_19907" x1="14.1356" y1="12.7787" x2="18.0131" y2="16.4804" gradientUnits="userSpaceOnUse">
<stop stop-color="#1348FF"/>
<stop offset="1" stop-color="#06238D"/>
</linearGradient>
<linearGradient id="paint3_linear_3219_19907" x1="25.0743" y1="18.2194" x2="35.6678" y2="29.2706" gradientUnits="userSpaceOnUse">
<stop stop-color="#0195FF"/>
<stop offset="0.991028" stop-color="#1147E9"/>
</linearGradient>
<linearGradient id="paint4_linear_3219_19907" x1="27.3118" y1="21.2204" x2="31.7346" y2="26.956" gradientUnits="userSpaceOnUse">
<stop stop-color="#1348FF"/>
<stop offset="1" stop-color="#06238D"/>
</linearGradient>
<clipPath id="clip0_3219_19907">
<rect width="27" height="27" fill="white" transform="translate(11.5 10)"/>
</clipPath>
</defs>
</svg>
