<svg width="48" height="48" viewBox="0 0 48 48" fill="none" xmlns="http://www.w3.org/2000/svg">
<g clip-path="url(#clip0_3169_9219)">
<circle cx="24" cy="24.3677" r="23.5714" fill="url(#paint0_linear_3169_9219)" stroke="#D5DADD" stroke-width="0.857142"/>
<path fill-rule="evenodd" clip-rule="evenodd" d="M37.9198 29.5921C38.3065 29.7679 38.4998 30.0667 38.4998 30.4885V30.5939L38.2362 31.7012C38.1308 32.1581 37.8495 32.3866 37.3926 32.3866H37.2871L35.5999 32.123C35.2835 32.7908 34.7739 33.406 34.0708 33.9684L34.7035 35.7611C34.7387 35.8314 34.7563 35.9193 34.7563 36.0247C34.7563 36.4465 34.5981 36.7277 34.2817 36.8683L33.2799 37.3956C33.1393 37.4659 33.0339 37.501 32.9636 37.501C32.6472 37.501 32.4012 37.3429 32.2254 37.0265L31.2236 35.2865C31.0479 35.3217 30.8545 35.3568 30.6436 35.392H30.0636H29.5364C29.3958 35.3568 29.2376 35.3217 29.0618 35.2865L28.0073 37.0792C27.8316 37.3604 27.6031 37.501 27.3219 37.501C27.1461 37.501 27.0231 37.4659 26.9528 37.3956L25.951 36.9211C25.6346 36.7805 25.4765 36.5344 25.4765 36.1829C25.4765 36.0423 25.494 35.9368 25.5292 35.8665L26.1619 34.0738C25.5292 33.6169 25.0195 33.0193 24.6328 32.2812L22.8401 32.5448H22.7347C22.2777 32.5448 21.9965 32.3163 21.8911 31.8593L21.6274 30.7521V30.6466C21.6274 30.2248 21.8208 29.926 22.2074 29.7503L23.7365 29.2758V29.0649C23.7365 28.1861 23.8947 27.3776 24.211 26.6394L23.051 25.5849C22.9456 25.4795 22.8577 25.2861 22.7874 25.0049C22.7874 24.7589 22.8577 24.5656 22.9983 24.4249L23.6838 23.5286C23.8595 23.3177 24.0704 23.2122 24.3165 23.2122C24.4922 23.2122 24.6504 23.265 24.791 23.3704L26.0037 24.214C26.7419 23.6165 27.5504 23.1947 28.4291 22.9486L28.5346 21.4196C28.5697 21.2087 28.6576 21.0329 28.7982 20.8923C28.974 20.7165 29.1673 20.6287 29.3782 20.6287H30.4855C30.7315 20.6287 30.9248 20.7165 31.0654 20.8923C31.2412 21.0329 31.3291 21.2087 31.3291 21.4196L31.4345 22.8959C32.3133 23.1068 33.1569 23.4935 33.9654 24.0559L35.1781 23.2122C35.3538 23.1068 35.512 23.0541 35.6526 23.0541C35.9338 23.0541 36.1447 23.1595 36.2853 23.3704L36.9708 24.2668C37.1114 24.4074 37.1817 24.6007 37.1817 24.8468C37.1817 25.0577 37.0938 25.251 36.9181 25.4267L35.8635 26.4813C36.0393 26.8679 36.1623 27.2722 36.2326 27.694C36.3381 28.1158 36.3908 28.5727 36.3908 29.0649V29.1176L37.9198 29.5921ZM27.4801 31.6484C26.777 30.9454 26.4255 30.0842 26.4255 29.0649C26.4255 28.0455 26.777 27.1843 27.4801 26.4813C28.1831 25.7783 29.0443 25.4267 30.0636 25.4267C31.083 25.4267 31.9442 25.7783 32.6472 26.4813C33.3502 27.1843 33.7018 28.0455 33.7018 29.0649C33.7018 30.0842 33.3502 30.9454 32.6472 31.6484C31.9442 32.3515 31.083 32.703 30.0636 32.703C29.0443 32.703 28.1831 32.3515 27.4801 31.6484Z" fill="url(#paint1_linear_3169_9219)"/>
<path fill-rule="evenodd" clip-rule="evenodd" d="M17.912 16.7308L17.912 15.5421H15.55C14.8044 15.5421 14.2 16.1465 14.2 16.8921V20.3007H20.9679C21.7134 20.3007 22.3179 20.9051 22.3179 21.6507C22.3179 22.3963 21.7134 23.0007 20.9679 23.0007H14.2V30.1008C14.2 30.8464 14.8044 31.4508 15.55 31.4508H17.3766C18.1222 31.4508 18.7266 32.0553 18.7266 32.8008C18.7266 33.5464 18.1222 34.1508 17.3766 34.1508H15.55C13.3132 34.1508 11.5 32.3376 11.5 30.1008V16.8921C11.5 14.6553 13.3132 12.8421 15.55 12.8421H17.912L17.912 11.8271C17.912 11.0815 18.5164 10.4771 19.262 10.4771C20.0076 10.4771 20.612 11.0815 20.612 11.8271L20.612 12.8421H25.1009L25.1009 11.8271C25.1009 11.0815 25.7053 10.4771 26.4509 10.4771C27.1965 10.4771 27.8009 11.0815 27.8009 11.8271L27.8009 12.8421H30.0151C32.2518 12.8421 34.0651 14.6553 34.0651 16.8921V18.0072C34.0651 18.7528 33.4607 19.3572 32.7151 19.3572C31.9695 19.3572 31.3651 18.7528 31.3651 18.0072V16.8921C31.3651 16.1465 30.7607 15.5421 30.0151 15.5421H27.8009L27.8009 16.7308C27.8009 17.4764 27.1965 18.0808 26.4509 18.0808C25.7053 18.0808 25.1009 17.4764 25.1009 16.7308L25.1009 15.5421H20.612L20.612 16.7308C20.612 17.4764 20.0076 18.0808 19.262 18.0808C18.5165 18.0808 17.912 17.4764 17.912 16.7308Z" fill="url(#paint2_linear_3169_9219)"/>
</g>
<defs>
<linearGradient id="paint0_linear_3169_9219" x1="4.35286" y1="7.18051" x2="41.0644" y2="44.6119" gradientUnits="userSpaceOnUse">
<stop stop-color="white"/>
<stop offset="1" stop-color="#EAECEE"/>
</linearGradient>
<linearGradient id="paint1_linear_3169_9219" x1="24.1525" y1="23.1601" x2="35.9665" y2="34.9658" gradientUnits="userSpaceOnUse">
<stop stop-color="#00BBFF"/>
<stop offset="1" stop-color="#008BFF"/>
</linearGradient>
<linearGradient id="paint2_linear_3169_9219" x1="14.8826" y1="14.0173" x2="31.4401" y2="29.8049" gradientUnits="userSpaceOnUse">
<stop stop-color="#0195FF"/>
<stop offset="0.991028" stop-color="#1147E9"/>
</linearGradient>
<clipPath id="clip0_3169_9219">
<rect width="48" height="48" fill="white" transform="translate(0 0.000976562)"/>
</clipPath>
</defs>
</svg>
