<svg width="48" height="48" viewBox="0 0 48 48" fill="none" xmlns="http://www.w3.org/2000/svg">
<g clip-path="url(#clip0_3169_9233)">
<circle cx="23.9988" cy="24.3677" r="23.5714" fill="url(#paint0_linear_3169_9233)" stroke="#D5DADD" stroke-width="0.857142"/>
<g clip-path="url(#clip1_3169_9233)">
<path d="M21.6519 12.2474L29.8025 14.5983H29.8004C30.3773 14.753 30.6657 15.1365 30.6657 15.7509V17.3521C30.5166 17.4034 30.3682 17.4594 30.2205 17.5199C29.2772 17.8936 28.4373 18.4609 27.703 19.1953C26.6126 20.2856 25.8953 21.5836 25.6099 23.0675C25.4038 24.1392 25.4277 25.2018 25.6763 26.2398L19.3942 32.5219C18.8987 33.0174 18.5696 33.6698 18.5432 34.4307C18.5022 34.4036 18.4607 34.3761 18.4188 34.3481C17.7515 33.9025 17.0454 33.3568 16.3017 32.7118C15.558 32.0669 14.8671 31.3141 14.2299 30.4535C13.5917 29.594 13.0611 28.6266 12.6359 27.5502C12.2108 26.475 11.9988 25.2919 11.9988 24.001V15.7509C11.9988 15.1365 12.2872 14.7519 12.8641 14.5983L21.0147 12.2474C21.1966 12.1864 21.4087 12.1864 21.6519 12.2474Z" fill="url(#paint1_linear_3169_9233)"/>
<path d="M22.2493 37.0062C22.0755 37.1799 21.88 37.3103 21.6628 37.3972C21.4455 37.4406 21.2283 37.3972 21.0111 37.2668C20.5115 37.1148 20.2617 36.7564 20.2617 36.1916L20.2291 34.5298C20.2291 34.2257 20.3486 33.9542 20.5875 33.7152L27.5929 26.7098C27.1585 25.6237 27.0499 24.5159 27.2671 23.3863C27.4843 22.2567 28.0274 21.2575 28.8963 20.3886C29.4828 19.8021 30.1345 19.3677 30.8513 19.0853C31.5898 18.7812 32.3284 18.6291 33.067 18.6291C33.8055 18.6291 34.5441 18.7812 35.2826 19.0853C35.9995 19.3677 36.6511 19.8021 37.2376 20.3886C37.8241 20.9751 38.2586 21.6268 38.541 22.3436C38.8234 23.0605 38.9646 23.7882 38.9646 24.5267C38.9646 25.2653 38.8125 26.0038 38.5084 26.7424C38.226 27.4592 37.7916 28.1109 37.205 28.6974C36.1624 29.7401 34.9677 30.3266 33.6209 30.4569C32.2741 30.5438 31.0033 30.2071 29.8086 29.4468L28.0491 31.2063L28.8963 32.0535C29.4393 32.5965 29.4393 33.1396 28.8963 33.6827C28.6573 33.9216 28.3749 34.0519 28.0491 34.0737C27.745 34.0737 27.4735 33.9542 27.2345 33.7152L26.3874 32.8681L24.7256 34.5298L25.5728 35.377C26.1158 35.9201 26.1158 36.4631 25.5728 37.0062C25.008 37.5709 24.4541 37.5818 23.911 37.0388L23.0639 36.1916L22.2493 37.0062ZM30.558 22.0504C29.8629 22.7455 29.5154 23.5709 29.5154 24.5267C29.5154 25.4825 29.8738 26.3188 30.5906 27.0356C31.2857 27.7308 32.1112 28.0783 33.067 28.0783C34.0227 28.0783 34.8482 27.7308 35.5433 27.0356C36.2601 26.3188 36.6185 25.4825 36.6185 24.5267C36.6185 23.5709 36.271 22.7455 35.5759 22.0504C34.859 21.3335 34.0227 20.9751 33.067 20.9751C32.1112 20.9751 31.2749 21.3336 30.558 22.0504Z" fill="url(#paint2_linear_3169_9233)"/>
</g>
</g>
<defs>
<linearGradient id="paint0_linear_3169_9233" x1="4.35164" y1="7.18051" x2="41.0632" y2="44.6119" gradientUnits="userSpaceOnUse">
<stop stop-color="white"/>
<stop offset="1" stop-color="#EAECEE"/>
</linearGradient>
<linearGradient id="paint1_linear_3169_9233" x1="14.797" y1="15.5259" x2="30.1282" y2="28.4048" gradientUnits="userSpaceOnUse">
<stop stop-color="#0195FF"/>
<stop offset="0.991028" stop-color="#1147E9"/>
</linearGradient>
<linearGradient id="paint2_linear_3169_9233" x1="20.0995" y1="31.6302" x2="34.0611" y2="36.3234" gradientUnits="userSpaceOnUse">
<stop stop-color="#1348FF"/>
<stop offset="1" stop-color="#06238D"/>
</linearGradient>
<clipPath id="clip0_3169_9233">
<rect width="48" height="48" fill="white" transform="translate(0 0.000976562)"/>
</clipPath>
<clipPath id="clip1_3169_9233">
<rect width="27" height="27" fill="white" transform="translate(11.9988 10.501)"/>
</clipPath>
</defs>
</svg>
