<svg width="48" height="48" viewBox="0 0 48 48" fill="none" xmlns="http://www.w3.org/2000/svg">
<g clip-path="url(#clip0_3169_9241)">
<circle cx="24" cy="24.3677" r="23.5714" fill="url(#paint0_linear_3169_9241)" stroke="#D5DADD" stroke-width="0.857142"/>
<path fill-rule="evenodd" clip-rule="evenodd" d="M21.8769 11.1845C23.1847 10.404 24.8153 10.404 26.123 11.1845L33.7927 15.7615C35.0453 16.509 35.8125 17.8603 35.8125 19.319V28.6352C35.8125 30.0939 35.0453 31.4452 33.7927 32.1927L26.123 36.7697C24.8153 37.5502 23.1847 37.5502 21.8769 36.7697L14.2073 32.1927C12.9547 31.4452 12.1875 30.0939 12.1875 28.6352V19.319C12.1875 17.8603 12.9547 16.509 14.2073 15.7615L21.8769 11.1845ZM24.7394 13.503C24.2839 13.2312 23.7161 13.2312 23.2606 13.503L15.591 18.08C15.1547 18.3404 14.8875 18.811 14.8875 19.319L14.8875 28.6352C14.8875 29.1432 15.1547 29.6138 15.591 29.8742L23.2606 34.4512C23.7161 34.723 24.2839 34.723 24.7394 34.4512L32.409 29.8742C32.8453 29.6138 33.1125 29.1432 33.1125 28.6352V19.319C33.1125 18.811 32.8453 18.3404 32.409 18.08L24.7394 13.503Z" fill="url(#paint1_linear_3169_9241)"/>
<path d="M19.4693 18.3207C19.2832 18.3115 19.1312 18.4636 19.1312 18.65V20.4911C20.1084 20.7747 21.0154 21.2596 21.7939 21.9147C22.5172 21.5646 23.1733 21.0901 23.7325 20.513C22.6405 19.4681 21.5455 18.4231 19.4693 18.3207Z" fill="url(#paint2_linear_3169_9241)"/>
<path d="M18.3531 25.7712C17.9698 25.7707 17.5919 25.8606 17.25 26.0337V21.328C17.25 21.1358 17.411 20.9817 17.6024 20.9987C19.913 21.2044 21.2915 22.3977 22.617 23.6578C22.8924 23.922 23.1786 24.1885 23.4727 24.45C22.3213 25.3408 20.898 25.8075 19.4427 25.7712H18.3531Z" fill="url(#paint3_linear_3169_9241)"/>
<path d="M18.353 26.5893H19.4314C22.5136 26.5893 24.0698 25.1133 25.5741 23.6866L25.5839 23.6773C26.8922 22.4367 28.1331 21.2601 30.3897 21.0428C30.5816 21.0243 30.7439 21.1786 30.7441 21.3714L30.7497 28.7259C30.7499 28.9124 30.5987 29.0636 30.4122 29.0636H17.6015C17.4151 29.0636 17.264 28.9125 17.264 28.7261V27.6789C17.2688 27.3915 17.385 27.1172 17.5882 26.9139C17.7914 26.7106 18.0656 26.5942 18.353 26.5893Z" fill="url(#paint4_linear_3169_9241)"/>
<path d="M24.0512 23.983C23.7279 23.7064 23.4164 23.4152 23.1179 23.1273C22.8835 22.9019 22.6417 22.6764 22.3971 22.4566C23.1807 22.0065 23.8953 21.4458 24.519 20.7918C25.514 19.8336 26.4692 18.9285 28.1503 18.7243C28.3426 18.701 28.5062 18.8555 28.5069 19.0493L28.5124 20.6473C27.1879 21.2082 25.9969 22.0428 25.0176 23.0964C24.6972 23.4011 24.3795 23.7019 24.0512 23.983Z" fill="url(#paint5_linear_3169_9241)"/>
</g>
<defs>
<linearGradient id="paint0_linear_3169_9241" x1="4.35286" y1="7.18051" x2="41.0644" y2="44.6119" gradientUnits="userSpaceOnUse">
<stop stop-color="white"/>
<stop offset="1" stop-color="#EAECEE"/>
</linearGradient>
<linearGradient id="paint1_linear_3169_9241" x1="15.729" y1="14.6003" x2="34.32" y2="31.0216" gradientUnits="userSpaceOnUse">
<stop stop-color="#0195FF"/>
<stop offset="0.991028" stop-color="#1147E9"/>
</linearGradient>
<linearGradient id="paint2_linear_3169_9241" x1="19.2458" y1="19.9009" x2="26.5655" y2="29.1382" gradientUnits="userSpaceOnUse">
<stop stop-color="#1348FF"/>
<stop offset="1" stop-color="#06238D"/>
</linearGradient>
<linearGradient id="paint3_linear_3169_9241" x1="19.2458" y1="19.9009" x2="26.5655" y2="29.1382" gradientUnits="userSpaceOnUse">
<stop stop-color="#1348FF"/>
<stop offset="1" stop-color="#06238D"/>
</linearGradient>
<linearGradient id="paint4_linear_3169_9241" x1="19.2458" y1="19.9009" x2="26.5655" y2="29.1382" gradientUnits="userSpaceOnUse">
<stop stop-color="#1348FF"/>
<stop offset="1" stop-color="#06238D"/>
</linearGradient>
<linearGradient id="paint5_linear_3169_9241" x1="19.2458" y1="19.9009" x2="26.5655" y2="29.1382" gradientUnits="userSpaceOnUse">
<stop stop-color="#1348FF"/>
<stop offset="1" stop-color="#06238D"/>
</linearGradient>
<clipPath id="clip0_3169_9241">
<rect width="48" height="48" fill="white" transform="translate(0 0.000976562)"/>
</clipPath>
</defs>
</svg>
