<svg width="48" height="48" viewBox="0 0 48 48" fill="none" xmlns="http://www.w3.org/2000/svg">
<circle cx="24" cy="24" r="23.5714" fill="url(#paint0_linear_3219_19959)" stroke="#D5DADD" stroke-width="0.857143"/>
<g clip-path="url(#clip0_3219_19959)">
<path d="M22.418 28.1492C22.418 27.4109 22.2422 26.7078 21.8906 26.0398C21.5742 25.3718 21.0996 24.8269 20.4668 24.405L16.9336 22.032C15.9141 21.3289 15.1055 20.4148 14.5078 19.2898C13.9453 18.2 13.6641 17.0222 13.6641 15.7566L13.6641 15.0559C13.6641 14.0715 14.1562 13.5793 15.1406 13.5793C16.125 13.5793 16.6172 14.0715 16.6172 15.0559V15.7566C16.6172 17.3738 17.2676 18.6218 18.5684 19.5007L22.3652 22.0847C22.7168 22.366 23.0332 22.6297 23.3144 22.8758C23.6309 23.157 23.8769 23.4734 24.0527 23.825C24.5098 23.0867 25.1074 22.489 25.8457 22.032L29.4316 19.659C30.0293 19.2371 30.5039 18.6922 30.8555 18.0242C31.207 17.3914 31.3828 16.6883 31.3828 15.9148V15.2141C31.3828 14.7571 31.5059 14.3879 31.7519 14.1067C32.0332 13.8254 32.4023 13.6848 32.8594 13.6848C33.3164 13.6848 33.668 13.8254 33.9141 14.1067C34.1953 14.3879 34.3359 14.7571 34.3359 15.2141V15.9148C34.3359 17.1804 34.0547 18.3582 33.4922 19.448C32.9297 20.573 32.1211 21.4871 31.0664 22.1902L27.4805 24.5633C26.8828 24.9851 26.4082 25.5125 26.0566 26.1453C25.7402 26.8133 25.5469 27.534 25.4766 28.3074V28.2327C25.4662 28.5438 25.334 29.6182 24 29.6182C22.4401 29.6182 22.418 28.1492 22.418 28.1492Z" fill="url(#paint1_linear_3219_19959)"/>
<path d="M26.5312 34.7875C26.5312 36.1854 25.3979 37.3187 24 37.3187C22.602 37.3187 21.4687 36.1854 21.4687 34.7875C21.4687 33.3895 22.602 32.2562 24 32.2562C25.3979 32.2562 26.5312 33.3895 26.5312 34.7875Z" stroke="url(#paint2_linear_3219_19959)" stroke-width="2.3625"/>
<path d="M19.977 15.7106C21.037 15.7106 21.8963 14.8356 21.8963 13.7564C21.8963 12.6771 21.037 11.8022 19.977 11.8022C18.917 11.8022 18.0577 12.6771 18.0577 13.7564C18.0577 14.8356 18.917 15.7106 19.977 15.7106Z" fill="url(#paint3_linear_3219_19959)"/>
<path d="M24.0001 19.619C25.06 19.619 25.9193 18.7441 25.9193 17.6648C25.9193 16.5856 25.06 15.7107 24.0001 15.7107C22.9401 15.7107 22.0808 16.5856 22.0808 17.6648C22.0808 18.7441 22.9401 19.619 24.0001 19.619Z" fill="url(#paint4_linear_3219_19959)"/>
<path d="M28.0229 15.7106C29.0829 15.7106 29.9421 14.8356 29.9421 13.7564C29.9421 12.6771 29.0829 11.8022 28.0229 11.8022C26.9629 11.8022 26.1036 12.6771 26.1036 13.7564C26.1036 14.8356 26.9629 15.7106 28.0229 15.7106Z" fill="url(#paint5_linear_3219_19959)"/>
</g>
<defs>
<linearGradient id="paint0_linear_3219_19959" x1="4.35287" y1="6.81284" x2="41.0645" y2="44.2443" gradientUnits="userSpaceOnUse">
<stop stop-color="white"/>
<stop offset="1" stop-color="#EAECEE"/>
</linearGradient>
<linearGradient id="paint1_linear_3219_19959" x1="16.7629" y1="15.9779" x2="27.6401" y2="30.002" gradientUnits="userSpaceOnUse">
<stop stop-color="#0195FF"/>
<stop offset="0.991028" stop-color="#1147E9"/>
</linearGradient>
<linearGradient id="paint2_linear_3219_19959" x1="21.4005" y1="32.1853" x2="26.5995" y2="37.3861" gradientUnits="userSpaceOnUse">
<stop stop-color="#0195FF"/>
<stop offset="0.991028" stop-color="#1147E9"/>
</linearGradient>
<linearGradient id="paint3_linear_3219_19959" x1="18.6322" y1="12.3886" x2="21.3683" y2="15.074" gradientUnits="userSpaceOnUse">
<stop stop-color="#00BBFF"/>
<stop offset="1" stop-color="#008BFF"/>
</linearGradient>
<linearGradient id="paint4_linear_3219_19959" x1="22.6553" y1="16.2971" x2="25.3914" y2="18.9824" gradientUnits="userSpaceOnUse">
<stop stop-color="#00BBFF"/>
<stop offset="1" stop-color="#008BFF"/>
</linearGradient>
<linearGradient id="paint5_linear_3219_19959" x1="26.6781" y1="12.3886" x2="29.4142" y2="15.074" gradientUnits="userSpaceOnUse">
<stop stop-color="#00BBFF"/>
<stop offset="1" stop-color="#008BFF"/>
</linearGradient>
<clipPath id="clip0_3219_19959">
<rect width="27" height="27" fill="white" transform="translate(10.5 11.5)"/>
</clipPath>
</defs>
</svg>
