<svg width="48" height="48" viewBox="0 0 48 48" fill="none" xmlns="http://www.w3.org/2000/svg">
<g clip-path="url(#clip0_3169_9259)">
<circle cx="24.001" cy="24.375" r="23.5714" fill="url(#paint0_linear_3169_9259)" stroke="#D5DADD" stroke-width="0.857143"/>
<g clip-path="url(#clip1_3169_9259)">
<path d="M30.1702 14.7721C29.6902 14.95 29.2992 15.3148 29.0833 15.7861L24.8427 24.9464C24.7359 25.1798 24.6752 25.4323 24.6641 25.6896C24.6531 25.9468 24.6919 26.2038 24.7784 26.4457C24.8649 26.6877 24.9974 26.91 25.1683 27.0998C25.3391 27.2897 25.545 27.4434 25.7742 27.5522C26.0035 27.6611 26.2515 27.7229 26.5042 27.7342C26.7569 27.7454 27.0093 27.7059 27.247 27.6178C27.4846 27.5298 27.703 27.3949 27.8894 27.2209C28.0759 27.0469 28.2269 26.8372 28.3338 26.6038L32.5744 17.4433C32.7902 16.9719 32.8133 16.4326 32.6386 15.944C32.4639 15.4553 32.1058 15.0573 31.6429 14.8374C31.1799 14.6177 30.6502 14.5942 30.1702 14.7721Z" fill="url(#paint1_linear_3169_9259)"/>
<path d="M20.7067 30.7665L23.8741 23.9656C24.0899 23.4944 24.113 22.9551 23.9385 22.4664C23.7639 21.9778 23.4058 21.5797 22.943 21.3598C22.4801 21.14 21.9503 21.1164 21.4703 21.2943C20.9903 21.4721 20.5994 21.8369 20.3835 22.3082L17.2163 29.109C17.1094 29.3424 17.0488 29.5949 17.0377 29.8522C17.0267 30.1094 17.0655 30.3663 17.152 30.6083C17.2385 30.8502 17.371 31.0725 17.5419 31.2623C17.7127 31.4521 17.9186 31.6059 18.1478 31.7147C18.6106 31.9344 19.1402 31.9579 19.6201 31.7801C20.1 31.6023 20.4908 31.2377 20.7067 30.7665Z" fill="url(#paint2_linear_3169_9259)"/>
<path d="M15.0895 29.9404C15.0895 31.0197 14.2302 31.8946 13.1702 31.8946C12.1103 31.8946 11.251 31.0197 11.251 29.9404C11.251 28.8612 12.1103 27.9863 13.1702 27.9863C14.2302 27.9863 15.0895 28.8612 15.0895 29.9404Z" fill="url(#paint3_linear_3169_9259)"/>
<path d="M24.7432 31.8946C25.8031 31.8946 26.6624 31.0197 26.6624 29.9404C26.6624 28.8612 25.8031 27.9863 24.7432 27.9863C23.6832 27.9863 22.8239 28.8612 22.8239 29.9404C22.8239 31.0197 23.6832 31.8946 24.7432 31.8946Z" fill="url(#paint4_linear_3169_9259)"/>
<path d="M36.3317 31.8946C37.3917 31.8946 38.251 31.0197 38.251 29.9404C38.251 28.8612 37.3917 27.9863 36.3317 27.9863C35.2718 27.9863 34.4125 28.8612 34.4125 29.9404C34.4125 31.0197 35.2718 31.8946 36.3317 31.8946Z" fill="url(#paint5_linear_3169_9259)"/>
<path d="M32.2939 30.7657L35.2364 24.31C35.4521 23.839 35.4754 23.3 35.301 22.8115C35.1265 22.3231 34.7688 21.9251 34.3063 21.7051C34.0771 21.5963 33.8291 21.5345 33.5765 21.5232C33.3238 21.512 33.0715 21.5516 32.8339 21.6396C32.5962 21.7277 32.378 21.8626 32.1915 22.0365C32.0051 22.2105 31.8541 22.4202 31.7473 22.6535L28.8047 29.109C28.589 29.58 28.5658 30.119 28.7402 30.6074C28.9146 31.0959 29.2723 31.4939 29.7348 31.7139C30.1976 31.9336 30.7273 31.9571 31.2072 31.7793C31.6871 31.6015 32.078 31.2369 32.2939 30.7657Z" fill="url(#paint6_linear_3169_9259)"/>
<path d="M16.2046 18.3315C15.9154 18.301 15.634 18.204 15.3827 18.0442C14.9494 17.7687 14.6414 17.3293 14.5262 16.8226C14.4693 16.5717 14.4615 16.3118 14.5032 16.0579C14.5449 15.8039 14.6354 15.5608 14.7694 15.3424C14.9035 15.124 15.0784 14.9346 15.2843 14.7851C15.4902 14.6355 15.723 14.5288 15.9695 14.4708L19.1194 13.793C19.6171 13.676 20.1401 13.765 20.5734 14.0404C21.0067 14.3159 21.3147 14.7553 21.4299 15.262C21.4868 15.5129 21.4946 15.7728 21.4529 16.0268C21.4181 16.2385 21.3495 16.4426 21.25 16.6311L17.031 25.7424C16.8152 26.2135 16.4245 26.578 15.9448 26.7559C15.4651 26.9337 14.9357 26.9103 14.4729 26.6909C14.01 26.4711 13.6518 26.0731 13.477 25.5844C13.3023 25.0957 13.3254 24.5564 13.5412 24.085L16.2046 18.3315Z" fill="url(#paint7_linear_3169_9259)"/>
</g>
</g>
<defs>
<linearGradient id="paint0_linear_3169_9259" x1="4.35384" y1="7.18784" x2="41.0655" y2="44.6193" gradientUnits="userSpaceOnUse">
<stop stop-color="white"/>
<stop offset="1" stop-color="#EAECEE"/>
</linearGradient>
<linearGradient id="paint1_linear_3169_9259" x1="15.2984" y1="17.2326" x2="26.2517" y2="34.3884" gradientUnits="userSpaceOnUse">
<stop stop-color="#0195FF"/>
<stop offset="0.991028" stop-color="#1147E9"/>
</linearGradient>
<linearGradient id="paint2_linear_3169_9259" x1="15.2984" y1="17.2326" x2="26.2517" y2="34.3884" gradientUnits="userSpaceOnUse">
<stop stop-color="#0195FF"/>
<stop offset="0.991028" stop-color="#1147E9"/>
</linearGradient>
<linearGradient id="paint3_linear_3169_9259" x1="15.2984" y1="17.2326" x2="26.2517" y2="34.3884" gradientUnits="userSpaceOnUse">
<stop stop-color="#0195FF"/>
<stop offset="0.991028" stop-color="#1147E9"/>
</linearGradient>
<linearGradient id="paint4_linear_3169_9259" x1="15.2984" y1="17.2326" x2="26.2517" y2="34.3884" gradientUnits="userSpaceOnUse">
<stop stop-color="#0195FF"/>
<stop offset="0.991028" stop-color="#1147E9"/>
</linearGradient>
<linearGradient id="paint5_linear_3169_9259" x1="15.2984" y1="17.2326" x2="26.2517" y2="34.3884" gradientUnits="userSpaceOnUse">
<stop stop-color="#0195FF"/>
<stop offset="0.991028" stop-color="#1147E9"/>
</linearGradient>
<linearGradient id="paint6_linear_3169_9259" x1="15.2984" y1="17.2326" x2="26.2517" y2="34.3884" gradientUnits="userSpaceOnUse">
<stop stop-color="#0195FF"/>
<stop offset="0.991028" stop-color="#1147E9"/>
</linearGradient>
<linearGradient id="paint7_linear_3169_9259" x1="14.5758" y1="15.7128" x2="22.7984" y2="20.7928" gradientUnits="userSpaceOnUse">
<stop stop-color="#00BBFF"/>
<stop offset="1" stop-color="#008BFF"/>
</linearGradient>
<clipPath id="clip0_3169_9259">
<rect width="48" height="48" fill="white" transform="translate(0 0.000976562)"/>
</clipPath>
<clipPath id="clip1_3169_9259">
<rect width="27" height="27" fill="white" transform="translate(11.251 9.75098)"/>
</clipPath>
</defs>
</svg>
