<svg width="48" height="48" viewBox="0 0 48 48" fill="none" xmlns="http://www.w3.org/2000/svg">
<g clip-path="url(#clip0_3169_9275)">
<circle cx="24" cy="24.375" r="23.5714" fill="url(#paint0_linear_3169_9275)" stroke="#D5DADD" stroke-width="0.857143"/>
<path d="M33.4395 11.5537C34.5645 11.5537 35.5137 11.9404 36.2871 12.7139C37.0605 13.4873 37.4473 14.4541 37.4473 15.6143V29.0615C37.4473 30.1865 37.0605 31.1533 36.2871 31.9619C35.5137 32.7354 34.5645 33.1221 33.4395 33.1221H28.0078V35.8115H30.6973C31.6113 35.8115 32.0684 36.251 32.0684 37.1299C32.0684 38.0439 31.6113 38.501 30.6973 38.501H17.25C16.8633 38.501 16.5293 38.3779 16.248 38.1318C16.002 37.8857 15.8789 37.5518 15.8789 37.1299C15.8789 36.7432 16.002 36.4268 16.248 36.1807C16.5293 35.9346 16.8633 35.8115 17.25 35.8115H19.9395V33.1221H14.5605C13.4004 33.1221 12.4336 32.7354 11.6602 31.9619C10.8867 31.1533 10.5 30.1865 10.5 29.0615V15.6143C10.5 14.4541 10.8867 13.4873 11.6602 12.7139C12.4336 11.9404 13.4004 11.5537 14.5605 11.5537H33.4395ZM34.7578 15.6143C34.7578 14.7002 34.3184 14.2432 33.4395 14.2432H14.5605C14.1738 14.2432 13.8398 14.3662 13.5586 14.6123C13.3125 14.8584 13.1895 15.1924 13.1895 15.6143V29.0615C13.1895 29.4482 13.3125 29.7822 13.5586 30.0635C13.8398 30.3096 14.1738 30.4326 14.5605 30.4326H33.4395C33.8262 30.4326 34.1426 30.3096 34.3887 30.0635C34.6348 29.7822 34.7578 29.4482 34.7578 29.0615V15.6143Z" fill="url(#paint1_linear_3169_9275)"/>
<path fill-rule="evenodd" clip-rule="evenodd" d="M33.649 22.1176C33.6472 22.8632 33.0413 23.4662 32.2957 23.4644L28.6919 23.4558L26.2707 28.5509C26.03 29.0574 25.5011 29.3624 24.9421 29.317C24.3831 29.2716 23.9104 28.8853 23.7545 28.3466L21.6307 21.004L21.0057 22.5817C20.8013 23.0975 20.3022 23.4358 19.7474 23.4344L15.7374 23.4248C14.9918 23.4231 14.3888 22.8172 14.3906 22.0716C14.3924 21.326 14.9982 20.7231 15.7438 20.7248L18.8342 20.7322L20.5751 16.3379C20.7878 15.8012 21.3181 15.4591 21.8948 15.4867C22.4714 15.5143 22.9667 15.9055 23.1271 16.46L25.3594 24.1778L26.6203 21.5243C26.8445 21.0526 27.3206 20.7525 27.8429 20.7538L32.3022 20.7644C33.0478 20.7662 33.6507 21.372 33.649 22.1176Z" fill="url(#paint2_linear_3169_9275)"/>
</g>
<defs>
<linearGradient id="paint0_linear_3169_9275" x1="4.35287" y1="7.18784" x2="41.0645" y2="44.6193" gradientUnits="userSpaceOnUse">
<stop stop-color="white"/>
<stop offset="1" stop-color="#EAECEE"/>
</linearGradient>
<linearGradient id="paint1_linear_3169_9275" x1="14.5395" y1="15.5835" x2="33.4079" y2="34.4584" gradientUnits="userSpaceOnUse">
<stop stop-color="#0195FF"/>
<stop offset="0.991028" stop-color="#1147E9"/>
</linearGradient>
<linearGradient id="paint2_linear_3169_9275" x1="24.0021" y1="14.9596" x2="23.9794" y2="29.2223" gradientUnits="userSpaceOnUse">
<stop stop-color="#00BBFF"/>
<stop offset="1" stop-color="#008BFF"/>
</linearGradient>
<clipPath id="clip0_3169_9275">
<rect width="48" height="48" fill="white" transform="translate(0 0.000976562)"/>
</clipPath>
</defs>
</svg>
