<svg width="48" height="48" viewBox="0 0 48 48" fill="none" xmlns="http://www.w3.org/2000/svg">
<g clip-path="url(#clip0_3169_9282)">
<circle cx="24.001" cy="24.375" r="23.5714" fill="url(#paint0_linear_3169_9282)" stroke="#D5DADD" stroke-width="0.857143"/>
<path d="M26.2525 24.6954H22.0782L24.1239 19.1552H24.2036L26.2525 24.6954Z" fill="url(#paint1_linear_3169_9282)"/>
<path fill-rule="evenodd" clip-rule="evenodd" d="M23.0781 37.501H24.9238C25.5566 37.501 26.1191 37.29 26.6113 36.8682C27.1035 36.4814 27.4199 35.9717 27.5605 35.3389L27.877 33.5986L30.1973 32.2275L31.7793 32.9131C32.0957 33.0186 32.4297 33.0713 32.7812 33.0713C33.2734 33.0713 33.7305 32.9482 34.1523 32.7021C34.6094 32.4561 34.9609 32.0869 35.207 31.5947L36.1562 29.6436C36.3672 29.2568 36.4727 28.8525 36.4727 28.4307C36.4727 27.5518 36.1035 26.8311 35.3652 26.2686L34.0996 25.3721V22.6299L35.3652 21.6807C36.1035 21.1533 36.4727 20.4502 36.4727 19.5713C36.4727 19.1143 36.3672 18.71 36.1562 18.3584L35.207 16.4072C34.9609 15.915 34.6094 15.5459 34.1523 15.2998C33.7305 15.0537 33.2734 14.9307 32.7812 14.9307C32.3945 14.9307 32.0605 15.001 31.7793 15.1416L30.1973 15.7744L27.877 14.4033L27.5605 12.6631C27.4199 12.0303 27.1035 11.5205 26.6113 11.1338C26.1191 10.7119 25.5566 10.501 24.9238 10.501H23.0781C22.4453 10.501 21.8828 10.7119 21.3906 11.1338C20.8984 11.5205 20.582 12.0303 20.4414 12.6631L20.0723 14.4033L17.8047 15.7744L16.2227 15.1416C15.9414 15.001 15.6074 14.9307 15.2207 14.9307C14.7285 14.9307 14.2539 15.0537 13.7969 15.2998C13.375 15.5459 13.041 15.915 12.7949 16.4072L11.793 18.3584C11.6172 18.7803 11.5293 19.167 11.5293 19.5186C11.5293 20.4326 11.8809 21.1533 12.584 21.6807L13.8496 22.6299V25.3721L12.6367 26.2686C11.8984 26.8311 11.5293 27.5693 11.5293 28.4834C11.5293 28.835 11.6172 29.2217 11.793 29.6436L12.7949 31.5947C13.041 32.0869 13.375 32.4561 13.7969 32.7021C14.2539 32.9482 14.7285 33.0713 15.2207 33.0713C15.5371 33.0713 15.8711 33.0186 16.2227 32.9131L17.8047 32.2275L20.0723 33.5986L20.4414 35.3389C20.5469 35.9717 20.8457 36.4814 21.3379 36.8682C21.8652 37.29 22.4453 37.501 23.0781 37.501ZM18.9975 28.8686C19.1602 29.1234 19.4141 29.2508 19.7592 29.2508C19.9305 29.2508 20.0982 29.1947 20.2626 29.0823C20.427 28.9699 20.5391 28.837 20.599 28.6835L21.5406 26.1901H26.7856L27.6966 28.6594C27.7491 28.8256 27.8544 28.9657 28.0124 29.0798C28.1705 29.1938 28.3479 29.2508 28.5446 29.2508C28.9194 29.2508 29.193 29.1194 29.3654 28.8566C29.5379 28.5937 29.5532 28.2883 29.4112 27.9403L25.614 18.2861C25.5075 18.0252 25.3182 17.8006 25.046 17.6124C24.7738 17.4242 24.4987 17.3301 24.2207 17.3301C23.9385 17.3301 23.6628 17.4233 23.3934 17.6097C23.124 17.7962 22.9376 18.0217 22.8341 18.2861L18.9547 27.9884C18.8206 28.3204 18.8349 28.6138 18.9975 28.8686Z" fill="url(#paint2_linear_3169_9282)"/>
</g>
<defs>
<linearGradient id="paint0_linear_3169_9282" x1="4.35384" y1="7.18784" x2="41.0655" y2="44.6193" gradientUnits="userSpaceOnUse">
<stop stop-color="white"/>
<stop offset="1" stop-color="#EAECEE"/>
</linearGradient>
<linearGradient id="paint1_linear_3169_9282" x1="15.2684" y1="14.5387" x2="34.115" y2="31.9558" gradientUnits="userSpaceOnUse">
<stop stop-color="#0195FF"/>
<stop offset="0.991028" stop-color="#1147E9"/>
</linearGradient>
<linearGradient id="paint2_linear_3169_9282" x1="15.2684" y1="14.5387" x2="34.115" y2="31.9558" gradientUnits="userSpaceOnUse">
<stop stop-color="#0195FF"/>
<stop offset="0.991028" stop-color="#1147E9"/>
</linearGradient>
<clipPath id="clip0_3169_9282">
<rect width="48" height="48" fill="white" transform="translate(0 0.000976562)"/>
</clipPath>
</defs>
</svg>
