<svg width="48" height="48" viewBox="0 0 48 48" fill="none" xmlns="http://www.w3.org/2000/svg">
<g clip-path="url(#clip0_3169_9288)">
<circle cx="24" cy="24.375" r="23.5714" fill="url(#paint0_linear_3169_9288)" stroke="#D5DADD" stroke-width="0.857143"/>
<g clip-path="url(#clip1_3169_9288)">
<path d="M19.6969 15.5462C19.7095 14.6172 20.1628 13.8758 20.7432 13.3425C21.3059 12.8256 22.0364 12.4514 22.8061 12.1763C24.3519 11.6238 26.3819 11.3564 28.5355 11.3564C30.6892 11.3564 32.7338 11.6238 34.2908 12.1749C35.0654 12.449 35.8027 12.8223 36.3694 13.3392C36.9542 13.8727 37.4156 14.6221 37.4156 15.5654L37.4156 22.837C37.4156 23.5911 36.8043 24.2024 36.0502 24.2024C35.2971 24.2024 34.6867 23.5923 34.6863 22.8391C34.6861 22.5064 34.6859 22.2357 34.6857 22.1961C34.4935 22.2558 33.2458 22.3681 32.2764 22.4415C32.0768 22.4566 31.8891 22.4176 31.726 22.3373C31.7024 22.3239 31.6786 22.311 31.6546 22.2985C31.3443 22.1139 31.1391 21.7717 31.1391 21.3721C31.1391 20.7425 31.6492 20.2128 32.2753 20.1467C33.2397 20.0449 34.4352 19.8739 34.6896 19.7567V17.3096C34.5583 17.3633 34.4251 17.4138 34.2908 17.4613C32.7338 18.0124 30.6892 18.2798 28.5355 18.2798C26.3997 18.2798 24.3749 18.0168 22.8295 17.4746C22.6949 17.4274 22.5615 17.3772 22.4299 17.3238C22.432 18.0159 21.8716 18.578 21.1795 18.578H21.0632C20.3086 18.578 19.6969 17.9662 19.6969 17.2116V15.5462Z" fill="url(#paint1_linear_3169_9288)"/>
<path d="M27.9707 22.7189C27.78 22.3009 27.495 21.9444 27.1725 21.6529C26.6058 21.1408 25.8685 20.771 25.0939 20.4994C23.5369 19.9534 21.4923 19.6885 19.3386 19.6885C17.185 19.6885 15.155 19.9533 13.6092 20.5008C12.8395 20.7733 12.109 21.144 11.5463 21.6562C10.9659 22.1845 10.5126 22.9191 10.5 23.8395L10.5284 33.5901L10.5284 33.5918C10.5294 35.6587 12.2357 36.7755 13.7518 37.3289C15.356 37.9146 17.3944 38.1443 19.3378 38.1455C19.8405 38.1458 20.8984 38.022 21.8565 37.9C22.7131 37.791 23.2727 36.9323 23.0281 36.1042C22.8405 35.4693 22.2331 35.0666 21.5769 35.1545C20.7384 35.2668 19.7249 35.4021 19.3394 35.4018C17.5534 35.4007 15.8683 35.183 14.6813 34.7497C13.4065 34.2843 13.2544 33.8109 13.2545 33.5901L13.2529 31.9064C13.7427 32.0555 14.2566 32.1779 14.7759 32.2781C15.8941 32.4939 18.3499 32.624 20.1184 32.6711C20.8031 32.6893 21.359 32.136 21.3606 31.4511C21.3622 30.766 20.8085 30.2085 20.1237 30.1898C18.4824 30.1452 16.235 30.0292 15.2893 29.8466C14.4304 29.6809 13.7408 29.4722 13.2368 29.2495L13.233 27.0814C13.3646 27.1343 13.498 27.184 13.6326 27.2308C15.178 27.768 17.2028 28.0285 19.3386 28.0285C20.3793 28.0285 21.3945 27.9666 22.3415 27.8411L22.2997 27.6736V27.4659C22.2997 26.9584 22.4437 26.3727 22.8735 25.8843L23.4342 25.151L23.4568 25.1238C23.8858 24.6091 24.5209 24.2463 25.2939 24.2463C25.7963 24.2463 26.2751 24.4016 26.6808 24.6959L26.7523 24.7456C26.8989 24.6634 27.048 24.5864 27.1996 24.5146L27.221 24.2044L27.2344 24.1242C27.3176 23.6246 27.543 23.1457 27.931 22.7578C27.944 22.7447 27.9573 22.7317 27.9707 22.7189Z" fill="url(#paint2_linear_3169_9288)"/>
<path fill-rule="evenodd" clip-rule="evenodd" d="M36.9198 31.3861C37.2502 31.5363 37.4154 31.7917 37.4154 32.1522V32.2423L37.1901 33.1886C37.1 33.5791 36.8597 33.7744 36.4691 33.7744H36.379L34.937 33.5491C34.6667 34.1199 34.2311 34.6456 33.6302 35.1263L34.171 36.6584C34.201 36.7184 34.216 36.7935 34.216 36.8837C34.216 37.2442 34.0808 37.4845 33.8105 37.6047L32.9543 38.0553C32.8341 38.1154 32.744 38.1454 32.6839 38.1454C32.4136 38.1454 32.2033 38.0102 32.0531 37.7398L31.1969 36.2528C31.0467 36.2828 30.8814 36.3129 30.7012 36.3429H30.2055H29.7549C29.6347 36.3129 29.4995 36.2828 29.3493 36.2528L28.4481 37.7849C28.2979 38.0252 28.1026 38.1454 27.8623 38.1454C27.7121 38.1454 27.6069 38.1154 27.5469 38.0553L26.6907 37.6497C26.4203 37.5296 26.2851 37.3193 26.2851 37.0189C26.2851 36.8987 26.3001 36.8086 26.3302 36.7485L26.8709 35.2164C26.3302 34.8258 25.8946 34.3151 25.5641 33.6843L24.032 33.9096H23.9419C23.5514 33.9096 23.311 33.7143 23.2209 33.3238L22.9956 32.3775V32.2873C22.9956 31.9269 23.1608 31.6715 23.4913 31.5213L24.7981 31.1157V30.9355C24.7981 30.1845 24.9333 29.4935 25.2036 28.8626L24.2123 27.9614C24.1222 27.8713 24.0471 27.7061 23.987 27.4657C23.987 27.2554 24.0471 27.0902 24.1672 26.97L24.753 26.204C24.9032 26.0237 25.0835 25.9336 25.2938 25.9336C25.444 25.9336 25.5792 25.9787 25.6993 26.0688L26.7357 26.7898C27.3666 26.2791 28.0576 25.9186 28.8086 25.7083L28.8987 24.4015C28.9288 24.2213 29.0039 24.0711 29.124 23.9509C29.2742 23.8007 29.4395 23.7256 29.6197 23.7256H30.566C30.7763 23.7256 30.9415 23.8007 31.0617 23.9509C31.2119 24.0711 31.287 24.2213 31.287 24.4015L31.3771 25.6632C32.1282 25.8435 32.8492 26.174 33.5401 26.6546L34.5765 25.9336C34.7267 25.8435 34.8619 25.7984 34.9821 25.7984C35.2224 25.7984 35.4027 25.8886 35.5228 26.0688L36.1086 26.8349C36.2288 26.955 36.2889 27.1203 36.2889 27.3305C36.2889 27.5108 36.2138 27.676 36.0636 27.8262L35.1623 28.7275C35.3125 29.0579 35.4177 29.4034 35.4778 29.7639C35.5679 30.1244 35.613 30.5149 35.613 30.9355V30.9806L36.9198 31.3861ZM27.9975 33.1435C27.3967 32.5427 27.0962 31.8067 27.0962 30.9355C27.0962 30.0643 27.3967 29.3283 27.9975 28.7275C28.5983 28.1266 29.3343 27.8262 30.2055 27.8262C31.0767 27.8262 31.8127 28.1266 32.4136 28.7275C33.0144 29.3283 33.3148 30.0643 33.3148 30.9355C33.3148 31.8067 33.0144 32.5427 32.4136 33.1435C31.8127 33.7444 31.0767 34.0448 30.2055 34.0448C29.3343 34.0448 28.5983 33.7444 27.9975 33.1435Z" fill="url(#paint3_linear_3169_9288)"/>
</g>
</g>
<defs>
<linearGradient id="paint0_linear_3169_9288" x1="4.35287" y1="7.18784" x2="41.0645" y2="44.6193" gradientUnits="userSpaceOnUse">
<stop stop-color="white"/>
<stop offset="1" stop-color="#EAECEE"/>
</linearGradient>
<linearGradient id="paint1_linear_3169_9288" x1="14.5348" y1="15.3626" x2="33.2921" y2="34.2151" gradientUnits="userSpaceOnUse">
<stop stop-color="#0195FF"/>
<stop offset="0.991028" stop-color="#1147E9"/>
</linearGradient>
<linearGradient id="paint2_linear_3169_9288" x1="14.5348" y1="15.3626" x2="33.2921" y2="34.2151" gradientUnits="userSpaceOnUse">
<stop stop-color="#0195FF"/>
<stop offset="0.991028" stop-color="#1147E9"/>
</linearGradient>
<linearGradient id="paint3_linear_3169_9288" x1="25.1275" y1="25.8471" x2="35.2191" y2="35.9822" gradientUnits="userSpaceOnUse">
<stop stop-color="#1348FF"/>
<stop offset="1" stop-color="#06238D"/>
</linearGradient>
<clipPath id="clip0_3169_9288">
<rect width="48" height="48" fill="white" transform="translate(0 0.000976562)"/>
</clipPath>
<clipPath id="clip1_3169_9288">
<rect width="27" height="27" fill="white" transform="translate(10.5 11.251)"/>
</clipPath>
</defs>
</svg>
