<svg width="48" height="48" viewBox="0 0 48 48" fill="none" xmlns="http://www.w3.org/2000/svg">
<g clip-path="url(#clip0_3169_9295)">
<circle cx="24" cy="24.375" r="23.5714" fill="url(#paint0_linear_3169_9295)" stroke="#D5DADD" stroke-width="0.857143"/>
<path fill-rule="evenodd" clip-rule="evenodd" d="M36.3376 12.4246C35.5626 11.6497 34.594 11.2622 33.4315 11.2622H14.5685C13.4061 11.2622 12.4374 11.6497 11.6624 12.4246C10.8875 13.1996 10.5 14.1507 10.5 15.2779V36.8885C10.5 37.4521 10.7642 37.8572 11.2926 38.1037C11.8562 38.3503 12.3493 38.2623 12.772 37.8396L17.7916 32.82H33.4315C34.594 32.82 35.5626 32.4325 36.3376 31.6575C37.1126 30.8826 37.5 29.9315 37.5 28.8043V15.2779C37.5 14.1507 37.1126 13.1996 36.3376 12.4246ZM32.1398 21.164C32.0993 21.0358 31.9946 20.9397 31.8662 20.9184L29.9471 20.6266L29.0821 18.7973C28.9673 18.5553 28.5922 18.5553 28.4773 18.7973L27.609 20.623L25.6899 20.9184C25.5615 20.9397 25.4568 21.0323 25.4163 21.164C25.3757 21.2921 25.4129 21.4344 25.5041 21.5305L26.8927 22.9292L26.5515 24.9471C26.5278 25.0823 26.5819 25.214 26.6833 25.2958C26.788 25.3777 26.9232 25.3884 27.038 25.3243L28.7747 24.3776L30.5113 25.3243C30.562 25.3492 30.6127 25.3635 30.6667 25.3635C30.7377 25.3635 30.8086 25.3386 30.8661 25.2958C30.9708 25.214 31.0215 25.0788 30.9978 24.9471L30.6566 22.9292L32.0452 21.5305C32.1398 21.438 32.1736 21.2956 32.1331 21.164H32.1398ZM22.5374 21.164C22.4969 21.0358 22.3922 20.9397 22.2638 20.9184L20.3447 20.6266L19.4797 18.7973C19.3649 18.5553 18.9898 18.5553 18.8749 18.7973L18.0066 20.623L16.0875 20.9184C15.9591 20.9397 15.8544 21.0323 15.8139 21.164C15.7733 21.2921 15.8105 21.4344 15.9017 21.5305L17.2903 22.9292L16.9491 24.9471C16.9254 25.0823 16.9795 25.214 17.0809 25.2958C17.1856 25.3777 17.3208 25.3884 17.4356 25.3243L19.1723 24.3776L20.9089 25.3243C20.9596 25.3492 21.0103 25.3635 21.0643 25.3635C21.1353 25.3635 21.2062 25.3386 21.2637 25.2958C21.3684 25.214 21.4191 25.0788 21.3954 24.9471L21.0542 22.9292L22.4428 21.5305C22.5374 21.438 22.5712 21.2956 22.5307 21.164H22.5374Z" fill="url(#paint1_linear_3169_9295)"/>
</g>
<defs>
<linearGradient id="paint0_linear_3169_9295" x1="4.35287" y1="7.18784" x2="41.0645" y2="44.6193" gradientUnits="userSpaceOnUse">
<stop stop-color="white"/>
<stop offset="1" stop-color="#EAECEE"/>
</linearGradient>
<linearGradient id="paint1_linear_3169_9295" x1="14.5474" y1="15.2966" x2="33.4371" y2="34.2084" gradientUnits="userSpaceOnUse">
<stop stop-color="#0195FF"/>
<stop offset="0.991028" stop-color="#1147E9"/>
</linearGradient>
<clipPath id="clip0_3169_9295">
<rect width="48" height="48" fill="white" transform="translate(0 0.000976562)"/>
</clipPath>
</defs>
</svg>
