<svg width="49" height="48" viewBox="0 0 49 48" fill="none" xmlns="http://www.w3.org/2000/svg">
<g clip-path="url(#clip0_3169_9303)">
<circle cx="25.0012" cy="24.375" r="23.5714" fill="url(#paint0_linear_3169_9303)" stroke="#D5DADD" stroke-width="0.857143"/>
<g clip-path="url(#clip1_3169_9303)">
<path d="M34.1807 27.4006C34.4845 27.4026 34.8977 27.3611 35.4442 27.2239L35.4672 27.2181L35.4904 27.2135C35.8319 27.1445 36.3011 27.0842 36.7175 27.2486C36.9683 27.3476 37.2643 27.5572 37.4082 27.9355C37.5423 28.2884 37.4747 28.61 37.4035 28.8044C37.2708 29.1672 36.9965 29.4545 36.7824 29.6455C36.5395 29.8622 36.2397 30.0716 35.9084 30.259C35.1876 30.6669 34.3137 30.8837 33.5137 30.9579C33.1627 30.9905 32.8005 30.9979 32.448 30.9745C32.2916 32.2104 32.0469 33.8911 31.9227 34.5947C31.7694 35.4644 31.4896 36.2598 30.8763 36.8832C30.2677 37.5019 29.4525 37.827 28.4971 38.0273C27.2162 38.2956 26.2352 38.0442 25.5365 37.4274C24.9622 36.9205 24.6917 36.2439 24.5603 35.9151C24.5495 35.8881 24.5396 35.8634 24.5306 35.8414C24.4069 35.5388 24.3337 35.1357 24.2823 34.7462C24.2273 34.3292 24.1855 33.8268 24.156 33.2707C24.1291 32.7636 24.112 32.2026 24.1052 31.607C22.9095 32.0778 21.7533 31.8423 21.449 31.7804L21.4353 31.7776C21.2065 31.7311 20.9511 31.629 20.7399 31.5206C20.5479 31.422 20.2594 31.2515 20.0405 31.0003C19.6356 31.3448 19.1608 31.5773 18.615 31.6C17.8715 31.6308 17.2658 31.2605 16.8234 30.8401C15.969 30.028 15.2928 28.6228 14.7713 27.2354C14.2321 25.8012 13.7949 24.2069 13.487 22.8628C12.8911 20.262 12.3788 17.0914 14.3086 14.8955C15.2843 13.7852 16.6114 13.3465 17.8498 13.2222C19.7831 13.0283 21.7755 13.5726 22.717 13.8823C23.6075 13.3582 24.6948 13.0551 25.9985 13.0761L26.0333 13.0766L26.0681 13.0796C26.6552 13.1295 27.2049 13.2265 27.7187 13.3629L27.7977 13.3405C28.0252 13.2765 28.3416 13.1927 28.6965 13.1143C29.3544 12.9689 30.325 12.7981 31.082 12.9167C31.3388 12.9569 31.5777 12.9874 31.812 13.0164L31.9003 13.0273C32.1015 13.0521 32.3065 13.0774 32.503 13.1067C32.9608 13.1751 33.4361 13.2738 33.9291 13.4892C35.8023 14.3026 36.7964 15.539 37.1485 16.4888L37.1665 16.5373L37.1795 16.5875C37.5022 17.8368 37.3026 19.2525 37.0345 20.3961C36.8265 21.2834 36.5439 22.1291 36.3539 22.6977L36.3539 22.6978L36.3536 22.6985C36.3023 22.852 36.2578 22.9853 36.2233 23.0938C36.1222 23.5098 35.9103 24.0229 35.6845 24.5141C35.441 25.0436 35.1457 25.6227 34.8574 26.1648C34.6202 26.6108 34.3844 27.038 34.1807 27.4006Z" fill="black"/>
<path d="M35.6906 28.2061C36.9721 27.9474 36.5339 28.7413 35.4095 29.3774C34.2852 30.0136 32.5099 30.1319 31.5647 29.7806C31.4798 30.7316 31.0911 33.4783 30.9251 34.4186C30.6516 35.9699 30.0214 36.6727 28.2891 37.0359C26.2157 37.4703 25.7496 36.1465 25.4678 35.4578C25.1863 34.7691 25.0577 32.1962 25.1382 29.3819L25.1485 29.0893C25.1485 29.0893 25.1295 29.4986 25.024 29.6429C23.8641 31.2313 22.0717 30.8732 21.6366 30.7849C21.2015 30.6966 19.8632 29.9847 21.5417 29.7806C23.2202 29.5765 23.3945 28.2061 24.2105 28.0248C23.7743 28.0291 23.5354 28.0984 23.5034 27.9052C22.8218 27.9697 22.1745 27.7892 21.6366 27.4354C21.046 28.3043 20.3742 29.1154 19.6941 29.9152C16.6318 33.5155 14.0641 21.596 13.9713 19.7809C13.5558 11.6578 22.038 14.6936 22.8529 15.0036C23.6331 14.4324 24.6518 14.0673 25.9821 14.0886C26.6165 14.1425 27.1964 14.257 27.7258 14.4176C27.7258 14.4176 29.8303 13.7457 30.9251 13.9172C32.02 14.0886 32.7722 14.0886 33.5243 14.4176C35.1791 15.1358 35.9546 16.182 36.1987 16.8407C36.7169 18.8465 35.597 21.7047 35.246 22.8246C34.9625 24.0728 32.9506 27.519 32.719 27.9131C32.7142 27.9268 32.707 27.9391 32.6973 27.95C32.6973 27.95 33.3572 28.7918 35.6906 28.2061Z" fill="#40668D"/>
<path d="M35.4095 29.3774L35.6173 29.7447L35.6173 29.7447L35.4095 29.3774ZM35.6906 28.2061L35.6071 27.7924L35.5974 27.7944L35.5879 27.7968L35.6906 28.2061ZM13.9713 19.7809L14.3928 19.7594L14.3928 19.7594L13.9713 19.7809ZM19.6941 29.9152L20.0156 30.1887L20.0156 30.1886L19.6941 29.9152ZM25.1382 29.3819L24.7164 29.3671L24.7163 29.3698L25.1382 29.3819ZM25.4678 35.4578L25.0772 35.6175L25.0773 35.6176L25.4678 35.4578ZM28.2891 37.0359L28.3756 37.4489L28.3757 37.4489L28.2891 37.0359ZM30.9251 34.4186L30.5096 34.3452L30.5096 34.3453L30.9251 34.4186ZM31.5647 29.4579L31.9855 29.4902L31.9877 29.4618L31.986 29.4334L31.5647 29.4579ZM21.5417 29.7806L21.5926 30.1995L21.5926 30.1995L21.5417 29.7806ZM25.024 29.6429L24.6832 29.394L24.6832 29.3941L25.024 29.6429ZM24.1236 26.3141L24.5125 26.478L24.5125 26.478L24.1236 26.3141ZM24.6431 21.0349L25.0552 20.9438L25.0518 20.9284L25.0472 20.9133L24.6431 21.0349ZM20.3839 24.1829L19.9662 24.1231L19.9662 24.1231L20.3839 24.1829ZM32.9156 19.8937L33.337 19.8704L33.3262 19.796L32.9156 19.8937ZM25.9821 14.0886L26.0178 13.6681L25.9889 13.6666L25.9821 14.0886ZM31.5647 29.7806L31.1456 29.7294L31.1444 29.7431L31.5647 29.7806ZM30.9251 13.9172L30.8599 14.3341L30.8599 14.3341L30.9251 13.9172ZM25.1485 29.0893L25.5702 29.1041L25.5722 29.0461L25.5585 28.9897L25.1485 29.0893ZM32.1904 27.0404L31.8415 27.2777L31.8615 27.3072L31.8863 27.333L32.1904 27.0404ZM24.2105 28.0248L24.2595 27.6056L24.233 27.6025L24.2063 27.6028L24.2105 28.0248ZM35.246 22.8246L34.8433 22.6984L34.8382 22.7146L34.8344 22.7311L35.246 22.8246ZM36.1987 16.8407L36.6073 16.7351L36.6019 16.7142L36.5944 16.694L36.1987 16.8407ZM33.5243 14.4176L33.3552 14.8042L33.3563 14.8047L33.5243 14.4176ZM35.6173 29.7447C35.9193 29.5738 36.1832 29.3881 36.3889 29.2045C36.5827 29.0317 36.767 28.824 36.8486 28.6012C36.8913 28.4844 36.9217 28.3187 36.8558 28.1453C36.7858 27.9614 36.6403 27.8532 36.5004 27.798C36.256 27.7015 35.9363 27.726 35.6071 27.7924L35.7741 28.6198C35.9179 28.5907 36.0244 28.5793 36.0996 28.578C36.1791 28.5767 36.2011 28.5872 36.1905 28.583C36.1721 28.5758 36.1025 28.539 36.0668 28.4452C36.0513 28.4043 36.049 28.3685 36.0504 28.3447C36.051 28.3331 36.0526 28.3245 36.0538 28.3191C36.0544 28.3164 36.055 28.3144 36.0553 28.3131C36.0557 28.3118 36.056 28.3111 36.056 28.3111C36.056 28.3111 36.0558 28.3117 36.0553 28.3128C36.0548 28.3139 36.0541 28.3156 36.053 28.3177C36.0509 28.3221 36.0477 28.3281 36.043 28.3358C36.0336 28.3514 36.0198 28.3717 36.0001 28.3964C35.9604 28.4464 35.9033 28.5067 35.8271 28.5747C35.6744 28.7109 35.4619 28.8629 35.2017 29.0101L35.6173 29.7447ZM35.5879 27.7968C34.4759 28.0759 33.8074 28.0038 33.4404 27.8935C33.2565 27.8382 33.1425 27.7717 33.0811 27.7282C33.0501 27.7062 33.0316 27.6894 33.0237 27.6817C33.0197 27.6779 33.0184 27.6763 33.0194 27.6775C33.0199 27.678 33.021 27.6793 33.0227 27.6813C33.0236 27.6823 33.0245 27.6835 33.0257 27.6849C33.0262 27.6856 33.0268 27.6863 33.0274 27.6871C33.0278 27.6875 33.0281 27.6879 33.0284 27.6883C33.0286 27.6885 33.0288 27.6888 33.0289 27.689C33.0292 27.6893 33.0294 27.6896 32.6973 27.95C32.3652 28.2103 32.3655 28.2106 32.3657 28.211C32.3658 28.2111 32.3661 28.2114 32.3663 28.2117C32.3666 28.2121 32.367 28.2126 32.3674 28.2131C32.3682 28.2141 32.369 28.2152 32.3699 28.2163C32.3717 28.2184 32.3737 28.2208 32.3758 28.2234C32.3801 28.2286 32.3852 28.2345 32.3912 28.2411C32.403 28.2543 32.4181 28.2702 32.4367 28.2882C32.474 28.3243 32.5253 28.3687 32.5927 28.4165C32.7279 28.5125 32.9247 28.6198 33.1975 28.7018C33.7438 28.866 34.5719 28.922 35.7933 28.6154L35.5879 27.7968ZM13.5499 19.8025C13.5751 20.2958 13.7605 21.4119 14.0627 22.7307C14.3669 24.0587 14.7972 25.6257 15.3241 27.0273C15.8437 28.4095 16.4818 29.7003 17.2303 30.4117C17.6109 30.7735 18.0685 31.0312 18.5903 31.0095C19.1148 30.9878 19.5903 30.6886 20.0156 30.1887L19.3727 29.6418C19.0324 30.0419 18.7577 30.1579 18.5553 30.1663C18.3501 30.1748 18.1041 30.0778 17.8118 29.8C17.2146 29.2324 16.6309 28.1049 16.1141 26.7304C15.6047 25.3752 15.1843 23.8471 14.8854 22.5422C14.5843 21.2282 14.4139 20.1736 14.3928 19.7594L13.5499 19.8025ZM24.7163 29.3698C24.6758 30.7859 24.6878 32.1444 24.7458 33.2393C24.7748 33.7863 24.8155 34.2722 24.8678 34.6688C24.9187 35.054 24.9846 35.391 25.0772 35.6175L25.8585 35.2981C25.8103 35.1803 25.7546 34.9374 25.7046 34.5585C25.6561 34.191 25.6169 33.7286 25.5886 33.1946C25.5321 32.1272 25.52 30.7921 25.56 29.394L24.7163 29.3698ZM25.0773 35.6176C25.2089 35.9394 25.4287 36.5442 25.9273 36.9844C26.4581 37.453 27.2372 37.6874 28.3756 37.4489L28.2026 36.6229C27.2676 36.8187 26.7769 36.6085 26.4859 36.3516C26.1627 36.0664 26.0085 35.6649 25.8584 35.298L25.0773 35.6176ZM28.3757 37.4489C29.279 37.2595 29.9632 36.9686 30.455 36.4687C30.9487 35.9669 31.1971 35.3067 31.3407 34.4918L30.5096 34.3453C30.3797 35.0817 30.1762 35.5487 29.8533 35.8768C29.5285 36.207 29.0314 36.4491 28.2025 36.6229L28.3757 37.4489ZM31.986 29.4334C31.9667 29.1014 32.0113 28.904 32.0628 28.7878C32.1108 28.6794 32.1737 28.6208 32.2422 28.5795C32.3212 28.5318 32.4125 28.5034 32.5366 28.4693C32.5899 28.4546 32.6672 28.4342 32.7354 28.4088C32.7992 28.3851 32.9118 28.3378 33.0046 28.2391L32.39 27.6608C32.4335 27.6145 32.471 27.6067 32.4413 27.6177C32.4162 27.627 32.3818 27.6365 32.3129 27.6555C32.1925 27.6886 31.9965 27.742 31.8061 27.8569C31.6051 27.9782 31.4164 28.1632 31.2911 28.4459C31.1693 28.7207 31.1189 29.0619 31.1434 29.4825L31.986 29.4334ZM21.4908 29.3617C21.2654 29.3891 21.0748 29.4268 20.9181 29.4766C20.7668 29.5247 20.6162 29.5936 20.4993 29.7026C20.3691 29.8242 20.2831 29.9964 20.2986 30.1972C20.3123 30.3737 20.4 30.5097 20.4727 30.5967C20.6171 30.7696 20.8333 30.9044 21.0095 30.9948C21.1911 31.0881 21.3939 31.1662 21.5526 31.1985L21.7206 30.3713C21.6956 30.3662 21.6499 30.3534 21.5879 30.33C21.5279 30.3073 21.461 30.2779 21.3949 30.244C21.3284 30.2099 21.2671 30.1734 21.2165 30.1376C21.1638 30.1003 21.1338 30.0716 21.1205 30.0557C21.1035 30.0354 21.1347 30.0623 21.1401 30.1323C21.1432 30.1713 21.1369 30.2133 21.1203 30.2522C21.1044 30.2893 21.0844 30.3111 21.0751 30.3198C21.0621 30.332 21.0788 30.3111 21.1739 30.2809C21.2636 30.2524 21.3984 30.2231 21.5926 30.1995L21.4908 29.3617ZM21.5526 31.1985C21.982 31.2856 24.0365 31.7108 25.3648 29.8918L24.6832 29.3941C23.6916 30.7519 22.1613 30.4608 21.7206 30.3713L21.5526 31.1985ZM24.5125 26.478C24.6727 26.098 25.0329 25.5165 25.218 24.6831C25.4093 23.8221 25.436 22.6661 25.0552 20.9438L24.2311 21.126C24.5928 22.7619 24.5521 23.7891 24.3941 24.5C24.2301 25.2385 23.9593 25.6176 23.7348 26.1501L24.5125 26.478ZM25.0472 20.9133C24.8346 20.2067 24.3903 19.7824 23.8346 19.5915C23.3059 19.4098 22.718 19.4527 22.2031 19.5721C21.682 19.693 21.1899 19.9028 20.8246 20.1064C20.6424 20.208 20.4811 20.3139 20.3592 20.4141C20.2993 20.4634 20.2379 20.5203 20.1874 20.5829C20.1526 20.626 20.0555 20.7509 20.0543 20.9253L20.8983 20.9311C20.8977 21.0065 20.8746 21.0591 20.8647 21.0792C20.8587 21.0913 20.8533 21.0998 20.8501 21.1047C20.8468 21.1097 20.8446 21.1125 20.8441 21.113C20.8436 21.1136 20.847 21.1094 20.8564 21.1003C20.8656 21.0915 20.8784 21.08 20.8954 21.066C20.9662 21.0077 21.0815 20.9295 21.2355 20.8437C21.5424 20.6726 21.9608 20.4947 22.3938 20.3943C22.833 20.2925 23.2426 20.2805 23.5604 20.3897C23.8511 20.4896 24.1022 20.7018 24.239 21.1565L25.0472 20.9133ZM20.0543 20.9253C20.0516 21.3231 20.1909 22.5519 19.9662 24.1231L20.8017 24.2426C21.0368 22.5983 20.8964 21.2116 20.8983 20.931L20.0543 20.9253ZM32.4942 19.9169C32.5153 20.2976 32.4621 20.4387 32.3848 20.7308C32.2982 21.0574 32.2102 21.4765 32.2102 22.3339H33.0542C33.0542 21.5491 33.1329 21.2027 33.2006 20.9469C33.2775 20.6567 33.3661 20.3987 33.337 19.8704L32.4942 19.9169ZM23.0029 14.6092C22.5902 14.4522 20.1852 13.5816 17.9086 13.81C16.7595 13.9252 15.596 14.3253 14.7522 15.2854C13.9069 16.2472 13.4425 17.7028 13.5499 19.8025L14.3928 19.7594C14.2924 17.7976 14.7324 16.5864 15.3862 15.8425C16.0414 15.0969 16.9714 14.7522 17.9928 14.6498C20.0572 14.4427 22.3006 15.245 22.7028 15.398L23.0029 14.6092ZM20.4763 20.9282C20.8979 20.9113 20.8979 20.9114 20.8979 20.9115C20.8979 20.9115 20.8979 20.9116 20.8979 20.9116C20.8979 20.9117 20.8979 20.9117 20.8979 20.9116C20.8979 20.9115 20.8979 20.9111 20.8979 20.9105C20.8979 20.9092 20.8978 20.907 20.8977 20.9039C20.8975 20.8976 20.8972 20.8876 20.897 20.8741C20.8965 20.847 20.896 20.8057 20.8962 20.7517C20.8967 20.6438 20.9001 20.4855 20.9118 20.2889C20.9352 19.8951 20.992 19.3517 21.1244 18.7543C21.392 17.5468 21.9535 16.185 23.1021 15.3441L22.6036 14.6631C21.213 15.6811 20.5863 17.2816 20.3004 18.5717C20.156 19.223 20.0947 19.8122 20.0693 20.2388C20.0566 20.4524 20.0528 20.6263 20.0522 20.7479C20.052 20.8088 20.0525 20.8567 20.0531 20.89C20.0534 20.9067 20.0538 20.9197 20.0541 20.929C20.0542 20.9336 20.0543 20.9372 20.0544 20.9399C20.0545 20.9413 20.0545 20.9424 20.0545 20.9432C20.0545 20.9436 20.0546 20.944 20.0546 20.9443C20.0546 20.9445 20.0546 20.9446 20.0546 20.9447C20.0546 20.9449 20.0546 20.945 20.4763 20.9282ZM25.9889 13.6666C24.5718 13.6439 23.462 14.0346 22.6036 14.6631L23.1021 15.3441C23.8041 14.8302 24.7318 14.4906 25.9753 14.5105L25.9889 13.6666ZM31.3407 34.4919C31.5081 33.5436 31.8988 30.7845 31.9851 29.8181L31.1444 29.7431C31.0609 30.6787 30.6741 33.4129 30.5096 34.3452L31.3407 34.4919ZM31.9836 29.8318C31.9955 29.7346 31.9909 29.6498 31.988 29.5965C31.9848 29.5366 31.9836 29.5143 31.9855 29.4902L31.144 29.4257C31.137 29.516 31.1429 29.598 31.1453 29.6424C31.1481 29.6933 31.1479 29.7127 31.1458 29.7294L31.9836 29.8318ZM35.2017 29.0101C34.7056 29.2908 34.0428 29.4677 33.3809 29.5291C32.7149 29.5909 32.1042 29.5309 31.7118 29.385L31.4177 30.1762C31.9704 30.3816 32.72 30.4381 33.4589 30.3695C34.2021 30.3005 34.989 30.1002 35.6173 29.7447L35.2017 29.0101ZM27.8484 14.0138C27.29 13.8444 26.6811 13.7245 26.0178 13.6681L25.9464 14.5091C26.552 14.5606 27.1027 14.6695 27.6033 14.8214L27.8484 14.0138ZM30.9904 13.5002C30.3557 13.4008 29.4847 13.545 28.8238 13.691C28.4826 13.7665 28.1773 13.8472 27.9575 13.9091C27.8474 13.94 27.7583 13.9664 27.6963 13.9851C27.6653 13.9945 27.6411 14.002 27.6244 14.0072C27.616 14.0098 27.6095 14.0118 27.605 14.0132C27.6027 14.0139 27.601 14.0145 27.5997 14.0149C27.5991 14.0151 27.5986 14.0152 27.5982 14.0154C27.598 14.0154 27.5979 14.0155 27.5978 14.0155C27.5977 14.0155 27.5976 14.0156 27.5976 14.0156C27.5975 14.0156 27.5975 14.0156 27.7258 14.4176C27.8542 14.8196 27.8541 14.8196 27.8541 14.8196C27.8541 14.8196 27.8541 14.8196 27.8541 14.8196C27.8541 14.8196 27.8541 14.8196 27.8542 14.8196C27.8543 14.8196 27.8546 14.8195 27.855 14.8194C27.8558 14.8191 27.857 14.8187 27.8588 14.8182C27.8623 14.817 27.8678 14.8153 27.8751 14.8131C27.8898 14.8085 27.9118 14.8017 27.9405 14.793C27.9979 14.7757 28.0817 14.7509 28.186 14.7215C28.395 14.6628 28.6843 14.5863 29.006 14.5152C29.6711 14.3681 30.3997 14.262 30.8599 14.3341L30.9904 13.5002ZM25.3648 29.8919C25.4357 29.7948 25.473 29.6845 25.494 29.6105C25.5173 29.5282 25.5327 29.4443 25.5432 29.3741C25.5538 29.3027 25.5604 29.2377 25.5643 29.191C25.5663 29.1674 25.5677 29.1478 25.5686 29.1338C25.569 29.1267 25.5694 29.121 25.5696 29.1168C25.5697 29.1147 25.5698 29.113 25.5699 29.1116C25.5699 29.111 25.5699 29.1104 25.5699 29.1099C25.57 29.1097 25.57 29.1095 25.57 29.1093C25.57 29.1092 25.57 29.1091 25.57 29.1091C25.57 29.109 25.57 29.109 25.57 29.1089C25.57 29.1089 25.57 29.1088 25.1485 29.0893C24.7269 29.0697 24.7269 29.0697 24.7269 29.0697C24.7269 29.0696 24.7269 29.0696 24.7269 29.0696C24.7269 29.0695 24.7269 29.0695 24.7269 29.0694C24.7269 29.0693 24.7269 29.0693 24.7269 29.0692C24.7269 29.0692 24.7269 29.0692 24.7269 29.0693C24.7269 29.0695 24.7269 29.0701 24.7268 29.071C24.7267 29.0729 24.7265 29.0761 24.7263 29.0806C24.7257 29.0894 24.7248 29.103 24.7233 29.12C24.7204 29.1545 24.7157 29.2009 24.7084 29.2498C24.7009 29.3 24.6918 29.3455 24.6819 29.3806C24.6697 29.4239 24.6651 29.4189 24.6832 29.394L25.3648 29.8919ZM25.5599 29.3967L25.5702 29.1041L24.7267 29.0745L24.7164 29.3671L25.5599 29.3967ZM32.2102 22.3339C32.2102 22.7649 32.2451 23.1862 32.2796 23.5847C32.3147 23.9888 32.3491 24.3666 32.3544 24.7388C32.365 25.4725 32.2615 26.1469 31.8351 26.8129L32.5458 27.268C33.093 26.4134 33.2103 25.5556 33.1983 24.7266C33.1924 24.3176 33.1547 23.9064 33.1205 23.5117C33.0857 23.1113 33.0542 22.7238 33.0542 22.3339H32.2102ZM32.9156 19.8937C33.3262 19.796 33.3261 19.7958 33.3261 19.7956C33.326 19.7955 33.326 19.7953 33.326 19.7952C33.3259 19.7949 33.3258 19.7945 33.3257 19.7941C33.3255 19.7932 33.3252 19.7921 33.3249 19.7908C33.3243 19.7883 33.3234 19.7849 33.3224 19.7806C33.3202 19.7721 33.3172 19.7604 33.3133 19.7454C33.3053 19.7156 33.2936 19.6732 33.2777 19.6195C33.246 19.5123 33.1974 19.36 33.1287 19.1734C32.9913 18.8007 32.7725 18.2889 32.4448 17.726C31.7904 16.6019 30.6909 15.2566 28.9229 14.4259L28.564 15.1898C30.131 15.9261 31.1176 17.1237 31.7154 18.1507C32.0139 18.6634 32.2129 19.1292 32.3367 19.4653C32.3986 19.6331 32.4414 19.7679 32.4685 19.8592C32.482 19.9049 32.4916 19.9396 32.4975 19.9621C32.5005 19.9733 32.5026 19.9815 32.5038 19.9864C32.5045 19.9889 32.5049 19.9905 32.5051 19.9914C32.5052 19.9918 32.5052 19.992 32.5052 19.992C32.5052 19.992 32.5052 19.9919 32.5052 19.9918C32.5052 19.9918 32.5051 19.9916 32.5051 19.9916C32.5051 19.9915 32.5051 19.9913 32.9156 19.8937ZM28.9229 14.4259C28.5882 14.2687 28.2304 14.1297 27.8484 14.0138L27.6033 14.8214C27.946 14.9254 28.2657 15.0497 28.564 15.1898L28.9229 14.4259ZM27.5747 14.8116L28.5923 15.2019L28.8945 14.4138L27.8769 14.0236L27.5747 14.8116ZM33.011 28.2323C33.06 28.1778 33.0948 28.1165 33.1171 28.0532L32.321 27.773C32.3336 27.7371 32.3541 27.7004 32.3836 27.6676L33.011 28.2323ZM33.1171 28.0533C33.1634 27.9218 33.1503 27.7988 33.1325 27.7175C33.1139 27.6326 33.0818 27.5549 33.0503 27.4908C32.9874 27.3628 32.9004 27.2365 32.8226 27.1336C32.7427 27.0278 32.6612 26.9321 32.6007 26.8638C32.5702 26.8293 32.5444 26.8011 32.5259 26.7812C32.5167 26.7712 32.5092 26.7633 32.5039 26.7577C32.5012 26.7548 32.4991 26.7526 32.4975 26.751C32.4968 26.7501 32.4961 26.7495 32.4956 26.749C32.4954 26.7487 32.4952 26.7485 32.495 26.7483C32.4949 26.7482 32.4948 26.7481 32.4948 26.7481C32.4947 26.748 32.4947 26.748 32.4947 26.748C32.4946 26.7479 32.4946 26.7479 32.1904 27.0404C31.8863 27.333 31.8863 27.3329 31.8862 27.3329C31.8862 27.3329 31.8862 27.3329 31.8862 27.3329C31.8862 27.3328 31.8861 27.3328 31.8861 27.3328C31.8861 27.3328 31.8861 27.3328 31.8862 27.3328C31.8863 27.3329 31.8865 27.3332 31.8869 27.3336C31.8876 27.3343 31.8889 27.3357 31.8907 27.3376C31.8943 27.3414 31.8999 27.3474 31.9072 27.3553C31.9219 27.3711 31.9432 27.3944 31.9688 27.4232C32.0204 27.4816 32.0867 27.5597 32.1493 27.6425C32.2141 27.7282 32.2644 27.8053 32.2928 27.8631C32.307 27.8919 32.309 27.9027 32.308 27.8979C32.3077 27.8966 32.2955 27.8453 32.321 27.7729L33.1171 28.0533ZM32.1904 27.0404C32.5394 26.8032 32.5395 26.8032 32.5395 26.8032C32.5394 26.8032 32.5394 26.8032 32.5394 26.8031C32.5393 26.8029 32.5391 26.8026 32.5388 26.8022C32.5382 26.8014 32.5373 26.8 32.536 26.7981C32.5335 26.7944 32.5297 26.7887 32.5245 26.781C32.5142 26.7655 32.4987 26.7423 32.4786 26.7118C32.4385 26.6509 32.38 26.5609 32.3077 26.4466C32.1629 26.2179 31.9629 25.8922 31.7432 25.506C31.3013 24.7293 30.7898 23.7252 30.4813 22.7787C30.327 22.3054 30.229 21.8629 30.2096 21.4803C30.1902 21.095 30.2521 20.8073 30.3776 20.6076C30.5977 20.2573 31.1984 19.9391 32.8228 20.3053L33.0084 19.482C31.3355 19.1048 30.197 19.3084 29.6629 20.1587C29.4112 20.5593 29.3424 21.0417 29.3667 21.5229C29.3912 22.0069 29.5117 22.5274 29.6789 23.0403C30.0134 24.0664 30.557 25.1278 31.0096 25.9233C31.2371 26.3233 31.4442 26.6605 31.5946 26.8981C31.6698 27.017 31.731 27.1111 31.7736 27.1758C31.795 27.2082 31.8116 27.2333 31.8231 27.2504C31.8289 27.259 31.8333 27.2656 31.8364 27.2702C31.8379 27.2725 31.8391 27.2743 31.84 27.2755C31.8404 27.2761 31.8407 27.2766 31.841 27.277C31.8411 27.2772 31.8412 27.2773 31.8413 27.2774C31.8414 27.2776 31.8415 27.2777 32.1904 27.0404ZM19.9662 24.1231C19.7555 25.5967 20.2617 27.0363 21.4047 27.788L21.8685 27.0829C21.0609 26.5517 20.6257 25.4734 20.8017 24.2426L19.9662 24.1231ZM21.4047 27.788C22.0181 28.1914 22.7605 28.3994 23.5432 28.3253L23.4636 27.4851C22.8832 27.54 22.3309 27.387 21.8685 27.0829L21.4047 27.788ZM20.0156 30.1886C20.6966 29.3877 21.3813 28.5618 21.9856 27.6727L21.2876 27.1982C20.7108 28.0468 20.0518 28.8431 19.3726 29.6419L20.0156 30.1886ZM23.7348 26.1501C23.5399 26.6124 23.3829 27.0153 23.2744 27.303C23.2201 27.4469 23.178 27.5621 23.1493 27.6417C23.1349 27.6815 23.1239 27.7124 23.1164 27.7336C23.1127 27.7442 23.1098 27.7523 23.1079 27.7579C23.1069 27.7606 23.1061 27.7628 23.1056 27.7643C23.1054 27.765 23.1052 27.7656 23.105 27.7661C23.1049 27.7663 23.1049 27.7664 23.1048 27.7666C23.1048 27.7666 23.1048 27.7667 23.1048 27.7667C23.1048 27.7668 23.1048 27.7668 23.1048 27.7668C23.1047 27.7668 23.1047 27.7668 23.5034 27.9052C23.9021 28.0436 23.9021 28.0436 23.9021 28.0436C23.9021 28.0436 23.9021 28.0436 23.9021 28.0436C23.9021 28.0436 23.9021 28.0436 23.9021 28.0436C23.9021 28.0436 23.9021 28.0435 23.9022 28.0434C23.9022 28.0431 23.9024 28.0427 23.9026 28.0422C23.903 28.0411 23.9036 28.0393 23.9044 28.0369C23.9061 28.0321 23.9087 28.0247 23.9121 28.015C23.919 27.9954 23.9295 27.9662 23.9432 27.9281C23.9707 27.852 24.0114 27.7405 24.0641 27.6007C24.1696 27.321 24.3226 26.9284 24.5125 26.478L23.7348 26.1501ZM23.0871 27.9741C23.1118 28.1237 23.1917 28.2718 23.3459 28.3661C23.4716 28.4429 23.605 28.4563 23.683 28.4605C23.7674 28.4649 23.8614 28.4604 23.9409 28.4566C24.0274 28.4524 24.1154 28.4477 24.2146 28.4467L24.2063 27.6028C24.0874 27.604 23.9819 27.6096 23.9 27.6136C23.811 27.6179 23.7615 27.6194 23.7277 27.6176C23.6874 27.6155 23.7278 27.6103 23.7861 27.6459C23.8212 27.6674 23.8558 27.6993 23.8822 27.7412C23.9074 27.7812 23.9165 27.8167 23.9198 27.8364L23.0871 27.9741ZM25.5585 28.9897C25.4837 28.6819 25.3415 28.3694 25.1349 28.1178C24.9287 27.8666 24.6343 27.6495 24.2595 27.6056L24.1614 28.4439C24.2557 28.4549 24.3682 28.514 24.4826 28.6533C24.5966 28.7923 24.6887 28.9846 24.7384 29.1889L25.5585 28.9897ZM24.1189 27.6128C23.8022 27.6832 23.5694 27.8661 23.387 28.0484C23.2959 28.1394 23.2097 28.2382 23.1298 28.3314C23.0469 28.428 22.9708 28.5184 22.8873 28.6102C22.571 28.9581 22.1937 29.2762 21.4908 29.3617L21.5926 30.1995C22.5682 30.0809 23.1173 29.6118 23.5117 29.1781C23.606 29.0745 23.6941 28.9699 23.7703 28.881C23.8495 28.7887 23.9173 28.7116 23.9835 28.6454C24.1157 28.5134 24.2108 28.457 24.302 28.4367L24.1189 27.6128ZM32.6973 27.95C33.0605 28.1648 33.0605 28.1648 33.0605 28.1648C33.0605 28.1648 33.0605 28.1648 33.0605 28.1648C33.0605 28.1648 33.0605 28.1648 33.0605 28.1648C33.0606 28.1648 33.0606 28.1648 33.0606 28.1647C33.0606 28.1647 33.0606 28.1647 33.0606 28.1647C33.0606 28.1647 33.0606 28.1646 33.0607 28.1646C33.0607 28.1644 33.0608 28.1643 33.061 28.1641C33.0612 28.1636 33.0616 28.163 33.0621 28.1622C33.0631 28.1605 33.0645 28.1581 33.0664 28.1549C33.0701 28.1485 33.0757 28.1391 33.0829 28.1269L32.3552 27.6993C32.3482 27.7112 32.3429 27.7203 32.3393 27.7263C32.3375 27.7293 32.3362 27.7315 32.3353 27.733C32.3349 27.7338 32.3346 27.7343 32.3344 27.7347C32.3342 27.7348 32.3342 27.735 32.3341 27.735C32.3341 27.7351 32.3341 27.7351 32.3341 27.7351C32.3341 27.7351 32.3341 27.7351 32.3341 27.7351C32.3341 27.7351 32.3341 27.7351 32.3341 27.7351C32.3341 27.7351 32.3341 27.7351 32.3341 27.7351C32.3341 27.7351 32.3341 27.7351 32.3341 27.7351C32.3341 27.7351 32.3341 27.7351 32.6973 27.95ZM33.0829 28.1269C33.1998 27.9278 33.7642 26.9618 34.3356 25.8873C34.6212 25.3502 34.9107 24.7822 35.1475 24.2671C35.3804 23.7606 35.5761 23.2766 35.6575 22.918L34.8344 22.7311C34.7741 22.9967 34.612 23.4115 34.3807 23.9145C34.1533 24.409 33.8722 24.9612 33.5904 25.491C33.0272 26.5501 32.4698 27.5043 32.3552 27.6993L33.0829 28.1269ZM35.6487 22.9508C35.8158 22.4174 36.1954 21.3863 36.4591 20.2611C36.722 19.1399 36.8929 17.8407 36.6073 16.7351L35.7901 16.9462C36.0227 17.8464 35.8928 18.9792 35.6374 20.0685C35.383 21.1539 35.0271 22.1118 34.8433 22.6984L35.6487 22.9508ZM36.5944 16.694C36.3052 15.9139 35.4385 14.7883 33.6924 14.0305L33.3563 14.8047C34.9197 15.4832 35.6039 16.4501 35.803 16.9874L36.5944 16.694ZM33.6935 14.031C33.2685 13.8451 32.8509 13.7559 32.4156 13.6909C32.1995 13.6587 31.9725 13.6315 31.7393 13.6026C31.5038 13.5735 31.2571 13.542 30.9904 13.5002L30.8599 14.3341C31.1406 14.378 31.3985 14.4109 31.6355 14.4402C31.8747 14.4698 32.0881 14.4954 32.2909 14.5257C32.6935 14.5858 33.028 14.6611 33.3552 14.8042L33.6935 14.031Z" fill="white"/>
<path d="M31.8563 20.6621C31.8749 20.8069 31.6116 21.1935 31.2677 21.2452C30.9242 21.297 30.6304 20.9949 30.6116 20.8502C30.5935 20.7053 30.8569 20.5458 31.2004 20.4939C31.5439 20.4421 31.8377 20.5175 31.8563 20.6621Z" fill="white"/>
<path d="M23.2577 21.4957C22.8953 21.4392 22.6173 21.0163 22.6372 20.8578C22.6564 20.6998 22.9663 20.6171 23.3283 20.6739C23.6909 20.7306 23.9685 20.9052 23.9488 21.0636C23.9292 21.2219 23.6195 21.5524 23.2577 21.4957Z" fill="white"/>
</g>
</g>
<defs>
<linearGradient id="paint0_linear_3169_9303" x1="5.35409" y1="7.18784" x2="42.0657" y2="44.6193" gradientUnits="userSpaceOnUse">
<stop stop-color="white"/>
<stop offset="1" stop-color="#EAECEE"/>
</linearGradient>
<clipPath id="clip0_3169_9303">
<rect width="48" height="48" fill="white" transform="translate(0.985596 0.000976562)"/>
</clipPath>
<clipPath id="clip1_3169_9303">
<rect width="27" height="27" fill="white" transform="translate(11.7366 12.001)"/>
</clipPath>
</defs>
</svg>
