<svg width="49" height="48" viewBox="0 0 49 48" fill="none" xmlns="http://www.w3.org/2000/svg">
<g clip-path="url(#clip0_3169_9312)">
<circle cx="25" cy="24.375" r="23.5714" fill="url(#paint0_linear_3169_9312)" stroke="#D5DADD" stroke-width="0.857143"/>
<path fill-rule="evenodd" clip-rule="evenodd" d="M11.4854 16.5389C11.4854 14.7379 12.9454 13.2778 14.7464 13.2778H35.2243C37.0253 13.2778 38.4854 14.7379 38.4854 16.5389V27.0984C38.4854 28.8995 37.0253 30.3595 35.2243 30.3595H34.842L34.842 24.612C34.842 23.0856 33.6046 21.8483 32.0783 21.8483L17.8932 21.8483C16.3668 21.8483 15.1295 23.0856 15.1295 24.612L15.1295 30.3595H14.7464C12.9454 30.3595 11.4854 28.8995 11.4854 27.0984V16.5389ZM35.7302 17.135C35.7302 17.7437 35.2368 18.2371 34.6281 18.2371C34.0195 18.2371 33.5261 17.7437 33.5261 17.135C33.5261 16.5264 34.0195 16.033 34.6281 16.033C35.2368 16.033 35.7302 16.5264 35.7302 17.135Z" fill="url(#paint1_linear_3169_9312)"/>
<path d="M28.927 28.6317L21.045 28.6317C20.5695 28.6317 20.1841 28.2463 20.1841 27.7708C20.1841 27.2953 20.5695 26.9098 21.045 26.9098L28.927 26.9098C29.4025 26.9098 29.7879 27.2953 29.7879 27.7708C29.7879 28.2463 29.4025 28.6317 28.927 28.6317Z" fill="url(#paint2_linear_3169_9312)"/>
<path d="M28.927 32.6296H21.0495C20.574 32.6296 20.1886 32.2441 20.1886 31.7686C20.1886 31.2931 20.574 30.9076 21.0495 30.9076H28.927C29.4025 30.9076 29.7879 31.2931 29.7879 31.7686C29.7879 32.2441 29.4025 32.6296 28.927 32.6296Z" fill="url(#paint3_linear_3169_9312)"/>
<path fill-rule="evenodd" clip-rule="evenodd" d="M33.1544 34.9275C33.1544 35.5219 32.6725 36.0037 32.0782 36.0037L17.8931 36.0037C17.2987 36.0037 16.8169 35.5219 16.8169 34.9275L16.8169 24.6119C16.8169 24.0175 17.2987 23.5356 17.8931 23.5356H32.0782C32.6725 23.5356 33.1544 24.0175 33.1544 24.6119L33.1544 34.9275ZM31.4669 25.2231L31.4669 34.3162L18.5044 34.3162L18.5044 25.2231L31.4669 25.2231Z" fill="url(#paint4_linear_3169_9312)"/>
</g>
<defs>
<linearGradient id="paint0_linear_3169_9312" x1="5.35287" y1="7.18784" x2="42.0645" y2="44.6193" gradientUnits="userSpaceOnUse">
<stop stop-color="white"/>
<stop offset="1" stop-color="#EAECEE"/>
</linearGradient>
<linearGradient id="paint1_linear_3169_9312" x1="15.5328" y1="15.8323" x2="26.339" y2="32.919" gradientUnits="userSpaceOnUse">
<stop stop-color="#0195FF"/>
<stop offset="0.991028" stop-color="#1147E9"/>
</linearGradient>
<linearGradient id="paint2_linear_3169_9312" x1="19.2619" y1="25.4063" x2="27.6841" y2="36.4345" gradientUnits="userSpaceOnUse">
<stop stop-color="#00BBFF"/>
<stop offset="1" stop-color="#008BFF"/>
</linearGradient>
<linearGradient id="paint3_linear_3169_9312" x1="19.2619" y1="25.4063" x2="27.6841" y2="36.4345" gradientUnits="userSpaceOnUse">
<stop stop-color="#00BBFF"/>
<stop offset="1" stop-color="#008BFF"/>
</linearGradient>
<linearGradient id="paint4_linear_3169_9312" x1="19.2619" y1="25.4063" x2="27.6841" y2="36.4345" gradientUnits="userSpaceOnUse">
<stop stop-color="#00BBFF"/>
<stop offset="1" stop-color="#008BFF"/>
</linearGradient>
<clipPath id="clip0_3169_9312">
<rect width="48" height="48" fill="white" transform="translate(0.985352 0.000976562)"/>
</clipPath>
</defs>
</svg>
