<svg width="49" height="48" viewBox="0 0 49 48" fill="none" xmlns="http://www.w3.org/2000/svg">
<g clip-path="url(#clip0_3169_9332)">
<circle cx="25.001" cy="24.375" r="23.5714" fill="url(#paint0_linear_3169_9332)" stroke="#D5DADD" stroke-width="0.857143"/>
<g clip-path="url(#clip1_3169_9332)">
<path d="M20.4897 23.5755C19.8219 23.2973 19.2278 22.8679 18.7076 22.2945C18.4511 22.0354 18.306 21.7233 18.306 21.3676C18.306 20.9923 18.4464 20.663 18.7136 20.3958C18.9739 20.1355 19.2881 19.9882 19.6466 19.9882C20.0219 19.9882 20.3512 20.1286 20.6184 20.3958L20.6286 20.406C20.88 20.6802 21.1748 20.8845 21.5165 21.0212C21.8686 21.162 22.2151 21.2304 22.558 21.2304C22.9295 21.2304 23.2889 21.161 23.6384 21.0212C23.9828 20.8834 24.2948 20.6762 24.5753 20.3958L27.5305 17.4405C28.087 16.9073 28.3601 16.2689 28.3601 15.5059C28.3601 14.7421 28.086 14.0726 27.5208 13.4838C26.9875 12.9274 26.3489 12.6541 25.5859 12.6541C24.8231 12.6541 24.1544 12.9275 23.5662 13.4911L22.0935 14.9638C21.8264 15.231 21.497 15.3714 21.1217 15.3714C20.7464 15.3714 20.4171 15.231 20.1499 14.9638C19.8827 14.6966 19.7423 14.3673 19.7423 13.992C19.7423 13.6167 19.8827 13.2874 20.1499 13.0202L21.625 11.5451C22.1719 10.9982 22.7906 10.5847 23.4801 10.3084C24.1893 10.0087 24.9049 9.85645 25.6247 9.85645C26.344 9.85645 27.0475 10.0085 27.7328 10.3092C28.4204 10.5852 29.0257 10.9981 29.5469 11.545C30.0937 12.0661 30.5067 12.6714 30.7826 13.3591C31.0833 14.0443 31.2354 14.7478 31.2354 15.4671C31.2354 16.1872 31.083 16.8914 30.7816 17.5773C30.5048 18.2405 30.0914 18.8445 29.5468 19.3892L26.6354 22.3006C26.0635 22.8725 25.4312 23.3002 24.7385 23.5773C24.0523 23.8518 23.3376 23.9892 22.5969 23.9892C21.8803 23.9892 21.1787 23.8512 20.4941 23.5773L20.4897 23.5755Z" fill="url(#paint1_linear_3169_9332)"/>
<path d="M14.4511 26.6895C14.9844 27.2459 15.6228 27.5191 16.3858 27.5191C17.1492 27.5191 17.8033 27.2454 18.3642 26.6844L19.8394 25.2093C20.1126 24.9361 20.4575 24.8017 20.85 24.8017C21.0576 24.8017 21.255 24.8499 21.4303 24.9571C21.5916 25.0556 21.7185 25.1944 21.8159 25.3597C22.0617 25.6207 22.1906 25.938 22.1906 26.2976C22.1906 26.6729 22.0502 27.0022 21.783 27.2694L21.7799 27.2725L20.3063 28.7073C19.7586 29.2545 19.1273 29.667 18.4142 29.9424C17.7296 30.2425 17.0268 30.3943 16.3082 30.3943C15.5881 30.3943 14.8839 30.2419 14.198 29.9406C13.5347 29.6637 12.9308 29.2504 12.3861 28.7057C11.8384 28.158 11.4245 27.5384 11.1482 26.8476C10.8743 26.1629 10.7363 25.4613 10.7363 24.7448C10.7363 24.0283 10.8743 23.3267 11.1482 22.642C11.4245 21.9513 11.8384 21.3316 12.3861 20.784L12.3877 20.7824L15.3364 17.8725C15.883 17.326 16.5022 16.912 17.1914 16.6359C17.9006 16.3362 18.6162 16.1839 19.336 16.1839C20.0554 16.1839 20.7589 16.336 21.4441 16.6367C22.1331 16.9132 22.7394 17.3272 23.2612 17.8757C23.5264 18.1423 23.6657 18.4705 23.6657 18.8444C23.6657 19.2196 23.5253 19.549 23.2581 19.8162C22.9909 20.0833 22.6616 20.2237 22.2863 20.2237C21.911 20.2237 21.5817 20.0833 21.3145 19.8162L21.3047 19.8064C20.7701 19.2253 20.1332 18.9427 19.3749 18.9427C18.616 18.9427 17.9633 19.2258 17.4012 19.8113L17.395 19.8178L14.4364 22.7373C13.8553 23.2719 13.5728 23.9089 13.5728 24.6672C13.5728 25.4266 13.8564 26.0947 14.4462 26.6844L14.4511 26.6895Z" fill="url(#paint2_linear_3169_9332)"/>
<path fill-rule="evenodd" clip-rule="evenodd" d="M30.1093 25.6225C30.1093 24.7916 30.7829 24.118 31.6138 24.118C32.4447 24.118 33.1183 24.7916 33.1183 25.6225V27.5811H30.1093V25.6225ZM35.8183 27.6186V25.6225C35.8183 23.3004 33.9359 21.418 31.6138 21.418C29.2917 21.418 27.4093 23.3004 27.4093 25.6225V27.6186C26.9512 27.6999 26.5566 27.9138 26.2253 28.2602C25.7922 28.6932 25.5757 29.2247 25.5757 29.8546V34.3721C25.5757 35.0217 25.7922 35.563 26.2253 35.996C26.6583 36.4291 27.1996 36.6456 27.8492 36.6456H35.3783C36.0279 36.6456 36.5692 36.4291 37.0023 35.996C37.4353 35.563 37.6519 35.0217 37.6519 34.3721V29.8546C37.6519 29.2247 37.4353 28.6932 37.0023 28.2602C36.671 27.9138 36.2763 27.6999 35.8183 27.6186ZM31.599 30.6223C32.0321 30.6223 32.3864 30.7699 32.6619 31.0652C32.9572 31.3407 33.1048 31.695 33.1048 32.1281C33.1048 32.5415 32.9572 32.8958 32.6619 33.191C32.3864 33.4863 32.0321 33.6339 31.599 33.6339C31.1856 33.6339 30.8313 33.4863 30.5361 33.191C30.2408 32.8958 30.0932 32.5415 30.0932 32.1281C30.0932 31.695 30.2408 31.3407 30.5361 31.0652C30.8313 30.7699 31.1856 30.6223 31.599 30.6223Z" fill="url(#paint3_linear_3169_9332)"/>
</g>
</g>
<defs>
<linearGradient id="paint0_linear_3169_9332" x1="5.35384" y1="7.18784" x2="42.0655" y2="44.6193" gradientUnits="userSpaceOnUse">
<stop stop-color="white"/>
<stop offset="1" stop-color="#EAECEE"/>
</linearGradient>
<linearGradient id="paint1_linear_3169_9332" x1="13.767" y1="12.878" x2="28.1404" y2="27.2861" gradientUnits="userSpaceOnUse">
<stop stop-color="#1348FF"/>
<stop offset="1" stop-color="#06238D"/>
</linearGradient>
<linearGradient id="paint2_linear_3169_9332" x1="13.767" y1="12.878" x2="28.1404" y2="27.2861" gradientUnits="userSpaceOnUse">
<stop stop-color="#1348FF"/>
<stop offset="1" stop-color="#06238D"/>
</linearGradient>
<linearGradient id="paint3_linear_3169_9332" x1="27.386" y1="23.6952" x2="37.7687" y2="31.932" gradientUnits="userSpaceOnUse">
<stop stop-color="#0195FF"/>
<stop offset="0.991028" stop-color="#1147E9"/>
</linearGradient>
<clipPath id="clip0_3169_9332">
<rect width="48" height="48" fill="white" transform="translate(0.985352 0.000976562)"/>
</clipPath>
<clipPath id="clip1_3169_9332">
<rect width="27" height="27" fill="white" transform="translate(10.7363 9.75098)"/>
</clipPath>
</defs>
</svg>
