<svg width="49" height="48" viewBox="0 0 49 48" fill="none" xmlns="http://www.w3.org/2000/svg">
<g clip-path="url(#clip0_3169_9322)">
<circle cx="25" cy="24.375" r="23.5714" fill="url(#paint0_linear_3169_9322)" stroke="#D5DADD" stroke-width="0.857143"/>
<path d="M24.9912 13.9814C25.9232 13.9814 26.6787 13.2259 26.6787 12.2939C26.6787 11.362 25.9232 10.6064 24.9912 10.6064C24.0592 10.6064 23.3037 11.362 23.3037 12.2939C23.3037 13.2259 24.0592 13.9814 24.9912 13.9814Z" fill="url(#paint1_linear_3169_9322)"/>
<path fill-rule="evenodd" clip-rule="evenodd" d="M25.0178 14.012C18.8201 14.012 13.7959 19.0362 13.7959 25.2339C13.7959 31.4316 18.8201 36.4558 25.0178 36.4558C31.2154 36.4558 36.2396 31.4316 36.2396 25.2339C36.2396 19.0362 31.2154 14.012 25.0178 14.012ZM16.4959 25.2339C16.4959 20.5274 20.3113 16.712 25.0178 16.712C29.7243 16.712 33.5396 20.5274 33.5396 25.2339C33.5396 29.9404 29.7243 33.7558 25.0178 33.7558C20.3113 33.7558 16.4959 29.9404 16.4959 25.2339Z" fill="url(#paint2_linear_3169_9322)"/>
<path fill-rule="evenodd" clip-rule="evenodd" d="M27.8586 21.2729H22.1634C19.961 21.2729 18.1768 23.0456 18.1768 25.2337C18.1768 27.4219 19.961 29.1945 22.1634 29.1945H27.8586C30.0611 29.1945 31.8453 27.4219 31.8453 25.2337C31.8453 23.0456 30.0611 21.2729 27.8586 21.2729Z" fill="url(#paint3_linear_3169_9322)"/>
<circle cx="21.5645" cy="25.2324" r="1.6875" fill="url(#paint4_linear_3169_9322)"/>
<circle cx="28.4702" cy="25.2324" r="1.6875" fill="url(#paint5_linear_3169_9322)"/>
</g>
<defs>
<linearGradient id="paint0_linear_3169_9322" x1="5.35287" y1="7.18784" x2="42.0645" y2="44.6193" gradientUnits="userSpaceOnUse">
<stop stop-color="white"/>
<stop offset="1" stop-color="#EAECEE"/>
</linearGradient>
<linearGradient id="paint1_linear_3169_9322" x1="17.1603" y1="14.4721" x2="35.0817" y2="30.0377" gradientUnits="userSpaceOnUse">
<stop stop-color="#0195FF"/>
<stop offset="0.991028" stop-color="#1147E9"/>
</linearGradient>
<linearGradient id="paint2_linear_3169_9322" x1="17.1603" y1="14.4721" x2="35.0817" y2="30.0377" gradientUnits="userSpaceOnUse">
<stop stop-color="#0195FF"/>
<stop offset="0.991028" stop-color="#1147E9"/>
</linearGradient>
<linearGradient id="paint3_linear_3169_9322" x1="20.2224" y1="22.4614" x2="25.0366" y2="30.7626" gradientUnits="userSpaceOnUse">
<stop stop-color="#00BBFF"/>
<stop offset="1" stop-color="#008BFF"/>
</linearGradient>
<linearGradient id="paint4_linear_3169_9322" x1="20.3759" y1="24.0415" x2="22.7379" y2="26.4136" gradientUnits="userSpaceOnUse">
<stop stop-color="#1348FF"/>
<stop offset="1" stop-color="#06238D"/>
</linearGradient>
<linearGradient id="paint5_linear_3169_9322" x1="27.2817" y1="24.0415" x2="29.6437" y2="26.4136" gradientUnits="userSpaceOnUse">
<stop stop-color="#1348FF"/>
<stop offset="1" stop-color="#06238D"/>
</linearGradient>
<clipPath id="clip0_3169_9322">
<rect width="48" height="48" fill="white" transform="translate(0.985352 0.000976562)"/>
</clipPath>
</defs>
</svg>
