<svg width="49" height="48" viewBox="0 0 49 48" fill="none" xmlns="http://www.w3.org/2000/svg">
<g clip-path="url(#clip0_3169_9360)">
<circle cx="24.9853" cy="24.249" r="23.5714" fill="url(#paint0_linear_3169_9360)" stroke="#D5DADD" stroke-width="0.857142"/>
<mask id="mask0_3169_9360" style="mask-type:luminance" maskUnits="userSpaceOnUse" x="11" y="12" width="28" height="24">
<path d="M38.4854 12.4316H11.4854V35.5703H38.4854V12.4316Z" fill="white"/>
</mask>
<g mask="url(#mask0_3169_9360)">
<path d="M37.4222 30.2707C35.9839 31.0231 28.5193 34.0933 26.9114 34.9361C25.3034 35.7788 24.4422 35.7548 23.1846 35.1537C21.927 34.5525 14.0107 31.3329 12.576 30.6469C11.8532 30.3076 11.4844 30.0181 11.4844 29.747V27.016C11.4844 27.016 21.8256 24.7719 23.4944 24.167C25.1632 23.5622 25.7404 23.5474 27.1585 24.0675C28.5765 24.5875 37.0774 26.1217 38.4807 26.6306V29.3229C38.4807 29.6032 38.158 29.8761 37.4222 30.2689V30.2707Z" fill="#A32422"/>
<path d="M37.4221 27.5528C35.9838 28.3015 28.5192 31.3718 26.9113 32.1997C25.3033 33.0277 24.4421 33.0203 23.1845 32.421C21.9269 31.8217 14.0106 28.6021 12.5759 27.9216C11.1413 27.2412 11.1136 26.7654 12.5206 26.2159C13.9276 25.6664 21.8255 22.574 23.4943 21.9655C25.1631 21.3569 25.7403 21.344 27.1584 21.8659C28.5764 22.3877 36.0096 25.34 37.4055 25.8545C38.8014 26.369 38.866 26.7912 37.4221 27.5381V27.5528Z" fill="#DC382C"/>
<path d="M37.4222 25.8228C35.9839 26.5733 28.5193 29.6417 26.9114 30.4697C25.3034 31.2976 24.4496 31.2903 23.192 30.6873C21.9344 30.0843 14.0107 26.8831 12.576 26.199C11.8532 25.856 11.4844 25.5683 11.4844 25.2954V22.5736C11.4844 22.5736 21.8256 20.3221 23.4944 19.7172C25.1632 19.1124 25.7404 19.0958 27.1585 19.6232C28.5765 20.1506 37.0774 21.6701 38.4807 22.1827V24.8749C38.4807 25.1552 38.158 25.4355 37.4222 25.8228Z" fill="#A32422"/>
<path d="M37.4224 23.0919C35.9841 23.8442 28.5195 26.9126 26.9115 27.7406C25.3036 28.5686 24.4424 28.563 23.1848 27.9619C21.9272 27.3607 14.0108 24.154 12.5762 23.468C11.1416 22.7821 11.1157 22.3155 12.5209 21.766C13.926 21.2165 21.8257 18.1167 23.4946 17.5248C25.1634 16.9329 25.7406 16.896 27.1586 17.4105C28.5767 17.9249 36.0099 20.903 37.4058 21.4027C38.8017 21.9025 38.8662 22.3413 37.4224 23.0863V23.0919Z" fill="#DC382C"/>
<path d="M37.4222 21.2076C35.9839 21.9599 28.5193 25.0302 26.9114 25.8563C25.3034 26.6824 24.4496 26.6769 23.192 26.0776C21.9344 25.4783 14.0107 22.2679 12.576 21.5838C11.8532 21.2445 11.4844 20.9549 11.4844 20.682V17.951C11.4844 17.951 21.8256 15.7069 23.4944 15.1039C25.1632 14.5009 25.7404 14.4825 27.1585 15.0025C28.5765 15.5225 37.0737 17.0567 38.477 17.5693V20.2616C38.4807 20.5456 38.158 20.8222 37.4222 21.2076Z" fill="#A32422"/>
<path d="M37.4221 18.4801C35.9838 19.2177 28.5192 22.3064 26.9113 23.127C25.3033 23.9476 24.4421 23.9457 23.1845 23.3483C21.9269 22.7508 14.0106 19.5367 12.5759 18.8544C11.1413 18.1721 11.1136 17.6982 12.5206 17.1487C13.9276 16.5992 21.8255 13.5012 23.4943 12.9001C25.1631 12.299 25.7403 12.2805 27.1584 12.8005C28.5764 13.3205 36.0096 16.2765 37.4055 16.7891C38.8014 17.3018 38.866 17.7277 37.4221 18.4745V18.4801Z" fill="#DC382C"/>
<path d="M25.4074 14.6021L27.1888 14.0176L26.7056 15.1719L28.5183 15.8505L26.1819 16.0939L25.6564 17.3552L24.8118 15.9483L22.1104 15.7049L24.1277 14.9783L23.521 13.8608L25.4074 14.6021Z" fill="white"/>
<path d="M25.5199 21.9653L21.1533 20.1526L27.4082 19.1919L25.5199 21.9653Z" fill="white"/>
<path d="M19.4661 16.5513C21.3101 16.5513 22.8093 17.1321 22.8093 17.8421C22.8093 18.552 21.3065 19.1329 19.4661 19.1329C17.6258 19.1329 16.1211 18.552 16.1211 17.8421C16.1211 17.1321 17.6203 16.5513 19.4661 16.5513Z" fill="white"/>
<path d="M31.2861 16.1953L34.9871 17.6576L31.2898 19.1199L31.2861 16.1953Z" fill="#741113"/>
<path d="M31.2864 16.1953L31.29 19.1199L30.8881 19.2767L27.189 17.8144L31.2864 16.1953Z" fill="#AC2724"/>
</g>
</g>
<defs>
<linearGradient id="paint0_linear_3169_9360" x1="5.33821" y1="7.06186" x2="42.0498" y2="44.4933" gradientUnits="userSpaceOnUse">
<stop stop-color="white"/>
<stop offset="1" stop-color="#EAECEE"/>
</linearGradient>
<clipPath id="clip0_3169_9360">
<rect width="48" height="48" fill="white" transform="translate(0.985352 0.000976562)"/>
</clipPath>
</defs>
</svg>
