<svg width="49" height="48" viewBox="0 0 49 48" fill="none" xmlns="http://www.w3.org/2000/svg">
<g clip-path="url(#clip0_3169_9380)">
<circle cx="24.9853" cy="24.249" r="23.5714" fill="url(#paint0_linear_3169_9380)" stroke="#D5DADD" stroke-width="0.857142"/>
<path d="M37.0543 20.4316C37.6503 20.2045 38.2746 20.5167 38.5017 21.0843C38.7287 21.6519 38.3737 22.8833 37.7493 23.1104L37.579 23.1671C35.2235 24.0469 32.7543 24.3995 30.2569 24.3995L19.7278 24.501C17.2304 24.501 14.7612 24.0469 12.4057 23.1671L12.2354 23.1104C11.6679 22.8833 11.4277 21.6519 11.6547 21.0843C11.8817 20.5167 12.5344 20.2045 13.102 20.4316L13.2723 20.4883C14.294 20.8857 15.344 21.1695 16.3941 21.3681L17.8698 15.9475C18.4658 13.8474 20.3672 12.3716 22.5524 12.3716H27.6039C29.7892 12.3716 31.719 13.8474 32.2866 15.9475L33.7623 21.3681C34.8407 21.1695 35.8624 20.8573 36.884 20.4883L37.0543 20.4316Z" fill="url(#paint1_linear_3169_9380)"/>
<path fill-rule="evenodd" clip-rule="evenodd" d="M16.0757 30.3902C16.0757 28.1219 17.9202 26.2773 20.1885 26.2773C21.8367 26.2773 23.2641 27.2453 23.915 28.6528C24.6952 28.5031 25.4762 28.5033 26.2563 28.6534C26.9281 27.2492 28.3273 26.2773 29.9797 26.2773C32.2468 26.2773 34.0935 28.121 34.0642 30.3919C34.0633 32.6594 32.2191 34.503 29.9513 34.503C28.0362 34.503 26.4119 33.1573 25.9637 31.3856C25.3882 31.2283 24.7757 31.228 24.1764 31.387C23.728 33.1856 22.102 34.503 20.1885 34.503C17.9202 34.503 16.0757 32.6585 16.0757 30.3902ZM18.8524 30.4186C18.8524 29.6531 19.474 29.054 20.2169 29.054C20.9824 29.054 21.5815 29.6757 21.5815 30.4186C21.5815 31.1615 20.9824 31.7831 20.2169 31.7831C19.4514 31.7831 18.8524 31.1615 18.8524 30.4186ZM29.9797 29.054C29.2368 29.054 28.6152 29.6531 28.6152 30.4186C28.6152 31.1615 29.2142 31.7831 29.9797 31.7831C30.7452 31.7831 31.3443 31.1615 31.3443 30.4186C31.3443 29.6757 30.7452 29.054 29.9797 29.054Z" fill="url(#paint2_linear_3169_9380)"/>
</g>
<defs>
<linearGradient id="paint0_linear_3169_9380" x1="5.33821" y1="7.06186" x2="42.0498" y2="44.4933" gradientUnits="userSpaceOnUse">
<stop stop-color="white"/>
<stop offset="1" stop-color="#EAECEE"/>
</linearGradient>
<linearGradient id="paint1_linear_3169_9380" x1="15.6174" y1="14.1855" x2="21.9651" y2="28.3208" gradientUnits="userSpaceOnUse">
<stop stop-color="#0195FF"/>
<stop offset="0.991028" stop-color="#1147E9"/>
</linearGradient>
<linearGradient id="paint2_linear_3169_9380" x1="18.7352" y1="27.4875" x2="23.0772" y2="37.0241" gradientUnits="userSpaceOnUse">
<stop stop-color="#1348FF"/>
<stop offset="1" stop-color="#06238D"/>
</linearGradient>
<clipPath id="clip0_3169_9380">
<rect width="48" height="48" fill="white" transform="translate(0.985352 0.000976562)"/>
</clipPath>
</defs>
</svg>
