<svg width="48" height="48" viewBox="0 0 48 48" fill="none" xmlns="http://www.w3.org/2000/svg">
<circle cx="24" cy="24.0024" r="23.5714" fill="url(#paint0_linear_3370_19116)" stroke="#D5DADD" stroke-width="0.857143"/>
<g clip-path="url(#clip0_3370_19116)">
<path d="M22.4301 14.0024C19.074 14.0024 16.6894 16.7344 16.2921 19.5866C15.2126 19.6508 14.2593 20.0565 13.5189 20.738C12.5173 21.6599 12 22.9981 12 24.4093C12 25.7208 12.3978 26.9604 13.2909 27.8769C14.1901 28.7996 15.4666 29.267 16.9697 29.267H22.9167C22.8526 28.9882 22.8187 28.6979 22.8187 28.3997V26.9368C22.8187 24.8084 24.5441 23.0831 26.6724 23.0831H28.1288C29.2215 23.0831 30.208 23.5379 30.9093 24.2685C31.4782 23.6759 32.2346 23.2648 33.0831 23.1306C32.9141 20.1913 30.7546 17.9706 28.1759 17.727C27.099 15.5002 25.1 14.0024 22.4301 14.0024Z" fill="url(#paint1_linear_3370_19116)"/>
<path fill-rule="evenodd" clip-rule="evenodd" d="M31.907 33.6639C31.907 32.6253 32.7192 31.7763 33.7431 31.7176L33.7431 30.5657H33.69C32.4937 30.5657 31.5238 29.5959 31.5238 28.3996V26.9367C31.5238 25.7403 32.4937 24.7705 33.69 24.7705H35.1464C36.3428 24.7705 37.3126 25.7403 37.3126 26.9367V28.3996C37.3126 29.5959 36.3428 30.5657 35.1464 30.5657H35.0931L35.0931 31.7144C36.1611 31.7245 37.0238 32.5934 37.0238 33.6639V34.8871C37.0238 35.9638 36.151 36.8366 35.0743 36.8366H33.8565C32.7798 36.8366 31.907 35.9638 31.907 34.8871V33.6639ZM33.5945 33.6639C33.5945 33.5192 33.7118 33.4019 33.8565 33.4019H35.0743C35.219 33.4019 35.3363 33.5192 35.3363 33.6639V34.8871C35.3363 35.0318 35.219 35.1491 35.0743 35.1491H33.8565C33.7118 35.1491 33.5945 35.0318 33.5945 34.8871V33.6639ZM33.69 28.8782C33.4256 28.8782 33.2113 28.6639 33.2113 28.3996V26.9367C33.2113 26.6723 33.4256 26.458 33.69 26.458L35.1464 26.458C35.4108 26.458 35.6251 26.6723 35.6251 26.9367V28.3996C35.6251 28.6639 35.4108 28.8782 35.1464 28.8782L33.69 28.8782Z" fill="url(#paint2_linear_3370_19116)"/>
<path fill-rule="evenodd" clip-rule="evenodd" d="M24.8895 33.6639C24.8895 32.6253 25.7017 31.7763 26.7256 31.7176L26.7256 30.5657H26.6725C25.4762 30.5657 24.5063 29.5959 24.5063 28.3996V26.9367C24.5063 25.7403 25.4762 24.7705 26.6725 24.7705H28.1289C29.3253 24.7705 30.2951 25.7403 30.2951 26.9367V28.3996C30.2951 29.5959 29.3253 30.5657 28.1289 30.5657H28.0756L28.0756 31.7144C29.1436 31.7245 30.0063 32.5934 30.0063 33.6639V34.8871C30.0063 35.9638 29.1335 36.8366 28.0568 36.8366H26.839C25.7623 36.8366 24.8895 35.9638 24.8895 34.8871V33.6639ZM26.577 33.6639C26.577 33.5192 26.6943 33.4019 26.839 33.4019H28.0568C28.2015 33.4019 28.3188 33.5192 28.3188 33.6639V34.8871C28.3188 35.0318 28.2015 35.1491 28.0568 35.1491H26.839C26.6943 35.1491 26.577 35.0318 26.577 34.8871V33.6639ZM26.6725 28.8782C26.4082 28.8782 26.1938 28.6639 26.1938 28.3996V26.9367C26.1938 26.6723 26.4082 26.458 26.6725 26.458L28.1289 26.458C28.3933 26.458 28.6076 26.6723 28.6076 26.9367V28.3996C28.6076 28.6639 28.3933 28.8782 28.1289 28.8782L26.6725 28.8782Z" fill="url(#paint3_linear_3370_19116)"/>
</g>
<defs>
<linearGradient id="paint0_linear_3370_19116" x1="4.35287" y1="6.81528" x2="41.0645" y2="44.2467" gradientUnits="userSpaceOnUse">
<stop stop-color="white"/>
<stop offset="1" stop-color="#EAECEE"/>
</linearGradient>
<linearGradient id="paint1_linear_3370_19116" x1="15.1604" y1="16.2852" x2="25.3134" y2="30.3131" gradientUnits="userSpaceOnUse">
<stop stop-color="#0195FF"/>
<stop offset="0.991028" stop-color="#1147E9"/>
</linearGradient>
<linearGradient id="paint2_linear_3370_19116" x1="26.3997" y1="26.5457" x2="34.8269" y2="35.5285" gradientUnits="userSpaceOnUse">
<stop stop-color="#1348FF"/>
<stop offset="1" stop-color="#06238D"/>
</linearGradient>
<linearGradient id="paint3_linear_3370_19116" x1="26.3997" y1="26.5457" x2="34.8269" y2="35.5285" gradientUnits="userSpaceOnUse">
<stop stop-color="#1348FF"/>
<stop offset="1" stop-color="#06238D"/>
</linearGradient>
<clipPath id="clip0_3370_19116">
<rect width="27" height="27" fill="white" transform="matrix(-1 0 0 1 39 14.0024)"/>
</clipPath>
</defs>
</svg>
