<svg width="48" height="48" viewBox="0 0 48 48" fill="none" xmlns="http://www.w3.org/2000/svg">
<circle cx="24" cy="24.0024" r="23.5714" fill="url(#paint0_linear_3370_19137)" stroke="#D5DADD" stroke-width="0.857143"/>
<g clip-path="url(#clip0_3370_19137)">
<path d="M24.5443 12.5024C21.1882 12.5024 18.8037 15.2378 18.4064 18.0936C17.3268 18.158 16.3736 18.5642 15.6332 19.2465C14.6316 20.1696 14.1143 21.5095 14.1143 22.9225C14.1143 24.2356 14.5121 25.4768 15.4052 26.3945C16.3044 27.3183 17.5809 27.7863 19.084 27.7863H23.9235C23.9372 27.7573 23.9509 27.7281 23.9645 27.6985C23.3316 27.0446 22.9417 26.1537 22.9417 25.1702V23.2067C22.9417 21.198 24.57 19.5697 26.5787 19.5697H28.5356C30.5443 19.5697 32.1726 21.198 32.1726 23.2067V25.1702C32.1726 26.0608 31.8526 26.8753 31.3228 27.5065C33.508 26.7975 35.208 24.8233 35.208 22.0145C35.208 18.8883 32.9765 16.4858 30.2901 16.2317C29.2133 14.0021 27.2143 12.5024 24.5443 12.5024Z" fill="url(#paint1_linear_3370_19137)"/>
<path fill-rule="evenodd" clip-rule="evenodd" d="M28.5361 21.2571C29.6128 21.2571 30.4856 22.1299 30.4856 23.2066V25.1701C30.4856 25.9784 29.9937 26.6718 29.2929 26.9672C29.7123 28.2932 30.2509 29.277 30.7558 30.0049C31.1808 30.6174 31.5659 31.0337 31.8765 31.3554C32.1312 31.2333 32.4167 31.1648 32.7181 31.1648H33.9359C35.0126 31.1648 35.8854 32.0377 35.8854 33.1143V34.3376C35.8854 35.4143 35.0126 36.2871 33.9359 36.2871H32.7181C31.6414 36.2871 30.7686 35.4143 30.7686 34.3376V33.1143C30.7686 32.8337 30.8279 32.5669 30.9347 32.3257C30.6043 31.983 30.1244 31.4631 29.6466 30.7744C29.1591 30.0716 28.6556 29.1754 28.2327 28.0355L28.2328 32.8822C29.3051 32.8873 30.1728 33.7582 30.1728 34.8317V36.0549C30.1728 37.1316 29.3 38.0044 28.2233 38.0044H27.0055C25.9288 38.0044 25.056 37.1316 25.056 36.0549V34.8317C25.056 33.7963 25.8633 32.9494 26.8828 32.886L26.8827 28.61C26.5127 29.4822 26.0994 30.1941 25.6969 30.7744C25.1789 31.5211 24.6584 32.0694 24.3286 32.4085C24.4137 32.6274 24.4603 32.8654 24.4603 33.1143V34.3376C24.4603 35.4143 23.5875 36.2871 22.5108 36.2871H21.293C20.2163 36.2871 19.3435 35.4143 19.3435 34.3376L19.3435 33.1143C19.3435 32.0377 20.2163 31.1648 21.293 31.1648H22.5108C22.8429 31.1648 23.1556 31.2479 23.4293 31.3944C23.7462 31.0674 24.1454 30.6425 24.5877 30.0049C25.0832 29.2905 25.6113 28.3295 26.0272 27.0403C25.2193 26.8023 24.6297 26.0551 24.6297 25.1701V23.2066C24.6297 22.1299 25.5025 21.2571 26.5792 21.2571H28.5361ZM28.7981 23.2066C28.7981 23.0619 28.6808 22.9446 28.5361 22.9446L26.5792 22.9446C26.4345 22.9446 26.3172 23.0619 26.3172 23.2066V25.1701C26.3172 25.3148 26.4345 25.4321 26.5792 25.4321H28.5361C28.6808 25.4321 28.7981 25.3148 28.7981 25.1701V23.2066ZM28.4853 34.8317C28.4853 34.687 28.368 34.5697 28.2233 34.5697H27.0055C26.8608 34.5697 26.7435 34.687 26.7435 34.8317V36.0549C26.7435 36.1996 26.8608 36.3169 27.0055 36.3169H28.2233C28.368 36.3169 28.4853 36.1996 28.4853 36.0549V34.8317ZM33.9359 32.8523C34.0806 32.8523 34.1979 32.9696 34.1979 33.1143V34.3376C34.1979 34.4823 34.0806 34.5996 33.9359 34.5996H32.7181C32.5734 34.5996 32.4561 34.4823 32.4561 34.3376V33.1143C32.4561 32.9696 32.5734 32.8523 32.7181 32.8523H33.9359ZM22.7728 33.1143C22.7728 32.9696 22.6555 32.8523 22.5108 32.8523H21.293C21.1483 32.8523 21.031 32.9696 21.031 33.1143L21.031 34.3376C21.031 34.4823 21.1483 34.5996 21.293 34.5996H22.5108C22.6555 34.5996 22.7728 34.4823 22.7728 34.3376V33.1143Z" fill="url(#paint2_linear_3370_19137)"/>
</g>
<defs>
<linearGradient id="paint0_linear_3370_19137" x1="4.35287" y1="6.81528" x2="41.0645" y2="44.2467" gradientUnits="userSpaceOnUse">
<stop stop-color="white"/>
<stop offset="1" stop-color="#EAECEE"/>
</linearGradient>
<linearGradient id="paint1_linear_3370_19137" x1="17.2763" y1="14.7881" x2="27.4445" y2="28.8264" gradientUnits="userSpaceOnUse">
<stop stop-color="#0195FF"/>
<stop offset="0.991028" stop-color="#1147E9"/>
</linearGradient>
<linearGradient id="paint2_linear_3370_19137" x1="21.7891" y1="23.721" x2="33.5094" y2="35.3474" gradientUnits="userSpaceOnUse">
<stop stop-color="#1348FF"/>
<stop offset="1" stop-color="#06238D"/>
</linearGradient>
<clipPath id="clip0_3370_19137">
<rect width="26.9995" height="26.9998" fill="white" transform="translate(11.5 12.5024)"/>
</clipPath>
</defs>
</svg>
