<svg width="48" height="49" viewBox="0 0 48 49" fill="none" xmlns="http://www.w3.org/2000/svg">
<circle cx="24" cy="24.0449" r="23.5714" fill="url(#paint0_linear_3370_19126)" stroke="#D5DADD" stroke-width="0.857143"/>
<g clip-path="url(#clip0_3370_19126)">
<path d="M34.5732 36.2075C34.1776 36.6099 33.7868 37.2335 34.1824 37.6358C34.5779 38.0381 35.0268 38.0663 35.4223 37.6639L38.4593 34.575C38.8548 34.1727 38.8548 33.521 38.4593 33.1186L35.4223 30.0297C35.0268 29.6274 34.562 29.4599 34.1664 29.8622C33.6718 30.2485 34.3604 31.0838 34.756 31.4861L35.8898 32.8397L31.3383 32.8443V27.5103C31.3383 26.66 30.6549 25.9707 29.8118 25.9707C29.1495 25.9707 28.5627 26.4016 28.3592 27.0373L27.1155 30.9231C27.0453 31.1271 26.9586 31.4186 26.8554 31.7974L26.6573 32.5469C26.6284 32.422 26.5665 32.168 26.4715 31.785C26.3766 31.4019 26.294 31.1042 26.2238 30.8919L24.9624 27.0359C24.7545 26.4002 24.1656 25.9707 23.5019 25.9707C22.6525 25.9707 21.9639 26.6652 21.9639 27.522V33.9177C21.9639 34.3885 22.3423 34.7702 22.8091 34.7702C23.2758 34.7702 23.6542 34.3885 23.6542 33.9177V29.4368C23.6542 29.1578 23.6439 28.8185 23.6233 28.4188C23.6026 28.015 23.5903 27.7797 23.5861 27.7131L23.5737 27.532C23.6357 27.7443 23.745 28.1232 23.9019 28.6686C24.0629 29.2099 24.1867 29.6075 24.2734 29.8614L25.6715 34.0597C25.8128 34.4842 26.2072 34.7702 26.6511 34.7702C27.095 34.7702 27.4893 34.4842 27.6307 34.0597L29.0287 29.8614C29.103 29.6449 29.2042 29.3098 29.3321 28.856C29.4642 28.4022 29.5509 28.1066 29.5922 27.9692C29.6706 27.6819 29.7119 27.5362 29.716 27.532C29.6935 27.6041 29.7036 27.7631 29.6789 28.1628C29.6582 28.5624 29.6479 28.9871 29.6479 29.4368L29.6464 32.846L29.646 33.6472C29.6456 34.1997 30.09 34.6475 30.6378 34.6468L36.0015 34.6412L34.5732 36.2075Z" fill="url(#paint1_linear_3370_19126)"/>
<path d="M22.4308 13.0308C19.0747 13.0308 16.6902 15.6358 16.2929 18.3556C15.2133 18.4169 14.26 18.8037 13.5197 19.4536C12.5181 20.3327 12.0007 21.6087 12.0007 22.9544C12.0007 24.205 12.3986 25.387 13.2917 26.261C14.1908 27.1408 15.4674 27.5865 16.9704 27.5865H20.3517V27.4999C20.3517 25.7279 21.7798 24.2665 23.572 24.2665C24.9711 24.2665 26.1998 25.1711 26.6315 26.4909L26.6996 26.6989L26.7624 26.5026C27.1865 25.1777 28.4155 24.2665 29.8174 24.2665C30.7275 24.2665 31.5433 24.6447 32.1247 25.2493C32.7312 24.3929 33.0945 23.3262 33.0945 22.0897C33.0945 19.1124 30.863 16.8244 28.1766 16.5824C27.0997 14.459 25.1008 13.0308 22.4308 13.0308Z" fill="url(#paint2_linear_3370_19126)"/>
</g>
<defs>
<linearGradient id="paint0_linear_3370_19126" x1="4.35287" y1="6.85776" x2="41.0645" y2="44.2892" gradientUnits="userSpaceOnUse">
<stop stop-color="white"/>
<stop offset="1" stop-color="#EAECEE"/>
</linearGradient>
<linearGradient id="paint1_linear_3370_19126" x1="24.4465" y1="27.7334" x2="32.3644" y2="38.8784" gradientUnits="userSpaceOnUse">
<stop stop-color="#1348FF"/>
<stop offset="1" stop-color="#06238D"/>
</linearGradient>
<linearGradient id="paint2_linear_3370_19126" x1="15.1628" y1="15.2075" x2="24.6902" y2="29.0191" gradientUnits="userSpaceOnUse">
<stop stop-color="#0195FF"/>
<stop offset="0.991028" stop-color="#1147E9"/>
</linearGradient>
<clipPath id="clip0_3370_19126">
<rect width="26.9994" height="27" fill="white" transform="translate(12 13.0449)"/>
</clipPath>
</defs>
</svg>
