<svg width="48" height="48" viewBox="0 0 48 48" fill="none" xmlns="http://www.w3.org/2000/svg">
<circle cx="24" cy="24" r="23.5714" fill="url(#paint0_linear_3370_19006)" stroke="#D5DADD" stroke-width="0.857143"/>
<g clip-path="url(#clip0_3370_19006)">
<path d="M24.3665 10.5C20.2559 10.5 17.1531 13.3682 16.1691 16.7326C15.0815 16.9672 14.0864 17.4572 13.2511 18.1898C11.7518 19.5047 11 21.3984 11 23.3393C11 25.1038 11.5688 26.8799 12.9321 28.2129C13.9997 29.2567 15.3657 29.8449 16.8609 30.0505V29.7416C16.8609 28.9212 17.1604 28.1706 17.656 27.5934C16.3051 27.1804 15.3225 25.9237 15.3225 24.4376V23.5223C15.3225 21.7 16.7998 20.2228 18.622 20.2228H19.5324C19.5645 20.2228 19.5966 20.2232 19.6285 20.2241C19.5778 19.9943 19.551 19.7554 19.551 19.5103V18.595C19.551 16.7728 21.0283 15.2955 22.8505 15.2955H23.7609C25.5832 15.2955 27.0604 16.7728 27.0604 18.595V19.3589C27.6656 18.6473 28.5676 18.1958 29.5749 18.1958H30.4853C32.3076 18.1958 33.7848 19.673 33.7848 21.4953V22.4106C33.7848 23.3676 33.3774 24.2294 32.7266 24.8321C33.2269 25.4106 33.5296 26.1647 33.5296 26.9896V28.2128C33.5296 28.6652 33.4385 29.0963 33.2737 29.4889C35.9346 28.3767 38 25.891 38 22.3516C38 18.403 35.2449 15.3515 31.8279 14.6736C30.2909 12.1648 27.6948 10.5 24.3665 10.5Z" fill="url(#paint1_linear_3370_19006)"/>
<path fill-rule="evenodd" clip-rule="evenodd" d="M23.7607 16.6404C24.8374 16.6404 25.7102 17.5132 25.7102 18.5899V19.5052C25.7102 20.1081 25.4365 20.6471 25.0066 21.0047L25.4577 22.7938H25.5228C25.7111 22.7938 25.8885 22.8409 26.0437 22.924L27.6253 22.1216V21.4903C27.6253 20.4136 28.4981 19.5408 29.5748 19.5408H30.4851C31.5618 19.5408 32.4346 20.4136 32.4346 21.4903V22.4056C32.4346 23.4823 31.5618 24.3551 30.4851 24.3551H29.5748C29.0163 24.3551 28.5127 24.1202 28.1572 23.7439L26.6285 24.5195V24.7128L26.6336 24.705L27.7921 25.464C28.1261 25.1956 28.5505 25.035 29.0123 25.035H30.2301C31.3068 25.035 32.1796 25.9079 32.1796 26.9845V28.2078C32.1796 29.2844 31.3068 30.1573 30.2301 30.1573H29.0123C27.9356 30.1573 27.0628 29.2844 27.0628 28.2078V27.0037L26.0185 26.3194C25.8694 26.3943 25.701 26.4365 25.5228 26.4365H24.6221L22.8145 28.8637C22.9462 29.1263 23.0203 29.4228 23.0203 29.7366V30.6519C23.0203 31.7286 22.1475 32.6014 21.0708 32.6014H20.1605C19.0838 32.6014 18.211 31.7286 18.211 30.6519L18.211 29.7366C18.211 28.6599 19.0838 27.7871 20.1605 27.7871H21.0708C21.2112 27.7871 21.3482 27.802 21.4802 27.8302L23.0548 25.7158C23.0102 25.5959 22.9859 25.4661 22.9859 25.3307V25.0449L21.3839 25.0449C21.1271 25.8216 20.3952 26.3821 19.5325 26.3821H18.6221C17.5454 26.3821 16.6726 25.5092 16.6726 24.4325L16.6726 23.5173C16.6726 22.4406 17.5454 21.5677 18.6221 21.5677H19.5325C20.5553 21.5677 21.3942 22.3555 21.4755 23.3574L23.1277 23.3574C23.2597 23.1232 23.4745 22.942 23.7324 22.8535L23.3797 21.4547H22.8503C21.7736 21.4547 20.9008 20.5819 20.9008 19.5052V18.5899C20.9008 17.5132 21.7736 16.6404 22.8503 16.6404H23.7607ZM24.0227 18.5899C24.0227 18.4452 23.9054 18.3279 23.7607 18.3279L22.8503 18.3279C22.7056 18.3279 22.5883 18.4452 22.5883 18.5899V19.5052C22.5883 19.6499 22.7056 19.7672 22.8503 19.7672H23.7607C23.9054 19.7672 24.0227 19.6499 24.0227 19.5052V18.5899ZM30.7471 21.4903C30.7471 21.3456 30.6298 21.2283 30.4851 21.2283H29.5748C29.4301 21.2283 29.3128 21.3456 29.3128 21.4903V22.4056C29.3128 22.5503 29.4301 22.6676 29.5748 22.6676H30.4851C30.6298 22.6676 30.7471 22.5503 30.7471 22.4056V21.4903ZM30.4921 26.9845C30.4921 26.8398 30.3748 26.7225 30.2301 26.7225H29.0123C28.8676 26.7225 28.7503 26.8398 28.7503 26.9845V28.2078C28.7503 28.3525 28.8676 28.4698 29.0123 28.4698H30.2301C30.3748 28.4698 30.4921 28.3525 30.4921 28.2078V26.9845ZM19.5325 23.2552C19.6772 23.2552 19.7945 23.3726 19.7945 23.5173V24.4325C19.7945 24.5772 19.6772 24.6946 19.5325 24.6946H18.6221C18.4774 24.6946 18.3601 24.5772 18.3601 24.4325V23.5173C18.3601 23.3726 18.4774 23.2552 18.6221 23.2552H19.5325ZM21.3328 29.7366C21.3328 29.5919 21.2155 29.4746 21.0708 29.4746H20.1605C20.0158 29.4746 19.8985 29.5919 19.8985 29.7366V30.6519C19.8985 30.7966 20.0158 30.9139 20.1605 30.9139H21.0708C21.2155 30.9139 21.3328 30.7966 21.3328 30.6519V29.7366Z" fill="url(#paint2_radial_3370_19006)"/>
<path fill-rule="evenodd" clip-rule="evenodd" d="M14.4015 31.0874C15.0539 31.0874 15.5827 31.6163 15.5827 32.2687V33.6187C15.5827 34.4574 16.2627 35.1374 17.1015 35.1374H31.9515C32.7902 35.1374 33.4702 34.4574 33.4702 33.6187V32.2687C33.4702 31.6163 33.9991 31.0874 34.6515 31.0874C35.3039 31.0874 35.8327 31.6163 35.8327 32.2687V33.6187C35.8327 35.7622 34.095 37.4999 31.9515 37.4999H17.1015C14.9579 37.4999 13.2202 35.7622 13.2202 33.6187V32.2687C13.2202 31.6163 13.7491 31.0874 14.4015 31.0874ZM31.316 34.0985C31.8752 34.0985 32.3285 33.6452 32.3285 33.086C32.3285 32.5269 31.8752 32.0735 31.316 32.0735C30.7568 32.0735 30.3035 32.5269 30.3035 33.086C30.3035 33.6452 30.7568 34.0985 31.316 34.0985ZM29.227 33.086C29.227 33.6452 28.7737 34.0985 28.2145 34.0985C27.6553 34.0985 27.202 33.6452 27.202 33.086C27.202 32.5269 27.6553 32.0735 28.2145 32.0735C28.7737 32.0735 29.227 32.5269 29.227 33.086Z" fill="url(#paint3_radial_3370_19006)"/>
</g>
<defs>
<linearGradient id="paint0_linear_3370_19006" x1="4.35287" y1="6.81284" x2="41.0645" y2="44.2443" gradientUnits="userSpaceOnUse">
<stop stop-color="white"/>
<stop offset="1" stop-color="#EAECEE"/>
</linearGradient>
<linearGradient id="paint1_linear_3370_19006" x1="15.0474" y1="13.4237" x2="28.0515" y2="31.3891" gradientUnits="userSpaceOnUse">
<stop stop-color="#0195FF"/>
<stop offset="0.991028" stop-color="#1147E9"/>
</linearGradient>
<radialGradient id="paint2_radial_3370_19006" cx="0" cy="0" r="1" gradientUnits="userSpaceOnUse" gradientTransform="translate(19.1133 19.0415) rotate(45.3594) scale(15.6256 14.2379)">
<stop stop-color="#1348FF"/>
<stop offset="1" stop-color="#06238D"/>
</radialGradient>
<radialGradient id="paint3_radial_3370_19006" cx="0" cy="0" r="1" gradientUnits="userSpaceOnUse" gradientTransform="translate(16.7217 32.0521) rotate(15.8324) scale(16.3724 7.83198)">
<stop stop-color="#1348FF"/>
<stop offset="1" stop-color="#06238D"/>
</radialGradient>
<clipPath id="clip0_3370_19006">
<rect width="27" height="27" fill="white" transform="translate(11 10.5)"/>
</clipPath>
</defs>
</svg>
