<svg width="48" height="49" viewBox="0 0 48 49" fill="none" xmlns="http://www.w3.org/2000/svg">
<circle cx="24" cy="24.0225" r="23.5714" fill="url(#paint0_linear_3370_19135)" stroke="#D5DADD" stroke-width="0.857143"/>
<g clip-path="url(#clip0_3370_19135)">
<path d="M21.9308 11.5225C18.5747 11.5225 16.1902 14.2579 15.7929 17.1136C14.7133 17.178 13.76 17.5842 13.0197 18.2666C12.0181 19.1896 11.5007 20.5295 11.5007 21.9425C11.5007 23.2556 11.8986 24.4968 12.7917 25.4145C13.6908 26.3383 14.9674 26.8063 16.4704 26.8063H21.2593L21.2593 26.7501C21.2593 23.861 23.6014 21.5189 26.4905 21.5189H28.1778C29.2245 21.5189 30.1228 22.1542 30.5081 23.0602C30.8609 22.2308 31.6435 21.6283 32.5763 21.5323C32.5883 21.3695 32.5945 21.2035 32.5945 21.0345C32.5945 17.9083 30.363 15.5058 27.6766 15.2517C26.5997 13.0221 24.6008 11.5225 21.9308 11.5225Z" fill="url(#paint1_linear_3370_19135)"/>
<path d="M28.1778 38.0115C28.6438 38.0115 29.0216 37.6337 29.0216 37.1677C29.0216 36.7017 28.6438 36.324 28.1778 36.324H26.4905C25.4653 36.324 24.6343 35.4929 24.6343 34.4678L24.6343 32.7803C24.6343 32.3143 24.2565 31.9366 23.7905 31.9366C23.3245 31.9366 22.9468 32.3144 22.9468 32.7804L22.9468 34.4678C22.9468 36.4249 24.5334 38.0115 26.4905 38.0115H28.1778Z" fill="url(#paint2_linear_3370_19135)"/>
<path d="M32.8385 23.2063C32.3725 23.2063 31.9948 23.5841 31.9948 24.0501C31.9948 24.5161 32.3725 24.8938 32.8385 24.8938L34.5259 24.8938C35.551 24.8938 36.382 25.7249 36.3821 26.75L36.3821 28.4374C36.3821 28.9034 36.7598 29.2812 37.2258 29.2812C37.6918 29.2812 38.0696 28.9034 38.0696 28.4374L38.0695 26.75C38.0695 24.7929 36.483 23.2063 34.5259 23.2063L32.8385 23.2063Z" fill="url(#paint3_linear_3370_19135)"/>
<path d="M31.9952 37.1677C31.9952 37.6337 32.3729 38.0115 32.8389 38.0115L34.5263 38.0115C36.4834 38.0115 38.0699 36.4249 38.0699 34.4678L38.07 32.7804C38.07 32.3144 37.6922 31.9366 37.2262 31.9366C36.7602 31.9366 36.3825 32.3144 36.3825 32.7803L36.3825 34.4678C36.3825 35.4929 35.5514 36.324 34.5263 36.324H32.8389C32.3729 36.324 31.9952 36.7017 31.9952 37.1677Z" fill="url(#paint4_linear_3370_19135)"/>
<path d="M28.1778 23.2063C28.6438 23.2063 29.0216 23.5841 29.0216 24.0501C29.0216 24.5161 28.6438 24.8938 28.1778 24.8938H26.4905C25.4653 24.8938 24.6343 25.7249 24.6343 26.75L24.6343 28.4374C24.6343 28.9034 24.2565 29.2812 23.7905 29.2812C23.3245 29.2812 22.9468 28.9034 22.9468 28.4374L22.9468 26.75C22.9468 24.7929 24.5334 23.2063 26.4905 23.2063H28.1778Z" fill="url(#paint5_linear_3370_19135)"/>
<path d="M33.9069 27.2244C33.5808 26.8984 33.0832 26.8383 32.6971 27.0786L29.385 28.9577C29.2134 29.0607 29.0589 29.2065 28.9559 29.3867L26.9738 32.7675C26.7336 33.1622 26.7851 33.6598 27.1111 33.9945C27.2999 34.1918 27.5573 34.2862 27.8147 34.2862C27.9949 34.2862 28.1665 34.2347 28.3296 34.1403L31.7189 32.0896C31.8991 31.978 32.0449 31.8322 32.1479 31.652L34.0528 28.4429C34.2844 28.0482 34.2244 27.5505 33.8983 27.233L33.9069 27.2244ZM30.5176 31.4632C30.0457 31.4632 29.651 31.0685 29.651 30.5966C29.651 30.1246 30.0371 29.687 30.509 29.687C30.9809 29.687 31.3671 30.1246 31.3671 30.5966C31.3671 31.0685 30.9809 31.4632 30.509 31.4632H30.5176Z" fill="url(#paint6_linear_3370_19135)"/>
</g>
<defs>
<linearGradient id="paint0_linear_3370_19135" x1="4.35287" y1="6.8353" x2="41.0645" y2="44.2667" gradientUnits="userSpaceOnUse">
<stop stop-color="white"/>
<stop offset="1" stop-color="#EAECEE"/>
</linearGradient>
<linearGradient id="paint1_linear_3370_19135" x1="14.6628" y1="13.8081" x2="24.831" y2="27.8465" gradientUnits="userSpaceOnUse">
<stop stop-color="#0195FF"/>
<stop offset="0.991028" stop-color="#1147E9"/>
</linearGradient>
<linearGradient id="paint2_linear_3370_19135" x1="25.2101" y1="25.4276" x2="35.5744" y2="36.0071" gradientUnits="userSpaceOnUse">
<stop stop-color="#00BBFF"/>
<stop offset="1" stop-color="#008BFF"/>
</linearGradient>
<linearGradient id="paint3_linear_3370_19135" x1="25.2101" y1="25.4276" x2="35.5744" y2="36.0071" gradientUnits="userSpaceOnUse">
<stop stop-color="#00BBFF"/>
<stop offset="1" stop-color="#008BFF"/>
</linearGradient>
<linearGradient id="paint4_linear_3370_19135" x1="25.2101" y1="25.4276" x2="35.5744" y2="36.0071" gradientUnits="userSpaceOnUse">
<stop stop-color="#00BBFF"/>
<stop offset="1" stop-color="#008BFF"/>
</linearGradient>
<linearGradient id="paint5_linear_3370_19135" x1="25.2101" y1="25.4276" x2="35.5744" y2="36.0071" gradientUnits="userSpaceOnUse">
<stop stop-color="#00BBFF"/>
<stop offset="1" stop-color="#008BFF"/>
</linearGradient>
<linearGradient id="paint6_linear_3370_19135" x1="27.9136" y1="28.0141" x2="33.0602" y2="33.1928" gradientUnits="userSpaceOnUse">
<stop stop-color="#1348FF"/>
<stop offset="1" stop-color="#06238D"/>
</linearGradient>
<clipPath id="clip0_3370_19135">
<rect width="26.9995" height="27" fill="white" transform="translate(11.5 11.5225)"/>
</clipPath>
</defs>
</svg>
