<svg width="48" height="48" viewBox="0 0 48 48" fill="none" xmlns="http://www.w3.org/2000/svg">
<circle cx="24" cy="24.0044" r="23.5714" fill="url(#paint0_linear_3370_19119)" stroke="#D5DADD" stroke-width="0.857143"/>
<g clip-path="url(#clip0_3370_19119)">
<path d="M22.4306 13.0046C19.0744 13.0046 16.6899 15.7366 16.2926 18.5887C15.2131 18.653 14.2598 19.0587 13.5194 19.7402C12.5178 20.6621 12.0005 22.0003 12.0005 23.4115C12.0005 24.723 12.3983 25.9626 13.2914 26.8791C14.1906 27.8018 15.4671 28.2692 16.9702 28.2692H19.6157C19.8957 26.7307 21.2425 25.5642 22.8618 25.5642H23.7722C23.8043 25.5642 23.8363 25.5646 23.8682 25.5655C23.8175 25.3357 23.7908 25.0968 23.7908 24.8517V23.9364C23.7908 22.1142 25.2681 20.6369 27.0903 20.6369H28.0007C29.823 20.6369 31.3002 22.1142 31.3002 23.9364V24.7003C31.7357 24.1882 32.3249 23.8108 32.9964 23.6395C33.0605 23.2785 33.0942 22.8999 33.0942 22.5046C33.0942 19.3824 30.8628 16.983 28.1764 16.7292C27.0995 14.5024 25.1005 13.0046 22.4306 13.0046Z" fill="url(#paint1_linear_3370_19119)"/>
<path fill-rule="evenodd" clip-rule="evenodd" d="M28.0002 21.9868C29.0769 21.9868 29.9497 22.8596 29.9497 23.9363V24.8516C29.9497 25.4545 29.676 25.9935 29.2461 26.3511L29.6972 28.1403H29.7623C29.9506 28.1403 30.128 28.1874 30.2832 28.2704L31.8648 27.468V26.8367C31.8648 25.76 32.7376 24.8872 33.8143 24.8872H34.7246C35.8013 24.8872 36.6741 25.76 36.6741 26.8367V27.752C36.6741 28.8287 35.8013 29.7015 34.7246 29.7015H33.8143C33.2558 29.7015 32.7522 29.4667 32.3967 29.0904L30.868 29.866V30.0592L30.8731 30.0514L32.0316 30.8105C32.3656 30.5421 32.79 30.3815 33.2518 30.3815H34.4696C35.5463 30.3815 36.4191 31.2543 36.4191 32.331V33.5542C36.4191 34.6309 35.5463 35.5037 34.4696 35.5037H33.2518C32.1752 35.5037 31.3023 34.6309 31.3023 33.5542V32.3501L30.258 31.6658C30.1089 31.7407 29.9405 31.7829 29.7623 31.7829H28.8616L27.054 34.2101C27.1857 34.4728 27.2598 34.7692 27.2598 35.083V35.9983C27.2598 37.075 26.387 37.9478 25.3103 37.9478H24.4C23.3233 37.9478 22.4505 37.075 22.4505 35.9983L22.4505 35.083C22.4505 34.0064 23.3233 33.1335 24.4 33.1335H25.3103C25.4507 33.1335 25.5877 33.1484 25.7197 33.1766L27.2943 31.0622C27.2497 30.9423 27.2254 30.8126 27.2254 30.6772V30.3913L25.6234 30.3913C25.3666 31.168 24.6347 31.7285 23.772 31.7285H22.8616C21.7849 31.7285 20.9121 30.8557 20.9121 29.779L20.9121 28.8637C20.9121 27.787 21.7849 26.9142 22.8616 26.9142H23.772C24.7948 26.9142 25.6337 27.7019 25.715 28.7038L27.3672 28.7038C27.4992 28.4697 27.714 28.2884 27.9719 28.1999L27.6192 26.8011H27.0898C26.0131 26.8011 25.1403 25.9283 25.1403 24.8516V23.9363C25.1403 22.8596 26.0131 21.9868 27.0898 21.9868H28.0002ZM28.2622 23.9363C28.2622 23.7916 28.1449 23.6743 28.0002 23.6743L27.0898 23.6743C26.9451 23.6743 26.8278 23.7916 26.8278 23.9363V24.8516C26.8278 24.9963 26.9451 25.1136 27.0898 25.1136H28.0002C28.1449 25.1136 28.2622 24.9963 28.2622 24.8516V23.9363ZM34.9866 26.8367C34.9866 26.692 34.8693 26.5747 34.7246 26.5747H33.8143C33.6696 26.5747 33.5523 26.692 33.5523 26.8367V27.752C33.5523 27.8967 33.6696 28.014 33.8143 28.014H34.7246C34.8693 28.014 34.9866 27.8967 34.9866 27.752V26.8367ZM34.7316 32.331C34.7316 32.1863 34.6143 32.069 34.4696 32.069H33.2518C33.1071 32.069 32.9898 32.1863 32.9898 32.331V33.5542C32.9898 33.6989 33.1071 33.8162 33.2518 33.8162H34.4696C34.6143 33.8162 34.7316 33.6989 34.7316 33.5542V32.331ZM23.772 28.6017C23.9167 28.6017 24.034 28.719 24.034 28.8637V29.779C24.034 29.9237 23.9167 30.041 23.772 30.041H22.8616C22.7169 30.041 22.5996 29.9237 22.5996 29.779V28.8637C22.5996 28.719 22.7169 28.6017 22.8616 28.6017H23.772ZM25.5723 35.083C25.5723 34.9383 25.455 34.821 25.3103 34.821H24.4C24.2553 34.821 24.138 34.9383 24.138 35.083V35.9983C24.138 36.143 24.2553 36.2603 24.4 36.2603H25.3103C25.455 36.2603 25.5723 36.143 25.5723 35.9983V35.083Z" fill="url(#paint2_radial_3370_19119)"/>
</g>
<defs>
<linearGradient id="paint0_linear_3370_19119" x1="4.35287" y1="6.81723" x2="41.0645" y2="44.2487" gradientUnits="userSpaceOnUse">
<stop stop-color="white"/>
<stop offset="1" stop-color="#EAECEE"/>
</linearGradient>
<linearGradient id="paint1_linear_3370_19119" x1="15.1625" y1="15.2874" x2="25.3139" y2="29.3202" gradientUnits="userSpaceOnUse">
<stop stop-color="#0195FF"/>
<stop offset="0.991028" stop-color="#1147E9"/>
</linearGradient>
<radialGradient id="paint2_radial_3370_19119" cx="0" cy="0" r="1" gradientUnits="userSpaceOnUse" gradientTransform="translate(23.3528 24.3879) rotate(45.3594) scale(15.6256 14.2379)">
<stop stop-color="#1348FF"/>
<stop offset="1" stop-color="#06238D"/>
</radialGradient>
<clipPath id="clip0_3370_19119">
<rect width="27" height="27" fill="white" transform="translate(12 13.0044)"/>
</clipPath>
</defs>
</svg>
