<svg width="48" height="49" viewBox="0 0 48 49" fill="none" xmlns="http://www.w3.org/2000/svg">
<circle cx="24" cy="24.5664" r="23.5714" fill="url(#paint0_linear_3370_19139)" stroke="#D5DADD" stroke-width="0.857143"/>
<g clip-path="url(#clip0_3370_19139)">
<path d="M21.9308 12.0664C18.5747 12.0664 16.1902 14.8018 15.7929 17.6576C14.7133 17.7219 13.76 18.1282 13.0197 18.8105C12.0181 19.7336 11.5007 21.0735 11.5007 22.4864C11.5007 23.7996 11.8986 25.0408 12.7917 25.9584C13.6908 26.8823 14.9674 27.3503 16.4704 27.3503H21.2593L21.2593 27.2941C21.2593 24.4049 23.6014 22.0628 26.4905 22.0628H28.1778C29.2245 22.0628 30.1228 22.6981 30.5081 23.6042C30.8609 22.7748 31.6435 22.1723 32.5763 22.0763C32.5883 21.9134 32.5945 21.7474 32.5945 21.5784C32.5945 18.4522 30.363 16.0498 27.6766 15.7957C26.5997 13.566 24.6008 12.0664 21.9308 12.0664Z" fill="url(#paint1_linear_3370_19139)"/>
<path d="M28.1778 38.5554C28.6438 38.5554 29.0216 38.1777 29.0216 37.7117C29.0216 37.2457 28.6438 36.8679 28.1778 36.8679H26.4905C25.4653 36.8679 24.6343 36.0369 24.6343 35.0117L24.6343 33.3243C24.6343 32.8583 24.2565 32.4805 23.7905 32.4805C23.3245 32.4805 22.9468 32.8583 22.9468 33.3243L22.9468 35.0117C22.9468 36.9689 24.5334 38.5554 26.4905 38.5554H28.1778Z" fill="url(#paint2_linear_3370_19139)"/>
<path d="M32.8385 23.7502C32.3725 23.7502 31.9948 24.128 31.9948 24.594C31.9948 25.06 32.3725 25.4378 32.8385 25.4378L34.5259 25.4378C35.551 25.4378 36.382 26.2688 36.3821 27.294L36.3821 28.9814C36.3821 29.4474 36.7598 29.8251 37.2258 29.8251C37.6918 29.8251 38.0696 29.4474 38.0696 28.9814L38.0695 27.294C38.0695 25.3368 36.483 23.7502 34.5259 23.7502L32.8385 23.7502Z" fill="url(#paint3_linear_3370_19139)"/>
<path d="M31.9952 37.7117C31.9952 38.1777 32.3729 38.5554 32.8389 38.5554L34.5263 38.5554C36.4834 38.5554 38.0699 36.9689 38.0699 35.0117L38.07 33.3243C38.07 32.8583 37.6922 32.4805 37.2262 32.4805C36.7602 32.4805 36.3825 32.8583 36.3825 33.3243L36.3825 35.0117C36.3825 36.0369 35.5514 36.8679 34.5263 36.8679H32.8389C32.3729 36.8679 31.9952 37.2457 31.9952 37.7117Z" fill="url(#paint4_linear_3370_19139)"/>
<path d="M28.1778 23.7502C28.6438 23.7502 29.0216 24.128 29.0216 24.594C29.0216 25.06 28.6438 25.4378 28.1778 25.4378H26.4905C25.4653 25.4378 24.6343 26.2688 24.6343 27.294L24.6343 28.9814C24.6343 29.4474 24.2565 29.8251 23.7905 29.8251C23.3245 29.8251 22.9468 29.4474 22.9468 28.9814L22.9468 27.294C22.9468 25.3368 24.5334 23.7502 26.4905 23.7502H28.1778Z" fill="url(#paint5_linear_3370_19139)"/>
<path fill-rule="evenodd" clip-rule="evenodd" d="M26.8385 31.4752C26.4431 31.0798 26.4431 30.4387 26.8385 30.0433L29.7923 27.0895C30.1877 26.6941 30.8288 26.6941 31.2242 27.0895L34.178 30.0433C34.5734 30.4387 34.5734 31.0797 34.178 31.4752C33.7826 31.8706 33.1415 31.8706 32.7461 31.4752L31.5207 30.2498L31.5207 34.5007C31.5207 35.0599 31.0674 35.5132 30.5082 35.5132C29.9491 35.5132 29.4958 35.0599 29.4958 34.5007L29.4958 30.2498L28.2704 31.4752C27.875 31.8706 27.2339 31.8706 26.8385 31.4752Z" fill="url(#paint6_linear_3370_19139)"/>
</g>
<defs>
<linearGradient id="paint0_linear_3370_19139" x1="4.35287" y1="7.37925" x2="41.0645" y2="44.8107" gradientUnits="userSpaceOnUse">
<stop stop-color="white"/>
<stop offset="1" stop-color="#EAECEE"/>
</linearGradient>
<linearGradient id="paint1_linear_3370_19139" x1="14.6628" y1="14.352" x2="24.831" y2="28.3904" gradientUnits="userSpaceOnUse">
<stop stop-color="#0195FF"/>
<stop offset="0.991028" stop-color="#1147E9"/>
</linearGradient>
<linearGradient id="paint2_linear_3370_19139" x1="25.2101" y1="25.9715" x2="35.5744" y2="36.5511" gradientUnits="userSpaceOnUse">
<stop stop-color="#00BBFF"/>
<stop offset="1" stop-color="#008BFF"/>
</linearGradient>
<linearGradient id="paint3_linear_3370_19139" x1="25.2101" y1="25.9715" x2="35.5744" y2="36.5511" gradientUnits="userSpaceOnUse">
<stop stop-color="#00BBFF"/>
<stop offset="1" stop-color="#008BFF"/>
</linearGradient>
<linearGradient id="paint4_linear_3370_19139" x1="25.2101" y1="25.9715" x2="35.5744" y2="36.5511" gradientUnits="userSpaceOnUse">
<stop stop-color="#00BBFF"/>
<stop offset="1" stop-color="#008BFF"/>
</linearGradient>
<linearGradient id="paint5_linear_3370_19139" x1="25.2101" y1="25.9715" x2="35.5744" y2="36.5511" gradientUnits="userSpaceOnUse">
<stop stop-color="#00BBFF"/>
<stop offset="1" stop-color="#008BFF"/>
</linearGradient>
<linearGradient id="paint6_linear_3370_19139" x1="27.709" y1="34.224" x2="33.8083" y2="28.6995" gradientUnits="userSpaceOnUse">
<stop stop-color="#1348FF"/>
<stop offset="1" stop-color="#06238D"/>
</linearGradient>
<clipPath id="clip0_3370_19139">
<rect width="26.9995" height="27" fill="white" transform="translate(11.5 12.0664)"/>
</clipPath>
</defs>
</svg>
