<svg width="48" height="49" viewBox="0 0 48 49" fill="none" xmlns="http://www.w3.org/2000/svg">
<circle cx="24" cy="24.8174" r="23.5714" fill="url(#paint0_linear_3370_19133)" stroke="#D5DADD" stroke-width="0.857143"/>
<g clip-path="url(#clip0_3370_19133)">
<path d="M30.1375 20.4799C25.3542 20.9485 21.6166 24.982 21.6166 29.8884C21.6166 30.0338 21.6198 30.1785 21.6263 30.3223C21.513 30.3056 21.397 30.2969 21.279 30.2969L19.7797 30.297C19.1521 29.205 17.9745 28.4701 16.6247 28.4701H15.4014C14.4552 28.4701 13.5934 28.8314 12.9464 29.4237C12.8934 29.3745 12.8416 29.3239 12.791 29.2719C11.8978 28.3542 11.5 27.113 11.5 25.7999C11.5 24.3869 12.0173 23.0471 13.0189 22.124C13.7593 21.4416 14.7126 21.0354 15.7921 20.9711C16.1894 18.1153 18.574 15.3799 21.9301 15.3799C24.6 15.3799 26.599 16.8795 27.6759 19.1092C28.5332 19.1903 29.3442 19.4901 30.0511 19.9625C30.0608 20.141 30.0903 20.3142 30.1375 20.4799Z" fill="url(#paint1_linear_3370_19133)"/>
<path fill-rule="evenodd" clip-rule="evenodd" d="M31.7347 17.1278C30.6626 17.1225 29.7951 16.2517 29.7951 15.1783V13.9551C29.7951 12.8784 30.668 12.0056 31.7446 12.0056H32.9625C34.0391 12.0056 34.912 12.8784 34.912 13.9551V15.1783C34.912 16.214 34.1044 17.061 33.0847 17.1241L33.0848 19.8315C33.0848 20.2043 32.7826 20.5065 32.4098 20.5065C32.037 20.5065 31.7348 20.2043 31.7348 19.8315L31.7347 17.1278ZM31.7446 15.4403C31.5999 15.4403 31.4826 15.323 31.4826 15.1783V13.9551C31.4826 13.8104 31.5999 13.6931 31.7446 13.6931L32.9625 13.6931C33.1072 13.6931 33.2245 13.8104 33.2245 13.9551V15.1783C33.2245 15.323 33.1072 15.4403 32.9625 15.4403H31.7446Z" fill="url(#paint2_linear_3370_19133)"/>
<path fill-rule="evenodd" clip-rule="evenodd" d="M18.5744 33.3356C18.5692 34.4078 17.6984 35.2755 16.6249 35.2755H15.4017C14.325 35.2755 13.4521 34.4027 13.4521 33.326V32.1082C13.4521 31.0315 14.325 30.1587 15.4017 30.1587H16.6249C17.6604 30.1587 18.5073 30.966 18.5706 31.9856L21.2793 31.9855C21.6521 31.9855 21.9543 32.2877 21.9543 32.6605C21.9543 33.0333 21.6521 33.3355 21.2793 33.3355L18.5744 33.3356ZM16.8869 33.326C16.8869 33.4707 16.7696 33.588 16.6249 33.588H15.4017C15.257 33.588 15.1396 33.4707 15.1396 33.326V32.1082C15.1396 31.9635 15.257 31.8462 15.4017 31.8462H16.6249C16.7696 31.8462 16.8869 31.9635 16.8869 32.1082L16.8869 33.326Z" fill="url(#paint3_linear_3370_19133)"/>
<path fill-rule="evenodd" clip-rule="evenodd" d="M31.0705 22.4595C26.9677 22.4595 23.6416 25.7855 23.6416 29.8884C23.6416 33.9913 26.9677 37.3174 31.0705 37.3174C35.1734 37.3174 38.4995 33.9913 38.4995 29.8884C38.4995 25.7855 35.1734 22.4595 31.0705 22.4595ZM29.2504 24.7987C27.9242 25.273 26.8375 26.2509 26.2207 27.502C26.9117 27.6161 27.558 27.7077 28.1792 27.7766C28.3137 27.0552 28.505 26.3737 28.752 25.7729C28.8879 25.4424 29.0531 25.1091 29.2504 24.7987ZM25.6666 29.8884C25.6666 29.6307 25.6846 29.3771 25.7195 29.129C26.5178 29.2643 27.2606 29.3717 27.973 29.4512C27.9528 29.7677 27.9427 30.0859 27.9427 30.4027C27.9427 30.6375 27.9512 30.8726 27.9676 31.1066C27.2377 31.0303 26.4963 30.9215 25.7395 30.7779C25.6915 30.4885 25.6666 30.1914 25.6666 29.8884ZM26.3972 32.6036C26.9703 33.5878 27.8454 34.3746 28.8956 34.8368C28.8727 34.7869 28.8502 34.7365 28.8281 34.6857C28.5879 34.1335 28.3793 33.5009 28.225 32.8268C27.6236 32.7735 27.0149 32.6995 26.3972 32.6036ZM29.9914 32.9258C30.1018 33.3166 30.2323 33.6835 30.3755 34.0125C30.5779 34.4776 30.7916 34.8351 30.9837 35.0705C31.1983 34.826 31.4399 34.45 31.6688 33.9633C31.8222 33.6374 31.963 33.2766 32.0832 32.8939C31.392 32.9309 30.6956 32.9422 29.9914 32.9258ZM33.8778 32.7409C33.7036 33.446 33.4659 34.1075 33.1958 34.6817C33.1606 34.7566 33.1245 34.8305 33.0878 34.9033C34.2629 34.4302 35.2334 33.556 35.8299 32.4502C35.1797 32.5674 34.5299 32.6649 33.8778 32.7409ZM36.426 30.6154C35.667 30.7735 34.9122 30.9046 34.1568 31.0055C34.1726 30.7872 34.1809 30.5682 34.1809 30.3495C34.1809 30.0421 34.1733 29.7319 34.1579 29.4221C34.8655 29.3411 35.612 29.2353 36.4181 29.1047C36.4553 29.3606 36.4745 29.6223 36.4745 29.8884C36.4745 30.1349 36.458 30.3776 36.426 30.6154ZM32.4465 31.1807C31.5305 31.2455 30.6081 31.263 29.6708 31.2278C29.6444 30.9537 29.6302 30.6775 29.6302 30.4027C29.6302 30.1297 29.6386 29.8578 29.6551 29.5893C30.5927 29.6367 31.5109 29.631 32.4756 29.572C32.4875 29.8294 32.4934 30.0892 32.4934 30.3495C32.4934 30.6254 32.477 30.9038 32.4465 31.1807ZM33.9916 27.7429C34.5943 27.6735 35.2282 27.585 35.9082 27.4775C35.3323 26.3242 34.3563 25.4058 33.1619 24.9041C33.2909 25.1579 33.403 25.427 33.5008 25.703C33.7183 26.3173 33.8804 27.0123 33.9916 27.7429ZM29.8723 27.9104C30.6796 27.9465 31.4745 27.9404 32.3069 27.8918C32.2108 27.2935 32.078 26.7407 31.91 26.2662C31.7176 25.7227 31.4972 25.335 31.2778 25.0966L31.2615 25.0792C30.9754 25.2437 30.6345 25.6319 30.3128 26.4145C30.1329 26.8519 29.9844 27.3595 29.8723 27.9104Z" fill="url(#paint4_linear_3370_19133)"/>
</g>
<defs>
<linearGradient id="paint0_linear_3370_19133" x1="4.35287" y1="7.63022" x2="41.0645" y2="45.0617" gradientUnits="userSpaceOnUse">
<stop stop-color="white"/>
<stop offset="1" stop-color="#EAECEE"/>
</linearGradient>
<linearGradient id="paint1_linear_3370_19133" x1="14.2938" y1="17.6144" x2="24.5053" y2="30.3555" gradientUnits="userSpaceOnUse">
<stop stop-color="#0195FF"/>
<stop offset="0.991028" stop-color="#1147E9"/>
</linearGradient>
<linearGradient id="paint2_linear_3370_19133" x1="16.6638" y1="15.4968" x2="32.903" y2="30.4625" gradientUnits="userSpaceOnUse">
<stop stop-color="#00BBFF"/>
<stop offset="1" stop-color="#008BFF"/>
</linearGradient>
<linearGradient id="paint3_linear_3370_19133" x1="16.6638" y1="15.4968" x2="32.903" y2="30.4625" gradientUnits="userSpaceOnUse">
<stop stop-color="#00BBFF"/>
<stop offset="1" stop-color="#008BFF"/>
</linearGradient>
<linearGradient id="paint4_linear_3370_19133" x1="25.8382" y1="24.6454" x2="36.2364" y2="35.0884" gradientUnits="userSpaceOnUse">
<stop stop-color="#1348FF"/>
<stop offset="1" stop-color="#06238D"/>
</linearGradient>
<clipPath id="clip0_3370_19133">
<rect width="26.9995" height="27" fill="white" transform="translate(11.5 10.3174)"/>
</clipPath>
</defs>
</svg>
