<svg width="48" height="49" viewBox="0 0 48 49" fill="none" xmlns="http://www.w3.org/2000/svg">
<circle cx="24" cy="24.5469" r="23.5714" fill="url(#paint0_linear_3370_19141)" stroke="#D5DADD" stroke-width="0.857143"/>
<g clip-path="url(#clip0_3370_19141)">
<path d="M22.4311 12.5469C19.0749 12.5469 16.6904 15.2823 16.2931 18.1381C15.2135 18.2024 14.2603 18.6086 13.5199 19.291C12.5183 20.2141 12.001 21.5539 12.001 22.9669C12.001 24.28 12.3988 25.5212 13.2919 26.4389C14.1911 27.3628 15.4676 27.8308 16.9707 27.8308H18.7858C18.64 27.0331 18.8793 26.1795 19.5011 25.5682L23.2491 21.8836C24.246 20.9036 25.8486 20.9172 26.8287 21.9141C27.4858 22.5826 27.6962 23.5234 27.4629 24.3662L27.8281 24.6201C28.6801 23.9341 29.564 23.6541 29.8946 23.5576C30.4847 23.3855 31.125 23.3477 31.5941 23.3498C31.6131 23.3498 31.6329 23.3518 31.6528 23.3537C31.7181 23.3601 31.7832 23.3664 31.8127 23.3069C31.6203 22.4891 31.8389 21.5935 32.4714 20.9502C32.6104 20.8088 32.7619 20.6872 32.9225 20.5854C32.3505 18.2024 30.4227 16.4886 28.1769 16.2762C27.1 14.0465 25.101 12.5469 22.4311 12.5469Z" fill="url(#paint1_linear_3370_19141)"/>
<path fill-rule="evenodd" clip-rule="evenodd" d="M33.8061 22.2496C34.1328 21.9172 34.667 21.9127 34.9993 22.2394L38.7472 25.924C39.0795 26.2507 39.0841 26.7849 38.7574 27.1172C38.4307 27.4495 37.8965 27.454 37.5642 27.1274L33.8162 23.4428C33.4839 23.1161 33.4794 22.5819 33.8061 22.2496ZM25.7566 23.2135C26.0833 23.5458 26.0788 24.08 25.7465 24.4067L21.9985 28.0913C21.6662 28.418 21.132 28.4134 20.8053 28.0811C20.4786 27.7488 20.4832 27.2146 20.8155 26.8879L24.5634 23.2033C24.8957 22.8766 25.43 22.8812 25.7566 23.2135ZM36.5546 30.6686L36.5557 30.6659L36.5583 30.6592C36.6603 30.3985 36.7242 30.1211 36.7567 29.8435C36.8093 29.3942 36.796 28.7188 36.3954 28.0961C36.2136 27.8135 35.9335 27.5152 35.6537 27.2481C35.3627 26.9702 35.0271 26.6841 34.6974 26.4234C34.3678 26.1627 34.0341 25.9194 33.7443 25.7287C33.484 25.5574 33.2067 25.3761 32.9037 25.2913C32.5589 25.1949 32.1167 25.1553 31.7181 25.1535C31.3211 25.1518 30.865 25.187 30.4986 25.2939C29.9528 25.4531 28.0353 26.1139 27.7941 28.3206C27.7222 28.9781 27.7466 29.5373 27.769 30.0523C27.7733 30.1505 27.7775 30.2471 27.781 30.3425C27.8026 30.9405 27.8029 31.583 27.6484 32.4973C27.6101 32.7243 27.6662 32.9571 27.8036 33.1417C27.9411 33.3264 28.148 33.4468 28.3765 33.4752C29.0314 33.5565 29.6289 33.5065 30.117 33.198C30.6143 32.8836 30.8301 32.4058 30.9534 32.0375C31.0707 31.6868 31.1422 31.3227 31.2461 31.0065C31.3452 30.7047 31.47 30.4449 31.6735 30.2158C32.1894 29.6351 33.0221 29.5307 33.4807 29.8257C33.9099 30.1018 34.3621 30.4056 34.7088 30.6417C34.9031 30.774 35.0966 30.9074 35.2898 31.0414C35.4997 31.1879 35.7653 31.2316 36.0109 31.1595C36.2554 31.0877 36.4581 30.9043 36.5546 30.6686Z" fill="url(#paint2_linear_3370_19141)"/>
<path d="M25.6056 29.0049C25.9781 28.726 26.0545 28.198 25.7761 27.8249C25.4974 27.4515 24.9687 27.3747 24.5952 27.6534L24.5925 27.6554L24.5887 27.6583C24.4476 27.7659 24.3105 27.8816 24.098 28.0907C23.8275 28.3569 23.4764 28.7482 23.1677 29.243C22.5464 30.239 22.0601 31.733 22.8691 33.4121C23.355 34.4204 24.1855 35.2963 24.9656 36.0821C25.7377 36.8598 26.545 37.5761 27.2977 38.3425C27.3257 38.371 27.3557 38.3975 27.3874 38.4218C28.2373 39.0712 29.3021 39.0083 30.0094 38.4447C30.2497 38.2532 30.4482 38.0034 30.5768 37.7097C31.0855 37.7834 31.5963 37.6661 32.0234 37.372C32.3604 37.14 32.6279 36.8041 32.7706 36.4013C33.4735 36.6215 34.1793 36.5558 34.7689 36.0841C35.5144 35.4878 35.7575 34.5547 35.4501 33.6592C35.1815 32.8765 34.5467 32.1163 33.777 31.4265C33.43 31.1155 32.8966 31.1446 32.5856 31.4916C32.2746 31.8387 32.3037 32.3721 32.6508 32.6831C33.347 33.3071 33.7255 33.8327 33.854 34.2071C33.9337 34.4393 33.9103 34.61 33.7148 34.7664C33.6431 34.8237 33.5649 34.8613 33.3663 34.8159C33.1212 34.7598 32.7563 34.5834 32.2393 34.1998C31.9058 33.9524 31.4419 33.9844 31.1455 34.2752C30.8492 34.5661 30.8085 35.0293 31.0496 35.3673C31.2011 35.5798 31.2032 35.7225 31.1923 35.7893C31.1678 35.9396 31.0097 36.0749 30.7975 36.0361C30.6982 36.0179 30.5303 35.9488 30.3444 35.7087C30.0713 35.3563 29.5712 35.2771 29.2026 35.528C28.834 35.7789 28.7243 36.2732 28.952 36.6565C29.0366 36.7989 29.1113 37.0026 28.9578 37.125C28.8603 37.2026 28.6687 37.2533 28.4513 37.109C28.0793 36.7324 27.6927 36.3649 27.3158 36.0074L27.2714 35.9652C26.8895 35.603 26.5182 35.2508 26.1632 34.8932C25.4292 34.1539 24.8069 33.4322 24.3801 32.6603C23.9192 31.6857 24.1677 30.8283 24.5995 30.1361C24.8648 29.7108 25.2094 29.315 25.6056 29.0049Z" fill="url(#paint3_linear_3370_19141)"/>
</g>
<defs>
<linearGradient id="paint0_linear_3370_19141" x1="4.35287" y1="7.35972" x2="41.0645" y2="44.7912" gradientUnits="userSpaceOnUse">
<stop stop-color="white"/>
<stop offset="1" stop-color="#EAECEE"/>
</linearGradient>
<linearGradient id="paint1_linear_3370_19141" x1="15.1372" y1="14.8325" x2="25.3312" y2="28.7915" gradientUnits="userSpaceOnUse">
<stop stop-color="#0195FF"/>
<stop offset="0.991028" stop-color="#1147E9"/>
</linearGradient>
<linearGradient id="paint2_linear_3370_19141" x1="23.2889" y1="24.4823" x2="35.0603" y2="37.3861" gradientUnits="userSpaceOnUse">
<stop stop-color="#1348FF"/>
<stop offset="1" stop-color="#06238D"/>
</linearGradient>
<linearGradient id="paint3_linear_3370_19141" x1="23.2889" y1="24.4823" x2="35.0603" y2="37.3861" gradientUnits="userSpaceOnUse">
<stop stop-color="#1348FF"/>
<stop offset="1" stop-color="#06238D"/>
</linearGradient>
<clipPath id="clip0_3370_19141">
<rect width="26.9995" height="26.3415" fill="white" transform="translate(12 12.5469)"/>
</clipPath>
</defs>
</svg>
