<svg width="48" height="49" viewBox="0 0 48 49" fill="none" xmlns="http://www.w3.org/2000/svg">
<circle cx="24" cy="24.5012" r="23.5714" fill="url(#paint0_linear_3370_19124)" stroke="#D5DADD" stroke-width="0.857143"/>
<g clip-path="url(#clip0_3370_19124)">
<path d="M22.4306 13.5012C19.0744 13.5012 16.6899 16.2366 16.2926 19.0924C15.2131 19.1567 14.2598 19.563 13.5194 20.2453C12.5178 21.1684 12.0005 22.5083 12.0005 23.9212C12.0005 25.2344 12.3983 26.4756 13.2914 27.3932C14.1906 28.3171 15.4671 28.7851 16.9702 28.7851H20.0691L22.0673 26.7868C22.4955 26.3586 23.0389 26.1159 23.5977 26.0587C23.7087 25.643 23.9272 25.2501 24.2533 24.924C24.815 24.3622 25.5752 24.1197 26.3083 24.1965C26.3311 22.8182 27.4555 21.708 28.8391 21.708C30.2228 21.708 31.3472 22.8182 31.37 24.1965C31.8996 24.141 32.4434 24.2522 32.9162 24.53C33.0321 24.057 33.0942 23.5504 33.0942 23.0132C33.0942 19.887 30.8628 17.4846 28.1764 17.2305C27.0995 15.0009 25.1005 13.5012 22.4306 13.5012Z" fill="url(#paint1_linear_3370_19124)"/>
<path fill-rule="evenodd" clip-rule="evenodd" d="M28.6905 23.3955C29.1565 23.3955 29.5342 23.7733 29.5342 24.2393V27.4729L30.8899 26.1172C31.2194 25.7877 31.7537 25.7877 32.0832 26.1173C32.4127 26.4468 32.4127 26.981 32.0832 27.3105L29.2871 30.1065C28.9576 30.436 28.4234 30.436 28.0939 30.1065L25.2978 27.3105C24.9682 26.981 24.9682 26.4468 25.2977 26.1173C25.6272 25.7878 26.1615 25.7877 26.491 26.1172L27.8467 27.4729V24.2393C27.8467 23.7733 28.2245 23.3955 28.6905 23.3955ZM33.0762 27.98C33.4057 27.6505 33.9399 27.6505 34.2694 27.98L37.0654 30.7761C37.3949 31.1056 37.3949 31.6398 37.0654 31.9693L34.2694 34.7655C33.9399 35.095 33.4057 35.095 33.0762 34.7655C32.7467 34.436 32.7466 33.9017 33.0761 33.5722L34.4318 32.2165H31.1982C30.7322 32.2165 30.3544 31.8387 30.3544 31.3727C30.3544 30.9067 30.7322 30.529 31.1982 30.529H34.4318L33.0761 29.1733C32.7466 28.8438 32.7466 28.3095 33.0762 27.98ZM24.4534 27.981C24.7829 28.3105 24.7829 28.8447 24.4534 29.1742L23.0977 30.53H26.3314C26.7974 30.53 27.1752 30.9077 27.1752 31.3737C27.1752 31.8397 26.7974 32.2175 26.3314 32.2175H23.0978L24.4534 33.5732C24.7829 33.9027 24.7829 34.4369 24.4534 34.7664C24.1239 35.0959 23.5897 35.0959 23.2602 34.7664L20.4642 31.9703C20.1347 31.6408 20.1347 31.1066 20.4642 30.7771L23.2602 27.981C23.5897 27.6515 24.1239 27.6515 24.4534 27.981ZM28.0942 32.5378C28.4237 32.2083 28.9579 32.2083 29.2874 32.5378L32.0835 35.3338C32.413 35.6633 32.413 36.1975 32.0835 36.527C31.754 36.8565 31.2198 36.8565 30.8903 36.527L29.5345 35.1713V38.405C29.5345 38.871 29.1568 39.2488 28.6908 39.2488C28.2248 39.2488 27.847 38.871 27.847 38.405V35.1714L26.4913 36.527C26.1618 36.8565 25.6276 36.8565 25.2981 36.527C24.9686 36.1975 24.9686 35.6633 25.2981 35.3338L28.0942 32.5378Z" fill="url(#paint2_linear_3370_19124)"/>
</g>
<defs>
<linearGradient id="paint0_linear_3370_19124" x1="4.35287" y1="7.31406" x2="41.0645" y2="44.7455" gradientUnits="userSpaceOnUse">
<stop stop-color="white"/>
<stop offset="1" stop-color="#EAECEE"/>
</linearGradient>
<linearGradient id="paint1_linear_3370_19124" x1="15.1625" y1="15.7868" x2="25.3308" y2="29.8252" gradientUnits="userSpaceOnUse">
<stop stop-color="#0195FF"/>
<stop offset="0.991028" stop-color="#1147E9"/>
</linearGradient>
<linearGradient id="paint2_linear_3370_19124" x1="22.7445" y1="25.7279" x2="33.8042" y2="37.7056" gradientUnits="userSpaceOnUse">
<stop stop-color="#1348FF"/>
<stop offset="1" stop-color="#06238D"/>
</linearGradient>
<clipPath id="clip0_3370_19124">
<rect width="26.9996" height="27" fill="white" transform="translate(12 13.5012)"/>
</clipPath>
</defs>
</svg>
