<svg width="48" height="49" viewBox="0 0 48 49" fill="none" xmlns="http://www.w3.org/2000/svg">
<circle cx="24" cy="24.25" r="23.5714" fill="url(#paint0_linear_3370_19122)" stroke="#D5DADD" stroke-width="0.857143"/>
<g clip-path="url(#clip0_3370_19122)">
<path d="M22.4306 13.25C19.0744 13.25 16.6899 15.9854 16.2926 18.8412C15.2131 18.9055 14.2598 19.3117 13.5194 19.9941C12.5178 20.9172 12.0005 22.257 12.0005 23.67C12.0005 24.9831 12.3983 26.2243 13.2914 27.142C14.1906 28.0659 15.4671 28.5339 16.9702 28.5339H21.975V27.5262C21.975 25.5175 23.6034 23.8892 25.612 23.8892H26.8298C27.7117 23.8892 28.5192 24.2026 29.1481 24.7238C30.0144 24.2667 31.0642 23.8745 32.3108 23.6512C32.4788 23.1727 32.744 22.7399 33.0828 22.3766C32.9082 19.4401 30.7513 17.2228 28.1764 16.9793C27.0995 14.7496 25.1005 13.25 22.4306 13.25Z" fill="url(#paint1_linear_3370_19122)"/>
<path fill-rule="evenodd" clip-rule="evenodd" d="M36.9612 22.907C38.0379 22.907 38.9107 23.7798 38.9107 24.8565V26.0797C38.9107 27.1564 38.0379 28.0292 36.9612 28.0292H36.3821C36.3659 30.4539 35.7464 31.9444 35.0621 32.8675C34.981 32.9769 34.8998 33.0772 34.8196 33.1693C35.1894 33.5241 35.4195 34.0232 35.4195 34.5761V35.7993C35.4195 36.876 34.5467 37.7488 33.47 37.7488H32.2522C31.4898 37.7488 30.8296 37.3112 30.5092 36.6734C30.3316 36.6381 30.1027 36.5831 29.841 36.5021C29.3175 36.3399 28.645 36.0679 27.9874 35.6266C26.6869 34.7538 25.4619 33.2193 25.5654 30.6983C24.5103 30.6735 23.6626 29.8105 23.6626 28.7494V27.5262C23.6626 26.4495 24.5354 25.5767 25.6121 25.5767L26.8299 25.5767C27.7268 25.5767 28.4822 26.1823 28.7095 27.007C28.8336 26.9086 28.9674 26.809 29.1112 26.7095C30.142 25.9961 31.6707 25.303 33.7939 25.1599V24.8565C33.7939 23.7798 34.6667 22.907 35.7434 22.907H36.9612ZM30.3027 35.2208V34.5761C30.3027 33.7638 30.7995 33.0676 31.5058 32.7746C31.3398 32.2376 31.0775 31.7768 30.7008 31.3838C30.1875 30.8484 29.4162 30.3917 28.2644 30.0696C27.9233 30.44 27.4405 30.678 26.9021 30.6976C26.7984 32.6905 27.719 33.8189 28.7142 34.4868C29.2364 34.8373 29.7832 35.0606 30.2196 35.1958C30.2479 35.2045 30.2756 35.2129 30.3027 35.2208ZM33.4437 32.6266H32.8503C32.6392 31.811 32.2598 31.067 31.6506 30.4316C30.9579 29.709 30.009 29.1695 28.7791 28.8025C28.7959 28.7831 28.8135 28.763 28.8322 28.7422C29.047 28.5021 29.3853 28.1733 29.8644 27.8417C30.705 27.26 31.9946 26.6584 33.845 26.5252C33.9931 27.1586 34.4499 27.6731 35.048 27.9016L35.0477 27.9219C35.0477 30.1561 34.4888 31.3738 33.9965 32.0378C33.8014 32.301 33.6078 32.4895 33.4437 32.6266ZM37.2232 24.8565C37.2232 24.7118 37.1059 24.5945 36.9612 24.5945L35.7434 24.5945C35.5987 24.5945 35.4814 24.7118 35.4814 24.8565V26.0797C35.4814 26.2244 35.5987 26.3417 35.7434 26.3417H36.9612C37.1059 26.3417 37.2232 26.2244 37.2232 26.0797V24.8565ZM26.8299 27.2642C26.9746 27.2642 27.0919 27.3815 27.0919 27.5262V28.7494C27.0919 28.8941 26.9746 29.0114 26.8299 29.0114H25.6121C25.4674 29.0114 25.3501 28.8941 25.3501 28.7494L25.3501 27.5262C25.3501 27.3815 25.4674 27.2642 25.6121 27.2642H26.8299ZM33.47 34.3141C33.6147 34.3141 33.732 34.4314 33.732 34.5761V35.7993C33.732 35.944 33.6147 36.0613 33.47 36.0613H32.2522C32.1075 36.0613 31.9902 35.944 31.9902 35.7993V34.5761C31.9902 34.4314 32.1075 34.3141 32.2522 34.3141H33.47Z" fill="url(#paint2_linear_3370_19122)"/>
</g>
<defs>
<linearGradient id="paint0_linear_3370_19122" x1="4.35287" y1="7.06284" x2="41.0645" y2="44.4943" gradientUnits="userSpaceOnUse">
<stop stop-color="white"/>
<stop offset="1" stop-color="#EAECEE"/>
</linearGradient>
<linearGradient id="paint1_linear_3370_19122" x1="15.1608" y1="15.5356" x2="25.3308" y2="29.5688" gradientUnits="userSpaceOnUse">
<stop stop-color="#0195FF"/>
<stop offset="0.991028" stop-color="#1147E9"/>
</linearGradient>
<linearGradient id="paint2_linear_3370_19122" x1="25.9169" y1="25.0905" x2="36.2989" y2="35.8027" gradientUnits="userSpaceOnUse">
<stop stop-color="#1348FF"/>
<stop offset="1" stop-color="#06238D"/>
</linearGradient>
<clipPath id="clip0_3370_19122">
<rect width="26.9995" height="27" fill="white" transform="translate(12 13.25)"/>
</clipPath>
</defs>
</svg>
