<svg width="48" height="48" viewBox="0 0 48 48" fill="none" xmlns="http://www.w3.org/2000/svg">
<circle cx="24" cy="24" r="23.5714" fill="url(#paint0_linear_3370_19109)" stroke="#D5DADD" stroke-width="0.857143"/>
<g clip-path="url(#clip0_3370_19109)">
<path d="M34.5732 36.1626C34.1776 36.5649 33.7868 37.1886 34.1824 37.5909C34.5779 37.9932 35.0268 38.0214 35.4223 37.619L38.4593 34.5301C38.8548 34.1278 38.8548 33.476 38.4593 33.0737L35.4223 29.9848C35.0268 29.5825 34.562 29.415 34.1664 29.8173C33.6718 30.2036 34.3604 31.0389 34.756 31.4412L35.8898 32.7948L31.3383 32.7994V27.4654C31.3383 26.6151 30.6549 25.9258 29.8118 25.9258C29.1495 25.9258 28.5627 26.3566 28.3592 26.9924L27.1155 30.8782C27.0453 31.0822 26.9586 31.3737 26.8554 31.7525L26.6573 32.5019C26.6284 32.377 26.5665 32.1231 26.4715 31.74C26.3766 31.357 26.294 31.0593 26.2238 30.847L24.9624 26.991C24.7545 26.3552 24.1656 25.9258 23.5019 25.9258C22.6525 25.9258 21.9639 26.6203 21.9639 27.477V33.8728C21.9639 34.3436 22.3423 34.7252 22.8091 34.7252C23.2758 34.7252 23.6542 34.3436 23.6542 33.8728V29.3919C23.6542 29.1129 23.6439 28.7736 23.6233 28.3739C23.6026 27.97 23.5903 27.7348 23.5861 27.6682L23.5737 27.4871C23.6357 27.6994 23.745 28.0783 23.9019 28.6237C24.0629 29.1649 24.1867 29.5626 24.2734 29.8165L25.6715 34.0148C25.8128 34.4393 26.2072 34.7252 26.6511 34.7252C27.095 34.7252 27.4893 34.4393 27.6307 34.0148L29.0287 29.8165C29.103 29.6 29.2042 29.2649 29.3321 28.8111C29.4642 28.3572 29.5509 28.0616 29.5922 27.9242C29.6706 27.637 29.7119 27.4912 29.716 27.4871C29.6935 27.5592 29.7036 27.7181 29.6789 28.1178C29.6582 28.5175 29.6479 28.9422 29.6479 29.3919L29.6464 32.8011L29.646 33.6023C29.6456 34.1548 30.09 34.6025 30.6378 34.6019L36.0015 34.5962L34.5732 36.1626Z" fill="url(#paint1_linear_3370_19109)"/>
<path d="M16.2929 18.3107C16.6902 15.5909 19.0747 12.9858 22.4308 12.9858C25.1008 12.9858 27.0997 14.414 28.1766 16.5375C30.1778 16.7177 31.9265 18.0334 32.6884 19.9235C32.5955 20.187 32.5449 20.4705 32.5449 20.7658V20.935H32.3759C30.978 20.935 29.8447 22.0683 29.8447 23.4662C29.8447 23.7305 29.8852 23.9852 29.9603 24.2247C29.913 24.2226 29.8653 24.2216 29.8174 24.2216C28.4155 24.2216 27.1865 25.1328 26.7624 26.4577L26.6996 26.654L26.6315 26.446C26.1998 25.1262 24.9711 24.2216 23.572 24.2216C21.7798 24.2216 20.3517 25.683 20.3517 27.455V27.5416H16.9704C15.4674 27.5416 14.1908 27.0959 13.2917 26.2161C12.3986 25.3421 12.0007 24.16 12.0007 22.9095C12.0007 21.5638 12.5181 20.2878 13.5197 19.4087C14.26 18.7588 15.2133 18.3719 16.2929 18.3107Z" fill="url(#paint2_linear_3370_19109)"/>
<path d="M33.0673 22.6225C33.009 23.2341 32.8584 23.7985 32.6323 24.31H32.3759C31.91 24.31 31.5322 23.9322 31.5322 23.4662C31.5322 23.0002 31.91 22.6225 32.3759 22.6225H33.0673Z" fill="url(#paint3_linear_3370_19109)"/>
<path d="M35.9199 20.762C35.9199 20.296 35.5422 19.9182 35.0762 19.9182C34.6102 19.9182 34.2324 20.296 34.2324 20.762V22.6187H32.376C31.91 22.6187 31.5322 22.9964 31.5322 23.4624C31.5322 23.9284 31.91 24.3061 32.376 24.3061H34.2324V26.162C34.2324 26.6279 34.6102 27.0057 35.0762 27.0057C35.5422 27.0057 35.9199 26.6279 35.9199 26.162V24.3061H37.7758C38.2418 24.3061 38.6196 23.9284 38.6196 23.4624C38.6196 22.9964 38.2418 22.6187 37.7758 22.6187H35.9199V20.762Z" fill="url(#paint4_linear_3370_19109)"/>
</g>
<defs>
<linearGradient id="paint0_linear_3370_19109" x1="4.35287" y1="6.81284" x2="41.0645" y2="44.2443" gradientUnits="userSpaceOnUse">
<stop stop-color="white"/>
<stop offset="1" stop-color="#EAECEE"/>
</linearGradient>
<linearGradient id="paint1_linear_3370_19109" x1="24.4465" y1="27.6885" x2="32.3644" y2="38.8335" gradientUnits="userSpaceOnUse">
<stop stop-color="#1348FF"/>
<stop offset="1" stop-color="#06238D"/>
</linearGradient>
<linearGradient id="paint2_linear_3370_19109" x1="15.1587" y1="15.1626" x2="24.6905" y2="28.9627" gradientUnits="userSpaceOnUse">
<stop stop-color="#0195FF"/>
<stop offset="0.991028" stop-color="#1147E9"/>
</linearGradient>
<linearGradient id="paint3_linear_3370_19109" x1="15.1587" y1="15.1626" x2="24.6905" y2="28.9627" gradientUnits="userSpaceOnUse">
<stop stop-color="#0195FF"/>
<stop offset="0.991028" stop-color="#1147E9"/>
</linearGradient>
<linearGradient id="paint4_linear_3370_19109" x1="32.5929" y1="20.9816" x2="37.5555" y2="25.9406" gradientUnits="userSpaceOnUse">
<stop stop-color="#00BBFF"/>
<stop offset="1" stop-color="#008BFF"/>
</linearGradient>
<clipPath id="clip0_3370_19109">
<rect width="26.9994" height="27" fill="white" transform="translate(12 13)"/>
</clipPath>
</defs>
</svg>
