<svg width="48" height="49" viewBox="0 0 48 49" fill="none" xmlns="http://www.w3.org/2000/svg">
<circle cx="24" cy="24.4558" r="23.5714" fill="url(#paint0_linear_3370_19131)" stroke="#D5DADD" stroke-width="0.857143"/>
<g clip-path="url(#clip0_3370_19131)">
<path d="M30.6981 21.0985C28.3832 21.8072 26.6363 24.0326 26.6363 26.5269C26.6363 28.1827 27.4314 29.2837 27.9137 29.9516L27.9767 30.0389L27.9852 30.0506C28.0301 30.1124 28.0722 30.1707 28.1116 30.2259C27.7745 30.0407 27.3874 29.9354 26.9757 29.9354L25.4763 29.9354C24.8487 28.8434 23.6711 28.1085 22.3213 28.1085H21.098C19.3121 28.1085 17.8268 29.3958 17.5194 31.0932H16.4697C14.9666 31.0932 13.6901 30.6252 12.791 29.7013C11.8978 28.7837 11.5 27.5425 11.5 26.2294C11.5 24.8164 12.0173 23.4765 13.0189 22.5534C13.7593 21.8711 14.7126 21.4648 15.7921 21.4005C16.1894 18.5447 18.574 15.8093 21.9301 15.8093C24.6 15.8093 26.599 17.309 27.6759 19.5386C28.6482 19.6306 29.5609 20.004 30.3298 20.5913C30.4299 20.7767 30.5541 20.9471 30.6981 21.0985Z" fill="url(#paint1_linear_3370_19131)"/>
<path d="M30.4525 31.9283C30.5539 32.0398 30.6892 32.0992 30.8313 32.0992L33.8756 32.0398C34.1732 32.0323 34.41 31.7723 34.41 31.4454C34.41 30.427 34.8439 29.8411 35.3403 29.1706L35.3503 29.1571C35.8509 28.4885 36.4124 27.7307 36.4124 26.5494C36.4124 24.3428 34.5385 22.4111 32.367 22.4111C30.1954 22.4111 28.2944 24.3354 28.2944 26.5271C28.2944 27.6802 28.8362 28.4318 29.3171 29.0989C29.3258 29.1109 29.3344 29.1229 29.343 29.1348L29.3479 29.1416C29.8532 29.8371 30.2901 30.4384 30.2901 31.5048C30.2901 31.6609 30.351 31.8169 30.4525 31.9283Z" fill="url(#paint2_linear_3370_19131)"/>
<path d="M30.7564 33.2193C30.5076 33.3568 30.3365 33.6183 30.3263 33.9206L30.3259 33.9493C30.3259 34.4093 30.6982 34.7823 31.1575 34.7823H33.813C34.2723 34.7823 34.6446 34.4093 34.6446 33.9493C34.6446 33.9223 34.6434 33.8957 34.6409 33.8694C34.6181 33.6291 34.4934 33.4186 34.3105 33.2817L34.3035 33.2764C34.166 33.1757 33.9964 33.1162 33.813 33.1162H31.1575C31.0211 33.1162 30.8923 33.1491 30.7788 33.2074L30.7564 33.2193Z" fill="url(#paint3_linear_3370_19131)"/>
<path fill-rule="evenodd" clip-rule="evenodd" d="M31.7346 16.7663C30.6625 16.7609 29.795 15.8901 29.795 14.8168V13.5935C29.795 12.5169 30.6678 11.644 31.7445 11.644H32.9623C34.039 11.644 34.9118 12.5169 34.9118 13.5935V14.8168C34.9118 15.8524 34.1043 16.6994 33.0846 16.7625L33.0846 19.4699C33.0846 19.8427 32.7824 20.1449 32.4096 20.1449C32.0369 20.1449 31.7346 19.8427 31.7346 19.47L31.7346 16.7663ZM31.7445 15.0788C31.5998 15.0788 31.4825 14.9615 31.4825 14.8168V13.5935C31.4825 13.4488 31.5998 13.3315 31.7445 13.3315L32.9623 13.3315C33.107 13.3315 33.2243 13.4488 33.2243 13.5935V14.8168C33.2243 14.9615 33.107 15.0788 32.9623 15.0788H31.7445Z" fill="url(#paint4_linear_3370_19131)"/>
<path fill-rule="evenodd" clip-rule="evenodd" d="M24.2709 32.974C24.2657 34.0463 23.3949 34.9139 22.3214 34.9139H21.0982C20.0215 34.9139 19.1487 34.0411 19.1487 32.9644V31.7466C19.1487 30.6699 20.0215 29.7971 21.0982 29.7971H22.3214C23.3569 29.7971 24.2038 30.6044 24.2671 31.624L26.9758 31.6239C27.3486 31.6239 27.6508 31.9261 27.6508 32.2989C27.6508 32.6717 27.3486 32.9739 26.9758 32.9739L24.2709 32.974ZM22.5834 32.9644C22.5834 33.1091 22.4661 33.2264 22.3214 33.2264H21.0982C20.9535 33.2264 20.8362 33.1091 20.8362 32.9644V31.7466C20.8362 31.6019 20.9535 31.4846 21.0982 31.4846H22.3214C22.4661 31.4846 22.5834 31.6019 22.5834 31.7466L22.5834 32.9644Z" fill="url(#paint5_linear_3370_19131)"/>
</g>
<defs>
<linearGradient id="paint0_linear_3370_19131" x1="4.35287" y1="7.26865" x2="41.0645" y2="44.7001" gradientUnits="userSpaceOnUse">
<stop stop-color="white"/>
<stop offset="1" stop-color="#EAECEE"/>
</linearGradient>
<linearGradient id="paint1_linear_3370_19131" x1="14.3779" y1="18.0949" x2="24.8065" y2="31.1989" gradientUnits="userSpaceOnUse">
<stop stop-color="#0195FF"/>
<stop offset="0.991028" stop-color="#1147E9"/>
</linearGradient>
<linearGradient id="paint2_linear_3370_19131" x1="29.4946" y1="24.2312" x2="37.4508" y2="29.4746" gradientUnits="userSpaceOnUse">
<stop stop-color="#1348FF"/>
<stop offset="1" stop-color="#06238D"/>
</linearGradient>
<linearGradient id="paint3_linear_3370_19131" x1="29.4946" y1="24.2312" x2="37.4508" y2="29.4746" gradientUnits="userSpaceOnUse">
<stop stop-color="#1348FF"/>
<stop offset="1" stop-color="#06238D"/>
</linearGradient>
<linearGradient id="paint4_linear_3370_19131" x1="21.5078" y1="15.1353" x2="36.635" y2="25.3754" gradientUnits="userSpaceOnUse">
<stop stop-color="#00BBFF"/>
<stop offset="1" stop-color="#008BFF"/>
</linearGradient>
<linearGradient id="paint5_linear_3370_19131" x1="21.5078" y1="15.1353" x2="36.635" y2="25.3754" gradientUnits="userSpaceOnUse">
<stop stop-color="#00BBFF"/>
<stop offset="1" stop-color="#008BFF"/>
</linearGradient>
<clipPath id="clip0_3370_19131">
<rect width="26.9995" height="27" fill="white" transform="translate(11.5 9.95581)"/>
</clipPath>
</defs>
</svg>
