<svg width="48" height="48" viewBox="0 0 48 48" fill="none" xmlns="http://www.w3.org/2000/svg">
<g clip-path="url(#clip0_3169_9388)">
<circle cx="24" cy="24.249" r="23.5714" fill="url(#paint0_linear_3169_9388)" stroke="#D5DADD" stroke-width="0.857142"/>
<path fill-rule="evenodd" clip-rule="evenodd" d="M29.3123 13.5636C28.6322 12.8552 27.7821 12.501 26.762 12.501H17.113C16.0929 12.501 15.2286 12.8552 14.5202 13.5636C13.8401 14.2437 13.5 15.0939 13.5 16.114V30.6086C13.5 31.6288 13.8401 32.4789 14.5202 33.159C15.2286 33.8675 16.0929 34.2217 17.113 34.2217H23.2288C22.9938 33.3473 22.8685 32.4279 22.8685 31.4794C22.8685 31.1862 22.8805 30.8958 22.904 30.6086H18.3032C17.5098 30.6086 17.113 30.2119 17.113 29.4185C17.113 29.0501 17.2122 28.7525 17.4106 28.5258C17.6373 28.2991 17.9348 28.1858 18.3032 28.1858H23.3933C23.5275 27.7775 23.686 27.3802 23.867 26.9956H18.3032C17.5098 26.9956 17.113 26.5989 17.113 25.8054C17.113 25.437 17.2122 25.1395 17.4106 24.9128C17.6373 24.6861 17.9348 24.5728 18.3032 24.5728H25.4464C26.7379 23.0851 28.4394 21.9629 30.375 21.3821V16.114C30.375 15.0939 30.0208 14.2437 29.3123 13.5636ZM26.762 17.3467C26.762 16.9783 26.6486 16.6808 26.4219 16.4541C26.2235 16.2274 25.9402 16.114 25.5718 16.114C25.2034 16.114 24.9058 16.2274 24.6791 16.4541C24.4524 16.6808 24.3391 16.9783 24.3391 17.3467C24.3391 17.7151 24.4524 18.0126 24.6791 18.2393C24.9058 18.4377 25.2034 18.5369 25.5718 18.5369C26.3652 18.5369 26.762 18.1401 26.762 17.3467Z" fill="url(#paint1_linear_3169_9388)"/>
<path fill-rule="evenodd" clip-rule="evenodd" d="M25.5752 32.0649C25.7433 32.233 25.9714 32.3275 26.2092 32.3275C26.447 32.3275 26.6751 32.233 26.8433 32.0649C27.0114 31.8967 27.1059 31.6686 27.1059 31.4308C27.1037 30.6063 27.2653 29.7896 27.5812 29.028C27.8971 28.2665 28.3612 27.5752 28.9463 26.9944C30.1411 25.8521 31.7303 25.2147 33.3832 25.2147C35.0361 25.2147 36.6254 25.8521 37.8201 26.9944C37.9886 27.1629 38.2171 27.2575 38.4553 27.2575C38.6936 27.2575 38.9221 27.1629 39.0906 26.9944C39.2591 26.8259 39.3537 26.5974 39.3537 26.3591C39.3537 26.1209 39.2591 25.8924 39.0906 25.7239C37.552 24.2581 35.5083 23.4404 33.3832 23.4404C31.2581 23.4404 29.2145 24.2581 27.6758 25.7239C26.9245 26.4719 26.3289 27.3614 25.9233 28.3409C25.5176 29.3205 25.3101 30.3706 25.3125 31.4308C25.3125 31.6686 25.407 31.8967 25.5752 32.0649ZM30.2889 38.8903C31.2684 39.2959 32.3186 39.5035 33.3788 39.501C34.7946 39.4993 36.1852 39.1261 37.4117 38.4188C38.6382 37.7115 39.6576 36.6948 40.3683 35.4703C40.4306 35.3684 40.4719 35.255 40.4898 35.1369C40.5078 35.0188 40.5019 34.8983 40.4726 34.7825C40.4433 34.6667 40.3911 34.5579 40.3192 34.4626C40.2473 34.3672 40.157 34.2871 40.0537 34.2271C39.9505 34.1671 39.8362 34.1284 39.7177 34.1131C39.5992 34.0979 39.4789 34.1064 39.3638 34.1383C39.2487 34.1703 39.1411 34.2248 39.0474 34.2989C38.9536 34.373 38.8756 34.465 38.818 34.5696C38.5428 35.0445 38.2059 35.4809 37.8161 35.8672C36.6214 37.0095 35.0321 37.647 33.3792 37.647C31.7263 37.647 30.1371 37.0095 28.9423 35.8672C28.7739 35.6987 28.5453 35.6041 28.3071 35.6041C28.0688 35.6041 27.8403 35.6987 27.6718 35.8672C27.5033 36.0357 27.4087 36.2642 27.4087 36.5025C27.4087 36.7407 27.5033 36.9693 27.6718 37.1377C28.4199 37.889 29.3094 38.4847 30.2889 38.8903ZM33.3787 33.5654C33.0987 33.5651 32.8215 33.5096 32.5629 33.4022C32.3044 33.2948 32.0695 33.1375 31.8717 32.9392C31.674 32.741 31.5172 32.5058 31.4103 32.247C31.3035 31.9882 31.2486 31.7109 31.2489 31.4309C31.2489 31.3524 31.2644 31.2747 31.2944 31.2021C31.3245 31.1296 31.3685 31.0637 31.424 31.0082C31.4795 30.9527 31.5454 30.9087 31.618 30.8786C31.6905 30.8486 31.7682 30.8331 31.8467 30.8331C31.9252 30.8331 32.003 30.8486 32.0755 30.8786C32.148 30.9087 32.2139 30.9527 32.2694 31.0082C32.325 31.0637 32.369 31.1296 32.399 31.2021C32.4291 31.2747 32.4445 31.3524 32.4445 31.4309C32.4441 31.5539 32.468 31.6758 32.5147 31.7896C32.5615 31.9034 32.6303 32.0069 32.7171 32.0941C32.8964 32.2637 33.1339 32.3583 33.3807 32.3583C33.6275 32.3583 33.865 32.2637 34.0442 32.0941C34.1764 31.9631 34.2666 31.7959 34.3034 31.6135C34.3403 31.4312 34.3221 31.2421 34.2512 31.0701C34.1803 30.8981 34.0599 30.7511 33.9052 30.6478C33.7506 30.5444 33.5687 30.4893 33.3827 30.4896C33.2241 30.4896 33.0721 30.4266 32.96 30.3145C32.8479 30.2024 32.7849 30.0503 32.7849 29.8918C32.7849 29.7332 32.8479 29.5812 32.96 29.4691C33.0721 29.357 33.2241 29.294 33.3827 29.294C33.949 29.2946 34.4919 29.52 34.8922 29.9207C35.2924 30.3214 35.5172 30.8646 35.5172 31.4309C35.517 31.7115 35.4615 31.9893 35.3539 32.2484C35.2463 32.5076 35.0887 32.743 34.8902 32.9412C34.6916 33.1394 34.4559 33.2965 34.1965 33.4037C33.9372 33.5108 33.6593 33.5657 33.3787 33.5654ZM30.6035 35.5833C31.4249 36.1324 32.3908 36.4255 33.3788 36.4256C33.6166 36.4256 33.8447 36.3312 34.0129 36.163C34.181 35.9948 34.2755 35.7668 34.2755 35.5289C34.2755 35.2911 34.181 35.0631 34.0129 34.8949C33.8447 34.7267 33.6166 34.6323 33.3788 34.6323C32.7466 34.6301 32.1292 34.441 31.6043 34.0886C31.0794 33.7363 30.6705 33.2365 30.4291 32.6523C30.1877 32.068 30.1245 31.4254 30.2476 30.8053C30.3707 30.1852 30.6745 29.6154 31.1207 29.1676C31.7306 28.5855 32.5413 28.2607 33.3844 28.2607C34.2275 28.2607 35.0382 28.5855 35.6481 29.1676C35.9464 29.4639 36.1829 29.8165 36.3437 30.205C36.5045 30.5935 36.5864 31.01 36.5846 31.4305C36.5846 31.6683 36.6791 31.8964 36.8472 32.0645C37.0154 32.2327 37.2435 32.3272 37.4813 32.3272C37.7191 32.3272 37.9472 32.2327 38.1154 32.0645C38.2835 31.8964 38.378 31.6683 38.378 31.4305C38.3796 30.7738 38.2509 30.1234 37.9992 29.5169C37.7476 28.9104 37.3781 28.3598 36.9122 27.8971C35.9602 26.9899 34.6955 26.4838 33.3804 26.4838C32.0653 26.4838 30.8007 26.9899 29.8486 27.8971C29.1497 28.5955 28.6736 29.4855 28.4806 30.4545C28.2875 31.4235 28.3862 32.428 28.7641 33.3409C29.142 34.2538 29.7821 35.0342 30.6035 35.5833Z" fill="url(#paint2_linear_3169_9388)"/>
</g>
<defs>
<linearGradient id="paint0_linear_3169_9388" x1="4.35286" y1="7.06186" x2="41.0644" y2="44.4933" gradientUnits="userSpaceOnUse">
<stop stop-color="white"/>
<stop offset="1" stop-color="#EAECEE"/>
</linearGradient>
<linearGradient id="paint1_linear_3169_9388" x1="16.0296" y1="15.7492" x2="30.7676" y2="27.2032" gradientUnits="userSpaceOnUse">
<stop stop-color="#0195FF"/>
<stop offset="0.991028" stop-color="#1147E9"/>
</linearGradient>
<linearGradient id="paint2_linear_3169_9388" x1="27.5579" y1="25.8033" x2="38.7829" y2="36.4639" gradientUnits="userSpaceOnUse">
<stop stop-color="#1348FF"/>
<stop offset="1" stop-color="#06238D"/>
</linearGradient>
<clipPath id="clip0_3169_9388">
<rect width="48" height="48" fill="white" transform="translate(0 0.000976562)"/>
</clipPath>
</defs>
</svg>
