<svg width="48" height="48" viewBox="0 0 48 48" fill="none" xmlns="http://www.w3.org/2000/svg">
<g clip-path="url(#clip0_3173_15117)">
<circle cx="23.9997" cy="24.0007" r="22.5962" fill="url(#paint0_linear_3173_15117)" stroke="#D5DADD" stroke-width="0.821679"/>
<g clip-path="url(#clip1_3173_15117)">
<mask id="mask0_3173_15117" style="mask-type:alpha" maskUnits="userSpaceOnUse" x="6" y="5" width="36" height="36">
<path d="M19.2932 15.8212C20.2769 14.0988 22.0166 12.9565 24.0063 12.9565C25.9979 12.9565 27.7251 14.1011 28.7216 15.8263L34.901 26.5706C36.0908 28.6264 35.3884 31.2715 33.3241 32.4647C31.2742 33.6579 28.6365 32.9535 27.4467 30.8834L25.9702 28.3101C25.6261 27.6488 25.5401 26.93 25.6691 25.9956L26.2569 22.7466C26.3572 22.229 25.6548 21.9703 25.3968 22.4303L23.6909 25.4349L20.5515 30.8834C19.3616 32.9391 16.7383 33.6579 14.674 32.4647C12.6241 31.2715 11.9073 28.6407 13.0972 26.5706L19.2932 15.8212Z" fill="black"/>
</mask>
<g mask="url(#mask0_3173_15117)">
<g filter="url(#filter0_d_3173_15117)">
<path d="M41.0213 23.458C39.7478 26.457 34.0418 24.6217 37.3286 32.1296C35.3623 35.1515 32.4245 37.2218 29.6075 37.2218C24.625 37.2218 10.8007 32.001 16.0679 25.1007C21.335 18.2003 28.0703 11.0947 33.0528 11.0947C38.0353 11.0947 42.2949 20.459 41.0213 23.458Z" fill="url(#paint1_radial_3173_15117)"/>
</g>
<g filter="url(#filter1_d_3173_15117)">
<path d="M30.0359 22.2292C28.4999 25.8461 23.2801 23.6125 26.5668 31.1203C24.6006 34.1422 21.6628 36.2125 18.8458 36.2125C13.8633 36.2125 0.0390077 30.9917 5.30616 24.0914C10.5733 17.191 17.3086 10.0854 22.2911 10.0854C27.2736 10.0854 31.5719 18.6122 30.0359 22.2292Z" fill="url(#paint2_radial_3173_15117)"/>
</g>
<g filter="url(#filter2_d_3173_15117)">
<path d="M19.5435 36.6989C16.0462 38.6434 11.6348 37.3846 9.69032 33.8873C7.74584 30.39 9.00463 25.9786 12.5019 24.0341C14.6413 21.25 19.3419 20.0357 22.4365 23.1695C25.5311 26.3032 24.0694 34.1825 19.5435 36.6989Z" fill="url(#paint3_radial_3173_15117)"/>
</g>
</g>
</g>
</g>
<defs>
<filter id="filter0_d_3173_15117" x="13.5454" y="9.21143" width="30.394" height="30.1626" filterUnits="userSpaceOnUse" color-interpolation-filters="sRGB">
<feFlood flood-opacity="0" result="BackgroundImageFix"/>
<feColorMatrix in="SourceAlpha" type="matrix" values="0 0 0 0 0 0 0 0 0 0 0 0 0 0 0 0 0 0 127 0" result="hardAlpha"/>
<feOffset dx="0.672607" dy="0.134521"/>
<feGaussianBlur stdDeviation="1.00891"/>
<feComposite in2="hardAlpha" operator="out"/>
<feColorMatrix type="matrix" values="0 0 0 0 0 0 0 0 0 0 0 0 0 0 0 0 0 0 0.4 0"/>
<feBlend mode="normal" in2="BackgroundImageFix" result="effect1_dropShadow_3173_15117"/>
<feBlend mode="normal" in="SourceGraphic" in2="effect1_dropShadow_3173_15117" result="shape"/>
</filter>
<filter id="filter1_d_3173_15117" x="2.78369" y="8.20215" width="30.2588" height="30.1626" filterUnits="userSpaceOnUse" color-interpolation-filters="sRGB">
<feFlood flood-opacity="0" result="BackgroundImageFix"/>
<feColorMatrix in="SourceAlpha" type="matrix" values="0 0 0 0 0 0 0 0 0 0 0 0 0 0 0 0 0 0 127 0" result="hardAlpha"/>
<feOffset dx="0.672607" dy="0.134521"/>
<feGaussianBlur stdDeviation="1.00891"/>
<feComposite in2="hardAlpha" operator="out"/>
<feColorMatrix type="matrix" values="0 0 0 0 0 0 0 0 0 0 0 0 0 0 0 0 0 0 0.4 0"/>
<feBlend mode="normal" in2="BackgroundImageFix" result="effect1_dropShadow_3173_15117"/>
<feBlend mode="normal" in="SourceGraphic" in2="effect1_dropShadow_3173_15117" result="shape"/>
</filter>
<filter id="filter2_d_3173_15117" x="7.43067" y="19.4326" width="19.3364" height="20.333" filterUnits="userSpaceOnUse" color-interpolation-filters="sRGB">
<feFlood flood-opacity="0" result="BackgroundImageFix"/>
<feColorMatrix in="SourceAlpha" type="matrix" values="0 0 0 0 0 0 0 0 0 0 0 0 0 0 0 0 0 0 127 0" result="hardAlpha"/>
<feOffset dx="0.672607" dy="0.134521"/>
<feGaussianBlur stdDeviation="1.00891"/>
<feComposite in2="hardAlpha" operator="out"/>
<feColorMatrix type="matrix" values="0 0 0 0 0 0 0 0 0 0 0 0 0 0 0 0 0 0 0.4 0"/>
<feBlend mode="normal" in2="BackgroundImageFix" result="effect1_dropShadow_3173_15117"/>
<feBlend mode="normal" in="SourceGraphic" in2="effect1_dropShadow_3173_15117" result="shape"/>
</filter>
<linearGradient id="paint0_linear_3173_15117" x1="5.16544" y1="7.52461" x2="40.3581" y2="43.4073" gradientUnits="userSpaceOnUse">
<stop stop-color="white"/>
<stop offset="1" stop-color="#EAECEE"/>
</linearGradient>
<radialGradient id="paint1_radial_3173_15117" cx="0" cy="0" r="1" gradientUnits="userSpaceOnUse" gradientTransform="translate(28.0611 20.9357) rotate(51.0373) scale(27.6867 26.7428)">
<stop stop-color="#1348FF"/>
<stop offset="1" stop-color="#06238D"/>
</radialGradient>
<radialGradient id="paint2_radial_3173_15117" cx="0" cy="0" r="1" gradientUnits="userSpaceOnUse" gradientTransform="translate(10.9322 12.0154) rotate(50.0605) scale(39.4547 72.93)">
<stop stop-color="#0195FF"/>
<stop offset="1" stop-color="#1147E9"/>
</radialGradient>
<radialGradient id="paint3_radial_3173_15117" cx="0" cy="0" r="1" gradientUnits="userSpaceOnUse" gradientTransform="translate(17.7162 22.1355) rotate(108.445) scale(21.7448 30.1465)">
<stop stop-color="#00BBFF"/>
<stop offset="1" stop-color="#008BFF"/>
</radialGradient>
<clipPath id="clip0_3173_15117">
<rect width="48" height="48" fill="white" transform="translate(-0.000488281 0.000976562)"/>
</clipPath>
<clipPath id="clip1_3173_15117">
<rect width="29" height="29" fill="white" transform="translate(9.49951 8.50098)"/>
</clipPath>
</defs>
</svg>
