<svg width="48" height="48" viewBox="0 0 48 48" fill="none" xmlns="http://www.w3.org/2000/svg">
<g clip-path="url(#clip0_3169_9412)">
<circle cx="23.998" cy="24.249" r="23.5714" fill="url(#paint0_linear_3169_9412)" stroke="#D5DADD" stroke-width="0.857142"/>
<g clip-path="url(#clip1_3169_9412)">
<path d="M24.5137 11.8619C24.5365 11.8628 24.5471 11.8677 24.5534 11.8711C24.5616 11.8756 24.5758 11.8858 24.5914 11.9069C24.6248 11.9519 24.6523 12.0308 24.6358 12.1286L22.8971 22.4223C22.6573 23.8417 23.4467 25.2344 24.7876 25.7578L34.5125 29.5538C34.6049 29.5899 34.6585 29.654 34.68 29.7058C34.6901 29.7301 34.6915 29.7474 34.6911 29.7568C34.6909 29.764 34.6896 29.7756 34.6787 29.7956C33.8313 31.3572 32.6486 32.7197 31.2086 33.7811C29.3595 35.1441 27.1618 35.955 24.8706 36.1197C22.5793 36.2844 20.2883 35.7961 18.2633 34.7116C16.2382 33.6271 14.5621 31.9907 13.4294 29.9922C12.2966 27.9937 11.7536 25.7151 11.8634 23.4205C11.9731 21.126 12.7311 18.9096 14.0494 17.0283C15.3677 15.1471 17.1923 13.6781 19.3116 12.7918C20.9621 12.1015 22.7386 11.7867 24.5137 11.8619Z" stroke="url(#paint1_linear_3169_9412)" stroke-width="2.7"/>
<path d="M35.3863 25.3828C36.3763 25.7644 37.4749 25.1449 37.4961 24.0841C37.5041 23.6807 37.4935 23.2763 37.4641 22.8723C37.3205 20.8989 36.7317 18.982 35.7406 17.2612C34.7495 15.5405 33.3812 14.0592 31.7352 12.9254C31.3951 12.6911 31.0448 12.4728 30.6857 12.2711C29.76 11.7512 28.6653 12.3792 28.4876 13.4259L27.2364 20.7922C27.1019 21.5839 27.5439 22.3607 28.2932 22.6494L35.3863 25.3828Z" fill="url(#paint2_linear_3169_9412)"/>
</g>
</g>
<defs>
<linearGradient id="paint0_linear_3169_9412" x1="4.35091" y1="7.06186" x2="41.0625" y2="44.4933" gradientUnits="userSpaceOnUse">
<stop stop-color="white"/>
<stop offset="1" stop-color="#EAECEE"/>
</linearGradient>
<linearGradient id="paint1_linear_3169_9412" x1="14.3283" y1="14.5387" x2="33.2048" y2="32.4019" gradientUnits="userSpaceOnUse">
<stop stop-color="#0195FF"/>
<stop offset="0.991028" stop-color="#1147E9"/>
</linearGradient>
<linearGradient id="paint2_linear_3169_9412" x1="28.7518" y1="14.0971" x2="37.8196" y2="21.0471" gradientUnits="userSpaceOnUse">
<stop stop-color="#00BBFF"/>
<stop offset="1" stop-color="#008BFF"/>
</linearGradient>
<clipPath id="clip0_3169_9412">
<rect width="48" height="48" fill="white" transform="translate(-0.000488281 0.000976562)"/>
</clipPath>
<clipPath id="clip1_3169_9412">
<rect width="27" height="27" fill="white" transform="translate(10.4995 10.501)"/>
</clipPath>
</defs>
</svg>
