<svg width="48" height="48" viewBox="0 0 48 48" fill="none" xmlns="http://www.w3.org/2000/svg">
<g clip-path="url(#clip0_3169_9396)">
<circle cx="23.999" cy="24.249" r="23.5714" fill="url(#paint0_linear_3169_9396)" stroke="#D5DADD" stroke-width="0.857142"/>
<g clip-path="url(#clip1_3169_9396)">
<path d="M17.4825 24.529C17.632 24.6785 17.8347 24.7624 18.0461 24.7624C18.2575 24.7624 18.4602 24.6785 18.6097 24.529C18.7592 24.3795 18.8432 24.1768 18.8432 23.9654C18.8412 23.2325 18.9848 22.5065 19.2657 21.8296C19.5465 21.1526 19.9589 20.5382 20.4791 20.0219C21.5411 19.0065 22.9537 18.4399 24.423 18.4399C25.8922 18.4399 27.3049 19.0065 28.3668 20.0219C28.5166 20.1716 28.7197 20.2558 28.9315 20.2558C29.1433 20.2558 29.3464 20.1716 29.4962 20.0219C29.646 19.8721 29.7301 19.669 29.7301 19.4572C29.7301 19.2454 29.646 19.0423 29.4962 18.8925C28.1285 17.5896 26.312 16.8628 24.423 16.8628C22.534 16.8628 20.7174 17.5896 19.3497 18.8925C18.6819 19.5575 18.1525 20.3481 17.7919 21.2188C17.4314 22.0895 17.2468 23.023 17.249 23.9654C17.249 24.1768 17.333 24.3795 17.4825 24.529Z" fill="url(#paint1_linear_3169_9396)"/>
<path d="M21.6725 30.5961C22.5432 30.9567 23.4767 31.1412 24.4191 31.139C25.6776 31.1374 26.9136 30.8058 28.0038 30.177C29.094 29.5483 30.0002 28.6446 30.6319 27.5561C30.6873 27.4655 30.724 27.3648 30.74 27.2598C30.7559 27.1548 30.7507 27.0477 30.7246 26.9448C30.6986 26.8418 30.6522 26.7451 30.5883 26.6604C30.5244 26.5756 30.4441 26.5044 30.3523 26.4511C30.2605 26.3977 30.159 26.3633 30.0536 26.3497C29.9483 26.3362 29.8414 26.3438 29.739 26.3722C29.6367 26.4005 29.5411 26.4491 29.4578 26.5149C29.3744 26.5807 29.3051 26.6625 29.2539 26.7555C29.0093 27.1777 28.7098 27.5655 28.3633 27.909C27.3013 28.9243 25.8887 29.4909 24.4194 29.4909C22.9502 29.4909 21.5375 28.9243 20.4755 27.909C20.3258 27.7592 20.1227 27.6751 19.9109 27.6751C19.6991 27.6751 19.4959 27.7592 19.3462 27.909C19.1964 28.0587 19.1123 28.2618 19.1123 28.4736C19.1123 28.6854 19.1964 28.8885 19.3462 29.0383C20.0111 29.7061 20.8018 30.2356 21.6725 30.5961Z" fill="url(#paint2_linear_3169_9396)"/>
<path d="M24.419 25.8626C24.1701 25.8623 23.9237 25.813 23.6938 25.7175C23.464 25.622 23.2552 25.4822 23.0794 25.306C22.9037 25.1298 22.7643 24.9207 22.6693 24.6907C22.5743 24.4606 22.5256 24.2141 22.5258 23.9652C22.5258 23.8955 22.5396 23.8264 22.5663 23.7619C22.593 23.6974 22.6321 23.6389 22.6815 23.5895C22.7308 23.5402 22.7894 23.501 22.8539 23.4743C22.9183 23.4476 22.9874 23.4339 23.0572 23.4339C23.127 23.4339 23.1961 23.4476 23.2606 23.4743C23.325 23.501 23.3836 23.5402 23.433 23.5895C23.4823 23.6389 23.5214 23.6974 23.5482 23.7619C23.5749 23.8264 23.5886 23.8955 23.5886 23.9652C23.5882 24.0746 23.6094 24.183 23.651 24.2841C23.6926 24.3853 23.7537 24.4772 23.8309 24.5547C23.9902 24.7055 24.2013 24.7896 24.4207 24.7896C24.6401 24.7896 24.8512 24.7055 25.0106 24.5547C25.128 24.4383 25.2082 24.2897 25.2409 24.1276C25.2737 23.9655 25.2575 23.7974 25.1945 23.6445C25.1315 23.4917 25.0244 23.361 24.887 23.2691C24.7495 23.1772 24.5878 23.1283 24.4225 23.1285C24.2816 23.1285 24.1464 23.0725 24.0468 22.9729C23.9471 22.8732 23.8911 22.7381 23.8911 22.5971C23.8911 22.4562 23.9471 22.3211 24.0468 22.2214C24.1464 22.1218 24.2816 22.0658 24.4225 22.0658C24.9259 22.0663 25.4085 22.2667 25.7643 22.6229C26.12 22.979 26.3199 23.4618 26.3199 23.9652C26.3197 24.2147 26.2704 24.4616 26.1747 24.6919C26.0791 24.9223 25.939 25.1315 25.7625 25.3077C25.586 25.4839 25.3764 25.6236 25.1459 25.7188C24.9154 25.814 24.6684 25.8629 24.419 25.8626Z" fill="url(#paint3_linear_3169_9396)"/>
<path d="M21.9521 27.6565C22.6823 28.1446 23.5408 28.4052 24.4191 28.4053C24.6304 28.4053 24.8332 28.3213 24.9827 28.1718C25.1321 28.0223 25.2161 27.8196 25.2161 27.6082C25.2161 27.3968 25.1321 27.1941 24.9827 27.0446C24.8332 26.8951 24.6304 26.8112 24.4191 26.8112C23.8571 26.8092 23.3083 26.6411 22.8417 26.3279C22.3752 26.0147 22.0117 25.5705 21.7971 25.0512C21.5825 24.5318 21.5264 23.9606 21.6358 23.4094C21.7452 22.8582 22.0152 22.3517 22.4119 21.9537C22.954 21.4362 23.6746 21.1475 24.424 21.1475C25.1734 21.1475 25.8941 21.4362 26.4362 21.9537C26.7014 22.217 26.9116 22.5305 27.0545 22.8758C27.1974 23.2211 27.2702 23.5914 27.2686 23.9651C27.2686 24.1765 27.3526 24.3793 27.5021 24.5287C27.6516 24.6782 27.8543 24.7622 28.0657 24.7622C28.2771 24.7622 28.4798 24.6782 28.6293 24.5287C28.7788 24.3793 28.8628 24.1765 28.8628 23.9651C28.8642 23.3814 28.7498 22.8033 28.5261 22.2642C28.3024 21.725 27.974 21.2356 27.5598 20.8244C26.7136 20.0179 25.5894 19.5681 24.4205 19.5681C23.2515 19.5681 22.1274 20.0179 21.2811 20.8244C20.6599 21.4452 20.2367 22.2363 20.0651 23.0976C19.8935 23.9589 19.9812 24.8518 20.3171 25.6633C20.653 26.4748 21.222 27.1684 21.9521 27.6565Z" fill="url(#paint4_linear_3169_9396)"/>
<path fill-rule="evenodd" clip-rule="evenodd" d="M21.8522 11.1446C23.1747 10.3554 24.8235 10.3554 26.1459 11.1446L33.8155 15.7217C35.0822 16.4776 35.858 17.844 35.858 19.3191V28.6352C35.858 30.1103 35.0822 31.4767 33.8155 32.2326L26.1459 36.8096C24.8235 37.5988 23.1747 37.5988 21.8522 36.8096L14.1826 32.2326C12.9159 31.4767 12.1401 30.1103 12.1401 28.6352V19.3191C12.1401 17.844 12.9159 16.4776 14.1826 15.7217L21.8522 11.1446ZM24.7147 13.5429C24.2739 13.2798 23.7243 13.2798 23.2834 13.5429L15.6138 18.1199C15.1916 18.3719 14.933 18.8274 14.933 19.3191L14.933 28.6352C14.933 29.1269 15.1916 29.5824 15.6138 29.8343L23.2834 34.4114C23.7243 34.6744 24.2739 34.6744 24.7147 34.4114L32.3843 29.8343C32.8065 29.5824 33.0651 29.1269 33.0651 28.6352V19.3191C33.0651 18.8274 32.8065 18.3719 32.3843 18.1199L24.7147 13.5429Z" fill="url(#paint5_linear_3169_9396)"/>
</g>
</g>
<defs>
<linearGradient id="paint0_linear_3169_9396" x1="4.35189" y1="7.06186" x2="41.0635" y2="44.4933" gradientUnits="userSpaceOnUse">
<stop stop-color="white"/>
<stop offset="1" stop-color="#EAECEE"/>
</linearGradient>
<linearGradient id="paint1_linear_3169_9396" x1="19.2449" y1="18.9631" x2="29.2228" y2="28.4392" gradientUnits="userSpaceOnUse">
<stop stop-color="#1348FF"/>
<stop offset="1" stop-color="#06238D"/>
</linearGradient>
<linearGradient id="paint2_linear_3169_9396" x1="19.2449" y1="18.9631" x2="29.2228" y2="28.4392" gradientUnits="userSpaceOnUse">
<stop stop-color="#1348FF"/>
<stop offset="1" stop-color="#06238D"/>
</linearGradient>
<linearGradient id="paint3_linear_3169_9396" x1="19.2449" y1="18.9631" x2="29.2228" y2="28.4392" gradientUnits="userSpaceOnUse">
<stop stop-color="#1348FF"/>
<stop offset="1" stop-color="#06238D"/>
</linearGradient>
<linearGradient id="paint4_linear_3169_9396" x1="19.2449" y1="18.9631" x2="29.2228" y2="28.4392" gradientUnits="userSpaceOnUse">
<stop stop-color="#1348FF"/>
<stop offset="1" stop-color="#06238D"/>
</linearGradient>
<linearGradient id="paint5_linear_3169_9396" x1="15.6955" y1="14.5678" x2="34.3522" y2="31.0545" gradientUnits="userSpaceOnUse">
<stop stop-color="#0195FF"/>
<stop offset="0.991028" stop-color="#1147E9"/>
</linearGradient>
<clipPath id="clip0_3169_9396">
<rect width="48" height="48" fill="white" transform="translate(0 0.000976562)"/>
</clipPath>
<clipPath id="clip1_3169_9396">
<rect width="27" height="27" fill="white" transform="translate(10.499 10.501)"/>
</clipPath>
</defs>
</svg>
