<svg width="48" height="48" viewBox="0 0 48 48" fill="none" xmlns="http://www.w3.org/2000/svg">
<circle cx="24.001" cy="24.0015" r="22.5893" fill="url(#paint0_linear_3173_15136)" stroke="#D5DADD" stroke-width="0.821426"/>
<g clip-path="url(#clip0_3173_15136)">
<mask id="mask0_3173_15136" style="mask-type:alpha" maskUnits="userSpaceOnUse" x="7" y="7" width="35" height="36">
<path d="M25.2682 32.2011C25.9278 34.0586 27.8649 35.1153 30.0361 35.1153C32.2073 35.1153 34.045 33.5387 34.5639 32.1221L38.6677 20.8167C39.485 18.5653 38.3273 16.076 36.0819 15.2565C34.0169 14.5029 31.7511 15.4242 30.7648 17.3284C30.608 17.6835 30.4472 18.2177 30.6395 18.7865L32.7035 24.4972C32.807 24.7835 32.673 25.1014 32.3961 25.2266C32.0545 25.381 31.6452 25.1791 31.5551 24.8144C30.8968 22.1498 28.693 20.4497 25.9684 21.4531C23.2439 22.4565 22.6703 25.0444 23.4875 27.2958L25.2682 32.2011Z" fill="black"/>
<path d="M10.421 20.7986C9.60379 18.5472 10.7615 16.0578 13.0068 15.2384C15.2522 14.419 17.7349 15.5798 18.5521 17.8311L22.6539 29.1307C23.4711 31.382 22.3134 33.8714 20.0681 34.6908C17.8227 35.5103 15.34 34.3495 14.5228 32.0981L10.421 20.7986Z" fill="black"/>
</mask>
<g mask="url(#mask0_3173_15136)">
<g filter="url(#filter0_d_3173_15136)">
<path d="M19.9069 2.61684C26.0214 0.87948 33.2508 3.87645 37.6581 11.8175C49.0044 27.0594 59.2651 44.7599 35.8867 53.0314C12.5083 61.303 13.0559 44.3356 5.26066 30.2901C-2.5346 16.2446 13.7925 4.35419 19.9069 2.61684Z" fill="url(#paint1_radial_3173_15136)"/>
</g>
<g filter="url(#filter1_d_3173_15136)">
<path d="M37.9664 30.84C35.5424 36.0327 28.6029 42.2888 23.8953 42.7076C14.242 44.7946 -0.782858 35.2422 0.502237 28.7549C1.78733 22.2676 14.0009 19.0985 22.362 19.1703C30.7231 19.2421 40.3903 25.6473 37.9664 30.84Z" fill="url(#paint2_radial_3173_15136)"/>
</g>
<g filter="url(#filter2_d_3173_15136)">
<path d="M10.0652 25.1995C20.8904 22.3382 30.3371 21.922 31.4646 32.0702C32.3796 40.3061 20.8748 46.9748 12.6388 47.8898C4.40282 48.8048 -0.302494 27.94 10.0652 25.1995Z" fill="url(#paint3_radial_3173_15136)"/>
</g>
</g>
</g>
<defs>
<filter id="filter0_d_3173_15136" x="1.84839" y="0.256841" width="50.824" height="57.105" filterUnits="userSpaceOnUse" color-interpolation-filters="sRGB">
<feFlood flood-opacity="0" result="BackgroundImageFix"/>
<feColorMatrix in="SourceAlpha" type="matrix" values="0 0 0 0 0 0 0 0 0 0 0 0 0 0 0 0 0 0 127 0" result="hardAlpha"/>
<feOffset dx="0.672606" dy="0.134521"/>
<feGaussianBlur stdDeviation="1.00891"/>
<feComposite in2="hardAlpha" operator="out"/>
<feColorMatrix type="matrix" values="0 0 0 0 0 0 0 0 0 0 0 0 0 0 0 0 0 0 0.4 0"/>
<feBlend mode="normal" in2="BackgroundImageFix" result="effect1_dropShadow_3173_15136"/>
<feBlend mode="normal" in="SourceGraphic" in2="effect1_dropShadow_3173_15136" result="shape"/>
</filter>
<filter id="filter1_d_3173_15136" x="-0.920407" y="17.2856" width="41.9565" height="27.8667" filterUnits="userSpaceOnUse" color-interpolation-filters="sRGB">
<feFlood flood-opacity="0" result="BackgroundImageFix"/>
<feColorMatrix in="SourceAlpha" type="matrix" values="0 0 0 0 0 0 0 0 0 0 0 0 0 0 0 0 0 0 127 0" result="hardAlpha"/>
<feOffset dx="0.672606" dy="0.134521"/>
<feGaussianBlur stdDeviation="1.00891"/>
<feComposite in2="hardAlpha" operator="out"/>
<feColorMatrix type="matrix" values="0 0 0 0 0 0 0 0 0 0 0 0 0 0 0 0 0 0 0.4 0"/>
<feBlend mode="normal" in2="BackgroundImageFix" result="effect1_dropShadow_3173_15136"/>
<feBlend mode="normal" in="SourceGraphic" in2="effect1_dropShadow_3173_15136" result="shape"/>
</filter>
<filter id="filter2_d_3173_15136" x="2.77344" y="21.5552" width="31.4329" height="28.5161" filterUnits="userSpaceOnUse" color-interpolation-filters="sRGB">
<feFlood flood-opacity="0" result="BackgroundImageFix"/>
<feColorMatrix in="SourceAlpha" type="matrix" values="0 0 0 0 0 0 0 0 0 0 0 0 0 0 0 0 0 0 127 0" result="hardAlpha"/>
<feOffset dx="0.672606" dy="0.134521"/>
<feGaussianBlur stdDeviation="1.00891"/>
<feComposite in2="hardAlpha" operator="out"/>
<feColorMatrix type="matrix" values="0 0 0 0 0 0 0 0 0 0 0 0 0 0 0 0 0 0 0.4 0"/>
<feBlend mode="normal" in2="BackgroundImageFix" result="effect1_dropShadow_3173_15136"/>
<feBlend mode="normal" in="SourceGraphic" in2="effect1_dropShadow_3173_15136" result="shape"/>
</filter>
<linearGradient id="paint0_linear_3173_15136" x1="5.17247" y1="7.53044" x2="40.3544" y2="43.4022" gradientUnits="userSpaceOnUse">
<stop stop-color="white"/>
<stop offset="1" stop-color="#EAECEE"/>
</linearGradient>
<radialGradient id="paint1_radial_3173_15136" cx="0" cy="0" r="1" gradientUnits="userSpaceOnUse" gradientTransform="translate(21.4305 31.5348) rotate(-75.6513) scale(47.9115 47.2494)">
<stop stop-color="#1348FF"/>
<stop offset="1" stop-color="#06238D"/>
</radialGradient>
<radialGradient id="paint2_radial_3173_15136" cx="0" cy="0" r="1" gradientUnits="userSpaceOnUse" gradientTransform="translate(9.58288 21.9069) rotate(31.98) scale(45.8054 82.7281)">
<stop stop-color="#0195FF"/>
<stop offset="1" stop-color="#1147E9"/>
</radialGradient>
<radialGradient id="paint3_radial_3173_15136" cx="0" cy="0" r="1" gradientUnits="userSpaceOnUse" gradientTransform="translate(11.5975 45.7641) rotate(-46.9579) scale(35.2931 48.5459)">
<stop stop-color="#00BBFF"/>
<stop offset="1" stop-color="#008BFF"/>
</radialGradient>
<clipPath id="clip0_3173_15136">
<rect width="28.9999" height="28.9999" fill="white" transform="translate(10.001 10.501)"/>
</clipPath>
</defs>
</svg>
