<svg width="48" height="48" viewBox="0 0 48 48" fill="none" xmlns="http://www.w3.org/2000/svg">
<circle cx="23.9995" cy="24.001" r="22.5893" fill="url(#paint0_linear_3173_15148)" stroke="#D5DADD" stroke-width="0.821426"/>
<g clip-path="url(#clip0_3173_15148)">
<mask id="mask0_3173_15148" style="mask-type:alpha" maskUnits="userSpaceOnUse" x="7" y="7" width="35" height="36">
<path d="M25.2667 32.2011C25.9263 34.0586 27.8634 35.1153 30.0346 35.1153C32.2058 35.1153 34.0435 33.5387 34.5624 32.1221L38.6662 20.8167C39.4835 18.5653 38.3258 16.076 36.0805 15.2565C34.0154 14.5029 31.7497 15.4242 30.7633 17.3284C30.6065 17.6835 30.4457 18.2177 30.638 18.7865L32.702 24.4972C32.8055 24.7835 32.6715 25.1014 32.3946 25.2266C32.053 25.381 31.6437 25.1791 31.5536 24.8144C30.8953 22.1498 28.6915 20.4497 25.967 21.4531C23.2424 22.4565 22.6688 25.0444 23.4861 27.2958L25.2667 32.2011Z" fill="black"/>
<path d="M10.4196 20.7986C9.60233 18.5472 10.76 16.0578 13.0054 15.2384C15.2507 14.419 17.7334 15.5798 18.5507 17.8311L22.6524 29.1307C23.4696 31.382 22.3119 33.8714 20.0666 34.6908C17.8213 35.5103 15.3385 34.3495 14.5213 32.0981L10.4196 20.7986Z" fill="black"/>
</mask>
<g mask="url(#mask0_3173_15148)">
<g filter="url(#filter0_d_3173_15148)">
<path d="M19.9055 2.61684C26.0199 0.87948 33.2494 3.87645 37.6567 11.8175C49.0029 27.0594 59.2636 44.7599 35.8852 53.0314C12.5068 61.303 13.0545 44.3356 5.2592 30.2901C-2.53606 16.2446 13.791 4.35419 19.9055 2.61684Z" fill="url(#paint1_radial_3173_15148)"/>
</g>
<g filter="url(#filter1_d_3173_15148)">
<path d="M37.9652 30.84C35.5412 36.0327 28.6016 42.2888 23.8941 42.7076C14.2408 44.7946 -0.784079 35.2422 0.501016 28.7549C1.78611 22.2676 13.9996 19.0985 22.3608 19.1703C30.7219 19.2421 40.3891 25.6473 37.9652 30.84Z" fill="url(#paint2_radial_3173_15148)"/>
</g>
<g filter="url(#filter2_d_3173_15148)">
<path d="M10.0637 25.1995C20.889 22.3382 30.3357 21.922 31.4631 32.0702C32.3781 40.3061 20.8733 46.9748 12.6373 47.8898C4.40136 48.8048 -0.303959 27.94 10.0637 25.1995Z" fill="url(#paint3_radial_3173_15148)"/>
</g>
</g>
</g>
<defs>
<filter id="filter0_d_3173_15148" x="1.84693" y="0.256841" width="50.824" height="57.105" filterUnits="userSpaceOnUse" color-interpolation-filters="sRGB">
<feFlood flood-opacity="0" result="BackgroundImageFix"/>
<feColorMatrix in="SourceAlpha" type="matrix" values="0 0 0 0 0 0 0 0 0 0 0 0 0 0 0 0 0 0 127 0" result="hardAlpha"/>
<feOffset dx="0.672606" dy="0.134521"/>
<feGaussianBlur stdDeviation="1.00891"/>
<feComposite in2="hardAlpha" operator="out"/>
<feColorMatrix type="matrix" values="0 0 0 0 0 0 0 0 0 0 0 0 0 0 0 0 0 0 0.4 0"/>
<feBlend mode="normal" in2="BackgroundImageFix" result="effect1_dropShadow_3173_15148"/>
<feBlend mode="normal" in="SourceGraphic" in2="effect1_dropShadow_3173_15148" result="shape"/>
</filter>
<filter id="filter1_d_3173_15148" x="-0.921627" y="17.2856" width="41.9565" height="27.8667" filterUnits="userSpaceOnUse" color-interpolation-filters="sRGB">
<feFlood flood-opacity="0" result="BackgroundImageFix"/>
<feColorMatrix in="SourceAlpha" type="matrix" values="0 0 0 0 0 0 0 0 0 0 0 0 0 0 0 0 0 0 127 0" result="hardAlpha"/>
<feOffset dx="0.672606" dy="0.134521"/>
<feGaussianBlur stdDeviation="1.00891"/>
<feComposite in2="hardAlpha" operator="out"/>
<feColorMatrix type="matrix" values="0 0 0 0 0 0 0 0 0 0 0 0 0 0 0 0 0 0 0.4 0"/>
<feBlend mode="normal" in2="BackgroundImageFix" result="effect1_dropShadow_3173_15148"/>
<feBlend mode="normal" in="SourceGraphic" in2="effect1_dropShadow_3173_15148" result="shape"/>
</filter>
<filter id="filter2_d_3173_15148" x="2.77198" y="21.5552" width="31.4329" height="28.5161" filterUnits="userSpaceOnUse" color-interpolation-filters="sRGB">
<feFlood flood-opacity="0" result="BackgroundImageFix"/>
<feColorMatrix in="SourceAlpha" type="matrix" values="0 0 0 0 0 0 0 0 0 0 0 0 0 0 0 0 0 0 127 0" result="hardAlpha"/>
<feOffset dx="0.672606" dy="0.134521"/>
<feGaussianBlur stdDeviation="1.00891"/>
<feComposite in2="hardAlpha" operator="out"/>
<feColorMatrix type="matrix" values="0 0 0 0 0 0 0 0 0 0 0 0 0 0 0 0 0 0 0.4 0"/>
<feBlend mode="normal" in2="BackgroundImageFix" result="effect1_dropShadow_3173_15148"/>
<feBlend mode="normal" in="SourceGraphic" in2="effect1_dropShadow_3173_15148" result="shape"/>
</filter>
<linearGradient id="paint0_linear_3173_15148" x1="5.17101" y1="7.52995" x2="40.353" y2="43.4018" gradientUnits="userSpaceOnUse">
<stop stop-color="white"/>
<stop offset="1" stop-color="#EAECEE"/>
</linearGradient>
<radialGradient id="paint1_radial_3173_15148" cx="0" cy="0" r="1" gradientUnits="userSpaceOnUse" gradientTransform="translate(21.429 31.5348) rotate(-75.6513) scale(47.9115 47.2494)">
<stop stop-color="#1348FF"/>
<stop offset="1" stop-color="#06238D"/>
</radialGradient>
<radialGradient id="paint2_radial_3173_15148" cx="0" cy="0" r="1" gradientUnits="userSpaceOnUse" gradientTransform="translate(9.58166 21.9069) rotate(31.98) scale(45.8054 82.7281)">
<stop stop-color="#0195FF"/>
<stop offset="1" stop-color="#1147E9"/>
</radialGradient>
<radialGradient id="paint3_radial_3173_15148" cx="0" cy="0" r="1" gradientUnits="userSpaceOnUse" gradientTransform="translate(11.596 45.7641) rotate(-46.9579) scale(35.2931 48.5459)">
<stop stop-color="#00BBFF"/>
<stop offset="1" stop-color="#008BFF"/>
</radialGradient>
<clipPath id="clip0_3173_15148">
<rect width="28.9999" height="28.9999" fill="white" transform="translate(9.99951 10.501)"/>
</clipPath>
</defs>
</svg>
