<svg width="48" height="48" viewBox="0 0 48 48" fill="none" xmlns="http://www.w3.org/2000/svg">
<g clip-path="url(#clip0_3169_9492)">
<circle cx="23.9985" cy="24.4071" r="23.5713" fill="url(#paint0_linear_3169_9492)" stroke="#D5DADD" stroke-width="0.85714"/>
<g clip-path="url(#clip1_3169_9492)">
<path fill-rule="evenodd" clip-rule="evenodd" d="M20.9643 10.5142C21.7099 10.5142 22.3143 11.1186 22.3143 11.8642V13.5483H25.6828V11.8642C25.6828 11.1186 26.2872 10.5142 27.0328 10.5142C27.7783 10.5142 28.3828 11.1186 28.3828 11.8642V13.5483H30.0962C32.5013 13.5483 34.4511 15.4981 34.4511 17.9032V19.6167H36.1353C36.8809 19.6167 37.4853 20.2212 37.4853 20.9667C37.4853 21.7123 36.8809 22.3167 36.1353 22.3167H34.4511V25.6852H36.1353C36.8809 25.6852 37.4853 26.2896 37.4853 27.0352C37.4853 27.7808 36.8809 28.3852 36.1353 28.3852H34.4511V30.0986C34.4511 32.5038 32.5013 34.4535 30.0962 34.4535H28.3828V36.1378C28.3828 36.8834 27.7783 37.4878 27.0328 37.4878C26.2872 37.4878 25.6828 36.8834 25.6828 36.1378V34.4535H22.3143V36.1378C22.3143 36.8834 21.7099 37.4878 20.9643 37.4878C20.2187 37.4878 19.6143 36.8834 19.6143 36.1378V34.4535H17.9008C15.4956 34.4535 13.5459 32.5038 13.5459 30.0986V28.3852H11.8617C11.1161 28.3852 10.5117 27.7808 10.5117 27.0352C10.5117 26.2896 11.1161 25.6852 11.8617 25.6852H13.5459V22.3167H11.8617C11.1161 22.3167 10.5117 21.7123 10.5117 20.9667C10.5117 20.2212 11.1161 19.6167 11.8617 19.6167H13.5459V17.9032C13.5459 15.4981 15.4957 13.5483 17.9008 13.5483H19.6143V11.8642C19.6143 11.1186 20.2187 10.5142 20.9643 10.5142ZM27.0243 16.2483L27.0328 16.2484L27.0412 16.2483H30.0962C31.0102 16.2483 31.7511 16.9892 31.7511 17.9032V30.0986C31.7511 31.0126 31.0102 31.7535 30.0962 31.7535H17.9008C16.9868 31.7535 16.2459 31.0126 16.2459 30.0986V27.0414L16.2459 27.0352L16.2459 27.029V20.9729L16.2459 20.9667L16.2459 20.9606V17.9032C16.2459 16.9892 16.9868 16.2483 17.9008 16.2483H20.9559L20.9643 16.2484L20.9727 16.2483H27.0243Z" fill="url(#paint1_linear_3169_9492)"/>
<rect x="20.0454" y="20.0479" width="7.90609" height="7.90609" rx="1.68749" fill="url(#paint2_linear_3169_9492)"/>
</g>
</g>
<defs>
<linearGradient id="paint0_linear_3169_9492" x1="4.35139" y1="7.22004" x2="41.0629" y2="44.6514" gradientUnits="userSpaceOnUse">
<stop stop-color="white"/>
<stop offset="1" stop-color="#EAECEE"/>
</linearGradient>
<linearGradient id="paint1_linear_3169_9492" x1="14.5552" y1="14.5479" x2="33.442" y2="33.4413" gradientUnits="userSpaceOnUse">
<stop stop-color="#0195FF"/>
<stop offset="0.991028" stop-color="#1147E9"/>
</linearGradient>
<linearGradient id="paint2_linear_3169_9492" x1="21.2143" y1="21.211" x2="26.7473" y2="26.7679" gradientUnits="userSpaceOnUse">
<stop stop-color="#1348FF"/>
<stop offset="1" stop-color="#06238D"/>
</linearGradient>
<clipPath id="clip0_3169_9492">
<rect width="47.9998" height="47.9998" fill="white" transform="translate(-0.00146484 0.000976562)"/>
</clipPath>
<clipPath id="clip1_3169_9492">
<rect width="26.9999" height="26.9999" fill="white" transform="translate(10.4985 10.501)"/>
</clipPath>
</defs>
</svg>
