<svg width="48" height="48" viewBox="0 0 48 48" fill="none" xmlns="http://www.w3.org/2000/svg">
<g clip-path="url(#clip0_3169_9539)">
<circle cx="23.998" cy="24.4071" r="23.5713" fill="url(#paint0_linear_3169_9539)" stroke="#D5DADD" stroke-width="0.85714"/>
<g clip-path="url(#clip1_3169_9539)">
<path fill-rule="evenodd" clip-rule="evenodd" d="M30.3965 11.0537H22.4277C22.1294 11.0537 21.8434 11.1722 21.6324 11.3831C21.4215 11.5941 21.303 11.8802 21.303 12.1785L21.303 16.5327C21.303 17.4551 20.9736 18.2457 20.3147 18.9046C19.6559 19.5634 18.8652 19.8929 17.9428 19.8929H13.9944C13.6961 19.8929 13.41 20.0114 13.1991 20.2223C12.9881 20.4332 12.8696 20.7193 12.8696 21.0176V35.301C12.8696 36.7921 14.0785 38.001 15.5696 38.001H21.3112C22.5707 38.001 23.6629 37.1301 23.9434 35.9022L24.6063 33.0001C24.8868 31.7722 25.979 30.9013 27.2385 30.9013H30.3965C31.8877 30.9013 33.0965 29.6925 33.0965 28.2013V13.7537C33.0965 12.2625 31.8877 11.0537 30.3965 11.0537ZM28.1935 19.9776L23.9064 19.9776C23.1827 19.9776 22.5906 19.3674 22.5906 18.6216C22.5906 17.8759 23.1827 17.2657 23.9064 17.2657L28.1935 17.2657C28.9172 17.2657 29.5092 17.8759 29.5092 18.6217C29.5092 19.3675 28.9172 19.9776 28.1935 19.9776ZM28.2459 24.3771H17.72C16.9964 24.3771 16.4043 23.7669 16.4043 23.0211C16.4043 22.2754 16.9964 21.6652 17.72 21.6652H28.2459C28.9695 21.6652 29.5616 22.2754 29.5616 23.0211C29.5616 23.7669 28.9695 24.3771 28.2459 24.3771ZM17.72 28.7766H28.2459C28.9695 28.7766 29.5616 28.1664 29.5616 27.4206C29.5616 26.6748 28.9695 26.0646 28.2459 26.0646H17.72C16.9964 26.0646 16.4043 26.6748 16.4043 27.4206C16.4043 28.1664 16.9964 28.7766 17.72 28.7766ZM21.6672 33.1761H17.72C16.9964 33.1761 16.4043 32.5659 16.4043 31.8201C16.4043 31.0743 16.9964 30.4641 17.72 30.4641H21.6672C22.3909 30.4641 22.9829 31.0743 22.9829 31.8201C22.9829 32.5659 22.3909 33.1761 21.6672 33.1761Z" fill="url(#paint1_linear_3169_9539)"/>
<path d="M19.89 16.2316V12.9639L14.6177 18.5104H17.6113C18.2368 18.5104 18.773 18.287 19.2198 17.8401C19.6666 17.3933 19.89 16.8572 19.89 16.2316Z" fill="url(#paint2_linear_3169_9539)"/>
<path d="M34.1925 30.397C34.4624 30.1174 34.7661 29.9775 35.1035 29.9775C35.441 29.9775 35.7446 30.1174 36.0146 30.397C36.2508 30.6417 36.3689 30.9389 36.3689 31.2884C36.3689 31.638 36.2508 31.9526 36.0146 32.2323L30.9027 37.5284C30.6665 37.7731 30.3628 37.8954 29.9916 37.8954C29.6205 37.8954 29.3168 37.7731 29.0806 37.5284L26.5499 34.9065C26.28 34.6269 26.145 34.3123 26.145 33.9627C26.145 33.6131 26.28 33.2985 26.5499 33.0188C26.8199 32.7392 27.1235 32.5993 27.461 32.5993C27.7984 32.5993 28.0852 32.7392 28.3214 33.0188L29.9916 34.7492L34.1925 30.397Z" fill="url(#paint3_linear_3169_9539)"/>
</g>
</g>
<defs>
<linearGradient id="paint0_linear_3169_9539" x1="4.3509" y1="7.22004" x2="41.0624" y2="44.6514" gradientUnits="userSpaceOnUse">
<stop stop-color="white"/>
<stop offset="1" stop-color="#EAECEE"/>
</linearGradient>
<linearGradient id="paint1_linear_3169_9539" x1="15.9017" y1="15.0835" x2="34.0212" y2="28.689" gradientUnits="userSpaceOnUse">
<stop stop-color="#0195FF"/>
<stop offset="0.991028" stop-color="#1147E9"/>
</linearGradient>
<linearGradient id="paint2_linear_3169_9539" x1="15.3972" y1="13.7799" x2="19.2747" y2="17.4816" gradientUnits="userSpaceOnUse">
<stop stop-color="#1348FF"/>
<stop offset="1" stop-color="#06238D"/>
</linearGradient>
<linearGradient id="paint3_linear_3169_9539" x1="27.6565" y1="31.1424" x2="33.0158" y2="38.0924" gradientUnits="userSpaceOnUse">
<stop stop-color="#1348FF"/>
<stop offset="1" stop-color="#06238D"/>
</linearGradient>
<clipPath id="clip0_3169_9539">
<rect width="47.9998" height="47.9998" fill="white" transform="translate(-0.00195312 0.000976562)"/>
</clipPath>
<clipPath id="clip1_3169_9539">
<rect width="27" height="27" fill="white" transform="translate(9.49805 11.001)"/>
</clipPath>
</defs>
</svg>
