<svg width="48" height="48" viewBox="0 0 48 48" fill="none" xmlns="http://www.w3.org/2000/svg">
<g clip-path="url(#clip0_3169_9529)">
<circle cx="23.9989" cy="24.4071" r="23.5713" fill="url(#paint0_linear_3169_9529)" stroke="#D5DADD" stroke-width="0.85714"/>
<g clip-path="url(#clip1_3169_9529)">
<path d="M17.1622 25.9592L17.0771 26.0118C16.8212 26.1306 16.5724 26.2626 16.3321 26.4073C16.0967 26.5477 15.8762 26.688 15.6706 26.8284L15.3046 26.2494C14.5202 24.9608 13.8335 23.6221 13.2495 22.2434C12.7683 21.0738 12.4055 19.8646 12.1658 18.6314C11.9689 17.5427 11.9453 16.6113 12.0952 15.8375C12.2451 15.0636 12.5924 14.5273 13.1371 14.2286C13.7741 13.8948 14.5576 13.9123 15.4876 14.2812C16.4176 14.6502 17.387 15.3102 18.3958 16.2613C17.9261 15.9803 17.407 15.7797 16.8624 15.6688C16.455 15.581 16.0271 15.6423 15.6663 15.8402C15.1965 16.0858 14.8866 16.525 14.7368 17.1575C14.6051 17.9309 14.61 18.7193 14.7512 19.4912C14.9245 20.5197 15.2025 21.5303 15.5813 22.5093C16.0296 23.6941 16.5655 24.8482 17.1852 25.9632L17.1622 25.9592Z" fill="url(#paint1_linear_3169_9529)"/>
<path d="M16.8235 28.436C16.9935 28.2246 17.1867 28.0305 17.4 27.8569C17.6228 27.6767 17.8642 27.5176 18.1205 27.3818C18.4577 27.91 18.794 28.4153 19.1293 28.8976C19.4665 29.3821 19.8138 29.8424 20.1712 30.2824L19.6928 30.3607H19.749C19.5602 30.3958 19.3642 30.4268 19.1567 30.4538C18.9492 30.4808 18.7359 30.5024 18.5096 30.5186C18.2281 30.2208 17.9466 29.8959 17.6651 29.5441C17.3836 29.1923 17.1021 28.8323 16.8206 28.4643L16.8235 28.436Z" fill="url(#paint2_linear_3169_9529)"/>
<path d="M24.3678 34.2358C23.7775 34.1881 23.2009 34.0433 22.6644 33.8079C22.1467 33.5811 21.6679 33.2836 21.2434 32.9252L22.2839 32.5554V32.5824C22.6038 32.8811 22.9372 33.1708 23.284 33.4516C23.6362 33.7369 24.0073 34.0011 24.3952 34.2425L24.3678 34.2358Z" fill="url(#paint3_linear_3169_9529)"/>
<path d="M27.0973 19.6046C26.6921 19.3722 26.256 19.1906 25.8002 19.0647C25.3251 18.9321 24.8318 18.8657 24.3361 18.8677C23.3634 18.8567 22.4073 19.1033 21.5778 19.579C20.7657 20.0406 20.0888 20.6839 19.6078 21.4511C19.999 20.819 20.5173 20.264 21.1339 19.8165C21.739 19.3486 22.4201 18.9745 23.1515 18.7084C23.8693 18.4474 24.6325 18.3133 25.4025 18.3129C26.1531 18.3087 26.8915 18.4908 27.5426 18.8407C29.2773 19.7502 30.942 20.7722 32.5245 21.8992C33.8936 22.9007 34.9677 23.8365 35.7468 24.7066C36.526 25.5768 37.028 26.3718 37.2528 27.0916C37.4776 27.8115 37.4296 28.427 37.1087 28.9381C36.8656 29.3421 36.2464 29.6363 35.2511 29.8208C34.2815 30.0005 32.6609 29.4838 30.3894 28.2708C31.0986 28.6349 31.8889 28.841 32.6989 28.8719C33.552 28.898 34.2322 28.4981 34.7395 27.672C34.9826 27.2509 34.973 26.7236 34.7107 26.0901C34.4301 25.4764 33.9426 24.8043 33.2479 24.0736C32.4517 23.2531 31.5809 22.4989 30.6453 21.8195C29.515 20.9906 28.3204 20.2417 27.0713 19.579L27.0973 19.6046Z" fill="url(#paint4_linear_3169_9529)"/>
<path d="M24.3953 29.1742H24.3679C22.9365 29.1685 21.5655 28.6334 20.5533 27.6854C19.5411 26.7374 18.9698 25.4533 18.9637 24.1127V24.06C18.9575 22.7277 19.0611 21.397 19.2736 20.0796C19.4471 18.9802 19.72 17.8965 20.0893 16.8403C20.4265 15.9089 20.8108 15.1796 21.2422 14.6523C21.6735 14.125 22.1145 13.8614 22.5651 13.8614C23.4845 13.8614 24.1739 14.2128 24.6331 14.9155C25.0758 15.5892 25.3141 16.3626 25.3233 17.1526C25.3161 14.6349 24.9828 13.0236 24.3233 12.3186C23.6565 11.606 23.0705 11.2501 22.5651 11.251C21.9454 11.251 21.3541 11.5146 20.7911 12.0419C20.2463 12.5872 19.766 13.3971 19.35 14.4715C18.8793 15.7744 18.5416 17.1162 18.3412 18.4788C18.0786 20.349 17.9472 22.2332 17.9478 24.1194C17.9483 24.8086 18.1528 25.4842 18.5386 26.0711C18.917 26.6903 19.4184 27.236 20.0158 27.6787C20.6379 28.1421 21.337 28.5069 22.0852 28.7585C22.7998 29.0327 23.564 29.1757 24.3362 29.1796L24.3953 29.1742Z" fill="url(#paint5_linear_3169_9529)"/>
<path d="M22.9038 35.2386C22.2466 35.4491 21.6932 35.4311 21.2436 35.1846C20.9263 34.9346 20.671 34.6227 20.4957 34.2708C20.3066 33.9142 20.2079 33.5216 20.2074 33.1235C20.2069 33.0576 20.2117 32.9917 20.2218 32.9265C20.2292 32.8747 20.2338 32.8226 20.2355 32.7704C19.9315 34.0513 19.8357 35.166 19.948 36.1145C20.0604 37.0639 20.4361 37.6964 21.075 38.0123C21.6188 38.3119 22.2846 38.3295 23.0724 38.0649C23.8794 37.8184 24.7378 37.3442 25.6477 36.6423C26.6717 35.8286 27.6099 34.9247 28.4492 33.9428C29.4325 32.7741 30.3258 31.5414 31.1225 30.254L31.4323 29.8059C31.1138 29.6709 30.8184 29.5319 30.546 29.4009C30.2919 29.2788 30.0416 29.1437 29.7962 28.998C29.0698 30.0284 28.2717 31.0129 27.4073 31.9452C26.6845 32.7296 25.8888 33.4523 25.0294 34.1048C24.2695 34.6663 23.5609 35.0442 22.9038 35.2386Z" fill="url(#paint6_linear_3169_9529)"/>
<path d="M32.9469 26.7892C33.1155 26.4113 33.2741 26.0293 33.4254 25.6419H33.4311C33.2625 25.4138 33.0882 25.2019 32.9109 24.9994C32.7336 24.797 32.5506 24.5999 32.3633 24.4055C32.0808 25.021 31.8027 25.5825 31.5317 26.0927C31.286 26.5554 31.019 27.0026 30.7338 27.4363C30.9802 27.5784 31.2437 27.6929 31.5188 27.7772C31.7984 27.8651 32.0891 27.9182 32.3834 27.9351H32.4123C32.5996 27.5491 32.7783 27.1671 32.9469 26.7892Z" fill="url(#paint7_linear_3169_9529)"/>
<path d="M33.96 18.8676V18.8932C33.9277 19.3659 33.8691 19.8367 33.7842 20.3037C33.7055 20.7172 33.6058 21.1249 33.4888 21.5292C33.6385 21.6361 33.784 21.7513 33.9211 21.8721C34.054 21.9906 34.1987 22.0969 34.3535 22.1893C34.3929 22.0196 34.4213 21.8479 34.4385 21.675C34.4572 21.4861 34.4659 21.2917 34.4659 21.0811C34.466 20.6962 34.424 20.3122 34.3405 19.9352C34.2589 19.5666 34.1312 19.2082 33.96 18.8676Z" fill="url(#paint8_linear_3169_9529)"/>
<path fill-rule="evenodd" clip-rule="evenodd" d="M20.2363 32.7672L20.2355 32.7704C20.236 32.7563 20.2362 32.7422 20.2363 32.728V32.7672ZM29.7962 28.998L29.7995 28.9933L29.7433 28.9663L29.7962 28.998ZM30.7305 27.4344L30.7338 27.4363C30.7045 27.4808 30.6751 27.5251 30.6455 27.5693L30.7305 27.4344Z" fill="url(#paint9_linear_3169_9529)"/>
<path d="M27.1258 28.4357H27.1532C27.9759 28.0002 28.6606 27.3682 29.1376 26.6041C29.6325 25.8294 29.8907 24.9423 29.8841 24.0396C29.8855 23.5762 29.8191 23.1148 29.6867 22.6683L29.6683 22.607C29.7721 22.9014 29.8534 23.2029 29.9115 23.5092C30.0427 24.2378 30.0427 24.9819 29.9115 25.7106C29.7877 26.4195 29.5305 27.1023 29.1521 27.7271C28.7862 28.3329 28.2512 28.8341 27.6043 29.1767C25.8769 30.1361 24.0803 30.9817 22.2275 31.7075C20.6326 32.3059 19.2348 32.7058 18.0338 32.9074C16.8329 33.109 15.8476 33.1135 15.0781 32.9209C14.3095 32.7454 13.7657 32.4026 13.4467 31.8924C13.2018 31.4884 13.244 30.8382 13.5736 29.942C13.8991 29.0568 15.2153 27.9924 17.5224 26.749C16.7962 27.1474 16.1798 27.7006 15.7237 28.3642C15.2722 29.0318 15.3 29.7787 15.8073 30.6047C16.0696 31.0268 16.5576 31.2814 17.2715 31.3687C18.0036 31.4587 18.8759 31.4015 19.8885 31.1973C21.0417 30.9557 22.1715 30.6253 23.2665 30.2093C24.5746 29.7018 25.8443 29.1115 27.0668 28.4425L27.1258 28.4357Z" fill="url(#paint10_linear_3169_9529)"/>
<path d="M26.754 15.5457C28.3646 15.5392 29.9735 15.6448 31.5674 15.8615C32.8863 16.0502 34.1823 16.3594 35.4368 16.7847C36.5349 17.1708 37.403 17.6207 38.0409 18.1345C38.6779 18.6609 38.9968 19.2143 38.9978 19.7947C38.9978 20.4623 38.5851 21.0819 37.7599 21.6533C36.9346 22.2247 35.8297 22.6948 34.4453 23.0637C34.9408 22.8147 35.388 22.4894 35.7682 22.1014C36.0627 21.8129 36.2331 21.4327 36.2467 21.0337C36.2467 20.5604 35.9935 20.1038 35.4872 19.6637C34.8512 19.1635 34.127 18.7707 33.3472 18.503C32.3069 18.1327 31.2333 17.8504 30.1392 17.6594C28.8301 17.4218 27.5031 17.281 26.1704 17.2383V15.5457H26.754Z" fill="url(#paint11_linear_3169_9529)"/>
<path d="M24.3387 16.9683C24.3387 16.738 24.3107 16.5084 24.2551 16.284C24.202 16.0684 24.1305 15.8571 24.0413 15.6522C23.5208 15.6916 23.0243 15.7407 22.5517 15.7994C22.0742 15.8588 21.6097 15.9335 21.1582 16.0235L21.3268 15.9978C21.2331 16.1733 21.1337 16.3812 21.0314 16.6174C20.929 16.8536 20.8397 17.0871 20.7647 17.3152L20.7085 17.4205C21.31 17.3656 21.9104 17.3206 22.5099 17.2855C23.1094 17.2504 23.7099 17.2329 24.3113 17.2329C24.3295 17.1956 24.3389 17.1551 24.3387 17.1141V16.9683Z" fill="url(#paint12_linear_3169_9529)"/>
<path fill-rule="evenodd" clip-rule="evenodd" d="M29.6683 22.607C29.5433 22.2015 29.3605 21.8135 29.1247 21.4535C29.3457 21.8213 29.5276 22.2076 29.6683 22.607ZM24.0577 15.651L24.0289 15.624L24.0413 15.6522L24.0577 15.651Z" fill="url(#paint13_linear_3169_9529)"/>
<path d="M14.8259 18.893L14.8533 18.8674C15.1959 18.4235 15.6147 18.0358 16.0926 17.7201C16.5858 17.3919 17.1257 17.1302 17.6966 16.9427C17.6591 17.1006 17.6217 17.268 17.5842 17.4434C17.5453 17.6256 17.5265 17.811 17.528 17.9968L17.443 18.0238C16.9807 18.1269 16.5251 18.2544 16.0782 18.4058C15.6489 18.5507 15.2305 18.7225 14.8259 18.92V18.893Z" fill="url(#paint14_linear_3169_9529)"/>
</g>
</g>
<defs>
<linearGradient id="paint0_linear_3169_9529" x1="4.35188" y1="7.22004" x2="41.0634" y2="44.6514" gradientUnits="userSpaceOnUse">
<stop stop-color="white"/>
<stop offset="1" stop-color="#EAECEE"/>
</linearGradient>
<linearGradient id="paint1_linear_3169_9529" x1="15.8047" y1="17.0193" x2="29.6285" y2="34.3589" gradientUnits="userSpaceOnUse">
<stop stop-color="#0195FF"/>
<stop offset="0.991028" stop-color="#1147E9"/>
</linearGradient>
<linearGradient id="paint2_linear_3169_9529" x1="15.8047" y1="17.0193" x2="29.6285" y2="34.3589" gradientUnits="userSpaceOnUse">
<stop stop-color="#0195FF"/>
<stop offset="0.991028" stop-color="#1147E9"/>
</linearGradient>
<linearGradient id="paint3_linear_3169_9529" x1="15.8047" y1="17.0193" x2="29.6285" y2="34.3589" gradientUnits="userSpaceOnUse">
<stop stop-color="#0195FF"/>
<stop offset="0.991028" stop-color="#1147E9"/>
</linearGradient>
<linearGradient id="paint4_linear_3169_9529" x1="15.8047" y1="17.0193" x2="29.6285" y2="34.3589" gradientUnits="userSpaceOnUse">
<stop stop-color="#0195FF"/>
<stop offset="0.991028" stop-color="#1147E9"/>
</linearGradient>
<linearGradient id="paint5_linear_3169_9529" x1="20.4198" y1="15.3018" x2="37.2465" y2="25.5889" gradientUnits="userSpaceOnUse">
<stop stop-color="#00BBFF"/>
<stop offset="1" stop-color="#008BFF"/>
</linearGradient>
<linearGradient id="paint6_linear_3169_9529" x1="20.4198" y1="15.3018" x2="37.2465" y2="25.5889" gradientUnits="userSpaceOnUse">
<stop stop-color="#00BBFF"/>
<stop offset="1" stop-color="#008BFF"/>
</linearGradient>
<linearGradient id="paint7_linear_3169_9529" x1="20.4198" y1="15.3018" x2="37.2465" y2="25.5889" gradientUnits="userSpaceOnUse">
<stop stop-color="#00BBFF"/>
<stop offset="1" stop-color="#008BFF"/>
</linearGradient>
<linearGradient id="paint8_linear_3169_9529" x1="20.4198" y1="15.3018" x2="37.2465" y2="25.5889" gradientUnits="userSpaceOnUse">
<stop stop-color="#00BBFF"/>
<stop offset="1" stop-color="#008BFF"/>
</linearGradient>
<linearGradient id="paint9_linear_3169_9529" x1="20.4198" y1="15.3018" x2="37.2465" y2="25.5889" gradientUnits="userSpaceOnUse">
<stop stop-color="#00BBFF"/>
<stop offset="1" stop-color="#008BFF"/>
</linearGradient>
<linearGradient id="paint10_linear_3169_9529" x1="17.0908" y1="18.1225" x2="28.4818" y2="34.9123" gradientUnits="userSpaceOnUse">
<stop stop-color="#1348FF"/>
<stop offset="1" stop-color="#06238D"/>
</linearGradient>
<linearGradient id="paint11_linear_3169_9529" x1="17.0908" y1="18.1225" x2="28.4818" y2="34.9123" gradientUnits="userSpaceOnUse">
<stop stop-color="#1348FF"/>
<stop offset="1" stop-color="#06238D"/>
</linearGradient>
<linearGradient id="paint12_linear_3169_9529" x1="17.0908" y1="18.1225" x2="28.4818" y2="34.9123" gradientUnits="userSpaceOnUse">
<stop stop-color="#1348FF"/>
<stop offset="1" stop-color="#06238D"/>
</linearGradient>
<linearGradient id="paint13_linear_3169_9529" x1="17.0908" y1="18.1225" x2="28.4818" y2="34.9123" gradientUnits="userSpaceOnUse">
<stop stop-color="#1348FF"/>
<stop offset="1" stop-color="#06238D"/>
</linearGradient>
<linearGradient id="paint14_linear_3169_9529" x1="17.0908" y1="18.1225" x2="28.4818" y2="34.9123" gradientUnits="userSpaceOnUse">
<stop stop-color="#1348FF"/>
<stop offset="1" stop-color="#06238D"/>
</linearGradient>
<clipPath id="clip0_3169_9529">
<rect width="47.9998" height="47.9998" fill="white" transform="translate(-0.00195312 0.000976562)"/>
</clipPath>
<clipPath id="clip1_3169_9529">
<rect width="27" height="27" fill="white" transform="translate(11.998 11.251)"/>
</clipPath>
</defs>
</svg>
