<svg width="48" height="48" viewBox="0 0 48 48" fill="none" xmlns="http://www.w3.org/2000/svg">
<g clip-path="url(#clip0_3169_9520)">
<circle cx="23.998" cy="24.4071" r="23.5713" fill="url(#paint0_linear_3169_9520)" stroke="#D5DADD" stroke-width="0.85714"/>
<g clip-path="url(#clip1_3169_9520)">
<path d="M12.9936 13.7422C12.3027 14.4024 11.7631 15.3203 11.748 16.4705C11.748 16.4705 11.7824 31.2859 11.7825 31.2821L11.7825 31.2842C11.7836 33.8672 13.8148 35.2627 15.6195 35.9543C17.0911 36.5183 19.363 36.8111 21.3865 36.9164C22.332 36.9656 23.1002 36.1953 23.1008 35.2485L23.1009 35.1128C23.1014 34.241 22.3947 33.5615 21.5233 33.5343C19.6793 33.4767 17.9721 33.2087 16.726 32.7312C15.2085 32.1496 15.0275 31.558 15.0275 31.2821L15.0257 29.1781C15.2296 29.2432 15.4444 29.323 15.6641 29.4046C16.0726 29.5563 16.4977 29.7141 16.8997 29.7956C17.0555 29.8271 17.4001 29.8745 17.7747 29.9224C18.3783 29.9995 18.9115 29.5256 18.9115 28.9172V28.7454C18.9115 28.7009 18.9087 28.6569 18.903 28.6136C18.8968 28.5809 18.8909 28.5482 18.8854 28.5154C18.792 28.1101 18.4577 27.7866 18.0345 27.7114C17.7989 27.6696 17.5932 27.6317 17.5196 27.6168C16.5037 27.4109 15.6169 27.0599 15.0179 26.7835L15.0142 24.2159C15.1871 24.2713 15.3679 24.3341 15.5529 24.3984C15.9951 24.552 16.461 24.7139 16.8997 24.8028C17.4122 24.9066 18.3027 25.0458 19.1147 25.1549C19.3463 25.186 19.5684 25.1337 19.7528 25.0216C19.8726 24.8651 20.0031 24.7158 20.1438 24.5749L20.1459 24.5728C20.1461 24.5726 20.1463 24.5724 20.1466 24.5721C20.1858 24.4833 20.2127 24.3872 20.225 24.2858L20.2372 24.186C20.305 23.628 19.9054 23.1205 19.3489 23.0416C18.7383 22.9551 18.1043 22.8548 17.7722 22.7875C16.7497 22.5804 15.6064 22.2009 15.0064 21.9225L15.0019 19.2132C15.1586 19.2793 15.3174 19.3415 15.4776 19.3999C17.3173 20.0712 19.7276 20.3968 22.2701 20.3968C22.554 20.3968 22.8362 20.3927 23.1162 20.3846C23.584 18.8098 24.9072 17.5587 26.528 17.2113C26.7027 16.9563 26.9045 16.7183 27.1312 16.5016C28.6886 15.0127 31.091 14.8675 32.8146 16.0586C32.6979 15.0937 32.2024 14.3142 31.5951 13.7381C30.9206 13.0981 30.0428 12.6359 29.1208 12.2965C27.2673 11.6142 24.8334 11.2832 22.2696 11.2832C19.7059 11.2832 17.2894 11.6142 15.4493 12.2983C14.533 12.6389 13.6634 13.1021 12.9936 13.7422Z" fill="url(#paint1_linear_3169_9520)"/>
<path fill-rule="evenodd" clip-rule="evenodd" d="M35.6939 20.6705C35.547 20.2627 35.307 19.8905 34.9884 19.5857C34.4338 19.0553 33.6479 18.7644 32.8985 18.8058C32.7514 18.3981 32.5111 18.0261 32.1923 17.7214C31.1169 16.6939 29.3731 16.6924 28.2971 17.721C27.9782 18.0259 27.7381 18.3984 27.5913 18.8065C26.0156 18.7157 24.6218 20.0586 24.6218 21.6303V25.2478C24.2276 25.047 23.788 24.9395 23.3373 24.9395C22.5878 24.9395 21.8681 25.2377 21.3377 25.767C20.8079 26.2976 20.5103 27.0167 20.5103 27.7665C20.5103 28.5167 20.809 29.2366 21.3386 29.7669L21.3414 29.7697C22.7872 31.1968 24.009 32.8322 25.4822 34.2344C27.0321 35.7096 28.8933 37.0009 31.1458 37.0009C33.5603 37.0009 35.4691 35.9516 36.7548 34.2673C38.0258 32.6024 38.6637 30.3542 38.6637 27.9468V23.4938C38.6637 21.905 37.2836 20.583 35.6939 20.6705ZM31.1423 34.8525C29.9752 34.8525 28.9034 34.3759 28.0268 33.5807L22.8386 28.2611C22.7195 28.1278 22.656 27.9539 22.661 27.7752C22.6661 27.5965 22.7393 27.4265 22.8657 27.3001C22.9922 27.1737 23.1621 27.1005 23.3408 27.0954C23.5195 27.0904 23.6934 27.1539 23.8267 27.273L24.6611 28.1071C25.4331 28.8788 26.7527 28.332 26.7527 27.2405C26.7527 25.3977 26.7493 23.4967 26.7493 21.6302C26.7493 21.4452 26.8227 21.2678 26.9535 21.137C27.0844 21.0062 27.2618 20.9327 27.4468 20.9327C27.6317 20.9327 27.8092 21.0062 27.94 21.137C28.0708 21.2678 28.1443 21.4452 28.1443 21.6302V26.0582C28.1443 26.4441 28.4571 26.7569 28.8429 26.7569C29.2288 26.7569 29.5416 26.4441 29.5416 26.0582V19.7656C29.5416 19.5806 29.6151 19.4032 29.7459 19.2724C29.8767 19.1416 30.0541 19.0681 30.2391 19.0681C30.4241 19.0681 30.6015 19.1416 30.7323 19.2724C30.8631 19.4032 30.9366 19.5806 30.9366 19.7656V26.057C30.9366 26.4435 31.2499 26.7569 31.6364 26.7569C32.0229 26.7569 32.3362 26.4435 32.3362 26.057V21.6302C32.3362 21.4452 32.4097 21.2678 32.5405 21.137C32.6713 21.0062 32.8487 20.9327 33.0337 20.9327C33.2187 20.9327 33.3961 21.0062 33.5269 21.137C33.6577 21.2678 33.7312 21.4452 33.7312 21.6302V26.0576C33.7312 26.4438 34.0443 26.7569 34.4305 26.7569C34.8167 26.7569 35.1297 26.4438 35.1297 26.0576V23.4937C35.13 23.3317 35.1866 23.1749 35.2899 23.0502C35.3932 22.9254 35.5367 22.8405 35.6958 22.8099C35.9062 22.7695 36.1304 22.8321 36.289 22.9722C36.45 23.1144 36.4747 23.3446 36.475 23.5595C36.475 23.8615 36.4773 24.1749 36.4796 24.495C36.5113 28.8068 36.5534 34.52 31.1423 34.8525Z" fill="url(#paint2_linear_3169_9520)"/>
</g>
</g>
<defs>
<linearGradient id="paint0_linear_3169_9520" x1="4.3509" y1="7.22004" x2="41.0624" y2="44.6514" gradientUnits="userSpaceOnUse">
<stop stop-color="white"/>
<stop offset="1" stop-color="#EAECEE"/>
</linearGradient>
<linearGradient id="paint1_linear_3169_9520" x1="14.906" y1="15.1168" x2="32.5167" y2="29.5938" gradientUnits="userSpaceOnUse">
<stop stop-color="#0195FF"/>
<stop offset="0.991028" stop-color="#1147E9"/>
</linearGradient>
<linearGradient id="paint2_linear_3169_9520" x1="23.1941" y1="19.9001" x2="37.1634" y2="32.6021" gradientUnits="userSpaceOnUse">
<stop stop-color="#1348FF"/>
<stop offset="1" stop-color="#06238D"/>
</linearGradient>
<clipPath id="clip0_3169_9520">
<rect width="47.9998" height="47.9998" fill="white" transform="translate(-0.00195312 0.000976562)"/>
</clipPath>
<clipPath id="clip1_3169_9520">
<rect width="27" height="27" fill="white" transform="translate(11.748 10.001)"/>
</clipPath>
</defs>
</svg>
