<svg width="48" height="49" viewBox="0 0 48 49" fill="none" xmlns="http://www.w3.org/2000/svg">
<circle cx="24" cy="24.9482" r="23.5714" fill="url(#paint0_linear_3219_20080)" stroke="#D5DADD" stroke-width="0.857143"/>
<g clip-path="url(#clip0_3219_20080)">
<path fill-rule="evenodd" clip-rule="evenodd" d="M18.147 22.6681C18.5526 23.2244 18.4304 24.0042 17.8741 24.4098C17.0852 24.9849 16.4227 25.7211 15.9347 26.5699C16.6879 26.6818 17.4217 26.772 18.1344 26.8418C18.1824 26.6264 18.235 26.415 18.2922 26.2082C18.4411 25.6692 18.9988 25.353 19.5378 25.5019C20.0768 25.6508 20.393 26.2085 20.244 26.7475C20.2219 26.8275 20.2006 26.9084 20.18 26.9903C21.4809 27.0506 22.696 27.0392 23.8129 26.9661C23.7945 26.8934 23.7754 26.8215 23.7558 26.7503C23.607 26.2112 23.9233 25.6536 24.4624 25.5049C25.0014 25.3561 25.559 25.6724 25.7078 26.2115C25.7565 26.3882 25.802 26.5682 25.8441 26.7513C26.1851 26.7 26.5133 26.6422 26.8284 26.5782C27.3763 26.4668 27.9109 26.8207 28.0222 27.3687C28.1336 27.9167 27.7796 28.4512 27.2316 28.5626C26.8849 28.6331 26.5254 28.6965 26.1537 28.7525C26.1902 29.1839 26.2091 29.6251 26.2091 30.0734C26.2091 30.4904 26.1906 30.8974 26.1552 31.2933C27.0128 31.161 27.9091 30.9935 28.8656 30.7926C28.8932 30.5412 28.9073 30.2858 28.9073 30.027C28.9073 29.57 28.8634 29.1244 28.7798 28.6939C28.6485 28.018 29.09 27.3637 29.7659 27.2325C30.4417 27.1013 31.096 27.5428 31.2272 28.2186C31.3411 28.8049 31.4005 29.4096 31.4005 30.027C31.4005 35.2403 27.1744 39.4664 21.9611 39.4664C16.7479 39.4664 12.5217 35.2403 12.5217 30.027C12.5217 26.8894 14.0538 24.1095 16.4053 22.3951C16.9616 21.9895 17.7414 22.1117 18.147 22.6681ZM28.249 32.9827C27.3934 33.1477 26.5783 33.2848 25.7885 33.3925C25.5345 34.3455 25.1764 35.203 24.7442 35.9444C24.6224 36.1535 24.4933 36.3553 24.3577 36.5487C26.0757 35.9172 27.475 34.6263 28.249 32.9827ZM24.0906 31.5488C24.1512 31.0811 24.1841 30.5885 24.1841 30.0734C24.1841 29.6985 24.169 29.3312 24.1401 28.9734C22.8214 29.0685 21.3876 29.0816 19.8567 29.0018C19.8292 29.3506 19.815 29.7084 19.815 30.0734C19.815 30.602 19.8495 31.1068 19.9132 31.5854C21.3184 31.6919 22.6722 31.6767 24.0906 31.5488ZM20.4103 33.6459C21.4791 33.7012 22.5276 33.6907 23.5986 33.6186C23.4251 34.1007 23.2204 34.5375 22.9947 34.9247C22.6813 35.4624 22.34 35.8855 21.9995 36.2038C21.6591 35.8855 21.3177 35.4624 21.0043 34.9247C20.7829 34.5448 20.5817 34.1172 20.4103 33.6459ZM17.8488 31.3481C17.8102 30.9349 17.79 30.5096 17.79 30.0734C17.79 29.6579 17.8061 29.2485 17.8376 28.8473C16.9771 28.761 16.0912 28.6469 15.1825 28.5032C15.0728 28.9936 15.0149 29.5036 15.0149 30.027C15.0149 30.2912 15.0297 30.552 15.0584 30.8085C16.043 31.0346 16.965 31.2138 17.8488 31.3481ZM15.6899 33.0176C16.5719 33.1977 17.4114 33.3399 18.2249 33.4456C18.4779 34.3774 18.8307 35.2168 19.2548 35.9444C19.3844 36.1668 19.5222 36.381 19.6673 36.5856C17.9147 35.9727 16.4826 34.6771 15.6899 33.0176Z" fill="url(#paint1_linear_3219_20080)"/>
<path fill-rule="evenodd" clip-rule="evenodd" d="M24.8639 21.8975C25.247 22.2946 25.631 22.6978 26.0485 23.0588C26.2433 23.2501 26.4917 23.3723 26.7854 23.3723C27.1041 23.3723 27.3695 23.2284 27.5708 23.0086C27.7907 22.8073 27.9346 22.5419 27.9346 22.2232C27.9346 21.916 27.8009 21.6584 27.5943 21.4599C27.2412 21.1205 26.7445 20.5952 26.3425 20.1516C26.4246 20.0379 26.5091 19.916 26.5959 19.786C26.7701 19.5531 26.9434 19.3026 27.1157 19.0349C27.6473 18.2658 27.9888 17.4462 28.376 16.6073C28.4509 16.4389 28.5068 16.2607 28.5431 16.0801H29.4346C30.1028 16.0801 30.5552 15.5896 30.5552 14.931C30.5552 14.2674 30.0981 13.8103 29.4346 13.8103H25.9406V13.6206C25.9406 13.3103 25.8385 13.0131 25.592 12.7946C25.3687 12.5792 25.08 12.5 24.7915 12.5C24.5013 12.5 24.1982 12.5728 23.9709 12.8001C23.7437 13.0274 23.6708 13.3305 23.6708 13.6206V13.8103H20.1483C19.503 13.8103 19.0277 14.2873 19.0277 14.931C19.0277 15.5831 19.484 16.0801 20.1483 16.0801H26.203C25.8959 16.6744 25.5877 17.2485 25.2063 17.7994C25.0742 17.9985 24.946 18.1998 24.8089 18.3956L24.803 18.4043L24.7989 18.4105C24.3971 18.0087 24.0976 17.5599 23.8196 17.0705C23.6708 16.7889 23.4735 16.5699 23.1548 16.499C22.5605 16.367 22.0207 16.6364 21.7739 17.1917L21.7683 17.2043L21.7635 17.2173C21.6552 17.5059 21.6905 17.8064 21.7903 18.081L21.7965 18.098L21.804 18.1145C21.9158 18.3604 22.0677 18.6077 22.2542 18.8564L22.2613 18.8659L22.269 18.8751C22.4508 19.0932 22.6337 19.3309 22.8175 19.5883L22.8399 19.6196L22.8671 19.6468C23.0055 19.7852 23.1236 19.9206 23.2227 20.0528L23.2332 20.0668L23.3582 20.2096L20.7592 22.8341C20.5491 23.0446 20.4235 23.3122 20.4235 23.619C20.4235 23.9263 20.5486 24.1933 20.7592 24.4039C20.9699 24.6145 21.2368 24.7396 21.5441 24.7396C21.8476 24.7396 22.1143 24.6181 22.3349 24.4251L22.3466 24.4149L24.8639 21.8975Z" fill="url(#paint2_linear_3219_20080)"/>
<path fill-rule="evenodd" clip-rule="evenodd" d="M28.7282 23.9219L31.591 16.7803C31.7145 16.5409 31.859 16.3452 32.0997 16.2227C32.2806 16.1306 32.5415 16.082 32.7634 16.082C32.959 16.082 33.1501 16.1234 33.3213 16.2227C33.5513 16.3429 33.6863 16.549 33.7504 16.7803L36.6131 23.9219C36.8577 24.482 36.5783 25.1737 35.9886 25.3636C35.4054 25.6085 34.7878 25.2789 34.5413 24.7242L34.5348 24.7097L33.9832 23.3167H31.3581L30.8004 24.7244C30.5576 25.2705 29.9515 25.6058 29.378 25.3613C28.7895 25.1546 28.4755 24.5006 28.7282 23.9219ZM32.6707 19.0349L31.6817 21.4763H33.6905L32.6707 19.0349Z" fill="url(#paint3_linear_3219_20080)"/>
</g>
<defs>
<linearGradient id="paint0_linear_3219_20080" x1="4.35287" y1="7.76108" x2="41.0645" y2="45.1925" gradientUnits="userSpaceOnUse">
<stop stop-color="white"/>
<stop offset="1" stop-color="#EAECEE"/>
</linearGradient>
<linearGradient id="paint1_linear_3219_20080" x1="15.3517" y1="24.7445" x2="27.4268" y2="37.918" gradientUnits="userSpaceOnUse">
<stop stop-color="#0195FF"/>
<stop offset="0.991028" stop-color="#1147E9"/>
</linearGradient>
<linearGradient id="paint2_linear_3219_20080" x1="20.732" y1="14.3007" x2="29.2846" y2="22.3905" gradientUnits="userSpaceOnUse">
<stop stop-color="#1348FF"/>
<stop offset="1" stop-color="#06238D"/>
</linearGradient>
<linearGradient id="paint3_linear_3219_20080" x1="29.8466" y1="17.4869" x2="36.3295" y2="23.0644" gradientUnits="userSpaceOnUse">
<stop stop-color="#00BBFF"/>
<stop offset="1" stop-color="#008BFF"/>
</linearGradient>
<clipPath id="clip0_3219_20080">
<rect width="27" height="27" fill="white" transform="translate(12.5 12.5)"/>
</clipPath>
</defs>
</svg>
