<svg width="48" height="48" viewBox="0 0 48 48" fill="none" xmlns="http://www.w3.org/2000/svg">
<g clip-path="url(#clip0_3169_9511)">
<circle cx="23.9999" cy="24.4071" r="23.5713" fill="url(#paint0_linear_3169_9511)" stroke="#D5DADD" stroke-width="0.85714"/>
<g clip-path="url(#clip1_3169_9511)">
<path d="M23.9996 17.0181C20.328 17.0181 17.377 20.0343 17.377 23.7234C17.377 25.2163 17.8601 26.5992 18.6781 27.7155C19.3807 28.6743 19.8938 29.4715 19.9887 30.3231L20.2218 32.414C20.2793 32.9298 20.7153 33.32 21.2344 33.32H26.4027C26.8868 33.32 27.3041 32.9792 27.401 32.5048L27.8763 30.1757C28.0287 29.4289 28.5109 28.745 29.1661 27.9188C30.0776 26.7693 30.6223 25.3086 30.6223 23.7234C30.6223 20.0343 27.6712 17.0181 23.9996 17.0181Z" fill="url(#paint1_linear_3169_9511)"/>
<path fill-rule="evenodd" clip-rule="evenodd" d="M23.9995 10.5254C24.7451 10.5254 25.3495 11.1298 25.3495 11.8754V13.6921C25.3495 14.4377 24.7451 15.0421 23.9995 15.0421C23.2539 15.0421 22.6495 14.4377 22.6495 13.6921V11.8754C22.6495 11.1298 23.2539 10.5254 23.9995 10.5254ZM10.8501 21.1537C10.8501 20.4081 11.4545 19.8037 12.2001 19.8037H14.0168C14.7624 19.8037 15.3668 20.4081 15.3668 21.1537C15.3668 21.8993 14.7624 22.5037 14.0168 22.5037L12.2001 22.5037C11.4545 22.5037 10.8501 21.8993 10.8501 21.1537ZM33.9822 19.8037C33.2366 19.8037 32.6322 20.4081 32.6322 21.1537C32.6322 21.8993 33.2366 22.5037 33.9822 22.5037H35.7989C36.5445 22.5037 37.1489 21.8993 37.1489 21.1537C37.1489 20.4081 36.5445 19.8037 35.7989 19.8037H33.9822ZM15.0894 13.388C15.6166 12.8608 16.4714 12.8608 16.9986 13.388L18.2832 14.6726C18.8104 15.1998 18.8104 16.0546 18.2832 16.5818C17.756 17.109 16.9012 17.109 16.374 16.5818L15.0894 15.2972C14.5622 14.7699 14.5622 13.9152 15.0894 13.388ZM31.0004 13.388C31.5276 12.8608 32.3824 12.8608 32.9096 13.388C33.4368 13.9152 33.4368 14.77 32.9096 15.2972L31.6249 16.5819C31.0977 17.1091 30.243 17.1091 29.7157 16.5819C29.1885 16.0546 29.1885 15.1999 29.7157 14.6727L31.0004 13.388Z" fill="url(#paint2_linear_3169_9511)"/>
<path fill-rule="evenodd" clip-rule="evenodd" d="M20.4414 36.1405C20.4414 35.3949 21.0458 34.7905 21.7914 34.7905H26.2073C26.9529 34.7905 27.5573 35.3949 27.5573 36.1405C27.5573 36.8861 26.9529 37.4905 26.2073 37.4905H21.7914C21.0458 37.4905 20.4414 36.8861 20.4414 36.1405Z" fill="url(#paint3_linear_3169_9511)"/>
</g>
</g>
<defs>
<linearGradient id="paint0_linear_3169_9511" x1="4.35285" y1="7.22004" x2="41.0643" y2="44.6514" gradientUnits="userSpaceOnUse">
<stop stop-color="white"/>
<stop offset="1" stop-color="#EAECEE"/>
</linearGradient>
<linearGradient id="paint1_linear_3169_9511" x1="19.3625" y1="19.4559" x2="30.5361" y2="28.5376" gradientUnits="userSpaceOnUse">
<stop stop-color="#0195FF"/>
<stop offset="0.991028" stop-color="#1147E9"/>
</linearGradient>
<linearGradient id="paint2_linear_3169_9511" x1="14.7859" y1="12.3225" x2="21.1164" y2="26.2115" gradientUnits="userSpaceOnUse">
<stop stop-color="#00BBFF"/>
<stop offset="1" stop-color="#008BFF"/>
</linearGradient>
<linearGradient id="paint3_linear_3169_9511" x1="21.4934" y1="35.1878" x2="22.7429" y2="38.4949" gradientUnits="userSpaceOnUse">
<stop stop-color="#1348FF"/>
<stop offset="1" stop-color="#06238D"/>
</linearGradient>
<clipPath id="clip0_3169_9511">
<rect width="47.9998" height="47.9998" fill="white" transform="translate(-0.00146484 0.000976562)"/>
</clipPath>
<clipPath id="clip1_3169_9511">
<rect width="26.9999" height="26.9999" fill="white" transform="translate(10.4995 10.501)"/>
</clipPath>
</defs>
</svg>
