<svg width="48" height="48" viewBox="0 0 48 48" fill="none" xmlns="http://www.w3.org/2000/svg">
<g clip-path="url(#clip0_3169_9548)">
<circle cx="24.0009" cy="24.4071" r="23.5713" fill="url(#paint0_linear_3169_9548)" stroke="#D5DADD" stroke-width="0.85714"/>
<g clip-path="url(#clip1_3169_9548)">
<path fill-rule="evenodd" clip-rule="evenodd" d="M28.7427 22.1672C29.0658 22.7749 29.249 23.4684 29.249 24.2047C29.249 24.5997 29.1963 24.9823 29.0975 25.346L30.3387 26.3069C30.9282 26.7633 31.0361 27.6112 30.5797 28.2008C30.1233 28.7903 29.2754 28.8983 28.6858 28.4419L27.6072 27.6068C26.8652 28.1972 25.9256 28.55 24.9037 28.55C23.1763 28.55 21.6843 27.5421 20.9838 26.0822L20.1993 26.2534C19.4708 26.4123 18.7515 25.9506 18.5926 25.2221C18.4337 24.4937 18.8954 23.7743 19.6238 23.6154L20.6337 23.3951C21.013 21.3822 22.7805 19.8594 24.9037 19.8594C25.5819 19.8594 26.2239 20.0148 26.7959 20.2919L28.427 18.754C28.9694 18.2425 29.8238 18.2676 30.3353 18.8101C30.8468 19.3526 30.8217 20.207 30.2792 20.7185L28.7427 22.1672ZM22.9209 24.2047C22.9209 23.1096 23.8086 22.2219 24.9037 22.2219C25.9987 22.2219 26.8865 23.1096 26.8865 24.2047C26.8865 25.2998 25.9987 26.1875 24.9037 26.1875C23.8086 26.1875 22.9209 25.2998 22.9209 24.2047Z" fill="url(#paint1_linear_3169_9548)"/>
<path fill-rule="evenodd" clip-rule="evenodd" d="M15.2719 14.7636C15.2719 12.9477 16.744 11.4756 18.56 11.4756C19.8378 11.4756 20.9453 12.2045 21.4895 13.2692L30.2214 13.5624C30.7976 12.3548 32.0299 11.5204 33.4571 11.5204C35.4361 11.5204 37.0404 13.1247 37.0404 15.1037C37.0404 16.4456 36.3028 17.6152 35.2109 18.2291L35.5609 28.0302C36.698 28.5476 37.4886 29.6937 37.4886 31.0245C37.4886 32.8404 36.0165 34.3125 34.2006 34.3125C33.2484 34.3125 32.3908 33.9078 31.7903 33.261L23.8952 35.8652C23.6024 37.3812 22.2683 38.5261 20.6668 38.5261C18.8509 38.5261 17.3788 37.054 17.3788 35.2381C17.3788 34.6628 17.5265 34.1221 17.7861 33.6518L14.6921 29.0172C14.4984 29.0495 14.2995 29.0664 14.0967 29.0664C12.1177 29.0664 10.5134 27.4621 10.5134 25.4832C10.5134 23.5508 12.0431 21.9756 13.9576 21.9026L16.0305 16.8645C15.5568 16.2948 15.2719 15.5625 15.2719 14.7636ZM32.1466 15.1037C32.1466 14.3799 32.7333 13.7932 33.4571 13.7932C34.1808 13.7932 34.7676 14.3799 34.7676 15.1037C34.7676 15.8274 34.1808 16.4141 33.4571 16.4141C32.7333 16.4141 32.1466 15.8274 32.1466 15.1037ZM18.5599 13.8381C18.0487 13.8381 17.6344 14.2525 17.6344 14.7636C17.6344 15.2748 18.0487 15.6892 18.5599 15.6892C19.0711 15.6892 19.4854 15.2748 19.4854 14.7636C19.4854 14.2525 19.0711 13.8381 18.5599 13.8381ZM12.7861 25.4832C12.7861 24.7594 13.3729 24.1727 14.0966 24.1727C14.8204 24.1727 15.4071 24.7594 15.4071 25.4832C15.4071 26.2069 14.8204 26.7936 14.0966 26.7936C13.3729 26.7936 12.7861 26.2069 12.7861 25.4832ZM33.275 31.0245C33.275 30.5133 33.6894 30.0989 34.2005 30.0989C34.7117 30.0989 35.1261 30.5133 35.1261 31.0245C35.1261 31.5356 34.7117 31.95 34.2005 31.95C33.6894 31.95 33.275 31.5356 33.275 31.0245ZM20.6668 34.3125C20.1556 34.3125 19.7412 34.7269 19.7412 35.2381C19.7412 35.7492 20.1556 36.1636 20.6668 36.1636C21.178 36.1636 21.5923 35.7492 21.5923 35.2381C21.5923 34.7269 21.178 34.3125 20.6668 34.3125ZM20.6668 31.95C21.726 31.95 22.6681 32.4508 23.2695 33.2285L30.9281 30.7023C31.0447 29.5036 31.805 28.4934 32.8589 28.0217L32.5211 18.5634C31.3684 18.2523 30.4459 17.3806 30.0641 16.2587L21.6177 15.975C21.1353 17.1914 19.9481 18.0517 18.56 18.0517C18.5273 18.0517 18.4947 18.0512 18.4622 18.0502L16.4982 22.8237C17.2239 23.4794 17.6799 24.428 17.6799 25.4832C17.6799 26.2737 17.4239 27.0044 16.9903 27.597L19.9489 32.0287C20.18 31.9772 20.4202 31.95 20.6668 31.95Z" fill="url(#paint2_linear_3169_9548)"/>
</g>
</g>
<defs>
<linearGradient id="paint0_linear_3169_9548" x1="4.35383" y1="7.22004" x2="41.0653" y2="44.6514" gradientUnits="userSpaceOnUse">
<stop stop-color="white"/>
<stop offset="1" stop-color="#EAECEE"/>
</linearGradient>
<linearGradient id="paint1_linear_3169_9548" x1="20.3799" y1="19.9072" x2="27.5018" y2="28.4178" gradientUnits="userSpaceOnUse">
<stop stop-color="#1348FF"/>
<stop offset="1" stop-color="#06238D"/>
</linearGradient>
<linearGradient id="paint2_linear_3169_9548" x1="14.5571" y1="15.5208" x2="33.4977" y2="34.4153" gradientUnits="userSpaceOnUse">
<stop stop-color="#0195FF"/>
<stop offset="0.991028" stop-color="#1147E9"/>
</linearGradient>
<clipPath id="clip0_3169_9548">
<rect width="47.9998" height="47.9998" fill="white" transform="translate(0 0.000976562)"/>
</clipPath>
<clipPath id="clip1_3169_9548">
<rect width="26.9999" height="26.9999" fill="white" transform="translate(10.501 11.501)"/>
</clipPath>
</defs>
</svg>
