<svg width="48" height="48" viewBox="0 0 48 48" fill="none" xmlns="http://www.w3.org/2000/svg">
<circle cx="24" cy="24" r="23.5714" fill="url(#paint0_linear_3219_19926)" stroke="#D5DADD" stroke-width="0.857143"/>
<path fill-rule="evenodd" clip-rule="evenodd" d="M17.2403 29.5924C17.6444 29.9275 18.0978 30.0852 18.5512 30.0852V30.0754C19.0243 30.0754 19.4777 29.898 19.8325 29.553L21.3207 28.1534C22.3556 28.7645 23.5384 29.0898 24.7309 29.0898C27.4611 29.0898 29.5999 27.9859 30.9107 25.9161C32.1821 23.9055 32.3694 21.471 32.3694 20.1996C32.3694 18.731 32.192 16.2769 30.9501 16.2769C30.7432 16.2769 30.546 16.3557 30.3982 16.5035C28.5551 18.2974 27.6089 18.2875 26.0517 18.2579H25.411C22.1487 18.2579 18.5019 20.5741 18.5019 23.6788C18.5019 23.994 18.536 24.3124 18.6008 24.6217C19.5754 23.9778 20.7455 23.4261 22.0313 23.2762L22.0685 23.2719L22.1059 23.2703C24.963 23.1501 26.4301 22.383 27.163 21.7679C27.534 21.4564 27.7398 21.1653 27.8487 20.9736C27.9035 20.877 27.9347 20.8039 27.9499 20.7643C27.9557 20.7491 27.9592 20.7388 27.9607 20.7341C28.1022 20.2043 28.642 19.8819 29.1777 20.012C29.7211 20.144 30.0546 20.6914 29.9227 21.2348L28.9388 20.9959C29.9227 21.2348 29.9225 21.2357 29.9222 21.2367L29.9218 21.2386L29.9208 21.2426L29.9185 21.2515L29.9128 21.2728C29.9085 21.2885 29.9031 21.3071 29.8965 21.3285C29.8833 21.3714 29.8651 21.4254 29.8408 21.489C29.792 21.6161 29.7184 21.7819 29.6096 21.9734C29.3912 22.3581 29.0346 22.8407 28.4649 23.3189C27.3209 24.2791 25.4042 25.1517 22.231 25.2918C20.895 25.4591 19.6005 26.2905 18.5775 27.1868C18.0748 27.6272 17.666 28.0582 17.3837 28.3786C17.2429 28.5382 17.1348 28.669 17.0634 28.7578C17.0277 28.8023 17.0013 28.8361 16.9846 28.8577L16.9669 28.8807L16.964 28.8845C16.9191 28.9449 16.8686 28.9988 16.814 29.0461C16.9175 29.2361 17.0591 29.4194 17.2403 29.5924Z" fill="url(#paint1_linear_3219_19926)"/>
<path fill-rule="evenodd" clip-rule="evenodd" d="M27.3729 13.7403C21.7066 11.8775 15.603 14.9609 13.7402 20.6272C11.8774 26.2935 14.9608 32.3971 20.6271 34.2599C26.2934 36.1227 32.397 33.0393 34.2598 27.373C34.4927 26.6647 35.2556 26.2793 35.9639 26.5121C36.6722 26.745 37.0576 27.5079 36.8248 28.2162C34.4963 35.2991 26.8668 39.1534 19.7839 36.8249C12.701 34.4964 8.84675 26.8669 11.1752 19.784C13.5037 12.7011 21.1332 8.84685 28.2161 11.1753C28.9244 11.4082 29.3098 12.1711 29.077 12.8794C28.8441 13.5877 28.0812 13.9731 27.3729 13.7403Z" fill="url(#paint2_linear_3219_19926)"/>
<defs>
<linearGradient id="paint0_linear_3219_19926" x1="4.35287" y1="6.81284" x2="41.0645" y2="44.2443" gradientUnits="userSpaceOnUse">
<stop stop-color="white"/>
<stop offset="1" stop-color="#EAECEE"/>
</linearGradient>
<linearGradient id="paint1_linear_3219_19926" x1="19.1137" y1="18.3084" x2="28.7044" y2="29.159" gradientUnits="userSpaceOnUse">
<stop stop-color="#1348FF"/>
<stop offset="1" stop-color="#06238D"/>
</linearGradient>
<linearGradient id="paint2_linear_3219_19926" x1="17.9753" y1="12.059" x2="30.0287" y2="35.9291" gradientUnits="userSpaceOnUse">
<stop stop-color="#0195FF"/>
<stop offset="0.991028" stop-color="#1147E9"/>
</linearGradient>
</defs>
</svg>
