<svg width="48" height="48" viewBox="0 0 48 48" fill="none" xmlns="http://www.w3.org/2000/svg">
<circle cx="24" cy="24" r="23.5714" fill="url(#paint0_linear_3219_19932)" stroke="#D5DADD" stroke-width="0.857143"/>
<path d="M22.1777 37.1458C22.6671 37.6611 23.3252 37.9453 24.0002 37.9453C24.6752 37.9453 25.3502 37.6611 25.789 37.1814L33.2714 29.7764H27.3019C27.0357 29.7764 26.7738 29.745 26.5207 29.6848L26.472 30.1839C26.3453 31.4833 25.4805 32.5931 24.2515 33.0335C23.0225 33.4739 21.6497 33.166 20.7265 32.2428L18.26 29.7764H14.7277L22.1777 37.1458Z" fill="url(#paint1_linear_3219_19932)"/>
<path d="M10.6115 23.2568C10.5377 22.7847 10.5002 22.3026 10.5002 21.8135C10.5002 17.2279 14.1094 13.0547 18.8196 13.0547C20.7771 13.0547 23.1659 14.3399 24.0002 15.613C24.8415 14.3399 27.2233 13.0547 29.1808 13.0547C33.7708 13.0547 37.5002 16.981 37.5002 21.8135C37.5002 22.3013 37.4624 22.7836 37.3882 23.2566C37.0078 23.108 36.5937 23.0264 36.1607 23.0264H29.1566L26.8116 19.3341C26.0393 18.118 24.5803 17.5262 23.1791 17.8607C21.7778 18.1951 20.7434 19.3821 20.6035 20.8159L20.3804 23.1046C20.1449 23.053 19.9028 23.0264 19.658 23.0264H11.8396C11.4063 23.0264 10.9921 23.108 10.6115 23.2568Z" fill="url(#paint2_linear_3219_19932)"/>
<path d="M11.1577 25.236C11.3578 25.1187 11.5909 25.0514 11.8396 25.0514H19.658C19.8391 25.0514 20.0164 25.0878 20.1803 25.1565C20.3403 25.2237 20.4875 25.3217 20.6126 25.4468L22.0467 26.8809L22.619 21.0124C22.6749 20.4389 23.0887 19.9641 23.6492 19.8303C24.2097 19.6966 24.7933 19.9333 25.1022 20.4197L28.0437 25.0514H36.1607C36.4095 25.0514 36.6425 25.1187 36.8427 25.2361C36.473 26.1526 35.9525 27.0031 35.294 27.7514H27.3019C27.098 27.7514 26.9005 27.7054 26.722 27.6205C26.496 27.513 26.3007 27.3431 26.1623 27.1251L24.9256 25.1779L24.4566 29.9874C24.4059 30.5071 24.06 30.9511 23.5684 31.1272C23.0768 31.3034 22.5276 31.1802 22.1584 30.811L19.0988 27.7514H12.7085C12.0467 26.9943 11.5266 26.1466 11.1577 25.236Z" fill="url(#paint3_linear_3219_19932)"/>
<path fill-rule="evenodd" clip-rule="evenodd" d="M23.6491 19.8304C24.2096 19.6966 24.7932 19.9334 25.1021 20.4198L28.0436 25.0515H36.1606C36.9062 25.0515 37.5106 25.6559 37.5106 26.4015C37.5106 27.1471 36.9062 27.7515 36.1606 27.7515H27.3017C26.8397 27.7515 26.4098 27.5152 26.1621 27.1252L24.9255 25.178L24.4565 29.9875C24.4058 30.5072 24.0599 30.9511 23.5683 31.1273C23.0767 31.3035 22.5275 31.1803 22.1583 30.8111L19.0987 27.7515H11.8395C11.0939 27.7515 10.4895 27.1471 10.4895 26.4015C10.4895 25.6559 11.0939 25.0515 11.8395 25.0515H19.6579C20.0159 25.0515 20.3593 25.1937 20.6125 25.4469L22.0466 26.881L22.6189 21.0125C22.6748 20.439 23.0886 19.9642 23.6491 19.8304Z" fill="url(#paint4_linear_3219_19932)"/>
<defs>
<linearGradient id="paint0_linear_3219_19932" x1="4.35287" y1="6.81284" x2="41.0645" y2="44.2443" gradientUnits="userSpaceOnUse">
<stop stop-color="white"/>
<stop offset="1" stop-color="#EAECEE"/>
</linearGradient>
<linearGradient id="paint1_linear_3219_19932" x1="14.5477" y1="16.7769" x2="31.918" y2="35.6258" gradientUnits="userSpaceOnUse">
<stop stop-color="#0195FF"/>
<stop offset="0.991028" stop-color="#1147E9"/>
</linearGradient>
<linearGradient id="paint2_linear_3219_19932" x1="14.5477" y1="16.7769" x2="31.918" y2="35.6258" gradientUnits="userSpaceOnUse">
<stop stop-color="#0195FF"/>
<stop offset="0.991028" stop-color="#1147E9"/>
</linearGradient>
<linearGradient id="paint3_linear_3219_19932" x1="14.5477" y1="16.7769" x2="31.918" y2="35.6258" gradientUnits="userSpaceOnUse">
<stop stop-color="#0195FF"/>
<stop offset="0.991028" stop-color="#1147E9"/>
</linearGradient>
<linearGradient id="paint4_linear_3219_19932" x1="14.4844" y1="21.4726" x2="20.1931" y2="35.0465" gradientUnits="userSpaceOnUse">
<stop stop-color="#1348FF"/>
<stop offset="1" stop-color="#06238D"/>
</linearGradient>
</defs>
</svg>
