<svg width="48" height="48" viewBox="0 0 48 48" fill="none" xmlns="http://www.w3.org/2000/svg">
<g clip-path="url(#clip0_3169_9556)">
<circle cx="23.9988" cy="24.0003" r="23.5713" fill="url(#paint0_linear_3169_9556)" stroke="#D5DADD" stroke-width="0.857136"/>
<g clip-path="url(#clip1_3169_9556)">
<path d="M16.5814 18.5856C16.2897 14.7104 19.3951 10.502 23.8317 10.502C27.2684 10.502 29.7902 12.5853 30.9938 15.8187C34.3321 15.5855 37.4989 18.4251 37.4989 22.5024C37.4989 25.0957 36.2666 27.0652 34.4856 28.1683V24.7183C34.4856 24.5958 34.4742 24.4985 34.4709 24.4706C34.4658 24.4273 34.4602 24.3907 34.4563 24.3662C34.4482 24.3164 34.4394 24.2706 34.4322 24.2351C34.4174 24.1627 34.3988 24.0821 34.3785 24.0036C34.3621 23.9405 34.3284 23.815 34.2785 23.6825L34.277 23.6786C34.2682 23.6552 34.2439 23.5904 34.2026 23.5042C33.6291 22.0059 32.2762 21.0274 30.938 20.4444C29.4648 19.8025 27.6458 19.4674 25.7046 19.4674C23.7652 19.4674 21.9466 19.7999 20.4721 20.4405C19.0979 21.0376 17.7129 22.0489 17.1602 23.6093C17.0392 23.8882 16.9237 24.2672 16.9237 24.7263V29.1524H16.0105C12.3766 29.1524 10.499 26.9209 10.499 23.8013C10.499 20.5274 12.8902 17.9436 16.5814 18.5856Z" fill="url(#paint1_linear_3169_9556)"/>
<path fill-rule="evenodd" clip-rule="evenodd" d="M25.7047 21.4917C29.1547 21.4917 31.8363 22.6924 32.3566 24.3574C32.3826 24.3314 32.4607 24.6735 32.4607 24.7176V34.0431C32.4607 36.0122 29.555 37.5011 25.7047 37.5011C21.8544 37.5011 18.9487 36.0122 18.9487 34.0431V24.7256C18.9487 24.5895 18.9888 24.4695 19.0448 24.3574C19.5731 22.6844 22.2547 21.4917 25.7047 21.4917ZM30.8597 24.9497C30.8597 24.2133 28.8025 23.0926 25.7047 23.0926C22.6069 23.0926 20.5497 24.2133 20.5497 24.9497C20.5497 25.6862 22.6069 26.8068 25.7047 26.8068C28.8025 26.8068 30.8597 25.6862 30.8597 24.9497ZM31.0543 29.0636C31.0543 28.5044 30.601 28.0511 30.0418 28.0511C29.4826 28.0511 29.0293 28.5044 29.0293 29.0636V33.7429C29.0293 34.3021 29.4826 34.7554 30.0418 34.7554C30.601 34.7554 31.0543 34.3021 31.0543 33.7429L31.0543 29.0636Z" fill="url(#paint2_linear_3169_9556)"/>
</g>
</g>
<defs>
<linearGradient id="paint0_linear_3169_9556" x1="4.35186" y1="6.81328" x2="41.0632" y2="44.2445" gradientUnits="userSpaceOnUse">
<stop stop-color="white"/>
<stop offset="1" stop-color="#EAECEE"/>
</linearGradient>
<linearGradient id="paint1_linear_3169_9556" x1="14.5464" y1="13.291" x2="26.7584" y2="30.9763" gradientUnits="userSpaceOnUse">
<stop stop-color="#0195FF"/>
<stop offset="0.991028" stop-color="#1147E9"/>
</linearGradient>
<linearGradient id="paint2_linear_3169_9556" x1="20.9464" y1="23.847" x2="31.9992" y2="33.2158" gradientUnits="userSpaceOnUse">
<stop stop-color="#1348FF"/>
<stop offset="1" stop-color="#06238D"/>
</linearGradient>
<clipPath id="clip0_3169_9556">
<rect width="47.9996" height="47.9996" fill="white" transform="translate(-0.000732422 0.000976562)"/>
</clipPath>
<clipPath id="clip1_3169_9556">
<rect width="26.9998" height="26.9998" fill="white" transform="translate(10.4993 10.501)"/>
</clipPath>
</defs>
</svg>
