<svg width="48" height="48" viewBox="0 0 48 48" fill="none" xmlns="http://www.w3.org/2000/svg">
<g clip-path="url(#clip0_3173_14890)">
<circle cx="23.998" cy="23.8716" r="23.5714" fill="url(#paint0_linear_3173_14890)" stroke="#D5DADD" stroke-width="0.857143"/>
<path fill-rule="evenodd" clip-rule="evenodd" d="M15.118 20.2215C15.0634 20.3496 15.0116 20.4792 14.9625 20.6101C14.7005 21.3081 13.9223 21.6617 13.2243 21.3998C12.5262 21.1379 12.1726 20.3596 12.4346 19.6616C14.1907 14.9811 18.7068 11.6465 24.0052 11.6465C29.3036 11.6465 33.8197 14.9811 35.5758 19.6616C35.8378 20.3596 35.4842 21.1379 34.7861 21.3998C34.0881 21.6617 33.3098 21.3081 33.0479 20.6101C33.0061 20.4985 32.9622 20.3879 32.9164 20.2784C32.0682 20.4994 30.9803 20.745 29.7044 20.9518C29.7894 21.2994 29.8599 21.6485 29.9158 21.999C30.0332 22.7352 29.5316 23.4273 28.7953 23.5448C28.059 23.6622 27.3669 23.1605 27.2495 22.4242C27.1894 22.0473 27.107 21.6682 27.0019 21.2873C25.1792 21.4451 23.1198 21.4851 20.9197 21.2892C20.8148 21.6694 20.7326 22.0479 20.6726 22.4242C20.5552 23.1605 19.8631 23.6622 19.1268 23.5448C18.3905 23.4273 17.8889 22.7352 18.0063 21.999C18.0631 21.6426 18.1351 21.2875 18.222 20.934C17.2046 20.7554 16.1672 20.5214 15.118 20.2215ZM21.4177 14.6971C19.502 15.2288 17.8252 16.3362 16.5861 17.8221C17.4466 18.0425 18.298 18.2159 19.1348 18.3492C19.7097 17.1057 20.4733 15.8862 21.4177 14.6971ZM31.454 17.858C30.1881 16.3249 28.4582 15.1897 26.4801 14.6666C27.4387 15.869 28.2122 17.1026 28.7926 18.3608C29.8053 18.2115 30.7019 18.0327 31.454 17.858ZM23.961 15.8548C24.7597 16.7917 25.4103 17.7285 25.9209 18.66C24.6974 18.7348 23.3804 18.7475 21.9996 18.6629C22.5105 17.7304 23.1615 16.7926 23.961 15.8548Z" fill="url(#paint1_linear_3173_14890)"/>
<path d="M14.3249 29.5452C14.1939 29.5786 14.0656 29.6325 13.9447 29.7079C13.312 30.1023 13.1187 30.9349 13.5131 31.5677C15.6922 35.064 19.5757 37.3956 24.0048 37.3956C28.434 37.3956 32.3175 35.064 34.4966 31.5677C34.8909 30.9349 34.6977 30.1023 34.0649 29.7079C33.8025 29.5443 33.5056 29.4818 33.2199 29.5099H33.0136C32.7093 29.614 32.402 29.7067 32.093 29.7863C31.3622 29.9745 30.625 29.8802 29.997 29.5716C29.9058 29.722 29.8 29.8663 29.6795 30.0026L26.081 34.0715C24.9913 35.3038 23.1111 35.4112 21.888 34.3112C20.9806 33.495 20.6913 32.2443 21.0541 31.1535C19.8998 31.0455 18.7683 30.8655 17.6826 30.6148C16.5396 30.3509 15.4039 29.9982 14.3249 29.5452Z" fill="url(#paint2_linear_3173_14890)"/>
<path fill-rule="evenodd" clip-rule="evenodd" d="M37.153 25.1388C37.7049 24.6374 37.7458 23.7836 37.2445 23.2318C36.7431 22.6799 35.8893 22.639 35.3375 23.1403C34.2337 24.1431 32.5734 25.1318 30.9981 25.5376C30.276 25.7236 29.8415 26.4596 30.0275 27.1817C30.2134 27.9037 30.9495 28.3382 31.6715 28.1523C33.7378 27.62 35.7787 26.3874 37.153 25.1388ZM24.2697 26.8788L22.5758 25.3553C22.0498 24.8822 22.0033 24.0697 22.472 23.5397C22.9407 23.0097 23.7464 22.9637 24.2724 23.4368L28.311 27.0692C28.8371 27.5423 28.8835 28.3548 28.4148 28.8848L24.8164 32.9537C24.3477 33.4837 23.542 33.5298 23.016 33.0566C22.4899 32.5835 22.4435 31.771 22.9122 31.241L24.384 29.5767C22.2076 29.6363 20.044 29.4284 18.0617 28.9707C15.2358 28.3182 12.6413 27.1248 10.9498 25.331C10.4383 24.7885 10.4634 23.9341 11.0059 23.4226C11.5483 22.9111 12.4027 22.9362 12.9142 23.4787C14.1032 24.7396 16.1262 25.7527 18.6692 26.3399C20.4095 26.7418 22.3296 26.9286 24.2697 26.8788Z" fill="url(#paint3_linear_3173_14890)"/>
</g>
<defs>
<linearGradient id="paint0_linear_3173_14890" x1="4.35091" y1="6.68442" x2="41.0625" y2="44.1159" gradientUnits="userSpaceOnUse">
<stop stop-color="white"/>
<stop offset="1" stop-color="#EAECEE"/>
</linearGradient>
<linearGradient id="paint1_linear_3173_14890" x1="15.843" y1="13.4283" x2="22.6034" y2="26.6606" gradientUnits="userSpaceOnUse">
<stop stop-color="#0195FF"/>
<stop offset="0.991028" stop-color="#1147E9"/>
</linearGradient>
<linearGradient id="paint2_linear_3173_14890" x1="16.5154" y1="30.6836" x2="20.1034" y2="40.4126" gradientUnits="userSpaceOnUse">
<stop stop-color="#0195FF"/>
<stop offset="0.991028" stop-color="#1147E9"/>
</linearGradient>
<linearGradient id="paint3_linear_3173_14890" x1="14.5758" y1="24.3481" x2="19.5999" y2="37.2145" gradientUnits="userSpaceOnUse">
<stop stop-color="#1348FF"/>
<stop offset="1" stop-color="#06238D"/>
</linearGradient>
<clipPath id="clip0_3173_14890">
<rect width="48" height="48" fill="white" transform="translate(-0.00195312 0.000976562)"/>
</clipPath>
</defs>
</svg>
