<svg width="48" height="48" viewBox="0 0 48 48" fill="none" xmlns="http://www.w3.org/2000/svg">
<g clip-path="url(#clip0_3169_9564)">
<circle cx="23.9974" cy="23.8714" r="23.5712" fill="url(#paint0_linear_3169_9564)" stroke="#D5DADD" stroke-width="0.857136"/>
<g clip-path="url(#clip1_3169_9564)">
<path fill-rule="evenodd" clip-rule="evenodd" d="M23.8127 13.4651C20.758 13.4651 18.4701 16.4282 18.6814 19.2357C18.7127 19.6508 18.5507 20.0571 18.2424 20.3368C17.9341 20.6165 17.5141 20.7384 17.1039 20.6671C15.83 20.4455 14.9057 20.787 14.2959 21.3483C13.665 21.929 13.2513 22.8573 13.2513 23.9968C13.2513 24.9755 13.5058 25.7289 13.9123 26.2586C14.3088 26.7752 14.9268 27.1813 15.8626 27.3476C16.5966 27.4782 17.0859 28.179 16.9554 28.9131C16.8249 29.6472 16.124 30.1364 15.3899 30.0059C13.866 29.735 12.6216 29.0114 11.7705 27.9024C10.9294 26.8066 10.5513 25.4387 10.5513 23.9968C10.5513 22.2114 11.2056 20.5231 12.4674 19.3617C13.4151 18.4894 14.6413 17.9744 16.0334 17.9069C16.5067 14.2686 19.5401 10.7651 23.8127 10.7651C27.2087 10.7651 29.7485 12.6779 31.1093 15.5266C34.522 15.8232 37.373 18.8633 37.373 22.8363C37.373 24.003 37.1371 25.0776 36.7036 26.0274C36.394 26.7057 35.5932 27.0045 34.9149 26.6949C34.2367 26.3854 33.9378 25.5845 34.2474 24.9063C34.5127 24.3249 34.673 23.6348 34.673 22.8363C34.673 19.9038 32.4366 18.0629 30.3054 18.2118C29.7083 18.2535 29.155 17.897 28.9462 17.336C28.0319 14.8799 26.2231 13.4651 23.8127 13.4651Z" fill="url(#paint1_linear_3169_9564)"/>
<path fill-rule="evenodd" clip-rule="evenodd" d="M25.7032 21.4912C29.1533 21.4912 31.8348 22.6919 32.3552 24.3569C32.3812 24.3309 32.4592 24.673 32.4592 24.7171V34.0426C32.4592 36.0118 29.5535 37.5006 25.7032 37.5006C21.853 37.5006 18.9473 36.0118 18.9473 34.0426V24.7251C18.9473 24.589 18.9873 24.469 19.0433 24.3569C19.5716 22.6839 22.2532 21.4912 25.7032 21.4912ZM30.8583 24.9492C30.8583 24.2128 28.8011 23.0922 25.7032 23.0922C22.6054 23.0922 20.5482 24.2128 20.5482 24.9492C20.5482 25.6857 22.6054 26.8063 25.7032 26.8063C28.8011 26.8063 30.8583 25.6857 30.8583 24.9492ZM31.0529 29.0631C31.0529 28.5039 30.5995 28.0506 30.0404 28.0506C29.4812 28.0506 29.0279 28.5039 29.0279 29.0631V33.7424C29.0279 34.3016 29.4812 34.7549 30.0404 34.7549C30.5995 34.7549 31.0529 34.3016 31.0529 33.7424L31.0529 29.0631Z" fill="url(#paint2_linear_3169_9564)"/>
</g>
</g>
<defs>
<linearGradient id="paint0_linear_3169_9564" x1="4.35039" y1="6.68437" x2="41.0617" y2="44.1155" gradientUnits="userSpaceOnUse">
<stop stop-color="white"/>
<stop offset="1" stop-color="#EAECEE"/>
</linearGradient>
<linearGradient id="paint1_linear_3169_9564" x1="14.572" y1="13.6456" x2="27.3507" y2="31.446" gradientUnits="userSpaceOnUse">
<stop stop-color="#0195FF"/>
<stop offset="0.991028" stop-color="#1147E9"/>
</linearGradient>
<linearGradient id="paint2_linear_3169_9564" x1="20.9449" y1="23.8465" x2="31.9978" y2="33.2154" gradientUnits="userSpaceOnUse">
<stop stop-color="#1348FF"/>
<stop offset="1" stop-color="#06238D"/>
</linearGradient>
<clipPath id="clip0_3169_9564">
<rect width="47.9996" height="47.9996" fill="white" transform="translate(-0.00146484 0.000976562)"/>
</clipPath>
<clipPath id="clip1_3169_9564">
<rect width="26.9998" height="26.9998" fill="white" transform="translate(10.4976 10.501)"/>
</clipPath>
</defs>
</svg>
