<svg width="48" height="48" viewBox="0 0 48 48" fill="none" xmlns="http://www.w3.org/2000/svg">
<g clip-path="url(#clip0_3169_9603)">
<circle cx="23.9964" cy="23.8714" r="23.5712" fill="url(#paint0_linear_3169_9603)" stroke="#D5DADD" stroke-width="0.857136"/>
<g clip-path="url(#clip1_3169_9603)">
<path d="M15.5664 33.3032C15.5664 31.0682 17.3783 29.2563 19.6133 29.2563C21.8483 29.2563 23.6602 31.0682 23.6602 33.3032C23.6602 35.5383 21.8483 37.3501 19.6133 37.3501C17.3783 37.3501 15.5664 35.5383 15.5664 33.3032Z" fill="url(#paint1_linear_3169_9603)"/>
<path d="M11.5308 26.1305C11.5308 24.6669 12.7172 23.4805 14.1808 23.4805C15.6443 23.4805 16.8308 24.6669 16.8308 26.1305C16.8308 27.594 15.6443 28.7805 14.1808 28.7805C12.7172 28.7805 11.5308 27.594 11.5308 26.1305Z" fill="url(#paint2_linear_3169_9603)"/>
<path d="M23.1001 25.9994C23.1001 24.7239 24.1341 23.6899 25.4096 23.6899C26.685 23.6899 27.719 24.7239 27.719 25.9994C27.719 27.2749 26.685 28.3089 25.4096 28.3089C24.1341 28.3089 23.1001 27.2749 23.1001 25.9994Z" fill="url(#paint3_linear_3169_9603)"/>
<path fill-rule="evenodd" clip-rule="evenodd" d="M16.1719 18.719C15.9855 19.1809 15.837 19.6602 15.7297 20.1524L15.6182 20.762C15.4903 21.4617 14.8246 21.9294 14.1229 21.8125C13.4212 21.6956 12.943 21.0374 13.0488 20.334C13.0848 20.0947 13.1283 19.8575 13.1789 19.6225C14.1336 15.1968 17.6658 11.5618 22.4027 10.7078C28.6664 9.57847 34.6597 13.7407 35.789 20.0044C36.0663 21.5425 36.0244 23.0674 35.7091 24.5087C35.5553 25.2115 34.861 25.6566 34.1582 25.5028C33.4555 25.3491 33.0104 24.6547 33.1641 23.952C33.4074 22.8399 33.4406 21.6612 33.2252 20.4666C33.1246 19.9085 32.974 19.3718 32.779 18.8606C32.6427 18.8997 32.4952 18.9407 32.337 18.983C31.6205 19.1744 30.682 19.3926 29.5702 19.5776C29.6499 20.0233 29.7071 20.4758 29.7425 20.9358C29.7997 21.6792 29.2435 22.3282 28.5001 22.3855C27.7567 22.4427 27.1077 21.8864 27.0505 21.143C27.0183 20.7248 26.9637 20.3126 26.8848 19.9054C25.4801 20.0153 23.9178 20.041 22.2561 19.9107C22.1342 20.6321 22.0864 21.3716 22.103 22.1353C22.1192 22.8807 21.5281 23.4981 20.7827 23.5143C20.0373 23.5306 19.4199 22.9394 19.4036 22.194C19.384 21.2928 19.4397 20.4188 19.5763 19.5683C18.4643 19.3694 17.3246 19.0924 16.1719 18.719ZM23.046 17.3528C24.089 17.4108 25.0876 17.4033 26.024 17.352C25.6364 16.5659 25.1325 15.7907 24.4954 15.0179C23.8884 15.7882 23.4102 16.5634 23.046 17.3528ZM22.3495 13.3801C21.4232 14.5618 20.7304 15.7774 20.2498 17.0412C19.3598 16.8903 18.4514 16.685 17.5338 16.4138C18.7285 14.9469 20.3925 13.8518 22.3495 13.3801ZM31.4502 16.5223C30.7672 16.6982 29.8843 16.8939 28.847 17.0553C28.3394 15.7935 27.6185 14.583 26.6662 13.4082C28.5589 13.8954 30.243 14.9956 31.4502 16.5223Z" fill="url(#paint4_linear_3169_9603)"/>
<path d="M36.5519 28.3086C36.1708 28.3086 35.8278 28.461 35.5229 28.7659L30.7784 33.5104L28.8921 31.624C28.6253 31.3192 28.3014 31.1667 27.9203 31.1667C27.5392 31.1667 27.1963 31.3192 26.8914 31.624C26.5865 31.9289 26.4341 32.2719 26.4341 32.653C26.4341 33.034 26.5865 33.377 26.8914 33.6819L29.7495 36.54C30.0163 36.8068 30.3593 36.9402 30.7784 36.9402C31.1976 36.9402 31.5406 36.8068 31.8074 36.54L37.5808 30.7666C37.8476 30.4617 37.9809 30.1187 37.9809 29.7377C37.9809 29.3566 37.8476 29.0327 37.5808 28.7659C37.2759 28.461 36.933 28.3086 36.5519 28.3086Z" fill="url(#paint5_linear_3169_9603)"/>
</g>
</g>
<defs>
<linearGradient id="paint0_linear_3169_9603" x1="4.34942" y1="6.68437" x2="41.0607" y2="44.1155" gradientUnits="userSpaceOnUse">
<stop stop-color="white"/>
<stop offset="1" stop-color="#EAECEE"/>
</linearGradient>
<linearGradient id="paint1_linear_3169_9603" x1="16.7777" y1="30.4707" x2="22.445" y2="36.134" gradientUnits="userSpaceOnUse">
<stop stop-color="#00BBFF"/>
<stop offset="1" stop-color="#008BFF"/>
</linearGradient>
<linearGradient id="paint2_linear_3169_9603" x1="12.324" y1="24.2756" x2="16.035" y2="27.9841" gradientUnits="userSpaceOnUse">
<stop stop-color="#00BBFF"/>
<stop offset="1" stop-color="#008BFF"/>
</linearGradient>
<linearGradient id="paint3_linear_3169_9603" x1="23.7914" y1="24.3829" x2="27.0255" y2="27.6148" gradientUnits="userSpaceOnUse">
<stop stop-color="#00BBFF"/>
<stop offset="1" stop-color="#008BFF"/>
</linearGradient>
<linearGradient id="paint4_linear_3169_9603" x1="16.4729" y1="12.7676" x2="26.1024" y2="27.489" gradientUnits="userSpaceOnUse">
<stop stop-color="#0195FF"/>
<stop offset="0.991028" stop-color="#1147E9"/>
</linearGradient>
<linearGradient id="paint5_linear_3169_9603" x1="28.1412" y1="29.5785" x2="33.9279" y2="37.353" gradientUnits="userSpaceOnUse">
<stop stop-color="#1348FF"/>
<stop offset="1" stop-color="#06238D"/>
</linearGradient>
<clipPath id="clip0_3169_9603">
<rect width="47.9996" height="47.9996" fill="white" transform="translate(-0.00341797 0.000976562)"/>
</clipPath>
<clipPath id="clip1_3169_9603">
<rect width="27" height="27" fill="white" transform="translate(11.4966 10.501)"/>
</clipPath>
</defs>
</svg>
