<svg width="48" height="48" viewBox="0 0 48 48" fill="none" xmlns="http://www.w3.org/2000/svg">
<g clip-path="url(#clip0_3169_9590)">
<circle cx="23.9959" cy="23.8714" r="23.5712" fill="url(#paint0_linear_3169_9590)" stroke="#D5DADD" stroke-width="0.857136"/>
<path d="M23.9694 12.9819C24.9013 12.9819 25.6568 12.2264 25.6568 11.2944C25.6568 10.3624 24.9013 9.60693 23.9694 9.60693C23.0374 9.60693 22.2819 10.3624 22.2819 11.2944C22.2819 12.2264 23.0374 12.9819 23.9694 12.9819Z" fill="url(#paint1_linear_3169_9590)"/>
<path fill-rule="evenodd" clip-rule="evenodd" d="M23.9957 13.0125C17.7981 13.0125 12.7739 18.0366 12.7739 24.2343C12.7739 30.4319 17.7981 35.4561 23.9957 35.4561C30.1933 35.4561 35.2175 30.4319 35.2175 24.2343C35.2175 18.0366 30.1933 13.0125 23.9957 13.0125ZM15.4739 24.2343C15.4739 19.5278 19.2892 15.7125 23.9957 15.7125C28.7022 15.7125 32.5175 19.5278 32.5175 24.2343C32.5175 28.9407 28.7022 32.7561 23.9957 32.7561C19.2892 32.7561 15.4739 28.9407 15.4739 24.2343Z" fill="url(#paint2_linear_3169_9590)"/>
<path fill-rule="evenodd" clip-rule="evenodd" d="M26.8371 20.2734H21.1419C18.9395 20.2734 17.1553 22.046 17.1553 24.2342C17.1553 26.4223 18.9395 28.1949 21.1419 28.1949H26.8371C29.0395 28.1949 30.8237 26.4223 30.8237 24.2342C30.8237 22.046 29.0395 20.2734 26.8371 20.2734Z" fill="url(#paint3_linear_3169_9590)"/>
<circle cx="20.543" cy="24.2324" r="1.68749" fill="url(#paint4_linear_3169_9590)"/>
<circle cx="27.4487" cy="24.2324" r="1.68749" fill="url(#paint5_linear_3169_9590)"/>
</g>
<defs>
<linearGradient id="paint0_linear_3169_9590" x1="4.34893" y1="6.68437" x2="41.0603" y2="44.1155" gradientUnits="userSpaceOnUse">
<stop stop-color="white"/>
<stop offset="1" stop-color="#EAECEE"/>
</linearGradient>
<linearGradient id="paint1_linear_3169_9590" x1="16.1383" y1="13.4725" x2="34.0595" y2="29.0381" gradientUnits="userSpaceOnUse">
<stop stop-color="#0195FF"/>
<stop offset="0.991028" stop-color="#1147E9"/>
</linearGradient>
<linearGradient id="paint2_linear_3169_9590" x1="16.1383" y1="13.4725" x2="34.0595" y2="29.0381" gradientUnits="userSpaceOnUse">
<stop stop-color="#0195FF"/>
<stop offset="0.991028" stop-color="#1147E9"/>
</linearGradient>
<linearGradient id="paint3_linear_3169_9590" x1="19.2009" y1="21.4619" x2="24.0151" y2="29.763" gradientUnits="userSpaceOnUse">
<stop stop-color="#00BBFF"/>
<stop offset="1" stop-color="#008BFF"/>
</linearGradient>
<linearGradient id="paint4_linear_3169_9590" x1="19.3544" y1="23.0415" x2="21.7164" y2="25.4136" gradientUnits="userSpaceOnUse">
<stop stop-color="#1348FF"/>
<stop offset="1" stop-color="#06238D"/>
</linearGradient>
<linearGradient id="paint5_linear_3169_9590" x1="26.2602" y1="23.0415" x2="28.6222" y2="25.4136" gradientUnits="userSpaceOnUse">
<stop stop-color="#1348FF"/>
<stop offset="1" stop-color="#06238D"/>
</linearGradient>
<clipPath id="clip0_3169_9590">
<rect width="47.9996" height="47.9996" fill="white" transform="translate(-0.00292969 0.000976562)"/>
</clipPath>
</defs>
</svg>
