<svg width="48" height="48" viewBox="0 0 48 48" fill="none" xmlns="http://www.w3.org/2000/svg">
<g clip-path="url(#clip0_3169_9615)">
<circle cx="23.9949" cy="23.8714" r="23.5712" fill="url(#paint0_linear_3169_9615)" stroke="#D5DADD" stroke-width="0.857136"/>
<path d="M31.6709 17.0673C32.2096 16.6409 33.0149 16.3943 34.1508 16.5836C34.223 16.5957 34.293 16.6184 34.3584 16.6511C34.7426 16.8432 35.4616 17.2944 36.048 17.6713C36.3494 17.865 36.6289 18.0478 36.8329 18.182C36.935 18.2492 37.0184 18.3043 37.0763 18.3427C37.3144 18.5009 37.4942 18.7113 37.4942 19.0148C37.494 19.1086 37.4875 19.2004 37.4629 19.3481C37.4335 19.5241 37.3735 19.7701 37.2461 20.0249C37.1172 20.2826 36.9124 20.5627 36.5914 20.7767C36.2658 20.9938 35.8647 21.1133 35.395 21.1133C35.356 21.1133 35.3172 21.1102 35.2789 21.104C35.3722 21.718 35.4911 22.5136 35.61 23.3462C35.8619 25.109 36.1293 27.1376 36.1293 27.8861C36.1293 29.0479 35.7493 30.3484 35.2957 31.3464C35.0673 31.8488 34.8051 32.3084 34.535 32.6556C34.4009 32.828 34.248 32.9947 34.0781 33.1249C33.9212 33.2452 33.6677 33.3977 33.3476 33.3977C33.0318 33.3977 32.7809 33.2484 32.6318 33.1399C32.4675 33.0204 32.3174 32.8692 32.1872 32.7204C31.9249 32.4206 31.6661 32.0408 31.4453 31.6876C31.2092 31.3098 31.0002 30.9359 30.8558 30.6678H24.92C24.7755 30.9359 24.5666 31.3098 24.3305 31.6876C24.1097 32.0408 23.8508 32.4206 23.5886 32.7204C23.4583 32.8692 23.3083 33.0204 23.144 33.1399C22.9948 33.2484 22.744 33.3977 22.4282 33.3977C22.1658 33.3977 21.94 33.3025 21.7738 33.2054C21.6015 33.1047 21.4429 32.9725 21.3011 32.8307C21.0172 32.5468 20.7439 32.1674 20.5067 31.7404C20.0338 30.8893 19.6465 29.7436 19.6465 28.5686C19.6465 27.3665 20.052 26.5245 20.4899 25.9772C20.7051 25.7082 20.9226 25.5169 21.0919 25.3899C21.4526 25.1193 21.8186 24.8754 22.2485 24.7246C22.6259 24.5922 23.0571 24.4982 23.5076 24.4302C24.4084 24.2942 25.4634 24.2513 26.4803 24.2513C27.5018 24.2513 28.5084 24.2948 29.3183 24.3377C29.608 24.353 29.8662 24.3679 30.0896 24.3807L30.0896 24.3807L30.2974 24.3926L30.8266 19.1001C30.8538 18.8285 30.8899 18.4677 30.9911 18.1249C31.0966 17.7672 31.2892 17.3694 31.6709 17.0673Z" fill="url(#paint1_linear_3169_9615)"/>
<path d="M32.7318 16.5853C33.1328 16.5027 33.6035 16.4927 34.151 16.5839C34.2232 16.596 34.2932 16.6187 34.3587 16.6514C34.4515 16.6978 34.5637 16.7593 34.6889 16.8312C34.7513 16.6349 34.7849 16.4258 34.7849 16.2089C34.7849 15.075 33.8657 14.1558 32.7318 14.1558V16.5853Z" fill="url(#paint2_linear_3169_9615)"/>
<path d="M32.4297 32.9724C32.4943 33.0323 32.5618 33.0892 32.632 33.1402C32.7811 33.2487 33.032 33.3979 33.3478 33.3979C33.6679 33.3979 33.9214 33.2455 34.0783 33.1252C34.1079 33.1025 34.137 33.0787 34.1656 33.054V34.4075C34.1656 34.519 34.2099 34.6259 34.2888 34.7048L35.4231 35.8391C35.5996 36.0156 35.4746 36.3175 35.2249 36.3175H32.8501C32.6179 36.3175 32.4297 36.1293 32.4297 35.8971V32.9724Z" fill="url(#paint3_linear_3169_9615)"/>
<path d="M21.6506 33.1268C21.6909 33.1547 21.732 33.1811 21.774 33.2056C21.9402 33.3028 22.166 33.3979 22.4284 33.3979C22.7442 33.3979 22.9951 33.2487 23.1442 33.1402C23.229 33.0785 23.31 33.0084 23.3865 32.9345V34.4075C23.3865 34.519 23.4308 34.6259 23.5096 34.7048L24.6439 35.8391C24.8205 36.0156 24.6954 36.3175 24.4457 36.3175H22.071C21.8388 36.3175 21.6506 36.1293 21.6506 35.8971V33.1268Z" fill="url(#paint4_linear_3169_9615)"/>
<path d="M21.269 25.2677C21.2192 25.2993 21.1592 25.3399 21.0921 25.3902C20.9228 25.5172 20.7053 25.7084 20.4901 25.9775C20.3558 26.1453 20.2247 26.3407 20.1073 26.5658L18.2939 28.0874C17.565 27.2188 17.6783 25.9237 18.5469 25.1948C19.3514 24.5198 20.5215 24.5671 21.269 25.2677Z" fill="url(#paint5_linear_3169_9615)"/>
<path d="M29.9942 16.2089C29.9942 17.3428 30.9134 18.2621 32.0473 18.2621V14.1558C30.9134 14.1558 29.9942 15.075 29.9942 16.2089Z" fill="url(#paint6_linear_3169_9615)"/>
<path d="M19.9876 15.0539C18.0956 15.0539 16.6386 16.9004 16.7721 18.6657C16.8015 19.0535 16.6494 19.4325 16.3607 19.6932C16.0721 19.9537 15.6793 20.067 15.2962 20.0006C14.5075 19.8642 13.9749 20.0764 13.6358 20.387C13.2772 20.7155 13.0214 21.2606 13.0214 21.9641C13.0214 22.6716 13.2316 23.1503 13.5221 23.447C13.806 23.7369 14.3026 23.9921 15.16 23.9921H15.7159C16.4121 23.9921 16.9793 24.5542 16.9793 25.251C16.9793 25.9478 16.4121 26.5099 15.7159 26.5099H15.16C13.7751 26.5099 12.5704 26.0802 11.7136 25.2053C10.8635 24.3371 10.4946 23.1721 10.4946 21.9641C10.4946 20.6572 10.9764 19.403 11.9258 18.5335C12.5769 17.937 13.4006 17.5662 14.3262 17.4677C14.7796 14.9307 16.9448 12.5361 19.9876 12.5361C22.3824 12.5361 24.1967 13.8347 25.2105 15.7657C26.9869 15.8573 28.6265 16.9401 29.192 18.9567C29.3802 19.6279 28.9856 20.3218 28.3144 20.5082C27.6439 20.6944 26.9465 20.3049 26.7585 19.6343C26.612 19.1119 26.3223 18.7483 25.9574 18.5304C25.5896 18.3108 25.1216 18.2252 24.6004 18.305C24.0093 18.3955 23.4342 18.0606 23.2246 17.5004C22.6332 15.9192 21.4932 15.0539 19.9876 15.0539Z" fill="url(#paint7_linear_3169_9615)"/>
</g>
<defs>
<linearGradient id="paint0_linear_3169_9615" x1="4.34795" y1="6.68437" x2="41.0593" y2="44.1155" gradientUnits="userSpaceOnUse">
<stop stop-color="white"/>
<stop offset="1" stop-color="#EAECEE"/>
</linearGradient>
<linearGradient id="paint1_linear_3169_9615" x1="22.3219" y1="19.0431" x2="34.1216" y2="31.5247" gradientUnits="userSpaceOnUse">
<stop stop-color="#0195FF"/>
<stop offset="0.991028" stop-color="#1147E9"/>
</linearGradient>
<linearGradient id="paint2_linear_3169_9615" x1="20.4292" y1="17.4162" x2="35.5681" y2="29.5541" gradientUnits="userSpaceOnUse">
<stop stop-color="#1348FF"/>
<stop offset="1" stop-color="#06238D"/>
</linearGradient>
<linearGradient id="paint3_linear_3169_9615" x1="20.4292" y1="17.4162" x2="35.5681" y2="29.5541" gradientUnits="userSpaceOnUse">
<stop stop-color="#1348FF"/>
<stop offset="1" stop-color="#06238D"/>
</linearGradient>
<linearGradient id="paint4_linear_3169_9615" x1="20.4292" y1="17.4162" x2="35.5681" y2="29.5541" gradientUnits="userSpaceOnUse">
<stop stop-color="#1348FF"/>
<stop offset="1" stop-color="#06238D"/>
</linearGradient>
<linearGradient id="paint5_linear_3169_9615" x1="20.4292" y1="17.4162" x2="35.5681" y2="29.5541" gradientUnits="userSpaceOnUse">
<stop stop-color="#1348FF"/>
<stop offset="1" stop-color="#06238D"/>
</linearGradient>
<linearGradient id="paint6_linear_3169_9615" x1="20.4292" y1="17.4162" x2="35.5681" y2="29.5541" gradientUnits="userSpaceOnUse">
<stop stop-color="#1348FF"/>
<stop offset="1" stop-color="#06238D"/>
</linearGradient>
<linearGradient id="paint7_linear_3169_9615" x1="13.2999" y1="14.6326" x2="22.6787" y2="27.2046" gradientUnits="userSpaceOnUse">
<stop stop-color="#00BBFF"/>
<stop offset="1" stop-color="#008BFF"/>
</linearGradient>
<clipPath id="clip0_3169_9615">
<rect width="47.9996" height="47.9996" fill="white" transform="translate(-0.00390625 0.000976562)"/>
</clipPath>
</defs>
</svg>
