<svg width="48" height="48" viewBox="0 0 48 48" fill="none" xmlns="http://www.w3.org/2000/svg">
<g clip-path="url(#clip0_3169_9267)">
<circle cx="24" cy="24.375" r="23.5714" fill="url(#paint0_linear_3169_9267)" stroke="#D5DADD" stroke-width="0.857143"/>
<g clip-path="url(#clip1_3169_9267)">
<path d="M29.0625 10.5011C29.5055 10.4976 29.9445 10.5847 30.3526 10.7569C30.7607 10.9292 31.1293 11.1831 31.4357 11.5029C31.7556 11.8094 32.0094 12.1779 32.1817 12.586C32.3539 12.9941 32.441 13.4331 32.4375 13.8761V34.1258C32.4464 34.5735 32.3619 35.018 32.1894 35.4312C32.0169 35.8443 31.7602 36.217 31.4357 36.5254C31.1254 36.8384 30.7555 37.086 30.3479 37.2535C29.9403 37.421 29.5032 37.5051 29.0625 37.5008H18.9377C18.4969 37.5054 18.0598 37.4214 17.6521 37.2539C17.2445 37.0864 16.8746 36.8386 16.5645 36.5254C16.2397 36.2172 15.9828 35.8446 15.8103 35.4314C15.6378 35.0182 15.5535 34.5735 15.5627 34.1258V13.8761C15.5588 13.4331 15.6457 12.9939 15.818 12.5858C15.9903 12.1776 16.2443 11.8091 16.5645 11.5029C16.8708 11.1828 17.2393 10.9288 17.6474 10.7565C18.0556 10.5842 18.4947 10.4973 18.9377 10.5011H29.0625ZM30.75 13.8761H17.2502V32.4384H30.75V13.8761ZM24.0001 35.8133C24.3323 35.8207 24.6541 35.6977 24.8967 35.4708C25.0206 35.3522 25.1176 35.2084 25.1813 35.0492C25.2449 34.89 25.2737 34.719 25.2657 34.5477C25.2657 34.3815 25.233 34.2169 25.1694 34.0634C25.1058 33.9098 25.0125 33.7703 24.895 33.6528C24.7775 33.5353 24.638 33.442 24.4844 33.3784C24.3309 33.3148 24.1663 33.2821 24.0001 33.2821C23.8339 33.2821 23.6693 33.3148 23.5158 33.3784C23.3622 33.442 23.2227 33.5353 23.1052 33.6528C22.9877 33.7703 22.8944 33.9098 22.8308 34.0634C22.7672 34.2169 22.7345 34.3815 22.7345 34.5477C22.7261 34.719 22.7547 34.8902 22.8184 35.0494C22.8821 35.2087 22.9793 35.3524 23.1035 35.4708C23.3458 35.6982 23.6678 35.8213 24.0001 35.8133Z" fill="url(#paint1_linear_3169_9267)"/>
<path d="M21.3587 18.0869L24.0681 25.3367L26.6462 18.1011C26.8232 17.6042 27.2937 17.2725 27.8211 17.2725C28.51 17.2725 29.0684 17.8309 29.0684 18.5197L29.0684 28.0759C29.0684 28.6044 28.6399 29.0328 28.1114 29.0328C27.5829 29.0328 27.1545 28.6044 27.1545 28.0759L27.1545 21.7895L24.719 27.817C24.5809 28.1589 24.2491 28.3827 23.8803 28.3827C23.5024 28.3827 23.1644 28.1478 23.0325 27.7937L20.8455 21.9199L20.8455 28.0759C20.8455 28.6044 20.4171 29.0328 19.8886 29.0328C19.3601 29.0328 18.9316 28.6044 18.9316 28.0759L18.9317 18.5256C18.9317 17.8335 19.4927 17.2725 20.1848 17.2725C20.7077 17.2725 21.1757 17.5971 21.3587 18.0869Z" fill="url(#paint2_linear_3169_9267)"/>
</g>
</g>
<defs>
<linearGradient id="paint0_linear_3169_9267" x1="4.35287" y1="7.18784" x2="41.0645" y2="44.6193" gradientUnits="userSpaceOnUse">
<stop stop-color="white"/>
<stop offset="1" stop-color="#EAECEE"/>
</linearGradient>
<linearGradient id="paint1_linear_3169_9267" x1="18.0918" y1="14.5387" x2="35.0884" y2="25.1659" gradientUnits="userSpaceOnUse">
<stop stop-color="#0195FF"/>
<stop offset="0.991028" stop-color="#1147E9"/>
</linearGradient>
<linearGradient id="paint2_linear_3169_9267" x1="20.4303" y1="19.0027" x2="28.5759" y2="26.0539" gradientUnits="userSpaceOnUse">
<stop stop-color="#1348FF"/>
<stop offset="1" stop-color="#06238D"/>
</linearGradient>
<clipPath id="clip0_3169_9267">
<rect width="48" height="48" fill="white" transform="translate(0 0.000976562)"/>
</clipPath>
<clipPath id="clip1_3169_9267">
<rect width="27" height="27" fill="white" transform="translate(10.5 10.501)"/>
</clipPath>
</defs>
</svg>
