<svg width="48" height="48" viewBox="0 0 48 48" fill="none" xmlns="http://www.w3.org/2000/svg">
<g clip-path="url(#clip0_3173_14951)">
<g clip-path="url(#clip1_3173_14951)">
<circle cx="24" cy="23.8716" r="23.5714" fill="url(#paint0_linear_3173_14951)" stroke="#D5DADD" stroke-width="0.857143"/>
</g>
<g clip-path="url(#clip2_3173_14951)">
<path d="M35.2394 11.8961C35.5093 11.6164 35.813 11.4766 36.1504 11.4766C36.4878 11.4766 36.7915 11.6164 37.0615 11.8961C37.2977 12.1408 37.4157 12.4379 37.4157 12.7875C37.4157 13.137 37.2977 13.4517 37.0615 13.7313L31.9495 19.0273C31.7133 19.2721 31.4097 19.3944 31.0385 19.3944C30.6673 19.3944 30.3637 19.2721 30.1275 19.0273L27.5968 16.4055C27.3269 16.1259 27.1919 15.8113 27.1919 15.4617C27.1919 15.1121 27.3269 14.7975 27.5968 14.5179C27.8667 14.2382 28.1704 14.0984 28.5078 14.0984C28.8453 14.0984 29.1321 14.2382 29.3683 14.5179L31.0385 16.2482L35.2394 11.8961Z" fill="url(#paint1_linear_3173_14951)"/>
<path fill-rule="evenodd" clip-rule="evenodd" d="M35.0062 23.6782L34.9535 23.7712C34.9257 23.8132 34.901 23.8568 34.8793 23.9021L33.162 26.9331C32.5336 28.0422 30.9466 28.0729 30.2758 26.9889L26.9919 21.682C26.6861 21.1878 26.1455 20.9102 25.5842 21.0607C24.9434 21.2325 24.1189 21.5069 23.3801 21.7678C22.4241 22.1055 21.3561 21.5657 21.0962 20.5857L20.2219 17.288C19.9601 16.3003 18.8963 15.8058 17.946 16.1816C17.1183 16.5089 16.4217 16.6818 15.7496 16.4985C14.9037 16.4051 13.6404 14.4392 12.6962 12.9699C12.5276 12.7074 12.369 12.4607 12.2249 12.2434C11.9145 11.7754 11.3503 11.6239 11.0026 12.0649C10.918 12.1723 10.8543 12.2693 10.8261 12.3268C10.8227 12.3336 10.8193 12.3406 10.8157 12.3476C10.7255 12.5273 10.5818 12.8135 10.5818 15.2714L10.5818 33.1187C10.5818 33.8896 10.6839 35.2087 11.6959 36.2207C12.5711 37.03 13.688 37.5011 15.0029 37.5011H32.6871C34.0365 37.5011 35.3494 37.0744 36.2726 36.2207C37.1959 35.367 37.481 34.3166 37.481 33.0689V24.4722C37.4818 24.4507 37.4817 24.4293 37.4806 24.408C37.4717 24.0626 37.3298 23.7787 37.0549 23.5563C36.8063 23.2936 36.4867 23.1623 36.0961 23.1623C35.7055 23.1623 35.3859 23.2936 35.1373 23.5563C35.1097 23.5818 35.0837 23.6081 35.0591 23.6353C35.0403 23.6494 35.0226 23.6637 35.0062 23.6782ZM15.535 25.6943C15.535 25.3707 15.7199 25.2088 16.0897 25.2088H18.91C19.249 25.2088 19.511 25.1279 19.6959 24.9661C19.9117 24.7773 20.0195 24.5346 20.0195 24.2379C20.0195 23.5637 19.6497 23.2266 18.91 23.2266H17.8004V22.2557C17.8004 21.9591 17.6925 21.7298 17.4767 21.568C17.261 21.3792 16.9836 21.2848 16.6445 21.2848C16.3055 21.2848 16.0281 21.3792 15.8123 21.568C15.6274 21.7298 15.535 21.9591 15.535 22.2557V23.2266C14.8569 23.3345 14.3021 23.6177 13.8706 24.0761C13.4699 24.5346 13.2695 25.074 13.2695 25.6943C13.2695 26.3955 13.5315 26.9888 14.0555 27.4742C14.6103 27.9327 15.2884 28.162 16.0897 28.162H17.1993C17.6 28.162 17.8004 28.3238 17.8004 28.6474C17.8004 28.971 17.6 29.1329 17.1993 29.1329H14.4254C13.6548 29.1329 13.2695 29.47 13.2695 30.1442C13.2695 30.4409 13.3774 30.6836 13.5932 30.8724C13.8089 31.0342 14.0863 31.1151 14.4254 31.1151H15.535V32.086C15.535 32.3826 15.6274 32.6254 15.8123 32.8141C16.0281 33.0029 16.3055 33.0973 16.6445 33.0973C17.4151 33.0973 17.8004 32.7602 17.8004 32.086V31.1151C18.4784 31.0072 19.0178 30.7375 19.4185 30.306C19.8192 29.8475 20.0195 29.2947 20.0195 28.6474C20.0195 27.9462 19.7421 27.3664 19.1873 26.9079C18.6634 26.4225 18.0007 26.1797 17.1993 26.1797H16.0897C15.7199 26.1797 15.535 26.0179 15.535 25.6943Z" fill="url(#paint2_linear_3173_14951)"/>
</g>
</g>
<defs>
<linearGradient id="paint0_linear_3173_14951" x1="4.35287" y1="6.68442" x2="41.0645" y2="44.1159" gradientUnits="userSpaceOnUse">
<stop stop-color="white"/>
<stop offset="1" stop-color="#EAECEE"/>
</linearGradient>
<linearGradient id="paint1_linear_3173_14951" x1="28.7034" y1="12.6414" x2="34.0627" y2="19.5914" gradientUnits="userSpaceOnUse">
<stop stop-color="#1348FF"/>
<stop offset="1" stop-color="#06238D"/>
</linearGradient>
<linearGradient id="paint2_linear_3173_14951" x1="14.6142" y1="15.6454" x2="32.5894" y2="34.467" gradientUnits="userSpaceOnUse">
<stop stop-color="#0195FF"/>
<stop offset="0.991028" stop-color="#1147E9"/>
</linearGradient>
<clipPath id="clip0_3173_14951">
<rect width="48" height="48" fill="white" transform="translate(0 0.000976562)"/>
</clipPath>
<clipPath id="clip1_3173_14951">
<rect width="48" height="48" fill="white" transform="translate(0 -0.128418)"/>
</clipPath>
<clipPath id="clip2_3173_14951">
<rect width="27" height="27" fill="white" transform="translate(10.5 10.501)"/>
</clipPath>
</defs>
</svg>
