<svg width="48" height="48" viewBox="0 0 48 48" fill="none" xmlns="http://www.w3.org/2000/svg">
<g clip-path="url(#clip0_3169_9632)">
<circle cx="23.9993" cy="23.8714" r="23.5712" fill="url(#paint0_linear_3169_9632)" stroke="#D5DADD" stroke-width="0.857136"/>
<path fill-rule="evenodd" clip-rule="evenodd" d="M15.5769 11.5015C13.3249 11.5015 11.4993 13.3271 11.4993 15.5791V23.2814C11.4993 24.3629 11.9287 25.4001 12.6937 26.1648L23.8357 37.3069C25.4283 38.8994 28.0099 38.8994 29.6025 37.3069L37.3046 29.6047C38.8972 28.0122 38.8972 25.4304 37.3046 23.8379L26.1626 12.6958C25.398 11.9311 24.3608 11.5015 23.2794 11.5015H15.5769ZM17.9387 20.3034C19.2436 20.3034 20.3012 19.2457 20.3012 17.941C20.3012 16.6362 19.2436 15.5785 17.9387 15.5785C16.6339 15.5785 15.5763 16.6362 15.5763 17.941C15.5763 19.2457 16.6339 20.3034 17.9387 20.3034ZM25.375 32.4149C25.8092 34.0353 27.4747 34.9969 29.0951 34.5627C30.7155 34.1285 31.6771 32.463 31.2429 30.8426L30.8338 29.3157C31.2308 29.3564 31.6418 29.3268 32.0502 29.2174C33.8493 28.7353 34.917 26.8861 34.4349 25.087C33.9529 23.2879 32.1036 22.2202 30.3045 22.7023C29.8961 22.8117 29.5254 22.9916 29.2019 23.2254L28.8007 21.7281C28.3665 20.1077 26.701 19.1461 25.0806 19.5803C23.4602 20.0145 22.4986 21.6801 22.9328 23.3004L23.3478 24.8495C22.949 24.8079 22.536 24.8372 22.1256 24.9472C20.3265 25.4292 19.2589 27.2785 19.7409 29.0776C20.223 30.8767 22.0722 31.9444 23.8713 31.4623C24.2817 31.3523 24.6541 31.1712 24.9786 30.9358L25.375 32.4149Z" fill="url(#paint1_linear_3169_9632)"/>
<path d="M28.6583 32.9323C27.9381 33.1253 27.1978 32.6979 27.0049 31.9777L24.5627 22.8633C24.3697 22.1431 24.7971 21.4029 25.5172 21.2099C26.2374 21.0169 26.9777 21.4443 27.1706 22.1645L29.6128 31.2789C29.8058 31.9991 29.3784 32.7393 28.6583 32.9323Z" fill="url(#paint2_linear_3169_9632)"/>
<path d="M24.626 27.7682C24.8668 28.6671 24.3334 29.5911 23.4345 29.8319C22.5356 30.0728 21.6117 29.5393 21.3708 28.6404C21.13 27.7416 21.6634 26.8176 22.5623 26.5768C23.4612 26.3359 24.3851 26.8693 24.626 27.7682Z" fill="url(#paint3_linear_3169_9632)"/>
<path d="M31.6134 27.587C32.5123 27.3462 33.0457 26.4222 32.8049 25.5233C32.564 24.6244 31.6401 24.091 30.7412 24.3319C29.8423 24.5727 29.3088 25.4967 29.5497 26.3955C29.7906 27.2944 30.7145 27.8279 31.6134 27.587Z" fill="url(#paint4_linear_3169_9632)"/>
</g>
<defs>
<linearGradient id="paint0_linear_3169_9632" x1="4.35235" y1="6.68437" x2="41.0637" y2="44.1155" gradientUnits="userSpaceOnUse">
<stop stop-color="white"/>
<stop offset="1" stop-color="#EAECEE"/>
</linearGradient>
<linearGradient id="paint1_linear_3169_9632" x1="15.5467" y1="15.5391" x2="34.4518" y2="34.4508" gradientUnits="userSpaceOnUse">
<stop stop-color="#0195FF"/>
<stop offset="0.991028" stop-color="#1147E9"/>
</linearGradient>
<linearGradient id="paint2_linear_3169_9632" x1="23.0205" y1="22.9018" x2="31.2879" y2="31.0184" gradientUnits="userSpaceOnUse">
<stop stop-color="#1348FF"/>
<stop offset="1" stop-color="#06238D"/>
</linearGradient>
<linearGradient id="paint3_linear_3169_9632" x1="23.0205" y1="22.9018" x2="31.2879" y2="31.0184" gradientUnits="userSpaceOnUse">
<stop stop-color="#1348FF"/>
<stop offset="1" stop-color="#06238D"/>
</linearGradient>
<linearGradient id="paint4_linear_3169_9632" x1="23.0205" y1="22.9018" x2="31.2879" y2="31.0184" gradientUnits="userSpaceOnUse">
<stop stop-color="#1348FF"/>
<stop offset="1" stop-color="#06238D"/>
</linearGradient>
<clipPath id="clip0_3169_9632">
<rect width="47.9996" height="47.9996" fill="white" transform="translate(-0.000488281 0.000976562)"/>
</clipPath>
</defs>
</svg>
