<svg width="48" height="48" viewBox="0 0 48 48" fill="none" xmlns="http://www.w3.org/2000/svg">
<g clip-path="url(#clip0_3169_9640)">
<circle cx="23.9979" cy="23.8714" r="23.5712" fill="url(#paint0_linear_3169_9640)" stroke="#D5DADD" stroke-width="0.857136"/>
<g clip-path="url(#clip1_3169_9640)">
<path fill-rule="evenodd" clip-rule="evenodd" d="M23.8132 13.4651C20.7585 13.4651 18.4706 16.4282 18.6819 19.2357C18.7132 19.6508 18.5512 20.0571 18.2429 20.3368C17.9346 20.6165 17.5145 20.7384 17.1044 20.6671C15.8305 20.4455 14.9062 20.787 14.2964 21.3483C13.6655 21.929 13.2517 22.8573 13.2517 23.9968C13.2517 24.9755 13.5063 25.7289 13.9128 26.2586C14.3093 26.7752 14.9273 27.1813 15.8631 27.3476C16.5971 27.4782 17.0864 28.179 16.9559 28.9131C16.8254 29.6472 16.1245 30.1364 15.3904 30.0059C13.8665 29.735 12.622 29.0114 11.7709 27.9024C10.9299 26.8066 10.5518 25.4387 10.5518 23.9968C10.5518 22.2114 11.2061 20.5231 12.4679 19.3617C13.4156 18.4894 14.6418 17.9744 16.0339 17.9069C16.5072 14.2686 19.5406 10.7651 23.8132 10.7651C27.2091 10.7651 29.749 12.6779 31.1098 15.5266C34.5225 15.8232 37.3734 18.8633 37.3734 22.8363C37.3734 24.003 37.1376 25.0776 36.7041 26.0274C36.3945 26.7057 35.5937 27.0045 34.9154 26.6949C34.2372 26.3854 33.9383 25.5845 34.2479 24.9063C34.5132 24.3249 34.6735 23.6348 34.6735 22.8363C34.6735 19.9038 32.4371 18.0629 30.3059 18.2118C29.7088 18.2535 29.1555 17.897 28.9467 17.336C28.0324 14.8799 26.2236 13.4651 23.8132 13.4651Z" fill="url(#paint1_linear_3169_9640)"/>
<path d="M32.2829 24.3574C31.7626 22.6924 29.081 21.4917 25.631 21.4917C22.1809 21.4917 19.4994 22.6844 18.9711 24.3574C18.915 24.4695 18.875 24.5895 18.875 24.7256V34.0431C18.875 36.0122 21.7807 37.5011 25.631 37.5011C29.4812 37.5011 32.3869 36.0122 32.3869 34.0431V24.7176C32.3869 24.6735 32.3089 24.3314 32.2829 24.3574ZM30.778 31.0253C30.778 31.7617 28.7208 32.8824 25.623 32.8824C22.5251 32.8824 20.4679 31.7617 20.4679 31.0253V30.2889C21.6847 31.0173 23.5097 31.4656 25.623 31.4656C27.7362 31.4656 29.5533 31.0173 30.778 30.2889V31.0253ZM25.631 23.0926C28.7288 23.0926 30.786 24.2133 30.786 24.9497C30.786 25.6862 28.7288 26.8068 25.631 26.8068C22.5332 26.8068 20.4759 25.6862 20.4759 24.9497C20.4759 24.2133 22.5332 23.0926 25.631 23.0926ZM25.631 35.9002C22.5332 35.9002 20.4759 34.7795 20.4759 34.0431V33.3067C21.6927 34.0351 23.5177 34.4833 25.631 34.4833C27.7442 34.4833 29.5613 34.0351 30.786 33.3067V34.0431C30.786 34.7795 28.7288 35.9002 25.631 35.9002Z" fill="url(#paint2_linear_3169_9640)"/>
</g>
</g>
<defs>
<linearGradient id="paint0_linear_3169_9640" x1="4.35088" y1="6.68437" x2="41.0622" y2="44.1155" gradientUnits="userSpaceOnUse">
<stop stop-color="white"/>
<stop offset="1" stop-color="#EAECEE"/>
</linearGradient>
<linearGradient id="paint1_linear_3169_9640" x1="14.5724" y1="13.6456" x2="27.3512" y2="31.446" gradientUnits="userSpaceOnUse">
<stop stop-color="#0195FF"/>
<stop offset="0.991028" stop-color="#1147E9"/>
</linearGradient>
<linearGradient id="paint2_linear_3169_9640" x1="20.8727" y1="23.847" x2="31.9255" y2="33.2158" gradientUnits="userSpaceOnUse">
<stop stop-color="#1348FF"/>
<stop offset="1" stop-color="#06238D"/>
</linearGradient>
<clipPath id="clip0_3169_9640">
<rect width="47.9996" height="47.9996" fill="white" transform="translate(-0.000976562 0.000976562)"/>
</clipPath>
<clipPath id="clip1_3169_9640">
<rect width="26.9998" height="26.9998" fill="white" transform="translate(10.498 10.501)"/>
</clipPath>
</defs>
</svg>
