<svg width="48" height="48" viewBox="0 0 48 48" fill="none" xmlns="http://www.w3.org/2000/svg">
<g clip-path="url(#clip0_3173_14982)">
<circle cx="23.9985" cy="23.9492" r="23.5714" fill="url(#paint0_linear_3173_14982)" stroke="#D5DADD" stroke-width="0.857143"/>
<g clip-path="url(#clip1_3173_14982)">
<path fill-rule="evenodd" clip-rule="evenodd" d="M16.7606 16.6459C16.7606 14.7433 18.3029 13.201 20.2055 13.201C22.108 13.201 23.6504 14.7433 23.6504 16.6459C23.6504 18.5484 22.108 20.0908 20.2055 20.0908C18.3029 20.0908 16.7606 18.5484 16.7606 16.6459ZM20.2055 10.501C16.8117 10.501 14.0606 13.2521 14.0606 16.6459C14.0606 18.2342 14.6632 19.6818 15.6523 20.7725C14.3149 21.3065 13.2653 22.1146 12.4705 23.0691C10.9923 24.8444 10.4985 27.0004 10.4985 28.4845V28.4966L10.4987 28.5086L11.8485 28.4845L10.4988 28.5086L10.4988 28.5087L10.4988 28.5089L10.4988 28.51L10.4988 28.5142L10.4991 28.5308L10.5003 28.5943L10.5042 28.8257C10.5075 29.0198 10.512 29.2843 10.5164 29.5665C10.5252 30.1364 10.5338 30.7614 10.5338 31.0328C10.5338 31.3908 10.6761 31.7342 10.9292 31.9874C11.1824 32.2405 11.5258 32.3828 11.8838 32.3828H20.0743C20.8199 32.3828 21.4243 31.7784 21.4243 31.0328C21.4243 30.2872 20.8199 29.6828 20.0743 29.6828H13.2185L13.216 29.5244C13.2116 29.2406 13.2072 28.9747 13.2039 28.7798L13.1998 28.5471L13.1987 28.4831L13.1985 28.4734C13.2012 27.4919 13.5501 25.9922 14.5454 24.7968C15.492 23.6599 17.1292 22.6669 20.0158 22.7922C20.0656 22.7944 20.115 22.7938 20.1636 22.7906C20.1776 22.7907 20.1915 22.7908 20.2055 22.7908C23.5992 22.7908 26.3504 20.0396 26.3504 16.6459C26.3504 13.2521 23.5992 10.501 20.2055 10.501Z" fill="url(#paint1_linear_3173_14982)"/>
<path fill-rule="evenodd" clip-rule="evenodd" d="M26.6985 24.001C25.2074 24.001 23.9985 25.2098 23.9985 26.701V34.801C23.9985 36.2922 25.2074 37.501 26.6985 37.501H34.7985C36.2897 37.501 37.4985 36.2922 37.4985 34.801V26.701C37.4985 25.2098 36.2897 24.001 34.7985 24.001H26.6985ZM26.7867 28.6496C27.388 28.6496 27.8756 28.1621 27.8756 27.5606C27.8756 26.9592 27.388 26.4717 26.7867 26.4717C26.1853 26.4717 25.6978 26.9592 25.6978 27.5606C25.6978 28.1621 26.1853 28.6496 26.7867 28.6496ZM30.5462 26.5883C30.0091 26.5883 29.5738 27.0236 29.5738 27.5606C29.5738 28.0976 30.0091 28.533 30.5462 28.533H34.8272C35.3642 28.533 35.7996 28.0976 35.7996 27.5606C35.7996 27.0236 35.3642 26.5883 34.8272 26.5883H30.5462ZM26.7867 31.8399C27.388 31.8399 27.8756 31.3524 27.8756 30.751C27.8756 30.1495 27.388 29.6621 26.7867 29.6621C26.1853 29.6621 25.6978 30.1495 25.6978 30.751C25.6978 31.3524 26.1853 31.8399 26.7867 31.8399ZM30.5462 29.7786C30.0091 29.7786 29.5738 30.214 29.5738 30.751C29.5738 31.288 30.0091 31.7234 30.5462 31.7234H34.8272C35.3642 31.7234 35.7996 31.288 35.7996 30.751C35.7996 30.214 35.3642 29.7786 34.8272 29.7786H30.5462ZM27.8755 33.9415C27.8755 34.5429 27.388 35.0304 26.7866 35.0304C26.1852 35.0304 25.6977 34.5429 25.6977 33.9415C25.6977 33.34 26.1852 32.8526 26.7866 32.8526C27.388 32.8526 27.8755 33.34 27.8755 33.9415ZM29.5737 33.9415C29.5737 33.4045 30.009 32.9691 30.5461 32.9691H34.8271C35.3641 32.9691 35.7995 33.4045 35.7995 33.9415C35.7995 34.4785 35.3641 34.9139 34.8271 34.9139H30.5461C30.009 34.9139 29.5737 34.4785 29.5737 33.9415Z" fill="url(#paint2_linear_3173_14982)"/>
<path d="M35.296 14.8848C35.566 14.6052 35.8696 14.4653 36.2071 14.4653C36.5445 14.4653 36.8482 14.6052 37.1181 14.8848C37.3543 15.1295 37.4724 15.4267 37.4724 15.7762C37.4724 16.1258 37.3543 16.4404 37.1181 16.7201L32.0062 22.0161C31.77 22.2608 31.4663 22.3832 31.0951 22.3832C30.724 22.3832 30.4203 22.2608 30.1841 22.0161L27.6534 19.3943C27.3835 19.1147 27.2485 18.8 27.2485 18.4505C27.2485 18.1009 27.3835 17.7863 27.6534 17.5066C27.9234 17.227 28.2271 17.0871 28.5645 17.0871C28.9019 17.0871 29.1887 17.227 29.4249 17.5066L31.0951 19.237L35.296 14.8848Z" fill="url(#paint3_linear_3173_14982)"/>
</g>
</g>
<defs>
<linearGradient id="paint0_linear_3173_14982" x1="4.3514" y1="6.76206" x2="41.063" y2="44.1935" gradientUnits="userSpaceOnUse">
<stop stop-color="white"/>
<stop offset="1" stop-color="#EAECEE"/>
</linearGradient>
<linearGradient id="paint1_linear_3173_14982" x1="12.8748" y1="13.7733" x2="27.4348" y2="24.3247" gradientUnits="userSpaceOnUse">
<stop stop-color="#0195FF"/>
<stop offset="0.991028" stop-color="#1147E9"/>
</linearGradient>
<linearGradient id="paint2_linear_3173_14982" x1="26.0189" y1="26.0264" x2="35.4716" y2="35.4725" gradientUnits="userSpaceOnUse">
<stop stop-color="#00BBFF"/>
<stop offset="1" stop-color="#008BFF"/>
</linearGradient>
<linearGradient id="paint3_linear_3173_14982" x1="28.7601" y1="15.6302" x2="34.1193" y2="22.5802" gradientUnits="userSpaceOnUse">
<stop stop-color="#1348FF"/>
<stop offset="1" stop-color="#06238D"/>
</linearGradient>
<clipPath id="clip0_3173_14982">
<rect width="48" height="48" fill="white" transform="translate(-0.00146484 0.000976562)"/>
</clipPath>
<clipPath id="clip1_3173_14982">
<rect width="27" height="27" fill="white" transform="translate(10.4985 10.501)"/>
</clipPath>
</defs>
</svg>
