<svg width="48" height="48" viewBox="0 0 48 48" fill="none" xmlns="http://www.w3.org/2000/svg">
<g clip-path="url(#clip0_3173_15003)">
<circle cx="23.9985" cy="23.9492" r="23.5714" fill="url(#paint0_linear_3173_15003)" stroke="#D5DADD" stroke-width="0.857143"/>
<g clip-path="url(#clip1_3173_15003)">
<path d="M19.2552 12.1963C19.7533 11.6939 19.7533 10.8801 19.2552 10.3778C18.757 9.87538 17.95 9.87538 17.4518 10.3778L13.627 14.2347C13.1289 14.7371 13.1289 15.5509 13.627 16.0533L17.4518 19.9102C17.95 20.4126 18.757 20.4126 19.2552 19.9102C19.7533 19.4079 19.7533 18.5941 19.2552 18.0917L17.608 16.4306H24.7276C29.6558 16.4306 33.6517 20.4592 33.6517 25.4299C33.6517 30.3996 29.6558 34.4292 24.7276 34.4292C19.7994 34.4292 15.8035 30.4006 15.8035 25.4299C15.8035 24.7202 15.2326 24.1446 14.5289 24.1446C13.8251 24.1446 13.2543 24.7202 13.2543 25.4299C13.2543 31.8199 18.3919 37.0008 24.7285 37.0008C31.0652 37.0008 36.2028 31.8199 36.2028 25.4299C36.2028 19.0399 31.0652 13.859 24.7285 13.859H17.6064L19.2552 12.1963Z" fill="url(#paint1_linear_3173_15003)"/>
<path d="M29.0724 21.9395C28.6913 21.9395 28.3483 22.0919 28.0435 22.3968L23.299 27.1413L21.4126 25.2549C21.1458 24.95 20.8219 24.7976 20.4408 24.7976C20.0597 24.7976 19.7168 24.95 19.4119 25.2549C19.107 25.5598 18.9546 25.9027 18.9546 26.2838C18.9546 26.6649 19.107 27.0079 19.4119 27.3127L22.27 30.1709C22.5368 30.4376 22.8798 30.571 23.299 30.571C23.7181 30.571 24.0611 30.4376 24.3279 30.1709L30.1013 24.3975C30.3681 24.0926 30.5015 23.7496 30.5015 23.3685C30.5015 22.9874 30.3681 22.6635 30.1013 22.3968C29.7965 22.0919 29.4535 21.9395 29.0724 21.9395Z" fill="url(#paint2_linear_3173_15003)"/>
</g>
</g>
<defs>
<linearGradient id="paint0_linear_3173_15003" x1="4.3514" y1="6.76206" x2="41.063" y2="44.1935" gradientUnits="userSpaceOnUse">
<stop stop-color="white"/>
<stop offset="1" stop-color="#EAECEE"/>
</linearGradient>
<linearGradient id="paint1_linear_3173_15003" x1="16.6936" y1="14.0386" x2="35.3528" y2="29.9041" gradientUnits="userSpaceOnUse">
<stop stop-color="#0195FF"/>
<stop offset="0.991028" stop-color="#1147E9"/>
</linearGradient>
<linearGradient id="paint2_linear_3173_15003" x1="20.6617" y1="23.2093" x2="26.4484" y2="30.9838" gradientUnits="userSpaceOnUse">
<stop stop-color="#1348FF"/>
<stop offset="1" stop-color="#06238D"/>
</linearGradient>
<clipPath id="clip0_3173_15003">
<rect width="48" height="48" fill="white" transform="translate(-0.00146484 0.000976562)"/>
</clipPath>
<clipPath id="clip1_3173_15003">
<rect width="27" height="27" fill="white" transform="translate(11.2485 10.001)"/>
</clipPath>
</defs>
</svg>
