<svg width="48" height="48" viewBox="0 0 48 48" fill="none" xmlns="http://www.w3.org/2000/svg">
<g clip-path="url(#clip0_3169_9683)">
<circle cx="23.9995" cy="23.9492" r="23.5714" fill="url(#paint0_linear_3169_9683)" stroke="#D5DADD" stroke-width="0.857143"/>
<g clip-path="url(#clip1_3169_9683)">
<path fill-rule="evenodd" clip-rule="evenodd" d="M18.1463 21.669C18.5519 22.2254 18.4297 23.0051 17.8734 23.4107C17.0845 23.9859 16.422 24.7221 15.934 25.5709C16.6872 25.6828 17.421 25.773 18.1337 25.8428C18.1816 25.6274 18.2343 25.416 18.2915 25.2091C18.4404 24.6701 18.9981 24.3539 19.537 24.5029C20.076 24.6518 20.3922 25.2095 20.2433 25.7485C20.2212 25.8284 20.1999 25.9094 20.1793 25.9913C21.4802 26.0516 22.6953 26.0402 23.8122 25.9671C23.7937 25.8944 23.7747 25.8224 23.755 25.7512C23.6062 25.2122 23.9226 24.6546 24.4616 24.5058C25.0007 24.357 25.5582 24.6734 25.707 25.2124C25.7558 25.3892 25.8013 25.5692 25.8434 25.7523C26.1843 25.701 26.5126 25.6432 26.8276 25.5791C27.3756 25.4678 27.9101 25.8217 28.0215 26.3697C28.1329 26.9177 27.7789 27.4522 27.2309 27.5636C26.8841 27.634 26.5247 27.6974 26.153 27.7535C26.1895 28.1849 26.2083 28.626 26.2083 29.0744C26.2083 29.4914 26.1899 29.8983 26.1545 30.2943C27.0121 30.162 27.9084 29.9945 28.8649 29.7935C28.8925 29.5422 28.9066 29.2867 28.9066 29.028C28.9066 28.5709 28.8626 28.1253 28.779 27.6949C28.6478 27.019 29.0893 26.3647 29.7652 26.2335C30.441 26.1023 31.0953 26.5438 31.2265 27.2196C31.3404 27.8059 31.3998 28.4106 31.3998 29.028C31.3998 34.2413 27.1736 38.4674 21.9604 38.4674C16.7472 38.4674 12.521 34.2413 12.521 29.028C12.521 25.8904 14.0531 23.1105 16.4046 21.3961C16.9609 20.9905 17.7407 21.1127 18.1463 21.669ZM28.2482 31.9836C27.3927 32.1487 26.5775 32.2857 25.7877 32.3935C25.5338 33.3465 25.1757 34.204 24.7435 34.9454C24.6216 35.1545 24.4926 35.3563 24.357 35.5497C26.0749 34.9182 27.4743 33.6272 28.2482 31.9836ZM24.0899 30.5498C24.1505 30.0821 24.1833 29.5895 24.1833 29.0744C24.1833 28.6995 24.1683 28.3321 24.1394 27.9744C22.8207 28.0694 21.3869 28.0826 19.8559 28.0028C19.8285 28.3516 19.8142 28.7094 19.8142 29.0744C19.8142 29.603 19.8488 30.1078 19.9125 30.5864C21.3177 30.6929 22.6715 30.6777 24.0899 30.5498ZM20.4096 32.6469C21.4784 32.7022 22.5269 32.6917 23.5979 32.6195C23.4244 33.1016 23.2197 33.5385 22.994 33.9257C22.6806 34.4634 22.3392 34.8865 21.9988 35.2048C21.6583 34.8865 21.317 34.4634 21.0036 33.9257C20.7822 33.5458 20.581 33.1182 20.4096 32.6469ZM17.8481 30.349C17.8094 29.9359 17.7892 29.5106 17.7892 29.0744C17.7892 28.6588 17.8054 28.2494 17.8368 27.8483C16.9764 27.762 16.0904 27.6479 15.1817 27.5041C15.072 27.9946 15.0142 28.5045 15.0142 29.028C15.0142 29.2922 15.0289 29.553 15.0577 29.8095C16.0423 30.0355 16.9642 30.2147 17.8481 30.349ZM15.6891 32.0186C16.5712 32.1987 17.4107 32.3408 18.2241 32.4466C18.4772 33.3784 18.83 34.2178 19.2541 34.9454C19.3837 35.1678 19.5215 35.382 19.6666 35.5866C17.914 34.9736 16.4819 33.6781 15.6891 32.0186Z" fill="url(#paint1_linear_3169_9683)"/>
<path fill-rule="evenodd" clip-rule="evenodd" d="M24.8636 20.8984C25.2466 21.2955 25.6306 21.6988 26.0482 22.0598C26.2429 22.2511 26.4913 22.3733 26.7851 22.3733C27.1038 22.3733 27.3691 22.2294 27.5705 22.0096C27.7903 21.8082 27.9342 21.5429 27.9342 21.2242C27.9342 20.917 27.8005 20.6594 27.594 20.4609C27.2408 20.1214 26.7441 19.5962 26.3421 19.1526C26.4243 19.0389 26.5087 18.9169 26.5955 18.787C26.7697 18.5541 26.943 18.3036 27.1153 18.0358C27.6469 17.2667 27.9884 16.4471 28.3756 15.6082C28.4505 15.4399 28.5064 15.2617 28.5427 15.0811H29.4342C30.1025 15.0811 30.5548 14.5906 30.5548 13.9319C30.5548 13.2684 30.0978 12.8113 29.4342 12.8113H25.9402V12.6216C25.9402 12.3112 25.8381 12.0141 25.5916 11.7956C25.3684 11.5802 25.0797 11.501 24.7911 11.501C24.501 11.501 24.1979 11.5738 23.9706 11.8011C23.7433 12.0284 23.6705 12.3315 23.6705 12.6216V12.8113H20.148C19.5027 12.8113 19.0273 13.2883 19.0273 13.9319C19.0273 14.5841 19.4836 15.0811 20.148 15.0811H26.2027C25.8955 15.6754 25.5874 16.2495 25.206 16.8004C25.0738 16.9994 24.9456 17.2008 24.8086 17.3966L24.8026 17.4053L24.7985 17.4114C24.3968 17.0097 24.0973 16.5608 23.8192 16.0715C23.6705 15.7899 23.4732 15.5708 23.1545 15.5C22.5602 15.3679 22.0204 15.6373 21.7736 16.1926L21.7679 16.2053L21.7631 16.2182C21.6548 16.5069 21.6901 16.8074 21.79 17.082L21.7962 17.099L21.8037 17.1155C21.9154 17.3614 22.0673 17.6087 22.2538 17.8573L22.261 17.8669L22.2686 17.8761C22.4504 18.0942 22.6333 18.3318 22.8171 18.5892L22.8395 18.6206L22.8668 18.6478C23.0051 18.7862 23.1232 18.9215 23.2223 19.0537L23.2329 19.0678L23.3578 19.2106L20.7589 21.8351C20.5488 22.0456 20.4231 22.3131 20.4231 22.62C20.4231 22.9273 20.5482 23.1942 20.7589 23.4049C20.9695 23.6155 21.2365 23.7406 21.5438 23.7406C21.8472 23.7406 22.114 23.619 22.3345 23.426L22.3462 23.4158L24.8636 20.8984Z" fill="url(#paint2_linear_3169_9683)"/>
<path fill-rule="evenodd" clip-rule="evenodd" d="M28.7277 22.9229L31.5905 15.7813C31.714 15.5419 31.8585 15.3462 32.0992 15.2236C32.2801 15.1315 32.541 15.083 32.7629 15.083C32.9585 15.083 33.1496 15.1243 33.3208 15.2236C33.5508 15.3439 33.6859 15.55 33.7499 15.7813L36.6126 22.9229C36.8572 23.4829 36.5779 24.1746 35.9882 24.3646C35.4049 24.6095 34.7873 24.2799 34.5408 23.7252L34.5343 23.7107L33.9827 22.3177H31.3576L30.7999 23.7253C30.5571 24.2715 29.951 24.6067 29.3776 24.3622C28.789 24.1556 28.475 23.5016 28.7277 22.9229ZM32.6702 18.0359L31.6813 20.4773H33.69L32.6702 18.0359Z" fill="url(#paint3_linear_3169_9683)"/>
</g>
</g>
<defs>
<linearGradient id="paint0_linear_3169_9683" x1="4.35238" y1="6.76206" x2="41.064" y2="44.1935" gradientUnits="userSpaceOnUse">
<stop stop-color="white"/>
<stop offset="1" stop-color="#EAECEE"/>
</linearGradient>
<linearGradient id="paint1_linear_3169_9683" x1="15.351" y1="23.7454" x2="27.4261" y2="36.9189" gradientUnits="userSpaceOnUse">
<stop stop-color="#0195FF"/>
<stop offset="0.991028" stop-color="#1147E9"/>
</linearGradient>
<linearGradient id="paint2_linear_3169_9683" x1="20.7316" y1="13.3017" x2="29.2843" y2="21.3915" gradientUnits="userSpaceOnUse">
<stop stop-color="#1348FF"/>
<stop offset="1" stop-color="#06238D"/>
</linearGradient>
<linearGradient id="paint3_linear_3169_9683" x1="29.8461" y1="16.4879" x2="36.329" y2="22.0653" gradientUnits="userSpaceOnUse">
<stop stop-color="#00BBFF"/>
<stop offset="1" stop-color="#008BFF"/>
</linearGradient>
<clipPath id="clip0_3169_9683">
<rect width="48" height="48" fill="white" transform="translate(-0.00146484 0.000976562)"/>
</clipPath>
<clipPath id="clip1_3169_9683">
<rect width="27" height="27" fill="white" transform="translate(12.4995 11.501)"/>
</clipPath>
</defs>
</svg>
