<svg width="48" height="48" viewBox="0 0 48 48" fill="none" xmlns="http://www.w3.org/2000/svg">
<g clip-path="url(#clip0_3173_15023)">
<circle cx="23.9985" cy="23.9492" r="23.5714" fill="url(#paint0_linear_3173_15023)" stroke="#D5DADD" stroke-width="0.857143"/>
<g clip-path="url(#clip1_3173_15023)">
<path fill-rule="evenodd" clip-rule="evenodd" d="M19.2392 15.0918C19.6123 15.6269 19.4809 16.3632 18.9457 16.7363C18.0824 17.3382 17.3312 18.0901 16.7301 18.954C16.3576 19.4895 15.6214 19.6216 15.0859 19.2491C14.5503 18.8765 14.4182 18.1403 14.7908 17.6048C15.5515 16.5113 16.5019 15.56 17.5947 14.7983C18.1298 14.4252 18.8661 14.5566 19.2392 15.0918ZM28.7576 15.0918C29.1307 14.5566 29.867 14.4252 30.4021 14.7983C31.4949 15.56 32.4453 16.5113 33.206 17.6048C33.5786 18.1403 33.4465 18.8765 32.9109 19.2491C32.3754 19.6216 31.6392 19.4895 31.2667 18.954C30.6656 18.0901 29.9144 17.3382 29.0511 16.7363C28.5159 16.3632 28.3845 15.627 28.7576 15.0918ZM15.0859 28.7505C15.6214 28.3779 16.3576 28.51 16.7301 29.0456C17.3312 29.9095 18.0824 30.6614 18.9457 31.2632C19.4809 31.6363 19.6123 32.3726 19.2392 32.9078C18.8661 33.443 18.1298 33.5744 17.5947 33.2013C16.5019 32.4395 15.5515 31.4882 14.7908 30.3948C14.4182 29.8592 14.5503 29.1231 15.0859 28.7505ZM32.9109 28.7505C33.4465 29.1231 33.5786 29.8592 33.206 30.3948C32.4453 31.4882 31.4949 32.4395 30.4021 33.2013C29.867 33.5744 29.1307 33.443 28.7576 32.9078C28.3845 32.3726 28.5159 31.6363 29.0511 31.2632C29.9144 30.6614 30.6656 29.9095 31.2667 29.0456C31.6392 28.51 32.3754 28.3779 32.9109 28.7505Z" fill="url(#paint1_linear_3173_15023)"/>
<path d="M10.583 24.0278C10.583 22.1688 12.0989 20.6616 13.9686 20.6616C15.8384 20.6616 17.3543 22.1688 17.3543 24.0278C17.3543 25.8867 15.8384 27.3939 13.9686 27.3939C12.0989 27.3939 10.583 25.8867 10.583 24.0278ZM13.9686 22.9052C13.3457 22.9052 12.8404 23.4075 12.8404 24.0269C12.8404 24.6463 13.3457 25.1487 13.9686 25.1487C14.5916 25.1487 15.0969 24.6463 15.0969 24.0269C15.0969 23.4075 14.5916 22.9052 13.9686 22.9052Z" fill="url(#paint2_linear_3173_15023)"/>
<path d="M30.6431 24.0278C30.6431 22.1688 32.159 20.6616 34.0287 20.6616C35.8984 20.6616 37.4143 22.1688 37.4143 24.0278C37.4143 25.8867 35.8984 27.3939 34.0287 27.3939C32.159 27.3939 30.6431 25.8867 30.6431 24.0278ZM34.0287 22.9052C33.4057 22.9052 32.9004 23.4075 32.9004 24.0269C32.9004 24.6463 33.4057 25.1487 34.0287 25.1487C34.6517 25.1487 35.157 24.6463 35.157 24.0269C35.157 23.4075 34.6517 22.9052 34.0287 22.9052Z" fill="url(#paint3_linear_3173_15023)"/>
<path d="M24.0094 10.6055C25.8791 10.6055 27.395 12.1127 27.395 13.9716C27.395 15.8305 25.8791 17.3377 24.0094 17.3377C22.1397 17.3377 20.6238 15.8305 20.6238 13.9716C20.6238 12.1127 22.1397 10.6055 24.0094 10.6055ZM25.1385 13.9716C25.1385 13.3522 24.6332 12.8498 24.0102 12.8498C23.3873 12.8498 22.882 13.3522 22.882 13.9716C22.882 14.591 23.3873 15.0934 24.0102 15.0934C24.6332 15.0934 25.1385 14.591 25.1385 13.9716Z" fill="url(#paint4_linear_3173_15023)"/>
<path d="M24.0094 30.6621C25.8791 30.6621 27.395 32.1693 27.395 34.0282C27.395 35.8872 25.8791 37.3944 24.0094 37.3944C22.1397 37.3944 20.6238 35.8872 20.6238 34.0282C20.6238 32.1693 22.1397 30.6621 24.0094 30.6621ZM25.1385 34.0282C25.1385 33.4089 24.6332 32.9065 24.0102 32.9065C23.3873 32.9065 22.882 33.4089 22.882 34.0282C22.882 34.6476 23.3873 35.15 24.0102 35.15C24.6332 35.15 25.1385 34.6476 25.1385 34.0282Z" fill="url(#paint5_linear_3173_15023)"/>
<path d="M27.2286 20.4605C27.4986 20.1808 27.8023 20.041 28.1397 20.041C28.4771 20.041 28.7808 20.1808 29.0507 20.4605C29.2869 20.7052 29.405 21.0023 29.405 21.3519C29.405 21.7015 29.2869 22.0161 29.0507 22.2958L23.9388 27.5918C23.7026 27.8365 23.3989 27.9589 23.0278 27.9589C22.6566 27.9589 22.3529 27.8365 22.1167 27.5918L19.5861 24.97C19.3161 24.6903 19.1812 24.3757 19.1812 24.0262C19.1812 23.6766 19.3161 23.362 19.5861 23.0823C19.856 22.8026 20.1597 22.6628 20.4971 22.6628C20.8345 22.6628 21.1213 22.8026 21.3575 23.0823L23.0278 24.8127L27.2286 20.4605Z" fill="url(#paint6_linear_3173_15023)"/>
</g>
</g>
<defs>
<linearGradient id="paint0_linear_3173_15023" x1="4.3514" y1="6.76206" x2="41.063" y2="44.1935" gradientUnits="userSpaceOnUse">
<stop stop-color="white"/>
<stop offset="1" stop-color="#EAECEE"/>
</linearGradient>
<linearGradient id="paint1_linear_3173_15023" x1="17.3985" y1="17.4107" x2="30.5815" y2="30.5922" gradientUnits="userSpaceOnUse">
<stop stop-color="#00BBFF"/>
<stop offset="1" stop-color="#008BFF"/>
</linearGradient>
<linearGradient id="paint2_linear_3173_15023" x1="11.598" y1="21.6684" x2="16.3119" y2="26.4112" gradientUnits="userSpaceOnUse">
<stop stop-color="#0195FF"/>
<stop offset="0.991028" stop-color="#1147E9"/>
</linearGradient>
<linearGradient id="paint3_linear_3173_15023" x1="31.6581" y1="21.6684" x2="36.3719" y2="26.4112" gradientUnits="userSpaceOnUse">
<stop stop-color="#0195FF"/>
<stop offset="0.991028" stop-color="#1147E9"/>
</linearGradient>
<linearGradient id="paint4_linear_3173_15023" x1="26.3824" y1="11.6147" x2="21.6669" y2="16.3558" gradientUnits="userSpaceOnUse">
<stop stop-color="#0195FF"/>
<stop offset="0.991028" stop-color="#1147E9"/>
</linearGradient>
<linearGradient id="paint5_linear_3173_15023" x1="26.3824" y1="31.6713" x2="21.6669" y2="36.4124" gradientUnits="userSpaceOnUse">
<stop stop-color="#0195FF"/>
<stop offset="0.991028" stop-color="#1147E9"/>
</linearGradient>
<linearGradient id="paint6_linear_3173_15023" x1="20.6927" y1="21.2059" x2="26.052" y2="28.1558" gradientUnits="userSpaceOnUse">
<stop stop-color="#1348FF"/>
<stop offset="1" stop-color="#06238D"/>
</linearGradient>
<clipPath id="clip0_3173_15023">
<rect width="48" height="48" fill="white" transform="translate(-0.00146484 0.000976562)"/>
</clipPath>
<clipPath id="clip1_3173_15023">
<rect width="27" height="27" fill="white" transform="translate(10.4985 10.5)"/>
</clipPath>
</defs>
</svg>
