<svg width="48" height="48" viewBox="0 0 48 48" fill="none" xmlns="http://www.w3.org/2000/svg">
<g clip-path="url(#clip0_3169_9692)">
<circle cx="23.9985" cy="23.9492" r="23.5714" fill="url(#paint0_linear_3169_9692)" stroke="#D5DADD" stroke-width="0.857143"/>
<path fill-rule="evenodd" clip-rule="evenodd" d="M23.3804 11.4482C23.7631 10.8083 24.5921 10.5999 25.2319 10.9827L33.7949 16.1051C35.0455 16.8531 35.811 18.2032 35.811 19.6604V28.977C35.811 30.4369 35.0426 31.789 33.7884 32.5362L26.1188 37.105C24.8124 37.8832 23.1847 37.8832 21.8783 37.105L14.2087 32.5362C12.9544 31.789 12.186 30.4369 12.186 28.977V19.6623C12.186 18.2035 12.9532 16.8523 14.2059 16.1048L19.1214 13.1713C19.7616 12.7892 20.5904 12.9985 20.9725 13.6387C21.3545 14.279 21.1453 15.1077 20.505 15.4898L15.5895 18.4233C15.1532 18.6836 14.886 19.1542 14.886 19.6623L14.886 28.977C14.886 29.4854 15.1537 29.9564 15.5905 30.2166L23.2601 34.7854C23.7151 35.0564 24.282 35.0564 24.737 34.7854L32.4066 30.2166C32.8434 29.9564 33.111 29.4854 33.111 28.977V19.6604C33.111 19.1529 32.8444 18.6827 32.4089 18.4221L23.8459 13.2998C23.206 12.917 22.9976 12.088 23.3804 11.4482Z" fill="url(#paint1_linear_3169_9692)"/>
<path fill-rule="evenodd" clip-rule="evenodd" d="M30.2108 24.4179C30.5166 24.5568 30.6694 24.7931 30.6694 25.1266V25.21L30.461 26.0856C30.3776 26.4469 30.1552 26.6276 29.7939 26.6276H29.7105L28.3763 26.4191C28.1262 26.9472 27.7231 27.4336 27.1672 27.8784L27.6675 29.2959C27.6953 29.3515 27.7092 29.421 27.7092 29.5044C27.7092 29.8379 27.5841 30.0603 27.334 30.1715L26.5418 30.5884C26.4306 30.644 26.3472 30.6718 26.2917 30.6718C26.0415 30.6718 25.8469 30.5467 25.708 30.2965L24.9158 28.9207C24.7768 28.9485 24.6239 28.9763 24.4572 29.0041H23.9985H23.5816C23.4704 28.9763 23.3453 28.9485 23.2064 28.9207L22.3725 30.3382C22.2335 30.5606 22.0529 30.6718 21.8305 30.6718C21.6915 30.6718 21.5942 30.644 21.5386 30.5884L20.7465 30.2132C20.4963 30.102 20.3712 29.9074 20.3712 29.6295C20.3712 29.5183 20.3851 29.4349 20.4129 29.3793L20.9132 27.9617C20.4129 27.6004 20.0099 27.1279 19.7041 26.5442L18.2866 26.7527H18.2032C17.8419 26.7527 17.6195 26.572 17.5361 26.2106L17.3276 25.3351V25.2517C17.3276 24.9182 17.4805 24.6819 17.7863 24.5429L18.9954 24.1677V24.0009C18.9954 23.306 19.1204 22.6668 19.3706 22.0831L18.4534 21.2492C18.37 21.1658 18.3005 21.0129 18.2449 20.7906C18.2449 20.596 18.3005 20.4431 18.4117 20.332L18.9537 19.6232C19.0926 19.4564 19.2594 19.373 19.454 19.373C19.593 19.373 19.718 19.4147 19.8292 19.4981L20.7882 20.1652C21.3719 19.6927 22.0112 19.3591 22.706 19.1646L22.7894 17.9555C22.8172 17.7887 22.8867 17.6497 22.9979 17.5385C23.1369 17.3996 23.2898 17.3301 23.4565 17.3301H24.3321C24.5266 17.3301 24.6795 17.3996 24.7907 17.5385C24.9297 17.6497 24.9992 17.7887 24.9992 17.9555L25.0826 19.1229C25.7774 19.2896 26.4445 19.5954 27.0838 20.0401L28.0428 19.373C28.1817 19.2896 28.3068 19.2479 28.418 19.2479C28.6404 19.2479 28.8071 19.3313 28.9183 19.4981L29.4603 20.2069C29.5715 20.3181 29.6271 20.4709 29.6271 20.6655C29.6271 20.8323 29.5576 20.9851 29.4186 21.1241L28.5848 21.958C28.7238 22.2637 28.821 22.5834 28.8766 22.9169C28.96 23.2505 29.0017 23.6118 29.0017 24.0009V24.0426L30.2108 24.4179ZM21.9556 26.0439C21.3997 25.488 21.1217 24.807 21.1217 24.0009C21.1217 23.1949 21.3997 22.5139 21.9556 21.958C22.5115 21.4021 23.1925 21.1241 23.9985 21.1241C24.8046 21.1241 25.4856 21.4021 26.0415 21.958C26.5974 22.5139 26.8754 23.1949 26.8754 24.0009C26.8754 24.807 26.5974 25.488 26.0415 26.0439C25.4856 26.5998 24.8046 26.8777 23.9985 26.8777C23.1925 26.8777 22.5115 26.5998 21.9556 26.0439Z" fill="url(#paint2_linear_3169_9692)"/>
</g>
<defs>
<linearGradient id="paint0_linear_3169_9692" x1="4.3514" y1="6.76206" x2="41.063" y2="44.1935" gradientUnits="userSpaceOnUse">
<stop stop-color="white"/>
<stop offset="1" stop-color="#EAECEE"/>
</linearGradient>
<linearGradient id="paint1_linear_3169_9692" x1="15.7275" y1="14.8134" x2="34.4046" y2="31.2237" gradientUnits="userSpaceOnUse">
<stop stop-color="#0195FF"/>
<stop offset="0.991028" stop-color="#1147E9"/>
</linearGradient>
<linearGradient id="paint2_linear_3169_9692" x1="19.3001" y1="19.2929" x2="28.6372" y2="28.6704" gradientUnits="userSpaceOnUse">
<stop stop-color="#1348FF"/>
<stop offset="1" stop-color="#06238D"/>
</linearGradient>
<clipPath id="clip0_3169_9692">
<rect width="48" height="48" fill="white" transform="translate(-0.00146484 0.000976562)"/>
</clipPath>
</defs>
</svg>
