<svg width="48" height="48" viewBox="0 0 48 48" fill="none" xmlns="http://www.w3.org/2000/svg">
<g clip-path="url(#clip0_3169_9722)">
<circle cx="24" cy="23.9492" r="23.5714" fill="url(#paint0_linear_3169_9722)" stroke="#D5DADD" stroke-width="0.857143"/>
<g clip-path="url(#clip1_3169_9722)">
<path fill-rule="evenodd" clip-rule="evenodd" d="M35.5425 17.2739C35.5425 15.3498 33.9828 13.79 32.0587 13.79H14.9839C13.0598 13.79 11.5 15.3498 11.5 17.2739V19.7425C12.9383 20.1713 13.987 21.504 13.987 23.0817C13.987 24.6593 12.9383 25.992 11.5 26.4208V28.5783C11.5 30.5024 13.0598 32.0622 14.9839 32.0622H21.5022C21.7932 30.6926 23.0123 29.6686 24.4641 29.6686H30.0769C29.7176 28.6113 29.9596 27.3935 30.8029 26.5523C31.9832 25.3751 33.901 25.3751 35.0813 26.5523L35.5425 27.0124V17.2739ZM29.4142 18.0714C29.4142 17.1668 28.9438 16.7146 28.0031 16.7146H19.7122C18.7715 16.7146 18.3011 17.1668 18.3011 18.0714C18.3011 19.0121 18.7715 19.4824 19.7122 19.4824H28.0031C28.9438 19.4824 29.4142 19.0121 29.4142 18.0714ZM25.523 23.2814C25.7763 22.9919 25.9029 22.6482 25.9029 22.2502C25.9029 21.3457 25.4506 20.8935 24.5461 20.8935H19.7122C18.7715 20.8935 18.3011 21.3457 18.3011 22.2502C18.3011 22.6482 18.4277 22.9919 18.681 23.2814C18.9343 23.5346 19.278 23.6613 19.7122 23.6613H24.5461C24.9441 23.6613 25.2697 23.5346 25.523 23.2814ZM27.3463 27.4502C27.5995 27.1607 27.7262 26.817 27.7262 26.419C27.7262 25.5145 27.2739 25.0623 26.3694 25.0623H19.7122C18.7715 25.0623 18.3011 25.5145 18.3011 26.419C18.3011 26.817 18.4278 27.1607 18.681 27.4502C18.9343 27.7035 19.278 27.8301 19.7122 27.8301H26.3694C26.7674 27.8301 27.093 27.7035 27.3463 27.4502Z" fill="url(#paint1_linear_3169_9722)"/>
<path d="M23.1235 32.693C23.1235 33.4306 23.7244 34.0299 24.4639 34.0299L34.1271 34.0299L31.9944 36.157C31.4728 36.6773 31.4728 37.5269 31.9944 38.0471C32.2585 38.3106 32.6019 38.4423 32.9452 38.4423C33.2885 38.4423 33.6319 38.3105 33.8894 38.0537L38.1086 33.8455C38.6302 33.3252 38.6302 32.4756 38.1086 31.9554L33.8894 27.7471C33.3678 27.2269 32.516 27.2269 31.9944 27.7471C31.4728 28.2674 31.4728 29.117 31.9944 29.6372L33.7177 31.3561L24.4639 31.3561C23.7244 31.3561 23.1235 31.9554 23.1235 32.693Z" fill="url(#paint2_linear_3169_9722)"/>
</g>
</g>
<defs>
<linearGradient id="paint0_linear_3169_9722" x1="4.35287" y1="6.76206" x2="41.0645" y2="44.1935" gradientUnits="userSpaceOnUse">
<stop stop-color="white"/>
<stop offset="1" stop-color="#EAECEE"/>
</linearGradient>
<linearGradient id="paint1_linear_3169_9722" x1="15.1041" y1="16.5225" x2="27.4298" y2="32.7464" gradientUnits="userSpaceOnUse">
<stop stop-color="#0195FF"/>
<stop offset="0.991028" stop-color="#1147E9"/>
</linearGradient>
<linearGradient id="paint2_linear_3169_9722" x1="25.3968" y1="28.9878" x2="32.7473" y2="39.2275" gradientUnits="userSpaceOnUse">
<stop stop-color="#1348FF"/>
<stop offset="1" stop-color="#06238D"/>
</linearGradient>
<clipPath id="clip0_3169_9722">
<rect width="48" height="48" fill="white" transform="translate(0 0.000976562)"/>
</clipPath>
<clipPath id="clip1_3169_9722">
<rect width="27" height="27" fill="white" transform="translate(11.5 12.501)"/>
</clipPath>
</defs>
</svg>
