<svg width="48" height="48" viewBox="0 0 48 48" fill="none" xmlns="http://www.w3.org/2000/svg">
<g clip-path="url(#clip0_3169_9739)">
<circle cx="24" cy="24.001" r="23.5714" fill="url(#paint0_linear_3169_9739)" stroke="#D5DADD" stroke-width="0.857143"/>
<g clip-path="url(#clip1_3169_9739)">
<mask id="mask0_3169_9739" style="mask-type:luminance" maskUnits="userSpaceOnUse" x="11" y="9" width="26" height="28">
<path d="M23.7002 9.50098C23.7002 9.50098 23.697 10.6247 26.6346 12.4094C32.3381 15.873 32.3186 19.0509 32.3186 19.7178C32.3186 22.5495 29.3713 24.3801 28.004 22.8984C28.004 22.8984 29.3459 21.9026 29.3459 20.3712C29.3459 20.3712 28.3621 21.0192 27.8474 21.1315C27.8474 21.1315 28.5181 19.9462 28.2055 17.8667C28.2055 17.8667 27.6687 18.9175 25.9466 19.7675C25.9466 19.7675 26.6173 18.269 25.9915 16.838C25.9915 16.838 26.1254 18.627 22.0549 20.5278C17.9843 22.4286 19.2371 24.3299 19.2371 24.3299C19.2371 24.3299 20.0471 23.4659 21.4263 24.0734C23.2898 24.8921 22.5365 28.1774 19.5395 28.1774C16.6235 28.1774 14.7071 25.0044 14.7071 22.5263C14.7071 21.5003 14.8183 19.6173 16.6689 17.5443C18.1409 15.8957 19.9564 15.0257 20.3458 13.2027C18.3299 15.0716 14.6909 16.292 12.5282 19.491C10.5842 22.3643 11.216 26.1654 11.5654 27.3345C13.1519 32.6367 18.0675 36.501 23.8855 36.501C30.987 36.501 36.8174 30.8186 36.8174 23.717C36.8174 12.9667 26.5973 11.8262 23.7002 9.50098ZM21.9798 22.6613C21.7638 22.7115 21.5559 22.6208 21.2103 22.5161C20.8863 22.4178 20.7724 22.4361 20.7724 22.4361C20.9907 22.2892 21.2194 22.1582 21.4565 22.0441C21.8 21.8859 22.0937 21.8778 22.2298 22.1921C22.3195 22.3989 22.1569 22.6197 21.9798 22.6613Z" fill="white"/>
</mask>
<g mask="url(#mask0_3169_9739)">
<path d="M23.7002 9.50098C23.7002 9.50098 23.697 10.6247 26.6346 12.4094C32.3381 15.873 32.3186 19.0509 32.3186 19.7178C32.3186 22.5495 29.3713 24.3801 28.004 22.8984C28.004 22.8984 29.3459 21.9026 29.3459 20.3712C29.3459 20.3712 28.3621 21.0192 27.8474 21.1315C27.8474 21.1315 28.5181 19.9462 28.2055 17.8667C28.2055 17.8667 27.6687 18.9175 25.9466 19.7675C25.9466 19.7675 26.6173 18.269 25.9915 16.838C25.9915 16.838 26.1254 18.627 22.0549 20.5278C17.9843 22.4286 19.2371 24.3299 19.2371 24.3299C19.2371 24.3299 20.0471 23.4659 21.4263 24.0734C23.2898 24.8921 22.5365 28.1774 19.5395 28.1774C16.6235 28.1774 14.7071 25.0044 14.7071 22.5263C14.7071 21.5003 14.8183 19.6173 16.6689 17.5443C18.1409 15.8957 19.9564 15.0257 20.3458 13.2027C18.3299 15.0716 14.6909 16.292 12.5282 19.491C10.5842 22.3643 11.216 26.1654 11.5654 27.3345C13.1519 32.6367 18.0675 36.501 23.8855 36.501C30.987 36.501 36.8174 30.8186 36.8174 23.717C36.8174 12.9667 26.5973 11.8262 23.7002 9.50098Z" fill="url(#paint1_linear_3169_9739)"/>
<path opacity="0.6" d="M22.962 22.9303C25.2262 21.7633 25.952 19.7637 25.952 19.7637C25.952 19.7637 26.6227 18.2647 25.9963 16.832C25.9963 16.832 26.1302 18.6227 22.0543 20.5251C17.9783 22.4275 19.2344 24.3299 19.2344 24.3299C19.4477 24.1399 19.6507 24.0113 20.053 23.9033C20.7259 23.723 21.7805 23.541 22.962 22.9303Z" fill="url(#paint2_linear_3169_9739)"/>
<path opacity="0.4" d="M23.0789 23.757C24.8285 23.757 26.853 22.9438 27.8547 21.1272C28.0113 20.8437 28.1506 20.3831 28.2202 19.9495C28.3282 19.2583 28.3417 18.7442 28.2143 17.8105C28.2143 17.8105 27.8827 18.7399 25.9522 19.7616C25.2502 20.1325 24.3533 20.5035 23.1653 20.8642C18.5624 22.2612 19.2374 24.3278 19.2374 24.3278C19.9626 23.8499 19.9669 23.757 23.0789 23.757Z" fill="url(#paint3_linear_3169_9739)"/>
<path opacity="0.2" d="M23.0789 23.7568C24.6875 23.7568 26.8745 23.8476 28.0107 22.8928C28.7073 22.3091 29.3434 21.5374 29.3553 20.3613C29.3553 20.3613 28.4022 20.9904 27.8546 21.1254C27.0986 21.3123 25.733 21.5995 24.4856 21.5288C20.2514 21.2885 19.2373 24.3255 19.2373 24.3255C19.821 23.7898 20.5317 23.7568 23.0789 23.7568Z" fill="url(#paint4_linear_3169_9739)"/>
<path opacity="0.4" d="M22.9623 22.9302C25.2265 21.7633 25.9522 19.7637 25.9522 19.7637C25.2502 20.1347 24.3533 20.5056 23.1653 20.8664C18.5624 22.2633 19.2374 24.3299 19.2374 24.3299C19.4507 24.1398 19.6537 24.0113 20.056 23.9033C20.7261 23.723 21.7807 23.541 22.9623 22.9302Z" fill="url(#paint5_linear_3169_9739)"/>
<path d="M20.0581 23.9031C20.7282 23.7227 21.7829 23.5391 22.9644 22.9311C23.6487 22.5782 24.266 22.1083 24.7885 21.5427C24.687 21.5427 24.586 21.539 24.4856 21.5336C20.2514 21.2933 19.2373 24.3302 19.2373 24.3302C19.4212 24.1559 19.643 24.0265 19.8853 23.9522C19.9398 23.9366 19.9949 23.9187 20.0581 23.9031Z" fill="url(#paint6_linear_3169_9739)"/>
<path opacity="0.4" d="M36.8173 23.717C36.8173 21.5732 36.4102 19.8122 35.7373 18.3467C35.8016 18.5405 37.1035 22.6127 33.8441 25.8705C31.9832 27.7313 28.8172 28.3756 26.2717 26.3408C26.2717 26.3408 26.5957 31.4482 20.5444 32.2015C16.5932 32.6934 13.4839 30.1759 12.135 26.9694C11.1965 24.7392 11.109 22.1758 12.1836 20.0574C10.6657 22.8454 11.2386 26.2409 11.5653 27.3344C13.1518 32.6367 18.0674 36.5009 23.8854 36.5009C30.9869 36.5009 36.8173 30.8185 36.8173 23.717Z" fill="url(#paint7_linear_3169_9739)"/>
<path opacity="0.6" d="M35.512 29.3243C34.8413 29.5058 29.585 30.7564 26.271 26.3408C26.271 26.3408 27.8143 32.3267 21.2544 36.2309C22.1199 36.411 23.0017 36.5015 23.8858 36.5009C28.971 36.5009 33.4044 33.5849 35.512 29.3243Z" fill="url(#paint8_linear_3169_9739)"/>
<path opacity="0.7" d="M32.6576 33.1086C28.5477 30.9929 26.2705 26.3408 26.2705 26.3408C28.1022 30.8082 27.3084 34.2945 26.4865 36.2412C28.7893 35.7751 30.9222 34.6924 32.6576 33.1086Z" fill="url(#paint9_linear_3169_9739)"/>
</g>
</g>
</g>
<defs>
<linearGradient id="paint0_linear_3169_9739" x1="4.35287" y1="6.81382" x2="41.0645" y2="44.2453" gradientUnits="userSpaceOnUse">
<stop stop-color="white"/>
<stop offset="1" stop-color="#EAECEE"/>
</linearGradient>
<linearGradient id="paint1_linear_3169_9739" x1="15.025" y1="13.5387" x2="33.9052" y2="31.4708" gradientUnits="userSpaceOnUse">
<stop stop-color="#0195FF"/>
<stop offset="0.991028" stop-color="#1147E9"/>
</linearGradient>
<linearGradient id="paint2_linear_3169_9739" x1="20.1311" y1="17.957" x2="25.377" y2="22.9992" gradientUnits="userSpaceOnUse">
<stop stop-color="#00BBFF"/>
<stop offset="1" stop-color="#008BFF"/>
</linearGradient>
<linearGradient id="paint3_linear_3169_9739" x1="20.565" y1="18.7883" x2="24.8859" y2="24.8193" gradientUnits="userSpaceOnUse">
<stop stop-color="#00BBFF"/>
<stop offset="1" stop-color="#008BFF"/>
</linearGradient>
<linearGradient id="paint4_linear_3169_9739" x1="20.7515" y1="20.9561" x2="22.638" y2="25.7678" gradientUnits="userSpaceOnUse">
<stop stop-color="#00BBFF"/>
<stop offset="1" stop-color="#008BFF"/>
</linearGradient>
<linearGradient id="paint5_linear_3169_9739" x1="20.2128" y1="20.4488" x2="23.1813" y2="24.8336" gradientUnits="userSpaceOnUse">
<stop stop-color="#00BBFF"/>
<stop offset="1" stop-color="#008BFF"/>
</linearGradient>
<linearGradient id="paint6_linear_3169_9739" x1="20.0681" y1="21.9416" x2="21.6546" y2="25.0733" gradientUnits="userSpaceOnUse">
<stop stop-color="#00BBFF"/>
<stop offset="1" stop-color="#008BFF"/>
</linearGradient>
<linearGradient id="paint7_linear_3169_9739" x1="14.9725" y1="21.0176" x2="26.9401" y2="37.9892" gradientUnits="userSpaceOnUse">
<stop stop-color="#1348FF"/>
<stop offset="1" stop-color="#06238D"/>
</linearGradient>
<linearGradient id="paint8_linear_3169_9739" x1="23.3917" y1="27.8602" x2="30.1153" y2="37.2987" gradientUnits="userSpaceOnUse">
<stop stop-color="#0195FF"/>
<stop offset="0.991028" stop-color="#1147E9"/>
</linearGradient>
<linearGradient id="paint9_linear_3169_9739" x1="27.2264" y1="27.8262" x2="33.5404" y2="31.8967" gradientUnits="userSpaceOnUse">
<stop stop-color="#00BBFF"/>
<stop offset="1" stop-color="#008BFF"/>
</linearGradient>
<clipPath id="clip0_3169_9739">
<rect width="48" height="48" fill="white" transform="translate(0 0.000976562)"/>
</clipPath>
<clipPath id="clip1_3169_9739">
<rect width="27" height="27" fill="white" transform="translate(10.5 9.50098)"/>
</clipPath>
</defs>
</svg>
