<svg width="48" height="48" viewBox="0 0 48 48" fill="none" xmlns="http://www.w3.org/2000/svg">
<circle cx="24" cy="24" r="23.5714" fill="url(#paint0_linear_3219_19940)" stroke="#D5DADD" stroke-width="0.857143"/>
<path d="M15.6756 12.5656C15.6756 11.82 15.0712 11.2156 14.3256 11.2156C13.58 11.2156 12.9756 11.82 12.9756 12.5656L12.9756 18.3689C12.9756 19.1145 13.58 19.7189 14.3256 19.7189C15.0712 19.7189 15.6756 19.1145 15.6756 18.3689L15.6756 12.5656Z" fill="url(#paint1_linear_3219_19940)"/>
<path d="M15.6756 29.5797C15.6756 28.8341 15.0712 28.2297 14.3256 28.2297C13.58 28.2297 12.9756 28.8341 12.9756 29.5797V34.673C12.9756 35.4186 13.58 36.023 14.3256 36.023H34.1615C34.9071 36.023 35.5115 35.4186 35.5115 34.673C35.5115 33.9275 34.9071 33.323 34.1615 33.323H15.6756V29.5797Z" fill="url(#paint2_linear_3219_19940)"/>
<path d="M24.0177 19.6886C23.9824 19.7239 23.8941 19.7415 23.753 19.7415C23.4 19.7415 23.1 19.6709 22.853 19.5298L17.0824 23.818V23.9768C17.0824 24.6827 16.8353 25.2827 16.3412 25.7768C15.8471 26.2709 15.2471 26.518 14.5412 26.518C13.8353 26.518 13.2353 26.2709 12.7412 25.7768C12.2471 25.2827 12 24.6827 12 23.9768C12 23.2709 12.2471 22.6709 12.7412 22.1768C13.2353 21.6827 13.8353 21.4356 14.5412 21.4356C14.8941 21.4356 15.1941 21.5062 15.4412 21.6474L21.2118 17.3592V17.2004C21.2118 16.4945 21.4588 15.8945 21.953 15.4004C22.4471 14.9062 23.0471 14.6592 23.753 14.6592C24.4588 14.6592 25.0588 14.9062 25.553 15.4004C26.0471 15.8945 26.2941 16.4945 26.2941 17.2004C26.2941 17.4827 26.2412 17.7474 26.1353 17.9945L30.2647 23.1827C30.3353 23.1474 30.4235 23.1298 30.5294 23.1298C30.8118 23.1298 31.0588 23.1827 31.2706 23.2886L33.9706 21.0121C33.9353 20.9062 33.9177 20.7651 33.9177 20.5886C33.9177 19.8827 34.1647 19.2827 34.6588 18.7886C35.1529 18.2945 35.7529 18.0474 36.4588 18.0474C37.1647 18.0474 37.7647 18.2945 38.2588 18.7886C38.7529 19.2827 39 19.8827 39 20.5886C39 21.2945 38.7529 21.8945 38.2588 22.3886C37.7647 22.8827 37.1647 23.1298 36.4588 23.1298C36.2824 23.1298 36.0529 23.0945 35.7706 23.0239L33.0177 25.3533C33.0529 25.4239 33.0706 25.5474 33.0706 25.7239C33.0706 26.3945 32.8235 26.9768 32.3294 27.4709C31.8353 27.965 31.2353 28.2121 30.5294 28.2121C29.8235 28.2121 29.2235 27.965 28.7294 27.4709C28.2353 26.9768 27.9882 26.3768 27.9882 25.6709C27.9882 25.4239 28.0412 25.1592 28.1471 24.8768L24.0177 19.6886Z" fill="url(#paint3_linear_3219_19940)"/>
<defs>
<linearGradient id="paint0_linear_3219_19940" x1="4.35287" y1="6.81284" x2="41.0645" y2="44.2443" gradientUnits="userSpaceOnUse">
<stop stop-color="white"/>
<stop offset="1" stop-color="#EAECEE"/>
</linearGradient>
<linearGradient id="paint1_linear_3219_19940" x1="16.3483" y1="14.9375" x2="33.6374" y2="30.6325" gradientUnits="userSpaceOnUse">
<stop stop-color="#00BBFF"/>
<stop offset="1" stop-color="#008BFF"/>
</linearGradient>
<linearGradient id="paint2_linear_3219_19940" x1="16.3483" y1="14.9375" x2="33.6374" y2="30.6325" gradientUnits="userSpaceOnUse">
<stop stop-color="#00BBFF"/>
<stop offset="1" stop-color="#008BFF"/>
</linearGradient>
<linearGradient id="paint3_linear_3219_19940" x1="16.0474" y1="16.6859" x2="23.6554" y2="31.8478" gradientUnits="userSpaceOnUse">
<stop stop-color="#0195FF"/>
<stop offset="0.991028" stop-color="#1147E9"/>
</linearGradient>
</defs>
</svg>
