<svg width="48" height="48" viewBox="0 0 48 48" fill="none" xmlns="http://www.w3.org/2000/svg">
<g clip-path="url(#clip0_3169_9764)">
<circle cx="24" cy="24.001" r="23.5714" fill="url(#paint0_linear_3169_9764)" stroke="#D5DADD" stroke-width="0.857143"/>
<g clip-path="url(#clip1_3169_9764)">
<path d="M35.0018 13.3867C34.2283 12.6133 33.2615 12.2266 32.1014 12.2266H16.1167C14.9917 12.2266 14.0249 12.6133 13.2163 13.3867C12.4429 14.1602 12.0562 15.127 12.0562 16.2871L12.0562 29.6312C12.0562 30.7562 12.4429 31.723 13.2163 32.5316C14.0249 33.3051 14.9917 33.6918 16.1167 33.6918H16.5925C16.9792 33.6918 17.2957 33.5687 17.5417 33.3226C17.7878 33.0414 17.9109 32.7074 17.9109 32.3207C17.9109 31.934 17.7878 31.6176 17.5417 31.3715C17.2957 31.0902 16.9792 30.9496 16.5925 30.9496H16.1167C15.2378 30.9496 14.7984 30.5101 14.7984 29.6312L14.7983 21.6574H20.4365C20.4365 21.6574 21.1095 21.6705 21.4363 21.2421C21.9599 20.629 21.9137 19.7457 21.4363 19.2777C21.071 18.8756 20.4365 18.9152 20.4365 18.9152H14.7983V16.2871C14.7983 15.373 15.2378 14.916 16.1167 14.916H32.1014C33.0154 14.916 33.4725 15.373 33.4725 16.2871V23.1063C33.4725 23.1063 33.4725 23.7588 33.8943 24.1148C34.3162 24.4707 34.5403 24.5037 34.8172 24.5037C35.094 24.5037 35.3919 24.5037 35.8125 24.1148C36.2332 23.7259 36.1619 23.1063 36.1619 23.1063V16.2871C36.1619 15.127 35.7752 14.1602 35.0018 13.3867Z" fill="url(#paint1_linear_3169_9764)"/>
<path fill-rule="evenodd" clip-rule="evenodd" d="M22.8774 26.3091C21.0135 26.3091 19.5024 27.8201 19.5024 29.6841V34.8762C19.5024 36.7402 21.0135 38.2512 22.8774 38.2512H34.8749C36.7388 38.2512 38.2499 36.7402 38.2499 34.8762V29.6841C38.2499 27.8201 36.7388 26.3091 34.8749 26.3091H22.8774ZM32.5275 35.6552C32.3142 35.6552 32.101 35.5726 31.9357 35.4116C31.6093 35.0852 31.6093 34.5544 31.9357 34.228L33.8807 32.283L31.9357 30.3336C31.6093 30.0072 31.6093 29.4764 31.9357 29.15C32.262 28.8237 32.7929 28.8237 33.1192 29.15L35.656 31.6868C35.8127 31.8435 35.8997 32.0567 35.8997 32.2786C35.8997 32.5005 35.8127 32.7137 35.656 32.8704L33.1192 35.4072C32.9539 35.5726 32.7407 35.6552 32.5275 35.6552ZM25.226 35.6552C25.0127 35.6552 24.7995 35.5726 24.6342 35.4116L22.0974 32.8747C21.771 32.5484 21.771 32.0175 22.0974 31.6912L24.6342 29.1544C24.9605 28.828 25.4914 28.828 25.8177 29.1544C26.1441 29.4807 26.1441 30.0116 25.8177 30.3379L23.8683 32.283L25.8134 34.228C26.1397 34.5544 26.1397 35.0852 25.8134 35.4116C25.6524 35.5726 25.4392 35.6552 25.226 35.6552ZM27.4495 35.5073C27.5626 35.5552 27.6757 35.5769 27.7889 35.5769C28.1109 35.5769 28.4155 35.3898 28.5504 35.0809L30.726 30.1639C30.9131 29.7418 30.7217 29.2501 30.2996 29.063C29.8775 28.8759 29.3858 29.0673 29.1987 29.4894L27.023 34.4064C26.8359 34.8285 27.0274 35.3202 27.4495 35.5073Z" fill="url(#paint2_linear_3169_9764)"/>
</g>
</g>
<defs>
<linearGradient id="paint0_linear_3169_9764" x1="4.35287" y1="6.81382" x2="41.0645" y2="44.2453" gradientUnits="userSpaceOnUse">
<stop stop-color="white"/>
<stop offset="1" stop-color="#EAECEE"/>
</linearGradient>
<linearGradient id="paint1_linear_3169_9764" x1="15.6704" y1="15.4366" x2="30.5987" y2="32.2103" gradientUnits="userSpaceOnUse">
<stop stop-color="#0195FF"/>
<stop offset="0.991028" stop-color="#1147E9"/>
</linearGradient>
<linearGradient id="paint2_linear_3169_9764" x1="22.2741" y1="28.066" x2="29.8346" y2="39.9861" gradientUnits="userSpaceOnUse">
<stop stop-color="#1348FF"/>
<stop offset="1" stop-color="#06238D"/>
</linearGradient>
<clipPath id="clip0_3169_9764">
<rect width="48" height="48" fill="white" transform="translate(0 0.000976562)"/>
</clipPath>
<clipPath id="clip1_3169_9764">
<rect width="27" height="27" fill="white" transform="translate(11.25 11.251)"/>
</clipPath>
</defs>
</svg>
