<svg width="48" height="48" viewBox="0 0 48 48" fill="none" xmlns="http://www.w3.org/2000/svg">
<g clip-path="url(#clip0_3169_9790)">
<circle cx="24" cy="23.5112" r="23.5714" fill="url(#paint0_linear_3169_9790)" stroke="#D5DADD" stroke-width="0.857143"/>
<path fill-rule="evenodd" clip-rule="evenodd" d="M32.8847 25.4403L32.8617 24.5201V21.935L34.0548 21.0401C34.7508 20.543 35.0988 19.8802 35.0988 19.0516C35.0988 18.6208 34.9993 18.2396 34.8005 17.9082L33.9056 16.0688C33.6736 15.6049 33.3422 15.2569 32.9114 15.0249C32.5137 14.7929 32.0828 14.6769 31.6188 14.6769C31.2543 14.6769 30.9394 14.7432 30.6743 14.8757L29.1829 15.4723L26.9955 14.1797L26.6972 12.5392C26.5647 11.9427 26.2664 11.4621 25.8024 11.0975C25.3384 10.6998 24.8081 10.501 24.2116 10.501H22.4716C21.8751 10.501 21.3448 10.6998 20.8808 11.0975C20.4168 11.4621 20.1185 11.9427 19.986 12.5392L19.638 14.1797L17.5003 15.4723L16.0089 14.8757C15.7438 14.7432 15.4289 14.6769 15.0644 14.6769C14.6004 14.6769 14.153 14.7929 13.7221 15.0249C13.3244 15.2569 13.0096 15.6049 12.7776 16.0688L11.833 17.9082C11.6673 18.3059 11.5845 18.6705 11.5845 19.0019C11.5845 19.8636 11.9159 20.543 12.5787 21.0401L13.7718 21.935V24.5201L12.6284 25.3652C11.9325 25.8955 11.5845 26.5914 11.5845 27.4531C11.5845 27.7845 11.6673 28.1491 11.833 28.5468L12.7776 30.3862C13.0096 30.8502 13.3244 31.1982 13.7221 31.4302C14.153 31.6622 14.6004 31.7782 15.0644 31.7782C15.3627 31.7782 15.6775 31.7285 16.0089 31.629L17.5003 30.9828L19.638 32.2753L19.986 33.9158C20.0678 34.4065 20.2729 34.8188 20.6013 35.1525C20.7151 34.9258 20.8604 34.7143 21.0339 34.5215L21.0663 34.4856L23.3193 32.2538L21.0636 29.9981L21.0339 29.9651C20.5976 29.4803 20.3101 28.8523 20.3101 28.1258C20.3101 27.8666 20.3447 27.6162 20.4111 27.3778C20.1728 27.208 19.9483 27.0177 19.7374 26.8069C19.2734 26.3429 18.9089 25.8126 18.6437 25.216C18.3786 24.5863 18.246 23.9235 18.246 23.2275C18.246 22.5315 18.3786 21.8853 18.6437 21.2887C18.9089 20.659 19.2734 20.1122 19.7374 19.6482C20.2014 19.1842 20.7317 18.8196 21.3282 18.5545C21.9579 18.2894 22.6208 18.1568 23.3168 18.1568C24.0127 18.1568 24.6756 18.2894 25.3053 18.5545C25.935 18.8196 26.4818 19.1842 26.9458 19.6482C27.4098 20.1122 27.7744 20.659 28.0395 21.2887C28.3046 21.8853 28.4372 22.5315 28.4372 23.2275C28.4372 23.9235 28.3046 24.5863 28.0395 25.216C28.0097 25.283 27.9787 25.3492 27.9464 25.4145C28.024 25.4081 28.1026 25.4048 28.182 25.4048C28.9085 25.4048 29.5365 25.6924 30.0213 26.1287L30.0543 26.1584L30.8636 26.9676C30.9825 26.7096 31.1415 26.4701 31.3359 26.2541L31.3953 26.1881L31.4613 26.1287C31.8646 25.7657 32.3497 25.5263 32.8847 25.4403Z" fill="url(#paint1_linear_3169_9790)"/>
<path fill-rule="evenodd" clip-rule="evenodd" d="M23.7415 37.1036C23.5262 37.2973 23.2893 37.3942 23.031 37.3942C22.7511 37.3942 22.5035 37.2973 22.2882 37.1036C22.0944 36.8883 21.9976 36.6515 21.9976 36.3931C21.9976 36.1132 22.0944 35.8656 22.2882 35.6503L25.7114 32.2594L22.2882 28.8362C22.0944 28.6209 21.9976 28.3841 21.9976 28.1257C21.9976 27.8458 22.0944 27.5982 22.2882 27.3829C22.5035 27.1892 22.7511 27.0923 23.031 27.0923C23.2893 27.0923 23.5262 27.1892 23.7415 27.3829L27.8752 31.5166C28.0905 31.7319 28.1981 31.9795 28.1981 32.2594C28.1981 32.5178 28.0905 32.7546 27.8752 32.9699L23.7415 37.1036ZM28.8924 37.1036C28.6771 37.2973 28.4403 37.3942 28.182 37.3942C27.9021 37.3942 27.6545 37.2973 27.4392 37.1036C27.2454 36.8883 27.1485 36.6515 27.1485 36.3931C27.1485 36.1132 27.2454 35.8656 27.4392 35.6503L30.8624 32.2594L27.4392 28.8362C27.2454 28.6209 27.1485 28.3841 27.1485 28.1257C27.1485 27.8458 27.2454 27.5982 27.4392 27.3829C27.6545 27.1892 27.9021 27.0923 28.182 27.0923C28.4403 27.0923 28.6771 27.1892 28.8924 27.3829L33.0261 31.5166C33.2414 31.7319 33.3491 31.9795 33.3491 32.2594C33.3491 32.5178 33.2414 32.7546 33.0261 32.9699L28.8924 37.1036ZM33.3329 37.3942C33.5913 37.3942 33.8281 37.2973 34.0434 37.1036L38.1771 32.9699C38.3924 32.7546 38.5001 32.5178 38.5001 32.2594C38.5001 31.9795 38.3924 31.7319 38.1771 31.5166L34.0434 27.3829C33.8281 27.1892 33.5913 27.0923 33.3329 27.0923C33.053 27.0923 32.8055 27.1892 32.5902 27.3829C32.3964 27.5982 32.2995 27.8458 32.2995 28.1257C32.2995 28.3841 32.3964 28.6209 32.5902 28.8362L36.0134 32.2594L32.5902 35.6503C32.3964 35.8656 32.2995 36.1132 32.2995 36.3931C32.2995 36.6515 32.3964 36.8883 32.5902 37.1036C32.8055 37.2973 33.053 37.3942 33.3329 37.3942Z" fill="url(#paint2_linear_3169_9790)"/>
</g>
<defs>
<linearGradient id="paint0_linear_3169_9790" x1="4.35287" y1="6.32407" x2="41.0645" y2="43.7555" gradientUnits="userSpaceOnUse">
<stop stop-color="white"/>
<stop offset="1" stop-color="#EAECEE"/>
</linearGradient>
<linearGradient id="paint1_linear_3169_9790" x1="15.1094" y1="14.1875" x2="32.3513" y2="30.6397" gradientUnits="userSpaceOnUse">
<stop stop-color="#0195FF"/>
<stop offset="0.991028" stop-color="#1147E9"/>
</linearGradient>
<linearGradient id="paint2_linear_3169_9790" x1="24.4373" y1="28.6079" x2="30.9025" y2="39.0089" gradientUnits="userSpaceOnUse">
<stop stop-color="#1348FF"/>
<stop offset="1" stop-color="#06238D"/>
</linearGradient>
<clipPath id="clip0_3169_9790">
<rect width="48" height="48" fill="white" transform="translate(0 0.000976562)"/>
</clipPath>
</defs>
</svg>
