<svg width="48" height="48" viewBox="0 0 48 48" fill="none" xmlns="http://www.w3.org/2000/svg">
<circle cx="24" cy="24.001" r="23.5714" fill="url(#paint0_linear_3173_15062)" stroke="#D5DADD" stroke-width="0.857143"/>
<path fill-rule="evenodd" clip-rule="evenodd" d="M23.4716 35.9541H25.2116C25.6268 35.9541 26.0099 35.8577 26.361 35.665L26.0001 35.3365C24.6218 34.0817 24.5217 31.9471 25.7766 30.5688C27.0315 29.1905 29.166 29.0904 30.5443 30.3453L31.3029 31.0359L35.8627 26.3226C35.6891 25.9624 35.4198 25.6433 35.0548 25.3652L33.8617 24.5201V21.935L35.0548 21.0401C35.7508 20.543 36.0988 19.8802 36.0988 19.0516C36.0988 18.6208 35.9993 18.2396 35.8005 17.9082L34.9056 16.0688C34.6736 15.6049 34.3422 15.2569 33.9114 15.0249C33.5137 14.7929 33.0828 14.6769 32.6188 14.6769C32.2543 14.6769 31.9394 14.7432 31.6743 14.8757L30.1829 15.4723L27.9955 14.1797L27.6972 12.5392C27.5647 11.9427 27.2664 11.4621 26.8024 11.0975C26.3384 10.6998 25.8081 10.501 25.2116 10.501H23.4716C22.8751 10.501 22.3448 10.6998 21.8808 11.0975C21.4168 11.4621 21.1185 11.9427 20.986 12.5392L20.638 14.1797L18.5003 15.4723L17.0089 14.8757C16.7438 14.7432 16.4289 14.6769 16.0644 14.6769C15.6004 14.6769 15.153 14.7929 14.7221 15.0249C14.3244 15.2569 14.0096 15.6049 13.7776 16.0688L12.833 17.9082C12.6673 18.3059 12.5845 18.6705 12.5845 19.0019C12.5845 19.8636 12.9159 20.543 13.5787 21.0401L14.7718 21.935V24.5201L13.6284 25.3652C12.9325 25.8955 12.5845 26.5914 12.5845 27.4531C12.5845 27.7845 12.6673 28.1491 12.833 28.5468L13.7776 30.3862C14.0096 30.8502 14.3244 31.1982 14.7221 31.4302C15.153 31.6622 15.6004 31.7782 16.0644 31.7782C16.3627 31.7782 16.6775 31.7285 17.0089 31.629L18.5003 30.9828L20.638 32.2753L20.986 33.9158C21.0854 34.5124 21.3671 34.9929 21.8311 35.3575C22.3282 35.7552 22.8751 35.9541 23.4716 35.9541ZM24.3168 28.2983C23.6208 28.2983 22.9579 28.1657 22.3282 27.9005C21.7317 27.6354 21.2014 27.2708 20.7374 26.8069C20.2734 26.3429 19.9089 25.8126 19.6437 25.216C19.3786 24.5863 19.246 23.9235 19.246 23.2275C19.246 22.5315 19.3786 21.8853 19.6437 21.2887C19.9089 20.659 20.2734 20.1122 20.7374 19.6482C21.2014 19.1842 21.7317 18.8196 22.3282 18.5545C22.9579 18.2894 23.6208 18.1568 24.3168 18.1568C25.0127 18.1568 25.6756 18.2894 26.3053 18.5545C26.935 18.8196 27.4818 19.1842 27.9458 19.6482C28.4098 20.1122 28.7744 20.659 29.0395 21.2887C29.3046 21.8853 29.4372 22.5315 29.4372 23.2275C29.4372 23.9235 29.3046 24.5863 29.0395 25.216C28.7744 25.8126 28.4098 26.3429 27.9458 26.8069C27.4818 27.2708 26.935 27.6354 26.3053 27.9005C25.6756 28.1657 25.0127 28.2983 24.3168 28.2983Z" fill="url(#paint1_linear_3173_15062)"/>
<path d="M37.0616 28.4902C36.6806 28.4902 36.3376 28.6427 36.0327 28.9475L31.2882 33.692L29.4018 31.8057C29.1351 31.5008 28.8112 31.3484 28.4301 31.3484C28.049 31.3484 27.706 31.5008 27.4011 31.8057C27.0963 32.1105 26.9438 32.4535 26.9438 32.8346C26.9438 33.2157 27.0963 33.5587 27.4011 33.8635L30.2593 36.7217C30.526 36.9884 30.869 37.1218 31.2882 37.1218C31.7074 37.1218 32.0504 36.9884 32.3171 36.7217L38.0906 30.9482C38.3573 30.6434 38.4907 30.3004 38.4907 29.9193C38.4907 29.5382 38.3573 29.2143 38.0906 28.9475C37.7857 28.6427 37.4427 28.4902 37.0616 28.4902Z" fill="url(#paint2_linear_3173_15062)"/>
<defs>
<linearGradient id="paint0_linear_3173_15062" x1="4.35287" y1="6.81382" x2="41.0645" y2="44.2453" gradientUnits="userSpaceOnUse">
<stop stop-color="white"/>
<stop offset="1" stop-color="#EAECEE"/>
</linearGradient>
<linearGradient id="paint1_linear_3173_15062" x1="16.1094" y1="14.3073" x2="33.8762" y2="30.7265" gradientUnits="userSpaceOnUse">
<stop stop-color="#0195FF"/>
<stop offset="0.991028" stop-color="#1147E9"/>
</linearGradient>
<linearGradient id="paint2_linear_3173_15062" x1="28.651" y1="29.7601" x2="34.4377" y2="37.5346" gradientUnits="userSpaceOnUse">
<stop stop-color="#1348FF"/>
<stop offset="1" stop-color="#06238D"/>
</linearGradient>
</defs>
</svg>
