<svg width="48" height="48" viewBox="0 0 48 48" fill="none" xmlns="http://www.w3.org/2000/svg">
<g clip-path="url(#clip0_3169_9773)">
<circle cx="24" cy="24.001" r="23.5714" fill="url(#paint0_linear_3169_9773)" stroke="#D5DADD" stroke-width="0.857143"/>
<g clip-path="url(#clip1_3169_9773)">
<path fill-rule="evenodd" clip-rule="evenodd" d="M20.5853 11.851C20.5853 11.1054 19.9809 10.501 19.2353 10.501C18.4898 10.501 17.8853 11.1054 17.8853 11.851V13.876H17.2104C14.6085 13.876 12.4854 15.9991 12.4854 18.601V32.776C12.4854 35.3778 14.6085 37.501 17.2104 37.501C17.2104 37.501 26.1457 37.501 26.4577 37.501C26.7698 37.501 27.1953 37.501 27.6444 37.0518C28.0936 36.6026 35.6099 29.0741 35.6099 29.0741C35.6099 29.0741 36.1123 28.6273 36.1123 28.1094C36.1123 24.9399 36.1104 21.7704 36.1104 18.601C36.1104 15.9991 33.9872 13.876 31.3854 13.876H30.7103V11.851C30.7103 11.1054 30.1059 10.501 29.3603 10.501C28.6148 10.501 28.0103 11.1054 28.0103 11.851V13.876H20.5853V11.851ZM33.4104 24.0008H15.1854V32.776C15.1854 33.8866 16.0997 34.801 17.2104 34.801H20.1032H26.104L26.6836 34.2112V31.1549C26.6729 30.7043 26.6073 29.7161 27.4092 28.8921C28.2111 28.0681 29.3669 28.0681 29.3669 28.0681H32.8408L33.4104 27.5146V24.0008ZM33.4104 21.3008H15.1854V18.601C15.1854 17.4903 16.0997 16.576 17.2104 16.576H17.8853V17.5885C17.8853 18.3341 18.4898 18.9385 19.2353 18.9385C19.9809 18.9385 20.5853 18.3341 20.5853 17.5885V16.576H28.0103V17.5885C28.0103 18.3341 28.6148 18.9385 29.3603 18.9385C30.1059 18.9385 30.7103 18.3341 30.7103 17.5885V16.576H31.3854C32.496 16.576 33.4104 17.4903 33.4104 18.601V21.3008Z" fill="url(#paint1_linear_3169_9773)"/>
<ellipse cx="18.565" cy="27.376" rx="1.68752" ry="1.6875" fill="url(#paint2_linear_3169_9773)"/>
<ellipse cx="23.6275" cy="27.376" rx="1.68752" ry="1.6875" fill="url(#paint3_linear_3169_9773)"/>
</g>
</g>
<defs>
<linearGradient id="paint0_linear_3169_9773" x1="4.35287" y1="6.81382" x2="41.0645" y2="44.2453" gradientUnits="userSpaceOnUse">
<stop stop-color="white"/>
<stop offset="1" stop-color="#EAECEE"/>
</linearGradient>
<linearGradient id="paint1_linear_3169_9773" x1="16.0271" y1="14.5387" x2="34.7662" y2="30.9424" gradientUnits="userSpaceOnUse">
<stop stop-color="#0195FF"/>
<stop offset="0.991028" stop-color="#1147E9"/>
</linearGradient>
<linearGradient id="paint2_linear_3169_9773" x1="17.3764" y1="26.185" x2="19.7384" y2="28.5572" gradientUnits="userSpaceOnUse">
<stop stop-color="#1348FF"/>
<stop offset="1" stop-color="#06238D"/>
</linearGradient>
<linearGradient id="paint3_linear_3169_9773" x1="22.4389" y1="26.185" x2="24.8009" y2="28.5572" gradientUnits="userSpaceOnUse">
<stop stop-color="#1348FF"/>
<stop offset="1" stop-color="#06238D"/>
</linearGradient>
<clipPath id="clip0_3169_9773">
<rect width="48" height="48" fill="white" transform="translate(0 0.000976562)"/>
</clipPath>
<clipPath id="clip1_3169_9773">
<rect width="27" height="27" fill="white" transform="translate(10.7998 10.501)"/>
</clipPath>
</defs>
</svg>
