<svg width="583" height="322" viewBox="0 0 583 322" fill="none" xmlns="http://www.w3.org/2000/svg">
<g filter="url(#filter0_dd_38_6842)">
<g clip-path="url(#clip0_38_6842)">
<rect x="16.8838" y="8" width="550" height="290" rx="15.9303" fill="white"/>
<rect width="553" height="309" transform="translate(9 -10)" fill="#F5F6F7"/>
<g clip-path="url(#clip1_38_6842)">
<rect width="553" height="309" transform="translate(9 -10)" fill="white"/>
<rect x="466.653" y="230.317" width="6.98094" height="7.95604" fill="#D1EFFF"/>
<rect x="466.653" y="263.365" width="6.98094" height="28.5601" fill="#D1EFFF"/>
<rect x="504.434" y="285.601" width="6.32402" height="68.5777" transform="rotate(90 504.434 285.601)" fill="#D1EFFF"/>
<rect x="467.27" y="238.273" width="5.74901" height="25.0921" fill="#A6E0FF"/>
<ellipse cx="442.734" cy="295.495" rx="3.59314" ry="3.57002" fill="#A6E0FF"/>
<ellipse cx="497.349" cy="295.495" rx="3.59314" ry="3.57002" fill="#A6E0FF"/>
<ellipse cx="470.041" cy="295.495" rx="3.59315" ry="3.57002" fill="#A6E0FF"/>
<path fill-rule="evenodd" clip-rule="evenodd" d="M435.487 204.323C435.24 204.549 435.123 204.82 435.139 205.141C435.345 209.175 436.83 213.926 438.747 218.393C440.65 222.83 442.903 226.812 444.494 229.255C445.141 230.248 444.855 231.574 443.855 232.217C442.855 232.86 441.521 232.576 440.874 231.582C439.158 228.948 436.787 224.75 434.78 220.073C432.787 215.427 431.077 210.132 430.833 205.358C430.654 201.859 433.683 199.615 436.662 199.615H487.752C488.943 199.615 489.908 200.574 489.908 201.757C489.908 202.94 488.943 203.899 487.752 203.899H436.662C436.168 203.899 435.751 204.081 435.487 204.323Z" fill="#A6E0FF"/>
<path fill-rule="evenodd" clip-rule="evenodd" d="M422.92 230.419C422.92 229.236 423.885 228.277 425.076 228.277H452.794C453.985 228.277 454.95 229.236 454.95 230.419C454.95 231.602 453.985 232.561 452.794 232.561H425.076C423.885 232.561 422.92 231.602 422.92 230.419Z" fill="#A6E0FF"/>
<path d="M505.508 182.414L509.919 148.603C510.222 146.283 508.404 144.228 506.05 144.228H471.512C469.511 144.228 467.834 145.733 467.631 147.712L463.457 188.433C462.716 195.66 462.804 202.947 463.72 210.154L465.915 227.436C466.161 229.374 467.82 230.827 469.785 230.827H505.606C508.108 230.827 509.964 228.519 509.411 226.094L507.092 215.923C504.586 204.933 504.05 193.589 505.508 182.414Z" fill="#A6E0FF"/>
<path d="M500.375 182.414L504.786 148.603C505.089 146.283 503.271 144.228 500.918 144.228H466.379C464.378 144.228 462.701 145.733 462.498 147.712L458.324 188.433C457.583 195.66 457.671 202.947 458.587 210.154L460.782 227.436C461.028 229.374 462.687 230.827 464.652 230.827H500.473C502.976 230.827 504.831 228.519 504.278 226.094L501.959 215.923C499.453 204.933 498.917 193.589 500.375 182.414Z" fill="#D1EFFF"/>
<path fill-rule="evenodd" clip-rule="evenodd" d="M501.179 198.547C502.339 198.282 503.496 199.002 503.762 200.156L509.487 224.947C510.387 228.844 507.408 232.561 503.384 232.561H441.707C440.516 232.561 439.551 231.602 439.551 230.419C439.551 229.236 440.516 228.277 441.707 228.277H503.384C504.637 228.277 505.565 227.119 505.285 225.905L499.56 201.114C499.293 199.961 500.018 198.811 501.179 198.547Z" fill="#89D1FF"/>
<path fill-rule="evenodd" clip-rule="evenodd" d="M449.396 204.323C449.149 204.549 449.032 204.82 449.048 205.141C449.254 209.175 450.74 213.926 452.656 218.393C454.559 222.83 456.812 226.812 458.403 229.255C459.05 230.248 458.764 231.574 457.764 232.217C456.765 232.86 455.43 232.576 454.783 231.582C453.068 228.948 450.696 224.75 448.69 220.073C446.696 215.427 444.986 210.132 444.742 205.358C444.563 201.859 447.592 199.615 450.571 199.615H501.661C502.852 199.615 503.817 200.574 503.817 201.757C503.817 202.94 502.852 203.899 501.661 203.899H450.571C450.077 203.899 449.66 204.081 449.396 204.323Z" fill="#89D1FF"/>
<rect width="6.95436" height="6.21863" transform="matrix(-1 0 0 1 242.871 231.98)" fill="#D1EFFF"/>
<rect width="6.95436" height="21.8804" transform="matrix(-1 0 0 1 242.871 257.315)" fill="#D1EFFF"/>
<rect width="5.56348" height="19.1165" transform="matrix(-1 0 0 1 242.176 238.199)" fill="#A6E0FF"/>
<ellipse cx="3.59314" cy="3.57002" rx="3.59314" ry="3.57002" transform="matrix(-1 0 0 1 270.408 291.863)" fill="#A6E0FF"/>
<ellipse cx="3.59314" cy="3.57002" rx="3.59314" ry="3.57002" transform="matrix(-1 0 0 1 215.792 291.863)" fill="#A6E0FF"/>
<ellipse cx="3.59315" cy="3.57002" rx="3.59315" ry="3.57002" transform="matrix(-1 0 0 1 243.101 291.863)" fill="#A6E0FF"/>
<path fill-rule="evenodd" clip-rule="evenodd" d="M222.99 286.422C218.404 287.934 215.297 289.944 213.796 291.917C212.87 293.135 211.125 293.376 209.899 292.456C208.674 291.535 208.431 289.802 209.358 288.584C211.834 285.329 216.169 282.848 221.238 281.176C226.384 279.479 232.618 278.505 239.291 278.505C245.965 278.505 252.199 279.479 257.345 281.176C262.414 282.848 266.749 285.329 269.225 288.584C270.151 289.802 269.909 291.535 268.683 292.456C267.458 293.376 265.713 293.135 264.787 291.917C263.286 289.944 260.178 287.934 255.592 286.422C251.083 284.935 245.449 284.032 239.291 284.032C233.134 284.032 227.5 284.935 222.99 286.422Z" fill="#D1EFFF"/>
<path fill-rule="evenodd" clip-rule="evenodd" d="M239.625 293.015C238.089 293.015 236.844 291.777 236.844 290.251L236.844 285.184C236.844 283.657 238.089 282.42 239.625 282.42C241.162 282.42 242.407 283.657 242.407 285.184L242.407 290.251C242.407 291.777 241.162 293.015 239.625 293.015Z" fill="#D1EFFF"/>
<path d="M205.343 148.387C205.203 145.623 207.421 143.307 210.205 143.307H269.279C272.063 143.307 274.281 145.623 274.141 148.387L270.144 227.386C270.014 229.96 267.876 231.98 265.282 231.98H214.202C211.608 231.98 209.47 229.96 209.34 227.386L205.343 148.387Z" fill="#A6E0FF"/>
<path fill-rule="evenodd" clip-rule="evenodd" d="M193.959 229.838C193.959 228.655 194.924 227.696 196.115 227.696H282.441C283.632 227.696 284.597 228.655 284.597 229.838C284.597 231.021 283.632 231.98 282.441 231.98H196.115C194.924 231.98 193.959 231.021 193.959 229.838Z" fill="#89D1FF"/>
<path fill-rule="evenodd" clip-rule="evenodd" d="M209.636 188.071C210.487 189.105 210.333 190.629 209.292 191.474C207.902 192.602 206.634 194.679 205.586 197.67C204.555 200.61 203.829 204.17 203.345 207.954C202.378 215.52 202.422 223.663 202.762 228.828C202.85 230.161 201.834 231.312 200.492 231.399C199.151 231.486 197.992 230.477 197.905 229.144C197.55 223.753 197.501 215.29 198.516 207.345C199.023 203.374 199.806 199.453 200.988 196.08C202.153 192.756 203.799 189.687 206.211 187.729C207.252 186.883 208.786 187.037 209.636 188.071Z" fill="#89D1FF"/>
<path fill-rule="evenodd" clip-rule="evenodd" d="M269.621 188.071C268.771 189.105 268.925 190.629 269.966 191.474C271.355 192.602 272.624 194.679 273.672 197.67C274.703 200.61 275.429 204.17 275.913 207.954C276.88 215.52 276.836 223.663 276.495 228.828C276.408 230.161 277.424 231.312 278.765 231.399C280.107 231.486 281.265 230.477 281.353 229.144C281.708 223.753 281.757 215.29 280.742 207.345C280.235 203.374 279.452 199.453 278.27 196.08C277.105 192.756 275.459 189.687 273.046 187.729C272.005 186.883 270.472 187.037 269.621 188.071Z" fill="#89D1FF"/>
<rect x="138.788" y="168.442" width="309.216" height="11.4241" fill="white"/>
<rect x="171.771" y="179.866" width="10.0383" height="119.137" fill="#D1EFFF"/>
<rect x="403.728" y="179.866" width="10.0383" height="119.137" fill="#D1EFFF"/>
<rect x="43.9873" y="69.9055" width="94.0294" height="11.1047" fill="#D1EFFF"/>
<rect x="250.29" y="23.0803" width="202.603" height="103.644" fill="#D1EFFF"/>
<path fill-rule="evenodd" clip-rule="evenodd" d="M369.257 49.9536C369.56 49.6976 369.965 49.5957 370.354 49.6776L418.701 59.867C419.393 60.0129 419.836 60.6891 419.689 61.3772C419.542 62.0653 418.861 62.5048 418.169 62.3589L370.439 52.2995L327.883 88.284C327.503 88.6051 326.971 88.6783 326.518 88.4716L316.147 83.7418L293.885 105.329C293.379 105.82 292.567 105.811 292.073 105.307C291.578 104.804 291.588 103.997 292.095 103.506L314.986 81.3079C315.366 80.9398 315.934 80.842 316.416 81.0618L326.844 85.8176L369.257 49.9536Z" fill="#A6E0FF"/>
<path fill-rule="evenodd" clip-rule="evenodd" d="M397.558 34.3659C398.064 34.3659 398.474 34.7733 398.474 35.2757L398.474 37.784C398.474 38.2865 398.064 38.6938 397.558 38.6938C397.052 38.6938 396.642 38.2865 396.642 37.784L396.642 35.2757C396.642 34.7733 397.052 34.3659 397.558 34.3659ZM397.558 41.891C398.064 41.891 398.474 42.2983 398.474 42.8007L398.474 47.8174C398.474 48.3199 398.064 48.7272 397.558 48.7272C397.052 48.7272 396.642 48.3199 396.642 47.8174L396.642 42.8007C396.642 42.2983 397.052 41.891 397.558 41.891ZM397.558 51.9243C398.064 51.9243 398.474 52.3317 398.474 52.8341L398.474 57.8508C398.474 58.3532 398.064 58.7605 397.558 58.7605C397.052 58.7605 396.642 58.3532 396.642 57.8508L396.642 52.8341C396.642 52.3317 397.052 51.9243 397.558 51.9243ZM397.558 61.9577C398.064 61.9577 398.474 62.365 398.474 62.8675L398.474 67.8842C398.474 68.3866 398.064 68.7939 397.558 68.7939C397.052 68.7939 396.642 68.3866 396.642 67.8842L396.642 62.8675C396.642 62.365 397.052 61.9577 397.558 61.9577ZM397.558 71.9911C398.064 71.9911 398.474 72.3984 398.474 72.9008L398.474 77.9175C398.474 78.42 398.064 78.8273 397.558 78.8273C397.052 78.8273 396.642 78.42 396.642 77.9175L396.642 72.9008C396.642 72.3984 397.052 71.9911 397.558 71.9911ZM397.558 82.0245C398.064 82.0245 398.474 82.4318 398.474 82.9342L398.474 87.9509C398.474 88.4534 398.064 88.8607 397.558 88.8607C397.052 88.8607 396.642 88.4534 396.642 87.9509L396.642 82.9342C396.642 82.4318 397.052 82.0245 397.558 82.0245ZM397.558 92.0578C398.064 92.0578 398.474 92.4651 398.474 92.9676L398.474 97.9843C398.474 98.4867 398.064 98.894 397.558 98.894C397.052 98.894 396.642 98.4867 396.642 97.9843L396.642 92.9676C396.642 92.4651 397.052 92.0578 397.558 92.0578ZM397.558 102.091C398.064 102.091 398.474 102.499 398.474 103.001L398.474 105.509C398.474 106.012 398.064 106.419 397.558 106.419C397.052 106.419 396.642 106.012 396.642 105.509L396.642 103.001C396.642 102.499 397.052 102.091 397.558 102.091Z" fill="#A6E0FF"/>
<path fill-rule="evenodd" clip-rule="evenodd" d="M410.617 50.3737C410.923 51.0082 410.653 51.7688 410.015 52.0724L345.736 82.6404C345.256 82.8686 344.684 82.7787 344.299 82.4145L326.489 65.5866L287.998 100.806C287.477 101.282 286.666 101.249 286.187 100.732C285.707 100.214 285.74 99.4084 286.261 98.9319L325.634 62.9053C326.131 62.451 326.897 62.4571 327.386 62.9192L345.425 79.9638L408.908 49.7747C409.546 49.471 410.312 49.7392 410.617 50.3737Z" fill="#89D1FF"/>
<path fill-rule="evenodd" clip-rule="evenodd" d="M279.621 35.4576C280.329 35.4576 280.903 36.0279 280.903 36.7313L280.903 114.243C280.903 114.946 280.329 115.517 279.621 115.517C278.913 115.517 278.339 114.946 278.339 114.243L278.339 36.7313C278.339 36.0279 278.913 35.4576 279.621 35.4576Z" fill="#A6E0FF"/>
<path fill-rule="evenodd" clip-rule="evenodd" d="M279.072 114.242C279.072 113.539 279.646 112.969 280.354 112.969L423.563 112.969C424.271 112.969 424.845 113.539 424.845 114.242C424.845 114.946 424.271 115.516 423.563 115.516L280.354 115.516C279.646 115.516 279.072 114.946 279.072 114.242Z" fill="#A6E0FF"/>
<rect width="6.98097" height="7.95604" transform="matrix(-1 0 0 1 122.122 230.317)" fill="#D1EFFF"/>
<rect width="6.98097" height="28.5601" transform="matrix(-1 0 0 1 122.122 263.365)" fill="#D1EFFF"/>
<rect width="6.32402" height="68.5777" transform="matrix(4.39947e-08 1 1 -4.34299e-08 84.3428 285.601)" fill="#D1EFFF"/>
<rect width="5.74903" height="25.0921" transform="matrix(-1 0 0 1 121.507 238.273)" fill="#A6E0FF"/>
<ellipse cx="3.59315" cy="3.57002" rx="3.59315" ry="3.57002" transform="matrix(-1 0 0 1 149.636 291.925)" fill="#A6E0FF"/>
<ellipse cx="3.59314" cy="3.57002" rx="3.59314" ry="3.57002" transform="matrix(-1 0 0 1 95.0195 291.925)" fill="#A6E0FF"/>
<ellipse cx="3.59314" cy="3.57002" rx="3.59314" ry="3.57002" transform="matrix(-1 0 0 1 122.328 291.925)" fill="#A6E0FF"/>
<path d="M84.4433 182.396L83.518 148.208C83.459 146.028 85.2221 144.228 87.4177 144.228H102.897C105.051 144.228 106.798 145.964 106.798 148.104L106.798 192.25C106.798 197.436 106.375 202.614 105.532 207.732L102.074 228.73C101.765 230.604 100.135 231.98 98.2236 231.98H88.0343C81.0057 231.98 76.0834 225.082 78.4092 218.493L79.0416 216.701C82.9285 205.687 84.7591 194.062 84.4433 182.396Z" fill="#A6E0FF"/>
<path d="M79.8076 182.396L78.8823 148.208C78.8233 146.028 80.5864 144.228 82.782 144.228H98.2612C100.416 144.228 102.162 145.964 102.162 148.104L102.162 192.25C102.162 197.436 101.739 202.614 100.896 207.732L97.4378 228.73C97.1292 230.604 95.4993 231.98 93.5879 231.98H83.3985C76.37 231.98 71.4476 225.082 73.7735 218.493L74.4059 216.701C78.2928 205.687 80.1234 194.062 79.8076 182.396Z" fill="#D1EFFF"/>
<path fill-rule="evenodd" clip-rule="evenodd" d="M104.639 198.78C103.468 198.566 102.344 199.336 102.128 200.499L97.5528 225.213C96.8451 229.036 99.7995 232.561 103.712 232.561H165.614C166.804 232.561 167.77 231.602 167.77 230.419C167.77 229.236 166.804 228.277 165.614 228.277H103.712C102.493 228.277 101.573 227.179 101.793 225.988L106.369 201.274C106.584 200.111 105.81 198.994 104.639 198.78Z" fill="#89D1FF"/>
<path fill-rule="evenodd" clip-rule="evenodd" d="M157.813 202.074C158.065 202.303 158.188 202.583 158.175 202.911C158.003 207.289 156.401 212.472 154.318 217.345C152.248 222.186 149.784 226.539 148.046 229.203C147.398 230.195 147.683 231.522 148.682 232.165C149.681 232.809 151.016 232.526 151.664 231.533C153.527 228.677 156.112 224.105 158.286 219.02C160.446 213.968 162.281 208.223 162.484 203.079C162.621 199.601 159.614 197.363 156.631 197.363H101.235C100.044 197.363 99.0787 198.322 99.0787 199.505C99.0787 200.688 100.044 201.647 101.235 201.647H156.631C157.125 201.647 157.544 201.828 157.813 202.074Z" fill="#89D1FF"/>
<path d="M62.6654 35.8015H55.0373C53.8997 35.8015 52.9775 36.7208 52.9775 37.8549V66.9376C52.9775 68.0717 53.8997 68.991 55.0373 68.991H62.6654C63.803 68.991 64.7252 68.0717 64.7252 66.9376V37.8549C64.7252 36.7208 63.803 35.8015 62.6654 35.8015Z" fill="#A6E0FF"/>
<path d="M63.331 41.7727H54.5967V42.7842H63.331V41.7727Z" fill="#D1EFFF"/>
<path d="M63.331 62.0996H54.5967V63.1111H63.331V62.0996Z" fill="#D1EFFF"/>
<path d="M73.663 35.3795L66.2444 37.1495C65.1381 37.4135 64.4559 38.5216 64.7207 39.6245L71.5113 67.9085C71.7761 69.0114 72.8877 69.6915 73.994 69.4275L81.4125 67.6575C82.5189 67.3935 83.2011 66.2854 82.9363 65.1825L76.1457 36.8986C75.8809 35.7956 74.7693 35.1155 73.663 35.3795Z" fill="#A6E0FF"/>
<path d="M75.7962 59.7045C77.4842 59.2624 78.0112 55.7114 76.9733 51.7732C75.9354 47.835 73.7257 45.0008 72.0377 45.4429C70.3498 45.885 69.8228 49.4359 70.8607 53.3741C71.8985 57.3123 74.1083 60.1466 75.7962 59.7045Z" fill="#D1EFFF"/>
<path d="M93.349 36.1244H85.7209C84.5833 36.1244 83.6611 37.0438 83.6611 38.1778V67.2605C83.6611 68.3946 84.5833 69.3139 85.7209 69.3139H93.349C94.4866 69.3139 95.4088 68.3946 95.4088 67.2605V38.1778C95.4088 37.0438 94.4866 36.1244 93.349 36.1244Z" fill="#A6E0FF"/>
<path d="M97.9209 60.9724V66.0846C97.9209 67.0571 98.7117 67.8455 99.6873 67.8455H129.448C130.423 67.8455 131.214 67.0571 131.214 66.0846V60.9724C131.214 59.9999 130.423 59.2115 129.448 59.2115H99.6873C98.7117 59.2115 97.9209 59.9999 97.9209 60.9724Z" fill="#A6E0FF"/>
</g>
<path d="M339.743 68.2096C339.628 78.1772 342.222 84.1424 348.507 86.9403C354.791 89.7382 356.443 89.0755 359.586 88.0894C362.729 87.1032 369.838 82.6686 369.67 70.5102C369.501 58.3517 367.192 49.4801 356.94 49.6442C346.688 49.8084 339.908 53.9159 339.743 68.2096Z" fill="#FFC933"/>
<path d="M354.029 72.0118C354.029 71.4215 350.461 75.8168 350.388 76.5058C350.314 77.1949 351.647 77.7474 352.207 77.7474C352.766 77.7474 354.029 78.0997 354.029 72.0118Z" fill="#FFB300"/>
<path d="M351.446 84.3181L350.628 94.5251C350.628 94.5251 353.812 96.2507 357.25 96.3331C362.018 96.4462 365.126 95.0351 367.028 93.871C365.824 89.7979 362.803 80.4066 362.803 80.4066L351.446 84.3181Z" fill="#FFC933"/>
<path d="M354.759 88.3586C362.322 87.5301 364.487 85.3555 364.487 85.3555L365.449 88.3614C365.449 88.3614 359.023 91.3769 354.759 88.3586Z" fill="#FFB300"/>
<path d="M358.292 56.2818C358.058 56.4408 357.87 56.6597 357.75 56.9155C357.108 58.271 354.592 62.7901 349.352 63.2765C345.842 63.6012 341.871 66.0129 339.895 66.3122C339.632 66.352 339.364 66.3265 339.115 66.2379C338.865 66.1492 338.641 66.0003 338.464 65.8045C338.286 65.6086 338.161 65.3721 338.098 65.116C338.035 64.8599 338.038 64.5924 338.105 64.3375C338.955 61.1147 339.41 56.0366 342.896 52.4096C346.818 48.3304 351.818 46.261 356.424 47.1192C361.029 47.9774 363.619 49.6419 363.619 49.6419C363.619 49.6419 359.565 46.9031 361.783 46.8524C363.669 46.809 365.634 47.876 365.634 49.6419C365.634 51.1736 359.834 55.2304 358.292 56.2818Z" fill="#A93E00"/>
<path d="M359.099 56.5329C359.099 56.5329 363.649 53.1074 365.634 50.9806C366.47 50.0862 369.009 52.7332 369.676 53.7568C374.396 60.999 372.106 65.7064 371.247 68.7095C370.951 69.7367 370.18 72.5273 369.676 73.324C369.266 73.9697 368.258 73.5968 368.388 72.8411C368.533 72.0059 368.902 69.3154 368.8 68.7059C368.512 66.9895 360.053 64.2736 359.099 62.486C358.146 60.6984 356.786 58.498 359.099 56.5329Z" fill="#A93E00"/>
<path d="M373.575 74.9254C374.482 72.8436 374.031 70.6456 372.568 70.016C371.104 69.3865 369.182 70.5637 368.275 72.6455C367.368 74.7273 367.819 76.9253 369.283 77.5549C370.746 78.1844 372.668 77.0072 373.575 74.9254Z" fill="#FFC933"/>
<path d="M344.462 69.3288C344.281 69.4298 344.111 69.257 344.224 69.0842C344.969 67.947 346.294 67.1028 347.634 66.9218C348.821 66.7622 350.223 67.1445 351.286 67.823C351.47 67.9405 351.368 68.1963 351.151 68.1764C350.711 68.1363 350.282 68.0994 349.735 68.0552C347.015 67.8357 345.464 68.7669 344.462 69.3288Z" fill="#C35500"/>
<path d="M356.063 68.3758C355.832 68.4163 355.705 68.1462 355.905 68.0233C356.937 67.3873 358.252 66.9837 359.363 67.1293C360.636 67.2889 362.044 68.2413 362.793 69.3898C362.913 69.5738 362.708 69.7533 362.521 69.6391C360.534 68.4301 358.733 67.9074 356.063 68.3758Z" fill="#C35500"/>
<path fill-rule="evenodd" clip-rule="evenodd" d="M349.988 71.6882C349.947 71.6558 349.429 71.255 348.61 71.2966C347.738 71.3416 347.311 71.8505 347.3 71.8638C347.151 72.0439 346.883 72.0698 346.702 71.9215C346.521 71.7732 346.495 71.5069 346.644 71.3268C346.727 71.2261 347.355 70.5153 348.566 70.4528L348.567 70.4528C349.687 70.3958 350.407 70.9404 350.516 71.0264C350.7 71.1714 350.731 71.4371 350.585 71.6199C350.439 71.8027 350.172 71.8333 349.988 71.6882Z" fill="#714700"/>
<path fill-rule="evenodd" clip-rule="evenodd" d="M357.937 71.5426C357.069 71.4705 356.508 71.934 356.48 71.9582C356.301 72.1092 356.032 72.0874 355.88 71.9095C355.728 71.7316 355.75 71.465 355.929 71.314C356.022 71.2362 356.804 70.6005 358.008 70.7006L358.008 70.7006C359.135 70.7947 359.72 71.4561 359.813 71.5686C359.962 71.749 359.936 72.0152 359.754 72.1632C359.573 72.3113 359.305 72.2851 359.156 72.1048C359.133 72.0768 358.738 71.6095 357.937 71.5426" fill="#714700"/>
<path d="M355.101 80.4066C354.665 81.5859 353.364 82.4417 351.826 82.4417C350.288 82.4417 348.987 81.5859 348.551 80.4066H355.1H355.101Z" fill="white"/>
<path d="M334.696 97.8999C339.854 97.7222 343.998 102.17 343.423 107.267C342.92 111.731 338.95 114.964 334.441 114.583L301.22 111.774C297.973 111.499 295.424 108.849 295.293 105.612C295.152 102.102 297.888 99.1679 301.415 99.0464L334.696 97.8999Z" fill="#344B97"/>
<path d="M293.069 71.0846L288.625 71.9854L295.44 105.932C295.931 108.379 298.317 109.95 300.775 109.443C303.476 108.885 305.085 106.084 304.195 103.494L293.069 71.0846Z" fill="#FFC933" stroke="#FFC933" stroke-width="0.390134"/>
<path d="M296.399 74.2969L297.22 77.6971L287.641 80.2576L286.763 76.7514L296.399 74.2969Z" fill="#EAECEE"/>
<path d="M286.56 78.9622L297.46 76.2414L305.974 101.959C307.133 105.46 304.963 109.214 301.334 109.985C298.161 110.659 295.026 108.781 294.145 105.678L286.56 78.9622Z" fill="#344B97"/>
<ellipse cx="6.13919" cy="6.10788" rx="6.13919" ry="6.10788" transform="matrix(-0.932948 0.358954 -0.362922 -0.932231 308.555 108.94)" fill="#344B97"/>
<path d="M291.677 52.3391C291.521 51.2405 290.569 50.4271 289.453 50.4371C288.293 50.4474 287.335 51.3415 287.252 52.4916L286.108 68.3805C285.936 70.7658 287.94 72.7439 290.339 72.5567C292.601 72.3802 294.245 70.3437 293.926 68.1111L291.677 52.3391Z" fill="#FFC933"/>
<path d="M388.123 104.584C386.961 99.5896 381.568 96.7657 376.764 98.6368C372.557 100.276 370.442 104.92 371.978 109.148L383.311 140.335C384.417 143.379 387.65 145.138 390.829 144.426C394.276 143.653 396.42 140.268 395.626 136.853L388.123 104.584Z" fill="#344B97"/>
<path d="M385.328 142.251L398.212 174.412L402.432 172.762L394.008 139.558C393.335 136.904 390.45 135.425 387.879 136.42C385.54 137.325 384.4 139.934 385.328 142.251Z" fill="#FFC933" stroke="#FFC933" stroke-width="0.390134"/>
<path d="M403.465 168.264L402.291 164.968L392.855 168.007L394.039 171.423L403.465 168.264Z" fill="#EAECEE"/>
<path d="M392.658 169.679L403.29 166.059L396.341 139.881C395.395 136.317 391.519 134.344 388.053 135.662C385.022 136.814 383.422 140.087 384.383 143.166L392.658 169.679Z" fill="#344B97"/>
<ellipse cx="6.14069" cy="6.10637" rx="6.14069" ry="6.10637" transform="matrix(-0.978851 0.204046 0.206403 0.978578 394.681 132.629)" fill="#344B97"/>
<path d="M403.062 173.454C402.339 172.446 401.03 171.951 399.766 172.316C398.895 172.567 398.225 173.175 397.87 173.933C397.342 174.65 397.155 176.022 397.462 177.495C397.667 178.478 398.053 179.322 398.515 179.899C398.499 179.975 398.487 180.053 398.481 180.133L398.126 184.92C398.07 185.678 398.653 186.356 399.415 186.417C400.064 186.468 400.641 186.052 400.789 185.424L401.606 181.957C401.878 183.113 402.026 184.295 401.739 185.367L399.86 192.379C399.635 193.221 400.103 194.103 400.905 194.348C401.708 194.593 402.542 194.109 402.767 193.266L406.043 186.087C406.899 183.718 406.947 181.677 405.875 179.011L403.448 173.99C403.319 173.789 403.191 173.611 403.062 173.454Z" fill="#FFC933"/>
<path d="M358.478 163.2C358.976 157.61 355.041 152.546 349.468 151.605C343.132 150.534 337.326 155.183 337.034 161.559L335.033 205.376C334.795 210.581 338.714 215.093 343.93 215.619C349.332 216.165 354.108 212.244 354.587 206.872L358.478 163.2Z" fill="#8396A8"/>
<path d="M341.358 267.515C338.39 267.515 336.038 270.003 336.222 272.945L337.142 287.621L345.118 288.239L346.483 273.083C346.752 270.092 344.381 267.515 341.358 267.515Z" fill="#FFC933"/>
<path fill-rule="evenodd" clip-rule="evenodd" d="M316.689 294.649L336.783 284.162L336.784 284.164C339.755 290.34 345.385 285.862 345.385 285.862C345.631 287.028 345.945 288.22 346.262 289.424C346.904 291.86 347.558 294.345 347.688 296.757L347.766 298.213L342.866 298.282C342.458 297.02 341.267 296.107 339.862 296.107C338.425 296.107 337.213 297.061 336.832 298.367L314.889 298.676V297.598C314.889 296.361 315.581 295.226 316.689 294.649Z" fill="#A16B00"/>
<path fill-rule="evenodd" clip-rule="evenodd" d="M332.603 286.357C332.376 286.062 331.951 286.005 331.654 286.231C331.357 286.457 331.3 286.879 331.527 287.175L332.065 286.766L332.603 286.357ZM332.305 288.192C332.718 288.736 333.147 289.305 333.275 289.492C333.485 289.8 333.907 289.879 334.216 289.67C334.525 289.461 334.605 289.042 334.394 288.735C334.242 288.513 333.786 287.909 333.385 287.38C333.18 287.112 332.985 286.856 332.841 286.668C332.769 286.573 332.709 286.496 332.668 286.442L332.603 286.357C332.603 286.357 332.603 286.357 332.065 286.766C331.527 287.175 331.527 287.175 331.527 287.175L331.591 287.258C331.632 287.312 331.691 287.389 331.763 287.483C331.907 287.671 332.101 287.925 332.305 288.192Z" fill="white"/>
<path fill-rule="evenodd" clip-rule="evenodd" d="M329.713 287.596C329.486 287.3 329.061 287.244 328.764 287.469C328.467 287.695 328.41 288.117 328.637 288.413L328.701 288.497C328.743 288.55 328.802 288.627 328.874 288.721C329.017 288.909 329.212 289.163 329.415 289.431C329.828 289.974 330.257 290.544 330.385 290.731C330.596 291.038 331.017 291.118 331.326 290.908C331.635 290.699 331.715 290.28 331.505 289.973C331.352 289.751 330.897 289.147 330.495 288.619C330.291 288.35 330.095 288.094 329.951 287.906C329.879 287.812 329.819 287.734 329.778 287.68L329.713 287.596C329.713 287.596 329.713 287.596 329.22 287.97L329.713 287.596Z" fill="white"/>
<path fill-rule="evenodd" clip-rule="evenodd" d="M316.739 294.623L316.689 294.649C315.581 295.226 314.889 296.361 314.889 297.598V298.676L336.832 298.367C337.213 297.061 338.425 296.107 339.862 296.107C341.267 296.107 342.458 297.02 342.866 298.282L347.766 298.213L347.688 296.757C347.643 295.908 347.532 295.049 347.379 294.187L316.739 294.623Z" fill="#714700"/>
<path d="M354.483 209.543C354.895 204.037 350.64 199.285 345.088 199.052C339.619 198.822 335.013 203.072 334.841 208.508L332.606 278.915L349.291 278.915L354.483 209.543Z" fill="#8396A8"/>
<path d="M334.801 208.404C334.801 203.527 338.78 199.568 343.688 199.568C348.596 199.568 352.575 203.527 352.575 208.404C352.575 213.28 348.596 217.239 343.688 217.239C338.78 217.239 334.801 213.28 334.801 208.404Z" fill="#8396A8"/>
<path d="M359.399 164.933C358.944 159.104 363.345 153.974 369.208 153.496C375.152 153.012 380.281 157.494 380.559 163.415L382.57 206.26C382.823 211.639 378.7 216.272 373.299 216.68C367.867 217.09 363.158 213.079 362.737 207.682L359.399 164.933Z" fill="#8396A8"/>
<path d="M377.002 267.515C379.969 267.515 382.322 270.002 382.137 272.945L381.217 287.621L373.241 288.238L371.876 273.083C371.607 270.092 373.979 267.515 377.002 267.515Z" fill="#FFC933"/>
<path fill-rule="evenodd" clip-rule="evenodd" d="M401.671 294.649L381.578 284.163L381.576 284.164C378.606 290.34 372.975 285.863 372.975 285.863C372.729 287.029 372.415 288.221 372.098 289.424C371.456 291.861 370.802 294.345 370.672 296.757L370.595 298.214L375.494 298.283C375.902 297.021 377.093 296.107 378.498 296.107C379.935 296.107 381.147 297.062 381.529 298.368L403.471 298.677V297.599C403.471 296.362 402.779 295.227 401.671 294.649Z" fill="#A16B00"/>
<path fill-rule="evenodd" clip-rule="evenodd" d="M385.758 286.357C385.985 286.062 386.409 286.005 386.707 286.231C387.004 286.457 387.061 286.879 386.834 287.174L386.296 286.766L385.758 286.357ZM386.056 288.192C385.643 288.735 385.214 289.305 385.085 289.492C384.875 289.8 384.454 289.879 384.145 289.67C383.836 289.461 383.756 289.042 383.966 288.735C384.118 288.513 384.574 287.909 384.976 287.38C385.18 287.112 385.375 286.856 385.52 286.668C385.592 286.573 385.651 286.496 385.693 286.442L385.758 286.357C385.758 286.357 385.758 286.357 386.296 286.766C386.834 287.174 386.834 287.174 386.834 287.174L386.769 287.258C386.728 287.312 386.669 287.389 386.597 287.483C386.453 287.671 386.259 287.925 386.056 288.192Z" fill="white"/>
<path fill-rule="evenodd" clip-rule="evenodd" d="M388.647 287.596C388.874 287.301 389.299 287.244 389.596 287.47C389.893 287.695 389.95 288.118 389.723 288.413L389.659 288.497C389.618 288.551 389.559 288.628 389.487 288.722C389.343 288.909 389.149 289.164 388.945 289.431C388.532 289.974 388.103 290.544 387.975 290.731C387.765 291.038 387.343 291.118 387.034 290.909C386.725 290.7 386.645 290.281 386.856 289.974C387.008 289.751 387.464 289.147 387.865 288.619C388.07 288.351 388.265 288.095 388.409 287.906C388.481 287.812 388.541 287.735 388.582 287.681L388.647 287.596C388.647 287.596 388.647 287.596 389.14 287.97L388.647 287.596Z" fill="white"/>
<path fill-rule="evenodd" clip-rule="evenodd" d="M401.62 294.623L401.671 294.649C402.779 295.227 403.471 296.361 403.471 297.599V298.677L381.529 298.368C381.148 297.062 379.935 296.107 378.498 296.107C377.093 296.107 375.902 297.02 375.494 298.283L370.595 298.214L370.672 296.757C370.718 295.908 370.829 295.049 370.981 294.187L401.62 294.623Z" fill="#714700"/>
<path d="M362.995 210.173C362.594 204.92 366.465 200.299 371.737 199.738C377.362 199.14 382.33 203.378 382.586 208.993L385.755 278.613H368.221L362.995 210.173Z" fill="#8396A8"/>
<path d="M382.235 208.465C382.235 203.569 378.24 199.599 373.311 199.599H371.987C367.058 199.599 363.063 203.569 363.063 208.465C363.063 213.362 367.058 217.332 371.987 217.332H373.311C378.24 217.332 382.235 213.362 382.235 208.465Z" fill="#8396A8"/>
<path d="M380.294 138.288C380.294 132.708 375.741 128.185 370.125 128.185H347.449C341.715 128.185 337.115 132.893 337.285 138.588L338.043 163.944C338.219 169.818 343.422 174.281 349.296 173.596L371.385 171.022C376.465 170.43 380.294 166.154 380.294 161.072V138.288Z" fill="#8396A8"/>
<path fill-rule="evenodd" clip-rule="evenodd" d="M354.285 172.609C354.303 172.831 354.498 172.997 354.722 172.98L363.155 172.316C363.379 172.299 363.546 172.104 363.528 171.882C363.511 171.66 363.315 171.494 363.091 171.511L354.658 172.175C354.434 172.192 354.267 172.387 354.285 172.609Z" fill="#475E75"/>
<path d="M346.654 96.8202H370.199C387.55 96.8202 382.996 120.077 382.198 129.514V161.962H335.032C335.032 154.419 335.359 135.125 335.856 127.601C336.481 118.134 333.454 96.8202 346.654 96.8202Z" fill="#D5DADD"/>
<path d="M366.773 93.2012C365.036 95.9456 360.962 101.591 358.565 102.218C357.609 101.696 354.682 99.1605 350.618 93.2012L346.318 96.8604L352.181 107.315L358.565 102.218L365.34 107.315L371.072 96.8604L366.773 93.2012Z" fill="#EAECEE"/>
<path d="M358.564 102.218C360.962 101.591 365.035 95.9456 366.772 93.2012H350.617C354.682 99.1605 357.609 101.696 358.564 102.218Z" fill="#FFC933"/>
<path fill-rule="evenodd" clip-rule="evenodd" d="M371.276 96.4896C371.07 96.378 370.812 96.4535 370.699 96.6583L365.203 106.683L358.821 101.882C358.666 101.765 358.451 101.768 358.299 101.889L352.307 106.673L346.689 96.6548C346.575 96.4511 346.316 96.378 346.111 96.4916C345.906 96.6051 345.833 96.8623 345.947 97.0659L351.81 107.521C351.871 107.629 351.977 107.706 352.1 107.73C352.222 107.753 352.349 107.722 352.447 107.644L358.573 102.754L365.083 107.652C365.182 107.726 365.308 107.754 365.429 107.728C365.55 107.702 365.653 107.625 365.713 107.517L371.445 97.0624C371.557 96.8577 371.482 96.6012 371.276 96.4896Z" fill="#5B738B"/>
<path fill-rule="evenodd" clip-rule="evenodd" d="M357.663 107.436C357.428 107.436 357.238 107.625 357.238 107.858V158.282C357.238 158.516 357.428 158.705 357.663 158.705C357.898 158.705 358.088 158.516 358.088 158.282V107.858C358.088 107.625 357.898 107.436 357.663 107.436Z" fill="#5B738B"/>
<path d="M368.463 178.187H384.966V135.121L388.425 111.175C390.184 99.3535 381.823 96.8202 372.164 96.8202L367.553 140.248L368.463 178.187Z" fill="#344B97"/>
<path d="M349.162 178.187H332.66V135.121L329.201 111.175C327.442 99.3535 335.803 96.8202 345.461 96.8202L350.073 140.248L349.162 178.187Z" fill="#344B97"/>
<path fill-rule="evenodd" clip-rule="evenodd" d="M376.361 99.908C376.133 99.9623 375.993 100.19 376.047 100.417L377.914 108.17L369.571 137.721C369.508 137.946 369.639 138.179 369.865 138.242C370.091 138.305 370.325 138.174 370.389 137.949L378.762 108.292C378.781 108.223 378.783 108.15 378.766 108.08L376.873 100.22C376.819 99.9936 376.589 99.8537 376.361 99.908Z" fill="#5572C5"/>
<path fill-rule="evenodd" clip-rule="evenodd" d="M341.514 99.908C341.742 99.9623 341.882 100.19 341.828 100.417L339.961 108.17L348.304 137.721C348.367 137.946 348.236 138.179 348.01 138.242C347.784 138.305 347.55 138.174 347.486 137.949L339.113 108.292C339.094 108.223 339.092 108.15 339.109 108.08L341.002 100.22C341.056 99.9936 341.286 99.8537 341.514 99.908Z" fill="#5572C5"/>
<path d="M202.808 113.965C213.292 111.789 217.243 105.686 217.552 104.763C217.861 103.84 218.285 58.2625 208.068 58.5116C197.851 58.7608 184.539 56.5585 183.816 65.4993C183.093 74.4402 182.212 105.451 182.212 105.451C182.212 105.451 192.38 116.129 202.808 113.965Z" fill="#450B00"/>
<path d="M188.121 75.8472C189.366 75.4215 189.878 73.641 189.265 71.8704C188.652 70.0997 187.145 69.0095 185.9 69.4352C184.655 69.8609 184.143 71.6414 184.756 73.412C185.369 75.1827 186.876 76.2729 188.121 75.8472Z" fill="#A93E00"/>
<path d="M186.703 68.955C187.656 73.7491 187.76 79.5336 193.605 83.604C201.727 89.2682 206.963 84.7208 210.181 80.5039C213.819 75.7461 214.812 69.3982 213.308 65.0411C209.569 54.2309 205.597 44.5901 195.318 47.2971C185.038 50.004 185.146 61.1172 186.703 68.955Z" fill="#A93E00"/>
<path d="M207.708 82.4573L208.556 94.7575C208.556 94.7575 205.254 96.8361 201.688 96.9353C196.743 97.0716 193.521 95.3718 191.548 93.9696C192.797 89.0633 195.929 77.7512 195.929 77.7512L207.708 82.4573Z" fill="#A93E00"/>
<path d="M194.102 83.791L193.44 85.989C192.967 87.6371 205.878 91.0911 207.289 84.0286C203.875 90.1572 194.102 83.791 194.102 83.791Z" fill="#6D1900"/>
<path d="M206.064 75.642C203.45 76.2886 204 71.2595 203.965 70.3306C203.915 68.9815 204.592 68.2819 205.777 70.4375C206.962 72.5931 208.462 75.0484 206.064 75.642Z" fill="#6D1900"/>
<path d="M204.398 54.5301C204.398 54.5301 208.544 60.2156 206.653 61.9171C205.345 63.0916 196.936 65.4692 194.974 65.0836C193.012 64.6979 193.117 56.5221 193.117 56.5221C193.117 56.5221 192.763 64.9108 191.213 65.8285C187.386 68.1023 191.543 70.6928 190.408 71.6606C189.273 72.6284 185.312 72.7987 183.981 71.3626C182.651 69.9265 182.475 67.51 182.033 62.3604C181.591 57.2107 185.066 48.5365 189.917 47.5424C194.767 46.5482 204.366 45.4602 207.152 47.5424C209.938 49.6245 216.04 60.8992 214.713 62.9751C213.386 65.051 209.809 66.3757 209.008 64.738C208.207 63.1003 207.719 56.5371 204.398 54.5301Z" fill="#450B00"/>
<path d="M207.523 68.7199C207.547 68.9108 207.617 69.0849 207.723 69.2336L210.004 68.9531C210.07 68.7833 210.096 68.5975 210.072 68.4066C209.99 67.746 209.351 67.2806 208.648 67.3671C207.945 67.4536 207.441 68.0593 207.523 68.7199Z" fill="black"/>
<path d="M197.438 70.2202C197.461 70.4111 197.531 70.5852 197.637 70.7339L199.919 70.4534C199.984 70.2836 200.01 70.0978 199.986 69.9069C199.904 69.2463 199.265 68.781 198.562 68.8674C197.859 68.9539 197.355 69.5596 197.438 70.2202V70.2202Z" fill="black"/>
<path d="M203.159 78.9071C203.723 79.8394 204.97 80.3567 206.278 80.1079C207.586 79.859 208.552 78.9208 208.729 77.8474L203.16 78.9069L203.159 78.9071Z" fill="white"/>
<path d="M213.069 66.3387C213.269 66.3504 213.356 66.1138 213.199 65.9874C211.682 64.7587 209.49 63.6116 207.594 64.2884C207.046 64.4908 206.529 64.8143 206.163 65.2633C206.038 65.417 206.194 65.6097 206.386 65.5594C206.864 65.4342 207.336 65.3563 207.824 65.334C208.427 65.2926 208.985 65.415 209.58 65.5668C210.694 65.8432 211.877 66.2691 213.069 66.3387Z" fill="#450B00"/>
<path d="M196.654 67.156C197.195 66.8646 197.705 66.612 198.3 66.5048C198.78 66.4081 199.256 66.3696 199.752 66.3753C199.95 66.3776 200.054 66.1534 199.895 66.0346C199.43 65.6873 198.849 65.4986 198.268 65.4349C196.246 65.2354 194.38 66.9146 193.213 68.4861C193.099 68.6403 193.216 68.8039 193.395 68.7341C193.886 68.5424 194.849 68.1133 196.654 67.156Z" fill="#450B00"/>
<path d="M159.258 174.494C158.69 175.866 157.108 176.531 155.727 175.978C154.483 175.48 153.807 174.149 154.142 172.856L164.605 132.52C165.398 129.462 168.598 127.648 171.65 128.527C174.829 129.442 176.492 132.876 175.231 135.922L159.258 174.494Z" fill="#A93E00"/>
<ellipse cx="5.2017" cy="5.18035" rx="5.2017" ry="5.18035" transform="matrix(0.965237 0.263172 -0.265815 0.963532 166.509 127.1)" fill="#A93E00"/>
<path d="M153.663 173.757C154.353 172.727 155.646 172.191 156.92 172.515C157.799 172.738 158.488 173.324 158.867 174.071C159.418 174.77 159.649 176.136 159.39 177.618C159.217 178.606 158.858 179.463 158.416 180.054C158.435 180.129 158.448 180.207 158.457 180.286L158.967 185.059C159.048 185.816 158.486 186.512 157.727 186.597C157.08 186.67 156.49 186.271 156.322 185.649L155.393 182.21C155.158 183.373 155.049 184.56 155.37 185.622L157.475 192.571C157.728 193.405 157.289 194.301 156.494 194.572C155.7 194.842 154.851 194.385 154.598 193.55L151.092 186.479C150.16 184.139 150.046 182.101 151.031 179.402L153.293 174.306C153.416 174.1 153.539 173.918 153.663 173.757Z" fill="#A93E00"/>
<path d="M172.747 100.876C174.051 96.0894 179.48 93.6764 183.929 95.9061C187.499 97.6951 189.107 101.868 187.657 105.582L176.632 133.831C175.457 136.841 172.146 138.471 169.027 137.576C165.787 136.645 163.907 133.327 164.788 130.093L172.747 100.876Z" fill="#470CED"/>
<path d="M283.079 75.9964C283.905 74.761 283.575 73.0853 282.342 72.2562C281.23 71.5091 279.742 71.6966 278.851 72.6959L251.066 103.873C248.959 106.237 249.235 109.89 251.675 111.914C254.215 114.022 258.01 113.471 259.845 110.728L283.079 75.9964Z" fill="#A93E00"/>
<ellipse cx="5.19387" cy="5.1882" rx="5.19387" ry="5.1882" transform="matrix(0.760364 0.649338 0.653883 -0.756732 247.61 108.474)" fill="#A93E00"/>
<path d="M282.347 55.5813C282.58 54.4958 283.586 53.7501 284.699 53.8375C285.856 53.9283 286.749 54.8869 286.751 56.0403L286.777 71.9678C286.781 74.3599 284.643 76.1949 282.263 75.8418C280.019 75.5089 278.523 73.3626 278.997 71.1567L282.347 55.5813Z" fill="#A93E00"/>
<path d="M223.708 94.1402C218.844 93.0372 214.15 96.6694 214.042 101.621C213.955 105.595 216.908 108.966 220.888 109.437L251.149 113.021C254.375 113.403 257.378 111.262 258.047 108.104C258.742 104.823 256.676 101.615 253.389 100.87L223.708 94.1402Z" fill="#470CED"/>
<path d="M202.449 169.634C201.308 162.711 206.392 156.247 213.434 155.668C219.991 155.129 225.713 159.93 226.276 166.443L230.681 217.387C231.167 223.015 226.867 227.97 221.194 228.319C216.083 228.633 211.59 225.074 210.763 220.055L202.449 169.634Z" fill="#FECBDA"/>
<path d="M232.246 274.382L232.805 285.258C232.917 287.448 231.257 289.332 229.055 289.509C226.873 289.684 224.941 288.12 224.671 285.964L223.321 275.157C223.019 272.742 224.725 270.532 227.154 270.198C229.76 269.84 232.112 271.775 232.246 274.382Z" fill="#A93E00" stroke="#A93E00" stroke-width="0.414304"/>
<path d="M242.822 290.789C241.367 292.023 238.489 293.299 234.475 291.995C230.064 290.563 226.174 287.265 224.333 285.344C224.299 285.316 224.282 285.3 224.282 285.3C223.047 288.535 222.926 292.282 222.81 295.887C222.78 296.799 222.751 297.703 222.704 298.587H227.862V296.218L236.884 297.971C238.993 298.381 240.673 298.629 242.822 298.587L248.672 298.525C251.265 298.475 251.631 295.577 249.461 294.167C247.376 292.812 245.056 291.869 242.822 290.789Z" fill="#223548"/>
<path d="M242.822 290.789C239.31 289.091 235.624 287.082 232.907 284.073L232.906 284.075C229.935 290.251 224.282 285.301 224.282 285.301C224.282 285.301 224.3 285.316 224.333 285.344C226.174 287.265 230.064 290.563 234.475 291.996C238.489 293.3 241.367 292.023 242.822 290.789Z" fill="#A93E00"/>
<path d="M211.32 221.071C211.32 215.875 215.616 211.662 220.846 211.662C226.076 211.662 230.371 215.875 230.371 221.071C230.371 226.268 226.076 230.481 220.846 230.481C215.616 230.481 211.32 226.268 211.32 221.071Z" fill="#FECBDA"/>
<path d="M211.483 223.306C210.506 218.16 214.165 213.313 219.407 212.811L221.02 212.656C226.135 212.165 230.653 216.023 230.933 221.122L234.058 277.981H221.863L211.483 223.306Z" fill="#FECBDA"/>
<path d="M200.149 168.245C201.177 161.321 196.053 154.934 189.027 154.381C182.444 153.863 176.712 158.692 176.15 165.23L171.737 216.615C171.23 222.516 175.757 227.703 181.707 228.037C187.093 228.34 191.794 224.534 192.58 219.234L200.149 168.245Z" fill="#FECBDA"/>
<path d="M191.42 218.84C191.42 213.413 186.992 209.008 181.53 209.008C176.068 209.008 171.641 213.413 171.641 218.84C171.641 224.266 176.068 228.671 181.53 228.671C186.992 228.671 191.42 224.266 191.42 218.84Z" fill="#FECBDA"/>
<path d="M170.985 285.306L171.544 274.43C171.677 271.823 174.03 269.888 176.635 270.246C179.064 270.58 180.771 272.79 180.469 275.205L179.118 286.012C178.849 288.168 176.917 289.732 174.735 289.557C172.532 289.38 170.873 287.496 170.985 285.306Z" fill="#A93E00" stroke="#A93E00" stroke-width="0.414304"/>
<path d="M160.967 290.837C162.422 292.071 165.3 293.347 169.314 292.044C173.725 290.611 177.615 287.313 179.456 285.392C179.49 285.364 179.507 285.348 179.507 285.348C180.742 288.583 180.863 292.33 180.979 295.935C181.009 296.848 181.038 297.751 181.085 298.635H175.928V296.266L166.905 298.019C164.796 298.429 163.116 298.677 160.967 298.635L155.117 298.573C152.524 298.524 152.158 295.625 154.328 294.215C156.413 292.86 158.733 291.917 160.967 290.837Z" fill="#223548"/>
<path d="M160.968 290.837C164.48 289.139 168.166 287.13 170.883 284.121L170.884 284.123C173.855 290.299 179.508 285.349 179.508 285.349C179.508 285.349 179.49 285.364 179.457 285.392C177.616 287.313 173.726 290.611 169.315 292.044C165.301 293.348 162.423 292.071 160.968 290.837Z" fill="#A93E00"/>
<path d="M191.72 223.138C192.623 217.935 188.818 213.12 183.519 212.761L181.128 212.599C176.021 212.252 171.624 216.201 171.458 221.283L169.596 278.271H182.155L191.72 223.138Z" fill="#FECBDA"/>
<path d="M201.044 136.267C215.66 136.267 223.535 150.014 225.396 159.914C226.098 163.646 224.449 167.514 221.028 167.993L202.766 168.717C202.184 168.798 201.723 168.79 201.131 168.836C199.872 168.933 198.605 169.053 197.354 168.884L181.338 166.725C178.105 166.252 176.35 163.831 177.079 159.914C179.467 147.063 186.285 136.267 201.044 136.267Z" fill="#FECBDA"/>
<path fill-rule="evenodd" clip-rule="evenodd" d="M205.472 167.855C205.508 168.075 205.357 168.283 205.136 168.318L195.853 169.807C195.631 169.843 195.423 169.693 195.387 169.473C195.351 169.253 195.502 169.045 195.723 169.01L205.006 167.521C205.228 167.485 205.436 167.635 205.472 167.855Z" fill="#FE83AE"/>
<path fill-rule="evenodd" clip-rule="evenodd" d="M214.491 150.853C214.7 150.773 214.935 150.878 215.015 151.086L219.457 162.636C219.538 162.844 219.433 163.078 219.223 163.157C219.014 163.237 218.779 163.133 218.699 162.924L214.256 151.374C214.176 151.166 214.281 150.933 214.491 150.853Z" fill="#FE83AE"/>
<path fill-rule="evenodd" clip-rule="evenodd" d="M188.25 150.853C188.04 150.773 187.805 150.878 187.725 151.086L183.283 162.636C183.203 162.844 183.308 163.078 183.517 163.157C183.727 163.237 183.962 163.133 184.042 162.924L188.484 151.374C188.564 151.166 188.459 150.933 188.25 150.853Z" fill="#FE83AE"/>
<path d="M213.364 92.7316H188.341C158.739 92.7316 188.463 120.813 191.905 139.584H210.167C212.594 121.067 239.071 92.7316 213.364 92.7316Z" fill="#A93E00"/>
<path fill-rule="evenodd" clip-rule="evenodd" d="M181.489 93.4266C167.286 96.8192 174.266 112.073 181.056 126.911C183.287 131.788 185.498 136.62 186.93 140.971H214.428C215.603 134.854 218.123 128.295 220.524 122.045C225.779 108.366 230.463 96.1713 219.222 93.3456C217.282 97.896 209.564 101.296 200.338 101.296C191.167 101.296 183.486 97.9362 181.489 93.4266Z" fill="#470CED"/>
<path fill-rule="evenodd" clip-rule="evenodd" d="M176.507 115.969C176.714 115.885 176.951 115.984 177.036 116.191L180.797 125.388C180.882 125.594 180.782 125.83 180.574 125.914C180.366 125.998 180.129 125.899 180.045 125.692L176.283 116.495C176.199 116.288 176.299 116.053 176.507 115.969Z" fill="#2C13AD"/>
</g>
</g>
<defs>
<filter id="filter0_dd_38_6842" x="0.883789" y="0" width="582" height="322" filterUnits="userSpaceOnUse" color-interpolation-filters="sRGB">
<feFlood flood-opacity="0" result="BackgroundImageFix"/>
<feColorMatrix in="SourceAlpha" type="matrix" values="0 0 0 0 0 0 0 0 0 0 0 0 0 0 0 0 0 0 127 0" result="hardAlpha"/>
<feOffset dy="8"/>
<feGaussianBlur stdDeviation="8"/>
<feColorMatrix type="matrix" values="0 0 0 0 0.133333 0 0 0 0 0.207843 0 0 0 0 0.282353 0 0 0 0.16 0"/>
<feBlend mode="normal" in2="BackgroundImageFix" result="effect1_dropShadow_38_6842"/>
<feColorMatrix in="SourceAlpha" type="matrix" values="0 0 0 0 0 0 0 0 0 0 0 0 0 0 0 0 0 0 127 0" result="hardAlpha"/>
<feOffset/>
<feGaussianBlur stdDeviation="1"/>
<feColorMatrix type="matrix" values="0 0 0 0 0.133333 0 0 0 0 0.207843 0 0 0 0 0.282353 0 0 0 0.16 0"/>
<feBlend mode="normal" in2="effect1_dropShadow_38_6842" result="effect2_dropShadow_38_6842"/>
<feBlend mode="normal" in="SourceGraphic" in2="effect2_dropShadow_38_6842" result="shape"/>
</filter>
<clipPath id="clip0_38_6842">
<rect x="16.8838" y="8" width="550" height="290" rx="16" fill="white"/>
</clipPath>
<clipPath id="clip1_38_6842">
<rect width="553" height="309" fill="white" transform="translate(9 -10)"/>
</clipPath>
</defs>
</svg>
