<svg width="580" height="351" viewBox="0 0 580 351" fill="none" xmlns="http://www.w3.org/2000/svg">
<g filter="url(#filter0_dd_37_196)">
<path d="M53.623 29.2848C53.623 17.5295 63.1526 7.99991 74.9079 7.99991H505.287C517.042 7.99991 526.572 17.5295 526.572 29.2847V298.751C526.572 299.691 525.81 300.453 524.869 300.453H55.3258C54.3854 300.453 53.623 299.691 53.623 298.751V29.2848Z" fill="#5B738B"/>
<path fill-rule="evenodd" clip-rule="evenodd" d="M526.572 275.245V29.2847C526.572 17.5294 517.043 7.99986 505.288 7.99986H304.197L526.572 275.245Z" fill="#8396A8"/>
<rect x="76.6113" y="28.8589" width="426.974" height="250.735" rx="4.25697" fill="#F5F6F7"/>
<path d="M14.8848 304.285C14.8848 302.169 16.6001 300.453 18.716 300.453H561.053C563.169 300.453 564.885 302.169 564.885 304.285V306.839C564.885 318.594 555.355 328.124 543.6 328.124H36.1696C24.4143 328.124 14.8848 318.594 14.8848 306.839V304.285Z" fill="#8396A8"/>
<path d="M212.834 300.453H367.362V300.453C367.362 306.331 362.597 311.096 356.719 311.096H223.476C217.599 311.096 212.834 306.331 212.834 300.453V300.453Z" fill="#475E75"/>
<circle cx="290.098" cy="18.855" r="4.89551" fill="#475E75"/>
</g>
<rect x="76.3975" y="56.401" width="51.1237" height="223.193" fill="#EAECEE"/>
<rect x="76.3975" y="28.8589" width="426.974" height="28.4895" fill="#EAECEE"/>
<rect x="81.3369" y="36.2151" width="13.777" height="13.777" rx="1.72212" fill="#F56A00"/>
<rect x="467.637" y="38.3554" width="28.4895" height="9.4965" rx="4.74825" fill="#F56A00"/>
<rect x="100.424" y="36.2151" width="48.1538" height="5.93531" rx="2.96766" fill="#8396A8"/>
<rect x="101.154" y="46.1935" width="23.7412" height="3.98307" rx="1.99154" fill="#A9B4BE"/>
<rect x="130.062" y="46.1936" width="23.7412" height="3.98307" rx="1.99154" fill="#A9B4BE"/>
<rect x="158.97" y="46.1935" width="23.7412" height="3.98307" rx="1.99154" fill="#A9B4BE"/>
<rect x="187.877" y="46.1935" width="23.7412" height="3.98307" rx="1.99154" fill="#A9B4BE"/>
<rect x="80.0303" y="145.099" width="42.7342" height="9.4965" rx="4.74825" fill="#0070F2"/>
<rect x="80.327" y="65.0072" width="42.1407" height="8.90297" rx="4.45148" fill="white" stroke="#D5DADD" stroke-width="0.593531"/>
<rect x="81.3379" y="86.3864" width="30.8636" height="3.7986" rx="1.8993" fill="#A9B4BE"/>
<rect x="81.3379" y="94.9332" width="23.7412" height="3.7986" rx="1.8993" fill="#A9B4BE"/>
<rect x="81.3379" y="103.48" width="30.8636" height="3.7986" rx="1.8993" fill="#A9B4BE"/>
<rect x="81.3379" y="112.027" width="23.7412" height="3.7986" rx="1.8993" fill="#A9B4BE"/>
<rect x="81.3379" y="120.574" width="30.8636" height="3.7986" rx="1.8993" fill="#A9B4BE"/>
<rect x="81.3379" y="129.121" width="23.7412" height="3.7986" rx="1.8993" fill="#A9B4BE"/>
<path d="M127.521 57.3484H503.372V273.659C503.372 276.937 500.714 279.594 497.436 279.594H127.521V57.3484Z" fill="white"/>
<rect x="254.972" y="73.8422" width="210.27" height="185.342" rx="8.983" fill="#EBF8FF"/>
<rect x="254.972" y="73.8422" width="210.27" height="185.342" rx="8.983" stroke="#0070F2" stroke-width="1.02701"/>
<rect x="266.843" y="103.519" width="185.342" height="78.5062" rx="7.70257" fill="white"/>
<rect x="266.843" y="103.519" width="185.342" height="78.5062" rx="7.70257" stroke="#0070F2" stroke-width="1.02701"/>
<rect x="329.757" y="205.606" width="59.5132" height="44.0814" rx="7.70257" fill="white"/>
<rect x="329.757" y="205.606" width="59.5132" height="44.0814" rx="7.70257" stroke="#0070F2" stroke-width="1.02701"/>
<rect x="343.595" y="190.398" width="31.8373" height="8.21607" rx="4.10804" fill="#CC00DC"/>
<path d="M481.881 73.819L481.881 238.14" stroke="#5B738B" stroke-width="2.61154" stroke-linecap="round"/>
<path d="M171.364 185.949H241.291C243.258 185.949 244.852 187.544 244.852 189.51V225.266C244.852 227.232 246.447 228.827 248.413 228.827H327.99" stroke="#188918" stroke-width="1.18706"/>
<path d="M329.177 228.827L322.945 225.229L322.945 232.425L329.177 228.827Z" fill="#188918"/>
<rect x="145.511" y="130.194" width="85.6286" height="69.0097" rx="8.983" fill="#F5F6F7"/>
<rect x="145.511" y="130.194" width="85.6286" height="69.0097" rx="8.983" stroke="#8396A8" stroke-width="1.02701"/>
<mask id="mask0_37_196" style="mask-type:luminance" maskUnits="userSpaceOnUse" x="266" y="84" width="25" height="13">
<path fill-rule="evenodd" clip-rule="evenodd" d="M266.329 96.0145V84.1439H290.07V96.0145H266.329Z" fill="white"/>
</mask>
<g mask="url(#mask0_37_196)">
<path fill-rule="evenodd" clip-rule="evenodd" d="M278.2 96.0145L290.07 84.1439H266.329V96.0145H278.2Z" fill="#0070F2"/>
</g>
<rect x="293.945" y="87.0652" width="35.2977" height="5.93531" rx="2.96766" fill="#8396A8"/>
<defs>
<filter id="filter0_dd_37_196" x="0.0603514" y="0.587656" width="579.649" height="349.773" filterUnits="userSpaceOnUse" color-interpolation-filters="sRGB">
<feFlood flood-opacity="0" result="BackgroundImageFix"/>
<feColorMatrix in="SourceAlpha" type="matrix" values="0 0 0 0 0 0 0 0 0 0 0 0 0 0 0 0 0 0 127 0" result="hardAlpha"/>
<feOffset dy="7.41221"/>
<feGaussianBlur stdDeviation="7.41221"/>
<feComposite in2="hardAlpha" operator="out"/>
<feColorMatrix type="matrix" values="0 0 0 0 0.133333 0 0 0 0 0.207843 0 0 0 0 0.282353 0 0 0 0.16 0"/>
<feBlend mode="normal" in2="BackgroundImageFix" result="effect1_dropShadow_37_196"/>
<feColorMatrix in="SourceAlpha" type="matrix" values="0 0 0 0 0 0 0 0 0 0 0 0 0 0 0 0 0 0 127 0" result="hardAlpha"/>
<feOffset/>
<feGaussianBlur stdDeviation="0.463263"/>
<feComposite in2="hardAlpha" operator="out"/>
<feColorMatrix type="matrix" values="0 0 0 0 0.133333 0 0 0 0 0.207843 0 0 0 0 0.282353 0 0 0 0.48 0"/>
<feBlend mode="normal" in2="effect1_dropShadow_37_196" result="effect2_dropShadow_37_196"/>
<feBlend mode="normal" in="SourceGraphic" in2="effect2_dropShadow_37_196" result="shape"/>
</filter>
</defs>
</svg>
