<svg width="16" height="16" viewBox="0 0 16 16" fill="none" xmlns="http://www.w3.org/2000/svg">
<g id="Navigation Icon">
<path id="FAQ" d="M10.5 6C10.2708 6 10.0729 5.92708 9.90625 5.78125C9.76042 5.61458 9.6875 5.41667 9.6875 5.1875V2.8125C9.6875 2.58333 9.76042 2.39583 9.90625 2.25C10.0729 2.08333 10.2708 2 10.5 2C10.7292 2 10.9167 2.08333 11.0625 2.25C11.2292 2.39583 11.3125 2.58333 11.3125 2.8125V5.1875C11.3125 5.41667 11.2292 5.61458 11.0625 5.78125C10.9167 5.92708 10.7292 6 10.5 6ZM5 10.8125C5 10.5833 5.08333 10.3958 5.25 10.25C5.41667 10.0833 5.61458 10 5.84375 10C6.07292 10 6.25 10.0833 6.375 10.25C6.52083 10.3958 6.59375 10.5833 6.59375 10.8125C6.59375 11.0417 6.52083 11.2292 6.375 11.375C6.25 11.5208 6.07292 11.5938 5.84375 11.5938C5.61458 11.5938 5.41667 11.5208 5.25 11.375C5.08333 11.2292 5 11.0417 5 10.8125ZM8 7.25C8 7.85417 7.79167 8.38542 7.375 8.84375C6.95833 9.28125 6.44792 9.5 5.84375 9.5H5.8125C5.58333 9.5 5.39583 9.42708 5.25 9.28125C5.10417 9.13542 5.02083 8.94792 5 8.71875C5 8.48958 5.07292 8.30208 5.21875 8.15625C5.36458 7.98958 5.55208 7.90625 5.78125 7.90625C5.94792 7.88542 6.09375 7.8125 6.21875 7.6875C6.34375 7.5625 6.40625 7.41667 6.40625 7.25C6.40625 7.08333 6.33333 6.9375 6.1875 6.8125C6.0625 6.66667 5.91667 6.59375 5.75 6.59375C5.54167 6.59375 5.36458 6.6875 5.21875 6.875C5.05208 7.10417 4.83333 7.21875 4.5625 7.21875C4.375 7.21875 4.21875 7.16667 4.09375 7.0625C3.88542 6.91667 3.78125 6.70833 3.78125 6.4375C3.78125 6.20833 3.84375 6.01042 3.96875 5.84375C4.11458 5.65625 4.29167 5.5 4.5 5.375C4.70833 5.25 4.92708 5.15625 5.15625 5.09375C5.40625 5.03125 5.63542 5 5.84375 5C6.42708 5 6.92708 5.21875 7.34375 5.65625C7.78125 6.09375 8 6.625 8 7.25ZM10.1875 10C10.4167 10 10.6042 10.0833 10.75 10.25C10.9167 10.4167 11 10.6771 11 11.0312C11 11.3438 10.9271 11.6562 10.7812 11.9688C10.6354 12.2812 10.4375 12.5625 10.1875 12.8125C9.9375 13.0417 9.63542 13.2292 9.28125 13.375C8.94792 13.5208 8.58333 13.5938 8.1875 13.5938H3.53125L1.375 15.75C1.20833 15.9167 1.02083 16 0.8125 16C0.583333 16 0.385417 15.9167 0.21875 15.75C0.0729167 15.6042 0 15.4167 0 15.1875V5.8125C0 5.02083 0.270833 4.35417 0.8125 3.8125C1.35417 3.27083 2.02083 3 2.8125 3H7.1875C7.41667 3 7.60417 3.08333 7.75 3.25C7.91667 3.39583 8 3.58333 8 3.8125C8 4.04167 7.91667 4.22917 7.75 4.375C7.60417 4.52083 7.41667 4.59375 7.1875 4.59375H2.8125C2.45833 4.59375 2.16667 4.70833 1.9375 4.9375C1.70833 5.16667 1.59375 5.45833 1.59375 5.8125V13.25L2.625 12.2188C2.79167 12.0521 2.97917 11.9688 3.1875 11.9688H8.1875C8.54167 11.9688 8.83333 11.8542 9.0625 11.625C9.29167 11.3958 9.40625 11.1354 9.40625 10.8438C9.40625 10.5938 9.47917 10.3958 9.625 10.25C9.77083 10.0833 9.95833 10 10.1875 10ZM13.1875 0C13.9792 0 14.6458 0.270833 15.1875 0.8125C15.7292 1.35417 16 2.02083 16 2.8125V12.1875C16 12.5625 15.8333 12.8125 15.5 12.9375C15.375 12.9792 15.2708 13 15.1875 13C14.9792 13 14.7917 12.9167 14.625 12.75L12.2188 10.3438C12.0729 10.1562 12 9.97917 12 9.8125C12 9.5625 12.0833 9.36458 12.25 9.21875C12.4167 9.05208 12.6042 8.96875 12.8125 8.96875C13.0208 8.96875 13.2083 9.05208 13.375 9.21875L14.4062 10.25V2.8125C14.4062 2.45833 14.2917 2.16667 14.0625 1.9375C13.8333 1.70833 13.5417 1.59375 13.1875 1.59375H7.8125C7.5 1.59375 7.21875 1.69792 6.96875 1.90625C6.82292 2.09375 6.625 2.1875 6.375 2.1875C6.14583 2.16667 5.96875 2.09375 5.84375 1.96875C5.71875 1.82292 5.64583 1.65625 5.625 1.46875V1.40625C5.625 1.15625 5.69792 0.947917 5.84375 0.78125C6.01042 0.59375 6.20833 0.447917 6.4375 0.34375C6.66667 0.21875 6.90625 0.135417 7.15625 0.09375C7.40625 0.03125 7.625 0 7.8125 0H13.1875ZM10.5 6.90625C10.7292 6.90625 10.9167 6.98958 11.0625 7.15625C11.2292 7.30208 11.3125 7.48958 11.3125 7.71875C11.3125 7.94792 11.2292 8.13542 11.0625 8.28125C10.9167 8.42708 10.7292 8.5 10.5 8.5C10.2708 8.5 10.0729 8.42708 9.90625 8.28125C9.76042 8.13542 9.6875 7.94792 9.6875 7.71875C9.6875 7.48958 9.76042 7.30208 9.90625 7.15625C10.0729 6.98958 10.2708 6.90625 10.5 6.90625Z" fill="#1D2D3E"/>
</g>
</svg>
