<svg width="16" height="16" viewBox="0 0 16 16" fill="none" xmlns="http://www.w3.org/2000/svg">
<g id="Navigation Icon" clip-path="url(#clip0_96_361)">
<path id="Repo" fill-rule="evenodd" clip-rule="evenodd" d="M2 2.48007C1.77909 2.48007 1.6 2.65915 1.6 2.88007V13.12C1.6 13.3409 1.77909 13.52 2 13.52H14C14.2209 13.52 14.4 13.3409 14.4 13.12V4.29609C14.4 4.07518 14.2209 3.89609 14 3.89609H8.46119C7.91224 3.89609 7.38742 3.67045 7.00975 3.27206L6.37725 2.60487C6.30171 2.52519 6.19675 2.48007 6.08696 2.48007H2ZM0 2.88007C0 1.7755 0.89543 0.880066 2 0.880066H6.08696C6.63591 0.880066 7.16073 1.1057 7.5384 1.50409L8.1709 2.17129C8.24644 2.25096 8.3514 2.29609 8.46119 2.29609H14C15.1046 2.29609 16 3.19152 16 4.29609V13.12C16 14.2246 15.1046 15.12 14 15.12H2C0.89543 15.12 0 14.2246 0 13.12V2.88007Z" fill="#1D2D3E"/>
</g>
<defs>
<clipPath id="clip0_96_361">
<rect width="16" height="16" fill="white"/>
</clipPath>
</defs>
</svg>
