<svg width="16" height="16" viewBox="0 0 16 16" fill="none" xmlns="http://www.w3.org/2000/svg">
<g id="Navigation Icon">
<g id="Diagram">
<path d="M15.2 16H0.8C0.35625 16 0 15.6406 0 15.2C0 14.7594 0.35625 14.4 0.8 14.4H15.2C15.6406 14.4 16 14.7594 16 15.2C16 15.6406 15.6406 16 15.2 16Z" fill="#1D2D3E"/>
<path d="M12.8281 12.8V9.3875L9.41563 12.8H12.8281Z" fill="#1D2D3E"/>
<path d="M15.2 16C14.7594 16 14.4 15.6406 14.4 15.2V0.8C14.4 0.35625 14.7594 0 15.2 0C15.6406 0 16 0.35625 16 0.8V15.2C16 15.6406 15.6406 16 15.2 16Z" fill="#1D2D3E"/>
<path d="M0.8 16C0.59375 16 0.390625 15.9219 0.234375 15.7656C-0.078125 15.4531 -0.078125 14.9469 0.234375 14.6344L14.6344 0.234375C14.9469 -0.078125 15.4531 -0.078125 15.7656 0.234375C16.0781 0.546875 16.0781 1.05313 15.7656 1.36563L1.36563 15.7656C1.20938 15.9219 1.00625 16 0.8 16Z" fill="#1D2D3E"/>
<path d="M6.725 12.2469C6.51875 12.2469 6.31563 12.1687 6.15938 12.0125L5.35938 11.2125C5.04688 10.9 5.04688 10.3938 5.35938 10.0813C5.67188 9.76875 6.17812 9.76875 6.49062 10.0813L7.29063 10.8813C7.60313 11.1938 7.60313 11.7 7.29063 12.0125C7.13438 12.1687 6.93125 12.2469 6.725 12.2469Z" fill="#1D2D3E"/>
<path d="M9.125 9.84688C8.92188 9.84688 8.71562 9.76875 8.55937 9.6125L7.75938 8.8125C7.44688 8.5 7.44688 7.99375 7.75938 7.68125C8.07188 7.36875 8.57812 7.36875 8.89062 7.68125L9.69063 8.48125C10.0031 8.79375 10.0031 9.3 9.69063 9.6125C9.53438 9.76875 9.33125 9.84688 9.125 9.84688Z" fill="#1D2D3E"/>
<path d="M11.525 7.44688C11.3187 7.44688 11.1156 7.36875 10.9594 7.2125L10.1594 6.4125C9.84688 6.1 9.84688 5.59375 10.1594 5.28125C10.4719 4.96875 10.9781 4.96875 11.2906 5.28125L12.0906 6.08125C12.4031 6.39375 12.4031 6.9 12.0906 7.2125C11.9344 7.36875 11.7312 7.44688 11.525 7.44688Z" fill="#1D2D3E"/>
</g>
</g>
</svg>
